G04 Layer_Color=32896*
%FSLAX42Y42*%
%MOMM*%
G71*
G01*
G75*
%ADD19C,0.13*%
%ADD25C,0.20*%
%ADD26C,0.15*%
D19*
X900Y400D02*
Y500D01*
X850D01*
X833Y483D01*
Y450D01*
X850Y433D01*
X900D01*
X867D02*
X833Y400D01*
X800D02*
X767D01*
X783D01*
Y500D01*
X800Y483D01*
D25*
X790Y720D02*
Y730D01*
X660Y720D02*
Y730D01*
D26*
X1425Y100D02*
X1500D01*
X1425Y150D01*
X1500D01*
X1425Y175D02*
X1500D01*
Y212D01*
X1487Y225D01*
X1462D01*
X1450Y212D01*
Y175D01*
X1487Y300D02*
X1500Y287D01*
Y262D01*
X1487Y250D01*
X1475D01*
X1462Y262D01*
Y287D01*
X1450Y300D01*
X1437D01*
X1425Y287D01*
Y262D01*
X1437Y250D01*
X1487Y375D02*
X1500Y362D01*
Y337D01*
X1487Y325D01*
X1437D01*
X1425Y337D01*
Y362D01*
X1437Y375D01*
X1413Y400D02*
Y450D01*
X1425Y475D02*
Y512D01*
X1437Y525D01*
X1450Y512D01*
Y487D01*
X1462Y475D01*
X1475Y487D01*
Y525D01*
X1425Y587D02*
Y562D01*
X1437Y550D01*
X1462D01*
X1475Y562D01*
Y587D01*
X1462Y600D01*
X1450D01*
Y550D01*
X1425Y625D02*
X1475D01*
Y662D01*
X1462Y675D01*
X1425D01*
Y700D02*
Y737D01*
X1437Y750D01*
X1450Y737D01*
Y712D01*
X1462Y700D01*
X1475Y712D01*
Y750D01*
X1425Y787D02*
Y812D01*
X1437Y825D01*
X1462D01*
X1475Y812D01*
Y787D01*
X1462Y775D01*
X1437D01*
X1425Y787D01*
X1475Y850D02*
X1425D01*
X1450D01*
X1462Y862D01*
X1475Y875D01*
Y887D01*
X1425Y925D02*
Y962D01*
X1437Y975D01*
X1450Y962D01*
Y937D01*
X1462Y925D01*
X1475Y937D01*
Y975D01*
X1350Y112D02*
Y87D01*
X1337Y75D01*
X1287D01*
X1275Y87D01*
Y112D01*
X1287Y125D01*
X1337D01*
X1350Y112D01*
X1337Y162D02*
X1325D01*
Y150D01*
Y175D01*
Y162D01*
X1287D01*
X1275Y175D01*
X1350Y212D02*
X1275D01*
X1312D01*
X1325Y225D01*
Y250D01*
X1312Y262D01*
X1275D01*
Y287D02*
X1325D01*
Y325D01*
X1312Y337D01*
X1275D01*
Y362D02*
Y387D01*
Y375D01*
X1325D01*
Y362D01*
X1275Y462D02*
Y437D01*
X1287Y425D01*
X1312D01*
X1325Y437D01*
Y462D01*
X1312Y475D01*
X1300D01*
Y425D01*
X1275Y500D02*
Y525D01*
Y512D01*
X1350D01*
Y500D01*
Y637D02*
X1275D01*
X1300D01*
X1350Y687D01*
X1312Y650D01*
X1275Y687D01*
Y725D02*
Y750D01*
X1287Y762D01*
X1312D01*
X1325Y750D01*
Y725D01*
X1312Y712D01*
X1287D01*
X1275Y725D01*
Y787D02*
X1325D01*
Y825D01*
X1312Y837D01*
X1275D01*
X1325Y875D02*
Y900D01*
X1312Y912D01*
X1275D01*
Y875D01*
X1287Y862D01*
X1300Y875D01*
Y912D01*
X1275Y937D02*
X1325D01*
Y975D01*
X1312Y987D01*
X1275D01*
X625Y962D02*
X613Y975D01*
X588D01*
X575Y962D01*
Y950D01*
X588Y937D01*
X600D01*
X588D01*
X575Y925D01*
Y912D01*
X588Y900D01*
X613D01*
X625Y912D01*
X550Y975D02*
Y925D01*
X525Y900D01*
X500Y925D01*
Y975D01*
X475Y962D02*
X463Y975D01*
X438D01*
X425Y962D01*
Y950D01*
X438Y937D01*
X450D01*
X438D01*
X425Y925D01*
Y912D01*
X438Y900D01*
X463D01*
X475Y912D01*
X700Y200D02*
X650D01*
X675D01*
Y125D01*
X575Y200D02*
X625D01*
Y125D01*
X575D01*
X625Y162D02*
X600D01*
X550Y125D02*
Y200D01*
X525Y175D01*
X500Y200D01*
Y125D01*
X475D02*
Y200D01*
X438D01*
X425Y187D01*
Y162D01*
X438Y150D01*
X475D01*
X625Y450D02*
Y375D01*
X575D01*
X550Y450D02*
Y375D01*
X513D01*
X500Y387D01*
Y437D01*
X513Y450D01*
X550D01*
X475Y375D02*
Y450D01*
X438D01*
X425Y437D01*
Y412D01*
X438Y400D01*
X475D01*
X450D02*
X425Y375D01*
X575Y687D02*
X588Y700D01*
X613D01*
X625Y687D01*
Y637D01*
X613Y625D01*
X588D01*
X575Y637D01*
Y662D01*
X600D01*
X550Y625D02*
Y700D01*
X500Y625D01*
Y700D01*
X475D02*
Y625D01*
X438D01*
X425Y637D01*
Y687D01*
X438Y700D01*
X475D01*
X1850Y75D02*
X1800Y100D01*
X1850Y125D01*
X1800Y150D02*
Y175D01*
Y162D01*
X1875D01*
X1862Y150D01*
X1800Y212D02*
X1812D01*
Y225D01*
X1800D01*
Y212D01*
X1862Y275D02*
X1875Y287D01*
Y312D01*
X1862Y325D01*
X1812D01*
X1800Y312D01*
Y287D01*
X1812Y275D01*
X1862D01*
X1200Y175D02*
Y125D01*
X1125D01*
Y175D01*
X1162Y125D02*
Y150D01*
X1187Y250D02*
X1200Y237D01*
Y212D01*
X1187Y200D01*
X1137D01*
X1125Y212D01*
Y237D01*
X1137Y250D01*
X1200Y325D02*
Y275D01*
X1125D01*
Y325D01*
X1162Y275D02*
Y300D01*
X1125Y475D02*
Y425D01*
X1175Y475D01*
X1187D01*
X1200Y462D01*
Y437D01*
X1187Y425D01*
Y500D02*
X1200Y512D01*
Y537D01*
X1187Y550D01*
X1137D01*
X1125Y537D01*
Y512D01*
X1137Y500D01*
X1187D01*
X1125Y575D02*
Y600D01*
Y587D01*
X1200D01*
X1187Y575D01*
X1200Y637D02*
Y687D01*
X1187D01*
X1137Y637D01*
X1125D01*
M02*
