G04 Layer_Color=32896*
%FSLAX42Y42*%
%MOMM*%
G71*
G01*
G75*
%ADD19C,0.13*%
%ADD25C,0.20*%
%ADD26C,0.05*%
D19*
X600Y550D02*
Y650D01*
X550D01*
X533Y633D01*
Y600D01*
X550Y583D01*
X600D01*
X567D02*
X533Y550D01*
X500D02*
X467D01*
X483D01*
Y650D01*
X500Y633D01*
X1750Y175D02*
Y225D01*
X1717Y175D01*
Y225D01*
X1700Y175D02*
Y225D01*
X1675D01*
X1667Y217D01*
Y200D01*
X1675Y192D01*
X1700D01*
X1617Y217D02*
X1625Y225D01*
X1642D01*
X1650Y217D01*
Y208D01*
X1642Y200D01*
X1625D01*
X1617Y192D01*
Y183D01*
X1625Y175D01*
X1642D01*
X1650Y183D01*
X1567Y217D02*
X1575Y225D01*
X1592D01*
X1600Y217D01*
Y183D01*
X1592Y175D01*
X1575D01*
X1567Y183D01*
X1500Y175D02*
X1475D01*
X1467Y183D01*
X1475Y192D01*
X1492D01*
X1500Y200D01*
X1492Y208D01*
X1467D01*
X1425Y175D02*
X1442D01*
X1450Y183D01*
Y200D01*
X1442Y208D01*
X1425D01*
X1417Y200D01*
Y192D01*
X1450D01*
X1400Y175D02*
Y208D01*
X1375D01*
X1367Y200D01*
Y175D01*
X1350D02*
X1325D01*
X1317Y183D01*
X1325Y192D01*
X1342D01*
X1350Y200D01*
X1342Y208D01*
X1317D01*
X1292Y175D02*
X1275D01*
X1267Y183D01*
Y200D01*
X1275Y208D01*
X1292D01*
X1300Y200D01*
Y183D01*
X1292Y175D01*
X1250Y208D02*
Y175D01*
Y192D01*
X1242Y200D01*
X1234Y208D01*
X1225D01*
X1200Y175D02*
X1175D01*
X1167Y183D01*
X1175Y192D01*
X1192D01*
X1200Y200D01*
X1192Y208D01*
X1167D01*
X1100Y175D02*
Y208D01*
X1092D01*
X1084Y200D01*
Y175D01*
Y200D01*
X1075Y208D01*
X1067Y200D01*
Y175D01*
X1042D02*
X1025D01*
X1017Y183D01*
Y200D01*
X1025Y208D01*
X1042D01*
X1050Y200D01*
Y183D01*
X1042Y175D01*
X967Y225D02*
Y175D01*
X992D01*
X1000Y183D01*
Y200D01*
X992Y208D01*
X967D01*
X950D02*
Y183D01*
X942Y175D01*
X917D01*
Y208D01*
X900Y175D02*
X884D01*
X892D01*
Y225D01*
X900D01*
X834Y175D02*
X850D01*
X859Y183D01*
Y200D01*
X850Y208D01*
X834D01*
X825Y200D01*
Y192D01*
X859D01*
X1775Y125D02*
X1792D01*
X1800Y117D01*
Y83D01*
X1792Y75D01*
X1775D01*
X1767Y83D01*
Y117D01*
X1775Y125D01*
X1742Y117D02*
Y108D01*
X1750D01*
X1733D01*
X1742D01*
Y83D01*
X1733Y75D01*
X1708Y125D02*
Y75D01*
Y100D01*
X1700Y108D01*
X1683D01*
X1675Y100D01*
Y75D01*
X1658D02*
Y108D01*
X1633D01*
X1625Y100D01*
Y75D01*
X1608D02*
X1592D01*
X1600D01*
Y108D01*
X1608D01*
X1542Y75D02*
X1558D01*
X1567Y83D01*
Y100D01*
X1558Y108D01*
X1542D01*
X1533Y100D01*
Y92D01*
X1567D01*
X1517Y75D02*
X1500D01*
X1508D01*
Y125D01*
X1517D01*
X1425D02*
Y75D01*
Y92D01*
X1392Y125D01*
X1417Y100D01*
X1392Y75D01*
X1367D02*
X1350D01*
X1342Y83D01*
Y100D01*
X1350Y108D01*
X1367D01*
X1375Y100D01*
Y83D01*
X1367Y75D01*
X1325D02*
Y108D01*
X1300D01*
X1292Y100D01*
Y75D01*
X1267Y108D02*
X1250D01*
X1242Y100D01*
Y75D01*
X1267D01*
X1275Y83D01*
X1267Y92D01*
X1242D01*
X1225Y75D02*
Y108D01*
X1200D01*
X1192Y100D01*
Y75D01*
X1092Y125D02*
X1125D01*
Y75D01*
X1092D01*
X1125Y100D02*
X1109D01*
X1042Y117D02*
X1050Y125D01*
X1067D01*
X1075Y117D01*
Y83D01*
X1067Y75D01*
X1050D01*
X1042Y83D01*
X992Y125D02*
X1025D01*
Y75D01*
X992D01*
X1025Y100D02*
X1009D01*
X892Y75D02*
X925D01*
X892Y108D01*
Y117D01*
X900Y125D01*
X917D01*
X925Y117D01*
X875D02*
X867Y125D01*
X850D01*
X842Y117D01*
Y83D01*
X850Y75D01*
X867D01*
X875Y83D01*
Y117D01*
X825Y75D02*
X809D01*
X817D01*
Y125D01*
X825Y117D01*
X784Y125D02*
X750D01*
Y117D01*
X784Y83D01*
Y75D01*
D25*
X790Y720D02*
Y730D01*
X660Y720D02*
Y730D01*
D26*
X446Y900D02*
X450Y904D01*
Y913D01*
X446Y917D01*
X442D01*
X438Y913D01*
Y908D01*
Y913D01*
X433Y917D01*
X429D01*
X425Y913D01*
Y904D01*
X429Y900D01*
X450Y925D02*
X433D01*
X425Y934D01*
X433Y942D01*
X450D01*
X446Y951D02*
X450Y955D01*
Y963D01*
X446Y968D01*
X442D01*
X438Y963D01*
Y959D01*
Y963D01*
X433Y968D01*
X429D01*
X425Y963D01*
Y955D01*
X429Y951D01*
X450Y150D02*
Y167D01*
Y158D01*
X425D01*
X450Y192D02*
Y175D01*
X425D01*
Y192D01*
X438Y175D02*
Y184D01*
X425Y201D02*
X450D01*
X442Y209D01*
X450Y218D01*
X425D01*
Y226D02*
X450D01*
Y239D01*
X446Y243D01*
X438D01*
X433Y239D01*
Y226D01*
X450Y400D02*
X425D01*
Y417D01*
X450Y425D02*
X425D01*
Y438D01*
X429Y442D01*
X446D01*
X450Y438D01*
Y425D01*
X425Y451D02*
X450D01*
Y463D01*
X446Y468D01*
X438D01*
X433Y463D01*
Y451D01*
Y459D02*
X425Y468D01*
X446Y617D02*
X450Y613D01*
Y604D01*
X446Y600D01*
X429D01*
X425Y604D01*
Y613D01*
X429Y617D01*
X438D01*
Y608D01*
X425Y625D02*
X450D01*
X425Y642D01*
X450D01*
Y651D02*
X425D01*
Y663D01*
X429Y668D01*
X446D01*
X450Y663D01*
Y651D01*
M02*
