G04 Layer_Physical_Order=2*
G04 Layer_Color=16711680*
%FSLAX42Y42*%
%MOMM*%
G71*
G01*
G75*
%ADD10C,0.71*%
%ADD11C,0.90*%
%ADD12C,3.50*%
%ADD13C,1.27*%
%ADD14R,1.50X1.25*%
%ADD15R,3.00X1.50*%
%ADD16C,1.00*%
%ADD17C,0.75*%
G36*
X477Y837D02*
X455Y828D01*
X437Y813D01*
X422Y795D01*
X413Y773D01*
X401Y774D01*
X400Y775D01*
Y775D01*
X238D01*
Y675D01*
Y575D01*
X399D01*
X407Y565D01*
X368Y525D01*
X50D01*
X50Y525D01*
X50Y537D01*
X49Y562D01*
X62Y575D01*
X212D01*
Y675D01*
Y775D01*
X50D01*
X49Y788D01*
X49Y812D01*
X62Y825D01*
X400D01*
Y849D01*
X475D01*
X477Y837D01*
D02*
G37*
G36*
X1870Y1047D02*
X1886Y1036D01*
X1897Y1020D01*
X1901Y1001D01*
X1900Y1000D01*
X1900D01*
Y710D01*
X1887Y704D01*
X1862Y725D01*
X1827Y744D01*
X1789Y755D01*
X1750Y759D01*
X1711Y755D01*
X1673Y744D01*
X1638Y725D01*
X1608Y700D01*
X1583Y669D01*
X1564Y635D01*
X1564Y634D01*
X1551Y636D01*
Y900D01*
X1548Y920D01*
X1541Y938D01*
X1529Y954D01*
X1453Y1029D01*
X1442Y1038D01*
X1446Y1051D01*
X1850Y1051D01*
X1870Y1047D01*
D02*
G37*
G36*
X1564Y480D02*
X1583Y446D01*
X1608Y415D01*
X1638Y390D01*
X1673Y371D01*
X1711Y360D01*
X1750Y356D01*
X1789Y360D01*
X1827Y371D01*
X1862Y390D01*
X1887Y411D01*
X1900Y405D01*
Y100D01*
X1900D01*
X1901Y99D01*
X1897Y80D01*
X1886Y64D01*
X1870Y53D01*
X1862Y51D01*
X1850Y50D01*
X1837Y50D01*
X100Y49D01*
X80Y53D01*
X67Y62D01*
X71Y75D01*
X400D01*
Y160D01*
X652Y411D01*
X778D01*
X780Y398D01*
X762Y391D01*
X746Y379D01*
X734Y363D01*
X727Y345D01*
X724Y325D01*
Y225D01*
X727Y205D01*
X734Y187D01*
X746Y171D01*
X796Y121D01*
X812Y109D01*
X820Y106D01*
X830Y102D01*
X850Y99D01*
X1375D01*
X1395Y102D01*
X1413Y109D01*
X1429Y121D01*
X1529Y221D01*
X1541Y237D01*
X1544Y245D01*
X1548Y255D01*
X1551Y275D01*
Y479D01*
X1564Y481D01*
X1564Y480D01*
D02*
G37*
G36*
X1399Y868D02*
Y819D01*
X1386Y815D01*
X1370Y828D01*
X1348Y837D01*
X1338Y838D01*
Y750D01*
Y662D01*
X1348Y663D01*
X1370Y672D01*
X1386Y685D01*
X1399Y681D01*
Y307D01*
X1343Y251D01*
X1093D01*
X1090Y263D01*
X1090Y264D01*
X1104Y275D01*
X1115Y289D01*
X1123Y307D01*
X1123Y312D01*
X1054D01*
Y325D01*
X1041D01*
Y394D01*
X1036Y394D01*
X1018Y386D01*
X1004Y375D01*
X991Y380D01*
Y423D01*
X986Y448D01*
X972Y468D01*
X929Y511D01*
X935Y524D01*
X950D01*
X970Y527D01*
X988Y534D01*
X1004Y546D01*
X1016Y562D01*
X1023Y580D01*
X1026Y600D01*
X1023Y620D01*
X1016Y638D01*
X1004Y654D01*
X988Y666D01*
X970Y673D01*
X950Y676D01*
X882D01*
X879Y679D01*
X863Y691D01*
X845Y698D01*
X825Y701D01*
Y708D01*
X625D01*
Y696D01*
X600D01*
X595Y698D01*
X588Y699D01*
X581Y713D01*
X587Y727D01*
X588Y737D01*
X500D01*
Y763D01*
X588D01*
X587Y773D01*
X578Y795D01*
X563Y813D01*
X545Y828D01*
X523Y837D01*
X525Y849D01*
X598D01*
X625Y823D01*
Y742D01*
X825D01*
Y819D01*
X879Y873D01*
X891Y866D01*
X890Y863D01*
X1010D01*
X1007Y874D01*
X999Y887D01*
X1006Y899D01*
X1368D01*
X1399Y868D01*
D02*
G37*
G36*
X832Y1038D02*
X821Y1029D01*
X727Y935D01*
X684Y979D01*
X668Y991D01*
X650Y998D01*
X630Y1001D01*
X400D01*
Y1025D01*
X71D01*
X67Y1038D01*
X80Y1047D01*
X88Y1049D01*
X100Y1050D01*
X113Y1050D01*
X828Y1050D01*
X832Y1038D01*
D02*
G37*
%LPC*%
G36*
X1067Y394D02*
Y338D01*
X1123D01*
X1123Y343D01*
X1115Y361D01*
X1104Y375D01*
X1090Y386D01*
X1072Y394D01*
X1067Y394D01*
D02*
G37*
G36*
X937Y837D02*
X890D01*
X893Y826D01*
X906Y806D01*
X926Y793D01*
X937Y790D01*
Y837D01*
D02*
G37*
G36*
X1312Y737D02*
X1237D01*
X1238Y727D01*
X1247Y705D01*
X1262Y687D01*
X1280Y672D01*
X1302Y663D01*
X1312Y662D01*
Y737D01*
D02*
G37*
G36*
Y838D02*
X1302Y837D01*
X1280Y828D01*
X1262Y813D01*
X1247Y795D01*
X1238Y773D01*
X1237Y763D01*
X1312D01*
Y838D01*
D02*
G37*
G36*
X1010Y837D02*
X963D01*
Y790D01*
X974Y793D01*
X994Y806D01*
X1007Y826D01*
X1010Y837D01*
D02*
G37*
%LPD*%
D10*
X950Y600D02*
D03*
D03*
Y850D02*
D03*
D11*
X1054Y325D02*
D03*
X927D02*
D03*
X800D02*
D03*
D12*
X1750Y557D02*
D03*
D13*
X500Y750D02*
D03*
X1325D02*
D03*
D14*
X725Y620D02*
D03*
Y830D02*
D03*
D15*
X225Y925D02*
D03*
Y675D02*
D03*
Y425D02*
D03*
Y175D02*
D03*
D16*
X729Y830D02*
X875Y975D01*
X1400D01*
X1475Y900D01*
Y275D02*
Y900D01*
X1375Y175D02*
X1475Y275D01*
X850Y175D02*
X1375D01*
X800Y225D02*
X850Y175D01*
X800Y225D02*
Y325D01*
X725Y620D02*
X730Y625D01*
X825D01*
X850Y600D01*
X950D01*
X375Y425D02*
X575Y625D01*
X580Y620D01*
X725D01*
X425Y675D02*
X500Y750D01*
X225Y675D02*
X425D01*
X630Y925D02*
X725Y830D01*
X225Y925D02*
X630D01*
D17*
X927Y325D02*
Y423D01*
X875Y475D02*
X927Y423D01*
X625Y475D02*
X875D01*
X325Y175D02*
X625Y475D01*
X225Y175D02*
X325D01*
M02*
