G04 Layer_Physical_Order=1*
G04 Layer_Color=255*
%FSLAX42Y42*%
%MOMM*%
G71*
G01*
G75*
%ADD10C,0.71*%
%ADD11C,0.90*%
%ADD12C,3.50*%
%ADD13C,1.27*%
G36*
X1870Y1047D02*
X1886Y1036D01*
X1897Y1020D01*
X1901Y1001D01*
X1900Y1000D01*
X1900D01*
Y710D01*
X1887Y704D01*
X1862Y725D01*
X1827Y744D01*
X1789Y755D01*
X1750Y759D01*
X1711Y755D01*
X1673Y744D01*
X1638Y725D01*
X1608Y700D01*
X1583Y669D01*
X1564Y635D01*
X1552Y597D01*
X1549Y557D01*
X1552Y518D01*
X1564Y480D01*
X1583Y446D01*
X1608Y415D01*
X1638Y390D01*
X1673Y371D01*
X1711Y360D01*
X1750Y356D01*
X1789Y360D01*
X1827Y371D01*
X1862Y390D01*
X1887Y411D01*
X1900Y405D01*
Y100D01*
X1900D01*
X1901Y99D01*
X1897Y80D01*
X1886Y64D01*
X1870Y53D01*
X1862Y51D01*
X1850Y50D01*
X1837Y50D01*
X100Y49D01*
X80Y53D01*
X64Y64D01*
X53Y80D01*
X49Y99D01*
X50Y100D01*
X50D01*
X49Y1000D01*
X53Y1020D01*
X64Y1036D01*
X80Y1047D01*
X88Y1049D01*
X100Y1050D01*
X113Y1050D01*
X1850Y1051D01*
X1870Y1047D01*
D02*
G37*
%LPC*%
G36*
X588Y737D02*
X513D01*
Y662D01*
X523Y663D01*
X545Y672D01*
X563Y687D01*
X578Y705D01*
X587Y727D01*
X588Y737D01*
D02*
G37*
G36*
X487D02*
X412D01*
X413Y727D01*
X422Y705D01*
X437Y687D01*
X455Y672D01*
X477Y663D01*
X487Y662D01*
Y737D01*
D02*
G37*
G36*
X1413D02*
X1338D01*
Y662D01*
X1348Y663D01*
X1370Y672D01*
X1388Y687D01*
X1403Y705D01*
X1412Y727D01*
X1413Y737D01*
D02*
G37*
G36*
X1312D02*
X1237D01*
X1238Y727D01*
X1247Y705D01*
X1262Y687D01*
X1280Y672D01*
X1302Y663D01*
X1312Y662D01*
Y737D01*
D02*
G37*
G36*
X1067Y394D02*
Y338D01*
X1123D01*
X1123Y343D01*
X1115Y361D01*
X1104Y375D01*
X1090Y386D01*
X1072Y394D01*
X1067Y394D01*
D02*
G37*
G36*
X1123Y312D02*
X1067D01*
Y256D01*
X1072Y256D01*
X1090Y264D01*
X1104Y275D01*
X1115Y289D01*
X1123Y307D01*
X1123Y312D01*
D02*
G37*
G36*
X950Y662D02*
X926Y657D01*
X906Y644D01*
X893Y624D01*
X888Y600D01*
X893Y576D01*
X906Y556D01*
X926Y543D01*
X950Y538D01*
X974Y543D01*
X994Y556D01*
X1007Y576D01*
X1012Y600D01*
X1007Y624D01*
X994Y644D01*
X974Y657D01*
X950Y662D01*
D02*
G37*
G36*
X927Y396D02*
X909Y394D01*
X891Y386D01*
X877Y375D01*
X872Y368D01*
X855D01*
X850Y375D01*
X836Y386D01*
X818Y394D01*
X800Y396D01*
X782Y394D01*
X764Y386D01*
X750Y375D01*
X739Y361D01*
X731Y343D01*
X729Y325D01*
X731Y307D01*
X739Y289D01*
X750Y275D01*
X764Y264D01*
X782Y256D01*
X800Y254D01*
X818Y256D01*
X836Y264D01*
X850Y275D01*
X855Y282D01*
X872D01*
X877Y275D01*
X891Y264D01*
X909Y256D01*
X927Y254D01*
X945Y256D01*
X963Y264D01*
X977Y275D01*
X982Y282D01*
X999D01*
X1004Y275D01*
X1018Y264D01*
X1036Y256D01*
X1041Y256D01*
Y325D01*
Y394D01*
X1036Y394D01*
X1018Y386D01*
X1004Y375D01*
X999Y368D01*
X982D01*
X977Y375D01*
X963Y386D01*
X945Y394D01*
X927Y396D01*
D02*
G37*
G36*
X937Y837D02*
X890D01*
X893Y826D01*
X906Y806D01*
X926Y793D01*
X937Y790D01*
Y837D01*
D02*
G37*
G36*
X1338Y838D02*
Y763D01*
X1413D01*
X1412Y773D01*
X1403Y795D01*
X1388Y813D01*
X1370Y828D01*
X1348Y837D01*
X1338Y838D01*
D02*
G37*
G36*
X937Y910D02*
X926Y907D01*
X906Y894D01*
X893Y874D01*
X890Y863D01*
X937D01*
Y910D01*
D02*
G37*
G36*
X1010Y837D02*
X963D01*
Y790D01*
X974Y793D01*
X994Y806D01*
X1007Y826D01*
X1010Y837D01*
D02*
G37*
G36*
X487Y838D02*
X477Y837D01*
X455Y828D01*
X437Y813D01*
X422Y795D01*
X413Y773D01*
X412Y763D01*
X487D01*
Y838D01*
D02*
G37*
G36*
X963Y910D02*
Y863D01*
X1010D01*
X1007Y874D01*
X994Y894D01*
X974Y907D01*
X963Y910D01*
D02*
G37*
G36*
X1312Y838D02*
X1302Y837D01*
X1280Y828D01*
X1262Y813D01*
X1247Y795D01*
X1238Y773D01*
X1237Y763D01*
X1312D01*
Y838D01*
D02*
G37*
G36*
X513D02*
Y763D01*
X588D01*
X587Y773D01*
X578Y795D01*
X563Y813D01*
X545Y828D01*
X523Y837D01*
X513Y838D01*
D02*
G37*
%LPD*%
D10*
X950Y600D02*
D03*
D03*
Y850D02*
D03*
D11*
X1054Y325D02*
D03*
X927D02*
D03*
X800D02*
D03*
D12*
X1750Y557D02*
D03*
D13*
X500Y750D02*
D03*
X1325D02*
D03*
M02*
