G04 Layer_Color=65535*
%FSLAX42Y42*%
%MOMM*%
G71*
G01*
G75*
%ADD17C,0.25*%
%ADD18C,0.20*%
%ADD19C,0.25*%
D17*
X10268Y235D02*
G03*
X10268Y235I-12J0D01*
G01*
X8768D02*
G03*
X8768Y235I-12J0D01*
G01*
X7268D02*
G03*
X7268Y235I-12J0D01*
G01*
X5767D02*
G03*
X5767Y235I-12J0D01*
G01*
X4267D02*
G03*
X4267Y235I-12J0D01*
G01*
X2767D02*
G03*
X2767Y235I-12J0D01*
G01*
X1268D02*
G03*
X1268Y235I-12J0D01*
G01*
D18*
X10130Y320D02*
Y480D01*
X9630Y650D02*
X10130D01*
X9630Y320D02*
Y480D01*
Y150D02*
X10130D01*
X8630Y320D02*
Y480D01*
X8130Y650D02*
X8630D01*
X8130Y320D02*
Y480D01*
Y150D02*
X8630D01*
X7130Y320D02*
Y480D01*
X6630Y650D02*
X7130D01*
X6630Y320D02*
Y480D01*
Y150D02*
X7130D01*
X5630Y320D02*
Y480D01*
X5130Y650D02*
X5630D01*
X5130Y320D02*
Y480D01*
Y150D02*
X5630D01*
X4130Y320D02*
Y480D01*
X3630Y650D02*
X4130D01*
X3630Y320D02*
Y480D01*
Y150D02*
X4130D01*
X2630Y320D02*
Y480D01*
X2130Y650D02*
X2630D01*
X2130Y320D02*
Y480D01*
Y150D02*
X2630D01*
X1130Y320D02*
Y480D01*
X630Y650D02*
X1130D01*
X630Y320D02*
Y480D01*
Y150D02*
X1130D01*
D19*
X9225Y317D02*
Y190D01*
X9250Y165D01*
X9301D01*
X9327Y190D01*
Y317D01*
X9377D02*
X9479D01*
Y292D01*
X9377Y190D01*
Y165D01*
X7725Y317D02*
Y190D01*
X7750Y165D01*
X7801D01*
X7827Y190D01*
Y317D01*
X7979D02*
X7928Y292D01*
X7877Y241D01*
Y190D01*
X7903Y165D01*
X7954D01*
X7979Y190D01*
Y216D01*
X7954Y241D01*
X7877D01*
X6225Y317D02*
Y190D01*
X6250Y165D01*
X6301D01*
X6327Y190D01*
Y317D01*
X6479D02*
X6377D01*
Y241D01*
X6428Y267D01*
X6454D01*
X6479Y241D01*
Y190D01*
X6454Y165D01*
X6403D01*
X6377Y190D01*
X4750Y317D02*
Y190D01*
X4775Y165D01*
X4826D01*
X4852Y190D01*
Y317D01*
X4979Y165D02*
Y317D01*
X4902Y241D01*
X5004D01*
X3250Y317D02*
Y190D01*
X3275Y165D01*
X3326D01*
X3352Y190D01*
Y317D01*
X3402Y292D02*
X3428Y317D01*
X3479D01*
X3504Y292D01*
Y267D01*
X3479Y241D01*
X3453D01*
X3479D01*
X3504Y216D01*
Y190D01*
X3479Y165D01*
X3428D01*
X3402Y190D01*
X1750Y317D02*
Y190D01*
X1775Y165D01*
X1826D01*
X1852Y190D01*
Y317D01*
X2004Y165D02*
X1902D01*
X2004Y267D01*
Y292D01*
X1979Y317D01*
X1928D01*
X1902Y292D01*
X300Y317D02*
Y190D01*
X325Y165D01*
X376D01*
X402Y190D01*
Y317D01*
X452Y165D02*
X503D01*
X478D01*
Y317D01*
X452Y292D01*
M02*
