G04 Layer_Physical_Order=1*
G04 Layer_Color=255*
%FSLAX42Y42*%
%MOMM*%
G71*
G01*
G75*
%ADD10R,1.50X0.90*%
%ADD11C,1.00*%
%ADD12C,3.50*%
%ADD13O,3.50X3.54*%
%ADD14C,1.27*%
G36*
X10270Y747D02*
X10286Y736D01*
X10297Y720D01*
X10301Y701D01*
X10300Y700D01*
X10300D01*
X10301Y100D01*
X10297Y80D01*
X10286Y64D01*
X10270Y53D01*
X10251Y49D01*
X10250Y50D01*
Y50D01*
X887Y49D01*
X887Y49D01*
X863D01*
X863Y49D01*
X726Y49D01*
X719Y60D01*
X722Y67D01*
X725Y90D01*
X722Y113D01*
X713Y135D01*
X711Y137D01*
Y165D01*
X735D01*
Y305D01*
X662D01*
X655Y308D01*
X635Y311D01*
X615Y308D01*
X608Y305D01*
X535D01*
Y165D01*
X559D01*
Y137D01*
X557Y135D01*
X548Y113D01*
X545Y90D01*
X548Y67D01*
X551Y60D01*
X544Y49D01*
X100Y49D01*
X80Y53D01*
X64Y64D01*
X53Y80D01*
X49Y99D01*
X50Y100D01*
X50D01*
X49Y700D01*
X53Y720D01*
X64Y736D01*
X80Y747D01*
X99Y751D01*
X100Y750D01*
Y750D01*
X831D01*
X832Y737D01*
X827Y737D01*
X805Y728D01*
X787Y713D01*
X772Y695D01*
X763Y673D01*
X763Y671D01*
X733Y641D01*
X635D01*
X615Y638D01*
X608Y635D01*
X535D01*
Y495D01*
X608D01*
X615Y492D01*
X635Y489D01*
X765D01*
X785Y492D01*
X803Y499D01*
X819Y511D01*
X871Y563D01*
X873Y563D01*
X895Y572D01*
X913Y587D01*
X928Y605D01*
X937Y627D01*
X940Y650D01*
X937Y673D01*
X928Y695D01*
X913Y713D01*
X895Y728D01*
X873Y737D01*
X868Y737D01*
X869Y750D01*
X10250D01*
Y750D01*
X10251Y751D01*
X10270Y747D01*
D02*
G37*
%LPC*%
G36*
X2612Y222D02*
X2525D01*
Y165D01*
X2612D01*
Y222D01*
D02*
G37*
G36*
X1225D02*
X1138D01*
Y165D01*
X1225D01*
Y222D01*
D02*
G37*
G36*
X4112D02*
X4025D01*
Y165D01*
X4112D01*
Y222D01*
D02*
G37*
G36*
X2725D02*
X2638D01*
Y165D01*
X2725D01*
Y222D01*
D02*
G37*
G36*
X862Y238D02*
X852Y237D01*
X830Y228D01*
X812Y213D01*
X797Y195D01*
X788Y173D01*
X787Y163D01*
X862D01*
Y238D01*
D02*
G37*
G36*
X7125Y641D02*
X7105Y638D01*
X7098Y635D01*
X7025D01*
Y495D01*
X7088D01*
X7401Y181D01*
X7417Y169D01*
X7425Y166D01*
X7435Y162D01*
X7455Y159D01*
X8135D01*
X8155Y162D01*
X8162Y165D01*
X8235D01*
Y305D01*
X8162D01*
X8155Y308D01*
X8135Y311D01*
X7487D01*
X7225Y572D01*
Y635D01*
X7152D01*
X7145Y638D01*
X7125Y641D01*
D02*
G37*
G36*
X1112Y222D02*
X1025D01*
Y165D01*
X1112D01*
Y222D01*
D02*
G37*
G36*
X888Y238D02*
Y163D01*
X963D01*
X962Y173D01*
X953Y195D01*
X938Y213D01*
X920Y228D01*
X898Y237D01*
X888Y238D01*
D02*
G37*
G36*
X4225Y222D02*
X4138D01*
Y165D01*
X4225D01*
Y222D01*
D02*
G37*
G36*
X8725D02*
X8638D01*
Y165D01*
X8725D01*
Y222D01*
D02*
G37*
G36*
X8612D02*
X8525D01*
Y165D01*
X8612D01*
Y222D01*
D02*
G37*
G36*
X10225D02*
X10138D01*
Y165D01*
X10225D01*
Y222D01*
D02*
G37*
G36*
X10112D02*
X10025D01*
Y165D01*
X10112D01*
Y222D01*
D02*
G37*
G36*
X5725D02*
X5638D01*
Y165D01*
X5725D01*
Y222D01*
D02*
G37*
G36*
X5612D02*
X5525D01*
Y165D01*
X5612D01*
Y222D01*
D02*
G37*
G36*
X7225D02*
X7138D01*
Y165D01*
X7225D01*
Y222D01*
D02*
G37*
G36*
X7112D02*
X7025D01*
Y165D01*
X7112D01*
Y222D01*
D02*
G37*
G36*
X8468Y142D02*
X8393D01*
Y67D01*
X8403Y68D01*
X8425Y77D01*
X8443Y92D01*
X8458Y110D01*
X8467Y132D01*
X8468Y142D01*
D02*
G37*
G36*
X8367D02*
X8292D01*
X8293Y132D01*
X8302Y110D01*
X8317Y92D01*
X8335Y77D01*
X8357Y68D01*
X8367Y67D01*
Y142D01*
D02*
G37*
G36*
X9968D02*
X9893D01*
Y67D01*
X9903Y68D01*
X9925Y77D01*
X9943Y92D01*
X9958Y110D01*
X9967Y132D01*
X9968Y142D01*
D02*
G37*
G36*
X9867D02*
X9792D01*
X9793Y132D01*
X9802Y110D01*
X9817Y92D01*
X9835Y77D01*
X9857Y68D01*
X9867Y67D01*
Y142D01*
D02*
G37*
G36*
X862Y137D02*
X787D01*
X788Y127D01*
X797Y105D01*
X812Y87D01*
X830Y72D01*
X852Y63D01*
X862Y62D01*
Y137D01*
D02*
G37*
G36*
X963D02*
X888D01*
Y62D01*
X898Y63D01*
X920Y72D01*
X938Y87D01*
X953Y105D01*
X962Y127D01*
X963Y137D01*
D02*
G37*
G36*
X2468Y142D02*
X2393D01*
Y67D01*
X2403Y68D01*
X2425Y77D01*
X2443Y92D01*
X2458Y110D01*
X2467Y132D01*
X2468Y142D01*
D02*
G37*
G36*
X2367D02*
X2292D01*
X2293Y132D01*
X2302Y110D01*
X2317Y92D01*
X2335Y77D01*
X2357Y68D01*
X2367Y67D01*
Y142D01*
D02*
G37*
G36*
X3867Y142D02*
X3792D01*
X3793Y132D01*
X3802Y110D01*
X3817Y92D01*
X3835Y77D01*
X3857Y68D01*
X3867Y67D01*
Y142D01*
D02*
G37*
G36*
X2625Y641D02*
X2605Y638D01*
X2598Y635D01*
X2525D01*
Y495D01*
X2588D01*
X2901Y181D01*
X2917Y169D01*
X2925Y166D01*
X2935Y162D01*
X2955Y159D01*
X3635D01*
X3655Y162D01*
X3662Y165D01*
X3735D01*
Y305D01*
X3662D01*
X3655Y308D01*
X3635Y311D01*
X2987D01*
X2725Y572D01*
Y635D01*
X2652D01*
X2645Y638D01*
X2625Y641D01*
D02*
G37*
G36*
X6968Y142D02*
X6893D01*
Y67D01*
X6903Y68D01*
X6925Y77D01*
X6943Y92D01*
X6958Y110D01*
X6967Y132D01*
X6968Y142D01*
D02*
G37*
G36*
X5625Y641D02*
X5605Y638D01*
X5598Y635D01*
X5525D01*
Y495D01*
X5588D01*
X5901Y181D01*
X5917Y169D01*
X5925Y166D01*
X5935Y162D01*
X5955Y159D01*
X6635D01*
X6655Y162D01*
X6662Y165D01*
X6735D01*
Y305D01*
X6662D01*
X6655Y308D01*
X6635Y311D01*
X5987D01*
X5725Y572D01*
Y635D01*
X5652D01*
X5645Y638D01*
X5625Y641D01*
D02*
G37*
G36*
X4125D02*
X4105Y638D01*
X4098Y635D01*
X4025D01*
Y495D01*
X4088D01*
X4401Y181D01*
X4417Y169D01*
X4425Y166D01*
X4435Y162D01*
X4455Y159D01*
X5135D01*
X5155Y162D01*
X5162Y165D01*
X5235D01*
Y305D01*
X5162D01*
X5155Y308D01*
X5135Y311D01*
X4487D01*
X4225Y572D01*
Y635D01*
X4152D01*
X4145Y638D01*
X4125Y641D01*
D02*
G37*
G36*
X5367Y142D02*
X5292D01*
X5293Y132D01*
X5302Y110D01*
X5317Y92D01*
X5335Y77D01*
X5357Y68D01*
X5367Y67D01*
Y142D01*
D02*
G37*
G36*
X3968D02*
X3893D01*
Y67D01*
X3903Y68D01*
X3925Y77D01*
X3943Y92D01*
X3958Y110D01*
X3967Y132D01*
X3968Y142D01*
D02*
G37*
G36*
X6867D02*
X6792D01*
X6793Y132D01*
X6802Y110D01*
X6817Y92D01*
X6835Y77D01*
X6857Y68D01*
X6867Y67D01*
Y142D01*
D02*
G37*
G36*
X5468D02*
X5393D01*
Y67D01*
X5403Y68D01*
X5425Y77D01*
X5443Y92D01*
X5458Y110D01*
X5467Y132D01*
X5468Y142D01*
D02*
G37*
G36*
X2367Y243D02*
X2357Y242D01*
X2335Y233D01*
X2317Y218D01*
X2302Y200D01*
X2293Y178D01*
X2292Y168D01*
X2367D01*
Y243D01*
D02*
G37*
G36*
X8725Y305D02*
X8638D01*
Y248D01*
X8725D01*
Y305D01*
D02*
G37*
G36*
X8612D02*
X8525D01*
Y248D01*
X8612D01*
Y305D01*
D02*
G37*
G36*
X10225D02*
X10138D01*
Y248D01*
X10225D01*
Y305D01*
D02*
G37*
G36*
X10112D02*
X10025D01*
Y248D01*
X10112D01*
Y305D01*
D02*
G37*
G36*
X5725D02*
X5638D01*
Y248D01*
X5725D01*
Y305D01*
D02*
G37*
G36*
X5612D02*
X5525D01*
Y248D01*
X5612D01*
Y305D01*
D02*
G37*
G36*
X7225D02*
X7138D01*
Y248D01*
X7225D01*
Y305D01*
D02*
G37*
G36*
X7112D02*
X7025D01*
Y248D01*
X7112D01*
Y305D01*
D02*
G37*
G36*
X1625Y701D02*
X1586Y698D01*
X1548Y686D01*
X1513Y667D01*
X1483Y642D01*
X1458Y612D01*
X1439Y577D01*
X1427Y539D01*
X1424Y500D01*
X1427Y461D01*
X1439Y423D01*
X1458Y388D01*
X1483Y358D01*
X1513Y333D01*
X1530Y324D01*
X1526Y311D01*
X1487D01*
X1225Y572D01*
Y635D01*
X1152D01*
X1145Y638D01*
X1125Y641D01*
X1105Y638D01*
X1098Y635D01*
X1025D01*
Y495D01*
X1088D01*
X1401Y181D01*
X1417Y169D01*
X1425Y166D01*
X1435Y162D01*
X1455Y159D01*
X2135D01*
X2155Y162D01*
X2162Y165D01*
X2235D01*
Y305D01*
X2162D01*
X2155Y308D01*
X2135Y311D01*
X1724D01*
X1720Y324D01*
X1737Y333D01*
X1767Y358D01*
X1792Y388D01*
X1811Y423D01*
X1823Y461D01*
X1826Y500D01*
X1823Y539D01*
X1811Y577D01*
X1792Y612D01*
X1767Y642D01*
X1737Y667D01*
X1702Y686D01*
X1664Y698D01*
X1625Y701D01*
D02*
G37*
G36*
X7935Y655D02*
X7912Y652D01*
X7890Y643D01*
X7872Y628D01*
X7857Y610D01*
X7848Y588D01*
X7845Y565D01*
X7848Y542D01*
X7857Y520D01*
X7872Y502D01*
X7890Y487D01*
X7912Y478D01*
X7935Y475D01*
X7958Y478D01*
X7980Y487D01*
X7982Y489D01*
X8135D01*
X8155Y492D01*
X8162Y495D01*
X8235D01*
Y635D01*
X8162D01*
X8155Y638D01*
X8135Y641D01*
X7982D01*
X7980Y643D01*
X7958Y652D01*
X7935Y655D01*
D02*
G37*
G36*
X6435D02*
X6412Y652D01*
X6390Y643D01*
X6372Y628D01*
X6357Y610D01*
X6348Y588D01*
X6345Y565D01*
X6348Y542D01*
X6357Y520D01*
X6372Y502D01*
X6390Y487D01*
X6412Y478D01*
X6435Y475D01*
X6458Y478D01*
X6480Y487D01*
X6482Y489D01*
X6635D01*
X6655Y492D01*
X6662Y495D01*
X6735D01*
Y635D01*
X6662D01*
X6655Y638D01*
X6635Y641D01*
X6482D01*
X6480Y643D01*
X6458Y652D01*
X6435Y655D01*
D02*
G37*
G36*
X10225Y635D02*
X10025D01*
Y495D01*
X10225D01*
Y635D01*
D02*
G37*
G36*
X9435Y655D02*
X9412Y652D01*
X9390Y643D01*
X9372Y628D01*
X9357Y610D01*
X9348Y588D01*
X9345Y565D01*
X9348Y542D01*
X9357Y520D01*
X9372Y502D01*
X9390Y487D01*
X9412Y478D01*
X9435Y475D01*
X9458Y478D01*
X9480Y487D01*
X9482Y489D01*
X9635D01*
X9655Y492D01*
X9662Y495D01*
X9735D01*
Y635D01*
X9662D01*
X9655Y638D01*
X9635Y641D01*
X9482D01*
X9480Y643D01*
X9458Y652D01*
X9435Y655D01*
D02*
G37*
G36*
X1935D02*
X1912Y652D01*
X1890Y643D01*
X1872Y628D01*
X1857Y610D01*
X1848Y588D01*
X1845Y565D01*
X1848Y542D01*
X1857Y520D01*
X1872Y502D01*
X1890Y487D01*
X1912Y478D01*
X1935Y475D01*
X1958Y478D01*
X1980Y487D01*
X1982Y489D01*
X2135D01*
X2155Y492D01*
X2162Y495D01*
X2235D01*
Y635D01*
X2162D01*
X2155Y638D01*
X2135Y641D01*
X1982D01*
X1980Y643D01*
X1958Y652D01*
X1935Y655D01*
D02*
G37*
G36*
X9125Y703D02*
X9086Y700D01*
X9048Y688D01*
X9013Y669D01*
X8983Y644D01*
X8958Y614D01*
X8939Y579D01*
X8928Y541D01*
X8924Y502D01*
Y498D01*
X8928Y459D01*
X8939Y421D01*
X8958Y386D01*
X8983Y356D01*
X9013Y331D01*
X9026Y324D01*
X9023Y311D01*
X8987D01*
X8725Y572D01*
Y635D01*
X8652D01*
X8645Y638D01*
X8625Y641D01*
X8605Y638D01*
X8598Y635D01*
X8525D01*
Y495D01*
X8588D01*
X8901Y181D01*
X8917Y169D01*
X8925Y166D01*
X8935Y162D01*
X8955Y159D01*
X9635D01*
X9655Y162D01*
X9662Y165D01*
X9735D01*
Y305D01*
X9662D01*
X9655Y308D01*
X9635Y311D01*
X9227D01*
X9224Y324D01*
X9237Y331D01*
X9267Y356D01*
X9292Y386D01*
X9311Y421D01*
X9323Y459D01*
X9326Y498D01*
Y502D01*
X9323Y541D01*
X9311Y579D01*
X9292Y614D01*
X9267Y644D01*
X9237Y669D01*
X9202Y688D01*
X9164Y700D01*
X9125Y703D01*
D02*
G37*
G36*
X4940Y655D02*
X4917Y652D01*
X4895Y643D01*
X4877Y628D01*
X4862Y610D01*
X4853Y588D01*
X4850Y565D01*
X4853Y542D01*
X4862Y520D01*
X4877Y502D01*
X4895Y487D01*
X4917Y478D01*
X4940Y475D01*
X4963Y478D01*
X4985Y487D01*
X4987Y489D01*
X5135D01*
X5155Y492D01*
X5162Y495D01*
X5235D01*
Y635D01*
X5162D01*
X5155Y638D01*
X5135Y641D01*
X4987D01*
X4985Y643D01*
X4963Y652D01*
X4940Y655D01*
D02*
G37*
G36*
X3435D02*
X3412Y652D01*
X3390Y643D01*
X3372Y628D01*
X3357Y610D01*
X3348Y588D01*
X3345Y565D01*
X3348Y542D01*
X3357Y520D01*
X3372Y502D01*
X3390Y487D01*
X3412Y478D01*
X3435Y475D01*
X3458Y478D01*
X3480Y487D01*
X3482Y489D01*
X3635D01*
X3655Y492D01*
X3662Y495D01*
X3735D01*
Y635D01*
X3662D01*
X3655Y638D01*
X3635Y641D01*
X3482D01*
X3480Y643D01*
X3458Y652D01*
X3435Y655D01*
D02*
G37*
G36*
X3867Y243D02*
X3857Y242D01*
X3835Y233D01*
X3817Y218D01*
X3802Y200D01*
X3793Y178D01*
X3792Y168D01*
X3867D01*
Y243D01*
D02*
G37*
G36*
X9893Y243D02*
Y168D01*
X9968D01*
X9967Y178D01*
X9958Y200D01*
X9943Y218D01*
X9925Y233D01*
X9903Y242D01*
X9893Y243D01*
D02*
G37*
G36*
X5367Y243D02*
X5357Y242D01*
X5335Y233D01*
X5317Y218D01*
X5302Y200D01*
X5293Y178D01*
X5292Y168D01*
X5367D01*
Y243D01*
D02*
G37*
G36*
X3893D02*
Y168D01*
X3968D01*
X3967Y178D01*
X3958Y200D01*
X3943Y218D01*
X3925Y233D01*
X3903Y242D01*
X3893Y243D01*
D02*
G37*
G36*
X8367Y243D02*
X8357Y242D01*
X8335Y233D01*
X8317Y218D01*
X8302Y200D01*
X8293Y178D01*
X8292Y168D01*
X8367D01*
Y243D01*
D02*
G37*
G36*
X2393D02*
Y168D01*
X2468D01*
X2467Y178D01*
X2458Y200D01*
X2443Y218D01*
X2425Y233D01*
X2403Y242D01*
X2393Y243D01*
D02*
G37*
G36*
X9867D02*
X9857Y242D01*
X9835Y233D01*
X9817Y218D01*
X9802Y200D01*
X9793Y178D01*
X9792Y168D01*
X9867D01*
Y243D01*
D02*
G37*
G36*
X8393D02*
Y168D01*
X8468D01*
X8467Y178D01*
X8458Y200D01*
X8443Y218D01*
X8425Y233D01*
X8403Y242D01*
X8393Y243D01*
D02*
G37*
G36*
X5393Y243D02*
Y168D01*
X5468D01*
X5467Y178D01*
X5458Y200D01*
X5443Y218D01*
X5425Y233D01*
X5403Y242D01*
X5393Y243D01*
D02*
G37*
G36*
X2725Y305D02*
X2638D01*
Y248D01*
X2725D01*
Y305D01*
D02*
G37*
G36*
X2612D02*
X2525D01*
Y248D01*
X2612D01*
Y305D01*
D02*
G37*
G36*
X4225D02*
X4138D01*
Y248D01*
X4225D01*
Y305D01*
D02*
G37*
G36*
X4112D02*
X4025D01*
Y248D01*
X4112D01*
Y305D01*
D02*
G37*
G36*
X6893Y243D02*
Y168D01*
X6968D01*
X6967Y178D01*
X6958Y200D01*
X6943Y218D01*
X6925Y233D01*
X6903Y242D01*
X6893Y243D01*
D02*
G37*
G36*
X6867D02*
X6857Y242D01*
X6835Y233D01*
X6817Y218D01*
X6802Y200D01*
X6793Y178D01*
X6792Y168D01*
X6867D01*
Y243D01*
D02*
G37*
G36*
X1225Y305D02*
X1138D01*
Y248D01*
X1225D01*
Y305D01*
D02*
G37*
G36*
X1112D02*
X1025D01*
Y248D01*
X1112D01*
Y305D01*
D02*
G37*
%LPD*%
D10*
X9635Y235D02*
D03*
Y565D02*
D03*
X10125D02*
D03*
Y235D02*
D03*
X8135D02*
D03*
Y565D02*
D03*
X8625D02*
D03*
Y235D02*
D03*
X6635D02*
D03*
Y565D02*
D03*
X7125D02*
D03*
Y235D02*
D03*
X5135D02*
D03*
Y565D02*
D03*
X5625D02*
D03*
Y235D02*
D03*
X3635D02*
D03*
Y565D02*
D03*
X4125D02*
D03*
Y235D02*
D03*
X2135D02*
D03*
Y565D02*
D03*
X2625D02*
D03*
Y235D02*
D03*
X635D02*
D03*
Y565D02*
D03*
X1125D02*
D03*
Y235D02*
D03*
D11*
X3875Y150D02*
X3880Y155D01*
X875Y150D02*
Y150D01*
X635Y90D02*
Y235D01*
X1125Y565D02*
X1455Y235D01*
X2135D01*
X2625Y565D02*
X2955Y235D01*
X3635D01*
X1935Y565D02*
X2135D01*
X635D02*
X765D01*
X850Y650D01*
X3435Y565D02*
X3635D01*
X4940D02*
X5135D01*
X6435D02*
X6635D01*
X7935D02*
X8135D01*
X9435D02*
X9635D01*
X4125D02*
X4455Y235D01*
X5135D01*
X5625Y565D02*
X5955Y235D01*
X6635D01*
X7125Y565D02*
X7455Y235D01*
X8135D01*
X8625Y565D02*
X8955Y235D01*
X9635D01*
D12*
X1625Y500D02*
D03*
D13*
X9125D02*
D03*
D14*
X635Y90D02*
D03*
X1935Y565D02*
D03*
X850Y650D02*
D03*
X3435Y565D02*
D03*
X4940D02*
D03*
X6435D02*
D03*
X7935D02*
D03*
X9435D02*
D03*
X2380Y155D02*
D03*
X3880Y155D02*
D03*
X5380D02*
D03*
X6880D02*
D03*
X8380Y155D02*
D03*
X9880D02*
D03*
X875Y150D02*
D03*
M02*
