G04 Layer_Color=2752767*
%FSLAX42Y42*%
%MOMM*%
G71*
G01*
G75*
%ADD28C,0.05*%
%ADD29C,0.07*%
D28*
X280Y280D02*
Y320D01*
X320D01*
Y280D01*
X280D01*
Y3280D02*
Y3320D01*
X320D01*
Y3280D01*
X280D01*
X12030Y280D02*
Y320D01*
X12070D01*
Y280D01*
X12030D01*
Y3280D02*
Y3320D01*
X12070D01*
Y3280D01*
X12030D01*
X900Y2280D02*
X880Y2320D01*
X920D01*
X900Y2280D01*
X11849Y2531D02*
X11828Y2572D01*
X11869D01*
X11849Y2531D01*
X3317Y2341D02*
X3297Y2382D01*
X3338D01*
X3317Y2341D01*
Y2990D02*
X3297Y3031D01*
X3338D01*
X3317Y2990D01*
X5785Y2298D02*
X5765Y2338D01*
X5806D01*
X5785Y2298D01*
Y2947D02*
X5765Y2987D01*
X5806D01*
X5785Y2947D01*
X6841Y1486D02*
X6821Y1527D01*
X6862D01*
X6841Y1486D01*
X9434Y2391D02*
X9413Y2431D01*
X9454D01*
X9434Y2391D01*
Y3040D02*
X9413Y3080D01*
X9454D01*
X9434Y3040D01*
X6951Y2985D02*
X6931Y3026D01*
X6971D01*
X6951Y2985D01*
X540Y2530D02*
X520Y2570D01*
X560D01*
X540Y2530D01*
X525Y2305D02*
X505Y2345D01*
X545D01*
X525Y2305D01*
X650Y1130D02*
X630Y1170D01*
X670D01*
X650Y1130D01*
X650Y1360D02*
X629Y1400D01*
X670D01*
X650Y1360D01*
X260Y980D02*
X240Y1020D01*
X280D01*
X260Y980D01*
D29*
X1052Y1815D02*
G03*
X1052Y1815I-20J0D01*
G01*
X1132Y2413D02*
G03*
X1132Y2413I-20J0D01*
G01*
X11520Y1800D02*
G03*
X11520Y1800I-20J0D01*
G01*
X7341Y2398D02*
G03*
X7341Y2398I-20J0D01*
G01*
X6577Y2354D02*
G03*
X6577Y2354I-20J0D01*
G01*
X11660Y2953D02*
G03*
X11660Y2953I-20J0D01*
G01*
X10420Y900D02*
G03*
X10420Y900I-20J0D01*
G01*
X11203Y1502D02*
G03*
X11203Y1502I-20J0D01*
G01*
X11180Y2414D02*
G03*
X11180Y2414I-20J0D01*
G01*
X9234Y2940D02*
G03*
X9234Y2940I-20J0D01*
G01*
X8755Y2402D02*
G03*
X8755Y2402I-20J0D01*
G01*
X8778Y1490D02*
G03*
X8778Y1490I-20J0D01*
G01*
X4320Y900D02*
G03*
X4320Y900I-20J0D01*
G01*
X5094Y1502D02*
G03*
X5094Y1502I-20J0D01*
G01*
X5071Y2414D02*
G03*
X5071Y2414I-20J0D01*
G01*
X5550Y2953D02*
G03*
X5550Y2953I-20J0D01*
G01*
X1985Y576D02*
G03*
X1985Y576I-20J0D01*
G01*
X1779Y908D02*
G03*
X1779Y908I-20J0D01*
G01*
X2570Y1504D02*
G03*
X2570Y1504I-20J0D01*
G01*
X2546Y2416D02*
G03*
X2546Y2416I-20J0D01*
G01*
X3026Y2954D02*
G03*
X3026Y2954I-20J0D01*
G01*
X1612Y2951D02*
G03*
X1612Y2951I-20J0D01*
G01*
X1528Y2357D02*
G03*
X1528Y2357I-20J0D01*
G01*
X1361Y1169D02*
G03*
X1361Y1169I-20J0D01*
G01*
X1278Y574D02*
G03*
X1278Y574I-20J0D01*
G01*
X4136Y2950D02*
G03*
X4136Y2950I-20J0D01*
G01*
X3886Y1167D02*
G03*
X3886Y1167I-20J0D01*
G01*
X3820Y600D02*
G03*
X3820Y600I-20J0D01*
G01*
X7820Y2937D02*
G03*
X7820Y2937I-20J0D01*
G01*
X7737Y2343D02*
G03*
X7737Y2343I-20J0D01*
G01*
X7653Y1749D02*
G03*
X7653Y1749I-20J0D01*
G01*
X7570Y1154D02*
G03*
X7570Y1154I-20J0D01*
G01*
X7486Y560D02*
G03*
X7486Y560I-20J0D01*
G01*
X9911Y573D02*
G03*
X9911Y573I-20J0D01*
G01*
X9995Y1167D02*
G03*
X9995Y1167I-20J0D01*
G01*
X10246Y2949D02*
G03*
X10246Y2949I-20J0D01*
G01*
X10162Y2355D02*
G03*
X10162Y2355I-20J0D01*
G01*
X2692Y578D02*
G03*
X2692Y578I-20J0D01*
G01*
X1216Y3007D02*
G03*
X1216Y3007I-20J0D01*
G01*
X965Y1224D02*
G03*
X965Y1224I-20J0D01*
G01*
X882Y630D02*
G03*
X882Y630I-20J0D01*
G01*
X1756Y1820D02*
G03*
X1756Y1820I-20J0D01*
G01*
X3740Y3005D02*
G03*
X3740Y3005I-20J0D01*
G01*
X3656Y2411D02*
G03*
X3656Y2411I-20J0D01*
G01*
X3573Y1817D02*
G03*
X3573Y1817I-20J0D01*
G01*
X3489Y1223D02*
G03*
X3489Y1223I-20J0D01*
G01*
X3420Y600D02*
G03*
X3420Y600I-20J0D01*
G01*
X4509Y575D02*
G03*
X4509Y575I-20J0D01*
G01*
X4280Y1819D02*
G03*
X4280Y1819I-20J0D01*
G01*
X5154Y3009D02*
G03*
X5154Y3009I-20J0D01*
G01*
X5220Y600D02*
G03*
X5220Y600I-20J0D01*
G01*
X6014Y1222D02*
G03*
X6014Y1222I-20J0D01*
G01*
X7090Y616D02*
G03*
X7090Y616I-20J0D01*
G01*
X7174Y1210D02*
G03*
X7174Y1210I-20J0D01*
G01*
X7257Y1804D02*
G03*
X7257Y1804I-20J0D01*
G01*
X7424Y2993D02*
G03*
X7424Y2993I-20J0D01*
G01*
X8527Y2939D02*
G03*
X8527Y2939I-20J0D01*
G01*
X8900Y563D02*
G03*
X8900Y563I-20J0D01*
G01*
X8984Y1158D02*
G03*
X8984Y1158I-20J0D01*
G01*
X9151Y2346D02*
G03*
X9151Y2346I-20J0D01*
G01*
X8820Y3000D02*
G03*
X8820Y3000I-20J0D01*
G01*
X11264Y3008D02*
G03*
X11264Y3008I-20J0D01*
G01*
X11576Y2359D02*
G03*
X11576Y2359I-20J0D01*
G01*
X11320Y600D02*
G03*
X11320Y600I-20J0D01*
G01*
X10619Y574D02*
G03*
X10619Y574I-20J0D01*
G01*
X10389Y1818D02*
G03*
X10389Y1818I-20J0D01*
G01*
X10953Y2951D02*
G03*
X10953Y2951I-20J0D01*
G01*
X9849Y3005D02*
G03*
X9849Y3005I-20J0D01*
G01*
X9766Y2411D02*
G03*
X9766Y2411I-20J0D01*
G01*
X9682Y1817D02*
G03*
X9682Y1817I-20J0D01*
G01*
X9599Y1223D02*
G03*
X9599Y1223I-20J0D01*
G01*
X9515Y629D02*
G03*
X9515Y629I-20J0D01*
G01*
X1445Y1763D02*
G03*
X1445Y1763I-20J0D01*
G01*
X2463Y1822D02*
G03*
X2463Y1822I-20J0D01*
G01*
X2630Y3010D02*
G03*
X2630Y3010I-20J0D01*
G01*
X2319Y2953D02*
G03*
X2319Y2953I-20J0D01*
G01*
X4053Y2356D02*
G03*
X4053Y2356I-20J0D01*
G01*
X3969Y1761D02*
G03*
X3969Y1761I-20J0D01*
G01*
X10079Y1761D02*
G03*
X10079Y1761I-20J0D01*
G01*
X4843Y2951D02*
G03*
X4843Y2951I-20J0D01*
G01*
X4987Y1820D02*
G03*
X4987Y1820I-20J0D01*
G01*
X5300Y1170D02*
G03*
X5300Y1170I-20J0D01*
G01*
X6410Y1166D02*
G03*
X6410Y1166I-20J0D01*
G01*
X7964Y1806D02*
G03*
X7964Y1806I-20J0D01*
G01*
X11409Y1170D02*
G03*
X11409Y1170I-20J0D01*
G01*
X8671Y1807D02*
G03*
X8671Y1807I-20J0D01*
G01*
X2775Y1172D02*
G03*
X2775Y1172I-20J0D01*
G01*
X2942Y2360D02*
G03*
X2942Y2360I-20J0D01*
G01*
X5467Y2359D02*
G03*
X5467Y2359I-20J0D01*
G01*
X7987Y894D02*
G03*
X7987Y894I-20J0D01*
G01*
X8193Y562D02*
G03*
X8193Y562I-20J0D01*
G01*
X6181Y2410D02*
G03*
X6181Y2410I-20J0D01*
G01*
M02*
