G04 Layer_Color=8388736*
%FSLAX42Y42*%
%MOMM*%
G71*
G01*
G75*
%ADD20R,1.70X1.10*%
%ADD21C,3.70*%
D20*
X11113Y2221D02*
D03*
Y2551D02*
D03*
X11603D02*
D03*
Y2221D02*
D03*
X11686Y3146D02*
D03*
Y2816D02*
D03*
X11196D02*
D03*
Y3146D02*
D03*
X10489Y2814D02*
D03*
Y3144D02*
D03*
X10979D02*
D03*
Y2814D02*
D03*
X10812Y1956D02*
D03*
Y1626D02*
D03*
X10322D02*
D03*
Y1956D02*
D03*
X11519Y1957D02*
D03*
Y1627D02*
D03*
X11029D02*
D03*
Y1957D02*
D03*
X10946Y1033D02*
D03*
Y1363D02*
D03*
X11436D02*
D03*
Y1033D02*
D03*
X10855Y435D02*
D03*
Y765D02*
D03*
X11345D02*
D03*
Y435D02*
D03*
X10155D02*
D03*
Y765D02*
D03*
X10645D02*
D03*
Y435D02*
D03*
X9945Y765D02*
D03*
Y435D02*
D03*
X9455D02*
D03*
Y765D02*
D03*
X10022Y1360D02*
D03*
Y1030D02*
D03*
X9532D02*
D03*
Y1360D02*
D03*
X10105Y1954D02*
D03*
Y1624D02*
D03*
X9615D02*
D03*
Y1954D02*
D03*
X10189Y2548D02*
D03*
Y2218D02*
D03*
X9699D02*
D03*
Y2548D02*
D03*
X10272Y3142D02*
D03*
Y2812D02*
D03*
X9782D02*
D03*
Y3142D02*
D03*
X8687Y2209D02*
D03*
Y2539D02*
D03*
X9177D02*
D03*
Y2209D02*
D03*
X9261Y3133D02*
D03*
Y2803D02*
D03*
X8771D02*
D03*
Y3133D02*
D03*
X8064Y2801D02*
D03*
Y3131D02*
D03*
X8554D02*
D03*
Y2801D02*
D03*
X8387Y1943D02*
D03*
Y1613D02*
D03*
X7897D02*
D03*
Y1943D02*
D03*
X9094Y1945D02*
D03*
Y1615D02*
D03*
X8604D02*
D03*
Y1945D02*
D03*
X8520Y1020D02*
D03*
Y1350D02*
D03*
X9010D02*
D03*
Y1020D02*
D03*
X8437Y426D02*
D03*
Y756D02*
D03*
X8927D02*
D03*
Y426D02*
D03*
X7730Y425D02*
D03*
Y755D02*
D03*
X8220D02*
D03*
Y425D02*
D03*
X7513Y753D02*
D03*
Y423D02*
D03*
X7023D02*
D03*
Y753D02*
D03*
X7596Y1347D02*
D03*
Y1017D02*
D03*
X7106D02*
D03*
Y1347D02*
D03*
X7680Y1941D02*
D03*
Y1611D02*
D03*
X7190D02*
D03*
Y1941D02*
D03*
X7763Y2536D02*
D03*
Y2206D02*
D03*
X7273D02*
D03*
Y2536D02*
D03*
X7847Y3130D02*
D03*
Y2800D02*
D03*
X7357D02*
D03*
Y3130D02*
D03*
X5947Y1029D02*
D03*
Y1359D02*
D03*
X6437D02*
D03*
Y1029D02*
D03*
X6604Y2547D02*
D03*
Y2217D02*
D03*
X6114D02*
D03*
Y2547D02*
D03*
X5003Y2222D02*
D03*
Y2552D02*
D03*
X5493D02*
D03*
Y2222D02*
D03*
X5577Y3146D02*
D03*
Y2816D02*
D03*
X5087D02*
D03*
Y3146D02*
D03*
X4380Y2814D02*
D03*
Y3144D02*
D03*
X4870D02*
D03*
Y2814D02*
D03*
X4703Y1956D02*
D03*
Y1626D02*
D03*
X4213D02*
D03*
Y1956D02*
D03*
X5410Y1957D02*
D03*
Y1627D02*
D03*
X4920D02*
D03*
Y1957D02*
D03*
X4836Y1033D02*
D03*
Y1363D02*
D03*
X5326D02*
D03*
Y1033D02*
D03*
X4755Y435D02*
D03*
Y765D02*
D03*
X5245D02*
D03*
Y435D02*
D03*
X4046Y438D02*
D03*
Y768D02*
D03*
X4536D02*
D03*
Y438D02*
D03*
X3829Y766D02*
D03*
Y436D02*
D03*
X3339D02*
D03*
Y766D02*
D03*
X3912Y1360D02*
D03*
Y1030D02*
D03*
X3422D02*
D03*
Y1360D02*
D03*
X3996Y1954D02*
D03*
Y1624D02*
D03*
X3506D02*
D03*
Y1954D02*
D03*
X4079Y2548D02*
D03*
Y2218D02*
D03*
X3589D02*
D03*
Y2548D02*
D03*
X4163Y3143D02*
D03*
Y2813D02*
D03*
X3673D02*
D03*
Y3143D02*
D03*
X2479Y2223D02*
D03*
Y2553D02*
D03*
X2969D02*
D03*
Y2223D02*
D03*
X3053Y3147D02*
D03*
Y2817D02*
D03*
X2563D02*
D03*
Y3147D02*
D03*
X1855Y2816D02*
D03*
Y3146D02*
D03*
X2345D02*
D03*
Y2816D02*
D03*
X2178Y1957D02*
D03*
Y1627D02*
D03*
X1688D02*
D03*
Y1957D02*
D03*
X2886Y1959D02*
D03*
Y1629D02*
D03*
X2396D02*
D03*
Y1959D02*
D03*
X2312Y1035D02*
D03*
Y1365D02*
D03*
X2802D02*
D03*
Y1035D02*
D03*
X2229Y440D02*
D03*
Y770D02*
D03*
X2719D02*
D03*
Y440D02*
D03*
X1521Y439D02*
D03*
Y769D02*
D03*
X2011D02*
D03*
Y439D02*
D03*
X1304Y767D02*
D03*
Y437D02*
D03*
X814D02*
D03*
Y767D02*
D03*
X1388Y1361D02*
D03*
Y1031D02*
D03*
X898D02*
D03*
Y1361D02*
D03*
X1471Y1956D02*
D03*
Y1626D02*
D03*
X981D02*
D03*
Y1956D02*
D03*
X1555Y2550D02*
D03*
Y2220D02*
D03*
X1065D02*
D03*
Y2550D02*
D03*
X1638Y3144D02*
D03*
Y2814D02*
D03*
X1148D02*
D03*
Y3144D02*
D03*
D21*
X12050Y3300D02*
D03*
Y300D02*
D03*
X300Y3300D02*
D03*
Y300D02*
D03*
M02*
