G04 Layer_Physical_Order=2*
G04 Layer_Color=16711680*
%FSLAX42Y42*%
%MOMM*%
G71*
G01*
G75*
%ADD11C,1.00*%
%ADD12C,0.25*%
%ADD13C,0.10*%
%ADD14C,3.50*%
%ADD15C,1.27*%
%ADD16R,1.35X0.95*%
%ADD17R,1.40X1.05*%
%ADD18R,1.80X1.20*%
%ADD19R,1.50X0.60*%
%ADD20C,0.50*%
G36*
X11986Y3700D02*
X11961Y3697D01*
X11923Y3686D01*
X11888Y3667D01*
X11858Y3642D01*
X11833Y3612D01*
X11814Y3577D01*
X11802Y3539D01*
X11799Y3500D01*
X11802Y3461D01*
X11814Y3423D01*
X11833Y3388D01*
X11858Y3358D01*
X11888Y3333D01*
X11923Y3314D01*
X11961Y3302D01*
X12000Y3299D01*
X12039Y3302D01*
X12077Y3314D01*
X12112Y3333D01*
X12142Y3358D01*
X12167Y3388D01*
X12186Y3423D01*
X12197Y3461D01*
X12200Y3486D01*
X12213Y3486D01*
Y2226D01*
X12200Y2225D01*
X12199Y2230D01*
X12193Y2238D01*
X12185Y2244D01*
X12175Y2246D01*
X12039D01*
X12034Y2258D01*
X12036Y2260D01*
X12047Y2277D01*
X12051Y2296D01*
Y2500D01*
X12047Y2520D01*
X12036Y2536D01*
X11936Y2636D01*
X11938Y2651D01*
X11935Y2675D01*
X11926Y2696D01*
X11912Y2715D01*
X11893Y2729D01*
X11872Y2738D01*
X11849Y2741D01*
X11825Y2738D01*
X11804Y2729D01*
X11785Y2715D01*
X11771Y2696D01*
X11762Y2675D01*
X11759Y2651D01*
X11762Y2628D01*
X11771Y2607D01*
X11785Y2588D01*
X11804Y2574D01*
X11825Y2565D01*
X11849Y2562D01*
X11864Y2564D01*
X11949Y2479D01*
Y2317D01*
X11908Y2277D01*
X11897Y2261D01*
X11893Y2241D01*
Y2079D01*
X11897Y2059D01*
X11908Y2043D01*
X11949Y2003D01*
Y1921D01*
X11879Y1851D01*
X11813D01*
X11811Y1854D01*
X11805Y1864D01*
X11806Y1870D01*
Y1887D01*
X11705D01*
Y1913D01*
X11806D01*
Y1930D01*
X11804Y1940D01*
X11798Y1948D01*
Y1952D01*
X11804Y1960D01*
X11806Y1970D01*
Y2030D01*
X11804Y2040D01*
X11798Y2048D01*
X11790Y2054D01*
X11780Y2056D01*
X11630D01*
X11620Y2054D01*
X11616Y2051D01*
X11600D01*
X11580Y2047D01*
X11564Y2036D01*
X11515Y1988D01*
X11500Y1990D01*
X11477Y1987D01*
X11463Y1981D01*
X11418Y2026D01*
X11403Y2038D01*
X11384Y2046D01*
X11365Y2048D01*
X11274D01*
X11255Y2046D01*
X11255Y2046D01*
X11207D01*
X11197Y2044D01*
X11189Y2038D01*
X11183Y2030D01*
X11181Y2020D01*
Y1925D01*
X11183Y1915D01*
X11189Y1906D01*
X11197Y1901D01*
X11207Y1899D01*
X11245D01*
X11246Y1898D01*
X11241Y1886D01*
X11207D01*
X11197Y1884D01*
X11189Y1878D01*
X11183Y1870D01*
X11181Y1860D01*
Y1825D01*
X11368D01*
Y1844D01*
X11380Y1849D01*
X11383Y1846D01*
X11399Y1834D01*
X11417Y1827D01*
X11437Y1824D01*
X11453D01*
X11455Y1822D01*
X11477Y1813D01*
X11500Y1810D01*
X11523Y1813D01*
X11545Y1822D01*
X11563Y1837D01*
X11578Y1855D01*
X11587Y1877D01*
X11590Y1900D01*
X11589Y1906D01*
X11591Y1908D01*
X11604Y1902D01*
Y1870D01*
X11606Y1860D01*
X11612Y1852D01*
Y1848D01*
X11606Y1840D01*
X11604Y1830D01*
Y1770D01*
X11606Y1760D01*
X11612Y1752D01*
X11620Y1746D01*
X11630Y1744D01*
X11780D01*
X11790Y1746D01*
X11794Y1749D01*
X11900D01*
X11920Y1753D01*
X11936Y1764D01*
X12036Y1864D01*
X12047Y1880D01*
X12051Y1900D01*
Y2024D01*
X12047Y2043D01*
X12036Y2060D01*
X12034Y2062D01*
X12039Y2074D01*
X12175D01*
X12185Y2076D01*
X12193Y2082D01*
X12199Y2090D01*
X12200Y2095D01*
X12213Y2094D01*
X12213Y1726D01*
X12211Y1725D01*
X12200Y1720D01*
X12195Y1724D01*
X12185Y1726D01*
X12005D01*
X11995Y1724D01*
X11987Y1718D01*
X11981Y1710D01*
X11979Y1700D01*
Y1580D01*
X11981Y1570D01*
X11987Y1562D01*
X11995Y1556D01*
X12005Y1554D01*
X12185D01*
X12195Y1556D01*
X12200Y1560D01*
X12211Y1555D01*
X12213Y1554D01*
Y314D01*
X12200Y314D01*
X12197Y339D01*
X12186Y377D01*
X12167Y412D01*
X12142Y442D01*
X12112Y467D01*
X12077Y486D01*
X12039Y497D01*
X12000Y501D01*
X11961Y497D01*
X11923Y486D01*
X11888Y467D01*
X11858Y442D01*
X11833Y412D01*
X11814Y377D01*
X11802Y339D01*
X11799Y300D01*
X11802Y261D01*
X11814Y223D01*
X11833Y188D01*
X11858Y158D01*
X11888Y133D01*
X11923Y114D01*
X11961Y102D01*
X11986Y100D01*
X11986Y87D01*
X314D01*
X314Y100D01*
X339Y102D01*
X377Y114D01*
X412Y133D01*
X442Y158D01*
X467Y188D01*
X486Y223D01*
X497Y261D01*
X501Y300D01*
X497Y339D01*
X486Y377D01*
X467Y412D01*
X442Y442D01*
X412Y467D01*
X377Y486D01*
X339Y497D01*
X300Y501D01*
X261Y497D01*
X223Y486D01*
X188Y467D01*
X158Y442D01*
X133Y412D01*
X114Y377D01*
X102Y339D01*
X100Y314D01*
X87Y314D01*
Y1354D01*
X89Y1355D01*
X100Y1359D01*
X105Y1356D01*
X115Y1354D01*
X295D01*
X305Y1356D01*
X313Y1362D01*
X319Y1370D01*
X321Y1380D01*
Y1488D01*
X334Y1493D01*
X548Y1278D01*
Y355D01*
X546Y354D01*
X534Y338D01*
X527Y320D01*
X524Y300D01*
X527Y280D01*
X534Y262D01*
X546Y246D01*
X626Y166D01*
X642Y154D01*
X660Y147D01*
X680Y144D01*
X690Y145D01*
X700Y144D01*
X9170D01*
X9189Y147D01*
X9208Y154D01*
X9223Y166D01*
X9295Y238D01*
X9307Y254D01*
X9310Y261D01*
X9315Y272D01*
X9317Y292D01*
Y2092D01*
X9339Y2114D01*
X9454D01*
X9474Y2117D01*
X9492Y2125D01*
X9508Y2137D01*
X9633Y2261D01*
X9645Y2277D01*
X9653Y2295D01*
X9655Y2315D01*
Y2464D01*
X9668Y2466D01*
X9682Y2448D01*
X9701Y2433D01*
X9722Y2424D01*
X9746Y2421D01*
X9769Y2424D01*
X9790Y2433D01*
X9809Y2448D01*
X9823Y2466D01*
X9832Y2487D01*
X9864D01*
X9866Y2475D01*
X9858Y2469D01*
X9852Y2461D01*
X9850Y2451D01*
Y2416D01*
X10037D01*
Y2451D01*
X10035Y2461D01*
X10029Y2469D01*
X10021Y2475D01*
X10011Y2477D01*
X9977D01*
X9972Y2489D01*
X9973Y2490D01*
X10011D01*
X10021Y2492D01*
X10029Y2497D01*
X10035Y2506D01*
X10037Y2516D01*
Y2611D01*
X10035Y2621D01*
X10029Y2629D01*
X10021Y2635D01*
X10011Y2637D01*
X9963D01*
X9963Y2637D01*
X9944Y2639D01*
X9798D01*
X9778Y2637D01*
X9760Y2629D01*
X9744Y2617D01*
X9725Y2598D01*
X9722Y2598D01*
X9701Y2589D01*
X9682Y2574D01*
X9668Y2556D01*
X9655Y2558D01*
Y2803D01*
X9653Y2823D01*
X9645Y2841D01*
X9633Y2857D01*
X9534Y2956D01*
X9529Y2960D01*
X9528Y2965D01*
X9522Y2973D01*
X9514Y2979D01*
X9510Y2979D01*
Y3113D01*
X9511Y3115D01*
X9520Y3137D01*
X9523Y3160D01*
X9520Y3183D01*
X9511Y3205D01*
X9497Y3223D01*
X9479Y3238D01*
X9457Y3247D01*
X9434Y3250D01*
X9411Y3247D01*
X9389Y3238D01*
X9370Y3223D01*
X9356Y3205D01*
X9347Y3183D01*
X9344Y3160D01*
X9347Y3137D01*
X9356Y3115D01*
X9358Y3113D01*
Y2979D01*
X9354Y2979D01*
X9345Y2973D01*
X9340Y2965D01*
X9338Y2955D01*
Y2850D01*
X9340Y2840D01*
X9345Y2831D01*
X9354Y2826D01*
X9364Y2824D01*
X9451D01*
X9473Y2802D01*
X9468Y2791D01*
X9364D01*
X9354Y2789D01*
X9345Y2783D01*
X9340Y2775D01*
X9338Y2765D01*
Y2660D01*
X9340Y2650D01*
X9345Y2641D01*
X9354Y2636D01*
X9358Y2635D01*
Y2558D01*
X9356Y2556D01*
X9347Y2534D01*
X9344Y2511D01*
X9347Y2488D01*
X9356Y2466D01*
X9370Y2448D01*
X9389Y2433D01*
X9411Y2424D01*
X9434Y2421D01*
X9457Y2424D01*
X9479Y2433D01*
X9490Y2442D01*
X9503Y2436D01*
Y2347D01*
X9423Y2266D01*
X9308D01*
X9288Y2264D01*
X9277Y2259D01*
X9270Y2256D01*
X9254Y2244D01*
X9188Y2178D01*
X9175Y2162D01*
X9168Y2144D01*
X9165Y2124D01*
Y323D01*
X9138Y296D01*
X6692D01*
X6686Y309D01*
X6789Y442D01*
X6792Y446D01*
X6795Y450D01*
X6797Y455D01*
X6799Y459D01*
X6800Y464D01*
X6802Y469D01*
X6803Y473D01*
X6804Y478D01*
X6804Y483D01*
X6805Y488D01*
Y1511D01*
X6818Y1520D01*
X6818Y1520D01*
X6841Y1517D01*
X6865Y1520D01*
X6886Y1529D01*
X6905Y1543D01*
X6919Y1562D01*
X6928Y1583D01*
X6928Y1586D01*
X6999Y1656D01*
X7011Y1672D01*
X7014Y1680D01*
X7018Y1690D01*
X7021Y1710D01*
Y2530D01*
X7025Y2531D01*
X7033Y2537D01*
X7039Y2545D01*
X7041Y2555D01*
Y2660D01*
X7039Y2670D01*
X7033Y2678D01*
X7025Y2684D01*
X7015Y2686D01*
X6875D01*
X6865Y2684D01*
X6857Y2678D01*
X6851Y2670D01*
X6849Y2660D01*
Y2555D01*
X6851Y2545D01*
X6857Y2537D01*
X6865Y2531D01*
X6869Y2530D01*
Y1741D01*
X6821Y1693D01*
X6818Y1693D01*
X6818Y1693D01*
X6805Y1701D01*
Y2914D01*
X6857Y2966D01*
X6869Y2961D01*
Y2875D01*
X6865Y2874D01*
X6857Y2868D01*
X6851Y2860D01*
X6849Y2850D01*
Y2745D01*
X6851Y2735D01*
X6857Y2727D01*
X6865Y2721D01*
X6875Y2719D01*
X7015D01*
X7025Y2721D01*
X7033Y2727D01*
X7039Y2735D01*
X7041Y2745D01*
Y2850D01*
X7039Y2860D01*
X7033Y2868D01*
X7025Y2874D01*
X7021Y2875D01*
Y3051D01*
X7029Y3061D01*
X7038Y3082D01*
X7041Y3106D01*
X7038Y3129D01*
X7029Y3151D01*
X7015Y3169D01*
X6996Y3183D01*
X6974Y3192D01*
X6951Y3195D01*
X6928Y3192D01*
X6906Y3183D01*
X6904Y3182D01*
X6889D01*
X6869Y3179D01*
X6859Y3175D01*
X6851Y3172D01*
X6835Y3159D01*
X6675Y2999D01*
X6663Y2984D01*
X6656Y2965D01*
X6653Y2946D01*
Y2487D01*
X6640Y2485D01*
X6634Y2499D01*
X6620Y2518D01*
X6601Y2532D01*
X6580Y2541D01*
X6569Y2542D01*
Y2454D01*
Y2366D01*
X6580Y2368D01*
X6601Y2377D01*
X6620Y2391D01*
X6634Y2409D01*
X6640Y2424D01*
X6653Y2421D01*
Y1722D01*
X6649Y1718D01*
X6637Y1702D01*
X6629Y1684D01*
X6626Y1664D01*
Y1549D01*
X6629Y1529D01*
X6637Y1511D01*
X6649Y1495D01*
X6653Y1491D01*
Y514D01*
X6581Y421D01*
X786D01*
X754Y454D01*
X751Y456D01*
Y1319D01*
X747Y1338D01*
X736Y1355D01*
X559Y1532D01*
X564Y1544D01*
X670D01*
X680Y1546D01*
X684Y1548D01*
X779D01*
X848Y1479D01*
Y1369D01*
X852Y1350D01*
X857Y1342D01*
X855Y1324D01*
X858Y1301D01*
X867Y1279D01*
X881Y1261D01*
X900Y1247D01*
X922Y1238D01*
X945Y1235D01*
X968Y1238D01*
X990Y1247D01*
X1008Y1261D01*
X1022Y1279D01*
X1031Y1300D01*
X1063D01*
X1065Y1288D01*
X1057Y1282D01*
X1051Y1274D01*
X1049Y1264D01*
Y1229D01*
X1236D01*
Y1264D01*
X1234Y1274D01*
X1229Y1282D01*
X1220Y1288D01*
X1210Y1290D01*
X1176D01*
X1171Y1303D01*
X1172Y1303D01*
X1210D01*
X1220Y1305D01*
X1229Y1311D01*
X1234Y1319D01*
X1236Y1329D01*
Y1424D01*
X1234Y1434D01*
X1229Y1442D01*
X1220Y1448D01*
X1210Y1450D01*
X1163D01*
X1163Y1450D01*
X1143Y1452D01*
X997D01*
X977Y1450D01*
X964Y1444D01*
X951Y1451D01*
Y1500D01*
X947Y1520D01*
X936Y1536D01*
X836Y1636D01*
X820Y1647D01*
X800Y1651D01*
X703D01*
X701Y1654D01*
X695Y1664D01*
X696Y1670D01*
Y1687D01*
X595D01*
X494D01*
Y1670D01*
X496Y1660D01*
X496Y1660D01*
X501Y1650D01*
X496Y1640D01*
X496Y1640D01*
X494Y1630D01*
Y1614D01*
X482Y1609D01*
X451Y1640D01*
Y1979D01*
X482Y2010D01*
X494Y2005D01*
Y1970D01*
X496Y1960D01*
X502Y1952D01*
X496Y1940D01*
X496Y1940D01*
X494Y1930D01*
Y1870D01*
X496Y1860D01*
X496Y1860D01*
X501Y1850D01*
X496Y1840D01*
X496Y1840D01*
X494Y1830D01*
Y1770D01*
X496Y1760D01*
X496Y1760D01*
X501Y1750D01*
X496Y1740D01*
X496Y1740D01*
X494Y1730D01*
Y1713D01*
X595D01*
X696D01*
Y1730D01*
X695Y1736D01*
X701Y1746D01*
X703Y1748D01*
X706D01*
X726Y1752D01*
X743Y1764D01*
X933Y1954D01*
X944Y1946D01*
X942Y1942D01*
X939Y1918D01*
X942Y1895D01*
X951Y1874D01*
X965Y1855D01*
X983Y1841D01*
X1005Y1832D01*
X1028Y1829D01*
X1051Y1832D01*
X1073Y1841D01*
X1092Y1855D01*
X1106Y1874D01*
X1115Y1895D01*
X1147D01*
X1149Y1882D01*
X1141Y1876D01*
X1135Y1868D01*
X1133Y1858D01*
Y1823D01*
X1320D01*
Y1858D01*
X1318Y1868D01*
X1312Y1876D01*
X1304Y1882D01*
X1294Y1884D01*
X1260D01*
X1255Y1897D01*
X1255Y1897D01*
X1294D01*
X1304Y1899D01*
X1312Y1905D01*
X1318Y1913D01*
X1320Y1923D01*
Y2018D01*
X1318Y2028D01*
X1312Y2036D01*
X1304Y2042D01*
X1294Y2044D01*
X1246D01*
X1246Y2044D01*
X1226Y2047D01*
X1080D01*
X1061Y2044D01*
X1042Y2036D01*
X1027Y2024D01*
X1008Y2005D01*
X1005Y2005D01*
X983Y1996D01*
X965Y1982D01*
X961Y1977D01*
X949Y1982D01*
X951Y1993D01*
Y2327D01*
X963Y2337D01*
X978Y2355D01*
X987Y2377D01*
X990Y2400D01*
X987Y2423D01*
X978Y2445D01*
X963Y2463D01*
X945Y2478D01*
X923Y2487D01*
X900Y2490D01*
X877Y2487D01*
X855Y2478D01*
X849Y2473D01*
X837Y2478D01*
Y3265D01*
X962Y3389D01*
X965Y3389D01*
X3058D01*
X3078Y3369D01*
Y3189D01*
X3081Y3169D01*
X3088Y3151D01*
X3100Y3135D01*
X3179Y3057D01*
X3194Y3045D01*
X3213Y3037D01*
X3232Y3035D01*
X3241D01*
Y2930D01*
X3237Y2929D01*
X3229Y2924D01*
X3223Y2915D01*
X3222Y2906D01*
Y2801D01*
X3223Y2791D01*
X3229Y2782D01*
X3237Y2777D01*
X3247Y2775D01*
X3387D01*
X3397Y2777D01*
X3406Y2782D01*
X3411Y2791D01*
X3413Y2801D01*
Y2906D01*
X3411Y2915D01*
X3406Y2924D01*
X3397Y2929D01*
X3393Y2930D01*
Y3064D01*
X3395Y3066D01*
X3404Y3088D01*
X3407Y3111D01*
X3404Y3134D01*
X3395Y3156D01*
X3381Y3174D01*
X3362Y3188D01*
X3341Y3197D01*
X3317Y3200D01*
X3294Y3197D01*
X3273Y3188D01*
X3270Y3187D01*
X3264D01*
X3230Y3220D01*
Y3400D01*
X3228Y3420D01*
X3223Y3431D01*
X3220Y3438D01*
X3208Y3454D01*
X3160Y3502D01*
X3164Y3514D01*
X5668D01*
X5709Y3472D01*
Y3114D01*
X5708Y3112D01*
X5699Y3090D01*
X5696Y3067D01*
X5699Y3044D01*
X5708Y3022D01*
X5709Y3020D01*
Y2886D01*
X5705Y2886D01*
X5697Y2880D01*
X5691Y2872D01*
X5689Y2862D01*
Y2757D01*
X5691Y2747D01*
X5697Y2738D01*
X5705Y2733D01*
X5715Y2731D01*
X5855D01*
X5865Y2733D01*
X5874Y2738D01*
X5879Y2747D01*
X5881Y2757D01*
Y2862D01*
X5879Y2872D01*
X5874Y2880D01*
X5865Y2886D01*
X5861Y2886D01*
Y3020D01*
X5863Y3022D01*
X5872Y3044D01*
X5875Y3067D01*
X5872Y3090D01*
X5863Y3112D01*
X5861Y3114D01*
Y3504D01*
X5859Y3524D01*
X5851Y3542D01*
X5839Y3558D01*
X5753Y3644D01*
X5737Y3656D01*
X5719Y3663D01*
X5699Y3666D01*
X900D01*
X880Y3663D01*
X862Y3656D01*
X846Y3644D01*
X834Y3628D01*
X827Y3610D01*
X824Y3590D01*
X824Y3587D01*
X663Y3426D01*
X652Y3409D01*
X648Y3390D01*
Y2292D01*
X652Y2273D01*
X656Y2267D01*
X650Y2256D01*
X520D01*
X510Y2254D01*
X506Y2252D01*
X494D01*
X474Y2248D01*
X457Y2236D01*
X264Y2043D01*
X253Y2026D01*
X249Y2007D01*
Y1599D01*
X253Y1580D01*
X264Y1563D01*
X288Y1538D01*
X283Y1526D01*
X115D01*
X105Y1524D01*
X100Y1520D01*
X89Y1524D01*
X87Y1526D01*
Y2274D01*
X89Y2276D01*
X100Y2280D01*
X105Y2276D01*
X115Y2274D01*
X295D01*
X305Y2276D01*
X313Y2282D01*
X319Y2290D01*
X321Y2300D01*
Y2420D01*
X319Y2430D01*
X313Y2438D01*
X305Y2444D01*
X295Y2446D01*
X115D01*
X105Y2444D01*
X100Y2441D01*
X89Y2445D01*
X87Y2446D01*
Y3486D01*
X100Y3486D01*
X102Y3461D01*
X114Y3423D01*
X133Y3388D01*
X158Y3358D01*
X188Y3333D01*
X223Y3314D01*
X261Y3302D01*
X300Y3299D01*
X339Y3302D01*
X377Y3314D01*
X412Y3333D01*
X442Y3358D01*
X467Y3388D01*
X486Y3423D01*
X497Y3461D01*
X501Y3500D01*
X497Y3539D01*
X486Y3577D01*
X467Y3612D01*
X442Y3642D01*
X412Y3667D01*
X377Y3686D01*
X350Y3694D01*
X352Y3707D01*
X11986Y3713D01*
X11986Y3700D01*
D02*
G37*
%LPC*%
G36*
X9987Y1355D02*
Y1280D01*
X10063D01*
X10061Y1290D01*
X10052Y1312D01*
X10038Y1330D01*
X10020Y1345D01*
X9998Y1354D01*
X9987Y1355D01*
D02*
G37*
G36*
X9962D02*
X9951Y1354D01*
X9930Y1345D01*
X9911Y1330D01*
X9897Y1312D01*
X9888Y1290D01*
X9887Y1280D01*
X9962D01*
Y1355D01*
D02*
G37*
G36*
X3878Y1355D02*
Y1280D01*
X3953D01*
X3952Y1290D01*
X3943Y1312D01*
X3929Y1331D01*
X3910Y1345D01*
X3888Y1354D01*
X3878Y1355D01*
D02*
G37*
G36*
X3853D02*
X3842Y1354D01*
X3820Y1345D01*
X3802Y1331D01*
X3788Y1312D01*
X3779Y1290D01*
X3777Y1280D01*
X3853D01*
Y1355D01*
D02*
G37*
G36*
X7562Y1342D02*
Y1267D01*
X7637D01*
X7636Y1278D01*
X7627Y1299D01*
X7613Y1318D01*
X7594Y1332D01*
X7573Y1341D01*
X7562Y1342D01*
D02*
G37*
G36*
X5981Y1309D02*
X5906D01*
X5907Y1298D01*
X5916Y1277D01*
X5930Y1258D01*
X5949Y1244D01*
X5970Y1235D01*
X5981Y1234D01*
Y1309D01*
D02*
G37*
G36*
X3667Y1451D02*
X3521D01*
X3502Y1449D01*
X3483Y1441D01*
X3468Y1429D01*
X3449Y1410D01*
X3446Y1410D01*
X3424Y1401D01*
X3406Y1386D01*
X3391Y1368D01*
X3383Y1346D01*
X3379Y1323D01*
X3383Y1300D01*
X3391Y1278D01*
X3406Y1260D01*
X3424Y1245D01*
X3446Y1236D01*
X3469Y1233D01*
X3492Y1236D01*
X3514Y1245D01*
X3533Y1260D01*
X3547Y1278D01*
X3555Y1299D01*
X3588D01*
X3590Y1287D01*
X3581Y1281D01*
X3576Y1273D01*
X3574Y1263D01*
Y1228D01*
X3761D01*
Y1263D01*
X3759Y1273D01*
X3753Y1281D01*
X3745Y1287D01*
X3735Y1289D01*
X3701D01*
X3696Y1301D01*
X3696Y1302D01*
X3735D01*
X3745Y1304D01*
X3753Y1309D01*
X3759Y1318D01*
X3761Y1328D01*
Y1423D01*
X3759Y1433D01*
X3753Y1441D01*
X3745Y1447D01*
X3735Y1449D01*
X3687D01*
X3687Y1449D01*
X3667Y1451D01*
D02*
G37*
G36*
X7537Y1342D02*
X7526Y1341D01*
X7504Y1332D01*
X7486Y1318D01*
X7472Y1299D01*
X7463Y1278D01*
X7461Y1267D01*
X7537D01*
Y1342D01*
D02*
G37*
G36*
X6082Y1309D02*
X6006D01*
Y1234D01*
X6017Y1235D01*
X6038Y1244D01*
X6057Y1258D01*
X6071Y1277D01*
X6080Y1298D01*
X6082Y1309D01*
D02*
G37*
G36*
X1328Y1357D02*
X1318Y1355D01*
X1296Y1346D01*
X1277Y1332D01*
X1263Y1313D01*
X1254Y1292D01*
X1253Y1281D01*
X1328D01*
Y1357D01*
D02*
G37*
G36*
X11178Y1451D02*
X11123D01*
X11113Y1449D01*
X11105Y1444D01*
X11099Y1435D01*
X11097Y1426D01*
Y1391D01*
X11178D01*
Y1451D01*
D02*
G37*
G36*
X6259Y1447D02*
X6204D01*
Y1386D01*
X6285D01*
Y1421D01*
X6283Y1431D01*
X6277Y1440D01*
X6269Y1445D01*
X6259Y1447D01*
D02*
G37*
G36*
X8745Y1577D02*
X8670D01*
X8671Y1566D01*
X8680Y1545D01*
X8694Y1526D01*
X8713Y1512D01*
X8735Y1503D01*
X8745Y1502D01*
Y1577D01*
D02*
G37*
G36*
X11258Y1451D02*
X11204D01*
Y1391D01*
X11284D01*
Y1426D01*
X11282Y1435D01*
X11277Y1444D01*
X11268Y1449D01*
X11258Y1451D01*
D02*
G37*
G36*
X6179Y1447D02*
X6124D01*
X6114Y1445D01*
X6106Y1440D01*
X6100Y1431D01*
X6098Y1421D01*
Y1386D01*
X6179D01*
Y1447D01*
D02*
G37*
G36*
X1354Y1357D02*
Y1281D01*
X1429D01*
X1427Y1292D01*
X1419Y1313D01*
X1404Y1332D01*
X1386Y1346D01*
X1364Y1355D01*
X1354Y1357D01*
D02*
G37*
G36*
X8846Y1577D02*
X8770D01*
Y1502D01*
X8781Y1503D01*
X8803Y1512D01*
X8821Y1526D01*
X8835Y1545D01*
X8844Y1566D01*
X8846Y1577D01*
D02*
G37*
G36*
X6006Y1410D02*
Y1334D01*
X6082D01*
X6080Y1345D01*
X6071Y1366D01*
X6057Y1385D01*
X6038Y1399D01*
X6017Y1408D01*
X6006Y1410D01*
D02*
G37*
G36*
X5981D02*
X5970Y1408D01*
X5949Y1399D01*
X5930Y1385D01*
X5916Y1366D01*
X5907Y1345D01*
X5906Y1334D01*
X5981D01*
Y1410D01*
D02*
G37*
G36*
X7537Y1242D02*
X7461D01*
X7463Y1231D01*
X7472Y1210D01*
X7486Y1191D01*
X7504Y1177D01*
X7526Y1168D01*
X7537Y1166D01*
Y1242D01*
D02*
G37*
G36*
X2650Y1207D02*
X2570D01*
Y1146D01*
X2625D01*
X2634Y1148D01*
X2643Y1154D01*
X2648Y1162D01*
X2650Y1172D01*
Y1207D01*
D02*
G37*
G36*
X8856Y1442D02*
X8765D01*
X8746Y1439D01*
X8746Y1439D01*
X8698D01*
X8688Y1437D01*
X8680Y1431D01*
X8674Y1423D01*
X8672Y1413D01*
Y1318D01*
X8674Y1308D01*
X8680Y1300D01*
X8688Y1294D01*
X8698Y1292D01*
X8736D01*
X8737Y1292D01*
X8732Y1279D01*
X8698D01*
X8688Y1277D01*
X8680Y1271D01*
X8674Y1263D01*
X8672Y1253D01*
Y1218D01*
X8859D01*
Y1229D01*
X8872Y1237D01*
X8877Y1234D01*
X8886Y1213D01*
X8900Y1194D01*
X8919Y1180D01*
X8940Y1171D01*
X8964Y1168D01*
X8987Y1171D01*
X9008Y1180D01*
X9027Y1194D01*
X9041Y1213D01*
X9050Y1234D01*
X9053Y1258D01*
X9050Y1281D01*
X9041Y1302D01*
X9027Y1321D01*
X9008Y1335D01*
X8987Y1344D01*
X8984Y1345D01*
X8909Y1419D01*
X8894Y1431D01*
X8875Y1439D01*
X8856Y1442D01*
D02*
G37*
G36*
X7637Y1242D02*
X7562D01*
Y1166D01*
X7573Y1168D01*
X7594Y1177D01*
X7613Y1191D01*
X7627Y1210D01*
X7636Y1231D01*
X7637Y1242D01*
D02*
G37*
G36*
X2544Y1207D02*
X2464D01*
Y1172D01*
X2466Y1162D01*
X2471Y1154D01*
X2480Y1148D01*
X2490Y1146D01*
X2544D01*
Y1207D01*
D02*
G37*
G36*
X1236Y1204D02*
X1156D01*
Y1143D01*
X1210D01*
X1220Y1145D01*
X1229Y1151D01*
X1234Y1159D01*
X1236Y1169D01*
Y1204D01*
D02*
G37*
G36*
X1130D02*
X1049D01*
Y1169D01*
X1051Y1159D01*
X1057Y1151D01*
X1065Y1145D01*
X1075Y1143D01*
X1130D01*
Y1204D01*
D02*
G37*
G36*
X5175Y1206D02*
X5094D01*
Y1145D01*
X5149D01*
X5159Y1147D01*
X5167Y1153D01*
X5173Y1161D01*
X5175Y1171D01*
Y1206D01*
D02*
G37*
G36*
X5069D02*
X4988D01*
Y1171D01*
X4990Y1161D01*
X4996Y1153D01*
X5004Y1147D01*
X5014Y1145D01*
X5069D01*
Y1206D01*
D02*
G37*
G36*
X9962Y1254D02*
X9887D01*
X9888Y1244D01*
X9897Y1222D01*
X9911Y1204D01*
X9930Y1189D01*
X9951Y1180D01*
X9962Y1179D01*
Y1254D01*
D02*
G37*
G36*
X2647Y1456D02*
X2557D01*
X2537Y1453D01*
X2537Y1453D01*
X2490D01*
X2480Y1451D01*
X2471Y1445D01*
X2466Y1437D01*
X2464Y1427D01*
Y1332D01*
X2466Y1322D01*
X2471Y1314D01*
X2480Y1308D01*
X2490Y1306D01*
X2528D01*
X2529Y1306D01*
X2523Y1293D01*
X2490D01*
X2480Y1291D01*
X2471Y1285D01*
X2466Y1277D01*
X2464Y1267D01*
Y1232D01*
X2650D01*
Y1243D01*
X2663Y1251D01*
X2668Y1249D01*
X2677Y1227D01*
X2692Y1208D01*
X2710Y1194D01*
X2732Y1185D01*
X2755Y1182D01*
X2778Y1185D01*
X2800Y1194D01*
X2818Y1208D01*
X2833Y1227D01*
X2842Y1249D01*
X2845Y1272D01*
X2842Y1295D01*
X2833Y1317D01*
X2818Y1335D01*
X2800Y1349D01*
X2778Y1358D01*
X2776Y1359D01*
X2701Y1433D01*
X2685Y1446D01*
X2667Y1453D01*
X2647Y1456D01*
D02*
G37*
G36*
X5172Y1454D02*
X5081D01*
X5062Y1452D01*
X5062Y1452D01*
X5014D01*
X5004Y1450D01*
X4996Y1444D01*
X4990Y1436D01*
X4988Y1426D01*
Y1331D01*
X4990Y1321D01*
X4996Y1313D01*
X5004Y1307D01*
X5014Y1305D01*
X5052D01*
X5053Y1304D01*
X5048Y1292D01*
X5014D01*
X5004Y1290D01*
X4996Y1284D01*
X4990Y1276D01*
X4988Y1266D01*
Y1231D01*
X5175D01*
Y1242D01*
X5188Y1249D01*
X5193Y1247D01*
X5202Y1226D01*
X5216Y1207D01*
X5235Y1193D01*
X5256Y1184D01*
X5279Y1181D01*
X5303Y1184D01*
X5324Y1193D01*
X5343Y1207D01*
X5357Y1226D01*
X5366Y1247D01*
X5369Y1270D01*
X5366Y1294D01*
X5357Y1315D01*
X5343Y1334D01*
X5324Y1348D01*
X5303Y1357D01*
X5300Y1357D01*
X5225Y1432D01*
X5210Y1444D01*
X5191Y1452D01*
X5172Y1454D01*
D02*
G37*
G36*
X9777Y1451D02*
X9631D01*
X9611Y1448D01*
X9593Y1441D01*
X9577Y1429D01*
X9558Y1410D01*
X9555Y1409D01*
X9534Y1400D01*
X9515Y1386D01*
X9501Y1368D01*
X9492Y1346D01*
X9489Y1323D01*
X9492Y1299D01*
X9501Y1278D01*
X9515Y1259D01*
X9534Y1245D01*
X9555Y1236D01*
X9579Y1233D01*
X9602Y1236D01*
X9623Y1245D01*
X9642Y1259D01*
X9656Y1278D01*
X9665Y1299D01*
X9697D01*
X9699Y1286D01*
X9691Y1281D01*
X9685Y1272D01*
X9683Y1262D01*
Y1228D01*
X9870D01*
Y1262D01*
X9868Y1272D01*
X9862Y1281D01*
X9854Y1286D01*
X9844Y1288D01*
X9810D01*
X9805Y1301D01*
X9806Y1301D01*
X9844D01*
X9854Y1303D01*
X9862Y1309D01*
X9868Y1317D01*
X9870Y1327D01*
Y1422D01*
X9868Y1432D01*
X9862Y1441D01*
X9854Y1446D01*
X9844Y1448D01*
X9796D01*
X9796Y1448D01*
X9777Y1451D01*
D02*
G37*
G36*
X7351Y1438D02*
X7205D01*
X7186Y1436D01*
X7167Y1428D01*
X7152Y1416D01*
X7133Y1397D01*
X7130Y1397D01*
X7108Y1388D01*
X7090Y1373D01*
X7076Y1355D01*
X7067Y1333D01*
X7064Y1310D01*
X7067Y1287D01*
X7076Y1265D01*
X7090Y1247D01*
X7108Y1232D01*
X7130Y1223D01*
X7153Y1220D01*
X7176Y1223D01*
X7198Y1232D01*
X7217Y1247D01*
X7231Y1265D01*
X7240Y1286D01*
X7272D01*
X7274Y1274D01*
X7265Y1268D01*
X7260Y1260D01*
X7258Y1250D01*
Y1215D01*
X7445D01*
Y1250D01*
X7443Y1260D01*
X7437Y1268D01*
X7429Y1274D01*
X7419Y1276D01*
X7385D01*
X7380Y1288D01*
X7380Y1289D01*
X7419D01*
X7429Y1291D01*
X7437Y1296D01*
X7443Y1305D01*
X7445Y1315D01*
Y1410D01*
X7443Y1420D01*
X7437Y1428D01*
X7429Y1434D01*
X7419Y1436D01*
X7371D01*
X7371Y1436D01*
X7351Y1438D01*
D02*
G37*
G36*
X1429Y1256D02*
X1354D01*
Y1181D01*
X1364Y1182D01*
X1386Y1191D01*
X1404Y1205D01*
X1419Y1224D01*
X1427Y1245D01*
X1429Y1256D01*
D02*
G37*
G36*
X3853Y1255D02*
X3777D01*
X3779Y1244D01*
X3788Y1222D01*
X3802Y1204D01*
X3820Y1190D01*
X3842Y1181D01*
X3853Y1179D01*
Y1255D01*
D02*
G37*
G36*
X10063Y1254D02*
X9987D01*
Y1179D01*
X9998Y1180D01*
X10020Y1189D01*
X10038Y1204D01*
X10052Y1222D01*
X10061Y1244D01*
X10063Y1254D01*
D02*
G37*
G36*
X1328Y1256D02*
X1253D01*
X1254Y1245D01*
X1263Y1224D01*
X1277Y1205D01*
X1296Y1191D01*
X1318Y1182D01*
X1328Y1181D01*
Y1256D01*
D02*
G37*
G36*
X3953Y1255D02*
X3878D01*
Y1179D01*
X3888Y1181D01*
X3910Y1190D01*
X3929Y1204D01*
X3943Y1222D01*
X3952Y1244D01*
X3953Y1255D01*
D02*
G37*
G36*
X1214Y1798D02*
X1133D01*
Y1763D01*
X1135Y1753D01*
X1141Y1745D01*
X1149Y1739D01*
X1159Y1737D01*
X1214D01*
Y1798D01*
D02*
G37*
G36*
X1735Y2010D02*
X1712Y2007D01*
X1691Y1998D01*
X1672Y1983D01*
X1658Y1965D01*
X1649Y1943D01*
X1646Y1920D01*
X1649Y1897D01*
X1658Y1875D01*
X1672Y1857D01*
X1691Y1842D01*
X1712Y1833D01*
X1715Y1833D01*
X1789Y1758D01*
X1805Y1746D01*
X1824Y1739D01*
X1843Y1736D01*
X1933D01*
X1953Y1739D01*
X1953Y1739D01*
X2001D01*
X2011Y1741D01*
X2019Y1746D01*
X2025Y1755D01*
X2027Y1765D01*
Y1860D01*
X2025Y1870D01*
X2019Y1878D01*
X2011Y1884D01*
X2001Y1886D01*
X1962D01*
X1962Y1886D01*
X1967Y1899D01*
X2001D01*
X2011Y1901D01*
X2019Y1906D01*
X2025Y1915D01*
X2027Y1925D01*
Y1960D01*
X1933D01*
X1840D01*
Y1949D01*
X1827Y1941D01*
X1822Y1943D01*
X1813Y1965D01*
X1799Y1983D01*
X1780Y1998D01*
X1759Y2007D01*
X1735Y2010D01*
D02*
G37*
G36*
X11262Y1800D02*
X11181D01*
Y1765D01*
X11183Y1755D01*
X11189Y1746D01*
X11197Y1741D01*
X11207Y1739D01*
X11262D01*
Y1800D01*
D02*
G37*
G36*
X1320Y1798D02*
X1239D01*
Y1737D01*
X1294D01*
X1304Y1739D01*
X1312Y1745D01*
X1318Y1753D01*
X1320Y1763D01*
Y1798D01*
D02*
G37*
G36*
X3844Y1797D02*
X3763D01*
Y1736D01*
X3818D01*
X3828Y1738D01*
X3837Y1743D01*
X3842Y1752D01*
X3844Y1762D01*
Y1797D01*
D02*
G37*
G36*
X9847Y1796D02*
X9767D01*
Y1761D01*
X9769Y1752D01*
X9774Y1743D01*
X9783Y1738D01*
X9793Y1736D01*
X9847D01*
Y1796D01*
D02*
G37*
G36*
X4260Y2008D02*
X4237Y2005D01*
X4215Y1996D01*
X4196Y1982D01*
X4182Y1964D01*
X4173Y1942D01*
X4170Y1919D01*
X4173Y1896D01*
X4182Y1874D01*
X4196Y1855D01*
X4215Y1841D01*
X4237Y1832D01*
X4239Y1832D01*
X4314Y1757D01*
X4330Y1745D01*
X4348Y1737D01*
X4368Y1735D01*
X4458D01*
X4477Y1737D01*
X4478Y1737D01*
X4525D01*
X4535Y1739D01*
X4544Y1745D01*
X4549Y1753D01*
X4551Y1763D01*
Y1858D01*
X4549Y1868D01*
X4544Y1877D01*
X4535Y1882D01*
X4525Y1884D01*
X4487D01*
X4486Y1885D01*
X4491Y1897D01*
X4525D01*
X4535Y1899D01*
X4544Y1905D01*
X4549Y1913D01*
X4551Y1923D01*
Y1958D01*
X4458D01*
X4364D01*
Y1947D01*
X4352Y1940D01*
X4346Y1942D01*
X4337Y1964D01*
X4323Y1982D01*
X4305Y1996D01*
X4283Y2005D01*
X4260Y2008D01*
D02*
G37*
G36*
X3738Y1797D02*
X3657D01*
Y1762D01*
X3659Y1752D01*
X3665Y1743D01*
X3673Y1738D01*
X3683Y1736D01*
X3738D01*
Y1797D01*
D02*
G37*
G36*
X9954Y1796D02*
X9873D01*
Y1736D01*
X9928D01*
X9938Y1738D01*
X9946Y1743D01*
X9952Y1752D01*
X9954Y1761D01*
Y1796D01*
D02*
G37*
G36*
X11368Y1800D02*
X11287D01*
Y1739D01*
X11342D01*
X11352Y1741D01*
X11360Y1746D01*
X11366Y1755D01*
X11368Y1765D01*
Y1800D01*
D02*
G37*
G36*
X10045Y1848D02*
X9970D01*
X9972Y1838D01*
X9981Y1816D01*
X9995Y1798D01*
X10013Y1784D01*
X10035Y1775D01*
X10045Y1773D01*
Y1848D01*
D02*
G37*
G36*
X7721Y1836D02*
X7646D01*
Y1761D01*
X7656Y1762D01*
X7678Y1771D01*
X7696Y1785D01*
X7710Y1804D01*
X7719Y1825D01*
X7721Y1836D01*
D02*
G37*
G36*
X3936Y1849D02*
X3861D01*
X3862Y1838D01*
X3871Y1817D01*
X3885Y1798D01*
X3904Y1784D01*
X3926Y1775D01*
X3936Y1773D01*
Y1849D01*
D02*
G37*
G36*
X10146Y1848D02*
X10071D01*
Y1773D01*
X10081Y1775D01*
X10103Y1784D01*
X10122Y1798D01*
X10136Y1816D01*
X10145Y1838D01*
X10146Y1848D01*
D02*
G37*
G36*
X7620Y1836D02*
X7545D01*
X7546Y1825D01*
X7555Y1804D01*
X7569Y1785D01*
X7588Y1771D01*
X7610Y1762D01*
X7620Y1761D01*
Y1836D01*
D02*
G37*
G36*
X5258Y1800D02*
X5178D01*
Y1739D01*
X5232D01*
X5242Y1741D01*
X5251Y1747D01*
X5256Y1755D01*
X5258Y1765D01*
Y1800D01*
D02*
G37*
G36*
X5152D02*
X5072D01*
Y1765D01*
X5073Y1755D01*
X5079Y1747D01*
X5088Y1741D01*
X5097Y1739D01*
X5152D01*
Y1800D01*
D02*
G37*
G36*
X2734Y1801D02*
X2653D01*
Y1740D01*
X2708D01*
X2718Y1742D01*
X2726Y1748D01*
X2732Y1756D01*
X2734Y1766D01*
Y1801D01*
D02*
G37*
G36*
X2628D02*
X2547D01*
Y1766D01*
X2549Y1756D01*
X2555Y1748D01*
X2563Y1742D01*
X2573Y1740D01*
X2628D01*
Y1801D01*
D02*
G37*
G36*
X10369Y2008D02*
X10346Y2005D01*
X10324Y1996D01*
X10306Y1982D01*
X10292Y1963D01*
X10283Y1942D01*
X10280Y1918D01*
X10283Y1895D01*
X10292Y1874D01*
X10306Y1855D01*
X10324Y1841D01*
X10346Y1832D01*
X10349Y1831D01*
X10423Y1757D01*
X10439Y1745D01*
X10457Y1737D01*
X10477Y1735D01*
X10567D01*
X10587Y1737D01*
X10587Y1737D01*
X10635D01*
X10645Y1739D01*
X10653Y1745D01*
X10659Y1753D01*
X10661Y1763D01*
Y1858D01*
X10659Y1868D01*
X10653Y1876D01*
X10645Y1882D01*
X10635Y1884D01*
X10596D01*
X10596Y1885D01*
X10601Y1897D01*
X10635D01*
X10645Y1899D01*
X10653Y1905D01*
X10659Y1913D01*
X10661Y1923D01*
Y1958D01*
X10567D01*
X10474D01*
Y1947D01*
X10461Y1939D01*
X10456Y1942D01*
X10447Y1963D01*
X10433Y1982D01*
X10414Y1996D01*
X10392Y2005D01*
X10369Y2008D01*
D02*
G37*
G36*
X8745Y1678D02*
X8735Y1676D01*
X8713Y1667D01*
X8694Y1653D01*
X8680Y1634D01*
X8671Y1613D01*
X8670Y1602D01*
X8745D01*
Y1678D01*
D02*
G37*
G36*
X2637Y1591D02*
X2562D01*
Y1516D01*
X2572Y1517D01*
X2594Y1526D01*
X2613Y1540D01*
X2627Y1559D01*
X2636Y1580D01*
X2637Y1591D01*
D02*
G37*
G36*
X11170Y1690D02*
X11160Y1689D01*
X11138Y1680D01*
X11120Y1665D01*
X11105Y1647D01*
X11096Y1625D01*
X11095Y1615D01*
X11170D01*
Y1690D01*
D02*
G37*
G36*
X8770Y1678D02*
Y1602D01*
X8846D01*
X8844Y1613D01*
X8835Y1634D01*
X8821Y1653D01*
X8803Y1667D01*
X8781Y1676D01*
X8770Y1678D01*
D02*
G37*
G36*
X2537Y1591D02*
X2461D01*
X2463Y1580D01*
X2472Y1559D01*
X2486Y1540D01*
X2504Y1526D01*
X2526Y1517D01*
X2537Y1516D01*
Y1591D01*
D02*
G37*
G36*
X11271Y1589D02*
X11196D01*
Y1514D01*
X11206Y1515D01*
X11228Y1524D01*
X11246Y1539D01*
X11261Y1557D01*
X11270Y1579D01*
X11271Y1589D01*
D02*
G37*
G36*
X11170D02*
X11095D01*
X11096Y1579D01*
X11105Y1557D01*
X11120Y1539D01*
X11138Y1524D01*
X11160Y1515D01*
X11170Y1514D01*
Y1589D01*
D02*
G37*
G36*
X5162Y1590D02*
X5086D01*
Y1514D01*
X5097Y1516D01*
X5118Y1525D01*
X5137Y1539D01*
X5151Y1558D01*
X5160Y1579D01*
X5162Y1590D01*
D02*
G37*
G36*
X5061D02*
X4986D01*
X4987Y1579D01*
X4996Y1558D01*
X5010Y1539D01*
X5029Y1525D01*
X5050Y1516D01*
X5061Y1514D01*
Y1590D01*
D02*
G37*
G36*
X11196Y1690D02*
Y1615D01*
X11271D01*
X11270Y1625D01*
X11261Y1647D01*
X11246Y1665D01*
X11228Y1680D01*
X11206Y1689D01*
X11196Y1690D01*
D02*
G37*
G36*
X7528Y1784D02*
X7447D01*
Y1723D01*
X7502D01*
X7512Y1725D01*
X7521Y1731D01*
X7526Y1739D01*
X7528Y1749D01*
Y1784D01*
D02*
G37*
G36*
X7422D02*
X7341D01*
Y1749D01*
X7343Y1739D01*
X7349Y1731D01*
X7357Y1725D01*
X7367Y1723D01*
X7422D01*
Y1784D01*
D02*
G37*
G36*
X8942Y1787D02*
X8862D01*
Y1726D01*
X8916D01*
X8926Y1728D01*
X8935Y1734D01*
X8940Y1742D01*
X8942Y1752D01*
Y1787D01*
D02*
G37*
G36*
X8836D02*
X8756D01*
Y1752D01*
X8758Y1742D01*
X8763Y1734D01*
X8772Y1728D01*
X8781Y1726D01*
X8836D01*
Y1787D01*
D02*
G37*
G36*
X7944Y1996D02*
X7921Y1992D01*
X7899Y1984D01*
X7880Y1969D01*
X7866Y1951D01*
X7857Y1929D01*
X7854Y1906D01*
X7857Y1883D01*
X7866Y1861D01*
X7880Y1842D01*
X7899Y1828D01*
X7921Y1819D01*
X7923Y1819D01*
X7998Y1744D01*
X8014Y1732D01*
X8032Y1725D01*
X8052Y1722D01*
X8142D01*
X8162Y1725D01*
X8162Y1725D01*
X8209D01*
X8219Y1727D01*
X8228Y1732D01*
X8233Y1741D01*
X8235Y1751D01*
Y1846D01*
X8233Y1855D01*
X8228Y1864D01*
X8219Y1869D01*
X8209Y1871D01*
X8171D01*
X8170Y1872D01*
X8175Y1885D01*
X8209D01*
X8219Y1887D01*
X8228Y1892D01*
X8233Y1901D01*
X8235Y1911D01*
Y1945D01*
X8142D01*
X8048D01*
Y1935D01*
X8036Y1927D01*
X8030Y1929D01*
X8021Y1951D01*
X8007Y1969D01*
X7989Y1984D01*
X7967Y1992D01*
X7944Y1996D01*
D02*
G37*
G36*
X5086Y1690D02*
Y1615D01*
X5162D01*
X5160Y1626D01*
X5151Y1647D01*
X5137Y1666D01*
X5118Y1680D01*
X5097Y1689D01*
X5086Y1690D01*
D02*
G37*
G36*
X5061D02*
X5050Y1689D01*
X5029Y1680D01*
X5010Y1666D01*
X4996Y1647D01*
X4987Y1626D01*
X4986Y1615D01*
X5061D01*
Y1690D01*
D02*
G37*
G36*
X2562Y1692D02*
Y1616D01*
X2637D01*
X2636Y1627D01*
X2627Y1649D01*
X2613Y1667D01*
X2594Y1681D01*
X2572Y1690D01*
X2562Y1692D01*
D02*
G37*
G36*
X2537D02*
X2526Y1690D01*
X2504Y1681D01*
X2486Y1667D01*
X2472Y1649D01*
X2463Y1627D01*
X2461Y1616D01*
X2537D01*
Y1692D01*
D02*
G37*
G36*
X11284Y1365D02*
X11191D01*
X11097D01*
Y1331D01*
X11099Y1321D01*
X11105Y1312D01*
X11113Y1307D01*
X11123Y1305D01*
X11157D01*
X11162Y1292D01*
X11162Y1291D01*
X11123D01*
X11113Y1289D01*
X11105Y1284D01*
X11099Y1275D01*
X11097Y1266D01*
Y1171D01*
X11099Y1161D01*
X11105Y1152D01*
X11113Y1147D01*
X11123Y1145D01*
X11171D01*
X11171Y1145D01*
X11191Y1142D01*
X11337D01*
X11356Y1145D01*
X11375Y1152D01*
X11390Y1164D01*
X11409Y1183D01*
X11412Y1184D01*
X11434Y1193D01*
X11452Y1207D01*
X11467Y1225D01*
X11475Y1247D01*
X11479Y1270D01*
X11475Y1293D01*
X11467Y1315D01*
X11452Y1334D01*
X11434Y1348D01*
X11412Y1357D01*
X11389Y1360D01*
X11366Y1357D01*
X11344Y1348D01*
X11325Y1334D01*
X11311Y1315D01*
X11303Y1294D01*
X11270D01*
X11268Y1307D01*
X11277Y1312D01*
X11282Y1321D01*
X11284Y1331D01*
Y1365D01*
D02*
G37*
G36*
X1059Y858D02*
X913D01*
X894Y856D01*
X875Y848D01*
X860Y836D01*
X841Y817D01*
X838Y817D01*
X816Y808D01*
X798Y794D01*
X784Y775D01*
X775Y753D01*
X772Y730D01*
X775Y707D01*
X784Y685D01*
X798Y667D01*
X816Y652D01*
X838Y644D01*
X861Y640D01*
X884Y644D01*
X906Y652D01*
X925Y667D01*
X939Y685D01*
X948Y706D01*
X980D01*
X982Y694D01*
X974Y688D01*
X968Y680D01*
X966Y670D01*
Y635D01*
X1153D01*
Y670D01*
X1151Y680D01*
X1145Y688D01*
X1137Y694D01*
X1127Y696D01*
X1093D01*
X1088Y708D01*
X1088Y709D01*
X1127D01*
X1137Y711D01*
X1145Y716D01*
X1151Y725D01*
X1153Y735D01*
Y830D01*
X1151Y840D01*
X1145Y848D01*
X1137Y854D01*
X1127Y856D01*
X1079D01*
X1079Y856D01*
X1059Y858D01*
D02*
G37*
G36*
X3584Y857D02*
X3481D01*
X3461Y854D01*
X3443Y847D01*
X3427Y835D01*
X3379Y787D01*
X3377Y787D01*
X3355Y778D01*
X3337Y763D01*
X3322Y745D01*
X3313Y723D01*
X3310Y700D01*
X3313Y677D01*
X3322Y655D01*
X3337Y637D01*
X3355Y622D01*
X3377Y613D01*
X3400Y610D01*
X3423Y613D01*
X3445Y622D01*
X3463Y637D01*
X3478Y655D01*
X3490Y653D01*
Y634D01*
X3677D01*
Y668D01*
X3675Y678D01*
X3670Y687D01*
X3661Y692D01*
X3651Y694D01*
X3617D01*
X3612Y707D01*
X3613Y708D01*
X3651D01*
X3661Y710D01*
X3670Y715D01*
X3675Y724D01*
X3677Y733D01*
Y828D01*
X3675Y838D01*
X3670Y847D01*
X3661Y852D01*
X3651Y854D01*
X3604D01*
X3603Y854D01*
X3584Y857D01*
D02*
G37*
G36*
X7479Y748D02*
Y673D01*
X7554D01*
X7552Y683D01*
X7543Y705D01*
X7529Y724D01*
X7511Y738D01*
X7489Y747D01*
X7479Y748D01*
D02*
G37*
G36*
X7453D02*
X7443Y747D01*
X7421Y738D01*
X7402Y724D01*
X7388Y705D01*
X7379Y683D01*
X7378Y673D01*
X7453D01*
Y748D01*
D02*
G37*
G36*
X9693Y857D02*
X9547D01*
X9528Y854D01*
X9509Y847D01*
X9493Y834D01*
X9474Y815D01*
X9472Y815D01*
X9450Y806D01*
X9432Y792D01*
X9417Y773D01*
X9408Y752D01*
X9405Y729D01*
X9408Y705D01*
X9417Y684D01*
X9432Y665D01*
X9450Y651D01*
X9472Y642D01*
X9495Y639D01*
X9518Y642D01*
X9540Y651D01*
X9558Y665D01*
X9573Y684D01*
X9581Y705D01*
X9614D01*
X9616Y692D01*
X9607Y686D01*
X9602Y678D01*
X9600Y668D01*
Y633D01*
X9787D01*
Y668D01*
X9785Y678D01*
X9779Y686D01*
X9771Y692D01*
X9761Y694D01*
X9727D01*
X9722Y707D01*
X9722Y707D01*
X9761D01*
X9771Y709D01*
X9779Y715D01*
X9785Y723D01*
X9787Y733D01*
Y828D01*
X9785Y838D01*
X9779Y846D01*
X9771Y852D01*
X9761Y854D01*
X9713D01*
X9713Y854D01*
X9693Y857D01*
D02*
G37*
G36*
X3787Y687D02*
X3712D01*
X3713Y677D01*
X3722Y655D01*
X3737Y637D01*
X3755Y622D01*
X3777Y613D01*
X3787Y612D01*
Y687D01*
D02*
G37*
G36*
X1345Y662D02*
X1270D01*
Y586D01*
X1281Y588D01*
X1302Y597D01*
X1321Y611D01*
X1335Y630D01*
X1344Y651D01*
X1345Y662D01*
D02*
G37*
G36*
X7268Y844D02*
X7122D01*
X7102Y842D01*
X7084Y834D01*
X7068Y822D01*
X7049Y803D01*
X7047Y803D01*
X7025Y794D01*
X7006Y779D01*
X6992Y761D01*
X6983Y739D01*
X6980Y716D01*
X6983Y693D01*
X6992Y671D01*
X7006Y653D01*
X7025Y638D01*
X7047Y629D01*
X7070Y626D01*
X7093Y629D01*
X7115Y638D01*
X7133Y653D01*
X7147Y671D01*
X7156Y692D01*
X7188D01*
X7190Y680D01*
X7182Y674D01*
X7176Y666D01*
X7174Y656D01*
Y621D01*
X7361D01*
Y656D01*
X7359Y666D01*
X7354Y674D01*
X7345Y680D01*
X7335Y681D01*
X7301D01*
X7296Y694D01*
X7297Y695D01*
X7335D01*
X7345Y697D01*
X7354Y702D01*
X7359Y711D01*
X7361Y721D01*
Y816D01*
X7359Y826D01*
X7354Y834D01*
X7345Y840D01*
X7335Y841D01*
X7288D01*
X7287Y842D01*
X7268Y844D01*
D02*
G37*
G36*
X3888Y687D02*
X3813D01*
Y612D01*
X3823Y613D01*
X3845Y622D01*
X3863Y637D01*
X3878Y655D01*
X3887Y677D01*
X3888Y687D01*
D02*
G37*
G36*
X9878Y761D02*
X9868Y759D01*
X9846Y750D01*
X9828Y736D01*
X9814Y718D01*
X9805Y696D01*
X9803Y686D01*
X9878D01*
Y761D01*
D02*
G37*
G36*
X3813Y788D02*
Y713D01*
X3888D01*
X3887Y723D01*
X3878Y745D01*
X3863Y763D01*
X3845Y778D01*
X3823Y787D01*
X3813Y788D01*
D02*
G37*
G36*
X3787D02*
X3777Y787D01*
X3755Y778D01*
X3737Y763D01*
X3722Y745D01*
X3713Y723D01*
X3712Y713D01*
X3787D01*
Y788D01*
D02*
G37*
G36*
X8042Y843D02*
X7988D01*
Y782D01*
X8068D01*
Y817D01*
X8066Y827D01*
X8061Y836D01*
X8052Y841D01*
X8042Y843D01*
D02*
G37*
G36*
X7962D02*
X7907D01*
X7897Y841D01*
X7889Y836D01*
X7883Y827D01*
X7881Y817D01*
Y782D01*
X7962D01*
Y843D01*
D02*
G37*
G36*
X11300Y790D02*
X11277Y787D01*
X11255Y778D01*
X11237Y763D01*
X11222Y745D01*
X11213Y723D01*
X11213Y721D01*
X11204Y712D01*
X11194Y720D01*
X11199Y726D01*
X11201Y736D01*
Y771D01*
X11107D01*
X11014D01*
Y736D01*
X11016Y726D01*
X11022Y718D01*
X11030Y712D01*
X11040Y710D01*
X11074D01*
X11079Y698D01*
X11078Y697D01*
X11040D01*
X11030Y695D01*
X11022Y690D01*
X11016Y681D01*
X11014Y671D01*
Y576D01*
X11016Y566D01*
X11022Y558D01*
X11030Y552D01*
X11040Y550D01*
X11087D01*
X11088Y550D01*
X11107Y548D01*
X11224D01*
X11244Y550D01*
X11262Y558D01*
X11278Y570D01*
X11321Y613D01*
X11323Y613D01*
X11345Y622D01*
X11363Y637D01*
X11378Y655D01*
X11387Y677D01*
X11390Y700D01*
X11387Y723D01*
X11378Y745D01*
X11363Y763D01*
X11345Y778D01*
X11323Y787D01*
X11300Y790D01*
D02*
G37*
G36*
X1245Y762D02*
X1234Y761D01*
X1213Y752D01*
X1194Y738D01*
X1180Y719D01*
X1171Y698D01*
X1169Y687D01*
X1245D01*
Y762D01*
D02*
G37*
G36*
X9904Y761D02*
Y686D01*
X9979D01*
X9978Y696D01*
X9969Y718D01*
X9955Y736D01*
X9936Y750D01*
X9914Y759D01*
X9904Y761D01*
D02*
G37*
G36*
X5200Y790D02*
X5177Y787D01*
X5155Y778D01*
X5137Y763D01*
X5122Y745D01*
X5113Y723D01*
X5113Y721D01*
X5093Y700D01*
X5077D01*
X5075Y713D01*
X5084Y718D01*
X5089Y727D01*
X5091Y737D01*
Y771D01*
X4998D01*
X4905D01*
Y737D01*
X4906Y727D01*
X4912Y718D01*
X4920Y713D01*
X4930Y711D01*
X4964D01*
X4969Y698D01*
X4969Y698D01*
X4930D01*
X4920Y696D01*
X4912Y690D01*
X4906Y682D01*
X4905Y672D01*
Y577D01*
X4906Y567D01*
X4912Y558D01*
X4920Y553D01*
X4930Y551D01*
X4978D01*
X4978Y551D01*
X4998Y548D01*
X5124D01*
X5144Y551D01*
X5162Y558D01*
X5178Y570D01*
X5221Y613D01*
X5223Y613D01*
X5245Y622D01*
X5263Y637D01*
X5278Y655D01*
X5287Y677D01*
X5290Y700D01*
X5287Y723D01*
X5278Y745D01*
X5263Y763D01*
X5245Y778D01*
X5223Y787D01*
X5200Y790D01*
D02*
G37*
G36*
X1270Y762D02*
Y687D01*
X1345D01*
X1344Y698D01*
X1335Y719D01*
X1321Y738D01*
X1302Y752D01*
X1281Y761D01*
X1270Y762D01*
D02*
G37*
G36*
X9680Y608D02*
X9600D01*
Y573D01*
X9602Y563D01*
X9607Y555D01*
X9616Y549D01*
X9626Y547D01*
X9680D01*
Y608D01*
D02*
G37*
G36*
X4384Y770D02*
X4291D01*
X4197D01*
Y735D01*
X4199Y725D01*
X4205Y717D01*
X4213Y711D01*
X4223Y709D01*
X4257D01*
X4262Y696D01*
X4262Y696D01*
X4223D01*
X4213Y694D01*
X4205Y688D01*
X4199Y680D01*
X4197Y670D01*
Y575D01*
X4199Y565D01*
X4205Y557D01*
X4213Y551D01*
X4223Y549D01*
X4271D01*
X4271Y549D01*
X4291Y547D01*
X4437D01*
X4456Y549D01*
X4475Y557D01*
X4490Y569D01*
X4509Y588D01*
X4512Y588D01*
X4534Y597D01*
X4552Y611D01*
X4567Y630D01*
X4575Y652D01*
X4579Y675D01*
X4575Y698D01*
X4567Y720D01*
X4552Y738D01*
X4534Y752D01*
X4512Y761D01*
X4489Y764D01*
X4466Y761D01*
X4444Y752D01*
X4425Y738D01*
X4411Y720D01*
X4403Y699D01*
X4370D01*
X4368Y711D01*
X4377Y717D01*
X4382Y725D01*
X4384Y735D01*
Y770D01*
D02*
G37*
G36*
X3571Y608D02*
X3490D01*
Y573D01*
X3492Y564D01*
X3498Y555D01*
X3506Y550D01*
X3516Y548D01*
X3571D01*
Y608D01*
D02*
G37*
G36*
X9787Y608D02*
X9706D01*
Y547D01*
X9761D01*
X9771Y549D01*
X9779Y555D01*
X9785Y563D01*
X9787Y573D01*
Y608D01*
D02*
G37*
G36*
X10494Y770D02*
X10400D01*
X10307D01*
Y735D01*
X10309Y725D01*
X10314Y716D01*
X10323Y711D01*
X10333Y709D01*
X10367D01*
X10372Y696D01*
X10371Y696D01*
X10333D01*
X10323Y694D01*
X10314Y688D01*
X10309Y680D01*
X10307Y670D01*
Y575D01*
X10309Y565D01*
X10314Y556D01*
X10323Y551D01*
X10333Y549D01*
X10380D01*
X10381Y549D01*
X10400Y546D01*
X10546D01*
X10566Y549D01*
X10584Y556D01*
X10600Y569D01*
X10619Y587D01*
X10621Y588D01*
X10643Y597D01*
X10662Y611D01*
X10676Y630D01*
X10685Y651D01*
X10688Y674D01*
X10685Y698D01*
X10676Y719D01*
X10662Y738D01*
X10643Y752D01*
X10621Y761D01*
X10598Y764D01*
X10575Y761D01*
X10553Y752D01*
X10535Y738D01*
X10521Y719D01*
X10512Y698D01*
X10480D01*
X10478Y711D01*
X10486Y716D01*
X10492Y725D01*
X10494Y735D01*
Y770D01*
D02*
G37*
G36*
X7255Y595D02*
X7174D01*
Y561D01*
X7176Y551D01*
X7182Y542D01*
X7190Y537D01*
X7200Y535D01*
X7255D01*
Y595D01*
D02*
G37*
G36*
X8068Y757D02*
X7975D01*
X7881D01*
Y722D01*
X7883Y712D01*
X7889Y704D01*
X7897Y698D01*
X7907Y696D01*
X7941D01*
X7946Y684D01*
X7946Y683D01*
X7907D01*
X7897Y681D01*
X7889Y676D01*
X7883Y667D01*
X7881Y657D01*
Y562D01*
X7883Y552D01*
X7889Y544D01*
X7897Y538D01*
X7907Y536D01*
X7955D01*
X7955Y536D01*
X7975Y534D01*
X8121D01*
X8140Y536D01*
X8159Y544D01*
X8175Y556D01*
X8194Y575D01*
X8196Y575D01*
X8218Y584D01*
X8236Y598D01*
X8251Y617D01*
X8260Y639D01*
X8263Y662D01*
X8260Y685D01*
X8251Y707D01*
X8236Y725D01*
X8218Y740D01*
X8196Y748D01*
X8173Y752D01*
X8150Y748D01*
X8128Y740D01*
X8110Y725D01*
X8095Y707D01*
X8087Y686D01*
X8054D01*
X8052Y698D01*
X8061Y704D01*
X8066Y712D01*
X8068Y722D01*
Y757D01*
D02*
G37*
G36*
X8775Y759D02*
X8682D01*
X8589D01*
Y724D01*
X8591Y714D01*
X8596Y705D01*
X8605Y700D01*
X8614Y698D01*
X8648D01*
X8653Y685D01*
X8653Y685D01*
X8614D01*
X8605Y683D01*
X8596Y677D01*
X8591Y669D01*
X8589Y659D01*
Y564D01*
X8591Y554D01*
X8596Y545D01*
X8605Y540D01*
X8614Y538D01*
X8662D01*
X8662Y538D01*
X8682Y535D01*
X8828D01*
X8848Y538D01*
X8866Y545D01*
X8882Y558D01*
X8901Y577D01*
X8903Y577D01*
X8925Y586D01*
X8943Y600D01*
X8958Y619D01*
X8967Y640D01*
X8970Y663D01*
X8967Y687D01*
X8958Y708D01*
X8943Y727D01*
X8925Y741D01*
X8903Y750D01*
X8880Y753D01*
X8857Y750D01*
X8835Y741D01*
X8817Y727D01*
X8802Y708D01*
X8794Y687D01*
X8762D01*
X8759Y700D01*
X8768Y705D01*
X8773Y714D01*
X8775Y724D01*
Y759D01*
D02*
G37*
G36*
X7361Y595D02*
X7280D01*
Y535D01*
X7335D01*
X7345Y537D01*
X7354Y542D01*
X7359Y551D01*
X7361Y561D01*
Y595D01*
D02*
G37*
G36*
X3677Y608D02*
X3596D01*
Y548D01*
X3651D01*
X3661Y550D01*
X3670Y555D01*
X3675Y564D01*
X3677Y573D01*
Y608D01*
D02*
G37*
G36*
X9878Y660D02*
X9803D01*
X9805Y650D01*
X9814Y628D01*
X9828Y609D01*
X9846Y595D01*
X9868Y586D01*
X9878Y585D01*
Y660D01*
D02*
G37*
G36*
X7554Y648D02*
X7479D01*
Y572D01*
X7489Y574D01*
X7511Y583D01*
X7529Y597D01*
X7543Y615D01*
X7552Y637D01*
X7554Y648D01*
D02*
G37*
G36*
X1245Y662D02*
X1169D01*
X1171Y651D01*
X1180Y630D01*
X1194Y611D01*
X1213Y597D01*
X1234Y588D01*
X1245Y586D01*
Y662D01*
D02*
G37*
G36*
X9979Y660D02*
X9904D01*
Y585D01*
X9914Y586D01*
X9936Y595D01*
X9955Y609D01*
X9969Y628D01*
X9978Y650D01*
X9979Y660D01*
D02*
G37*
G36*
X7453Y648D02*
X7378D01*
X7379Y637D01*
X7388Y615D01*
X7402Y597D01*
X7421Y583D01*
X7443Y574D01*
X7453Y572D01*
Y648D01*
D02*
G37*
G36*
X1047Y610D02*
X966D01*
Y575D01*
X968Y565D01*
X974Y556D01*
X982Y551D01*
X992Y549D01*
X1047D01*
Y610D01*
D02*
G37*
G36*
X1860Y771D02*
X1766D01*
X1673D01*
Y736D01*
X1675Y726D01*
X1681Y718D01*
X1689Y712D01*
X1699Y710D01*
X1733D01*
X1738Y698D01*
X1737Y697D01*
X1699D01*
X1689Y695D01*
X1681Y690D01*
X1675Y681D01*
X1673Y671D01*
Y576D01*
X1675Y566D01*
X1681Y558D01*
X1689Y552D01*
X1699Y550D01*
X1747D01*
X1747Y550D01*
X1766Y548D01*
X1912D01*
X1932Y550D01*
X1950Y558D01*
X1966Y570D01*
X1985Y589D01*
X1988Y589D01*
X2009Y598D01*
X2028Y613D01*
X2042Y631D01*
X2051Y653D01*
X2054Y676D01*
X2051Y699D01*
X2042Y721D01*
X2028Y739D01*
X2009Y754D01*
X1988Y763D01*
X1964Y766D01*
X1941Y763D01*
X1920Y754D01*
X1901Y739D01*
X1887Y721D01*
X1878Y700D01*
X1846D01*
X1844Y712D01*
X1852Y718D01*
X1858Y726D01*
X1860Y736D01*
Y771D01*
D02*
G37*
G36*
X2567Y773D02*
X2474D01*
X2380D01*
Y738D01*
X2382Y728D01*
X2388Y720D01*
X2396Y714D01*
X2406Y712D01*
X2440D01*
X2445Y699D01*
X2445Y699D01*
X2406D01*
X2396Y697D01*
X2388Y691D01*
X2382Y683D01*
X2380Y673D01*
Y578D01*
X2382Y568D01*
X2388Y560D01*
X2396Y554D01*
X2406Y552D01*
X2454D01*
X2454Y552D01*
X2474Y549D01*
X2619D01*
X2639Y552D01*
X2657Y560D01*
X2673Y572D01*
X2692Y591D01*
X2695Y591D01*
X2716Y600D01*
X2735Y614D01*
X2749Y633D01*
X2758Y654D01*
X2761Y678D01*
X2758Y701D01*
X2749Y722D01*
X2735Y741D01*
X2716Y755D01*
X2695Y764D01*
X2672Y767D01*
X2648Y764D01*
X2627Y755D01*
X2608Y741D01*
X2594Y722D01*
X2585Y702D01*
X2553D01*
X2551Y714D01*
X2559Y720D01*
X2565Y728D01*
X2567Y738D01*
Y773D01*
D02*
G37*
G36*
X1153Y610D02*
X1072D01*
Y549D01*
X1127D01*
X1137Y551D01*
X1145Y556D01*
X1151Y565D01*
X1153Y575D01*
Y610D01*
D02*
G37*
G36*
X8669Y845D02*
X8614D01*
X8605Y843D01*
X8596Y837D01*
X8591Y829D01*
X8589Y819D01*
Y784D01*
X8669D01*
Y845D01*
D02*
G37*
G36*
X10387Y1088D02*
X10377Y1087D01*
X10355Y1078D01*
X10337Y1063D01*
X10322Y1045D01*
X10313Y1023D01*
X10312Y1013D01*
X10387D01*
Y1088D01*
D02*
G37*
G36*
X4313D02*
Y1013D01*
X4388D01*
X4387Y1023D01*
X4378Y1045D01*
X4363Y1063D01*
X4345Y1078D01*
X4323Y1087D01*
X4313Y1088D01*
D02*
G37*
G36*
X1746Y1096D02*
X1735Y1095D01*
X1714Y1086D01*
X1695Y1071D01*
X1681Y1053D01*
X1672Y1031D01*
X1671Y1021D01*
X1746D01*
Y1096D01*
D02*
G37*
G36*
X10413Y1088D02*
Y1013D01*
X10488D01*
X10487Y1023D01*
X10478Y1045D01*
X10463Y1063D01*
X10445Y1078D01*
X10423Y1087D01*
X10413Y1088D01*
D02*
G37*
G36*
X4287D02*
X4277Y1087D01*
X4255Y1078D01*
X4237Y1063D01*
X4222Y1045D01*
X4213Y1023D01*
X4212Y1013D01*
X4287D01*
Y1088D01*
D02*
G37*
G36*
X1847Y995D02*
X1771D01*
Y920D01*
X1782Y921D01*
X1803Y930D01*
X1822Y945D01*
X1836Y963D01*
X1845Y985D01*
X1847Y995D01*
D02*
G37*
G36*
X1746D02*
X1671D01*
X1672Y985D01*
X1681Y963D01*
X1695Y945D01*
X1714Y930D01*
X1735Y921D01*
X1746Y920D01*
Y995D01*
D02*
G37*
G36*
X7980Y1082D02*
Y1006D01*
X8055D01*
X8054Y1017D01*
X8045Y1039D01*
X8031Y1057D01*
X8012Y1071D01*
X7990Y1080D01*
X7980Y1082D01*
D02*
G37*
G36*
X7954D02*
X7944Y1080D01*
X7922Y1071D01*
X7904Y1057D01*
X7889Y1039D01*
X7880Y1017D01*
X7879Y1006D01*
X7954D01*
Y1082D01*
D02*
G37*
G36*
X1771Y1096D02*
Y1021D01*
X1847D01*
X1845Y1031D01*
X1836Y1053D01*
X1822Y1071D01*
X1803Y1086D01*
X1782Y1095D01*
X1771Y1096D01*
D02*
G37*
G36*
X9870Y1202D02*
X9789D01*
Y1141D01*
X9844D01*
X9854Y1143D01*
X9862Y1149D01*
X9868Y1157D01*
X9870Y1167D01*
Y1202D01*
D02*
G37*
G36*
X9764D02*
X9683D01*
Y1167D01*
X9685Y1157D01*
X9691Y1149D01*
X9699Y1143D01*
X9709Y1141D01*
X9764D01*
Y1202D01*
D02*
G37*
G36*
X3761Y1202D02*
X3680D01*
Y1142D01*
X3735D01*
X3745Y1144D01*
X3753Y1149D01*
X3759Y1158D01*
X3761Y1168D01*
Y1202D01*
D02*
G37*
G36*
X3655D02*
X3574D01*
Y1168D01*
X3576Y1158D01*
X3581Y1149D01*
X3590Y1144D01*
X3600Y1142D01*
X3655D01*
Y1202D01*
D02*
G37*
G36*
X6285Y1361D02*
X6192D01*
X6098D01*
Y1326D01*
X6100Y1316D01*
X6106Y1308D01*
X6114Y1302D01*
X6124Y1300D01*
X6158D01*
X6163Y1288D01*
X6163Y1287D01*
X6124D01*
X6114Y1285D01*
X6106Y1280D01*
X6100Y1271D01*
X6098Y1261D01*
Y1166D01*
X6100Y1156D01*
X6106Y1148D01*
X6114Y1142D01*
X6124Y1140D01*
X6172D01*
X6172Y1140D01*
X6192Y1138D01*
X6337D01*
X6357Y1140D01*
X6375Y1148D01*
X6391Y1160D01*
X6410Y1179D01*
X6413Y1179D01*
X6434Y1188D01*
X6453Y1203D01*
X6467Y1221D01*
X6476Y1243D01*
X6479Y1266D01*
X6476Y1289D01*
X6467Y1311D01*
X6453Y1329D01*
X6434Y1344D01*
X6413Y1353D01*
X6390Y1356D01*
X6366Y1353D01*
X6345Y1344D01*
X6326Y1329D01*
X6312Y1311D01*
X6303Y1290D01*
X6271D01*
X6269Y1302D01*
X6277Y1308D01*
X6283Y1316D01*
X6285Y1326D01*
Y1361D01*
D02*
G37*
G36*
X7445Y1190D02*
X7364D01*
Y1129D01*
X7419D01*
X7429Y1131D01*
X7437Y1136D01*
X7443Y1145D01*
X7445Y1155D01*
Y1190D01*
D02*
G37*
G36*
X7339D02*
X7258D01*
Y1155D01*
X7260Y1145D01*
X7265Y1136D01*
X7274Y1131D01*
X7284Y1129D01*
X7339D01*
Y1190D01*
D02*
G37*
G36*
X8859Y1193D02*
X8778D01*
Y1132D01*
X8833D01*
X8843Y1134D01*
X8851Y1140D01*
X8857Y1148D01*
X8859Y1158D01*
Y1193D01*
D02*
G37*
G36*
X8753D02*
X8672D01*
Y1158D01*
X8674Y1148D01*
X8680Y1140D01*
X8688Y1134D01*
X8698Y1132D01*
X8753D01*
Y1193D01*
D02*
G37*
G36*
X11175Y857D02*
X11120D01*
Y797D01*
X11201D01*
Y831D01*
X11199Y841D01*
X11193Y850D01*
X11185Y855D01*
X11175Y857D01*
D02*
G37*
G36*
X11095D02*
X11040D01*
X11030Y855D01*
X11022Y850D01*
X11016Y841D01*
X11014Y831D01*
Y797D01*
X11095D01*
Y857D01*
D02*
G37*
G36*
X1834Y857D02*
X1779D01*
Y797D01*
X1860D01*
Y831D01*
X1858Y841D01*
X1852Y850D01*
X1844Y855D01*
X1834Y857D01*
D02*
G37*
G36*
X1754D02*
X1699D01*
X1689Y855D01*
X1681Y850D01*
X1675Y841D01*
X1673Y831D01*
Y797D01*
X1754D01*
Y857D01*
D02*
G37*
G36*
X4358Y856D02*
X4304D01*
Y795D01*
X4384D01*
Y830D01*
X4382Y840D01*
X4377Y848D01*
X4368Y854D01*
X4358Y856D01*
D02*
G37*
G36*
X10388Y856D02*
X10333D01*
X10323Y854D01*
X10314Y848D01*
X10309Y840D01*
X10307Y830D01*
Y795D01*
X10388D01*
Y856D01*
D02*
G37*
G36*
X8749Y845D02*
X8695D01*
Y784D01*
X8775D01*
Y819D01*
X8773Y829D01*
X8768Y837D01*
X8759Y843D01*
X8749Y845D01*
D02*
G37*
G36*
X4278Y856D02*
X4223D01*
X4213Y854D01*
X4205Y848D01*
X4199Y840D01*
X4197Y830D01*
Y795D01*
X4278D01*
Y856D01*
D02*
G37*
G36*
X10468Y856D02*
X10413D01*
Y795D01*
X10494D01*
Y830D01*
X10492Y840D01*
X10486Y848D01*
X10478Y854D01*
X10468Y856D01*
D02*
G37*
G36*
X4985Y858D02*
X4930D01*
X4920Y856D01*
X4912Y850D01*
X4906Y842D01*
X4905Y832D01*
Y797D01*
X4985D01*
Y858D01*
D02*
G37*
G36*
X4388Y987D02*
X4313D01*
Y912D01*
X4323Y913D01*
X4345Y922D01*
X4363Y937D01*
X4378Y955D01*
X4387Y977D01*
X4388Y987D01*
D02*
G37*
G36*
X4287D02*
X4212D01*
X4213Y977D01*
X4222Y955D01*
X4237Y937D01*
X4255Y922D01*
X4277Y913D01*
X4287Y912D01*
Y987D01*
D02*
G37*
G36*
X10488D02*
X10413D01*
Y912D01*
X10423Y913D01*
X10445Y922D01*
X10463Y937D01*
X10478Y955D01*
X10487Y977D01*
X10488Y987D01*
D02*
G37*
G36*
X10387D02*
X10312D01*
X10313Y977D01*
X10322Y955D01*
X10337Y937D01*
X10355Y922D01*
X10377Y913D01*
X10387Y912D01*
Y987D01*
D02*
G37*
G36*
X8055Y981D02*
X7980D01*
Y906D01*
X7990Y907D01*
X8012Y916D01*
X8031Y930D01*
X8045Y949D01*
X8054Y971D01*
X8055Y981D01*
D02*
G37*
G36*
X2461Y859D02*
X2406D01*
X2396Y857D01*
X2388Y851D01*
X2382Y843D01*
X2380Y833D01*
Y798D01*
X2461D01*
Y859D01*
D02*
G37*
G36*
X5065Y858D02*
X5011D01*
Y797D01*
X5091D01*
Y832D01*
X5089Y842D01*
X5084Y850D01*
X5075Y856D01*
X5065Y858D01*
D02*
G37*
G36*
X7954Y981D02*
X7879D01*
X7880Y971D01*
X7889Y949D01*
X7904Y930D01*
X7922Y916D01*
X7944Y907D01*
X7954Y906D01*
Y981D01*
D02*
G37*
G36*
X2541Y859D02*
X2486D01*
Y798D01*
X2567D01*
Y833D01*
X2565Y843D01*
X2559Y851D01*
X2551Y857D01*
X2541Y859D01*
D02*
G37*
G36*
X5319Y2988D02*
X5239D01*
Y2953D01*
X5240Y2943D01*
X5246Y2935D01*
X5255Y2929D01*
X5264Y2927D01*
X5319D01*
Y2988D01*
D02*
G37*
G36*
X11535Y2988D02*
X11454D01*
Y2927D01*
X11509D01*
X11519Y2929D01*
X11527Y2935D01*
X11533Y2943D01*
X11535Y2953D01*
Y2988D01*
D02*
G37*
G36*
X2795Y2989D02*
X2714D01*
Y2955D01*
X2716Y2945D01*
X2722Y2936D01*
X2730Y2931D01*
X2740Y2929D01*
X2795D01*
Y2989D01*
D02*
G37*
G36*
X5425Y2988D02*
X5345D01*
Y2927D01*
X5399D01*
X5409Y2929D01*
X5418Y2935D01*
X5423Y2943D01*
X5425Y2953D01*
Y2988D01*
D02*
G37*
G36*
X11429Y2988D02*
X11348D01*
Y2953D01*
X11350Y2943D01*
X11356Y2935D01*
X11364Y2929D01*
X11374Y2927D01*
X11429D01*
Y2988D01*
D02*
G37*
G36*
X2194Y3148D02*
X2100D01*
X2007D01*
Y3113D01*
X2009Y3103D01*
X2015Y3095D01*
X2023Y3089D01*
X2033Y3087D01*
X2067D01*
X2072Y3074D01*
X2071Y3074D01*
X2033D01*
X2023Y3072D01*
X2015Y3066D01*
X2009Y3058D01*
X2007Y3048D01*
Y2953D01*
X2009Y2943D01*
X2015Y2935D01*
X2023Y2929D01*
X2033Y2927D01*
X2081D01*
X2081Y2927D01*
X2100Y2924D01*
X2246D01*
X2266Y2927D01*
X2284Y2935D01*
X2300Y2947D01*
X2319Y2966D01*
X2322Y2966D01*
X2343Y2975D01*
X2362Y2989D01*
X2376Y3008D01*
X2385Y3029D01*
X2388Y3053D01*
X2385Y3076D01*
X2376Y3098D01*
X2362Y3116D01*
X2343Y3130D01*
X2322Y3139D01*
X2298Y3142D01*
X2275Y3139D01*
X2254Y3130D01*
X2235Y3116D01*
X2221Y3098D01*
X2212Y3077D01*
X2180D01*
X2178Y3089D01*
X2186Y3095D01*
X2192Y3103D01*
X2194Y3113D01*
Y3148D01*
D02*
G37*
G36*
X4011Y2985D02*
X3930D01*
Y2924D01*
X3985D01*
X3995Y2926D01*
X4004Y2932D01*
X4009Y2940D01*
X4011Y2950D01*
Y2985D01*
D02*
G37*
G36*
X1487Y2986D02*
X1406D01*
Y2926D01*
X1461D01*
X1471Y2928D01*
X1479Y2933D01*
X1485Y2942D01*
X1487Y2951D01*
Y2986D01*
D02*
G37*
G36*
X1381D02*
X1300D01*
Y2951D01*
X1302Y2942D01*
X1308Y2933D01*
X1316Y2928D01*
X1326Y2926D01*
X1381D01*
Y2986D01*
D02*
G37*
G36*
X2901Y2989D02*
X2820D01*
Y2929D01*
X2875D01*
X2885Y2931D01*
X2893Y2936D01*
X2899Y2945D01*
X2901Y2955D01*
Y2989D01*
D02*
G37*
G36*
X4103Y3037D02*
X4028D01*
X4029Y3027D01*
X4038Y3005D01*
X4052Y2986D01*
X4071Y2972D01*
X4093Y2963D01*
X4103Y2962D01*
Y3037D01*
D02*
G37*
G36*
X10313Y3037D02*
X10238D01*
Y2961D01*
X10248Y2963D01*
X10270Y2972D01*
X10289Y2986D01*
X10303Y3005D01*
X10312Y3026D01*
X10313Y3037D01*
D02*
G37*
G36*
X1579Y3038D02*
X1503D01*
X1505Y3028D01*
X1514Y3006D01*
X1528Y2988D01*
X1547Y2973D01*
X1568Y2964D01*
X1579Y2963D01*
Y3038D01*
D02*
G37*
G36*
X4204Y3037D02*
X4128D01*
Y2962D01*
X4139Y2963D01*
X4161Y2972D01*
X4179Y2986D01*
X4193Y3005D01*
X4202Y3027D01*
X4204Y3037D01*
D02*
G37*
G36*
X10212Y3037D02*
X10137D01*
X10139Y3026D01*
X10148Y3005D01*
X10162Y2986D01*
X10180Y2972D01*
X10202Y2963D01*
X10212Y2961D01*
Y3037D01*
D02*
G37*
G36*
X7888Y3024D02*
X7813D01*
Y2949D01*
X7823Y2950D01*
X7845Y2959D01*
X7863Y2974D01*
X7877Y2992D01*
X7886Y3014D01*
X7888Y3024D01*
D02*
G37*
G36*
X7787D02*
X7712D01*
X7713Y3014D01*
X7722Y2992D01*
X7736Y2974D01*
X7755Y2959D01*
X7777Y2950D01*
X7787Y2949D01*
Y3024D01*
D02*
G37*
G36*
X9302Y3027D02*
X9227D01*
Y2952D01*
X9237Y2954D01*
X9259Y2962D01*
X9277Y2977D01*
X9292Y2995D01*
X9301Y3017D01*
X9302Y3027D01*
D02*
G37*
G36*
X9201D02*
X9126D01*
X9127Y3017D01*
X9136Y2995D01*
X9151Y2977D01*
X9169Y2962D01*
X9191Y2954D01*
X9201Y2952D01*
Y3027D01*
D02*
G37*
G36*
X9000Y2627D02*
X8945D01*
Y2566D01*
X9026D01*
Y2601D01*
X9024Y2611D01*
X9018Y2620D01*
X9010Y2625D01*
X9000Y2627D01*
D02*
G37*
G36*
X8920D02*
X8865D01*
X8855Y2625D01*
X8847Y2620D01*
X8841Y2611D01*
X8839Y2601D01*
Y2566D01*
X8920D01*
Y2627D01*
D02*
G37*
G36*
X11425Y2640D02*
X11371D01*
Y2579D01*
X11451D01*
Y2614D01*
X11449Y2624D01*
X11444Y2632D01*
X11435Y2638D01*
X11425Y2640D01*
D02*
G37*
G36*
X11345D02*
X11290D01*
X11280Y2638D01*
X11272Y2632D01*
X11266Y2624D01*
X11264Y2614D01*
Y2579D01*
X11345D01*
Y2640D01*
D02*
G37*
G36*
X2539Y2604D02*
Y2529D01*
X2614D01*
X2613Y2539D01*
X2604Y2561D01*
X2589Y2579D01*
X2571Y2593D01*
X2549Y2602D01*
X2539Y2604D01*
D02*
G37*
G36*
X5038Y2602D02*
X5027Y2601D01*
X5006Y2592D01*
X4987Y2578D01*
X4973Y2559D01*
X4964Y2538D01*
X4962Y2527D01*
X5038D01*
Y2602D01*
D02*
G37*
G36*
X11172Y2602D02*
Y2527D01*
X11248D01*
X11246Y2537D01*
X11237Y2559D01*
X11223Y2578D01*
X11205Y2592D01*
X11183Y2601D01*
X11172Y2602D01*
D02*
G37*
G36*
X2513Y2604D02*
X2503Y2602D01*
X2481Y2593D01*
X2463Y2579D01*
X2448Y2561D01*
X2439Y2539D01*
X2438Y2529D01*
X2513D01*
Y2604D01*
D02*
G37*
G36*
X5063Y2602D02*
Y2527D01*
X5138D01*
X5137Y2538D01*
X5128Y2559D01*
X5114Y2578D01*
X5095Y2592D01*
X5074Y2601D01*
X5063Y2602D01*
D02*
G37*
G36*
X8402Y3134D02*
X8309D01*
X8215D01*
Y3099D01*
X8217Y3089D01*
X8223Y3081D01*
X8231Y3075D01*
X8241Y3073D01*
X8275D01*
X8280Y3060D01*
X8280Y3060D01*
X8241D01*
X8231Y3058D01*
X8223Y3052D01*
X8217Y3044D01*
X8215Y3034D01*
Y2939D01*
X8217Y2929D01*
X8223Y2921D01*
X8231Y2915D01*
X8241Y2913D01*
X8289D01*
X8289Y2913D01*
X8309Y2910D01*
X8455D01*
X8474Y2913D01*
X8493Y2920D01*
X8509Y2933D01*
X8528Y2952D01*
X8530Y2952D01*
X8552Y2961D01*
X8570Y2975D01*
X8585Y2994D01*
X8594Y3015D01*
X8597Y3039D01*
X8594Y3062D01*
X8585Y3083D01*
X8570Y3102D01*
X8552Y3116D01*
X8530Y3125D01*
X8507Y3128D01*
X8484Y3125D01*
X8462Y3116D01*
X8444Y3102D01*
X8429Y3083D01*
X8421Y3062D01*
X8388D01*
X8386Y3075D01*
X8395Y3081D01*
X8400Y3089D01*
X8402Y3099D01*
Y3134D01*
D02*
G37*
G36*
X10014Y2985D02*
X9934D01*
Y2950D01*
X9936Y2940D01*
X9941Y2932D01*
X9950Y2926D01*
X9960Y2924D01*
X10014D01*
Y2985D01*
D02*
G37*
G36*
X4718Y3146D02*
X4625D01*
X4531D01*
Y3112D01*
X4533Y3102D01*
X4539Y3093D01*
X4547Y3088D01*
X4557Y3086D01*
X4591D01*
X4596Y3073D01*
X4596Y3073D01*
X4557D01*
X4547Y3071D01*
X4539Y3065D01*
X4533Y3057D01*
X4531Y3047D01*
Y2952D01*
X4533Y2942D01*
X4539Y2933D01*
X4547Y2928D01*
X4557Y2926D01*
X4605D01*
X4605Y2926D01*
X4625Y2923D01*
X4771D01*
X4790Y2926D01*
X4809Y2933D01*
X4824Y2945D01*
X4843Y2964D01*
X4846Y2965D01*
X4868Y2974D01*
X4886Y2988D01*
X4901Y3007D01*
X4909Y3028D01*
X4913Y3051D01*
X4909Y3075D01*
X4901Y3096D01*
X4886Y3115D01*
X4868Y3129D01*
X4846Y3138D01*
X4823Y3141D01*
X4800Y3138D01*
X4778Y3129D01*
X4759Y3115D01*
X4745Y3096D01*
X4737Y3075D01*
X4704D01*
X4702Y3088D01*
X4711Y3093D01*
X4716Y3102D01*
X4718Y3112D01*
Y3146D01*
D02*
G37*
G36*
X3905Y2985D02*
X3824D01*
Y2950D01*
X3826Y2940D01*
X3832Y2932D01*
X3840Y2926D01*
X3850Y2924D01*
X3905D01*
Y2985D01*
D02*
G37*
G36*
X10121Y2985D02*
X10040D01*
Y2924D01*
X10095D01*
X10105Y2926D01*
X10113Y2932D01*
X10119Y2940D01*
X10121Y2950D01*
Y2985D01*
D02*
G37*
G36*
X10828Y3146D02*
X10734D01*
X10641D01*
Y3111D01*
X10643Y3102D01*
X10648Y3093D01*
X10657Y3088D01*
X10667Y3086D01*
X10701D01*
X10706Y3073D01*
X10705Y3072D01*
X10667D01*
X10657Y3070D01*
X10648Y3065D01*
X10643Y3056D01*
X10641Y3046D01*
Y2951D01*
X10643Y2942D01*
X10648Y2933D01*
X10657Y2928D01*
X10667Y2926D01*
X10714D01*
X10715Y2925D01*
X10734Y2923D01*
X10880D01*
X10900Y2925D01*
X10918Y2933D01*
X10934Y2945D01*
X10953Y2964D01*
X10956Y2964D01*
X10977Y2973D01*
X10996Y2988D01*
X11010Y3006D01*
X11019Y3028D01*
X11022Y3051D01*
X11019Y3074D01*
X11010Y3096D01*
X10996Y3114D01*
X10977Y3129D01*
X10956Y3138D01*
X10932Y3141D01*
X10909Y3138D01*
X10887Y3129D01*
X10869Y3114D01*
X10855Y3096D01*
X10846Y3075D01*
X10814D01*
X10812Y3088D01*
X10820Y3093D01*
X10826Y3102D01*
X10828Y3111D01*
Y3146D01*
D02*
G37*
G36*
X7695Y2972D02*
X7614D01*
Y2911D01*
X7669D01*
X7679Y2913D01*
X7688Y2919D01*
X7693Y2927D01*
X7695Y2937D01*
Y2972D01*
D02*
G37*
G36*
X7589D02*
X7508D01*
Y2937D01*
X7510Y2927D01*
X7516Y2919D01*
X7524Y2913D01*
X7534Y2911D01*
X7589D01*
Y2972D01*
D02*
G37*
G36*
X9109Y2975D02*
X9029D01*
Y2915D01*
X9083D01*
X9093Y2917D01*
X9102Y2922D01*
X9107Y2931D01*
X9109Y2940D01*
Y2975D01*
D02*
G37*
G36*
X9003D02*
X8923D01*
Y2940D01*
X8925Y2931D01*
X8930Y2922D01*
X8939Y2917D01*
X8948Y2915D01*
X9003D01*
Y2975D01*
D02*
G37*
G36*
X1679Y3038D02*
X1604D01*
Y2963D01*
X1615Y2964D01*
X1636Y2973D01*
X1655Y2988D01*
X1669Y3006D01*
X1678Y3028D01*
X1679Y3038D01*
D02*
G37*
G36*
X11652Y3141D02*
Y3065D01*
X11727D01*
X11726Y3076D01*
X11717Y3098D01*
X11703Y3116D01*
X11684Y3130D01*
X11663Y3139D01*
X11652Y3141D01*
D02*
G37*
G36*
X11627D02*
X11616Y3139D01*
X11595Y3130D01*
X11576Y3116D01*
X11562Y3098D01*
X11553Y3076D01*
X11551Y3065D01*
X11627D01*
Y3141D01*
D02*
G37*
G36*
X5543Y3141D02*
Y3066D01*
X5618D01*
X5617Y3076D01*
X5608Y3098D01*
X5593Y3116D01*
X5575Y3131D01*
X5553Y3140D01*
X5543Y3141D01*
D02*
G37*
G36*
X5517D02*
X5507Y3140D01*
X5485Y3131D01*
X5467Y3116D01*
X5452Y3098D01*
X5443Y3076D01*
X5442Y3066D01*
X5517D01*
Y3141D01*
D02*
G37*
G36*
X1604Y3139D02*
Y3064D01*
X1679D01*
X1678Y3074D01*
X1669Y3096D01*
X1655Y3115D01*
X1636Y3129D01*
X1615Y3138D01*
X1604Y3139D01*
D02*
G37*
G36*
X4103Y3138D02*
X4093Y3136D01*
X4071Y3127D01*
X4052Y3113D01*
X4038Y3095D01*
X4029Y3073D01*
X4028Y3062D01*
X4103D01*
Y3138D01*
D02*
G37*
G36*
X10238Y3137D02*
Y3062D01*
X10313D01*
X10312Y3073D01*
X10303Y3094D01*
X10289Y3113D01*
X10270Y3127D01*
X10248Y3136D01*
X10238Y3137D01*
D02*
G37*
G36*
X1579Y3139D02*
X1568Y3138D01*
X1547Y3129D01*
X1528Y3115D01*
X1514Y3096D01*
X1505Y3074D01*
X1503Y3064D01*
X1579D01*
Y3139D01*
D02*
G37*
G36*
X4128Y3138D02*
Y3062D01*
X4204D01*
X4202Y3073D01*
X4193Y3095D01*
X4179Y3113D01*
X4161Y3127D01*
X4139Y3136D01*
X4128Y3138D01*
D02*
G37*
G36*
X2993Y3142D02*
X2982Y3141D01*
X2961Y3132D01*
X2942Y3118D01*
X2928Y3099D01*
X2919Y3078D01*
X2918Y3067D01*
X2993D01*
Y3142D01*
D02*
G37*
G36*
X4692Y3233D02*
X4638D01*
Y3172D01*
X4718D01*
Y3207D01*
X4716Y3217D01*
X4711Y3225D01*
X4702Y3231D01*
X4692Y3233D01*
D02*
G37*
G36*
X4612D02*
X4557D01*
X4547Y3231D01*
X4539Y3225D01*
X4533Y3217D01*
X4531Y3207D01*
Y3172D01*
X4612D01*
Y3233D01*
D02*
G37*
G36*
X2168Y3234D02*
X2113D01*
Y3173D01*
X2194D01*
Y3208D01*
X2192Y3218D01*
X2186Y3226D01*
X2178Y3232D01*
X2168Y3234D01*
D02*
G37*
G36*
X2088D02*
X2033D01*
X2023Y3232D01*
X2015Y3226D01*
X2009Y3218D01*
X2007Y3208D01*
Y3173D01*
X2088D01*
Y3234D01*
D02*
G37*
G36*
X10802Y3232D02*
X10747D01*
Y3172D01*
X10828D01*
Y3206D01*
X10826Y3216D01*
X10820Y3225D01*
X10812Y3230D01*
X10802Y3232D01*
D02*
G37*
G36*
X8296Y3220D02*
X8241D01*
X8231Y3218D01*
X8223Y3212D01*
X8217Y3204D01*
X8215Y3194D01*
Y3159D01*
X8296D01*
Y3220D01*
D02*
G37*
G36*
X3018Y3142D02*
Y3067D01*
X3094D01*
X3092Y3078D01*
X3083Y3099D01*
X3069Y3118D01*
X3050Y3132D01*
X3029Y3141D01*
X3018Y3142D01*
D02*
G37*
G36*
X10722Y3232D02*
X10667D01*
X10657Y3230D01*
X10648Y3225D01*
X10643Y3216D01*
X10641Y3206D01*
Y3172D01*
X10722D01*
Y3232D01*
D02*
G37*
G36*
X8376Y3220D02*
X8322D01*
Y3159D01*
X8402D01*
Y3194D01*
X8400Y3204D01*
X8395Y3212D01*
X8386Y3218D01*
X8376Y3220D01*
D02*
G37*
G36*
X7602Y3221D02*
X7456D01*
X7436Y3218D01*
X7418Y3211D01*
X7402Y3199D01*
X7383Y3180D01*
X7381Y3179D01*
X7359Y3170D01*
X7340Y3156D01*
X7326Y3137D01*
X7317Y3116D01*
X7314Y3093D01*
X7317Y3069D01*
X7326Y3048D01*
X7340Y3029D01*
X7359Y3015D01*
X7381Y3006D01*
X7404Y3003D01*
X7427Y3006D01*
X7449Y3015D01*
X7467Y3029D01*
X7481Y3048D01*
X7490Y3069D01*
X7522D01*
X7524Y3056D01*
X7516Y3051D01*
X7510Y3042D01*
X7508Y3032D01*
Y2997D01*
X7695D01*
Y3032D01*
X7693Y3042D01*
X7688Y3051D01*
X7679Y3056D01*
X7669Y3058D01*
X7635D01*
X7630Y3071D01*
X7631Y3071D01*
X7669D01*
X7679Y3073D01*
X7688Y3079D01*
X7693Y3087D01*
X7695Y3097D01*
Y3192D01*
X7693Y3202D01*
X7688Y3211D01*
X7679Y3216D01*
X7669Y3218D01*
X7622D01*
X7621Y3218D01*
X7602Y3221D01*
D02*
G37*
G36*
X3094Y3042D02*
X3018D01*
Y2966D01*
X3029Y2968D01*
X3050Y2977D01*
X3069Y2991D01*
X3083Y3009D01*
X3092Y3031D01*
X3094Y3042D01*
D02*
G37*
G36*
X10027Y3233D02*
X9881D01*
X9862Y3231D01*
X9843Y3223D01*
X9827Y3211D01*
X9808Y3192D01*
X9806Y3192D01*
X9784Y3183D01*
X9766Y3169D01*
X9751Y3150D01*
X9742Y3128D01*
X9739Y3105D01*
X9742Y3082D01*
X9751Y3060D01*
X9766Y3042D01*
X9784Y3028D01*
X9806Y3019D01*
X9829Y3015D01*
X9852Y3019D01*
X9874Y3028D01*
X9892Y3042D01*
X9907Y3060D01*
X9915Y3081D01*
X9948D01*
X9950Y3069D01*
X9941Y3063D01*
X9936Y3055D01*
X9934Y3045D01*
Y3010D01*
X10121D01*
Y3045D01*
X10119Y3055D01*
X10113Y3063D01*
X10105Y3069D01*
X10095Y3071D01*
X10061D01*
X10056Y3083D01*
X10056Y3084D01*
X10095D01*
X10105Y3086D01*
X10113Y3092D01*
X10119Y3100D01*
X10121Y3110D01*
Y3205D01*
X10119Y3215D01*
X10113Y3223D01*
X10105Y3229D01*
X10095Y3231D01*
X10047D01*
X10047Y3231D01*
X10027Y3233D01*
D02*
G37*
G36*
X9016Y3224D02*
X8848D01*
X8828Y3221D01*
X8810Y3214D01*
X8794Y3202D01*
X8779Y3187D01*
X8777Y3187D01*
X8755Y3178D01*
X8737Y3163D01*
X8722Y3145D01*
X8713Y3123D01*
X8710Y3100D01*
X8713Y3077D01*
X8722Y3055D01*
X8737Y3037D01*
X8755Y3022D01*
X8777Y3013D01*
X8800Y3010D01*
X8823Y3013D01*
X8845Y3022D01*
X8863Y3037D01*
X8878Y3055D01*
X8885Y3072D01*
X8936D01*
X8939Y3059D01*
X8930Y3054D01*
X8925Y3045D01*
X8923Y3035D01*
Y3001D01*
X9109D01*
Y3035D01*
X9107Y3045D01*
X9102Y3054D01*
X9093Y3059D01*
X9083Y3061D01*
X9050D01*
X9044Y3074D01*
X9045Y3075D01*
X9083D01*
X9093Y3077D01*
X9102Y3082D01*
X9107Y3091D01*
X9109Y3100D01*
Y3195D01*
X9107Y3205D01*
X9102Y3214D01*
X9093Y3219D01*
X9083Y3221D01*
X9036D01*
X9036Y3221D01*
X9016Y3224D01*
D02*
G37*
G36*
X2993Y3042D02*
X2918D01*
X2919Y3031D01*
X2928Y3009D01*
X2942Y2991D01*
X2961Y2977D01*
X2982Y2968D01*
X2993Y2966D01*
Y3042D01*
D02*
G37*
G36*
X11727Y3040D02*
X11652D01*
Y2965D01*
X11663Y2966D01*
X11684Y2975D01*
X11703Y2989D01*
X11717Y3008D01*
X11726Y3029D01*
X11727Y3040D01*
D02*
G37*
G36*
X11627D02*
X11551D01*
X11553Y3029D01*
X11562Y3008D01*
X11576Y2989D01*
X11595Y2975D01*
X11616Y2966D01*
X11627Y2965D01*
Y3040D01*
D02*
G37*
G36*
X5618Y3040D02*
X5543D01*
Y2965D01*
X5553Y2966D01*
X5575Y2975D01*
X5593Y2990D01*
X5608Y3008D01*
X5617Y3030D01*
X5618Y3040D01*
D02*
G37*
G36*
X5517D02*
X5442D01*
X5443Y3030D01*
X5452Y3008D01*
X5467Y2990D01*
X5485Y2975D01*
X5507Y2966D01*
X5517Y2965D01*
Y3040D01*
D02*
G37*
G36*
X3918Y3234D02*
X3772D01*
X3752Y3231D01*
X3734Y3223D01*
X3718Y3211D01*
X3699Y3192D01*
X3696Y3192D01*
X3675Y3183D01*
X3656Y3169D01*
X3642Y3150D01*
X3633Y3129D01*
X3630Y3105D01*
X3633Y3082D01*
X3642Y3061D01*
X3656Y3042D01*
X3675Y3028D01*
X3696Y3019D01*
X3720Y3016D01*
X3743Y3019D01*
X3764Y3028D01*
X3783Y3042D01*
X3797Y3061D01*
X3806Y3082D01*
X3838D01*
X3840Y3069D01*
X3832Y3063D01*
X3826Y3055D01*
X3824Y3045D01*
Y3010D01*
X4011D01*
Y3045D01*
X4009Y3055D01*
X4004Y3063D01*
X3995Y3069D01*
X3985Y3071D01*
X3951D01*
X3946Y3084D01*
X3947Y3084D01*
X3985D01*
X3995Y3086D01*
X4004Y3092D01*
X4009Y3100D01*
X4011Y3110D01*
Y3205D01*
X4009Y3215D01*
X4004Y3223D01*
X3995Y3229D01*
X3985Y3231D01*
X3938D01*
X3937Y3231D01*
X3918Y3234D01*
D02*
G37*
G36*
X9201Y3128D02*
X9191Y3127D01*
X9169Y3118D01*
X9151Y3104D01*
X9136Y3085D01*
X9127Y3063D01*
X9126Y3053D01*
X9201D01*
Y3128D01*
D02*
G37*
G36*
X7813Y3125D02*
Y3050D01*
X7888D01*
X7886Y3060D01*
X7877Y3082D01*
X7863Y3100D01*
X7845Y3115D01*
X7823Y3124D01*
X7813Y3125D01*
D02*
G37*
G36*
X10212Y3137D02*
X10202Y3136D01*
X10180Y3127D01*
X10162Y3113D01*
X10148Y3094D01*
X10139Y3073D01*
X10137Y3062D01*
X10212D01*
Y3137D01*
D02*
G37*
G36*
X9227Y3128D02*
Y3053D01*
X9302D01*
X9301Y3063D01*
X9292Y3085D01*
X9277Y3104D01*
X9259Y3118D01*
X9237Y3127D01*
X9227Y3128D01*
D02*
G37*
G36*
X7787Y3125D02*
X7777Y3124D01*
X7755Y3115D01*
X7736Y3100D01*
X7722Y3082D01*
X7713Y3060D01*
X7712Y3050D01*
X7787D01*
Y3125D01*
D02*
G37*
G36*
X11441Y3237D02*
X11295D01*
X11276Y3234D01*
X11257Y3226D01*
X11242Y3214D01*
X11223Y3195D01*
X11220Y3195D01*
X11198Y3186D01*
X11180Y3172D01*
X11166Y3153D01*
X11157Y3132D01*
X11154Y3108D01*
X11157Y3085D01*
X11166Y3064D01*
X11180Y3045D01*
X11198Y3031D01*
X11220Y3022D01*
X11243Y3019D01*
X11266Y3022D01*
X11288Y3031D01*
X11307Y3045D01*
X11321Y3064D01*
X11330Y3084D01*
X11362D01*
X11364Y3072D01*
X11356Y3066D01*
X11350Y3058D01*
X11348Y3048D01*
Y3013D01*
X11535D01*
Y3048D01*
X11533Y3058D01*
X11527Y3066D01*
X11519Y3072D01*
X11509Y3074D01*
X11475D01*
X11470Y3087D01*
X11470Y3087D01*
X11509D01*
X11519Y3089D01*
X11527Y3095D01*
X11533Y3103D01*
X11535Y3113D01*
Y3208D01*
X11533Y3218D01*
X11527Y3226D01*
X11519Y3232D01*
X11509Y3234D01*
X11461D01*
X11461Y3234D01*
X11441Y3237D01*
D02*
G37*
G36*
X1393Y3235D02*
X1247D01*
X1228Y3232D01*
X1209Y3225D01*
X1194Y3213D01*
X1175Y3194D01*
X1172Y3193D01*
X1150Y3184D01*
X1132Y3170D01*
X1118Y3152D01*
X1109Y3130D01*
X1106Y3107D01*
X1109Y3084D01*
X1118Y3062D01*
X1132Y3043D01*
X1150Y3029D01*
X1172Y3020D01*
X1195Y3017D01*
X1218Y3020D01*
X1240Y3029D01*
X1259Y3043D01*
X1273Y3062D01*
X1282Y3083D01*
X1314D01*
X1316Y3070D01*
X1308Y3065D01*
X1302Y3056D01*
X1300Y3046D01*
Y3012D01*
X1487D01*
Y3046D01*
X1485Y3056D01*
X1479Y3065D01*
X1471Y3070D01*
X1461Y3072D01*
X1427D01*
X1422Y3085D01*
X1422Y3086D01*
X1461D01*
X1471Y3088D01*
X1479Y3093D01*
X1485Y3102D01*
X1487Y3111D01*
Y3206D01*
X1485Y3216D01*
X1479Y3225D01*
X1471Y3230D01*
X1461Y3232D01*
X1413D01*
X1413Y3232D01*
X1393Y3235D01*
D02*
G37*
G36*
X2808Y3238D02*
X2662D01*
X2642Y3236D01*
X2624Y3228D01*
X2608Y3216D01*
X2589Y3197D01*
X2586Y3197D01*
X2565Y3188D01*
X2546Y3173D01*
X2532Y3155D01*
X2523Y3133D01*
X2520Y3110D01*
X2523Y3087D01*
X2532Y3065D01*
X2546Y3047D01*
X2565Y3032D01*
X2586Y3023D01*
X2609Y3020D01*
X2633Y3023D01*
X2654Y3032D01*
X2673Y3047D01*
X2687Y3065D01*
X2696Y3086D01*
X2728D01*
X2730Y3074D01*
X2722Y3068D01*
X2716Y3060D01*
X2714Y3050D01*
Y3015D01*
X2901D01*
Y3050D01*
X2899Y3060D01*
X2893Y3068D01*
X2885Y3074D01*
X2875Y3076D01*
X2841D01*
X2836Y3088D01*
X2837Y3089D01*
X2875D01*
X2885Y3091D01*
X2893Y3096D01*
X2899Y3105D01*
X2901Y3115D01*
Y3210D01*
X2899Y3220D01*
X2893Y3228D01*
X2885Y3234D01*
X2875Y3236D01*
X2827D01*
X2827Y3236D01*
X2808Y3238D01*
D02*
G37*
G36*
X5332Y3237D02*
X5186D01*
X5166Y3234D01*
X5148Y3227D01*
X5132Y3215D01*
X5113Y3196D01*
X5111Y3195D01*
X5089Y3186D01*
X5070Y3172D01*
X5056Y3153D01*
X5047Y3132D01*
X5044Y3109D01*
X5047Y3085D01*
X5056Y3064D01*
X5070Y3045D01*
X5089Y3031D01*
X5111Y3022D01*
X5134Y3019D01*
X5157Y3022D01*
X5179Y3031D01*
X5197Y3045D01*
X5212Y3064D01*
X5220Y3085D01*
X5252D01*
X5255Y3072D01*
X5246Y3067D01*
X5240Y3058D01*
X5239Y3048D01*
Y3014D01*
X5425D01*
Y3048D01*
X5423Y3058D01*
X5418Y3067D01*
X5409Y3072D01*
X5399Y3074D01*
X5366D01*
X5360Y3087D01*
X5361Y3087D01*
X5399D01*
X5409Y3089D01*
X5418Y3095D01*
X5423Y3103D01*
X5425Y3113D01*
Y3208D01*
X5423Y3218D01*
X5418Y3227D01*
X5409Y3232D01*
X5399Y3234D01*
X5352D01*
X5352Y3234D01*
X5332Y3237D01*
D02*
G37*
G36*
X11147Y2602D02*
X11137Y2601D01*
X11115Y2592D01*
X11096Y2578D01*
X11082Y2559D01*
X11073Y2537D01*
X11072Y2527D01*
X11147D01*
Y2602D01*
D02*
G37*
G36*
X7506Y2378D02*
X7425D01*
Y2343D01*
X7427Y2333D01*
X7432Y2325D01*
X7441Y2319D01*
X7451Y2317D01*
X7506D01*
Y2378D01*
D02*
G37*
G36*
X2001Y2046D02*
X1946D01*
Y1985D01*
X2027D01*
Y2020D01*
X2025Y2030D01*
X2019Y2038D01*
X2011Y2044D01*
X2001Y2046D01*
D02*
G37*
G36*
X9026Y2541D02*
X8932D01*
X8839D01*
Y2506D01*
X8841Y2496D01*
X8847Y2488D01*
X8855Y2482D01*
X8865Y2480D01*
X8899D01*
X8904Y2468D01*
X8903Y2467D01*
X8865D01*
X8855Y2465D01*
X8847Y2460D01*
X8841Y2451D01*
X8839Y2441D01*
Y2346D01*
X8841Y2336D01*
X8847Y2328D01*
X8855Y2322D01*
X8865Y2320D01*
X8913D01*
X8913Y2320D01*
X8932Y2318D01*
X9078D01*
X9098Y2320D01*
X9116Y2328D01*
X9132Y2340D01*
X9151Y2359D01*
X9154Y2359D01*
X9175Y2368D01*
X9194Y2383D01*
X9208Y2401D01*
X9217Y2423D01*
X9220Y2446D01*
X9217Y2469D01*
X9208Y2491D01*
X9194Y2509D01*
X9175Y2524D01*
X9154Y2533D01*
X9131Y2536D01*
X9107Y2533D01*
X9086Y2524D01*
X9067Y2509D01*
X9053Y2491D01*
X9044Y2470D01*
X9012D01*
X9010Y2482D01*
X9018Y2488D01*
X9024Y2496D01*
X9026Y2506D01*
Y2541D01*
D02*
G37*
G36*
X7612Y2378D02*
X7531D01*
Y2317D01*
X7586D01*
X7596Y2319D01*
X7604Y2325D01*
X7610Y2333D01*
X7612Y2343D01*
Y2378D01*
D02*
G37*
G36*
X1921Y2046D02*
X1866D01*
X1856Y2044D01*
X1848Y2038D01*
X1842Y2030D01*
X1840Y2020D01*
Y1985D01*
X1921D01*
Y2046D01*
D02*
G37*
G36*
X10635Y2044D02*
X10580D01*
Y1983D01*
X10661D01*
Y2018D01*
X10659Y2028D01*
X10653Y2036D01*
X10645Y2042D01*
X10635Y2044D01*
D02*
G37*
G36*
X10555D02*
X10500D01*
X10490Y2042D01*
X10481Y2036D01*
X10476Y2028D01*
X10474Y2018D01*
Y1983D01*
X10555D01*
Y2044D01*
D02*
G37*
G36*
X4525Y2044D02*
X4471D01*
Y1984D01*
X4551D01*
Y2018D01*
X4549Y2028D01*
X4544Y2037D01*
X4535Y2042D01*
X4525Y2044D01*
D02*
G37*
G36*
X4445D02*
X4390D01*
X4380Y2042D01*
X4372Y2037D01*
X4366Y2028D01*
X4364Y2018D01*
Y1984D01*
X4445D01*
Y2044D01*
D02*
G37*
G36*
X5855Y2698D02*
X5715D01*
X5705Y2696D01*
X5697Y2690D01*
X5691Y2682D01*
X5689Y2672D01*
Y2567D01*
X5691Y2557D01*
X5697Y2548D01*
X5705Y2543D01*
X5709Y2542D01*
Y2465D01*
X5708Y2463D01*
X5699Y2441D01*
X5696Y2418D01*
X5699Y2395D01*
X5708Y2373D01*
X5722Y2354D01*
X5740Y2340D01*
X5762Y2331D01*
X5785Y2328D01*
X5809Y2331D01*
X5830Y2340D01*
X5849Y2354D01*
X5863Y2373D01*
X5872Y2395D01*
X5875Y2418D01*
X5872Y2441D01*
X5863Y2463D01*
X5861Y2465D01*
Y2542D01*
X5865Y2543D01*
X5874Y2548D01*
X5879Y2557D01*
X5881Y2567D01*
Y2672D01*
X5879Y2682D01*
X5874Y2690D01*
X5865Y2696D01*
X5855Y2698D01*
D02*
G37*
G36*
X1403Y2392D02*
X1323D01*
Y2331D01*
X1377D01*
X1387Y2333D01*
X1396Y2339D01*
X1401Y2347D01*
X1403Y2357D01*
Y2392D01*
D02*
G37*
G36*
X1297D02*
X1216D01*
Y2357D01*
X1218Y2347D01*
X1224Y2339D01*
X1232Y2333D01*
X1242Y2331D01*
X1297D01*
Y2392D01*
D02*
G37*
G36*
X5342Y2394D02*
X5261D01*
Y2333D01*
X5316D01*
X5326Y2335D01*
X5334Y2341D01*
X5340Y2349D01*
X5342Y2359D01*
Y2394D01*
D02*
G37*
G36*
X5236D02*
X5155D01*
Y2359D01*
X5157Y2349D01*
X5163Y2341D01*
X5171Y2335D01*
X5181Y2333D01*
X5236D01*
Y2394D01*
D02*
G37*
G36*
X11451Y2554D02*
X11358D01*
X11264D01*
Y2519D01*
X11266Y2509D01*
X11272Y2501D01*
X11280Y2495D01*
X11290Y2493D01*
X11324D01*
X11329Y2480D01*
X11329Y2480D01*
X11290D01*
X11280Y2478D01*
X11272Y2472D01*
X11266Y2464D01*
X11264Y2454D01*
Y2359D01*
X11266Y2349D01*
X11272Y2341D01*
X11280Y2335D01*
X11290Y2333D01*
X11338D01*
X11338Y2333D01*
X11358Y2330D01*
X11504D01*
X11523Y2333D01*
X11542Y2341D01*
X11558Y2353D01*
X11576Y2372D01*
X11579Y2372D01*
X11601Y2381D01*
X11619Y2395D01*
X11634Y2414D01*
X11643Y2435D01*
X11646Y2459D01*
X11643Y2482D01*
X11634Y2503D01*
X11619Y2522D01*
X11601Y2536D01*
X11579Y2545D01*
X11556Y2548D01*
X11533Y2545D01*
X11511Y2536D01*
X11492Y2522D01*
X11478Y2503D01*
X11470Y2482D01*
X11437D01*
X11435Y2495D01*
X11444Y2501D01*
X11449Y2509D01*
X11451Y2519D01*
Y2554D01*
D02*
G37*
G36*
X10037Y2390D02*
X9956D01*
Y2330D01*
X10011D01*
X10021Y2332D01*
X10029Y2337D01*
X10035Y2346D01*
X10037Y2356D01*
Y2390D01*
D02*
G37*
G36*
X9931D02*
X9850D01*
Y2356D01*
X9852Y2346D01*
X9858Y2337D01*
X9866Y2332D01*
X9876Y2330D01*
X9931D01*
Y2390D01*
D02*
G37*
G36*
X3928Y2391D02*
X3847D01*
Y2330D01*
X3902D01*
X3912Y2332D01*
X3920Y2338D01*
X3926Y2346D01*
X3928Y2356D01*
Y2391D01*
D02*
G37*
G36*
X3822D02*
X3741D01*
Y2356D01*
X3743Y2346D01*
X3748Y2338D01*
X3757Y2332D01*
X3767Y2330D01*
X3822D01*
Y2391D01*
D02*
G37*
G36*
X3751Y2045D02*
X3605D01*
X3585Y2043D01*
X3574Y2038D01*
X3567Y2035D01*
X3551Y2023D01*
X3532Y2004D01*
X3529Y2004D01*
X3508Y1995D01*
X3489Y1981D01*
X3475Y1962D01*
X3466Y1940D01*
X3463Y1917D01*
X3466Y1894D01*
X3475Y1872D01*
X3489Y1854D01*
X3508Y1839D01*
X3529Y1830D01*
X3553Y1827D01*
X3576Y1830D01*
X3597Y1839D01*
X3616Y1854D01*
X3630Y1872D01*
X3639Y1893D01*
X3671D01*
X3673Y1881D01*
X3665Y1875D01*
X3659Y1867D01*
X3657Y1857D01*
Y1822D01*
X3844D01*
Y1857D01*
X3842Y1867D01*
X3837Y1875D01*
X3828Y1881D01*
X3818Y1883D01*
X3784D01*
X3779Y1895D01*
X3780Y1896D01*
X3818D01*
X3828Y1898D01*
X3837Y1903D01*
X3842Y1912D01*
X3844Y1922D01*
Y2017D01*
X3842Y2027D01*
X3837Y2035D01*
X3828Y2041D01*
X3818Y2043D01*
X3771D01*
X3770Y2043D01*
X3751Y2045D01*
D02*
G37*
G36*
X9860Y2045D02*
X9714D01*
X9695Y2042D01*
X9676Y2035D01*
X9660Y2023D01*
X9641Y2004D01*
X9639Y2003D01*
X9617Y1994D01*
X9599Y1980D01*
X9584Y1962D01*
X9575Y1940D01*
X9572Y1917D01*
X9575Y1894D01*
X9584Y1872D01*
X9599Y1853D01*
X9617Y1839D01*
X9639Y1830D01*
X9662Y1827D01*
X9685Y1830D01*
X9707Y1839D01*
X9725Y1853D01*
X9740Y1872D01*
X9748Y1893D01*
X9781D01*
X9783Y1880D01*
X9774Y1875D01*
X9769Y1866D01*
X9767Y1857D01*
Y1822D01*
X9954D01*
Y1857D01*
X9952Y1866D01*
X9946Y1875D01*
X9938Y1880D01*
X9928Y1882D01*
X9894D01*
X9889Y1895D01*
X9889Y1896D01*
X9928D01*
X9938Y1898D01*
X9946Y1903D01*
X9952Y1912D01*
X9954Y1922D01*
Y2017D01*
X9952Y2026D01*
X9946Y2035D01*
X9938Y2040D01*
X9928Y2042D01*
X9880D01*
X9880Y2042D01*
X9860Y2045D01*
D02*
G37*
G36*
X2641Y2050D02*
X2495D01*
X2475Y2047D01*
X2457Y2040D01*
X2441Y2028D01*
X2422Y2009D01*
X2419Y2008D01*
X2398Y1999D01*
X2379Y1985D01*
X2365Y1966D01*
X2356Y1945D01*
X2353Y1922D01*
X2356Y1898D01*
X2365Y1877D01*
X2379Y1858D01*
X2398Y1844D01*
X2419Y1835D01*
X2442Y1832D01*
X2466Y1835D01*
X2487Y1844D01*
X2506Y1858D01*
X2520Y1877D01*
X2529Y1898D01*
X2561D01*
X2563Y1885D01*
X2555Y1880D01*
X2549Y1871D01*
X2547Y1861D01*
Y1827D01*
X2734D01*
Y1861D01*
X2732Y1871D01*
X2726Y1880D01*
X2718Y1885D01*
X2708Y1887D01*
X2674D01*
X2669Y1900D01*
X2670Y1900D01*
X2708D01*
X2718Y1902D01*
X2726Y1908D01*
X2732Y1916D01*
X2734Y1926D01*
Y2021D01*
X2732Y2031D01*
X2726Y2040D01*
X2718Y2045D01*
X2708Y2047D01*
X2660D01*
X2660Y2047D01*
X2641Y2050D01*
D02*
G37*
G36*
X5165Y2049D02*
X5019D01*
X4999Y2046D01*
X4981Y2038D01*
X4965Y2026D01*
X4946Y2007D01*
X4944Y2007D01*
X4922Y1998D01*
X4903Y1984D01*
X4889Y1965D01*
X4880Y1944D01*
X4877Y1920D01*
X4880Y1897D01*
X4889Y1875D01*
X4903Y1857D01*
X4922Y1843D01*
X4944Y1834D01*
X4967Y1831D01*
X4990Y1834D01*
X5012Y1843D01*
X5030Y1857D01*
X5045Y1875D01*
X5053Y1896D01*
X5085D01*
X5088Y1884D01*
X5079Y1878D01*
X5073Y1870D01*
X5072Y1860D01*
Y1825D01*
X5258D01*
Y1860D01*
X5256Y1870D01*
X5251Y1878D01*
X5242Y1884D01*
X5232Y1886D01*
X5199D01*
X5193Y1899D01*
X5194Y1899D01*
X5232D01*
X5242Y1901D01*
X5251Y1907D01*
X5256Y1915D01*
X5258Y1925D01*
Y2020D01*
X5256Y2030D01*
X5251Y2038D01*
X5242Y2044D01*
X5232Y2046D01*
X5185D01*
X5185Y2046D01*
X5165Y2049D01*
D02*
G37*
G36*
X8849Y2036D02*
X8703D01*
X8683Y2033D01*
X8665Y2025D01*
X8649Y2013D01*
X8630Y1994D01*
X8628Y1994D01*
X8606Y1985D01*
X8588Y1971D01*
X8573Y1952D01*
X8564Y1931D01*
X8561Y1907D01*
X8564Y1884D01*
X8573Y1863D01*
X8588Y1844D01*
X8606Y1830D01*
X8628Y1821D01*
X8651Y1818D01*
X8674Y1821D01*
X8696Y1830D01*
X8714Y1844D01*
X8729Y1863D01*
X8737Y1884D01*
X8769D01*
X8772Y1871D01*
X8763Y1865D01*
X8758Y1857D01*
X8756Y1847D01*
Y1812D01*
X8942D01*
Y1847D01*
X8940Y1857D01*
X8935Y1865D01*
X8926Y1871D01*
X8916Y1873D01*
X8883D01*
X8877Y1886D01*
X8878Y1886D01*
X8916D01*
X8926Y1888D01*
X8935Y1894D01*
X8940Y1902D01*
X8942Y1912D01*
Y2007D01*
X8940Y2017D01*
X8935Y2025D01*
X8926Y2031D01*
X8916Y2033D01*
X8869D01*
X8869Y2033D01*
X8849Y2036D01*
D02*
G37*
G36*
X1412Y1850D02*
X1336D01*
X1338Y1840D01*
X1347Y1818D01*
X1361Y1799D01*
X1380Y1785D01*
X1401Y1776D01*
X1412Y1775D01*
Y1850D01*
D02*
G37*
G36*
X4037Y1849D02*
X3961D01*
Y1773D01*
X3972Y1775D01*
X3994Y1784D01*
X4012Y1798D01*
X4026Y1817D01*
X4035Y1838D01*
X4037Y1849D01*
D02*
G37*
G36*
X7435Y2032D02*
X7289D01*
X7269Y2030D01*
X7251Y2022D01*
X7235Y2010D01*
X7216Y1991D01*
X7214Y1991D01*
X7192Y1982D01*
X7173Y1968D01*
X7159Y1949D01*
X7150Y1927D01*
X7147Y1904D01*
X7150Y1881D01*
X7159Y1859D01*
X7173Y1841D01*
X7192Y1827D01*
X7214Y1818D01*
X7237Y1815D01*
X7260Y1818D01*
X7282Y1827D01*
X7300Y1841D01*
X7314Y1859D01*
X7323Y1880D01*
X7355D01*
X7357Y1868D01*
X7349Y1862D01*
X7343Y1854D01*
X7341Y1844D01*
Y1809D01*
X7528D01*
Y1844D01*
X7526Y1854D01*
X7521Y1862D01*
X7512Y1868D01*
X7502Y1870D01*
X7468D01*
X7463Y1883D01*
X7464Y1883D01*
X7502D01*
X7512Y1885D01*
X7521Y1891D01*
X7526Y1899D01*
X7528Y1909D01*
Y2004D01*
X7526Y2014D01*
X7521Y2022D01*
X7512Y2028D01*
X7502Y2030D01*
X7455D01*
X7454Y2030D01*
X7435Y2032D01*
D02*
G37*
G36*
X1512Y1850D02*
X1437D01*
Y1775D01*
X1448Y1776D01*
X1469Y1785D01*
X1488Y1799D01*
X1502Y1818D01*
X1511Y1840D01*
X1512Y1850D01*
D02*
G37*
G36*
X7620Y1937D02*
X7610Y1935D01*
X7588Y1926D01*
X7569Y1912D01*
X7555Y1893D01*
X7546Y1872D01*
X7545Y1861D01*
X7620D01*
Y1937D01*
D02*
G37*
G36*
X1437Y1951D02*
Y1875D01*
X1512D01*
X1511Y1886D01*
X1502Y1908D01*
X1488Y1926D01*
X1469Y1940D01*
X1448Y1949D01*
X1437Y1951D01*
D02*
G37*
G36*
X1412D02*
X1401Y1949D01*
X1380Y1940D01*
X1361Y1926D01*
X1347Y1908D01*
X1338Y1886D01*
X1336Y1875D01*
X1412D01*
Y1951D01*
D02*
G37*
G36*
X8209Y2031D02*
X8155D01*
Y1971D01*
X8235D01*
Y2006D01*
X8233Y2015D01*
X8228Y2024D01*
X8219Y2029D01*
X8209Y2031D01*
D02*
G37*
G36*
X8129D02*
X8074D01*
X8064Y2029D01*
X8056Y2024D01*
X8050Y2015D01*
X8048Y2006D01*
Y1971D01*
X8129D01*
Y2031D01*
D02*
G37*
G36*
X3961Y1949D02*
Y1874D01*
X4037D01*
X4035Y1885D01*
X4026Y1906D01*
X4012Y1925D01*
X3994Y1939D01*
X3972Y1948D01*
X3961Y1949D01*
D02*
G37*
G36*
X10045Y1949D02*
X10035Y1948D01*
X10013Y1939D01*
X9995Y1925D01*
X9981Y1906D01*
X9972Y1884D01*
X9970Y1874D01*
X10045D01*
Y1949D01*
D02*
G37*
G36*
X7646Y1937D02*
Y1861D01*
X7721D01*
X7719Y1872D01*
X7710Y1893D01*
X7696Y1912D01*
X7678Y1926D01*
X7656Y1935D01*
X7646Y1937D01*
D02*
G37*
G36*
X3936Y1949D02*
X3926Y1948D01*
X3904Y1939D01*
X3885Y1925D01*
X3871Y1906D01*
X3862Y1885D01*
X3861Y1874D01*
X3936D01*
Y1949D01*
D02*
G37*
G36*
X10071Y1949D02*
Y1874D01*
X10146D01*
X10145Y1884D01*
X10136Y1906D01*
X10122Y1925D01*
X10103Y1939D01*
X10081Y1948D01*
X10071Y1949D01*
D02*
G37*
G36*
X2711Y2395D02*
X2631D01*
Y2360D01*
X2633Y2351D01*
X2638Y2342D01*
X2647Y2337D01*
X2657Y2335D01*
X2711D01*
Y2395D01*
D02*
G37*
G36*
X2614Y2503D02*
X2539D01*
Y2428D01*
X2549Y2429D01*
X2571Y2438D01*
X2589Y2452D01*
X2604Y2471D01*
X2613Y2493D01*
X2614Y2503D01*
D02*
G37*
G36*
X2513D02*
X2438D01*
X2439Y2493D01*
X2448Y2471D01*
X2463Y2452D01*
X2481Y2438D01*
X2503Y2429D01*
X2513Y2428D01*
Y2503D01*
D02*
G37*
G36*
X7704Y2531D02*
X7693Y2529D01*
X7671Y2520D01*
X7653Y2506D01*
X7639Y2488D01*
X7630Y2466D01*
X7628Y2455D01*
X7704D01*
Y2531D01*
D02*
G37*
G36*
X6352Y2669D02*
X6243D01*
X6224Y2666D01*
X6205Y2658D01*
X6189Y2646D01*
X6140Y2597D01*
X6137Y2597D01*
X6116Y2588D01*
X6097Y2573D01*
X6083Y2555D01*
X6074Y2533D01*
X6071Y2510D01*
X6074Y2487D01*
X6083Y2465D01*
X6097Y2447D01*
X6116Y2432D01*
X6137Y2423D01*
X6161Y2420D01*
X6184Y2423D01*
X6205Y2432D01*
X6224Y2447D01*
X6238Y2465D01*
X6246Y2484D01*
X6258Y2480D01*
X6258Y2480D01*
Y2445D01*
X6445D01*
Y2480D01*
X6443Y2490D01*
X6437Y2498D01*
X6429Y2504D01*
X6419Y2506D01*
X6385D01*
X6380Y2519D01*
X6381Y2519D01*
X6419D01*
X6429Y2521D01*
X6437Y2527D01*
X6443Y2535D01*
X6445Y2545D01*
Y2640D01*
X6443Y2650D01*
X6437Y2658D01*
X6429Y2664D01*
X6419Y2666D01*
X6371D01*
X6371Y2666D01*
X6352Y2669D01*
D02*
G37*
G36*
X5138Y2502D02*
X5063D01*
Y2426D01*
X5074Y2428D01*
X5095Y2437D01*
X5114Y2451D01*
X5128Y2470D01*
X5137Y2491D01*
X5138Y2502D01*
D02*
G37*
G36*
X11147Y2502D02*
X11072D01*
X11073Y2491D01*
X11082Y2469D01*
X11096Y2451D01*
X11115Y2437D01*
X11137Y2428D01*
X11147Y2426D01*
Y2502D01*
D02*
G37*
G36*
X1310Y2641D02*
X1164D01*
X1144Y2638D01*
X1126Y2631D01*
X1110Y2619D01*
X1091Y2600D01*
X1089Y2599D01*
X1067Y2590D01*
X1048Y2576D01*
X1034Y2557D01*
X1025Y2536D01*
X1022Y2513D01*
X1025Y2489D01*
X1034Y2468D01*
X1048Y2449D01*
X1067Y2435D01*
X1089Y2426D01*
X1112Y2423D01*
X1135Y2426D01*
X1157Y2435D01*
X1175Y2449D01*
X1189Y2468D01*
X1198Y2489D01*
X1230D01*
X1232Y2476D01*
X1224Y2471D01*
X1218Y2462D01*
X1216Y2452D01*
Y2417D01*
X1403D01*
Y2452D01*
X1401Y2462D01*
X1396Y2471D01*
X1387Y2476D01*
X1377Y2478D01*
X1343D01*
X1338Y2491D01*
X1339Y2491D01*
X1377D01*
X1387Y2493D01*
X1396Y2499D01*
X1401Y2507D01*
X1403Y2517D01*
Y2612D01*
X1401Y2622D01*
X1396Y2631D01*
X1387Y2636D01*
X1377Y2638D01*
X1330D01*
X1330Y2638D01*
X1310Y2641D01*
D02*
G37*
G36*
X5038Y2502D02*
X4962D01*
X4964Y2491D01*
X4973Y2470D01*
X4987Y2451D01*
X5006Y2437D01*
X5027Y2428D01*
X5038Y2426D01*
Y2502D01*
D02*
G37*
G36*
X11248Y2502D02*
X11172D01*
Y2426D01*
X11183Y2428D01*
X11205Y2437D01*
X11223Y2451D01*
X11237Y2469D01*
X11246Y2491D01*
X11248Y2502D01*
D02*
G37*
G36*
X7729Y2531D02*
Y2455D01*
X7804D01*
X7803Y2466D01*
X7794Y2488D01*
X7780Y2506D01*
X7761Y2520D01*
X7740Y2529D01*
X7729Y2531D01*
D02*
G37*
G36*
X1521Y2545D02*
Y2470D01*
X1596D01*
X1594Y2480D01*
X1586Y2502D01*
X1571Y2520D01*
X1553Y2535D01*
X1531Y2544D01*
X1521Y2545D01*
D02*
G37*
G36*
X1495D02*
X1485Y2544D01*
X1463Y2535D01*
X1444Y2520D01*
X1430Y2502D01*
X1421Y2480D01*
X1420Y2470D01*
X1495D01*
Y2545D01*
D02*
G37*
G36*
X8747Y2590D02*
Y2514D01*
X8822D01*
X8821Y2525D01*
X8812Y2546D01*
X8798Y2565D01*
X8779Y2579D01*
X8758Y2588D01*
X8747Y2590D01*
D02*
G37*
G36*
X8722D02*
X8711Y2588D01*
X8690Y2579D01*
X8671Y2565D01*
X8657Y2546D01*
X8648Y2525D01*
X8646Y2514D01*
X8722D01*
Y2590D01*
D02*
G37*
G36*
X4045Y2544D02*
Y2468D01*
X4120D01*
X4119Y2479D01*
X4110Y2500D01*
X4096Y2519D01*
X4077Y2533D01*
X4055Y2542D01*
X4045Y2544D01*
D02*
G37*
G36*
X10129Y2543D02*
X10118Y2542D01*
X10097Y2533D01*
X10078Y2519D01*
X10064Y2500D01*
X10055Y2479D01*
X10054Y2468D01*
X10129D01*
Y2543D01*
D02*
G37*
G36*
X6544Y2542D02*
X6533Y2541D01*
X6512Y2532D01*
X6493Y2518D01*
X6479Y2499D01*
X6470Y2477D01*
X6469Y2467D01*
X6544D01*
Y2542D01*
D02*
G37*
G36*
X4020Y2544D02*
X4009Y2542D01*
X3987Y2533D01*
X3969Y2519D01*
X3955Y2500D01*
X3946Y2479D01*
X3944Y2468D01*
X4020D01*
Y2544D01*
D02*
G37*
G36*
X10154Y2543D02*
Y2468D01*
X10230D01*
X10228Y2479D01*
X10219Y2500D01*
X10205Y2519D01*
X10187Y2533D01*
X10165Y2542D01*
X10154Y2543D01*
D02*
G37*
G36*
X10129Y2443D02*
X10054D01*
X10055Y2432D01*
X10064Y2410D01*
X10078Y2392D01*
X10097Y2378D01*
X10118Y2369D01*
X10129Y2367D01*
Y2443D01*
D02*
G37*
G36*
X6544Y2442D02*
X6469D01*
X6470Y2431D01*
X6479Y2409D01*
X6493Y2391D01*
X6512Y2377D01*
X6533Y2368D01*
X6544Y2366D01*
Y2442D01*
D02*
G37*
G36*
X4020Y2443D02*
X3944D01*
X3946Y2432D01*
X3955Y2411D01*
X3969Y2392D01*
X3987Y2378D01*
X4009Y2369D01*
X4020Y2368D01*
Y2443D01*
D02*
G37*
G36*
X10230Y2443D02*
X10154D01*
Y2367D01*
X10165Y2369D01*
X10187Y2378D01*
X10205Y2392D01*
X10219Y2410D01*
X10228Y2432D01*
X10230Y2443D01*
D02*
G37*
G36*
X6445Y2420D02*
X6364D01*
Y2359D01*
X6419D01*
X6429Y2361D01*
X6437Y2367D01*
X6443Y2375D01*
X6445Y2385D01*
Y2420D01*
D02*
G37*
G36*
X7704Y2430D02*
X7628D01*
X7630Y2420D01*
X7639Y2398D01*
X7653Y2379D01*
X7671Y2365D01*
X7693Y2356D01*
X7704Y2355D01*
Y2430D01*
D02*
G37*
G36*
X2817Y2395D02*
X2737D01*
Y2335D01*
X2792D01*
X2801Y2337D01*
X2810Y2342D01*
X2815Y2351D01*
X2817Y2360D01*
Y2395D01*
D02*
G37*
G36*
X6339Y2420D02*
X6258D01*
Y2385D01*
X6260Y2375D01*
X6266Y2367D01*
X6274Y2361D01*
X6284Y2359D01*
X6339D01*
Y2420D01*
D02*
G37*
G36*
X7804Y2430D02*
X7729D01*
Y2355D01*
X7740Y2356D01*
X7761Y2365D01*
X7780Y2379D01*
X7794Y2398D01*
X7803Y2420D01*
X7804Y2430D01*
D02*
G37*
G36*
X4120Y2443D02*
X4045D01*
Y2368D01*
X4055Y2369D01*
X4077Y2378D01*
X4096Y2392D01*
X4110Y2411D01*
X4119Y2432D01*
X4120Y2443D01*
D02*
G37*
G36*
X8722Y2489D02*
X8646D01*
X8648Y2478D01*
X8657Y2457D01*
X8671Y2438D01*
X8690Y2424D01*
X8711Y2415D01*
X8722Y2414D01*
Y2489D01*
D02*
G37*
G36*
X7518Y2627D02*
X7372D01*
X7353Y2624D01*
X7334Y2616D01*
X7319Y2604D01*
X7300Y2585D01*
X7297Y2585D01*
X7275Y2576D01*
X7257Y2562D01*
X7243Y2543D01*
X7234Y2522D01*
X7231Y2498D01*
X7234Y2475D01*
X7243Y2454D01*
X7257Y2435D01*
X7275Y2421D01*
X7297Y2412D01*
X7320Y2409D01*
X7343Y2412D01*
X7365Y2421D01*
X7384Y2435D01*
X7398Y2454D01*
X7407Y2475D01*
X7439D01*
X7441Y2462D01*
X7432Y2456D01*
X7427Y2448D01*
X7425Y2438D01*
Y2403D01*
X7612D01*
Y2438D01*
X7610Y2448D01*
X7604Y2456D01*
X7596Y2462D01*
X7586Y2464D01*
X7552D01*
X7547Y2477D01*
X7547Y2477D01*
X7586D01*
X7596Y2479D01*
X7604Y2485D01*
X7610Y2493D01*
X7612Y2503D01*
Y2598D01*
X7610Y2608D01*
X7604Y2616D01*
X7596Y2622D01*
X7586Y2624D01*
X7538D01*
X7538Y2624D01*
X7518Y2627D01*
D02*
G37*
G36*
X3834Y2639D02*
X3688D01*
X3669Y2637D01*
X3650Y2629D01*
X3635Y2617D01*
X3616Y2598D01*
X3613Y2598D01*
X3591Y2589D01*
X3573Y2575D01*
X3559Y2556D01*
X3550Y2534D01*
X3546Y2511D01*
X3550Y2488D01*
X3559Y2466D01*
X3573Y2448D01*
X3591Y2434D01*
X3613Y2425D01*
X3636Y2422D01*
X3659Y2425D01*
X3681Y2434D01*
X3700Y2448D01*
X3714Y2466D01*
X3722Y2487D01*
X3755D01*
X3757Y2475D01*
X3748Y2469D01*
X3743Y2461D01*
X3741Y2451D01*
Y2416D01*
X3928D01*
Y2451D01*
X3926Y2461D01*
X3920Y2469D01*
X3912Y2475D01*
X3902Y2477D01*
X3868D01*
X3863Y2490D01*
X3863Y2490D01*
X3902D01*
X3912Y2492D01*
X3920Y2498D01*
X3926Y2506D01*
X3928Y2516D01*
Y2611D01*
X3926Y2621D01*
X3920Y2629D01*
X3912Y2635D01*
X3902Y2637D01*
X3854D01*
X3854Y2637D01*
X3834Y2639D01*
D02*
G37*
G36*
X8822Y2489D02*
X8747D01*
Y2414D01*
X8758Y2415D01*
X8779Y2424D01*
X8798Y2438D01*
X8812Y2457D01*
X8821Y2478D01*
X8822Y2489D01*
D02*
G37*
G36*
X3387Y2741D02*
X3247D01*
X3237Y2739D01*
X3229Y2734D01*
X3223Y2725D01*
X3222Y2716D01*
Y2611D01*
X3223Y2601D01*
X3229Y2592D01*
X3237Y2587D01*
X3241Y2586D01*
Y2509D01*
X3240Y2507D01*
X3231Y2485D01*
X3228Y2462D01*
X3231Y2439D01*
X3240Y2417D01*
X3254Y2398D01*
X3273Y2384D01*
X3294Y2375D01*
X3317Y2372D01*
X3341Y2375D01*
X3362Y2384D01*
X3381Y2398D01*
X3395Y2417D01*
X3404Y2439D01*
X3407Y2462D01*
X3404Y2485D01*
X3395Y2507D01*
X3393Y2509D01*
Y2586D01*
X3397Y2587D01*
X3406Y2592D01*
X3411Y2601D01*
X3413Y2611D01*
Y2716D01*
X3411Y2725D01*
X3406Y2734D01*
X3397Y2739D01*
X3387Y2741D01*
D02*
G37*
G36*
X1596Y2444D02*
X1521D01*
Y2369D01*
X1531Y2370D01*
X1553Y2379D01*
X1571Y2394D01*
X1586Y2412D01*
X1594Y2434D01*
X1596Y2444D01*
D02*
G37*
G36*
X1495D02*
X1420D01*
X1421Y2434D01*
X1430Y2412D01*
X1444Y2394D01*
X1463Y2379D01*
X1485Y2370D01*
X1495Y2369D01*
Y2444D01*
D02*
G37*
G36*
X2814Y2644D02*
X2724D01*
X2704Y2641D01*
X2704Y2641D01*
X2657D01*
X2647Y2639D01*
X2638Y2634D01*
X2633Y2625D01*
X2631Y2615D01*
Y2520D01*
X2633Y2511D01*
X2638Y2502D01*
X2647Y2497D01*
X2657Y2495D01*
X2695D01*
X2696Y2494D01*
X2690Y2481D01*
X2657D01*
X2647Y2479D01*
X2638Y2474D01*
X2633Y2465D01*
X2631Y2455D01*
Y2421D01*
X2817D01*
Y2431D01*
X2830Y2439D01*
X2835Y2437D01*
X2844Y2415D01*
X2859Y2397D01*
X2877Y2382D01*
X2899Y2374D01*
X2922Y2370D01*
X2945Y2374D01*
X2967Y2382D01*
X2985Y2397D01*
X3000Y2415D01*
X3009Y2437D01*
X3012Y2460D01*
X3009Y2483D01*
X3000Y2505D01*
X2985Y2524D01*
X2967Y2538D01*
X2945Y2547D01*
X2943Y2547D01*
X2868Y2622D01*
X2852Y2634D01*
X2834Y2641D01*
X2814Y2644D01*
D02*
G37*
G36*
X5339Y2643D02*
X5248D01*
X5229Y2640D01*
X5229Y2640D01*
X5181D01*
X5171Y2638D01*
X5163Y2632D01*
X5157Y2624D01*
X5155Y2614D01*
Y2519D01*
X5157Y2509D01*
X5163Y2501D01*
X5171Y2495D01*
X5181Y2493D01*
X5219D01*
X5220Y2493D01*
X5215Y2480D01*
X5181D01*
X5171Y2478D01*
X5163Y2472D01*
X5157Y2464D01*
X5155Y2454D01*
Y2419D01*
X5342D01*
Y2430D01*
X5355Y2438D01*
X5360Y2436D01*
X5369Y2414D01*
X5383Y2395D01*
X5402Y2381D01*
X5423Y2372D01*
X5446Y2369D01*
X5470Y2372D01*
X5491Y2381D01*
X5510Y2395D01*
X5524Y2414D01*
X5533Y2436D01*
X5536Y2459D01*
X5533Y2482D01*
X5524Y2504D01*
X5510Y2522D01*
X5491Y2536D01*
X5470Y2545D01*
X5467Y2546D01*
X5392Y2620D01*
X5377Y2633D01*
X5358Y2640D01*
X5339Y2643D01*
D02*
G37*
%LPD*%
D11*
X6161Y2510D02*
X6243Y2593D01*
X6352D01*
X6841Y1606D02*
X6945Y1710D01*
Y2608D01*
Y3100D02*
X6951Y3106D01*
X6945Y2798D02*
Y3100D01*
X6889Y3106D02*
X6951D01*
X6729Y2946D02*
X6889Y3106D01*
X6729Y1690D02*
Y2946D01*
X6703Y1664D02*
X6729Y1690D01*
X6703Y1549D02*
Y1664D01*
Y1549D02*
X6729Y1522D01*
Y488D02*
Y1522D01*
X6618Y345D02*
X6729Y488D01*
X8856Y1365D02*
X8964Y1258D01*
X8765Y1365D02*
X8856D01*
X8828Y611D02*
X8880Y663D01*
X8682Y611D02*
X8828D01*
X8121Y610D02*
X8173Y662D01*
X7975Y610D02*
X8121D01*
X3090Y3465D02*
X3154Y3400D01*
Y3189D02*
Y3400D01*
Y3189D02*
X3232Y3111D01*
X3317D01*
X5785Y3067D02*
Y3504D01*
X5699Y3590D02*
X5785Y3504D01*
X9434Y2902D02*
X9480D01*
X9579Y2803D01*
Y2315D02*
Y2803D01*
X9454Y2190D02*
X9579Y2315D01*
X9308Y2190D02*
X9454D01*
X9241Y2124D02*
X9308Y2190D01*
X9241Y292D02*
Y2124D01*
X9170Y220D02*
X9241Y292D01*
X700Y220D02*
X9170D01*
X9434Y2902D02*
Y3160D01*
Y2511D02*
Y2712D01*
X5785Y2809D02*
Y3067D01*
Y2418D02*
Y2619D01*
X3317Y2853D02*
Y3111D01*
Y2462D02*
Y2663D01*
X5339Y2567D02*
X5446Y2459D01*
X2814Y2568D02*
X2922Y2460D01*
X11365Y1972D02*
X11437Y1900D01*
X10880Y2999D02*
X10932Y3051D01*
X10734Y2999D02*
X10880D01*
X11243Y3108D02*
X11295Y3161D01*
X11441D01*
X11504Y2406D02*
X11556Y2459D01*
X11358Y2406D02*
X11504D01*
X10369Y1918D02*
X10477Y1811D01*
X10567D01*
X11274Y1972D02*
X11365D01*
X11337Y1218D02*
X11389Y1270D01*
X11191Y1218D02*
X11337D01*
X11224Y624D02*
X11300Y700D01*
X11107Y624D02*
X11224D01*
X10546Y622D02*
X10598Y674D01*
X10400Y622D02*
X10546D01*
X9495Y729D02*
X9547Y781D01*
X9693D01*
X9579Y1323D02*
X9631Y1375D01*
X9777D01*
X9662Y1917D02*
X9714Y1969D01*
X9860D01*
X9746Y2511D02*
X9798Y2563D01*
X9944D01*
X9829Y3105D02*
X9881Y3157D01*
X10027D01*
X8651Y1907D02*
X8703Y1960D01*
X8849D01*
X7944Y1906D02*
X8052Y1798D01*
X8142D01*
X4967Y1920D02*
X5019Y1972D01*
X5165D01*
X2442Y1922D02*
X2495Y1974D01*
X2641D01*
X9078Y2394D02*
X9131Y2446D01*
X8932Y2394D02*
X9078D01*
X8800Y3100D02*
X8848Y3148D01*
X9016D01*
X8455Y2986D02*
X8507Y3039D01*
X8309Y2986D02*
X8455D01*
X7404Y3093D02*
X7456Y3145D01*
X7602D01*
X7320Y2498D02*
X7372Y2551D01*
X7518D01*
X7237Y1904D02*
X7289Y1956D01*
X7435D01*
X7153Y1310D02*
X7205Y1362D01*
X7351D01*
X7070Y716D02*
X7122Y768D01*
X7268D01*
X6337Y1214D02*
X6390Y1266D01*
X6192Y1214D02*
X6337D01*
X4771Y2999D02*
X4823Y3051D01*
X4625Y2999D02*
X4771D01*
X5134Y3109D02*
X5186Y3161D01*
X5332D01*
X5248Y2567D02*
X5339D01*
X4260Y1919D02*
X4368Y1811D01*
X4458D01*
X5172Y1378D02*
X5279Y1270D01*
X5081Y1378D02*
X5172D01*
X5124Y624D02*
X5200Y700D01*
X4998Y624D02*
X5124D01*
X4437Y623D02*
X4489Y675D01*
X4291Y623D02*
X4437D01*
X3400Y700D02*
X3481Y781D01*
X3584D01*
X3469Y1323D02*
X3521Y1375D01*
X3667D01*
X3553Y1917D02*
X3605Y1969D01*
X3751D01*
X3636Y2511D02*
X3688Y2563D01*
X3834D01*
X3720Y3105D02*
X3772Y3158D01*
X3918D01*
X2246Y3001D02*
X2298Y3053D01*
X2100Y3001D02*
X2246D01*
X2609Y3110D02*
X2662Y3162D01*
X2808D01*
X2724Y2568D02*
X2814D01*
X1843Y1812D02*
X1933D01*
X1735Y1920D02*
X1843Y1812D01*
X2557Y1380D02*
X2647D01*
X2755Y1272D01*
X2619Y625D02*
X2672Y678D01*
X2474Y625D02*
X2619D01*
X1912Y624D02*
X1964Y676D01*
X1766Y624D02*
X1912D01*
X861Y730D02*
X913Y782D01*
X1059D01*
X945Y1324D02*
X997Y1376D01*
X1143D01*
X1028Y1918D02*
X1080Y1971D01*
X1226D01*
X1112Y2513D02*
X1164Y2565D01*
X1310D01*
X1195Y3107D02*
X1247Y3159D01*
X1393D01*
X965Y3465D02*
X3090D01*
X900Y3590D02*
X5699D01*
X755Y345D02*
X6618D01*
X700Y400D02*
X755Y345D01*
X600Y300D02*
X680Y220D01*
X11437Y1900D02*
X11500D01*
D12*
X12100Y0D02*
G03*
X12300Y200I0J200D01*
G01*
Y3600D02*
G03*
X12100Y3800I-200J-0D01*
G01*
X0Y200D02*
G03*
X200Y0I200J0D01*
G01*
X200Y3800D02*
G03*
X0Y3600I0J-200D01*
G01*
X12300Y200D02*
Y3600D01*
X200Y3794D02*
X12100Y3800D01*
X0Y200D02*
Y3600D01*
X200Y0D02*
X12100D01*
D13*
X5259Y2971D02*
X5404D01*
X5259Y3191D02*
X5404D01*
Y2971D02*
Y3191D01*
X5259Y2971D02*
Y3191D01*
X11608Y2236D02*
Y2736D01*
X11108Y2236D02*
Y2736D01*
X11608D01*
X11108Y2236D02*
X11608D01*
X11191Y2831D02*
Y3331D01*
X11691Y2831D02*
Y3331D01*
X11191Y2831D02*
X11691D01*
X11191Y3331D02*
X11691D01*
X10984Y2829D02*
Y3329D01*
X10484Y2829D02*
Y3329D01*
X10984D01*
X10484Y2829D02*
X10984D01*
X10317Y1641D02*
Y2141D01*
X10817Y1641D02*
Y2141D01*
X10317Y1641D02*
X10817D01*
X10317Y2141D02*
X10817D01*
X11024Y1642D02*
Y2142D01*
X11524Y1642D02*
Y2142D01*
X11024Y1642D02*
X11524D01*
X11024Y2142D02*
X11524D01*
X11441Y1048D02*
Y1548D01*
X10941Y1048D02*
Y1548D01*
X11441D01*
X10941Y1048D02*
X11441D01*
X11350Y450D02*
Y950D01*
X10850Y450D02*
Y950D01*
X11350D01*
X10850Y450D02*
X11350D01*
X10650D02*
Y950D01*
X10150Y450D02*
Y950D01*
X10650D01*
X10150Y450D02*
X10650D01*
X9450Y450D02*
Y950D01*
X9950Y450D02*
Y950D01*
X9450Y450D02*
X9950D01*
X9450Y950D02*
X9950D01*
X9527Y1045D02*
Y1545D01*
X10027Y1045D02*
Y1545D01*
X9527Y1045D02*
X10027D01*
X9527Y1545D02*
X10027D01*
X9610Y1639D02*
Y2139D01*
X10110Y1639D02*
Y2139D01*
X9610Y1639D02*
X10110D01*
X9610Y2139D02*
X10110D01*
X9694Y2233D02*
Y2733D01*
X10194Y2233D02*
Y2733D01*
X9694Y2233D02*
X10194D01*
X9694Y2733D02*
X10194D01*
X9777Y2827D02*
Y3327D01*
X10277Y2827D02*
Y3327D01*
X9777Y2827D02*
X10277D01*
X9777Y3327D02*
X10277D01*
X8559Y2816D02*
Y3316D01*
X8059Y2816D02*
Y3316D01*
X8559D01*
X8059Y2816D02*
X8559D01*
X8766Y2818D02*
Y3318D01*
X9266Y2818D02*
Y3318D01*
X8766Y2818D02*
X9266D01*
X8766Y3318D02*
X9266D01*
X9182Y2224D02*
Y2724D01*
X8682Y2224D02*
Y2724D01*
X9182D01*
X8682Y2224D02*
X9182D01*
X8599Y1630D02*
Y2130D01*
X9099Y1630D02*
Y2130D01*
X8599Y1630D02*
X9099D01*
X8599Y2130D02*
X9099D01*
X7892Y1628D02*
Y2128D01*
X8392Y1628D02*
Y2128D01*
X7892Y1628D02*
X8392D01*
X7892Y2128D02*
X8392D01*
X9015Y1035D02*
Y1535D01*
X8515Y1035D02*
Y1535D01*
X9015D01*
X8515Y1035D02*
X9015D01*
X8932Y441D02*
Y941D01*
X8432Y441D02*
Y941D01*
X8932D01*
X8432Y441D02*
X8932D01*
X8225Y440D02*
Y940D01*
X7725Y440D02*
Y940D01*
X8225D01*
X7725Y440D02*
X8225D01*
X7018Y438D02*
Y938D01*
X7518Y438D02*
Y938D01*
X7018Y438D02*
X7518D01*
X7018Y938D02*
X7518D01*
X7101Y1032D02*
Y1532D01*
X7601Y1032D02*
Y1532D01*
X7101Y1032D02*
X7601D01*
X7101Y1532D02*
X7601D01*
X7185Y1626D02*
Y2126D01*
X7685Y1626D02*
Y2126D01*
X7185Y1626D02*
X7685D01*
X7185Y2126D02*
X7685D01*
X7268Y2221D02*
Y2721D01*
X7768Y2221D02*
Y2721D01*
X7268Y2221D02*
X7768D01*
X7268Y2721D02*
X7768D01*
X7352Y2815D02*
Y3315D01*
X7852Y2815D02*
Y3315D01*
X7352Y2815D02*
X7852D01*
X7352Y3315D02*
X7852D01*
X6442Y1044D02*
Y1544D01*
X5942Y1044D02*
Y1544D01*
X6442D01*
X5942Y1044D02*
X6442D01*
X6109Y2232D02*
Y2732D01*
X6609Y2232D02*
Y2732D01*
X6109Y2232D02*
X6609D01*
X6109Y2732D02*
X6609D01*
X5498Y2237D02*
Y2737D01*
X4998Y2237D02*
Y2737D01*
X5498D01*
X4998Y2237D02*
X5498D01*
X5082Y2831D02*
Y3331D01*
X5582Y2831D02*
Y3331D01*
X5082Y2831D02*
X5582D01*
X5082Y3331D02*
X5582D01*
X4875Y2829D02*
Y3329D01*
X4375Y2829D02*
Y3329D01*
X4875D01*
X4375Y2829D02*
X4875D01*
X4915Y1642D02*
Y2142D01*
X5415Y1642D02*
Y2142D01*
X4915Y1642D02*
X5415D01*
X4915Y2142D02*
X5415D01*
X4208Y1641D02*
Y2141D01*
X4708Y1641D02*
Y2141D01*
X4208Y1641D02*
X4708D01*
X4208Y2141D02*
X4708D01*
X5331Y1048D02*
Y1548D01*
X4831Y1048D02*
Y1548D01*
X5331D01*
X4831Y1048D02*
X5331D01*
X5250Y450D02*
Y950D01*
X4750Y450D02*
Y950D01*
X5250D01*
X4750Y450D02*
X5250D01*
X4541Y453D02*
Y953D01*
X4041Y453D02*
Y953D01*
X4541D01*
X4041Y453D02*
X4541D01*
X3334Y451D02*
Y951D01*
X3834Y451D02*
Y951D01*
X3334Y451D02*
X3834D01*
X3334Y951D02*
X3834D01*
X3417Y1045D02*
Y1545D01*
X3917Y1045D02*
Y1545D01*
X3417Y1045D02*
X3917D01*
X3417Y1545D02*
X3917D01*
X3501Y1639D02*
Y2139D01*
X4001Y1639D02*
Y2139D01*
X3501Y1639D02*
X4001D01*
X3501Y2139D02*
X4001D01*
X3584Y2233D02*
Y2733D01*
X4084Y2233D02*
Y2733D01*
X3584Y2233D02*
X4084D01*
X3584Y2733D02*
X4084D01*
X3668Y2828D02*
Y3328D01*
X4168Y2828D02*
Y3328D01*
X3668Y2828D02*
X4168D01*
X3668Y3328D02*
X4168D01*
X2974Y2238D02*
Y2738D01*
X2474Y2238D02*
Y2738D01*
X2974D01*
X2474Y2238D02*
X2974D01*
X2558Y2832D02*
Y3332D01*
X3058Y2832D02*
Y3332D01*
X2558Y2832D02*
X3058D01*
X2558Y3332D02*
X3058D01*
X2350Y2831D02*
Y3331D01*
X1850Y2831D02*
Y3331D01*
X2350D01*
X1850Y2831D02*
X2350D01*
X1683Y1642D02*
Y2142D01*
X2183Y1642D02*
Y2142D01*
X1683Y1642D02*
X2183D01*
X1683Y2142D02*
X2183D01*
X2391Y1644D02*
Y2144D01*
X2891Y1644D02*
Y2144D01*
X2391Y1644D02*
X2891D01*
X2391Y2144D02*
X2891D01*
X2807Y1050D02*
Y1550D01*
X2307Y1050D02*
Y1550D01*
X2807D01*
X2307Y1050D02*
X2807D01*
X2724Y455D02*
Y955D01*
X2224Y455D02*
Y955D01*
X2724D01*
X2224Y455D02*
X2724D01*
X2016Y454D02*
Y954D01*
X1516Y454D02*
Y954D01*
X2016D01*
X1516Y454D02*
X2016D01*
X809Y452D02*
Y952D01*
X1309Y452D02*
Y952D01*
X809Y452D02*
X1309D01*
X809Y952D02*
X1309D01*
X893Y1046D02*
Y1546D01*
X1393Y1046D02*
Y1546D01*
X893Y1046D02*
X1393D01*
X893Y1546D02*
X1393D01*
X976Y1641D02*
Y2141D01*
X1476Y1641D02*
Y2141D01*
X976Y1641D02*
X1476D01*
X976Y2141D02*
X1476D01*
X1060Y2235D02*
Y2735D01*
X1560Y2235D02*
Y2735D01*
X1060Y2235D02*
X1560D01*
X1060Y2735D02*
X1560D01*
X1143Y2829D02*
Y3329D01*
X1643Y2829D02*
Y3329D01*
X1143Y2829D02*
X1643D01*
X1143Y3329D02*
X1643D01*
X10495Y2001D02*
X10640D01*
X10495Y1781D02*
X10640D01*
X10495D02*
Y2001D01*
X10640Y1781D02*
Y2001D01*
X11202Y1782D02*
X11347D01*
X11202Y2002D02*
X11347D01*
Y1782D02*
Y2002D01*
X11202Y1782D02*
Y2002D01*
X11118Y1408D02*
X11263D01*
X11118Y1188D02*
X11263D01*
X11118D02*
Y1408D01*
X11263Y1188D02*
Y1408D01*
X11369Y2971D02*
X11514D01*
X11369Y3191D02*
X11514D01*
Y2971D02*
Y3191D01*
X11369Y2971D02*
Y3191D01*
X10662Y3189D02*
X10807D01*
X10662Y2969D02*
X10807D01*
X10662D02*
Y3189D01*
X10807Y2969D02*
Y3189D01*
X11285Y2596D02*
X11430D01*
X11285Y2376D02*
X11430D01*
X11285D02*
Y2596D01*
X11430Y2376D02*
Y2596D01*
X9871Y2373D02*
X10016D01*
X9871Y2593D02*
X10016D01*
Y2373D02*
Y2593D01*
X9871Y2373D02*
Y2593D01*
X9788Y1779D02*
X9933D01*
X9788Y1999D02*
X9933D01*
Y1779D02*
Y1999D01*
X9788Y1779D02*
Y1999D01*
X9704Y1185D02*
X9849D01*
X9704Y1405D02*
X9849D01*
Y1185D02*
Y1405D01*
X9704Y1185D02*
Y1405D01*
X9621Y591D02*
X9766D01*
X9621Y811D02*
X9766D01*
Y591D02*
Y811D01*
X9621Y591D02*
Y811D01*
X10328Y812D02*
X10473D01*
X10328Y592D02*
X10473D01*
X10328D02*
Y812D01*
X10473Y592D02*
Y812D01*
X8860Y2584D02*
X9005D01*
X8860Y2364D02*
X9005D01*
X8860D02*
Y2584D01*
X9005Y2364D02*
Y2584D01*
X8943Y2958D02*
X9088D01*
X8943Y3178D02*
X9088D01*
Y2958D02*
Y3178D01*
X8943Y2958D02*
Y3178D01*
X9955Y2967D02*
X10100D01*
X9955Y3187D02*
X10100D01*
Y2967D02*
Y3187D01*
X9955Y2967D02*
Y3187D01*
X8236Y3176D02*
X8381D01*
X8236Y2956D02*
X8381D01*
X8236D02*
Y3176D01*
X8381Y2956D02*
Y3176D01*
X8069Y1988D02*
X8214D01*
X8069Y1768D02*
X8214D01*
X8069D02*
Y1988D01*
X8214Y1768D02*
Y1988D01*
X8776Y1770D02*
X8921D01*
X8776Y1990D02*
X8921D01*
Y1770D02*
Y1990D01*
X8776Y1770D02*
Y1990D01*
X8693Y1175D02*
X8838D01*
X8693Y1395D02*
X8838D01*
Y1175D02*
Y1395D01*
X8693Y1175D02*
Y1395D01*
X11035Y814D02*
X11180D01*
X11035Y594D02*
X11180D01*
X11035D02*
Y814D01*
X11180Y594D02*
Y814D01*
X8609Y801D02*
X8754D01*
X8609Y581D02*
X8754D01*
X8609D02*
Y801D01*
X8754Y581D02*
Y801D01*
X7902Y800D02*
X8047D01*
X7902Y580D02*
X8047D01*
X7902D02*
Y800D01*
X8047Y580D02*
Y800D01*
X7195Y578D02*
X7340D01*
X7195Y798D02*
X7340D01*
Y578D02*
Y798D01*
X7195Y578D02*
Y798D01*
X7279Y1172D02*
X7424D01*
X7279Y1392D02*
X7424D01*
Y1172D02*
Y1392D01*
X7279Y1172D02*
Y1392D01*
X7362Y1766D02*
X7507D01*
X7362Y1986D02*
X7507D01*
Y1766D02*
Y1986D01*
X7362Y1766D02*
Y1986D01*
X7446Y2361D02*
X7591D01*
X7446Y2581D02*
X7591D01*
Y2361D02*
Y2581D01*
X7446Y2361D02*
Y2581D01*
X7529Y2955D02*
X7674D01*
X7529Y3175D02*
X7674D01*
Y2955D02*
Y3175D01*
X7529Y2955D02*
Y3175D01*
X6119Y1404D02*
X6264D01*
X6119Y1184D02*
X6264D01*
X6119D02*
Y1404D01*
X6264Y1184D02*
Y1404D01*
X6279Y2403D02*
X6424D01*
X6279Y2623D02*
X6424D01*
Y2403D02*
Y2623D01*
X6279Y2403D02*
Y2623D01*
X5176Y2377D02*
X5321D01*
X5176Y2597D02*
X5321D01*
Y2377D02*
Y2597D01*
X5176Y2377D02*
Y2597D01*
X4552Y3189D02*
X4697D01*
X4552Y2969D02*
X4697D01*
X4552D02*
Y3189D01*
X4697Y2969D02*
Y3189D01*
X4385Y2001D02*
X4530D01*
X4385Y1781D02*
X4530D01*
X4385D02*
Y2001D01*
X4530Y1781D02*
Y2001D01*
X5092Y1782D02*
X5237D01*
X5092Y2002D02*
X5237D01*
Y1782D02*
Y2002D01*
X5092Y1782D02*
Y2002D01*
X5009Y1188D02*
X5154D01*
X5009Y1408D02*
X5154D01*
Y1188D02*
Y1408D01*
X5009Y1188D02*
Y1408D01*
X4925Y814D02*
X5070D01*
X4925Y594D02*
X5070D01*
X4925D02*
Y814D01*
X5070Y594D02*
Y814D01*
X4218Y813D02*
X4363D01*
X4218Y593D02*
X4363D01*
X4218D02*
Y813D01*
X4363Y593D02*
Y813D01*
X3511Y591D02*
X3656D01*
X3511Y811D02*
X3656D01*
Y591D02*
Y811D01*
X3511Y591D02*
Y811D01*
X3595Y1185D02*
X3740D01*
X3595Y1405D02*
X3740D01*
Y1185D02*
Y1405D01*
X3595Y1185D02*
Y1405D01*
X3678Y1779D02*
X3823D01*
X3678Y1999D02*
X3823D01*
Y1779D02*
Y1999D01*
X3678Y1779D02*
Y1999D01*
X3762Y2373D02*
X3907D01*
X3762Y2593D02*
X3907D01*
Y2373D02*
Y2593D01*
X3762Y2373D02*
Y2593D01*
X3845Y2968D02*
X3990D01*
X3845Y3188D02*
X3990D01*
Y2968D02*
Y3188D01*
X3845Y2968D02*
Y3188D01*
X2735Y2972D02*
X2880D01*
X2735Y3192D02*
X2880D01*
Y2972D02*
Y3192D01*
X2735Y2972D02*
Y3192D01*
X2652Y2378D02*
X2797D01*
X2652Y2598D02*
X2797D01*
Y2378D02*
Y2598D01*
X2652Y2378D02*
Y2598D01*
X2028Y3191D02*
X2173D01*
X2028Y2971D02*
X2173D01*
X2028D02*
Y3191D01*
X2173Y2971D02*
Y3191D01*
X1861Y2002D02*
X2006D01*
X1861Y1782D02*
X2006D01*
X1861D02*
Y2002D01*
X2006Y1782D02*
Y2002D01*
X1237Y2375D02*
X1382D01*
X1237Y2595D02*
X1382D01*
Y2375D02*
Y2595D01*
X1237Y2375D02*
Y2595D01*
X2568Y1784D02*
X2713D01*
X2568Y2004D02*
X2713D01*
Y1784D02*
Y2004D01*
X2568Y1784D02*
Y2004D01*
X2485Y1190D02*
X2630D01*
X2485Y1410D02*
X2630D01*
Y1190D02*
Y1410D01*
X2485Y1190D02*
Y1410D01*
X2401Y815D02*
X2546D01*
X2401Y595D02*
X2546D01*
X2401D02*
Y815D01*
X2546Y595D02*
Y815D01*
X1070Y1186D02*
X1215D01*
X1070Y1406D02*
X1215D01*
Y1186D02*
Y1406D01*
X1070Y1186D02*
Y1406D01*
X1694Y814D02*
X1839D01*
X1694Y594D02*
X1839D01*
X1694D02*
Y814D01*
X1839Y594D02*
Y814D01*
X987Y592D02*
X1132D01*
X987Y812D02*
X1132D01*
Y592D02*
Y812D01*
X987Y592D02*
Y812D01*
X1154Y1781D02*
X1299D01*
X1154Y2001D02*
X1299D01*
Y1781D02*
Y2001D01*
X1154Y1781D02*
Y2001D01*
X1321Y2969D02*
X1466D01*
X1321Y3189D02*
X1466D01*
Y2969D02*
Y3189D01*
X1321Y2969D02*
Y3189D01*
X3250Y2648D02*
X3385D01*
X3250Y2868D02*
X3385D01*
Y2648D02*
Y2868D01*
X3250Y2648D02*
Y2868D01*
X5718Y2604D02*
X5853D01*
X5718Y2824D02*
X5853D01*
Y2604D02*
Y2824D01*
X5718Y2604D02*
Y2824D01*
X6877Y2813D02*
X7012D01*
X6877Y2593D02*
X7012D01*
X6877D02*
Y2813D01*
X7012Y2593D02*
Y2813D01*
X9366Y2917D02*
X9501D01*
X9366Y2697D02*
X9501D01*
X9366D02*
Y2917D01*
X9501Y2697D02*
Y2917D01*
D14*
X12000Y3500D02*
D03*
Y300D02*
D03*
X300Y3500D02*
D03*
Y300D02*
D03*
D15*
X6951Y3106D02*
D03*
X6161Y2510D02*
D03*
X8173Y662D02*
D03*
X9434Y3160D02*
D03*
Y2511D02*
D03*
X6841Y1606D02*
D03*
X5785Y3067D02*
D03*
Y2418D02*
D03*
X3317Y3111D02*
D03*
Y2462D02*
D03*
X7967Y994D02*
D03*
X5446Y2459D02*
D03*
X2922Y2460D02*
D03*
X2755Y1272D02*
D03*
X8651Y1907D02*
D03*
X11389Y1270D02*
D03*
X7944Y1906D02*
D03*
X6390Y1266D02*
D03*
X5279Y1270D02*
D03*
X4967Y1920D02*
D03*
X4823Y3051D02*
D03*
X10058Y1861D02*
D03*
X3949Y1861D02*
D03*
X4032Y2456D02*
D03*
X2298Y3053D02*
D03*
X2609Y3110D02*
D03*
X2442Y1922D02*
D03*
X1424Y1863D02*
D03*
X9495Y729D02*
D03*
X9579Y1323D02*
D03*
X9662Y1917D02*
D03*
X9746Y2511D02*
D03*
X9829Y3105D02*
D03*
X10932Y3051D02*
D03*
X10369Y1918D02*
D03*
X10598Y674D02*
D03*
X11300Y700D02*
D03*
X11556Y2459D02*
D03*
X11243Y3108D02*
D03*
X8800Y3100D02*
D03*
X9131Y2446D02*
D03*
X8964Y1258D02*
D03*
X8880Y663D02*
D03*
X8507Y3039D02*
D03*
X7404Y3093D02*
D03*
X7237Y1904D02*
D03*
X7153Y1310D02*
D03*
X7070Y716D02*
D03*
X5994Y1322D02*
D03*
X5200Y700D02*
D03*
X5134Y3109D02*
D03*
X4260Y1919D02*
D03*
X4489Y675D02*
D03*
X3400Y700D02*
D03*
X3469Y1323D02*
D03*
X3553Y1917D02*
D03*
X3636Y2511D02*
D03*
X3720Y3105D02*
D03*
X1735Y1920D02*
D03*
X861Y730D02*
D03*
X945Y1324D02*
D03*
X1028Y1918D02*
D03*
X1112Y2513D02*
D03*
X1195Y3107D02*
D03*
X2672Y678D02*
D03*
X10142Y2455D02*
D03*
X10225Y3049D02*
D03*
X9975Y1267D02*
D03*
X9891Y673D02*
D03*
X7466Y660D02*
D03*
X7549Y1254D02*
D03*
X7633Y1849D02*
D03*
X7716Y2443D02*
D03*
X7800Y3037D02*
D03*
X3800Y700D02*
D03*
X3865Y1267D02*
D03*
X4116Y3050D02*
D03*
X1257Y674D02*
D03*
X1341Y1269D02*
D03*
X1508Y2457D02*
D03*
X1591Y3051D02*
D03*
X3006Y3054D02*
D03*
X2526Y2516D02*
D03*
X2549Y1604D02*
D03*
X1759Y1008D02*
D03*
X1964Y676D02*
D03*
X5530Y3053D02*
D03*
X5050Y2514D02*
D03*
X5074Y1602D02*
D03*
X4300Y1000D02*
D03*
X8758Y1590D02*
D03*
X8734Y2502D02*
D03*
X9214Y3040D02*
D03*
X11160Y2514D02*
D03*
X11183Y1602D02*
D03*
X10400Y1000D02*
D03*
X11639Y3053D02*
D03*
X6557Y2454D02*
D03*
X7320Y2498D02*
D03*
X900Y2400D02*
D03*
X11849Y2651D02*
D03*
X11500Y1900D02*
D03*
D16*
X5332Y3001D02*
D03*
Y3161D02*
D03*
X10567Y1971D02*
D03*
Y1811D02*
D03*
X11274Y1812D02*
D03*
Y1972D02*
D03*
X11191Y1378D02*
D03*
Y1218D02*
D03*
X11441Y3001D02*
D03*
Y3161D02*
D03*
X10734Y3159D02*
D03*
Y2999D02*
D03*
X11358Y2566D02*
D03*
Y2406D02*
D03*
X9944Y2403D02*
D03*
Y2563D02*
D03*
X9860Y1809D02*
D03*
Y1969D02*
D03*
X9777Y1215D02*
D03*
Y1375D02*
D03*
X9693Y621D02*
D03*
Y781D02*
D03*
X10400Y782D02*
D03*
Y622D02*
D03*
X8932Y2554D02*
D03*
Y2394D02*
D03*
X9016Y2988D02*
D03*
Y3148D02*
D03*
X10027Y2997D02*
D03*
Y3157D02*
D03*
X8309Y3146D02*
D03*
Y2986D02*
D03*
X8142Y1958D02*
D03*
Y1798D02*
D03*
X8849Y1800D02*
D03*
Y1960D02*
D03*
X8765Y1205D02*
D03*
Y1365D02*
D03*
X11107Y784D02*
D03*
Y624D02*
D03*
X8682Y771D02*
D03*
Y611D02*
D03*
X7975Y770D02*
D03*
Y610D02*
D03*
X7268Y608D02*
D03*
Y768D02*
D03*
X7351Y1202D02*
D03*
Y1362D02*
D03*
X7435Y1796D02*
D03*
Y1956D02*
D03*
X7518Y2391D02*
D03*
Y2551D02*
D03*
X7602Y2985D02*
D03*
Y3145D02*
D03*
X6192Y1374D02*
D03*
Y1214D02*
D03*
X6352Y2433D02*
D03*
Y2593D02*
D03*
X5248Y2407D02*
D03*
Y2567D02*
D03*
X4625Y3159D02*
D03*
Y2999D02*
D03*
X4458Y1971D02*
D03*
Y1811D02*
D03*
X5165Y1812D02*
D03*
Y1972D02*
D03*
X5081Y1218D02*
D03*
Y1378D02*
D03*
X4998Y784D02*
D03*
Y624D02*
D03*
X4291Y783D02*
D03*
Y623D02*
D03*
X3584Y621D02*
D03*
Y781D02*
D03*
X3667Y1215D02*
D03*
Y1375D02*
D03*
X3751Y1809D02*
D03*
Y1969D02*
D03*
X3834Y2403D02*
D03*
Y2563D02*
D03*
X3918Y2998D02*
D03*
Y3158D02*
D03*
X2808Y3002D02*
D03*
Y3162D02*
D03*
X2724Y2408D02*
D03*
Y2568D02*
D03*
X2100Y3161D02*
D03*
Y3001D02*
D03*
X1933Y1972D02*
D03*
Y1812D02*
D03*
X1310Y2405D02*
D03*
Y2565D02*
D03*
X2641Y1814D02*
D03*
Y1974D02*
D03*
X2557Y1220D02*
D03*
Y1380D02*
D03*
X2474Y785D02*
D03*
Y625D02*
D03*
X1143Y1216D02*
D03*
Y1376D02*
D03*
X1766Y784D02*
D03*
Y624D02*
D03*
X1059Y622D02*
D03*
Y782D02*
D03*
X1226Y1811D02*
D03*
Y1971D02*
D03*
X1393Y2999D02*
D03*
Y3159D02*
D03*
D17*
X3317Y2663D02*
D03*
Y2853D02*
D03*
X5785Y2619D02*
D03*
Y2809D02*
D03*
X6945Y2798D02*
D03*
Y2608D02*
D03*
X9434Y2902D02*
D03*
Y2712D02*
D03*
D18*
X12085Y2160D02*
D03*
X12095Y1640D02*
D03*
X205Y2360D02*
D03*
X205Y1440D02*
D03*
D19*
X11705Y2000D02*
D03*
Y1900D02*
D03*
Y1800D02*
D03*
X595Y2200D02*
D03*
Y2100D02*
D03*
Y2000D02*
D03*
X595Y1900D02*
D03*
Y1800D02*
D03*
Y1700D02*
D03*
Y1600D02*
D03*
D20*
X800D01*
X900Y1500D01*
Y1369D02*
Y1500D01*
Y1369D02*
X945Y1324D01*
X800Y2000D02*
Y2339D01*
X700Y1900D02*
X800Y2000D01*
X595Y1900D02*
X700D01*
X786Y2353D02*
X800Y2339D01*
X595Y2000D02*
X595Y2000D01*
X693D01*
X720Y2027D01*
Y2271D01*
X700Y2292D02*
X720Y2271D01*
X700Y2292D02*
Y3390D01*
X900Y3590D01*
X786Y3286D02*
X965Y3465D01*
X786Y2353D02*
Y3286D01*
X706Y1800D02*
X900Y1993D01*
Y2400D01*
X595Y1800D02*
X706D01*
X680Y220D02*
X700D01*
X700Y400D02*
Y1319D01*
X600Y300D02*
X600Y300D01*
X600Y300D02*
Y1300D01*
X595Y2100D02*
X595Y2100D01*
X300Y1599D02*
X600Y1300D01*
X400Y1619D02*
X700Y1319D01*
X400Y1619D02*
Y2000D01*
X500Y2100D01*
X595D01*
X300Y1599D02*
Y2007D01*
X494Y2200D01*
X595D01*
X11600Y2000D02*
X11705D01*
X11500Y1900D02*
X11600Y2000D01*
X11849Y2651D02*
X12000Y2500D01*
X11945Y2079D02*
Y2241D01*
X12000Y2296D02*
Y2500D01*
X11945Y2079D02*
X12000Y2024D01*
X11945Y2241D02*
X12000Y2296D01*
X11705Y1800D02*
X11900D01*
X12000Y1900D01*
Y2024D01*
M02*
