G04 Layer_Color=65535*
%FSLAX42Y42*%
%MOMM*%
G71*
G01*
G75*
%ADD12C,0.25*%
%ADD13C,0.10*%
%ADD21C,0.25*%
%ADD22C,0.20*%
D12*
X11146Y2568D02*
Y2441D01*
X11171Y2415D01*
X11222D01*
X11247Y2441D01*
Y2568D01*
X11400D02*
X11298D01*
Y2491D01*
X11349Y2517D01*
X11374D01*
X11400Y2491D01*
Y2441D01*
X11374Y2415D01*
X11324D01*
X11298Y2441D01*
X11527Y2415D02*
Y2568D01*
X11451Y2491D01*
X11552D01*
X11240Y3152D02*
Y3025D01*
X11265Y3000D01*
X11316D01*
X11342Y3025D01*
Y3152D01*
X11494D02*
X11392D01*
Y3076D01*
X11443Y3102D01*
X11469D01*
X11494Y3076D01*
Y3025D01*
X11469Y3000D01*
X11418D01*
X11392Y3025D01*
X11545Y3127D02*
X11570Y3152D01*
X11621D01*
X11646Y3127D01*
Y3102D01*
X11621Y3076D01*
X11595D01*
X11621D01*
X11646Y3051D01*
Y3025D01*
X11621Y3000D01*
X11570D01*
X11545Y3025D01*
X10522Y3160D02*
Y3033D01*
X10548Y3008D01*
X10598D01*
X10624Y3033D01*
Y3160D01*
X10776D02*
X10675D01*
Y3084D01*
X10725Y3109D01*
X10751D01*
X10776Y3084D01*
Y3033D01*
X10751Y3008D01*
X10700D01*
X10675Y3033D01*
X10929Y3008D02*
X10827D01*
X10929Y3109D01*
Y3135D01*
X10903Y3160D01*
X10852D01*
X10827Y3135D01*
X10355Y1972D02*
Y1845D01*
X10381Y1819D01*
X10431D01*
X10457Y1845D01*
Y1972D01*
X10609D02*
X10508D01*
Y1896D01*
X10558Y1921D01*
X10584D01*
X10609Y1896D01*
Y1845D01*
X10584Y1819D01*
X10533D01*
X10508Y1845D01*
X10660Y1819D02*
X10711D01*
X10685D01*
Y1972D01*
X10660Y1946D01*
X11062Y1973D02*
Y1846D01*
X11088Y1821D01*
X11139D01*
X11164Y1846D01*
Y1973D01*
X11316D02*
X11215D01*
Y1897D01*
X11265Y1923D01*
X11291D01*
X11316Y1897D01*
Y1846D01*
X11291Y1821D01*
X11240D01*
X11215Y1846D01*
X11367Y1948D02*
X11392Y1973D01*
X11443D01*
X11469Y1948D01*
Y1846D01*
X11443Y1821D01*
X11392D01*
X11367Y1846D01*
Y1948D01*
X10980Y1372D02*
Y1245D01*
X11005Y1220D01*
X11056D01*
X11082Y1245D01*
Y1372D01*
X11209Y1220D02*
Y1372D01*
X11132Y1296D01*
X11234D01*
X11285Y1245D02*
X11310Y1220D01*
X11361D01*
X11386Y1245D01*
Y1347D01*
X11361Y1372D01*
X11310D01*
X11285Y1347D01*
Y1322D01*
X11310Y1296D01*
X11386D01*
X10910Y772D02*
Y645D01*
X10935Y620D01*
X10986D01*
X11012Y645D01*
Y772D01*
X11139Y620D02*
Y772D01*
X11062Y696D01*
X11164D01*
X11215Y747D02*
X11240Y772D01*
X11291D01*
X11316Y747D01*
Y722D01*
X11291Y696D01*
X11316Y671D01*
Y645D01*
X11291Y620D01*
X11240D01*
X11215Y645D01*
Y671D01*
X11240Y696D01*
X11215Y722D01*
Y747D01*
X11240Y696D02*
X11291D01*
X10188Y783D02*
Y656D01*
X10214Y631D01*
X10264D01*
X10290Y656D01*
Y783D01*
X10417Y631D02*
Y783D01*
X10341Y707D01*
X10442D01*
X10493Y783D02*
X10595D01*
Y758D01*
X10493Y656D01*
Y631D01*
X9481Y782D02*
Y655D01*
X9507Y629D01*
X9557D01*
X9583Y655D01*
Y782D01*
X9710Y629D02*
Y782D01*
X9633Y706D01*
X9735D01*
X9887Y782D02*
X9837Y756D01*
X9786Y706D01*
Y655D01*
X9811Y629D01*
X9862D01*
X9887Y655D01*
Y680D01*
X9862Y706D01*
X9786D01*
X9565Y1376D02*
Y1249D01*
X9590Y1224D01*
X9641D01*
X9666Y1249D01*
Y1376D01*
X9793Y1224D02*
Y1376D01*
X9717Y1300D01*
X9819D01*
X9971Y1376D02*
X9869D01*
Y1300D01*
X9920Y1325D01*
X9946D01*
X9971Y1300D01*
Y1249D01*
X9946Y1224D01*
X9895D01*
X9869Y1249D01*
X9648Y1970D02*
Y1843D01*
X9674Y1818D01*
X9724D01*
X9750Y1843D01*
Y1970D01*
X9877Y1818D02*
Y1970D01*
X9801Y1894D01*
X9902D01*
X10029Y1818D02*
Y1970D01*
X9953Y1894D01*
X10054D01*
X9732Y2564D02*
Y2437D01*
X9757Y2412D01*
X9808D01*
X9833Y2437D01*
Y2564D01*
X9960Y2412D02*
Y2564D01*
X9884Y2488D01*
X9986D01*
X10036Y2539D02*
X10062Y2564D01*
X10113D01*
X10138Y2539D01*
Y2514D01*
X10113Y2488D01*
X10087D01*
X10113D01*
X10138Y2463D01*
Y2437D01*
X10113Y2412D01*
X10062D01*
X10036Y2437D01*
X9815Y3158D02*
Y3032D01*
X9841Y3006D01*
X9891D01*
X9917Y3032D01*
Y3158D01*
X10044Y3006D02*
Y3158D01*
X9968Y3082D01*
X10069D01*
X10221Y3006D02*
X10120D01*
X10221Y3108D01*
Y3133D01*
X10196Y3158D01*
X10145D01*
X10120Y3133D01*
X8721Y2555D02*
Y2428D01*
X8746Y2403D01*
X8797D01*
X8822Y2428D01*
Y2555D01*
X8949Y2403D02*
Y2555D01*
X8873Y2479D01*
X8974D01*
X9025Y2403D02*
X9076D01*
X9051D01*
Y2555D01*
X9025Y2530D01*
X8804Y3149D02*
Y3022D01*
X8829Y2997D01*
X8880D01*
X8906Y3022D01*
Y3149D01*
X9033Y2997D02*
Y3149D01*
X8956Y3073D01*
X9058D01*
X9109Y3124D02*
X9134Y3149D01*
X9185D01*
X9210Y3124D01*
Y3022D01*
X9185Y2997D01*
X9134D01*
X9109Y3022D01*
Y3124D01*
X8097Y3148D02*
Y3021D01*
X8122Y2995D01*
X8173D01*
X8198Y3021D01*
Y3148D01*
X8249Y3122D02*
X8275Y3148D01*
X8325D01*
X8351Y3122D01*
Y3097D01*
X8325Y3071D01*
X8300D01*
X8325D01*
X8351Y3046D01*
Y3021D01*
X8325Y2995D01*
X8275D01*
X8249Y3021D01*
X8402D02*
X8427Y2995D01*
X8478D01*
X8503Y3021D01*
Y3122D01*
X8478Y3148D01*
X8427D01*
X8402Y3122D01*
Y3097D01*
X8427Y3071D01*
X8503D01*
X7930Y1959D02*
Y1832D01*
X7955Y1807D01*
X8006D01*
X8031Y1832D01*
Y1959D01*
X8082Y1934D02*
X8108Y1959D01*
X8158D01*
X8184Y1934D01*
Y1908D01*
X8158Y1883D01*
X8133D01*
X8158D01*
X8184Y1858D01*
Y1832D01*
X8158Y1807D01*
X8108D01*
X8082Y1832D01*
X8235Y1934D02*
X8260Y1959D01*
X8311D01*
X8336Y1934D01*
Y1908D01*
X8311Y1883D01*
X8336Y1858D01*
Y1832D01*
X8311Y1807D01*
X8260D01*
X8235Y1832D01*
Y1858D01*
X8260Y1883D01*
X8235Y1908D01*
Y1934D01*
X8260Y1883D02*
X8311D01*
X8637Y1961D02*
Y1834D01*
X8662Y1808D01*
X8713D01*
X8739Y1834D01*
Y1961D01*
X8789Y1935D02*
X8815Y1961D01*
X8866D01*
X8891Y1935D01*
Y1910D01*
X8866Y1885D01*
X8840D01*
X8866D01*
X8891Y1859D01*
Y1834D01*
X8866Y1808D01*
X8815D01*
X8789Y1834D01*
X8942Y1961D02*
X9043D01*
Y1935D01*
X8942Y1834D01*
Y1808D01*
X8554Y1367D02*
Y1240D01*
X8579Y1214D01*
X8630D01*
X8655Y1240D01*
Y1367D01*
X8706Y1341D02*
X8731Y1367D01*
X8782D01*
X8807Y1341D01*
Y1316D01*
X8782Y1290D01*
X8757D01*
X8782D01*
X8807Y1265D01*
Y1240D01*
X8782Y1214D01*
X8731D01*
X8706Y1240D01*
X8960Y1367D02*
X8909Y1341D01*
X8858Y1290D01*
Y1240D01*
X8884Y1214D01*
X8934D01*
X8960Y1240D01*
Y1265D01*
X8934Y1290D01*
X8858D01*
X8470Y772D02*
Y646D01*
X8495Y620D01*
X8546D01*
X8572Y646D01*
Y772D01*
X8622Y747D02*
X8648Y772D01*
X8699D01*
X8724Y747D01*
Y722D01*
X8699Y696D01*
X8673D01*
X8699D01*
X8724Y671D01*
Y646D01*
X8699Y620D01*
X8648D01*
X8622Y646D01*
X8876Y772D02*
X8775D01*
Y696D01*
X8825Y722D01*
X8851D01*
X8876Y696D01*
Y646D01*
X8851Y620D01*
X8800D01*
X8775Y646D01*
X7763Y771D02*
Y644D01*
X7788Y619D01*
X7839D01*
X7864Y644D01*
Y771D01*
X7915Y745D02*
X7941Y771D01*
X7991D01*
X8017Y745D01*
Y720D01*
X7991Y695D01*
X7966D01*
X7991D01*
X8017Y669D01*
Y644D01*
X7991Y619D01*
X7941D01*
X7915Y644D01*
X8144Y619D02*
Y771D01*
X8068Y695D01*
X8169D01*
X7056Y769D02*
Y642D01*
X7081Y617D01*
X7132D01*
X7157Y642D01*
Y769D01*
X7208Y744D02*
X7234Y769D01*
X7284D01*
X7310Y744D01*
Y718D01*
X7284Y693D01*
X7259D01*
X7284D01*
X7310Y668D01*
Y642D01*
X7284Y617D01*
X7234D01*
X7208Y642D01*
X7360Y744D02*
X7386Y769D01*
X7437D01*
X7462Y744D01*
Y718D01*
X7437Y693D01*
X7411D01*
X7437D01*
X7462Y668D01*
Y642D01*
X7437Y617D01*
X7386D01*
X7360Y642D01*
X7139Y1363D02*
Y1236D01*
X7165Y1211D01*
X7215D01*
X7241Y1236D01*
Y1363D01*
X7292Y1338D02*
X7317Y1363D01*
X7368D01*
X7393Y1338D01*
Y1313D01*
X7368Y1287D01*
X7342D01*
X7368D01*
X7393Y1262D01*
Y1236D01*
X7368Y1211D01*
X7317D01*
X7292Y1236D01*
X7546Y1211D02*
X7444D01*
X7546Y1313D01*
Y1338D01*
X7520Y1363D01*
X7469D01*
X7444Y1338D01*
X7223Y1958D02*
Y1831D01*
X7248Y1805D01*
X7299D01*
X7324Y1831D01*
Y1958D01*
X7375Y1932D02*
X7401Y1958D01*
X7451D01*
X7477Y1932D01*
Y1907D01*
X7451Y1881D01*
X7426D01*
X7451D01*
X7477Y1856D01*
Y1831D01*
X7451Y1805D01*
X7401D01*
X7375Y1831D01*
X7528Y1805D02*
X7578D01*
X7553D01*
Y1958D01*
X7528Y1932D01*
X7306Y2552D02*
Y2425D01*
X7332Y2399D01*
X7382D01*
X7408Y2425D01*
Y2552D01*
X7459Y2526D02*
X7484Y2552D01*
X7535D01*
X7560Y2526D01*
Y2501D01*
X7535Y2476D01*
X7509D01*
X7535D01*
X7560Y2450D01*
Y2425D01*
X7535Y2399D01*
X7484D01*
X7459Y2425D01*
X7611Y2526D02*
X7636Y2552D01*
X7687D01*
X7713Y2526D01*
Y2425D01*
X7687Y2399D01*
X7636D01*
X7611Y2425D01*
Y2526D01*
X7390Y3146D02*
Y3019D01*
X7415Y2994D01*
X7466D01*
X7491Y3019D01*
Y3146D01*
X7644Y2994D02*
X7542D01*
X7644Y3095D01*
Y3121D01*
X7618Y3146D01*
X7568D01*
X7542Y3121D01*
X7695Y3019D02*
X7720Y2994D01*
X7771D01*
X7796Y3019D01*
Y3121D01*
X7771Y3146D01*
X7720D01*
X7695Y3121D01*
Y3095D01*
X7720Y3070D01*
X7796D01*
X5980Y1375D02*
Y1248D01*
X6005Y1223D01*
X6056D01*
X6081Y1248D01*
Y1375D01*
X6234Y1223D02*
X6132D01*
X6234Y1324D01*
Y1350D01*
X6208Y1375D01*
X6157D01*
X6132Y1350D01*
X6284D02*
X6310Y1375D01*
X6360D01*
X6386Y1350D01*
Y1324D01*
X6360Y1299D01*
X6386Y1273D01*
Y1248D01*
X6360Y1223D01*
X6310D01*
X6284Y1248D01*
Y1273D01*
X6310Y1299D01*
X6284Y1324D01*
Y1350D01*
X6310Y1299D02*
X6360D01*
X6147Y2563D02*
Y2436D01*
X6172Y2411D01*
X6223D01*
X6248Y2436D01*
Y2563D01*
X6401Y2411D02*
X6299D01*
X6401Y2512D01*
Y2538D01*
X6375Y2563D01*
X6324D01*
X6299Y2538D01*
X6451Y2563D02*
X6553D01*
Y2538D01*
X6451Y2436D01*
Y2411D01*
X5036Y2568D02*
Y2441D01*
X5062Y2415D01*
X5113D01*
X5138Y2441D01*
Y2568D01*
X5290Y2415D02*
X5189D01*
X5290Y2517D01*
Y2542D01*
X5265Y2568D01*
X5214D01*
X5189Y2542D01*
X5443Y2568D02*
X5392Y2542D01*
X5341Y2492D01*
Y2441D01*
X5367Y2415D01*
X5417D01*
X5443Y2441D01*
Y2466D01*
X5417Y2492D01*
X5341D01*
X5120Y3162D02*
Y3035D01*
X5145Y3010D01*
X5196D01*
X5222Y3035D01*
Y3162D01*
X5374Y3010D02*
X5272D01*
X5374Y3111D01*
Y3137D01*
X5348Y3162D01*
X5298D01*
X5272Y3137D01*
X5526Y3162D02*
X5425D01*
Y3086D01*
X5475Y3111D01*
X5501D01*
X5526Y3086D01*
Y3035D01*
X5501Y3010D01*
X5450D01*
X5425Y3035D01*
X4413Y3160D02*
Y3033D01*
X4438Y3008D01*
X4489D01*
X4514Y3033D01*
Y3160D01*
X4667Y3008D02*
X4565D01*
X4667Y3110D01*
Y3135D01*
X4641Y3160D01*
X4591D01*
X4565Y3135D01*
X4794Y3008D02*
Y3160D01*
X4718Y3084D01*
X4819D01*
X4246Y1972D02*
Y1845D01*
X4271Y1820D01*
X4322D01*
X4347Y1845D01*
Y1972D01*
X4500Y1820D02*
X4398D01*
X4500Y1921D01*
Y1947D01*
X4474Y1972D01*
X4424D01*
X4398Y1947D01*
X4551D02*
X4576Y1972D01*
X4627D01*
X4652Y1947D01*
Y1921D01*
X4627Y1896D01*
X4601D01*
X4627D01*
X4652Y1870D01*
Y1845D01*
X4627Y1820D01*
X4576D01*
X4551Y1845D01*
X4953Y1974D02*
Y1847D01*
X4978Y1821D01*
X5029D01*
X5055Y1847D01*
Y1974D01*
X5207Y1821D02*
X5105D01*
X5207Y1923D01*
Y1948D01*
X5181Y1974D01*
X5131D01*
X5105Y1948D01*
X5359Y1821D02*
X5258D01*
X5359Y1923D01*
Y1948D01*
X5334Y1974D01*
X5283D01*
X5258Y1948D01*
X4919Y1373D02*
Y1246D01*
X4944Y1220D01*
X4995D01*
X5021Y1246D01*
Y1373D01*
X5173Y1220D02*
X5071D01*
X5173Y1322D01*
Y1347D01*
X5147Y1373D01*
X5097D01*
X5071Y1347D01*
X5224Y1220D02*
X5274D01*
X5249D01*
Y1373D01*
X5224Y1347D01*
X4786Y785D02*
Y658D01*
X4811Y633D01*
X4862D01*
X4888Y658D01*
Y785D01*
X5040Y633D02*
X4938D01*
X5040Y735D01*
Y760D01*
X5014Y785D01*
X4964D01*
X4938Y760D01*
X5091D02*
X5116Y785D01*
X5167D01*
X5192Y760D01*
Y658D01*
X5167Y633D01*
X5116D01*
X5091Y658D01*
Y760D01*
X4079Y784D02*
Y657D01*
X4104Y631D01*
X4155D01*
X4180Y657D01*
Y784D01*
X4231Y631D02*
X4282D01*
X4257D01*
Y784D01*
X4231Y758D01*
X4358Y657D02*
X4384Y631D01*
X4434D01*
X4460Y657D01*
Y758D01*
X4434Y784D01*
X4384D01*
X4358Y758D01*
Y733D01*
X4384Y708D01*
X4460D01*
X3372Y782D02*
Y655D01*
X3397Y630D01*
X3448D01*
X3473Y655D01*
Y782D01*
X3524Y630D02*
X3575D01*
X3549D01*
Y782D01*
X3524Y757D01*
X3651D02*
X3676Y782D01*
X3727D01*
X3753Y757D01*
Y731D01*
X3727Y706D01*
X3753Y681D01*
Y655D01*
X3727Y630D01*
X3676D01*
X3651Y655D01*
Y681D01*
X3676Y706D01*
X3651Y731D01*
Y757D01*
X3676Y706D02*
X3727D01*
X3455Y1376D02*
Y1249D01*
X3481Y1224D01*
X3531D01*
X3557Y1249D01*
Y1376D01*
X3608Y1224D02*
X3658D01*
X3633D01*
Y1376D01*
X3608Y1351D01*
X3735Y1376D02*
X3836D01*
Y1351D01*
X3735Y1249D01*
Y1224D01*
X3539Y1970D02*
Y1843D01*
X3564Y1818D01*
X3615D01*
X3640Y1843D01*
Y1970D01*
X3691Y1818D02*
X3742D01*
X3716D01*
Y1970D01*
X3691Y1945D01*
X3920Y1970D02*
X3869Y1945D01*
X3818Y1894D01*
Y1843D01*
X3843Y1818D01*
X3894D01*
X3920Y1843D01*
Y1869D01*
X3894Y1894D01*
X3818D01*
X3622Y2565D02*
Y2438D01*
X3648Y2412D01*
X3698D01*
X3724Y2438D01*
Y2565D01*
X3775Y2412D02*
X3825D01*
X3800D01*
Y2565D01*
X3775Y2539D01*
X4003Y2565D02*
X3902D01*
Y2488D01*
X3952Y2514D01*
X3978D01*
X4003Y2488D01*
Y2438D01*
X3978Y2412D01*
X3927D01*
X3902Y2438D01*
X3755Y3152D02*
Y3025D01*
X3781Y2999D01*
X3831D01*
X3857Y3025D01*
Y3152D01*
X3908Y2999D02*
X3958D01*
X3933D01*
Y3152D01*
X3908Y3126D01*
X4111Y2999D02*
Y3152D01*
X4035Y3076D01*
X4136D01*
X2512Y2569D02*
Y2442D01*
X2537Y2417D01*
X2588D01*
X2614Y2442D01*
Y2569D01*
X2664Y2417D02*
X2715D01*
X2690D01*
Y2569D01*
X2664Y2544D01*
X2791D02*
X2817Y2569D01*
X2868D01*
X2893Y2544D01*
Y2518D01*
X2868Y2493D01*
X2842D01*
X2868D01*
X2893Y2468D01*
Y2442D01*
X2868Y2417D01*
X2817D01*
X2791Y2442D01*
X2645Y3156D02*
Y3029D01*
X2670Y3004D01*
X2721D01*
X2747Y3029D01*
Y3156D01*
X2797Y3004D02*
X2848D01*
X2823D01*
Y3156D01*
X2797Y3131D01*
X3026Y3004D02*
X2924D01*
X3026Y3106D01*
Y3131D01*
X3001Y3156D01*
X2950D01*
X2924Y3131D01*
X1945Y3204D02*
Y3077D01*
X1970Y3052D01*
X2021D01*
X2047Y3077D01*
Y3204D01*
X2097Y3052D02*
X2148D01*
X2123D01*
Y3204D01*
X2097Y3179D01*
X2224Y3052D02*
X2275D01*
X2250D01*
Y3204D01*
X2224Y3179D01*
X1721Y1973D02*
Y1846D01*
X1747Y1821D01*
X1798D01*
X1823Y1846D01*
Y1973D01*
X1874Y1821D02*
X1925D01*
X1899D01*
Y1973D01*
X1874Y1948D01*
X2001D02*
X2026Y1973D01*
X2077D01*
X2102Y1948D01*
Y1846D01*
X2077Y1821D01*
X2026D01*
X2001Y1846D01*
Y1948D01*
X2528Y1961D02*
Y1834D01*
X2553Y1809D01*
X2604D01*
X2629Y1834D01*
Y1961D01*
X2680Y1834D02*
X2705Y1809D01*
X2756D01*
X2782Y1834D01*
Y1936D01*
X2756Y1961D01*
X2705D01*
X2680Y1936D01*
Y1910D01*
X2705Y1885D01*
X2782D01*
X2444Y1367D02*
Y1240D01*
X2469Y1215D01*
X2520D01*
X2546Y1240D01*
Y1367D01*
X2596Y1342D02*
X2622Y1367D01*
X2673D01*
X2698Y1342D01*
Y1316D01*
X2673Y1291D01*
X2698Y1265D01*
Y1240D01*
X2673Y1215D01*
X2622D01*
X2596Y1240D01*
Y1265D01*
X2622Y1291D01*
X2596Y1316D01*
Y1342D01*
X2622Y1291D02*
X2673D01*
X2361Y773D02*
Y646D01*
X2386Y620D01*
X2437D01*
X2462Y646D01*
Y773D01*
X2513D02*
X2615D01*
Y747D01*
X2513Y646D01*
Y620D01*
X1653Y771D02*
Y644D01*
X1679Y619D01*
X1730D01*
X1755Y644D01*
Y771D01*
X1907D02*
X1857Y746D01*
X1806Y695D01*
Y644D01*
X1831Y619D01*
X1882D01*
X1907Y644D01*
Y670D01*
X1882Y695D01*
X1806D01*
X996Y763D02*
Y636D01*
X1021Y610D01*
X1072D01*
X1097Y636D01*
Y763D01*
X1250D02*
X1148D01*
Y686D01*
X1199Y712D01*
X1224D01*
X1250Y686D01*
Y636D01*
X1224Y610D01*
X1174D01*
X1148Y636D01*
X1030Y1364D02*
Y1237D01*
X1055Y1211D01*
X1106D01*
X1131Y1237D01*
Y1364D01*
X1258Y1211D02*
Y1364D01*
X1182Y1288D01*
X1284D01*
X1113Y1958D02*
Y1831D01*
X1139Y1805D01*
X1190D01*
X1215Y1831D01*
Y1958D01*
X1266Y1932D02*
X1291Y1958D01*
X1342D01*
X1367Y1932D01*
Y1907D01*
X1342Y1882D01*
X1317D01*
X1342D01*
X1367Y1856D01*
Y1831D01*
X1342Y1805D01*
X1291D01*
X1266Y1831D01*
X1197Y2552D02*
Y2425D01*
X1222Y2400D01*
X1273D01*
X1298Y2425D01*
Y2552D01*
X1451Y2400D02*
X1349D01*
X1451Y2501D01*
Y2527D01*
X1425Y2552D01*
X1375D01*
X1349Y2527D01*
X1287Y3196D02*
Y3069D01*
X1313Y3043D01*
X1364D01*
X1389Y3069D01*
Y3196D01*
X1440Y3043D02*
X1490D01*
X1465D01*
Y3196D01*
X1440Y3170D01*
X12100Y0D02*
G03*
X12300Y200I0J200D01*
G01*
Y3600D02*
G03*
X12100Y3800I-200J-0D01*
G01*
X0Y200D02*
G03*
X200Y0I200J0D01*
G01*
X200Y3800D02*
G03*
X0Y3600I0J-200D01*
G01*
X12300Y200D02*
Y3600D01*
X200Y3794D02*
X12100Y3800D01*
X0Y200D02*
Y3600D01*
X200Y0D02*
X12100D01*
D13*
X5259Y2971D02*
X5404D01*
X5259Y3191D02*
X5404D01*
Y2971D02*
Y3191D01*
X5259Y2971D02*
Y3191D01*
X11608Y2236D02*
Y2736D01*
X11108Y2236D02*
Y2736D01*
X11608D01*
X11108Y2236D02*
X11608D01*
X11191Y2831D02*
Y3331D01*
X11691Y2831D02*
Y3331D01*
X11191Y2831D02*
X11691D01*
X11191Y3331D02*
X11691D01*
X10984Y2829D02*
Y3329D01*
X10484Y2829D02*
Y3329D01*
X10984D01*
X10484Y2829D02*
X10984D01*
X10317Y1641D02*
Y2141D01*
X10817Y1641D02*
Y2141D01*
X10317Y1641D02*
X10817D01*
X10317Y2141D02*
X10817D01*
X11024Y1642D02*
Y2142D01*
X11524Y1642D02*
Y2142D01*
X11024Y1642D02*
X11524D01*
X11024Y2142D02*
X11524D01*
X11441Y1048D02*
Y1548D01*
X10941Y1048D02*
Y1548D01*
X11441D01*
X10941Y1048D02*
X11441D01*
X11350Y450D02*
Y950D01*
X10850Y450D02*
Y950D01*
X11350D01*
X10850Y450D02*
X11350D01*
X10650D02*
Y950D01*
X10150Y450D02*
Y950D01*
X10650D01*
X10150Y450D02*
X10650D01*
X9450Y450D02*
Y950D01*
X9950Y450D02*
Y950D01*
X9450Y450D02*
X9950D01*
X9450Y950D02*
X9950D01*
X9527Y1045D02*
Y1545D01*
X10027Y1045D02*
Y1545D01*
X9527Y1045D02*
X10027D01*
X9527Y1545D02*
X10027D01*
X9610Y1639D02*
Y2139D01*
X10110Y1639D02*
Y2139D01*
X9610Y1639D02*
X10110D01*
X9610Y2139D02*
X10110D01*
X9694Y2233D02*
Y2733D01*
X10194Y2233D02*
Y2733D01*
X9694Y2233D02*
X10194D01*
X9694Y2733D02*
X10194D01*
X9777Y2827D02*
Y3327D01*
X10277Y2827D02*
Y3327D01*
X9777Y2827D02*
X10277D01*
X9777Y3327D02*
X10277D01*
X8559Y2816D02*
Y3316D01*
X8059Y2816D02*
Y3316D01*
X8559D01*
X8059Y2816D02*
X8559D01*
X8766Y2818D02*
Y3318D01*
X9266Y2818D02*
Y3318D01*
X8766Y2818D02*
X9266D01*
X8766Y3318D02*
X9266D01*
X9182Y2224D02*
Y2724D01*
X8682Y2224D02*
Y2724D01*
X9182D01*
X8682Y2224D02*
X9182D01*
X8599Y1630D02*
Y2130D01*
X9099Y1630D02*
Y2130D01*
X8599Y1630D02*
X9099D01*
X8599Y2130D02*
X9099D01*
X7892Y1628D02*
Y2128D01*
X8392Y1628D02*
Y2128D01*
X7892Y1628D02*
X8392D01*
X7892Y2128D02*
X8392D01*
X9015Y1035D02*
Y1535D01*
X8515Y1035D02*
Y1535D01*
X9015D01*
X8515Y1035D02*
X9015D01*
X8932Y441D02*
Y941D01*
X8432Y441D02*
Y941D01*
X8932D01*
X8432Y441D02*
X8932D01*
X8225Y440D02*
Y940D01*
X7725Y440D02*
Y940D01*
X8225D01*
X7725Y440D02*
X8225D01*
X7018Y438D02*
Y938D01*
X7518Y438D02*
Y938D01*
X7018Y438D02*
X7518D01*
X7018Y938D02*
X7518D01*
X7101Y1032D02*
Y1532D01*
X7601Y1032D02*
Y1532D01*
X7101Y1032D02*
X7601D01*
X7101Y1532D02*
X7601D01*
X7185Y1626D02*
Y2126D01*
X7685Y1626D02*
Y2126D01*
X7185Y1626D02*
X7685D01*
X7185Y2126D02*
X7685D01*
X7268Y2221D02*
Y2721D01*
X7768Y2221D02*
Y2721D01*
X7268Y2221D02*
X7768D01*
X7268Y2721D02*
X7768D01*
X7352Y2815D02*
Y3315D01*
X7852Y2815D02*
Y3315D01*
X7352Y2815D02*
X7852D01*
X7352Y3315D02*
X7852D01*
X6442Y1044D02*
Y1544D01*
X5942Y1044D02*
Y1544D01*
X6442D01*
X5942Y1044D02*
X6442D01*
X6109Y2232D02*
Y2732D01*
X6609Y2232D02*
Y2732D01*
X6109Y2232D02*
X6609D01*
X6109Y2732D02*
X6609D01*
X5498Y2237D02*
Y2737D01*
X4998Y2237D02*
Y2737D01*
X5498D01*
X4998Y2237D02*
X5498D01*
X5082Y2831D02*
Y3331D01*
X5582Y2831D02*
Y3331D01*
X5082Y2831D02*
X5582D01*
X5082Y3331D02*
X5582D01*
X4875Y2829D02*
Y3329D01*
X4375Y2829D02*
Y3329D01*
X4875D01*
X4375Y2829D02*
X4875D01*
X4915Y1642D02*
Y2142D01*
X5415Y1642D02*
Y2142D01*
X4915Y1642D02*
X5415D01*
X4915Y2142D02*
X5415D01*
X4208Y1641D02*
Y2141D01*
X4708Y1641D02*
Y2141D01*
X4208Y1641D02*
X4708D01*
X4208Y2141D02*
X4708D01*
X5331Y1048D02*
Y1548D01*
X4831Y1048D02*
Y1548D01*
X5331D01*
X4831Y1048D02*
X5331D01*
X5250Y450D02*
Y950D01*
X4750Y450D02*
Y950D01*
X5250D01*
X4750Y450D02*
X5250D01*
X4541Y453D02*
Y953D01*
X4041Y453D02*
Y953D01*
X4541D01*
X4041Y453D02*
X4541D01*
X3334Y451D02*
Y951D01*
X3834Y451D02*
Y951D01*
X3334Y451D02*
X3834D01*
X3334Y951D02*
X3834D01*
X3417Y1045D02*
Y1545D01*
X3917Y1045D02*
Y1545D01*
X3417Y1045D02*
X3917D01*
X3417Y1545D02*
X3917D01*
X3501Y1639D02*
Y2139D01*
X4001Y1639D02*
Y2139D01*
X3501Y1639D02*
X4001D01*
X3501Y2139D02*
X4001D01*
X3584Y2233D02*
Y2733D01*
X4084Y2233D02*
Y2733D01*
X3584Y2233D02*
X4084D01*
X3584Y2733D02*
X4084D01*
X3668Y2828D02*
Y3328D01*
X4168Y2828D02*
Y3328D01*
X3668Y2828D02*
X4168D01*
X3668Y3328D02*
X4168D01*
X2974Y2238D02*
Y2738D01*
X2474Y2238D02*
Y2738D01*
X2974D01*
X2474Y2238D02*
X2974D01*
X2558Y2832D02*
Y3332D01*
X3058Y2832D02*
Y3332D01*
X2558Y2832D02*
X3058D01*
X2558Y3332D02*
X3058D01*
X2350Y2831D02*
Y3331D01*
X1850Y2831D02*
Y3331D01*
X2350D01*
X1850Y2831D02*
X2350D01*
X1683Y1642D02*
Y2142D01*
X2183Y1642D02*
Y2142D01*
X1683Y1642D02*
X2183D01*
X1683Y2142D02*
X2183D01*
X2391Y1644D02*
Y2144D01*
X2891Y1644D02*
Y2144D01*
X2391Y1644D02*
X2891D01*
X2391Y2144D02*
X2891D01*
X2807Y1050D02*
Y1550D01*
X2307Y1050D02*
Y1550D01*
X2807D01*
X2307Y1050D02*
X2807D01*
X2724Y455D02*
Y955D01*
X2224Y455D02*
Y955D01*
X2724D01*
X2224Y455D02*
X2724D01*
X2016Y454D02*
Y954D01*
X1516Y454D02*
Y954D01*
X2016D01*
X1516Y454D02*
X2016D01*
X809Y452D02*
Y952D01*
X1309Y452D02*
Y952D01*
X809Y452D02*
X1309D01*
X809Y952D02*
X1309D01*
X893Y1046D02*
Y1546D01*
X1393Y1046D02*
Y1546D01*
X893Y1046D02*
X1393D01*
X893Y1546D02*
X1393D01*
X976Y1641D02*
Y2141D01*
X1476Y1641D02*
Y2141D01*
X976Y1641D02*
X1476D01*
X976Y2141D02*
X1476D01*
X1060Y2235D02*
Y2735D01*
X1560Y2235D02*
Y2735D01*
X1060Y2235D02*
X1560D01*
X1060Y2735D02*
X1560D01*
X1143Y2829D02*
Y3329D01*
X1643Y2829D02*
Y3329D01*
X1143Y2829D02*
X1643D01*
X1143Y3329D02*
X1643D01*
X10495Y2001D02*
X10640D01*
X10495Y1781D02*
X10640D01*
X10495D02*
Y2001D01*
X10640Y1781D02*
Y2001D01*
X11202Y1782D02*
X11347D01*
X11202Y2002D02*
X11347D01*
Y1782D02*
Y2002D01*
X11202Y1782D02*
Y2002D01*
X11118Y1408D02*
X11263D01*
X11118Y1188D02*
X11263D01*
X11118D02*
Y1408D01*
X11263Y1188D02*
Y1408D01*
X11369Y2971D02*
X11514D01*
X11369Y3191D02*
X11514D01*
Y2971D02*
Y3191D01*
X11369Y2971D02*
Y3191D01*
X10662Y3189D02*
X10807D01*
X10662Y2969D02*
X10807D01*
X10662D02*
Y3189D01*
X10807Y2969D02*
Y3189D01*
X11285Y2596D02*
X11430D01*
X11285Y2376D02*
X11430D01*
X11285D02*
Y2596D01*
X11430Y2376D02*
Y2596D01*
X9871Y2373D02*
X10016D01*
X9871Y2593D02*
X10016D01*
Y2373D02*
Y2593D01*
X9871Y2373D02*
Y2593D01*
X9788Y1779D02*
X9933D01*
X9788Y1999D02*
X9933D01*
Y1779D02*
Y1999D01*
X9788Y1779D02*
Y1999D01*
X9704Y1185D02*
X9849D01*
X9704Y1405D02*
X9849D01*
Y1185D02*
Y1405D01*
X9704Y1185D02*
Y1405D01*
X9621Y591D02*
X9766D01*
X9621Y811D02*
X9766D01*
Y591D02*
Y811D01*
X9621Y591D02*
Y811D01*
X10328Y812D02*
X10473D01*
X10328Y592D02*
X10473D01*
X10328D02*
Y812D01*
X10473Y592D02*
Y812D01*
X8860Y2584D02*
X9005D01*
X8860Y2364D02*
X9005D01*
X8860D02*
Y2584D01*
X9005Y2364D02*
Y2584D01*
X8943Y2958D02*
X9088D01*
X8943Y3178D02*
X9088D01*
Y2958D02*
Y3178D01*
X8943Y2958D02*
Y3178D01*
X9955Y2967D02*
X10100D01*
X9955Y3187D02*
X10100D01*
Y2967D02*
Y3187D01*
X9955Y2967D02*
Y3187D01*
X8236Y3176D02*
X8381D01*
X8236Y2956D02*
X8381D01*
X8236D02*
Y3176D01*
X8381Y2956D02*
Y3176D01*
X8069Y1988D02*
X8214D01*
X8069Y1768D02*
X8214D01*
X8069D02*
Y1988D01*
X8214Y1768D02*
Y1988D01*
X8776Y1770D02*
X8921D01*
X8776Y1990D02*
X8921D01*
Y1770D02*
Y1990D01*
X8776Y1770D02*
Y1990D01*
X8693Y1175D02*
X8838D01*
X8693Y1395D02*
X8838D01*
Y1175D02*
Y1395D01*
X8693Y1175D02*
Y1395D01*
X11035Y814D02*
X11180D01*
X11035Y594D02*
X11180D01*
X11035D02*
Y814D01*
X11180Y594D02*
Y814D01*
X8609Y801D02*
X8754D01*
X8609Y581D02*
X8754D01*
X8609D02*
Y801D01*
X8754Y581D02*
Y801D01*
X7902Y800D02*
X8047D01*
X7902Y580D02*
X8047D01*
X7902D02*
Y800D01*
X8047Y580D02*
Y800D01*
X7195Y578D02*
X7340D01*
X7195Y798D02*
X7340D01*
Y578D02*
Y798D01*
X7195Y578D02*
Y798D01*
X7279Y1172D02*
X7424D01*
X7279Y1392D02*
X7424D01*
Y1172D02*
Y1392D01*
X7279Y1172D02*
Y1392D01*
X7362Y1766D02*
X7507D01*
X7362Y1986D02*
X7507D01*
Y1766D02*
Y1986D01*
X7362Y1766D02*
Y1986D01*
X7446Y2361D02*
X7591D01*
X7446Y2581D02*
X7591D01*
Y2361D02*
Y2581D01*
X7446Y2361D02*
Y2581D01*
X7529Y2955D02*
X7674D01*
X7529Y3175D02*
X7674D01*
Y2955D02*
Y3175D01*
X7529Y2955D02*
Y3175D01*
X6119Y1404D02*
X6264D01*
X6119Y1184D02*
X6264D01*
X6119D02*
Y1404D01*
X6264Y1184D02*
Y1404D01*
X6279Y2403D02*
X6424D01*
X6279Y2623D02*
X6424D01*
Y2403D02*
Y2623D01*
X6279Y2403D02*
Y2623D01*
X5176Y2377D02*
X5321D01*
X5176Y2597D02*
X5321D01*
Y2377D02*
Y2597D01*
X5176Y2377D02*
Y2597D01*
X4552Y3189D02*
X4697D01*
X4552Y2969D02*
X4697D01*
X4552D02*
Y3189D01*
X4697Y2969D02*
Y3189D01*
X4385Y2001D02*
X4530D01*
X4385Y1781D02*
X4530D01*
X4385D02*
Y2001D01*
X4530Y1781D02*
Y2001D01*
X5092Y1782D02*
X5237D01*
X5092Y2002D02*
X5237D01*
Y1782D02*
Y2002D01*
X5092Y1782D02*
Y2002D01*
X5009Y1188D02*
X5154D01*
X5009Y1408D02*
X5154D01*
Y1188D02*
Y1408D01*
X5009Y1188D02*
Y1408D01*
X4925Y814D02*
X5070D01*
X4925Y594D02*
X5070D01*
X4925D02*
Y814D01*
X5070Y594D02*
Y814D01*
X4218Y813D02*
X4363D01*
X4218Y593D02*
X4363D01*
X4218D02*
Y813D01*
X4363Y593D02*
Y813D01*
X3511Y591D02*
X3656D01*
X3511Y811D02*
X3656D01*
Y591D02*
Y811D01*
X3511Y591D02*
Y811D01*
X3595Y1185D02*
X3740D01*
X3595Y1405D02*
X3740D01*
Y1185D02*
Y1405D01*
X3595Y1185D02*
Y1405D01*
X3678Y1779D02*
X3823D01*
X3678Y1999D02*
X3823D01*
Y1779D02*
Y1999D01*
X3678Y1779D02*
Y1999D01*
X3762Y2373D02*
X3907D01*
X3762Y2593D02*
X3907D01*
Y2373D02*
Y2593D01*
X3762Y2373D02*
Y2593D01*
X3845Y2968D02*
X3990D01*
X3845Y3188D02*
X3990D01*
Y2968D02*
Y3188D01*
X3845Y2968D02*
Y3188D01*
X2735Y2972D02*
X2880D01*
X2735Y3192D02*
X2880D01*
Y2972D02*
Y3192D01*
X2735Y2972D02*
Y3192D01*
X2652Y2378D02*
X2797D01*
X2652Y2598D02*
X2797D01*
Y2378D02*
Y2598D01*
X2652Y2378D02*
Y2598D01*
X2028Y3191D02*
X2173D01*
X2028Y2971D02*
X2173D01*
X2028D02*
Y3191D01*
X2173Y2971D02*
Y3191D01*
X1861Y2002D02*
X2006D01*
X1861Y1782D02*
X2006D01*
X1861D02*
Y2002D01*
X2006Y1782D02*
Y2002D01*
X1237Y2375D02*
X1382D01*
X1237Y2595D02*
X1382D01*
Y2375D02*
Y2595D01*
X1237Y2375D02*
Y2595D01*
X2568Y1784D02*
X2713D01*
X2568Y2004D02*
X2713D01*
Y1784D02*
Y2004D01*
X2568Y1784D02*
Y2004D01*
X2485Y1190D02*
X2630D01*
X2485Y1410D02*
X2630D01*
Y1190D02*
Y1410D01*
X2485Y1190D02*
Y1410D01*
X2401Y815D02*
X2546D01*
X2401Y595D02*
X2546D01*
X2401D02*
Y815D01*
X2546Y595D02*
Y815D01*
X1070Y1186D02*
X1215D01*
X1070Y1406D02*
X1215D01*
Y1186D02*
Y1406D01*
X1070Y1186D02*
Y1406D01*
X1694Y814D02*
X1839D01*
X1694Y594D02*
X1839D01*
X1694D02*
Y814D01*
X1839Y594D02*
Y814D01*
X987Y592D02*
X1132D01*
X987Y812D02*
X1132D01*
Y592D02*
Y812D01*
X987Y592D02*
Y812D01*
X1154Y1781D02*
X1299D01*
X1154Y2001D02*
X1299D01*
Y1781D02*
Y2001D01*
X1154Y1781D02*
Y2001D01*
X1321Y2969D02*
X1466D01*
X1321Y3189D02*
X1466D01*
Y2969D02*
Y3189D01*
X1321Y2969D02*
Y3189D01*
X3250Y2648D02*
X3385D01*
X3250Y2868D02*
X3385D01*
Y2648D02*
Y2868D01*
X3250Y2648D02*
Y2868D01*
X5718Y2604D02*
X5853D01*
X5718Y2824D02*
X5853D01*
Y2604D02*
Y2824D01*
X5718Y2604D02*
Y2824D01*
X6877Y2813D02*
X7012D01*
X6877Y2593D02*
X7012D01*
X6877D02*
Y2813D01*
X7012Y2593D02*
Y2813D01*
X9366Y2917D02*
X9501D01*
X9366Y2697D02*
X9501D01*
X9366D02*
Y2917D01*
X9501Y2697D02*
Y2917D01*
D21*
X11745Y2321D02*
G03*
X11745Y2321I-12J0D01*
G01*
X11079Y3246D02*
G03*
X11079Y3246I-12J0D01*
G01*
X11122Y2914D02*
G03*
X11122Y2914I-12J0D01*
G01*
X10205Y2056D02*
G03*
X10205Y2056I-12J0D01*
G01*
X10912Y2057D02*
G03*
X10912Y2057I-12J0D01*
G01*
X11578Y1133D02*
G03*
X11578Y1133I-12J0D01*
G01*
X11488Y535D02*
G03*
X11488Y535I-12J0D01*
G01*
X10788D02*
G03*
X10788Y535I-12J0D01*
G01*
X9338Y865D02*
G03*
X9338Y865I-12J0D01*
G01*
X9414Y1460D02*
G03*
X9414Y1460I-12J0D01*
G01*
X9498Y2054D02*
G03*
X9498Y2054I-12J0D01*
G01*
X9581Y2648D02*
G03*
X9581Y2648I-12J0D01*
G01*
X9665Y3242D02*
G03*
X9665Y3242I-12J0D01*
G01*
X8696Y2901D02*
G03*
X8696Y2901I-12J0D01*
G01*
X8653Y3233D02*
G03*
X8653Y3233I-12J0D01*
G01*
X9320Y2309D02*
G03*
X9320Y2309I-12J0D01*
G01*
X8486Y2045D02*
G03*
X8486Y2045I-12J0D01*
G01*
X7779Y2043D02*
G03*
X7779Y2043I-12J0D01*
G01*
X9153Y1120D02*
G03*
X9153Y1120I-12J0D01*
G01*
X9069Y526D02*
G03*
X9069Y526I-12J0D01*
G01*
X8362Y525D02*
G03*
X8362Y525I-12J0D01*
G01*
X6905Y853D02*
G03*
X6905Y853I-12J0D01*
G01*
X6989Y1447D02*
G03*
X6989Y1447I-12J0D01*
G01*
X7072Y2041D02*
G03*
X7072Y2041I-12J0D01*
G01*
X7156Y2636D02*
G03*
X7156Y2636I-12J0D01*
G01*
X7239Y3230D02*
G03*
X7239Y3230I-12J0D01*
G01*
X6579Y1129D02*
G03*
X6579Y1129I-12J0D01*
G01*
X5996Y2647D02*
G03*
X5996Y2647I-12J0D01*
G01*
X5636Y2322D02*
G03*
X5636Y2322I-12J0D01*
G01*
X4969Y3246D02*
G03*
X4969Y3246I-12J0D01*
G01*
X5012Y2914D02*
G03*
X5012Y2914I-12J0D01*
G01*
X4802Y2057D02*
G03*
X4802Y2057I-12J0D01*
G01*
X4095Y2056D02*
G03*
X4095Y2056I-12J0D01*
G01*
X5469Y1133D02*
G03*
X5469Y1133I-12J0D01*
G01*
X5388Y535D02*
G03*
X5388Y535I-12J0D01*
G01*
X4678Y538D02*
G03*
X4678Y538I-12J0D01*
G01*
X3221Y866D02*
G03*
X3221Y866I-12J0D01*
G01*
X3305Y1460D02*
G03*
X3305Y1460I-12J0D01*
G01*
X3388Y2054D02*
G03*
X3388Y2054I-12J0D01*
G01*
X3472Y2648D02*
G03*
X3472Y2648I-12J0D01*
G01*
X3555Y3243D02*
G03*
X3555Y3243I-12J0D01*
G01*
X3112Y2323D02*
G03*
X3112Y2323I-12J0D01*
G01*
X2445Y3247D02*
G03*
X2445Y3247I-12J0D01*
G01*
X2488Y2916D02*
G03*
X2488Y2916I-12J0D01*
G01*
X1571Y2057D02*
G03*
X1571Y2057I-12J0D01*
G01*
X2278Y2059D02*
G03*
X2278Y2059I-12J0D01*
G01*
X2945Y1135D02*
G03*
X2945Y1135I-12J0D01*
G01*
X2861Y540D02*
G03*
X2861Y540I-12J0D01*
G01*
X2154Y539D02*
G03*
X2154Y539I-12J0D01*
G01*
X697Y867D02*
G03*
X697Y867I-12J0D01*
G01*
X780Y1461D02*
G03*
X780Y1461I-12J0D01*
G01*
X864Y2056D02*
G03*
X864Y2056I-12J0D01*
G01*
X947Y2650D02*
G03*
X947Y2650I-12J0D01*
G01*
X1031Y3244D02*
G03*
X1031Y3244I-12J0D01*
G01*
D22*
X11608Y2406D02*
Y2566D01*
X11108Y2736D02*
X11608D01*
X11108Y2406D02*
Y2566D01*
Y2236D02*
X11608D01*
X11191Y3001D02*
Y3161D01*
Y2831D02*
X11691D01*
Y3001D02*
Y3161D01*
X11191Y3331D02*
X11691D01*
X10984Y2999D02*
Y3159D01*
X10484Y3329D02*
X10984D01*
X10484Y2999D02*
Y3159D01*
Y2829D02*
X10984D01*
X10317Y1811D02*
Y1971D01*
Y1641D02*
X10817D01*
Y1811D02*
Y1971D01*
X10317Y2141D02*
X10817D01*
X11024Y1812D02*
Y1972D01*
Y1642D02*
X11524D01*
Y1812D02*
Y1972D01*
X11024Y2142D02*
X11524D01*
X11441Y1218D02*
Y1378D01*
X10941Y1548D02*
X11441D01*
X10941Y1218D02*
Y1378D01*
Y1048D02*
X11441D01*
X11350Y620D02*
Y780D01*
X10850Y950D02*
X11350D01*
X10850Y620D02*
Y780D01*
Y450D02*
X11350D01*
X10650Y620D02*
Y780D01*
X10150Y950D02*
X10650D01*
X10150Y620D02*
Y780D01*
Y450D02*
X10650D01*
X9450Y620D02*
Y780D01*
Y450D02*
X9950D01*
Y620D02*
Y780D01*
X9450Y950D02*
X9950D01*
X9527Y1215D02*
Y1375D01*
Y1045D02*
X10027D01*
Y1215D02*
Y1375D01*
X9527Y1545D02*
X10027D01*
X9610Y1809D02*
Y1969D01*
Y1639D02*
X10110D01*
Y1809D02*
Y1969D01*
X9610Y2139D02*
X10110D01*
X9694Y2403D02*
Y2563D01*
Y2233D02*
X10194D01*
Y2403D02*
Y2563D01*
X9694Y2733D02*
X10194D01*
X9777Y2997D02*
Y3157D01*
Y2827D02*
X10277D01*
Y2997D02*
Y3157D01*
X9777Y3327D02*
X10277D01*
X8559Y2986D02*
Y3146D01*
X8059Y3316D02*
X8559D01*
X8059Y2986D02*
Y3146D01*
Y2816D02*
X8559D01*
X8766Y2988D02*
Y3148D01*
Y2818D02*
X9266D01*
Y2988D02*
Y3148D01*
X8766Y3318D02*
X9266D01*
X9182Y2394D02*
Y2554D01*
X8682Y2724D02*
X9182D01*
X8682Y2394D02*
Y2554D01*
Y2224D02*
X9182D01*
X8599Y1800D02*
Y1960D01*
Y1630D02*
X9099D01*
Y1800D02*
Y1960D01*
X8599Y2130D02*
X9099D01*
X7892Y1798D02*
Y1958D01*
Y1628D02*
X8392D01*
Y1798D02*
Y1958D01*
X7892Y2128D02*
X8392D01*
X9015Y1205D02*
Y1365D01*
X8515Y1535D02*
X9015D01*
X8515Y1205D02*
Y1365D01*
Y1035D02*
X9015D01*
X8932Y611D02*
Y771D01*
X8432Y941D02*
X8932D01*
X8432Y611D02*
Y771D01*
Y441D02*
X8932D01*
X8225Y610D02*
Y770D01*
X7725Y940D02*
X8225D01*
X7725Y610D02*
Y770D01*
Y440D02*
X8225D01*
X7018Y608D02*
Y768D01*
Y438D02*
X7518D01*
Y608D02*
Y768D01*
X7018Y938D02*
X7518D01*
X7101Y1202D02*
Y1362D01*
Y1032D02*
X7601D01*
Y1202D02*
Y1362D01*
X7101Y1532D02*
X7601D01*
X7185Y1796D02*
Y1956D01*
Y1626D02*
X7685D01*
Y1796D02*
Y1956D01*
X7185Y2126D02*
X7685D01*
X7268Y2391D02*
Y2551D01*
Y2221D02*
X7768D01*
Y2391D02*
Y2551D01*
X7268Y2721D02*
X7768D01*
X7352Y2985D02*
Y3145D01*
Y2815D02*
X7852D01*
Y2985D02*
Y3145D01*
X7352Y3315D02*
X7852D01*
X6442Y1214D02*
Y1374D01*
X5942Y1544D02*
X6442D01*
X5942Y1214D02*
Y1374D01*
Y1044D02*
X6442D01*
X6109Y2402D02*
Y2562D01*
Y2232D02*
X6609D01*
Y2402D02*
Y2562D01*
X6109Y2732D02*
X6609D01*
X5498Y2407D02*
Y2567D01*
X4998Y2737D02*
X5498D01*
X4998Y2407D02*
Y2567D01*
Y2237D02*
X5498D01*
X5082Y3001D02*
Y3161D01*
Y2831D02*
X5582D01*
Y3001D02*
Y3161D01*
X5082Y3331D02*
X5582D01*
X4875Y2999D02*
Y3159D01*
X4375Y3329D02*
X4875D01*
X4375Y2999D02*
Y3159D01*
Y2829D02*
X4875D01*
X4915Y1812D02*
Y1972D01*
Y1642D02*
X5415D01*
Y1812D02*
Y1972D01*
X4915Y2142D02*
X5415D01*
X4208Y1811D02*
Y1971D01*
Y1641D02*
X4708D01*
Y1811D02*
Y1971D01*
X4208Y2141D02*
X4708D01*
X5331Y1218D02*
Y1378D01*
X4831Y1548D02*
X5331D01*
X4831Y1218D02*
Y1378D01*
Y1048D02*
X5331D01*
X5250Y620D02*
Y780D01*
X4750Y950D02*
X5250D01*
X4750Y620D02*
Y780D01*
Y450D02*
X5250D01*
X4541Y623D02*
Y783D01*
X4041Y953D02*
X4541D01*
X4041Y623D02*
Y783D01*
Y453D02*
X4541D01*
X3334Y621D02*
Y781D01*
Y451D02*
X3834D01*
Y621D02*
Y781D01*
X3334Y951D02*
X3834D01*
X3417Y1215D02*
Y1375D01*
Y1045D02*
X3917D01*
Y1215D02*
Y1375D01*
X3417Y1545D02*
X3917D01*
X3501Y1809D02*
Y1969D01*
Y1639D02*
X4001D01*
Y1809D02*
Y1969D01*
X3501Y2139D02*
X4001D01*
X3584Y2403D02*
Y2563D01*
Y2233D02*
X4084D01*
Y2403D02*
Y2563D01*
X3584Y2733D02*
X4084D01*
X3668Y2998D02*
Y3158D01*
Y2828D02*
X4168D01*
Y2998D02*
Y3158D01*
X3668Y3328D02*
X4168D01*
X2974Y2408D02*
Y2568D01*
X2474Y2738D02*
X2974D01*
X2474Y2408D02*
Y2568D01*
Y2238D02*
X2974D01*
X2558Y3002D02*
Y3162D01*
Y2832D02*
X3058D01*
Y3002D02*
Y3162D01*
X2558Y3332D02*
X3058D01*
X2350Y3001D02*
Y3161D01*
X1850Y3331D02*
X2350D01*
X1850Y3001D02*
Y3161D01*
Y2831D02*
X2350D01*
X1683Y1812D02*
Y1972D01*
Y1642D02*
X2183D01*
Y1812D02*
Y1972D01*
X1683Y2142D02*
X2183D01*
X2391Y1814D02*
Y1974D01*
Y1644D02*
X2891D01*
Y1814D02*
Y1974D01*
X2391Y2144D02*
X2891D01*
X2807Y1220D02*
Y1380D01*
X2307Y1550D02*
X2807D01*
X2307Y1220D02*
Y1380D01*
Y1050D02*
X2807D01*
X2724Y625D02*
Y785D01*
X2224Y955D02*
X2724D01*
X2224Y625D02*
Y785D01*
Y455D02*
X2724D01*
X2016Y624D02*
Y784D01*
X1516Y954D02*
X2016D01*
X1516Y624D02*
Y784D01*
Y454D02*
X2016D01*
X809Y622D02*
Y782D01*
Y452D02*
X1309D01*
Y622D02*
Y782D01*
X809Y952D02*
X1309D01*
X893Y1216D02*
Y1376D01*
Y1046D02*
X1393D01*
Y1216D02*
Y1376D01*
X893Y1546D02*
X1393D01*
X976Y1811D02*
Y1971D01*
Y1641D02*
X1476D01*
Y1811D02*
Y1971D01*
X976Y2141D02*
X1476D01*
X1060Y2405D02*
Y2565D01*
Y2235D02*
X1560D01*
Y2405D02*
Y2565D01*
X1060Y2735D02*
X1560D01*
X1143Y2999D02*
Y3159D01*
Y2829D02*
X1643D01*
Y2999D02*
Y3159D01*
X1143Y3329D02*
X1643D01*
M02*
