G04 Layer_Color=2752767*
%FSLAX42Y42*%
%MOMM*%
G71*
G01*
G75*
%ADD12C,0.25*%
%ADD13C,0.10*%
%ADD31C,0.05*%
%ADD32C,0.07*%
D12*
X12100Y0D02*
G03*
X12300Y200I0J200D01*
G01*
Y3600D02*
G03*
X12100Y3800I-200J-0D01*
G01*
X0Y200D02*
G03*
X200Y0I200J0D01*
G01*
X200Y3800D02*
G03*
X0Y3600I0J-200D01*
G01*
X12300Y200D02*
Y3600D01*
X200Y3794D02*
X12100Y3800D01*
X0Y200D02*
Y3600D01*
X200Y0D02*
X12100D01*
D13*
X5259Y2971D02*
X5404D01*
X5259Y3191D02*
X5404D01*
Y2971D02*
Y3191D01*
X5259Y2971D02*
Y3191D01*
X11608Y2236D02*
Y2736D01*
X11108Y2236D02*
Y2736D01*
X11608D01*
X11108Y2236D02*
X11608D01*
X11191Y2831D02*
Y3331D01*
X11691Y2831D02*
Y3331D01*
X11191Y2831D02*
X11691D01*
X11191Y3331D02*
X11691D01*
X10984Y2829D02*
Y3329D01*
X10484Y2829D02*
Y3329D01*
X10984D01*
X10484Y2829D02*
X10984D01*
X10317Y1641D02*
Y2141D01*
X10817Y1641D02*
Y2141D01*
X10317Y1641D02*
X10817D01*
X10317Y2141D02*
X10817D01*
X11024Y1642D02*
Y2142D01*
X11524Y1642D02*
Y2142D01*
X11024Y1642D02*
X11524D01*
X11024Y2142D02*
X11524D01*
X11441Y1048D02*
Y1548D01*
X10941Y1048D02*
Y1548D01*
X11441D01*
X10941Y1048D02*
X11441D01*
X11350Y450D02*
Y950D01*
X10850Y450D02*
Y950D01*
X11350D01*
X10850Y450D02*
X11350D01*
X10650D02*
Y950D01*
X10150Y450D02*
Y950D01*
X10650D01*
X10150Y450D02*
X10650D01*
X9450Y450D02*
Y950D01*
X9950Y450D02*
Y950D01*
X9450Y450D02*
X9950D01*
X9450Y950D02*
X9950D01*
X9527Y1045D02*
Y1545D01*
X10027Y1045D02*
Y1545D01*
X9527Y1045D02*
X10027D01*
X9527Y1545D02*
X10027D01*
X9610Y1639D02*
Y2139D01*
X10110Y1639D02*
Y2139D01*
X9610Y1639D02*
X10110D01*
X9610Y2139D02*
X10110D01*
X9694Y2233D02*
Y2733D01*
X10194Y2233D02*
Y2733D01*
X9694Y2233D02*
X10194D01*
X9694Y2733D02*
X10194D01*
X9777Y2827D02*
Y3327D01*
X10277Y2827D02*
Y3327D01*
X9777Y2827D02*
X10277D01*
X9777Y3327D02*
X10277D01*
X8559Y2816D02*
Y3316D01*
X8059Y2816D02*
Y3316D01*
X8559D01*
X8059Y2816D02*
X8559D01*
X8766Y2818D02*
Y3318D01*
X9266Y2818D02*
Y3318D01*
X8766Y2818D02*
X9266D01*
X8766Y3318D02*
X9266D01*
X9182Y2224D02*
Y2724D01*
X8682Y2224D02*
Y2724D01*
X9182D01*
X8682Y2224D02*
X9182D01*
X8599Y1630D02*
Y2130D01*
X9099Y1630D02*
Y2130D01*
X8599Y1630D02*
X9099D01*
X8599Y2130D02*
X9099D01*
X7892Y1628D02*
Y2128D01*
X8392Y1628D02*
Y2128D01*
X7892Y1628D02*
X8392D01*
X7892Y2128D02*
X8392D01*
X9015Y1035D02*
Y1535D01*
X8515Y1035D02*
Y1535D01*
X9015D01*
X8515Y1035D02*
X9015D01*
X8932Y441D02*
Y941D01*
X8432Y441D02*
Y941D01*
X8932D01*
X8432Y441D02*
X8932D01*
X8225Y440D02*
Y940D01*
X7725Y440D02*
Y940D01*
X8225D01*
X7725Y440D02*
X8225D01*
X7018Y438D02*
Y938D01*
X7518Y438D02*
Y938D01*
X7018Y438D02*
X7518D01*
X7018Y938D02*
X7518D01*
X7101Y1032D02*
Y1532D01*
X7601Y1032D02*
Y1532D01*
X7101Y1032D02*
X7601D01*
X7101Y1532D02*
X7601D01*
X7185Y1626D02*
Y2126D01*
X7685Y1626D02*
Y2126D01*
X7185Y1626D02*
X7685D01*
X7185Y2126D02*
X7685D01*
X7268Y2221D02*
Y2721D01*
X7768Y2221D02*
Y2721D01*
X7268Y2221D02*
X7768D01*
X7268Y2721D02*
X7768D01*
X7352Y2815D02*
Y3315D01*
X7852Y2815D02*
Y3315D01*
X7352Y2815D02*
X7852D01*
X7352Y3315D02*
X7852D01*
X6442Y1044D02*
Y1544D01*
X5942Y1044D02*
Y1544D01*
X6442D01*
X5942Y1044D02*
X6442D01*
X6109Y2232D02*
Y2732D01*
X6609Y2232D02*
Y2732D01*
X6109Y2232D02*
X6609D01*
X6109Y2732D02*
X6609D01*
X5498Y2237D02*
Y2737D01*
X4998Y2237D02*
Y2737D01*
X5498D01*
X4998Y2237D02*
X5498D01*
X5082Y2831D02*
Y3331D01*
X5582Y2831D02*
Y3331D01*
X5082Y2831D02*
X5582D01*
X5082Y3331D02*
X5582D01*
X4875Y2829D02*
Y3329D01*
X4375Y2829D02*
Y3329D01*
X4875D01*
X4375Y2829D02*
X4875D01*
X4915Y1642D02*
Y2142D01*
X5415Y1642D02*
Y2142D01*
X4915Y1642D02*
X5415D01*
X4915Y2142D02*
X5415D01*
X4208Y1641D02*
Y2141D01*
X4708Y1641D02*
Y2141D01*
X4208Y1641D02*
X4708D01*
X4208Y2141D02*
X4708D01*
X5331Y1048D02*
Y1548D01*
X4831Y1048D02*
Y1548D01*
X5331D01*
X4831Y1048D02*
X5331D01*
X5250Y450D02*
Y950D01*
X4750Y450D02*
Y950D01*
X5250D01*
X4750Y450D02*
X5250D01*
X4541Y453D02*
Y953D01*
X4041Y453D02*
Y953D01*
X4541D01*
X4041Y453D02*
X4541D01*
X3334Y451D02*
Y951D01*
X3834Y451D02*
Y951D01*
X3334Y451D02*
X3834D01*
X3334Y951D02*
X3834D01*
X3417Y1045D02*
Y1545D01*
X3917Y1045D02*
Y1545D01*
X3417Y1045D02*
X3917D01*
X3417Y1545D02*
X3917D01*
X3501Y1639D02*
Y2139D01*
X4001Y1639D02*
Y2139D01*
X3501Y1639D02*
X4001D01*
X3501Y2139D02*
X4001D01*
X3584Y2233D02*
Y2733D01*
X4084Y2233D02*
Y2733D01*
X3584Y2233D02*
X4084D01*
X3584Y2733D02*
X4084D01*
X3668Y2828D02*
Y3328D01*
X4168Y2828D02*
Y3328D01*
X3668Y2828D02*
X4168D01*
X3668Y3328D02*
X4168D01*
X2974Y2238D02*
Y2738D01*
X2474Y2238D02*
Y2738D01*
X2974D01*
X2474Y2238D02*
X2974D01*
X2558Y2832D02*
Y3332D01*
X3058Y2832D02*
Y3332D01*
X2558Y2832D02*
X3058D01*
X2558Y3332D02*
X3058D01*
X2350Y2831D02*
Y3331D01*
X1850Y2831D02*
Y3331D01*
X2350D01*
X1850Y2831D02*
X2350D01*
X1683Y1642D02*
Y2142D01*
X2183Y1642D02*
Y2142D01*
X1683Y1642D02*
X2183D01*
X1683Y2142D02*
X2183D01*
X2391Y1644D02*
Y2144D01*
X2891Y1644D02*
Y2144D01*
X2391Y1644D02*
X2891D01*
X2391Y2144D02*
X2891D01*
X2807Y1050D02*
Y1550D01*
X2307Y1050D02*
Y1550D01*
X2807D01*
X2307Y1050D02*
X2807D01*
X2724Y455D02*
Y955D01*
X2224Y455D02*
Y955D01*
X2724D01*
X2224Y455D02*
X2724D01*
X2016Y454D02*
Y954D01*
X1516Y454D02*
Y954D01*
X2016D01*
X1516Y454D02*
X2016D01*
X809Y452D02*
Y952D01*
X1309Y452D02*
Y952D01*
X809Y452D02*
X1309D01*
X809Y952D02*
X1309D01*
X893Y1046D02*
Y1546D01*
X1393Y1046D02*
Y1546D01*
X893Y1046D02*
X1393D01*
X893Y1546D02*
X1393D01*
X976Y1641D02*
Y2141D01*
X1476Y1641D02*
Y2141D01*
X976Y1641D02*
X1476D01*
X976Y2141D02*
X1476D01*
X1060Y2235D02*
Y2735D01*
X1560Y2235D02*
Y2735D01*
X1060Y2235D02*
X1560D01*
X1060Y2735D02*
X1560D01*
X1143Y2829D02*
Y3329D01*
X1643Y2829D02*
Y3329D01*
X1143Y2829D02*
X1643D01*
X1143Y3329D02*
X1643D01*
X10495Y2001D02*
X10640D01*
X10495Y1781D02*
X10640D01*
X10495D02*
Y2001D01*
X10640Y1781D02*
Y2001D01*
X11202Y1782D02*
X11347D01*
X11202Y2002D02*
X11347D01*
Y1782D02*
Y2002D01*
X11202Y1782D02*
Y2002D01*
X11118Y1408D02*
X11263D01*
X11118Y1188D02*
X11263D01*
X11118D02*
Y1408D01*
X11263Y1188D02*
Y1408D01*
X11369Y2971D02*
X11514D01*
X11369Y3191D02*
X11514D01*
Y2971D02*
Y3191D01*
X11369Y2971D02*
Y3191D01*
X10662Y3189D02*
X10807D01*
X10662Y2969D02*
X10807D01*
X10662D02*
Y3189D01*
X10807Y2969D02*
Y3189D01*
X11285Y2596D02*
X11430D01*
X11285Y2376D02*
X11430D01*
X11285D02*
Y2596D01*
X11430Y2376D02*
Y2596D01*
X9871Y2373D02*
X10016D01*
X9871Y2593D02*
X10016D01*
Y2373D02*
Y2593D01*
X9871Y2373D02*
Y2593D01*
X9788Y1779D02*
X9933D01*
X9788Y1999D02*
X9933D01*
Y1779D02*
Y1999D01*
X9788Y1779D02*
Y1999D01*
X9704Y1185D02*
X9849D01*
X9704Y1405D02*
X9849D01*
Y1185D02*
Y1405D01*
X9704Y1185D02*
Y1405D01*
X9621Y591D02*
X9766D01*
X9621Y811D02*
X9766D01*
Y591D02*
Y811D01*
X9621Y591D02*
Y811D01*
X10328Y812D02*
X10473D01*
X10328Y592D02*
X10473D01*
X10328D02*
Y812D01*
X10473Y592D02*
Y812D01*
X8860Y2584D02*
X9005D01*
X8860Y2364D02*
X9005D01*
X8860D02*
Y2584D01*
X9005Y2364D02*
Y2584D01*
X8943Y2958D02*
X9088D01*
X8943Y3178D02*
X9088D01*
Y2958D02*
Y3178D01*
X8943Y2958D02*
Y3178D01*
X9955Y2967D02*
X10100D01*
X9955Y3187D02*
X10100D01*
Y2967D02*
Y3187D01*
X9955Y2967D02*
Y3187D01*
X8236Y3176D02*
X8381D01*
X8236Y2956D02*
X8381D01*
X8236D02*
Y3176D01*
X8381Y2956D02*
Y3176D01*
X8069Y1988D02*
X8214D01*
X8069Y1768D02*
X8214D01*
X8069D02*
Y1988D01*
X8214Y1768D02*
Y1988D01*
X8776Y1770D02*
X8921D01*
X8776Y1990D02*
X8921D01*
Y1770D02*
Y1990D01*
X8776Y1770D02*
Y1990D01*
X8693Y1175D02*
X8838D01*
X8693Y1395D02*
X8838D01*
Y1175D02*
Y1395D01*
X8693Y1175D02*
Y1395D01*
X11035Y814D02*
X11180D01*
X11035Y594D02*
X11180D01*
X11035D02*
Y814D01*
X11180Y594D02*
Y814D01*
X8609Y801D02*
X8754D01*
X8609Y581D02*
X8754D01*
X8609D02*
Y801D01*
X8754Y581D02*
Y801D01*
X7902Y800D02*
X8047D01*
X7902Y580D02*
X8047D01*
X7902D02*
Y800D01*
X8047Y580D02*
Y800D01*
X7195Y578D02*
X7340D01*
X7195Y798D02*
X7340D01*
Y578D02*
Y798D01*
X7195Y578D02*
Y798D01*
X7279Y1172D02*
X7424D01*
X7279Y1392D02*
X7424D01*
Y1172D02*
Y1392D01*
X7279Y1172D02*
Y1392D01*
X7362Y1766D02*
X7507D01*
X7362Y1986D02*
X7507D01*
Y1766D02*
Y1986D01*
X7362Y1766D02*
Y1986D01*
X7446Y2361D02*
X7591D01*
X7446Y2581D02*
X7591D01*
Y2361D02*
Y2581D01*
X7446Y2361D02*
Y2581D01*
X7529Y2955D02*
X7674D01*
X7529Y3175D02*
X7674D01*
Y2955D02*
Y3175D01*
X7529Y2955D02*
Y3175D01*
X6119Y1404D02*
X6264D01*
X6119Y1184D02*
X6264D01*
X6119D02*
Y1404D01*
X6264Y1184D02*
Y1404D01*
X6279Y2403D02*
X6424D01*
X6279Y2623D02*
X6424D01*
Y2403D02*
Y2623D01*
X6279Y2403D02*
Y2623D01*
X5176Y2377D02*
X5321D01*
X5176Y2597D02*
X5321D01*
Y2377D02*
Y2597D01*
X5176Y2377D02*
Y2597D01*
X4552Y3189D02*
X4697D01*
X4552Y2969D02*
X4697D01*
X4552D02*
Y3189D01*
X4697Y2969D02*
Y3189D01*
X4385Y2001D02*
X4530D01*
X4385Y1781D02*
X4530D01*
X4385D02*
Y2001D01*
X4530Y1781D02*
Y2001D01*
X5092Y1782D02*
X5237D01*
X5092Y2002D02*
X5237D01*
Y1782D02*
Y2002D01*
X5092Y1782D02*
Y2002D01*
X5009Y1188D02*
X5154D01*
X5009Y1408D02*
X5154D01*
Y1188D02*
Y1408D01*
X5009Y1188D02*
Y1408D01*
X4925Y814D02*
X5070D01*
X4925Y594D02*
X5070D01*
X4925D02*
Y814D01*
X5070Y594D02*
Y814D01*
X4218Y813D02*
X4363D01*
X4218Y593D02*
X4363D01*
X4218D02*
Y813D01*
X4363Y593D02*
Y813D01*
X3511Y591D02*
X3656D01*
X3511Y811D02*
X3656D01*
Y591D02*
Y811D01*
X3511Y591D02*
Y811D01*
X3595Y1185D02*
X3740D01*
X3595Y1405D02*
X3740D01*
Y1185D02*
Y1405D01*
X3595Y1185D02*
Y1405D01*
X3678Y1779D02*
X3823D01*
X3678Y1999D02*
X3823D01*
Y1779D02*
Y1999D01*
X3678Y1779D02*
Y1999D01*
X3762Y2373D02*
X3907D01*
X3762Y2593D02*
X3907D01*
Y2373D02*
Y2593D01*
X3762Y2373D02*
Y2593D01*
X3845Y2968D02*
X3990D01*
X3845Y3188D02*
X3990D01*
Y2968D02*
Y3188D01*
X3845Y2968D02*
Y3188D01*
X2735Y2972D02*
X2880D01*
X2735Y3192D02*
X2880D01*
Y2972D02*
Y3192D01*
X2735Y2972D02*
Y3192D01*
X2652Y2378D02*
X2797D01*
X2652Y2598D02*
X2797D01*
Y2378D02*
Y2598D01*
X2652Y2378D02*
Y2598D01*
X2028Y3191D02*
X2173D01*
X2028Y2971D02*
X2173D01*
X2028D02*
Y3191D01*
X2173Y2971D02*
Y3191D01*
X1861Y2002D02*
X2006D01*
X1861Y1782D02*
X2006D01*
X1861D02*
Y2002D01*
X2006Y1782D02*
Y2002D01*
X1237Y2375D02*
X1382D01*
X1237Y2595D02*
X1382D01*
Y2375D02*
Y2595D01*
X1237Y2375D02*
Y2595D01*
X2568Y1784D02*
X2713D01*
X2568Y2004D02*
X2713D01*
Y1784D02*
Y2004D01*
X2568Y1784D02*
Y2004D01*
X2485Y1190D02*
X2630D01*
X2485Y1410D02*
X2630D01*
Y1190D02*
Y1410D01*
X2485Y1190D02*
Y1410D01*
X2401Y815D02*
X2546D01*
X2401Y595D02*
X2546D01*
X2401D02*
Y815D01*
X2546Y595D02*
Y815D01*
X1070Y1186D02*
X1215D01*
X1070Y1406D02*
X1215D01*
Y1186D02*
Y1406D01*
X1070Y1186D02*
Y1406D01*
X1694Y814D02*
X1839D01*
X1694Y594D02*
X1839D01*
X1694D02*
Y814D01*
X1839Y594D02*
Y814D01*
X987Y592D02*
X1132D01*
X987Y812D02*
X1132D01*
Y592D02*
Y812D01*
X987Y592D02*
Y812D01*
X1154Y1781D02*
X1299D01*
X1154Y2001D02*
X1299D01*
Y1781D02*
Y2001D01*
X1154Y1781D02*
Y2001D01*
X1321Y2969D02*
X1466D01*
X1321Y3189D02*
X1466D01*
Y2969D02*
Y3189D01*
X1321Y2969D02*
Y3189D01*
X3250Y2648D02*
X3385D01*
X3250Y2868D02*
X3385D01*
Y2648D02*
Y2868D01*
X3250Y2648D02*
Y2868D01*
X5718Y2604D02*
X5853D01*
X5718Y2824D02*
X5853D01*
Y2604D02*
Y2824D01*
X5718Y2604D02*
Y2824D01*
X6877Y2813D02*
X7012D01*
X6877Y2593D02*
X7012D01*
X6877D02*
Y2813D01*
X7012Y2593D02*
Y2813D01*
X9366Y2917D02*
X9501D01*
X9366Y2697D02*
X9501D01*
X9366D02*
Y2917D01*
X9501Y2697D02*
Y2917D01*
D31*
X11980Y3480D02*
Y3520D01*
X12020D01*
Y3480D01*
X11980D01*
Y280D02*
Y320D01*
X12020D01*
Y280D01*
X11980D01*
X280Y3480D02*
Y3520D01*
X320D01*
Y3480D01*
X280D01*
Y280D02*
Y320D01*
X320D01*
Y280D01*
X280D01*
X6161Y2490D02*
X6140Y2530D01*
X6181D01*
X6161Y2490D01*
X8173Y642D02*
X8153Y682D01*
X8193D01*
X8173Y642D01*
X7967Y973D02*
X7947Y1014D01*
X7987D01*
X7967Y973D01*
X5446Y2438D02*
X5426Y2479D01*
X5467D01*
X5446Y2438D01*
X2922Y2440D02*
X2902Y2480D01*
X2942D01*
X2922Y2440D01*
X2755Y1252D02*
X2735Y1292D01*
X2775D01*
X2755Y1252D01*
X8651Y1887D02*
X8631Y1928D01*
X8671D01*
X8651Y1887D01*
X11389Y1250D02*
X11369Y1291D01*
X11409D01*
X11389Y1250D01*
X7944Y1886D02*
X7924Y1926D01*
X7964D01*
X7944Y1886D01*
X6390Y1246D02*
X6369Y1286D01*
X6410D01*
X6390Y1246D01*
X5279Y1250D02*
X5259Y1291D01*
X5300D01*
X5279Y1250D01*
X4967Y1900D02*
X4947Y1941D01*
X4987D01*
X4967Y1900D01*
X4823Y3031D02*
X4803Y3072D01*
X4843D01*
X4823Y3031D01*
X10058Y1841D02*
X10038Y1881D01*
X10079D01*
X10058Y1841D01*
X3949Y1841D02*
X3928Y1882D01*
X3969D01*
X3949Y1841D01*
X4032Y2435D02*
X4012Y2476D01*
X4053D01*
X4032Y2435D01*
X2298Y3032D02*
X2278Y3073D01*
X2319D01*
X2298Y3032D01*
X2609Y3090D02*
X2589Y3130D01*
X2630D01*
X2609Y3090D01*
X2442Y1901D02*
X2422Y1942D01*
X2463D01*
X2442Y1901D01*
X1424Y1842D02*
X1404Y1883D01*
X1445D01*
X1424Y1842D01*
X9495Y708D02*
X9475Y749D01*
X9515D01*
X9495Y708D01*
X9579Y1302D02*
X9558Y1343D01*
X9599D01*
X9579Y1302D01*
X9662Y1897D02*
X9642Y1937D01*
X9682D01*
X9662Y1897D01*
X9746Y2491D02*
X9725Y2531D01*
X9766D01*
X9746Y2491D01*
X9829Y3085D02*
X9809Y3125D01*
X9849D01*
X9829Y3085D01*
X10932Y3031D02*
X10912Y3071D01*
X10953D01*
X10932Y3031D01*
X10369Y1898D02*
X10349Y1939D01*
X10389D01*
X10369Y1898D01*
X10598Y654D02*
X10578Y695D01*
X10619D01*
X10598Y654D01*
X11300Y680D02*
X11280Y720D01*
X11320D01*
X11300Y680D01*
X11556Y2438D02*
X11536Y2479D01*
X11576D01*
X11556Y2438D01*
X11243Y3088D02*
X11223Y3129D01*
X11264D01*
X11243Y3088D01*
X8800Y3080D02*
X8780Y3120D01*
X8820D01*
X8800Y3080D01*
X9131Y2426D02*
X9110Y2466D01*
X9151D01*
X9131Y2426D01*
X8964Y1237D02*
X8943Y1278D01*
X8984D01*
X8964Y1237D01*
X8880Y643D02*
X8860Y684D01*
X8900D01*
X8880Y643D01*
X8507Y3018D02*
X8487Y3059D01*
X8527D01*
X8507Y3018D01*
X7404Y3072D02*
X7383Y3113D01*
X7424D01*
X7404Y3072D01*
X7237Y1884D02*
X7216Y1925D01*
X7257D01*
X7237Y1884D01*
X7153Y1290D02*
X7133Y1330D01*
X7174D01*
X7153Y1290D01*
X7070Y696D02*
X7049Y736D01*
X7090D01*
X7070Y696D01*
X5994Y1301D02*
X5973Y1342D01*
X6014D01*
X5994Y1301D01*
X5200Y680D02*
X5180Y720D01*
X5220D01*
X5200Y680D01*
X5134Y3088D02*
X5114Y3129D01*
X5154D01*
X5134Y3088D01*
X4260Y1898D02*
X4239Y1939D01*
X4280D01*
X4260Y1898D01*
X4489Y654D02*
X4469Y695D01*
X4509D01*
X4489Y654D01*
X3400Y680D02*
X3380Y720D01*
X3420D01*
X3400Y680D01*
X3469Y1303D02*
X3449Y1343D01*
X3489D01*
X3469Y1303D01*
X3553Y1897D02*
X3532Y1937D01*
X3573D01*
X3553Y1897D01*
X3636Y2491D02*
X3616Y2532D01*
X3656D01*
X3636Y2491D01*
X3720Y3085D02*
X3699Y3126D01*
X3740D01*
X3720Y3085D01*
X1735Y1900D02*
X1715Y1940D01*
X1756D01*
X1735Y1900D01*
X861Y710D02*
X841Y750D01*
X882D01*
X861Y710D01*
X945Y1304D02*
X924Y1345D01*
X965D01*
X945Y1304D01*
X1028Y1898D02*
X1008Y1939D01*
X1049D01*
X1028Y1898D01*
X1112Y2492D02*
X1091Y2533D01*
X1132D01*
X1112Y2492D01*
X1195Y3086D02*
X1175Y3127D01*
X1216D01*
X1195Y3086D01*
X2672Y657D02*
X2651Y698D01*
X2692D01*
X2672Y657D01*
X10142Y2435D02*
X10121Y2476D01*
X10162D01*
X10142Y2435D01*
X10225Y3029D02*
X10205Y3070D01*
X10246D01*
X10225Y3029D01*
X9975Y1247D02*
X9954Y1287D01*
X9995D01*
X9975Y1247D01*
X9891Y653D02*
X9871Y693D01*
X9911D01*
X9891Y653D01*
X7466Y640D02*
X7445Y681D01*
X7486D01*
X7466Y640D01*
X7549Y1234D02*
X7529Y1275D01*
X7570D01*
X7549Y1234D01*
X7633Y1828D02*
X7613Y1869D01*
X7653D01*
X7633Y1828D01*
X7716Y2422D02*
X7696Y2463D01*
X7737D01*
X7716Y2422D01*
X7800Y3017D02*
X7780Y3057D01*
X7820D01*
X7800Y3017D01*
X3800Y680D02*
X3780Y720D01*
X3820D01*
X3800Y680D01*
X3865Y1247D02*
X3845Y1288D01*
X3886D01*
X3865Y1247D01*
X4116Y3029D02*
X4095Y3070D01*
X4136D01*
X4116Y3029D01*
X1257Y654D02*
X1237Y695D01*
X1278D01*
X1257Y654D01*
X1341Y1248D02*
X1321Y1289D01*
X1361D01*
X1341Y1248D01*
X1508Y2437D02*
X1488Y2477D01*
X1528D01*
X1508Y2437D01*
X1591Y3031D02*
X1571Y3071D01*
X1612D01*
X1591Y3031D01*
X3006Y3034D02*
X2985Y3075D01*
X3026D01*
X3006Y3034D01*
X2526Y2495D02*
X2506Y2536D01*
X2546D01*
X2526Y2495D01*
X2549Y1583D02*
X2529Y1624D01*
X2570D01*
X2549Y1583D01*
X1759Y988D02*
X1738Y1028D01*
X1779D01*
X1759Y988D01*
X1964Y656D02*
X1944Y696D01*
X1985D01*
X1964Y656D01*
X5530Y3033D02*
X5510Y3073D01*
X5550D01*
X5530Y3033D01*
X5050Y2494D02*
X5030Y2535D01*
X5071D01*
X5050Y2494D01*
X5074Y1582D02*
X5053Y1623D01*
X5094D01*
X5074Y1582D01*
X4300Y980D02*
X4280Y1020D01*
X4320D01*
X4300Y980D01*
X8758Y1569D02*
X8737Y1610D01*
X8778D01*
X8758Y1569D01*
X8734Y2481D02*
X8714Y2522D01*
X8755D01*
X8734Y2481D01*
X9214Y3020D02*
X9194Y3060D01*
X9234D01*
X9214Y3020D01*
X11160Y2494D02*
X11139Y2535D01*
X11180D01*
X11160Y2494D01*
X11183Y1582D02*
X11163Y1622D01*
X11203D01*
X11183Y1582D01*
X10400Y980D02*
X10380Y1020D01*
X10420D01*
X10400Y980D01*
X11639Y3032D02*
X11619Y3073D01*
X11660D01*
X11639Y3032D01*
X6557Y2434D02*
X6536Y2475D01*
X6577D01*
X6557Y2434D01*
X7320Y2478D02*
X7300Y2519D01*
X7341D01*
X7320Y2478D01*
X11500Y1880D02*
X11480Y1920D01*
X11520D01*
X11500Y1880D01*
D32*
X6971Y3106D02*
G03*
X6971Y3106I-20J0D01*
G01*
X9454Y3160D02*
G03*
X9454Y3160I-20J0D01*
G01*
Y2511D02*
G03*
X9454Y2511I-20J0D01*
G01*
X6862Y1606D02*
G03*
X6862Y1606I-20J0D01*
G01*
X5806Y3067D02*
G03*
X5806Y3067I-20J0D01*
G01*
Y2418D02*
G03*
X5806Y2418I-20J0D01*
G01*
X3338Y3111D02*
G03*
X3338Y3111I-20J0D01*
G01*
Y2462D02*
G03*
X3338Y2462I-20J0D01*
G01*
X920Y2400D02*
G03*
X920Y2400I-20J0D01*
G01*
X11869Y2651D02*
G03*
X11869Y2651I-20J0D01*
G01*
M02*
