G04 Layer_Color=65535*
%FSLAX42Y42*%
%MOMM*%
G71*
G01*
G75*
%ADD18C,0.25*%
%ADD19C,0.20*%
D18*
X11745Y2221D02*
G03*
X11745Y2221I-12J0D01*
G01*
X11079Y3146D02*
G03*
X11079Y3146I-12J0D01*
G01*
X11122Y2814D02*
G03*
X11122Y2814I-12J0D01*
G01*
X10205Y1956D02*
G03*
X10205Y1956I-12J0D01*
G01*
X10912Y1957D02*
G03*
X10912Y1957I-12J0D01*
G01*
X11578Y1033D02*
G03*
X11578Y1033I-12J0D01*
G01*
X11488Y435D02*
G03*
X11488Y435I-12J0D01*
G01*
X10788D02*
G03*
X10788Y435I-12J0D01*
G01*
X9338Y765D02*
G03*
X9338Y765I-12J0D01*
G01*
X9414Y1360D02*
G03*
X9414Y1360I-12J0D01*
G01*
X9498Y1954D02*
G03*
X9498Y1954I-12J0D01*
G01*
X9581Y2548D02*
G03*
X9581Y2548I-12J0D01*
G01*
X9665Y3142D02*
G03*
X9665Y3142I-12J0D01*
G01*
X9320Y2209D02*
G03*
X9320Y2209I-12J0D01*
G01*
X8653Y3133D02*
G03*
X8653Y3133I-12J0D01*
G01*
X8696Y2801D02*
G03*
X8696Y2801I-12J0D01*
G01*
X7779Y1943D02*
G03*
X7779Y1943I-12J0D01*
G01*
X8486Y1945D02*
G03*
X8486Y1945I-12J0D01*
G01*
X9153Y1020D02*
G03*
X9153Y1020I-12J0D01*
G01*
X9069Y426D02*
G03*
X9069Y426I-12J0D01*
G01*
X8362Y425D02*
G03*
X8362Y425I-12J0D01*
G01*
X6905Y753D02*
G03*
X6905Y753I-12J0D01*
G01*
X6989Y1347D02*
G03*
X6989Y1347I-12J0D01*
G01*
X7072Y1941D02*
G03*
X7072Y1941I-12J0D01*
G01*
X7156Y2536D02*
G03*
X7156Y2536I-12J0D01*
G01*
X7239Y3130D02*
G03*
X7239Y3130I-12J0D01*
G01*
X6579Y1029D02*
G03*
X6579Y1029I-12J0D01*
G01*
X5996Y2547D02*
G03*
X5996Y2547I-12J0D01*
G01*
X5636Y2222D02*
G03*
X5636Y2222I-12J0D01*
G01*
X4969Y3146D02*
G03*
X4969Y3146I-12J0D01*
G01*
X5012Y2814D02*
G03*
X5012Y2814I-12J0D01*
G01*
X4095Y1956D02*
G03*
X4095Y1956I-12J0D01*
G01*
X4802Y1957D02*
G03*
X4802Y1957I-12J0D01*
G01*
X5469Y1033D02*
G03*
X5469Y1033I-12J0D01*
G01*
X5388Y435D02*
G03*
X5388Y435I-12J0D01*
G01*
X4678Y438D02*
G03*
X4678Y438I-12J0D01*
G01*
X3221Y766D02*
G03*
X3221Y766I-12J0D01*
G01*
X3305Y1360D02*
G03*
X3305Y1360I-12J0D01*
G01*
X3388Y1954D02*
G03*
X3388Y1954I-12J0D01*
G01*
X3472Y2548D02*
G03*
X3472Y2548I-12J0D01*
G01*
X3555Y3143D02*
G03*
X3555Y3143I-12J0D01*
G01*
X3112Y2223D02*
G03*
X3112Y2223I-12J0D01*
G01*
X2445Y3147D02*
G03*
X2445Y3147I-12J0D01*
G01*
X2488Y2816D02*
G03*
X2488Y2816I-12J0D01*
G01*
X1571Y1957D02*
G03*
X1571Y1957I-12J0D01*
G01*
X2278Y1959D02*
G03*
X2278Y1959I-12J0D01*
G01*
X2945Y1035D02*
G03*
X2945Y1035I-12J0D01*
G01*
X2861Y440D02*
G03*
X2861Y440I-12J0D01*
G01*
X2154Y439D02*
G03*
X2154Y439I-12J0D01*
G01*
X697Y767D02*
G03*
X697Y767I-12J0D01*
G01*
X780Y1361D02*
G03*
X780Y1361I-12J0D01*
G01*
X864Y1956D02*
G03*
X864Y1956I-12J0D01*
G01*
X947Y2550D02*
G03*
X947Y2550I-12J0D01*
G01*
X1031Y3144D02*
G03*
X1031Y3144I-12J0D01*
G01*
D19*
X11608Y2306D02*
Y2466D01*
X11108Y2636D02*
X11608D01*
X11108Y2306D02*
Y2466D01*
Y2136D02*
X11608D01*
X11191Y2901D02*
Y3061D01*
Y2731D02*
X11691D01*
Y2901D02*
Y3061D01*
X11191Y3231D02*
X11691D01*
X10984Y2899D02*
Y3059D01*
X10484Y3229D02*
X10984D01*
X10484Y2899D02*
Y3059D01*
Y2729D02*
X10984D01*
X10317Y1711D02*
Y1871D01*
Y1541D02*
X10817D01*
Y1711D02*
Y1871D01*
X10317Y2041D02*
X10817D01*
X11024Y1712D02*
Y1872D01*
Y1542D02*
X11524D01*
Y1712D02*
Y1872D01*
X11024Y2042D02*
X11524D01*
X11441Y1118D02*
Y1278D01*
X10941Y1448D02*
X11441D01*
X10941Y1118D02*
Y1278D01*
Y948D02*
X11441D01*
X11350Y520D02*
Y680D01*
X10850Y850D02*
X11350D01*
X10850Y520D02*
Y680D01*
Y350D02*
X11350D01*
X10650Y520D02*
Y680D01*
X10150Y850D02*
X10650D01*
X10150Y520D02*
Y680D01*
Y350D02*
X10650D01*
X9450Y520D02*
Y680D01*
Y350D02*
X9950D01*
Y520D02*
Y680D01*
X9450Y850D02*
X9950D01*
X9527Y1115D02*
Y1275D01*
Y945D02*
X10027D01*
Y1115D02*
Y1275D01*
X9527Y1445D02*
X10027D01*
X9610Y1709D02*
Y1869D01*
Y1539D02*
X10110D01*
Y1709D02*
Y1869D01*
X9610Y2039D02*
X10110D01*
X9694Y2303D02*
Y2463D01*
Y2133D02*
X10194D01*
Y2303D02*
Y2463D01*
X9694Y2633D02*
X10194D01*
X9777Y2897D02*
Y3057D01*
Y2727D02*
X10277D01*
Y2897D02*
Y3057D01*
X9777Y3227D02*
X10277D01*
X9182Y2294D02*
Y2454D01*
X8682Y2624D02*
X9182D01*
X8682Y2294D02*
Y2454D01*
Y2124D02*
X9182D01*
X8766Y2888D02*
Y3048D01*
Y2718D02*
X9266D01*
Y2888D02*
Y3048D01*
X8766Y3218D02*
X9266D01*
X8559Y2886D02*
Y3046D01*
X8059Y3216D02*
X8559D01*
X8059Y2886D02*
Y3046D01*
Y2716D02*
X8559D01*
X7892Y1698D02*
Y1858D01*
Y1528D02*
X8392D01*
Y1698D02*
Y1858D01*
X7892Y2028D02*
X8392D01*
X8599Y1700D02*
Y1860D01*
Y1530D02*
X9099D01*
Y1700D02*
Y1860D01*
X8599Y2030D02*
X9099D01*
X9015Y1105D02*
Y1265D01*
X8515Y1435D02*
X9015D01*
X8515Y1105D02*
Y1265D01*
Y935D02*
X9015D01*
X8932Y511D02*
Y671D01*
X8432Y841D02*
X8932D01*
X8432Y511D02*
Y671D01*
Y341D02*
X8932D01*
X8225Y510D02*
Y670D01*
X7725Y840D02*
X8225D01*
X7725Y510D02*
Y670D01*
Y340D02*
X8225D01*
X7018Y508D02*
Y668D01*
Y338D02*
X7518D01*
Y508D02*
Y668D01*
X7018Y838D02*
X7518D01*
X7101Y1102D02*
Y1262D01*
Y932D02*
X7601D01*
Y1102D02*
Y1262D01*
X7101Y1432D02*
X7601D01*
X7185Y1696D02*
Y1856D01*
Y1526D02*
X7685D01*
Y1696D02*
Y1856D01*
X7185Y2026D02*
X7685D01*
X7268Y2291D02*
Y2451D01*
Y2121D02*
X7768D01*
Y2291D02*
Y2451D01*
X7268Y2621D02*
X7768D01*
X7352Y2885D02*
Y3045D01*
Y2715D02*
X7852D01*
Y2885D02*
Y3045D01*
X7352Y3215D02*
X7852D01*
X6442Y1114D02*
Y1274D01*
X5942Y1444D02*
X6442D01*
X5942Y1114D02*
Y1274D01*
Y944D02*
X6442D01*
X6109Y2302D02*
Y2462D01*
Y2132D02*
X6609D01*
Y2302D02*
Y2462D01*
X6109Y2632D02*
X6609D01*
X5498Y2307D02*
Y2467D01*
X4998Y2637D02*
X5498D01*
X4998Y2307D02*
Y2467D01*
Y2137D02*
X5498D01*
X5082Y2901D02*
Y3061D01*
Y2731D02*
X5582D01*
Y2901D02*
Y3061D01*
X5082Y3231D02*
X5582D01*
X4875Y2899D02*
Y3059D01*
X4375Y3229D02*
X4875D01*
X4375Y2899D02*
Y3059D01*
Y2729D02*
X4875D01*
X4208Y1711D02*
Y1871D01*
Y1541D02*
X4708D01*
Y1711D02*
Y1871D01*
X4208Y2041D02*
X4708D01*
X4915Y1712D02*
Y1872D01*
Y1542D02*
X5415D01*
Y1712D02*
Y1872D01*
X4915Y2042D02*
X5415D01*
X5331Y1118D02*
Y1278D01*
X4831Y1448D02*
X5331D01*
X4831Y1118D02*
Y1278D01*
Y948D02*
X5331D01*
X5250Y520D02*
Y680D01*
X4750Y850D02*
X5250D01*
X4750Y520D02*
Y680D01*
Y350D02*
X5250D01*
X4541Y523D02*
Y683D01*
X4041Y853D02*
X4541D01*
X4041Y523D02*
Y683D01*
Y353D02*
X4541D01*
X3334Y521D02*
Y681D01*
Y351D02*
X3834D01*
Y521D02*
Y681D01*
X3334Y851D02*
X3834D01*
X3417Y1115D02*
Y1275D01*
Y945D02*
X3917D01*
Y1115D02*
Y1275D01*
X3417Y1445D02*
X3917D01*
X3501Y1709D02*
Y1869D01*
Y1539D02*
X4001D01*
Y1709D02*
Y1869D01*
X3501Y2039D02*
X4001D01*
X3584Y2303D02*
Y2463D01*
Y2133D02*
X4084D01*
Y2303D02*
Y2463D01*
X3584Y2633D02*
X4084D01*
X3668Y2898D02*
Y3058D01*
Y2728D02*
X4168D01*
Y2898D02*
Y3058D01*
X3668Y3228D02*
X4168D01*
X2974Y2308D02*
Y2468D01*
X2474Y2638D02*
X2974D01*
X2474Y2308D02*
Y2468D01*
Y2138D02*
X2974D01*
X2558Y2902D02*
Y3062D01*
Y2732D02*
X3058D01*
Y2902D02*
Y3062D01*
X2558Y3232D02*
X3058D01*
X2350Y2901D02*
Y3061D01*
X1850Y3231D02*
X2350D01*
X1850Y2901D02*
Y3061D01*
Y2731D02*
X2350D01*
X1683Y1712D02*
Y1872D01*
Y1542D02*
X2183D01*
Y1712D02*
Y1872D01*
X1683Y2042D02*
X2183D01*
X2391Y1714D02*
Y1874D01*
Y1544D02*
X2891D01*
Y1714D02*
Y1874D01*
X2391Y2044D02*
X2891D01*
X2807Y1120D02*
Y1280D01*
X2307Y1450D02*
X2807D01*
X2307Y1120D02*
Y1280D01*
Y950D02*
X2807D01*
X2724Y525D02*
Y685D01*
X2224Y855D02*
X2724D01*
X2224Y525D02*
Y685D01*
Y355D02*
X2724D01*
X2016Y524D02*
Y684D01*
X1516Y854D02*
X2016D01*
X1516Y524D02*
Y684D01*
Y354D02*
X2016D01*
X809Y522D02*
Y682D01*
Y352D02*
X1309D01*
Y522D02*
Y682D01*
X809Y852D02*
X1309D01*
X893Y1116D02*
Y1276D01*
Y946D02*
X1393D01*
Y1116D02*
Y1276D01*
X893Y1446D02*
X1393D01*
X976Y1711D02*
Y1871D01*
Y1541D02*
X1476D01*
Y1711D02*
Y1871D01*
X976Y2041D02*
X1476D01*
X1060Y2305D02*
Y2465D01*
Y2135D02*
X1560D01*
Y2305D02*
Y2465D01*
X1060Y2635D02*
X1560D01*
X1143Y2899D02*
Y3059D01*
Y2729D02*
X1643D01*
Y2899D02*
Y3059D01*
X1143Y3229D02*
X1643D01*
X11290Y2470D02*
Y2387D01*
X11307Y2370D01*
X11340D01*
X11357Y2387D01*
Y2470D01*
X11457D02*
X11390D01*
Y2420D01*
X11423Y2437D01*
X11440D01*
X11457Y2420D01*
Y2387D01*
X11440Y2370D01*
X11407D01*
X11390Y2387D01*
X11540Y2370D02*
Y2470D01*
X11490Y2420D01*
X11557D01*
X11380Y3040D02*
Y2957D01*
X11397Y2940D01*
X11430D01*
X11447Y2957D01*
Y3040D01*
X11547D02*
X11480D01*
Y2990D01*
X11513Y3007D01*
X11530D01*
X11547Y2990D01*
Y2957D01*
X11530Y2940D01*
X11497D01*
X11480Y2957D01*
X11580Y3023D02*
X11597Y3040D01*
X11630D01*
X11647Y3023D01*
Y3007D01*
X11630Y2990D01*
X11613D01*
X11630D01*
X11647Y2973D01*
Y2957D01*
X11630Y2940D01*
X11597D01*
X11580Y2957D01*
X10651Y3060D02*
Y2977D01*
X10668Y2960D01*
X10701D01*
X10717Y2977D01*
Y3060D01*
X10817D02*
X10751D01*
Y3010D01*
X10784Y3027D01*
X10801D01*
X10817Y3010D01*
Y2977D01*
X10801Y2960D01*
X10767D01*
X10751Y2977D01*
X10917Y2960D02*
X10851D01*
X10917Y3027D01*
Y3044D01*
X10901Y3060D01*
X10867D01*
X10851Y3044D01*
X10538Y1895D02*
Y1811D01*
X10554Y1795D01*
X10588D01*
X10604Y1811D01*
Y1895D01*
X10704D02*
X10637D01*
Y1845D01*
X10671Y1861D01*
X10687D01*
X10704Y1845D01*
Y1811D01*
X10687Y1795D01*
X10654D01*
X10637Y1811D01*
X10737Y1795D02*
X10771D01*
X10754D01*
Y1895D01*
X10737Y1878D01*
X11220Y1850D02*
Y1767D01*
X11237Y1750D01*
X11270D01*
X11287Y1767D01*
Y1850D01*
X11387D02*
X11320D01*
Y1800D01*
X11353Y1817D01*
X11370D01*
X11387Y1800D01*
Y1767D01*
X11370Y1750D01*
X11337D01*
X11320Y1767D01*
X11420Y1833D02*
X11437Y1850D01*
X11470D01*
X11487Y1833D01*
Y1767D01*
X11470Y1750D01*
X11437D01*
X11420Y1767D01*
Y1833D01*
X11090Y1270D02*
Y1187D01*
X11107Y1170D01*
X11140D01*
X11157Y1187D01*
Y1270D01*
X11240Y1170D02*
Y1270D01*
X11190Y1220D01*
X11257D01*
X11290Y1187D02*
X11307Y1170D01*
X11340D01*
X11357Y1187D01*
Y1253D01*
X11340Y1270D01*
X11307D01*
X11290Y1253D01*
Y1237D01*
X11307Y1220D01*
X11357D01*
X11020Y670D02*
Y587D01*
X11037Y570D01*
X11070D01*
X11087Y587D01*
Y670D01*
X11170Y570D02*
Y670D01*
X11120Y620D01*
X11187D01*
X11220Y653D02*
X11237Y670D01*
X11270D01*
X11287Y653D01*
Y637D01*
X11270Y620D01*
X11287Y603D01*
Y587D01*
X11270Y570D01*
X11237D01*
X11220Y587D01*
Y603D01*
X11237Y620D01*
X11220Y637D01*
Y653D01*
X11237Y620D02*
X11270D01*
X10327Y682D02*
Y599D01*
X10343Y582D01*
X10377D01*
X10393Y599D01*
Y682D01*
X10477Y582D02*
Y682D01*
X10427Y632D01*
X10493D01*
X10527Y682D02*
X10593D01*
Y666D01*
X10527Y599D01*
Y582D01*
X9645Y647D02*
Y563D01*
X9662Y547D01*
X9695D01*
X9712Y563D01*
Y647D01*
X9795Y547D02*
Y647D01*
X9745Y597D01*
X9812D01*
X9912Y647D02*
X9878Y630D01*
X9845Y597D01*
Y563D01*
X9862Y547D01*
X9895D01*
X9912Y563D01*
Y580D01*
X9895Y597D01*
X9845D01*
X9743Y1269D02*
Y1186D01*
X9759Y1169D01*
X9793D01*
X9809Y1186D01*
Y1269D01*
X9893Y1169D02*
Y1269D01*
X9843Y1219D01*
X9909D01*
X10009Y1269D02*
X9943D01*
Y1219D01*
X9976Y1236D01*
X9993D01*
X10009Y1219D01*
Y1186D01*
X9993Y1169D01*
X9959D01*
X9943Y1186D01*
X9797Y1868D02*
Y1784D01*
X9813Y1768D01*
X9847D01*
X9863Y1784D01*
Y1868D01*
X9946Y1768D02*
Y1868D01*
X9897Y1818D01*
X9963D01*
X10046Y1768D02*
Y1868D01*
X9996Y1818D01*
X10063D01*
X9881Y2472D02*
Y2388D01*
X9898Y2372D01*
X9931D01*
X9948Y2388D01*
Y2472D01*
X10031Y2372D02*
Y2472D01*
X9981Y2422D01*
X10048D01*
X10081Y2455D02*
X10098Y2472D01*
X10131D01*
X10148Y2455D01*
Y2438D01*
X10131Y2422D01*
X10115D01*
X10131D01*
X10148Y2405D01*
Y2388D01*
X10131Y2372D01*
X10098D01*
X10081Y2388D01*
X9962Y3046D02*
Y2963D01*
X9979Y2946D01*
X10012D01*
X10029Y2963D01*
Y3046D01*
X10112Y2946D02*
Y3046D01*
X10062Y2996D01*
X10129D01*
X10229Y2946D02*
X10162D01*
X10229Y3013D01*
Y3029D01*
X10212Y3046D01*
X10179D01*
X10162Y3029D01*
X8862Y2403D02*
Y2320D01*
X8879Y2303D01*
X8912D01*
X8929Y2320D01*
Y2403D01*
X9012Y2303D02*
Y2403D01*
X8962Y2353D01*
X9029D01*
X9062Y2303D02*
X9095D01*
X9079D01*
Y2403D01*
X9062Y2386D01*
X8940Y3028D02*
Y2945D01*
X8956Y2928D01*
X8990D01*
X9006Y2945D01*
Y3028D01*
X9090Y2928D02*
Y3028D01*
X9040Y2978D01*
X9106D01*
X9140Y3011D02*
X9156Y3028D01*
X9190D01*
X9206Y3011D01*
Y2945D01*
X9190Y2928D01*
X9156D01*
X9140Y2945D01*
Y3011D01*
X8224Y3038D02*
Y2955D01*
X8241Y2938D01*
X8274D01*
X8291Y2955D01*
Y3038D01*
X8324Y3021D02*
X8341Y3038D01*
X8374D01*
X8391Y3021D01*
Y3005D01*
X8374Y2988D01*
X8357D01*
X8374D01*
X8391Y2971D01*
Y2955D01*
X8374Y2938D01*
X8341D01*
X8324Y2955D01*
X8424D02*
X8441Y2938D01*
X8474D01*
X8491Y2955D01*
Y3021D01*
X8474Y3038D01*
X8441D01*
X8424Y3021D01*
Y3005D01*
X8441Y2988D01*
X8491D01*
X8085Y1835D02*
Y1752D01*
X8102Y1735D01*
X8135D01*
X8152Y1752D01*
Y1835D01*
X8185Y1819D02*
X8202Y1835D01*
X8235D01*
X8252Y1819D01*
Y1802D01*
X8235Y1785D01*
X8219D01*
X8235D01*
X8252Y1769D01*
Y1752D01*
X8235Y1735D01*
X8202D01*
X8185Y1752D01*
X8285Y1819D02*
X8302Y1835D01*
X8335D01*
X8352Y1819D01*
Y1802D01*
X8335Y1785D01*
X8352Y1769D01*
Y1752D01*
X8335Y1735D01*
X8302D01*
X8285Y1752D01*
Y1769D01*
X8302Y1785D01*
X8285Y1802D01*
Y1819D01*
X8302Y1785D02*
X8335D01*
X8793Y1837D02*
Y1754D01*
X8809Y1737D01*
X8842D01*
X8859Y1754D01*
Y1837D01*
X8892Y1820D02*
X8909Y1837D01*
X8942D01*
X8959Y1820D01*
Y1804D01*
X8942Y1787D01*
X8926D01*
X8942D01*
X8959Y1770D01*
Y1754D01*
X8942Y1737D01*
X8909D01*
X8892Y1754D01*
X8992Y1837D02*
X9059D01*
Y1820D01*
X8992Y1754D01*
Y1737D01*
X8681Y1257D02*
Y1174D01*
X8697Y1157D01*
X8731D01*
X8747Y1174D01*
Y1257D01*
X8781Y1240D02*
X8797Y1257D01*
X8831D01*
X8847Y1240D01*
Y1224D01*
X8831Y1207D01*
X8814D01*
X8831D01*
X8847Y1190D01*
Y1174D01*
X8831Y1157D01*
X8797D01*
X8781Y1174D01*
X8947Y1257D02*
X8914Y1240D01*
X8881Y1207D01*
Y1174D01*
X8897Y1157D01*
X8931D01*
X8947Y1174D01*
Y1190D01*
X8931Y1207D01*
X8881D01*
X8616Y650D02*
Y567D01*
X8632Y550D01*
X8666D01*
X8682Y567D01*
Y650D01*
X8716Y633D02*
X8732Y650D01*
X8766D01*
X8782Y633D01*
Y617D01*
X8766Y600D01*
X8749D01*
X8766D01*
X8782Y583D01*
Y567D01*
X8766Y550D01*
X8732D01*
X8716Y567D01*
X8882Y650D02*
X8816D01*
Y600D01*
X8849Y617D01*
X8866D01*
X8882Y600D01*
Y567D01*
X8866Y550D01*
X8832D01*
X8816Y567D01*
X7901Y670D02*
Y586D01*
X7918Y570D01*
X7951D01*
X7968Y586D01*
Y670D01*
X8001Y653D02*
X8018Y670D01*
X8051D01*
X8068Y653D01*
Y636D01*
X8051Y620D01*
X8035D01*
X8051D01*
X8068Y603D01*
Y586D01*
X8051Y570D01*
X8018D01*
X8001Y586D01*
X8151Y570D02*
Y670D01*
X8101Y620D01*
X8168D01*
X7204Y667D02*
Y583D01*
X7221Y567D01*
X7254D01*
X7271Y583D01*
Y667D01*
X7304Y650D02*
X7321Y667D01*
X7354D01*
X7371Y650D01*
Y633D01*
X7354Y617D01*
X7337D01*
X7354D01*
X7371Y600D01*
Y583D01*
X7354Y567D01*
X7321D01*
X7304Y583D01*
X7404Y650D02*
X7421Y667D01*
X7454D01*
X7471Y650D01*
Y633D01*
X7454Y617D01*
X7437D01*
X7454D01*
X7471Y600D01*
Y583D01*
X7454Y567D01*
X7421D01*
X7404Y583D01*
X7285Y1241D02*
Y1158D01*
X7302Y1141D01*
X7335D01*
X7352Y1158D01*
Y1241D01*
X7385Y1224D02*
X7402Y1241D01*
X7435D01*
X7452Y1224D01*
Y1208D01*
X7435Y1191D01*
X7418D01*
X7435D01*
X7452Y1174D01*
Y1158D01*
X7435Y1141D01*
X7402D01*
X7385Y1158D01*
X7551Y1141D02*
X7485D01*
X7551Y1208D01*
Y1224D01*
X7535Y1241D01*
X7501D01*
X7485Y1224D01*
X7368Y1835D02*
Y1752D01*
X7385Y1735D01*
X7418D01*
X7435Y1752D01*
Y1835D01*
X7468Y1819D02*
X7485Y1835D01*
X7518D01*
X7535Y1819D01*
Y1802D01*
X7518Y1785D01*
X7502D01*
X7518D01*
X7535Y1769D01*
Y1752D01*
X7518Y1735D01*
X7485D01*
X7468Y1752D01*
X7568Y1735D02*
X7602D01*
X7585D01*
Y1835D01*
X7568Y1819D01*
X7459Y2408D02*
Y2325D01*
X7476Y2308D01*
X7509D01*
X7526Y2325D01*
Y2408D01*
X7559Y2392D02*
X7576Y2408D01*
X7609D01*
X7626Y2392D01*
Y2375D01*
X7609Y2358D01*
X7592D01*
X7609D01*
X7626Y2342D01*
Y2325D01*
X7609Y2308D01*
X7576D01*
X7559Y2325D01*
X7659Y2392D02*
X7676Y2408D01*
X7709D01*
X7726Y2392D01*
Y2325D01*
X7709Y2308D01*
X7676D01*
X7659Y2325D01*
Y2392D01*
X7551Y2991D02*
Y2908D01*
X7568Y2891D01*
X7601D01*
X7618Y2908D01*
Y2991D01*
X7718Y2891D02*
X7651D01*
X7718Y2958D01*
Y2974D01*
X7701Y2991D01*
X7668D01*
X7651Y2974D01*
X7751Y2908D02*
X7768Y2891D01*
X7801D01*
X7818Y2908D01*
Y2974D01*
X7801Y2991D01*
X7768D01*
X7751Y2974D01*
Y2958D01*
X7768Y2941D01*
X7818D01*
X6105Y1255D02*
Y1172D01*
X6122Y1155D01*
X6155D01*
X6172Y1172D01*
Y1255D01*
X6272Y1155D02*
X6205D01*
X6272Y1222D01*
Y1239D01*
X6255Y1255D01*
X6222D01*
X6205Y1239D01*
X6305D02*
X6322Y1255D01*
X6355D01*
X6372Y1239D01*
Y1222D01*
X6355Y1205D01*
X6372Y1189D01*
Y1172D01*
X6355Y1155D01*
X6322D01*
X6305Y1172D01*
Y1189D01*
X6322Y1205D01*
X6305Y1222D01*
Y1239D01*
X6322Y1205D02*
X6355D01*
X6316Y2468D02*
Y2385D01*
X6333Y2368D01*
X6366D01*
X6383Y2385D01*
Y2468D01*
X6483Y2368D02*
X6416D01*
X6483Y2434D01*
Y2451D01*
X6466Y2468D01*
X6433D01*
X6416Y2451D01*
X6516Y2468D02*
X6583D01*
Y2451D01*
X6516Y2385D01*
Y2368D01*
X5195Y2464D02*
Y2381D01*
X5211Y2364D01*
X5245D01*
X5261Y2381D01*
Y2464D01*
X5361Y2364D02*
X5295D01*
X5361Y2431D01*
Y2447D01*
X5345Y2464D01*
X5311D01*
X5295Y2447D01*
X5461Y2464D02*
X5428Y2447D01*
X5395Y2414D01*
Y2381D01*
X5411Y2364D01*
X5445D01*
X5461Y2381D01*
Y2397D01*
X5445Y2414D01*
X5395D01*
X5268Y3059D02*
Y2976D01*
X5285Y2959D01*
X5318D01*
X5335Y2976D01*
Y3059D01*
X5435Y2959D02*
X5368D01*
X5435Y3026D01*
Y3043D01*
X5418Y3059D01*
X5385D01*
X5368Y3043D01*
X5535Y3059D02*
X5468D01*
Y3009D01*
X5502Y3026D01*
X5518D01*
X5535Y3009D01*
Y2976D01*
X5518Y2959D01*
X5485D01*
X5468Y2976D01*
X4573Y3066D02*
Y2983D01*
X4589Y2966D01*
X4623D01*
X4639Y2983D01*
Y3066D01*
X4739Y2966D02*
X4672D01*
X4739Y3033D01*
Y3050D01*
X4722Y3066D01*
X4689D01*
X4672Y3050D01*
X4822Y2966D02*
Y3066D01*
X4772Y3016D01*
X4839D01*
X4393Y1860D02*
Y1776D01*
X4409Y1760D01*
X4443D01*
X4459Y1776D01*
Y1860D01*
X4559Y1760D02*
X4493D01*
X4559Y1826D01*
Y1843D01*
X4543Y1860D01*
X4509D01*
X4493Y1843D01*
X4593D02*
X4609Y1860D01*
X4643D01*
X4659Y1843D01*
Y1826D01*
X4643Y1810D01*
X4626D01*
X4643D01*
X4659Y1793D01*
Y1776D01*
X4643Y1760D01*
X4609D01*
X4593Y1776D01*
X5108Y1850D02*
Y1767D01*
X5125Y1750D01*
X5158D01*
X5175Y1767D01*
Y1850D01*
X5275Y1750D02*
X5208D01*
X5275Y1817D01*
Y1833D01*
X5258Y1850D01*
X5225D01*
X5208Y1833D01*
X5375Y1750D02*
X5308D01*
X5375Y1817D01*
Y1833D01*
X5358Y1850D01*
X5325D01*
X5308Y1833D01*
X5029Y1285D02*
Y1202D01*
X5046Y1185D01*
X5079D01*
X5096Y1202D01*
Y1285D01*
X5196Y1185D02*
X5129D01*
X5196Y1252D01*
Y1269D01*
X5179Y1285D01*
X5146D01*
X5129Y1269D01*
X5229Y1185D02*
X5262D01*
X5246D01*
Y1285D01*
X5229Y1269D01*
X4924Y684D02*
Y601D01*
X4941Y584D01*
X4974D01*
X4991Y601D01*
Y684D01*
X5091Y584D02*
X5024D01*
X5091Y651D01*
Y668D01*
X5074Y684D01*
X5041D01*
X5024Y668D01*
X5124D02*
X5141Y684D01*
X5174D01*
X5191Y668D01*
Y601D01*
X5174Y584D01*
X5141D01*
X5124Y601D01*
Y668D01*
X4227Y681D02*
Y598D01*
X4244Y581D01*
X4277D01*
X4294Y598D01*
Y681D01*
X4327Y581D02*
X4361D01*
X4344D01*
Y681D01*
X4327Y665D01*
X4410Y598D02*
X4427Y581D01*
X4460D01*
X4477Y598D01*
Y665D01*
X4460Y681D01*
X4427D01*
X4410Y665D01*
Y648D01*
X4427Y631D01*
X4477D01*
X3506Y651D02*
Y568D01*
X3523Y551D01*
X3556D01*
X3573Y568D01*
Y651D01*
X3606Y551D02*
X3639D01*
X3623D01*
Y651D01*
X3606Y635D01*
X3689D02*
X3706Y651D01*
X3739D01*
X3756Y635D01*
Y618D01*
X3739Y601D01*
X3756Y585D01*
Y568D01*
X3739Y551D01*
X3706D01*
X3689Y568D01*
Y585D01*
X3706Y601D01*
X3689Y618D01*
Y635D01*
X3706Y601D02*
X3739D01*
X3611Y1253D02*
Y1169D01*
X3627Y1153D01*
X3661D01*
X3677Y1169D01*
Y1253D01*
X3711Y1153D02*
X3744D01*
X3727D01*
Y1253D01*
X3711Y1236D01*
X3794Y1253D02*
X3861D01*
Y1236D01*
X3794Y1169D01*
Y1153D01*
X3707Y1865D02*
Y1782D01*
X3724Y1765D01*
X3757D01*
X3774Y1782D01*
Y1865D01*
X3807Y1765D02*
X3840D01*
X3824D01*
Y1865D01*
X3807Y1848D01*
X3957Y1865D02*
X3924Y1848D01*
X3890Y1815D01*
Y1782D01*
X3907Y1765D01*
X3940D01*
X3957Y1782D01*
Y1798D01*
X3940Y1815D01*
X3890D01*
X3758Y2444D02*
Y2360D01*
X3775Y2344D01*
X3808D01*
X3825Y2360D01*
Y2444D01*
X3858Y2344D02*
X3891D01*
X3875D01*
Y2444D01*
X3858Y2427D01*
X4008Y2444D02*
X3941D01*
Y2394D01*
X3975Y2410D01*
X3991D01*
X4008Y2394D01*
Y2360D01*
X3991Y2344D01*
X3958D01*
X3941Y2360D01*
X3851Y3036D02*
Y2953D01*
X3868Y2936D01*
X3901D01*
X3918Y2953D01*
Y3036D01*
X3951Y2936D02*
X3985D01*
X3968D01*
Y3036D01*
X3951Y3020D01*
X4085Y2936D02*
Y3036D01*
X4035Y2986D01*
X4101D01*
X2631Y2471D02*
Y2387D01*
X2647Y2371D01*
X2681D01*
X2697Y2387D01*
Y2471D01*
X2731Y2371D02*
X2764D01*
X2747D01*
Y2471D01*
X2731Y2454D01*
X2814D02*
X2831Y2471D01*
X2864D01*
X2881Y2454D01*
Y2437D01*
X2864Y2421D01*
X2847D01*
X2864D01*
X2881Y2404D01*
Y2387D01*
X2864Y2371D01*
X2831D01*
X2814Y2387D01*
X2726Y3073D02*
Y2990D01*
X2742Y2973D01*
X2776D01*
X2792Y2990D01*
Y3073D01*
X2826Y2973D02*
X2859D01*
X2842D01*
Y3073D01*
X2826Y3057D01*
X2975Y2973D02*
X2909D01*
X2975Y3040D01*
Y3057D01*
X2959Y3073D01*
X2925D01*
X2909Y3057D01*
X2050Y3078D02*
Y2994D01*
X2066Y2978D01*
X2100D01*
X2116Y2994D01*
Y3078D01*
X2150Y2978D02*
X2183D01*
X2166D01*
Y3078D01*
X2150Y3061D01*
X2233Y2978D02*
X2266D01*
X2249D01*
Y3078D01*
X2233Y3061D01*
X1868Y1861D02*
Y1778D01*
X1885Y1761D01*
X1918D01*
X1935Y1778D01*
Y1861D01*
X1968Y1761D02*
X2002D01*
X1985D01*
Y1861D01*
X1968Y1844D01*
X2052D02*
X2068Y1861D01*
X2102D01*
X2118Y1844D01*
Y1778D01*
X2102Y1761D01*
X2068D01*
X2052Y1778D01*
Y1844D01*
X2585Y1861D02*
Y1778D01*
X2602Y1761D01*
X2635D01*
X2652Y1778D01*
Y1861D01*
X2685Y1778D02*
X2702Y1761D01*
X2735D01*
X2752Y1778D01*
Y1844D01*
X2735Y1861D01*
X2702D01*
X2685Y1844D01*
Y1828D01*
X2702Y1811D01*
X2752D01*
X2510Y1256D02*
Y1172D01*
X2527Y1156D01*
X2560D01*
X2577Y1172D01*
Y1256D01*
X2610Y1239D02*
X2627Y1256D01*
X2660D01*
X2677Y1239D01*
Y1222D01*
X2660Y1206D01*
X2677Y1189D01*
Y1172D01*
X2660Y1156D01*
X2627D01*
X2610Y1172D01*
Y1189D01*
X2627Y1206D01*
X2610Y1222D01*
Y1239D01*
X2627Y1206D02*
X2660D01*
X2437Y660D02*
Y577D01*
X2454Y560D01*
X2487D01*
X2504Y577D01*
Y660D01*
X2537D02*
X2603D01*
Y643D01*
X2537Y577D01*
Y560D01*
X1709Y651D02*
Y568D01*
X1725Y551D01*
X1759D01*
X1775Y568D01*
Y651D01*
X1875D02*
X1842Y635D01*
X1809Y601D01*
Y568D01*
X1825Y551D01*
X1859D01*
X1875Y568D01*
Y585D01*
X1859Y601D01*
X1809D01*
X1021Y647D02*
Y564D01*
X1038Y547D01*
X1071D01*
X1088Y564D01*
Y647D01*
X1188D02*
X1121D01*
Y597D01*
X1155Y614D01*
X1171D01*
X1188Y597D01*
Y564D01*
X1171Y547D01*
X1138D01*
X1121Y564D01*
X1108Y1261D02*
Y1178D01*
X1124Y1161D01*
X1158D01*
X1174Y1178D01*
Y1261D01*
X1257Y1161D02*
Y1261D01*
X1208Y1211D01*
X1274D01*
X1191Y1855D02*
Y1772D01*
X1208Y1755D01*
X1241D01*
X1258Y1772D01*
Y1855D01*
X1291Y1838D02*
X1308Y1855D01*
X1341D01*
X1358Y1838D01*
Y1822D01*
X1341Y1805D01*
X1324D01*
X1341D01*
X1358Y1788D01*
Y1772D01*
X1341Y1755D01*
X1308D01*
X1291Y1772D01*
X1266Y2461D02*
Y2377D01*
X1283Y2361D01*
X1316D01*
X1333Y2377D01*
Y2461D01*
X1433Y2361D02*
X1366D01*
X1433Y2427D01*
Y2444D01*
X1416Y2461D01*
X1383D01*
X1366Y2444D01*
X1342Y3076D02*
Y2993D01*
X1359Y2976D01*
X1392D01*
X1409Y2993D01*
Y3076D01*
X1442Y2976D02*
X1476D01*
X1459D01*
Y3076D01*
X1442Y3059D01*
M02*
