M48
;Layer_Color=9474304
;FILE_FORMAT=4:2
METRIC,LZ
;TYPE=PLATED
T1F00S00C0.71
T2F00S00C2.00
%
T01
X000861Y00073
X001257Y000674
X001341Y001269
X000945Y001324
X001028Y001918
X001424Y001863
X001735Y00192
X002442Y001922
X002549Y001604
X002755Y001272
X002672Y000678
X001964Y000676
X001759Y001008
X0034Y0007
X0038
X003865Y001267
X003469Y001323
X003553Y001917
X003949Y001861
X00426Y001919
X004967Y00192
X005074Y001602
X005279Y00127
X0052Y0007
X004489Y000675
X0043Y001
X005994Y001322
X00639Y001266
X006841Y001606
X007153Y00131
X007549Y001254
X007466Y00066
X00707Y000716
X008173Y000662
X007967Y000994
X007944Y001906
X007633Y001849
X007237Y001904
X008651Y001907
X008758Y00159
X008964Y001258
X00888Y000663
X009495Y000729
X009891Y000673
X009975Y001267
X009579Y001323
X009662Y001917
X010058Y001861
X010369Y001918
X0104Y001
X010598Y000674
X0113Y0007
X011389Y00127
X011183Y001602
X0115Y0019
X011556Y002459
X01116Y002514
X011243Y003108
X010932Y003051
X010225Y003049
X009829Y003105
X009434Y00316
X009214Y00304
X0088Y0031
X008507Y003039
X008734Y002502
X009131Y002446
X009434Y002511
X009746Y002511
X010142Y002455
X011849Y002651
X011639Y003053
X0078Y003037
X007404Y003093
X006951Y003106
X00732Y002498
X007716Y002443
X006557Y002454
X006161Y00251
X005785Y002418
X005446Y002459
X00505Y002514
X005134Y003109
X004823Y003051
X00553Y003053
X005785Y003067
X004116Y00305
X00372Y003105
X003317Y003111
X003006Y003054
X002609Y00311
X002298Y003053
X001591Y003051
X001195Y003107
X001112Y002513
X0009Y0024
X001508Y002457
X002526Y002516
X002922Y00246
X003317Y002462
X003636Y002511
X004032Y002456
T02
X0003Y0003
X012
Y0035
X0003
M30
