G04 Layer_Physical_Order=1*
G04 Layer_Color=255*
%FSLAX42Y42*%
%MOMM*%
G71*
G01*
G75*
%ADD10R,1.50X0.90*%
%ADD11C,1.00*%
%ADD12C,0.25*%
%ADD13C,0.10*%
%ADD14C,3.50*%
%ADD15C,1.27*%
G36*
X11927Y3687D02*
X11923Y3686D01*
X11888Y3667D01*
X11858Y3642D01*
X11833Y3612D01*
X11814Y3577D01*
X11802Y3539D01*
X11799Y3500D01*
X11802Y3461D01*
X11814Y3423D01*
X11833Y3388D01*
X11858Y3358D01*
X11888Y3333D01*
X11923Y3314D01*
X11961Y3302D01*
X12000Y3299D01*
X12039Y3302D01*
X12077Y3314D01*
X12112Y3333D01*
X12142Y3358D01*
X12167Y3388D01*
X12186Y3423D01*
X12187Y3427D01*
X12200Y3425D01*
Y375D01*
X12187Y373D01*
X12186Y377D01*
X12167Y412D01*
X12142Y442D01*
X12112Y467D01*
X12077Y486D01*
X12039Y497D01*
X12000Y501D01*
X11961Y497D01*
X11923Y486D01*
X11888Y467D01*
X11858Y442D01*
X11833Y412D01*
X11814Y377D01*
X11802Y339D01*
X11799Y300D01*
X11802Y261D01*
X11814Y223D01*
X11833Y188D01*
X11858Y158D01*
X11888Y133D01*
X11923Y114D01*
X11927Y113D01*
X11925Y100D01*
X375D01*
X373Y113D01*
X377Y114D01*
X412Y133D01*
X442Y158D01*
X467Y188D01*
X486Y223D01*
X497Y261D01*
X501Y300D01*
X497Y339D01*
X486Y377D01*
X467Y412D01*
X442Y442D01*
X412Y467D01*
X377Y486D01*
X339Y497D01*
X300Y501D01*
X261Y497D01*
X223Y486D01*
X188Y467D01*
X158Y442D01*
X133Y412D01*
X114Y377D01*
X113Y373D01*
X100Y375D01*
Y3425D01*
X113Y3427D01*
X114Y3423D01*
X133Y3388D01*
X158Y3358D01*
X188Y3333D01*
X223Y3314D01*
X261Y3302D01*
X300Y3299D01*
X339Y3302D01*
X377Y3314D01*
X412Y3333D01*
X442Y3358D01*
X467Y3388D01*
X486Y3423D01*
X497Y3461D01*
X501Y3500D01*
X497Y3539D01*
X486Y3577D01*
X467Y3612D01*
X442Y3642D01*
X412Y3667D01*
X377Y3686D01*
X373Y3687D01*
X375Y3700D01*
X11925D01*
X11927Y3687D01*
D02*
G37*
%LPC*%
G36*
X999Y1449D02*
X797D01*
Y1416D01*
X799Y1407D01*
X805Y1398D01*
X813Y1393D01*
X823Y1391D01*
X868D01*
X874Y1378D01*
X867Y1369D01*
X858Y1347D01*
X857Y1337D01*
X1033D01*
X1031Y1347D01*
X1022Y1369D01*
X1008Y1388D01*
X992Y1400D01*
X997Y1407D01*
X999Y1416D01*
Y1449D01*
D02*
G37*
G36*
X3523Y1447D02*
X3321D01*
Y1415D01*
X3323Y1405D01*
X3329Y1397D01*
X3337Y1391D01*
X3347Y1389D01*
X3392D01*
X3398Y1377D01*
X3391Y1368D01*
X3383Y1346D01*
X3381Y1336D01*
X3557D01*
X3556Y1346D01*
X3547Y1368D01*
X3533Y1386D01*
X3517Y1399D01*
X3521Y1405D01*
X3523Y1415D01*
Y1447D01*
D02*
G37*
G36*
X6841Y1696D02*
X6818Y1693D01*
X6797Y1684D01*
X6778Y1670D01*
X6764Y1651D01*
X6755Y1630D01*
X6754Y1627D01*
X6662Y1535D01*
X6437D01*
X6417Y1532D01*
X6411Y1530D01*
X6362D01*
X6352Y1528D01*
X6343Y1522D01*
X6338Y1514D01*
X6336Y1504D01*
Y1414D01*
X6338Y1404D01*
X6343Y1395D01*
X6352Y1390D01*
X6362Y1388D01*
X6411D01*
X6417Y1385D01*
X6437Y1383D01*
X6694D01*
X6713Y1385D01*
X6732Y1393D01*
X6748Y1405D01*
X6862Y1519D01*
X6865Y1520D01*
X6886Y1529D01*
X6905Y1543D01*
X6919Y1562D01*
X6928Y1583D01*
X6931Y1606D01*
X6928Y1630D01*
X6919Y1651D01*
X6905Y1670D01*
X6886Y1684D01*
X6865Y1693D01*
X6841Y1696D01*
D02*
G37*
G36*
X7190Y1787D02*
X7170Y1785D01*
X7164Y1782D01*
X7115D01*
X7105Y1780D01*
X7096Y1775D01*
X7091Y1766D01*
X7089Y1756D01*
Y1666D01*
X7091Y1657D01*
X7096Y1648D01*
X7105Y1642D01*
X7114Y1641D01*
Y1612D01*
X7116Y1593D01*
X7124Y1574D01*
X7136Y1559D01*
X7165Y1530D01*
X7160Y1518D01*
X7119D01*
Y1460D01*
X7207D01*
Y1480D01*
X7220Y1487D01*
X7224Y1485D01*
X7244Y1482D01*
X7495D01*
Y1402D01*
X7497Y1392D01*
X7503Y1384D01*
X7511Y1378D01*
X7521Y1376D01*
X7570D01*
X7577Y1374D01*
X7596Y1371D01*
X7616Y1374D01*
X7622Y1376D01*
X7671D01*
X7681Y1378D01*
X7690Y1384D01*
X7695Y1392D01*
X7697Y1402D01*
Y1492D01*
X7695Y1502D01*
X7690Y1511D01*
X7681Y1516D01*
X7671Y1518D01*
X7670D01*
X7670Y1523D01*
X7662Y1542D01*
X7650Y1558D01*
X7595Y1612D01*
X7580Y1624D01*
X7561Y1632D01*
X7542Y1635D01*
X7286D01*
X7282Y1647D01*
X7283Y1648D01*
X7289Y1657D01*
X7291Y1666D01*
Y1756D01*
X7289Y1766D01*
X7283Y1775D01*
X7275Y1780D01*
X7265Y1782D01*
X7216D01*
X7209Y1785D01*
X7190Y1787D01*
D02*
G37*
G36*
X2768Y1360D02*
Y1285D01*
X2843D01*
X2842Y1295D01*
X2833Y1317D01*
X2818Y1335D01*
X2800Y1349D01*
X2778Y1358D01*
X2768Y1360D01*
D02*
G37*
G36*
X2742D02*
X2732Y1358D01*
X2710Y1349D01*
X2692Y1335D01*
X2677Y1317D01*
X2668Y1295D01*
X2667Y1285D01*
X2742D01*
Y1360D01*
D02*
G37*
G36*
X9633Y1447D02*
X9431D01*
Y1415D01*
X9433Y1405D01*
X9438Y1397D01*
X9447Y1391D01*
X9457Y1389D01*
X9501D01*
X9508Y1376D01*
X9501Y1368D01*
X9492Y1346D01*
X9491Y1335D01*
X9667D01*
X9665Y1346D01*
X9656Y1368D01*
X9642Y1386D01*
X9626Y1398D01*
X9631Y1405D01*
X9633Y1415D01*
Y1447D01*
D02*
G37*
G36*
X7207Y1435D02*
X7005D01*
Y1402D01*
X7007Y1392D01*
X7013Y1384D01*
X7021Y1378D01*
X7031Y1376D01*
X7076D01*
X7082Y1364D01*
X7076Y1355D01*
X7067Y1333D01*
X7065Y1323D01*
X7241D01*
X7240Y1333D01*
X7231Y1355D01*
X7217Y1373D01*
X7201Y1386D01*
X7205Y1392D01*
X7207Y1402D01*
Y1435D01*
D02*
G37*
G36*
X3410Y1531D02*
X3347D01*
X3337Y1529D01*
X3329Y1523D01*
X3323Y1515D01*
X3321Y1505D01*
Y1473D01*
X3410D01*
Y1531D01*
D02*
G37*
G36*
X9519Y1531D02*
X9457D01*
X9447Y1529D01*
X9438Y1523D01*
X9433Y1515D01*
X9431Y1505D01*
Y1473D01*
X9519D01*
Y1531D01*
D02*
G37*
G36*
X7633Y1938D02*
X7610Y1935D01*
X7588Y1926D01*
X7569Y1912D01*
X7555Y1893D01*
X7546Y1872D01*
X7543Y1849D01*
X7546Y1825D01*
X7555Y1804D01*
X7557Y1802D01*
Y1758D01*
X7559Y1739D01*
X7567Y1720D01*
X7579Y1705D01*
Y1666D01*
X7581Y1657D01*
X7586Y1648D01*
X7595Y1642D01*
X7605Y1641D01*
X7654D01*
X7660Y1638D01*
X7680Y1635D01*
X7699Y1638D01*
X7706Y1641D01*
X7755D01*
X7765Y1642D01*
X7773Y1648D01*
X7779Y1657D01*
X7781Y1666D01*
Y1756D01*
X7779Y1766D01*
X7773Y1775D01*
X7765Y1780D01*
X7755Y1782D01*
X7716D01*
X7709Y1790D01*
Y1802D01*
X7710Y1804D01*
X7719Y1825D01*
X7722Y1849D01*
X7719Y1872D01*
X7710Y1893D01*
X7696Y1912D01*
X7678Y1926D01*
X7656Y1935D01*
X7633Y1938D01*
D02*
G37*
G36*
X885Y1532D02*
X823D01*
X813Y1530D01*
X805Y1525D01*
X799Y1516D01*
X797Y1506D01*
Y1474D01*
X885D01*
Y1532D01*
D02*
G37*
G36*
X3506Y1800D02*
X3486Y1798D01*
X3480Y1795D01*
X3431D01*
X3421Y1793D01*
X3412Y1788D01*
X3407Y1779D01*
X3405Y1769D01*
Y1679D01*
X3407Y1669D01*
X3412Y1661D01*
X3421Y1655D01*
X3430Y1654D01*
Y1625D01*
X3432Y1606D01*
X3440Y1587D01*
X3452Y1571D01*
X3481Y1543D01*
X3476Y1531D01*
X3435D01*
Y1473D01*
X3523D01*
Y1492D01*
X3536Y1500D01*
X3540Y1498D01*
X3560Y1495D01*
X3811D01*
Y1415D01*
X3813Y1405D01*
X3819Y1397D01*
X3827Y1391D01*
X3837Y1389D01*
X3886D01*
X3893Y1387D01*
X3912Y1384D01*
X3932Y1387D01*
X3938Y1389D01*
X3987D01*
X3997Y1391D01*
X4006Y1397D01*
X4011Y1405D01*
X4013Y1415D01*
Y1505D01*
X4011Y1515D01*
X4006Y1523D01*
X3997Y1529D01*
X3987Y1531D01*
X3986D01*
X3986Y1536D01*
X3978Y1555D01*
X3966Y1570D01*
X3911Y1625D01*
X3896Y1637D01*
X3877Y1645D01*
X3857Y1647D01*
X3602D01*
X3598Y1660D01*
X3599Y1661D01*
X3605Y1669D01*
X3607Y1679D01*
Y1769D01*
X3605Y1779D01*
X3599Y1788D01*
X3591Y1793D01*
X3581Y1795D01*
X3532D01*
X3525Y1798D01*
X3506Y1800D01*
D02*
G37*
G36*
X9615Y1800D02*
X9595Y1797D01*
X9589Y1795D01*
X9540D01*
X9530Y1793D01*
X9522Y1787D01*
X9516Y1779D01*
X9514Y1769D01*
Y1679D01*
X9516Y1669D01*
X9522Y1661D01*
X9530Y1655D01*
X9539Y1653D01*
Y1625D01*
X9542Y1605D01*
X9549Y1587D01*
X9561Y1571D01*
X9590Y1542D01*
X9585Y1531D01*
X9544D01*
Y1473D01*
X9633D01*
Y1494D01*
X9633Y1495D01*
X9641Y1502D01*
X9645Y1503D01*
X9663Y1501D01*
X9921D01*
Y1415D01*
X9923Y1405D01*
X9928Y1397D01*
X9937Y1391D01*
X9947Y1389D01*
X9996D01*
X10002Y1386D01*
X10022Y1384D01*
X10041Y1386D01*
X10047Y1389D01*
X10097D01*
X10107Y1391D01*
X10115Y1397D01*
X10121Y1405D01*
X10123Y1415D01*
Y1505D01*
X10121Y1515D01*
X10115Y1523D01*
X10107Y1529D01*
X10097Y1531D01*
X10096D01*
X10095Y1536D01*
X10087Y1554D01*
X10075Y1570D01*
X10015Y1631D01*
X9999Y1643D01*
X9980Y1651D01*
X9961Y1653D01*
X9718D01*
X9712Y1666D01*
X9714Y1669D01*
X9716Y1679D01*
Y1769D01*
X9714Y1779D01*
X9708Y1787D01*
X9700Y1793D01*
X9690Y1795D01*
X9641D01*
X9635Y1797D01*
X9615Y1800D01*
D02*
G37*
G36*
X7094Y1518D02*
X7031D01*
X7021Y1516D01*
X7013Y1511D01*
X7007Y1502D01*
X7005Y1492D01*
Y1460D01*
X7094D01*
Y1518D01*
D02*
G37*
G36*
X981Y1802D02*
X962Y1799D01*
X955Y1797D01*
X906D01*
X896Y1795D01*
X888Y1789D01*
X882Y1781D01*
X880Y1771D01*
Y1681D01*
X882Y1671D01*
X888Y1662D01*
X896Y1657D01*
X905Y1655D01*
Y1627D01*
X908Y1607D01*
X915Y1589D01*
X928Y1573D01*
X956Y1544D01*
X951Y1532D01*
X911D01*
Y1474D01*
X999D01*
Y1493D01*
X1011Y1501D01*
X1016Y1499D01*
X1035Y1497D01*
X1287D01*
Y1416D01*
X1289Y1407D01*
X1295Y1398D01*
X1303Y1393D01*
X1313Y1391D01*
X1362D01*
X1368Y1388D01*
X1388Y1385D01*
X1408Y1388D01*
X1414Y1391D01*
X1463D01*
X1473Y1393D01*
X1481Y1398D01*
X1487Y1407D01*
X1489Y1416D01*
Y1506D01*
X1487Y1516D01*
X1481Y1525D01*
X1473Y1530D01*
X1463Y1532D01*
X1462D01*
X1461Y1538D01*
X1454Y1556D01*
X1442Y1572D01*
X1387Y1626D01*
X1371Y1639D01*
X1353Y1646D01*
X1333Y1649D01*
X1077D01*
X1073Y1661D01*
X1075Y1662D01*
X1080Y1671D01*
X1082Y1681D01*
Y1771D01*
X1080Y1781D01*
X1075Y1789D01*
X1066Y1795D01*
X1056Y1797D01*
X1007D01*
X1001Y1799D01*
X981Y1802D01*
D02*
G37*
G36*
X3557Y1310D02*
X3482D01*
Y1235D01*
X3492Y1236D01*
X3514Y1245D01*
X3533Y1260D01*
X3547Y1278D01*
X3556Y1300D01*
X3557Y1310D01*
D02*
G37*
G36*
X3456D02*
X3381D01*
X3383Y1300D01*
X3391Y1278D01*
X3406Y1260D01*
X3424Y1245D01*
X3446Y1236D01*
X3456Y1235D01*
Y1310D01*
D02*
G37*
G36*
X1033Y1312D02*
X957D01*
Y1236D01*
X968Y1238D01*
X990Y1247D01*
X1008Y1261D01*
X1022Y1279D01*
X1031Y1301D01*
X1033Y1312D01*
D02*
G37*
G36*
X932D02*
X857D01*
X858Y1301D01*
X867Y1279D01*
X881Y1261D01*
X900Y1247D01*
X922Y1238D01*
X932Y1236D01*
Y1312D01*
D02*
G37*
G36*
X6114Y2393D02*
X6094Y2391D01*
X6088Y2388D01*
X6039D01*
X6029Y2386D01*
X6020Y2380D01*
X6015Y2372D01*
X6013Y2362D01*
Y2272D01*
X6015Y2262D01*
X6020Y2254D01*
X6029Y2248D01*
X6038Y2246D01*
Y1800D01*
X5953Y1716D01*
X5844D01*
X5825Y1713D01*
X5806Y1705D01*
X5790Y1693D01*
X5713Y1616D01*
X5701Y1600D01*
X5693Y1582D01*
X5691Y1562D01*
Y1209D01*
X5693Y1189D01*
X5701Y1171D01*
X5713Y1155D01*
X5793Y1075D01*
X5809Y1063D01*
X5816Y1060D01*
X5827Y1055D01*
X5847Y1053D01*
X5947D01*
X5966Y1055D01*
X5972Y1058D01*
X6022D01*
X6031Y1060D01*
X6040Y1065D01*
X6046Y1074D01*
X6047Y1084D01*
Y1174D01*
X6046Y1184D01*
X6040Y1192D01*
X6031Y1198D01*
X6022Y1200D01*
X5972D01*
X5966Y1202D01*
X5947Y1205D01*
X5878D01*
X5843Y1240D01*
Y1388D01*
X5847Y1391D01*
X5856Y1394D01*
X5862Y1390D01*
X5871Y1388D01*
Y1369D01*
X5873Y1349D01*
X5881Y1331D01*
X5893Y1315D01*
X5907Y1301D01*
X5907Y1298D01*
X5916Y1277D01*
X5930Y1258D01*
X5949Y1244D01*
X5970Y1235D01*
X5994Y1232D01*
X6017Y1235D01*
X6038Y1244D01*
X6057Y1258D01*
X6071Y1277D01*
X6080Y1298D01*
X6083Y1322D01*
X6080Y1345D01*
X6071Y1366D01*
X6057Y1385D01*
X6041Y1397D01*
X6046Y1404D01*
X6047Y1414D01*
Y1504D01*
X6046Y1514D01*
X6040Y1522D01*
X6031Y1528D01*
X6022Y1530D01*
X5972D01*
X5966Y1532D01*
X5947Y1535D01*
X5927Y1532D01*
X5921Y1530D01*
X5872D01*
X5862Y1528D01*
X5851Y1536D01*
X5851Y1538D01*
X5851Y1539D01*
X5876Y1564D01*
X5985D01*
X6005Y1566D01*
X6023Y1574D01*
X6039Y1586D01*
X6167Y1714D01*
X6179Y1730D01*
X6183Y1738D01*
X6187Y1749D01*
X6190Y1768D01*
Y2246D01*
X6199Y2248D01*
X6207Y2254D01*
X6213Y2262D01*
X6214Y2272D01*
Y2362D01*
X6213Y2372D01*
X6207Y2380D01*
X6199Y2386D01*
X6189Y2388D01*
X6139D01*
X6133Y2391D01*
X6114Y2393D01*
D02*
G37*
G36*
X7241Y1297D02*
X7166D01*
Y1222D01*
X7176Y1223D01*
X7198Y1232D01*
X7217Y1247D01*
X7231Y1265D01*
X7240Y1287D01*
X7241Y1297D01*
D02*
G37*
G36*
X9667Y1310D02*
X9591D01*
Y1235D01*
X9602Y1236D01*
X9623Y1245D01*
X9642Y1259D01*
X9656Y1278D01*
X9665Y1299D01*
X9667Y1310D01*
D02*
G37*
G36*
X9566D02*
X9491D01*
X9492Y1299D01*
X9501Y1278D01*
X9515Y1259D01*
X9534Y1245D01*
X9555Y1236D01*
X9566Y1235D01*
Y1310D01*
D02*
G37*
G36*
X11402Y1358D02*
Y1283D01*
X11477D01*
X11475Y1293D01*
X11467Y1315D01*
X11452Y1334D01*
X11434Y1348D01*
X11412Y1357D01*
X11402Y1358D01*
D02*
G37*
G36*
X11376D02*
X11366Y1357D01*
X11344Y1348D01*
X11325Y1334D01*
X11311Y1315D01*
X11302Y1293D01*
X11301Y1283D01*
X11376D01*
Y1358D01*
D02*
G37*
G36*
X5292Y1358D02*
Y1283D01*
X5367D01*
X5366Y1294D01*
X5357Y1315D01*
X5343Y1334D01*
X5324Y1348D01*
X5303Y1357D01*
X5292Y1358D01*
D02*
G37*
G36*
X5267D02*
X5256Y1357D01*
X5235Y1348D01*
X5216Y1334D01*
X5202Y1315D01*
X5193Y1294D01*
X5191Y1283D01*
X5267D01*
Y1358D01*
D02*
G37*
G36*
X8976Y1346D02*
Y1270D01*
X9052D01*
X9050Y1281D01*
X9041Y1302D01*
X9027Y1321D01*
X9008Y1335D01*
X8987Y1344D01*
X8976Y1346D01*
D02*
G37*
G36*
X8951D02*
X8940Y1344D01*
X8919Y1335D01*
X8900Y1321D01*
X8886Y1302D01*
X8877Y1281D01*
X8876Y1270D01*
X8951D01*
Y1346D01*
D02*
G37*
G36*
X6402Y1354D02*
Y1279D01*
X6478D01*
X6476Y1289D01*
X6467Y1311D01*
X6453Y1329D01*
X6434Y1344D01*
X6413Y1353D01*
X6402Y1354D01*
D02*
G37*
G36*
X6377D02*
X6366Y1353D01*
X6345Y1344D01*
X6326Y1329D01*
X6312Y1311D01*
X6303Y1289D01*
X6302Y1279D01*
X6377D01*
Y1354D01*
D02*
G37*
G36*
X8064Y3307D02*
X8044Y3305D01*
X8038Y3302D01*
X7989D01*
X7979Y3300D01*
X7971Y3295D01*
X7965Y3286D01*
X7963Y3276D01*
Y3186D01*
X7965Y3176D01*
X7971Y3168D01*
X7979Y3162D01*
X7988Y3161D01*
Y3135D01*
X7987Y3135D01*
X7822D01*
X7802Y3132D01*
X7783Y3124D01*
X7783Y3124D01*
X7777Y3124D01*
X7755Y3115D01*
X7736Y3100D01*
X7722Y3082D01*
X7713Y3060D01*
X7710Y3037D01*
X7713Y3014D01*
X7722Y2992D01*
X7724Y2990D01*
Y2947D01*
X7726Y2927D01*
X7734Y2909D01*
X7746Y2893D01*
Y2855D01*
X7748Y2845D01*
X7753Y2836D01*
X7762Y2831D01*
X7772Y2829D01*
X7821D01*
X7827Y2826D01*
X7847Y2824D01*
X7866Y2826D01*
X7873Y2829D01*
X7922D01*
X7932Y2831D01*
X7940Y2836D01*
X7946Y2845D01*
X7948Y2855D01*
Y2945D01*
X7946Y2955D01*
X7940Y2963D01*
X7932Y2969D01*
X7926Y2970D01*
X7927Y2983D01*
X7973D01*
X7978Y2971D01*
X7978Y2970D01*
X7971Y2965D01*
X7965Y2956D01*
X7963Y2946D01*
Y2856D01*
X7965Y2846D01*
X7971Y2838D01*
X7979Y2832D01*
X7988Y2831D01*
Y2252D01*
X7990Y2233D01*
X7998Y2214D01*
X8010Y2199D01*
X8059Y2150D01*
Y1817D01*
X8033Y1792D01*
X7899D01*
X7880Y1789D01*
X7867Y1784D01*
X7822D01*
X7812Y1782D01*
X7804Y1776D01*
X7798Y1768D01*
X7796Y1758D01*
Y1668D01*
X7798Y1658D01*
X7804Y1650D01*
X7812Y1644D01*
X7822Y1642D01*
X7871D01*
X7877Y1640D01*
X7897Y1637D01*
X7916Y1640D01*
X8065D01*
X8084Y1642D01*
X8103Y1650D01*
X8118Y1662D01*
X8189Y1732D01*
X8201Y1748D01*
X8204Y1756D01*
X8208Y1766D01*
X8211Y1786D01*
Y2181D01*
X8208Y2201D01*
X8201Y2219D01*
X8189Y2235D01*
X8140Y2284D01*
Y2831D01*
X8149Y2832D01*
X8157Y2838D01*
X8163Y2846D01*
X8165Y2856D01*
Y2946D01*
X8163Y2956D01*
X8157Y2965D01*
X8149Y2970D01*
X8139Y2972D01*
X8090D01*
X8084Y2975D01*
X8064Y2977D01*
X8048Y2975D01*
X8044Y2987D01*
X8057Y2993D01*
X8073Y3005D01*
X8118Y3050D01*
X8130Y3066D01*
X8137Y3084D01*
X8140Y3104D01*
Y3161D01*
X8149Y3162D01*
X8157Y3168D01*
X8163Y3176D01*
X8165Y3186D01*
Y3276D01*
X8163Y3286D01*
X8157Y3295D01*
X8149Y3300D01*
X8139Y3302D01*
X8090D01*
X8084Y3305D01*
X8064Y3307D01*
D02*
G37*
G36*
X4348Y1906D02*
X4272D01*
Y1831D01*
X4283Y1832D01*
X4305Y1841D01*
X4323Y1855D01*
X4337Y1874D01*
X4346Y1896D01*
X4348Y1906D01*
D02*
G37*
G36*
X4247D02*
X4172D01*
X4173Y1896D01*
X4182Y1874D01*
X4196Y1855D01*
X4215Y1841D01*
X4237Y1832D01*
X4247Y1831D01*
Y1906D01*
D02*
G37*
G36*
X1823Y1907D02*
X1748D01*
Y1832D01*
X1759Y1833D01*
X1780Y1842D01*
X1799Y1857D01*
X1813Y1875D01*
X1822Y1897D01*
X1823Y1907D01*
D02*
G37*
G36*
X1723D02*
X1647D01*
X1649Y1897D01*
X1658Y1875D01*
X1672Y1857D01*
X1691Y1842D01*
X1712Y1833D01*
X1723Y1832D01*
Y1907D01*
D02*
G37*
G36*
X10457Y1906D02*
X10382D01*
Y1830D01*
X10392Y1832D01*
X10414Y1841D01*
X10433Y1855D01*
X10447Y1874D01*
X10456Y1895D01*
X10457Y1906D01*
D02*
G37*
G36*
X10356D02*
X10281D01*
X10283Y1895D01*
X10292Y1874D01*
X10306Y1855D01*
X10324Y1841D01*
X10346Y1832D01*
X10356Y1830D01*
Y1906D01*
D02*
G37*
G36*
X1116Y1906D02*
X1041D01*
Y1830D01*
X1051Y1832D01*
X1073Y1841D01*
X1092Y1855D01*
X1106Y1874D01*
X1115Y1895D01*
X1116Y1906D01*
D02*
G37*
G36*
X1016D02*
X940D01*
X942Y1895D01*
X951Y1874D01*
X965Y1855D01*
X983Y1841D01*
X1005Y1832D01*
X1016Y1830D01*
Y1906D01*
D02*
G37*
G36*
X7998Y2030D02*
X7796D01*
Y1998D01*
X7798Y1988D01*
X7804Y1980D01*
X7812Y1974D01*
X7822Y1972D01*
X7867D01*
X7873Y1959D01*
X7866Y1951D01*
X7857Y1929D01*
X7856Y1919D01*
X8032D01*
X8030Y1929D01*
X8021Y1951D01*
X8007Y1969D01*
X7991Y1981D01*
X7996Y1988D01*
X7998Y1998D01*
Y2030D01*
D02*
G37*
G36*
X7291Y2029D02*
X7089D01*
Y1996D01*
X7091Y1987D01*
X7096Y1978D01*
X7105Y1972D01*
X7115Y1971D01*
X7160D01*
X7166Y1958D01*
X7159Y1949D01*
X7150Y1927D01*
X7149Y1917D01*
X7325D01*
X7323Y1927D01*
X7314Y1949D01*
X7300Y1968D01*
X7284Y1980D01*
X7289Y1987D01*
X7291Y1996D01*
Y2029D01*
D02*
G37*
G36*
X9716Y2041D02*
X9514D01*
Y2009D01*
X9516Y1999D01*
X9522Y1991D01*
X9530Y1985D01*
X9540Y1983D01*
X9585D01*
X9591Y1970D01*
X9584Y1962D01*
X9575Y1940D01*
X9574Y1930D01*
X9750D01*
X9749Y1940D01*
X9740Y1962D01*
X9725Y1980D01*
X9710Y1992D01*
X9714Y1999D01*
X9716Y2009D01*
Y2041D01*
D02*
G37*
G36*
X8705Y2032D02*
X8503D01*
Y2000D01*
X8505Y1990D01*
X8511Y1981D01*
X8519Y1976D01*
X8529Y1974D01*
X8574D01*
X8580Y1961D01*
X8573Y1952D01*
X8564Y1931D01*
X8563Y1920D01*
X8739D01*
X8738Y1931D01*
X8729Y1952D01*
X8714Y1971D01*
X8698Y1983D01*
X8703Y1990D01*
X8705Y2000D01*
Y2032D01*
D02*
G37*
G36*
X5055Y1908D02*
X4980D01*
Y1832D01*
X4990Y1834D01*
X5012Y1843D01*
X5030Y1857D01*
X5045Y1875D01*
X5053Y1897D01*
X5055Y1908D01*
D02*
G37*
G36*
X5497Y2134D02*
X5410D01*
X5390Y2131D01*
X5384Y2128D01*
X5335D01*
X5325Y2126D01*
X5317Y2121D01*
X5311Y2112D01*
X5309Y2102D01*
Y2012D01*
X5311Y2003D01*
X5317Y1994D01*
X5325Y1989D01*
X5335Y1987D01*
X5384D01*
X5390Y1984D01*
X5410Y1981D01*
X5466D01*
X5500Y1948D01*
Y1807D01*
X5487Y1798D01*
X5485Y1798D01*
X5436D01*
X5430Y1801D01*
X5410Y1804D01*
X5390Y1801D01*
X5384Y1798D01*
X5335D01*
X5325Y1796D01*
X5317Y1791D01*
X5311Y1782D01*
X5309Y1772D01*
Y1684D01*
X5304Y1678D01*
X5121D01*
X5118Y1680D01*
X5097Y1689D01*
X5074Y1692D01*
X5050Y1689D01*
X5033Y1682D01*
X5023Y1688D01*
X5021Y1690D01*
Y1772D01*
X5019Y1782D01*
X5013Y1791D01*
X5005Y1796D01*
X4995Y1798D01*
X4957D01*
X4929Y1826D01*
X4936Y1837D01*
X4944Y1834D01*
X4954Y1832D01*
Y1908D01*
X4879D01*
X4880Y1901D01*
X4868Y1895D01*
X4789Y1974D01*
X4788Y1977D01*
X4791Y1989D01*
X4796Y1993D01*
X4802Y2001D01*
X4804Y2011D01*
Y2101D01*
X4802Y2111D01*
X4796Y2119D01*
X4788Y2125D01*
X4778Y2127D01*
X4729D01*
X4722Y2129D01*
X4703Y2132D01*
X4683Y2129D01*
X4677Y2127D01*
X4628D01*
X4618Y2125D01*
X4610Y2119D01*
X4604Y2111D01*
X4602Y2101D01*
Y2011D01*
X4604Y2001D01*
X4610Y1993D01*
X4618Y1987D01*
X4627Y1985D01*
Y1953D01*
X4629Y1933D01*
X4637Y1914D01*
X4649Y1899D01*
X4732Y1816D01*
X4729Y1801D01*
X4723Y1799D01*
X4722Y1799D01*
X4703Y1802D01*
X4683Y1799D01*
X4677Y1797D01*
X4628D01*
X4618Y1795D01*
X4610Y1789D01*
X4604Y1781D01*
X4602Y1771D01*
Y1681D01*
X4604Y1671D01*
X4610Y1663D01*
X4618Y1657D01*
X4628Y1655D01*
X4633D01*
X4637Y1645D01*
X4649Y1630D01*
X4730Y1549D01*
X4741Y1540D01*
X4743Y1528D01*
X4742Y1524D01*
X4737Y1518D01*
X4736Y1508D01*
Y1418D01*
X4737Y1408D01*
X4743Y1400D01*
X4752Y1394D01*
X4761Y1392D01*
X4811D01*
X4817Y1390D01*
X4836Y1387D01*
X4856Y1390D01*
X4862Y1392D01*
X4911D01*
X4921Y1394D01*
X4930Y1400D01*
X4935Y1408D01*
X4937Y1418D01*
Y1507D01*
X4956Y1526D01*
X5027D01*
X5029Y1525D01*
X5050Y1516D01*
X5074Y1513D01*
X5097Y1516D01*
X5118Y1525D01*
X5121Y1526D01*
X5219D01*
X5227Y1514D01*
X5226Y1508D01*
Y1418D01*
X5227Y1408D01*
X5233Y1400D01*
X5242Y1394D01*
X5251Y1392D01*
X5301D01*
X5307Y1390D01*
X5326Y1387D01*
X5483D01*
X5502Y1390D01*
X5521Y1397D01*
X5537Y1410D01*
X5630Y1503D01*
X5642Y1518D01*
X5649Y1537D01*
X5652Y1556D01*
Y1979D01*
X5649Y1999D01*
X5645Y2010D01*
X5642Y2017D01*
X5630Y2033D01*
X5551Y2111D01*
X5535Y2123D01*
X5517Y2131D01*
X5497Y2134D01*
D02*
G37*
G36*
X2530Y1909D02*
X2455D01*
Y1834D01*
X2466Y1835D01*
X2487Y1844D01*
X2506Y1858D01*
X2520Y1877D01*
X2529Y1898D01*
X2530Y1909D01*
D02*
G37*
G36*
X2973Y2135D02*
X2886D01*
X2866Y2132D01*
X2860Y2130D01*
X2811D01*
X2801Y2128D01*
X2792Y2122D01*
X2787Y2114D01*
X2785Y2104D01*
Y2014D01*
X2787Y2004D01*
X2792Y1996D01*
X2801Y1990D01*
X2811Y1988D01*
X2860D01*
X2866Y1985D01*
X2886Y1983D01*
X2942D01*
X2975Y1949D01*
Y1809D01*
X2963Y1799D01*
X2961Y1800D01*
X2911D01*
X2905Y1802D01*
X2886Y1805D01*
X2866Y1802D01*
X2860Y1800D01*
X2811D01*
X2801Y1798D01*
X2792Y1792D01*
X2787Y1784D01*
X2785Y1774D01*
Y1693D01*
X2771Y1680D01*
X2596D01*
X2594Y1681D01*
X2572Y1690D01*
X2549Y1693D01*
X2526Y1690D01*
X2509Y1683D01*
X2498Y1689D01*
X2496Y1691D01*
Y1774D01*
X2494Y1784D01*
X2489Y1792D01*
X2480Y1798D01*
X2471Y1800D01*
X2432D01*
X2404Y1827D01*
X2412Y1838D01*
X2419Y1835D01*
X2430Y1834D01*
Y1909D01*
X2354D01*
X2355Y1902D01*
X2344Y1896D01*
X2264Y1976D01*
X2264Y1979D01*
X2267Y1991D01*
X2272Y1994D01*
X2277Y2002D01*
X2279Y2012D01*
Y2102D01*
X2277Y2112D01*
X2272Y2121D01*
X2263Y2126D01*
X2253Y2128D01*
X2204D01*
X2198Y2131D01*
X2178Y2133D01*
X2159Y2131D01*
X2153Y2128D01*
X2103D01*
X2094Y2126D01*
X2085Y2121D01*
X2080Y2112D01*
X2078Y2102D01*
Y2012D01*
X2080Y2002D01*
X2085Y1994D01*
X2094Y1988D01*
X2102Y1987D01*
Y1954D01*
X2105Y1934D01*
X2113Y1916D01*
X2125Y1900D01*
X2207Y1817D01*
X2204Y1803D01*
X2198Y1801D01*
X2198Y1801D01*
X2178Y1803D01*
X2159Y1801D01*
X2153Y1798D01*
X2103D01*
X2094Y1796D01*
X2085Y1791D01*
X2080Y1782D01*
X2078Y1772D01*
Y1682D01*
X2080Y1672D01*
X2085Y1664D01*
X2094Y1658D01*
X2103Y1656D01*
X2109D01*
X2113Y1647D01*
X2125Y1631D01*
X2206Y1550D01*
X2216Y1542D01*
X2218Y1529D01*
X2217Y1526D01*
X2213Y1520D01*
X2211Y1510D01*
Y1420D01*
X2213Y1410D01*
X2219Y1401D01*
X2227Y1396D01*
X2237Y1394D01*
X2286D01*
X2292Y1391D01*
X2312Y1389D01*
X2332Y1391D01*
X2338Y1394D01*
X2387D01*
X2397Y1396D01*
X2405Y1401D01*
X2411Y1410D01*
X2413Y1420D01*
Y1509D01*
X2432Y1528D01*
X2502D01*
X2504Y1526D01*
X2526Y1517D01*
X2549Y1514D01*
X2572Y1517D01*
X2594Y1526D01*
X2596Y1528D01*
X2694D01*
X2702Y1515D01*
X2701Y1510D01*
Y1420D01*
X2703Y1410D01*
X2709Y1401D01*
X2717Y1396D01*
X2727Y1394D01*
X2776D01*
X2782Y1391D01*
X2802Y1389D01*
X2958D01*
X2978Y1391D01*
X2996Y1399D01*
X3012Y1411D01*
X3105Y1504D01*
X3117Y1520D01*
X3125Y1538D01*
X3127Y1558D01*
Y1981D01*
X3125Y2000D01*
X3117Y2019D01*
X3105Y2034D01*
X3027Y2113D01*
X3011Y2125D01*
X2993Y2132D01*
X2973Y2135D01*
D02*
G37*
G36*
X4380Y3320D02*
X4360Y3318D01*
X4354Y3315D01*
X4305D01*
X4295Y3313D01*
X4287Y3308D01*
X4281Y3299D01*
X4279Y3289D01*
Y3199D01*
X4281Y3189D01*
X4287Y3181D01*
X4295Y3175D01*
X4304Y3174D01*
Y3148D01*
X4303Y3147D01*
X4137D01*
X4118Y3145D01*
X4099Y3137D01*
X4099Y3137D01*
X4093Y3136D01*
X4071Y3127D01*
X4052Y3113D01*
X4038Y3095D01*
X4029Y3073D01*
X4026Y3050D01*
X4029Y3027D01*
X4038Y3005D01*
X4040Y3003D01*
Y2960D01*
X4042Y2940D01*
X4050Y2922D01*
X4062Y2906D01*
Y2868D01*
X4064Y2858D01*
X4069Y2849D01*
X4078Y2844D01*
X4088Y2842D01*
X4137D01*
X4143Y2839D01*
X4163Y2837D01*
X4182Y2839D01*
X4189Y2842D01*
X4238D01*
X4248Y2844D01*
X4256Y2849D01*
X4262Y2858D01*
X4264Y2868D01*
Y2958D01*
X4262Y2968D01*
X4256Y2976D01*
X4248Y2982D01*
X4242Y2983D01*
X4243Y2995D01*
X4289D01*
X4294Y2984D01*
X4294Y2983D01*
X4287Y2978D01*
X4281Y2969D01*
X4279Y2959D01*
Y2869D01*
X4281Y2859D01*
X4287Y2851D01*
X4295Y2845D01*
X4304Y2844D01*
Y2265D01*
X4306Y2245D01*
X4314Y2227D01*
X4326Y2211D01*
X4368Y2170D01*
Y1795D01*
X4356Y1783D01*
X4310D01*
X4306Y1789D01*
X4298Y1795D01*
X4288Y1797D01*
X4239D01*
X4232Y1799D01*
X4213Y1802D01*
X4193Y1799D01*
X4187Y1797D01*
X4138D01*
X4128Y1795D01*
X4119Y1789D01*
X4114Y1781D01*
X4112Y1771D01*
Y1681D01*
X4114Y1671D01*
X4119Y1663D01*
X4128Y1657D01*
X4138Y1655D01*
X4176D01*
X4178Y1653D01*
X4194Y1641D01*
X4212Y1633D01*
X4232Y1631D01*
X4387D01*
X4407Y1633D01*
X4425Y1641D01*
X4441Y1653D01*
X4498Y1709D01*
X4510Y1725D01*
X4513Y1733D01*
X4517Y1744D01*
X4520Y1763D01*
Y2201D01*
X4517Y2221D01*
X4513Y2231D01*
X4510Y2239D01*
X4498Y2255D01*
X4456Y2297D01*
Y2844D01*
X4465Y2845D01*
X4473Y2851D01*
X4479Y2859D01*
X4481Y2869D01*
Y2959D01*
X4479Y2969D01*
X4473Y2978D01*
X4465Y2983D01*
X4455Y2985D01*
X4406D01*
X4400Y2988D01*
X4380Y2990D01*
X4364Y2988D01*
X4360Y3000D01*
X4373Y3006D01*
X4388Y3018D01*
X4434Y3063D01*
X4446Y3079D01*
X4453Y3097D01*
X4456Y3117D01*
Y3174D01*
X4465Y3175D01*
X4473Y3181D01*
X4479Y3189D01*
X4481Y3199D01*
Y3289D01*
X4479Y3299D01*
X4473Y3308D01*
X4465Y3313D01*
X4455Y3315D01*
X4406D01*
X4400Y3318D01*
X4380Y3320D01*
D02*
G37*
G36*
X11577Y2133D02*
X11519D01*
X11500Y2131D01*
X11493Y2128D01*
X11444D01*
X11434Y2126D01*
X11426Y2121D01*
X11420Y2112D01*
X11418Y2102D01*
Y2012D01*
X11420Y2002D01*
X11426Y1994D01*
X11434Y1988D01*
X11444Y1986D01*
X11446D01*
X11450Y1974D01*
X11437Y1963D01*
X11422Y1945D01*
X11413Y1923D01*
X11412Y1913D01*
X11500D01*
Y1887D01*
X11412D01*
X11413Y1877D01*
X11422Y1855D01*
X11437Y1837D01*
X11455Y1822D01*
X11477Y1813D01*
X11478Y1813D01*
X11483Y1800D01*
X11481Y1798D01*
X11444D01*
X11434Y1796D01*
X11426Y1791D01*
X11420Y1782D01*
X11418Y1772D01*
Y1691D01*
X11405Y1678D01*
X11230D01*
X11228Y1680D01*
X11206Y1689D01*
X11183Y1692D01*
X11160Y1689D01*
X11143Y1682D01*
X11132Y1687D01*
X11130Y1690D01*
Y1772D01*
X11128Y1782D01*
X11123Y1791D01*
X11114Y1796D01*
X11104Y1798D01*
X11066D01*
X11032Y1833D01*
X11028Y1840D01*
X11016Y1856D01*
X10898Y1974D01*
X10898Y1977D01*
X10901Y1989D01*
X10906Y1992D01*
X10911Y2001D01*
X10913Y2011D01*
Y2101D01*
X10911Y2111D01*
X10906Y2119D01*
X10897Y2125D01*
X10887Y2127D01*
X10838D01*
X10832Y2129D01*
X10812Y2132D01*
X10793Y2129D01*
X10786Y2127D01*
X10737D01*
X10727Y2125D01*
X10719Y2119D01*
X10713Y2111D01*
X10711Y2101D01*
Y2011D01*
X10713Y2001D01*
X10719Y1992D01*
X10727Y1987D01*
X10736Y1985D01*
Y1952D01*
X10739Y1933D01*
X10746Y1914D01*
X10758Y1898D01*
X10841Y1816D01*
X10838Y1801D01*
X10832Y1799D01*
X10832Y1799D01*
X10812Y1802D01*
X10793Y1799D01*
X10786Y1797D01*
X10737D01*
X10727Y1795D01*
X10719Y1789D01*
X10713Y1781D01*
X10711Y1771D01*
Y1681D01*
X10713Y1671D01*
X10719Y1662D01*
X10727Y1657D01*
X10736Y1655D01*
Y1619D01*
X10739Y1599D01*
X10746Y1581D01*
X10758Y1565D01*
X10775Y1548D01*
X10791Y1536D01*
X10798Y1533D01*
X10809Y1529D01*
X10829Y1526D01*
X10838D01*
X10846Y1513D01*
X10845Y1508D01*
Y1418D01*
X10847Y1408D01*
X10853Y1400D01*
X10861Y1394D01*
X10871Y1392D01*
X10920D01*
X10926Y1390D01*
X10946Y1387D01*
X10966Y1390D01*
X10972Y1392D01*
X11021D01*
X11031Y1394D01*
X11039Y1400D01*
X11045Y1408D01*
X11047Y1418D01*
Y1507D01*
X11066Y1526D01*
X11136D01*
X11138Y1524D01*
X11160Y1515D01*
X11183Y1512D01*
X11206Y1515D01*
X11228Y1524D01*
X11230Y1526D01*
X11328D01*
X11336Y1513D01*
X11335Y1508D01*
Y1418D01*
X11337Y1408D01*
X11343Y1400D01*
X11351Y1394D01*
X11361Y1392D01*
X11410D01*
X11416Y1390D01*
X11436Y1387D01*
X11592D01*
X11612Y1390D01*
X11630Y1397D01*
X11646Y1409D01*
X11724Y1487D01*
X11736Y1503D01*
X11743Y1521D01*
X11746Y1541D01*
Y1964D01*
X11743Y1984D01*
X11739Y1995D01*
X11736Y2002D01*
X11724Y2018D01*
X11630Y2111D01*
X11615Y2123D01*
X11596Y2131D01*
X11577Y2133D01*
D02*
G37*
G36*
X7325Y1892D02*
X7249D01*
Y1816D01*
X7260Y1818D01*
X7282Y1827D01*
X7300Y1841D01*
X7314Y1859D01*
X7323Y1881D01*
X7325Y1892D01*
D02*
G37*
G36*
X7224D02*
X7149D01*
X7150Y1881D01*
X7159Y1859D01*
X7173Y1841D01*
X7192Y1827D01*
X7214Y1818D01*
X7224Y1816D01*
Y1892D01*
D02*
G37*
G36*
X3949Y1951D02*
X3926Y1948D01*
X3904Y1939D01*
X3885Y1925D01*
X3871Y1906D01*
X3862Y1885D01*
X3859Y1861D01*
X3862Y1838D01*
X3871Y1817D01*
X3873Y1815D01*
Y1771D01*
X3875Y1752D01*
X3883Y1733D01*
X3895Y1718D01*
Y1679D01*
X3897Y1669D01*
X3902Y1661D01*
X3911Y1655D01*
X3921Y1653D01*
X3970D01*
X3976Y1651D01*
X3996Y1648D01*
X4015Y1651D01*
X4022Y1653D01*
X4071D01*
X4081Y1655D01*
X4089Y1661D01*
X4095Y1669D01*
X4097Y1679D01*
Y1769D01*
X4095Y1779D01*
X4089Y1788D01*
X4081Y1793D01*
X4071Y1795D01*
X4032D01*
X4025Y1803D01*
Y1815D01*
X4026Y1817D01*
X4035Y1838D01*
X4038Y1861D01*
X4035Y1885D01*
X4026Y1906D01*
X4012Y1925D01*
X3994Y1939D01*
X3972Y1948D01*
X3949Y1951D01*
D02*
G37*
G36*
X10058Y1951D02*
X10035Y1948D01*
X10013Y1939D01*
X9995Y1925D01*
X9981Y1906D01*
X9972Y1884D01*
X9969Y1861D01*
X9972Y1838D01*
X9981Y1816D01*
X9982Y1814D01*
Y1771D01*
X9985Y1751D01*
X9992Y1733D01*
X10004Y1717D01*
Y1679D01*
X10006Y1669D01*
X10012Y1661D01*
X10020Y1655D01*
X10030Y1653D01*
X10079D01*
X10085Y1651D01*
X10105Y1648D01*
X10125Y1651D01*
X10131Y1653D01*
X10180D01*
X10190Y1655D01*
X10198Y1661D01*
X10204Y1669D01*
X10206Y1679D01*
Y1769D01*
X10204Y1779D01*
X10198Y1787D01*
X10190Y1793D01*
X10180Y1795D01*
X10142D01*
X10134Y1802D01*
Y1814D01*
X10136Y1816D01*
X10145Y1838D01*
X10148Y1861D01*
X10145Y1884D01*
X10136Y1906D01*
X10122Y1925D01*
X10103Y1939D01*
X10081Y1948D01*
X10058Y1951D01*
D02*
G37*
G36*
X1855Y3322D02*
X1836Y3319D01*
X1830Y3316D01*
X1780D01*
X1771Y3314D01*
X1762Y3309D01*
X1757Y3300D01*
X1755Y3291D01*
Y3201D01*
X1757Y3191D01*
X1762Y3182D01*
X1771Y3177D01*
X1779Y3175D01*
Y3149D01*
X1779Y3149D01*
X1613D01*
X1593Y3146D01*
X1583Y3142D01*
X1575Y3139D01*
X1575Y3139D01*
X1568Y3138D01*
X1547Y3129D01*
X1528Y3115D01*
X1514Y3096D01*
X1505Y3074D01*
X1502Y3051D01*
X1505Y3028D01*
X1514Y3006D01*
X1515Y3004D01*
Y2961D01*
X1518Y2941D01*
X1526Y2923D01*
X1537Y2907D01*
Y2869D01*
X1539Y2859D01*
X1545Y2851D01*
X1553Y2845D01*
X1563Y2843D01*
X1612D01*
X1619Y2840D01*
X1638Y2838D01*
X1658Y2840D01*
X1664Y2843D01*
X1713D01*
X1723Y2845D01*
X1732Y2851D01*
X1737Y2859D01*
X1739Y2869D01*
Y2959D01*
X1737Y2969D01*
X1732Y2977D01*
X1723Y2983D01*
X1717Y2984D01*
X1719Y2997D01*
X1765D01*
X1770Y2985D01*
X1770Y2984D01*
X1762Y2979D01*
X1757Y2970D01*
X1755Y2961D01*
Y2871D01*
X1757Y2861D01*
X1762Y2852D01*
X1771Y2847D01*
X1779Y2845D01*
Y2266D01*
X1782Y2247D01*
X1790Y2228D01*
X1802Y2213D01*
X1843Y2171D01*
Y1825D01*
X1822Y1803D01*
X1688D01*
X1669Y1801D01*
X1663Y1798D01*
X1613D01*
X1604Y1796D01*
X1595Y1791D01*
X1590Y1782D01*
X1588Y1772D01*
Y1682D01*
X1590Y1672D01*
X1595Y1664D01*
X1604Y1658D01*
X1613Y1656D01*
X1663D01*
X1669Y1654D01*
X1688Y1651D01*
X1854D01*
X1873Y1654D01*
X1892Y1661D01*
X1907Y1673D01*
X1973Y1739D01*
X1985Y1755D01*
X1993Y1774D01*
X1996Y1793D01*
Y2202D01*
X1993Y2222D01*
X1985Y2240D01*
X1973Y2256D01*
X1931Y2298D01*
Y2845D01*
X1940Y2847D01*
X1949Y2852D01*
X1954Y2861D01*
X1956Y2871D01*
Y2961D01*
X1954Y2970D01*
X1949Y2979D01*
X1940Y2984D01*
X1930Y2986D01*
X1881D01*
X1875Y2989D01*
X1855Y2992D01*
X1839Y2989D01*
X1835Y3002D01*
X1848Y3007D01*
X1864Y3019D01*
X1909Y3064D01*
X1921Y3080D01*
X1929Y3098D01*
X1931Y3118D01*
Y3175D01*
X1940Y3177D01*
X1949Y3182D01*
X1954Y3191D01*
X1956Y3201D01*
Y3291D01*
X1954Y3300D01*
X1949Y3309D01*
X1940Y3314D01*
X1930Y3316D01*
X1881D01*
X1875Y3319D01*
X1855Y3322D01*
D02*
G37*
G36*
X1424Y1952D02*
X1401Y1949D01*
X1380Y1940D01*
X1361Y1926D01*
X1347Y1908D01*
X1338Y1886D01*
X1335Y1863D01*
X1338Y1840D01*
X1347Y1818D01*
X1348Y1816D01*
Y1773D01*
X1351Y1753D01*
X1359Y1735D01*
X1370Y1719D01*
Y1681D01*
X1372Y1671D01*
X1378Y1662D01*
X1386Y1657D01*
X1396Y1655D01*
X1445D01*
X1452Y1652D01*
X1471Y1650D01*
X1491Y1652D01*
X1497Y1655D01*
X1546D01*
X1556Y1657D01*
X1565Y1662D01*
X1570Y1671D01*
X1572Y1681D01*
Y1771D01*
X1570Y1781D01*
X1565Y1789D01*
X1556Y1795D01*
X1546Y1797D01*
X1508D01*
X1500Y1804D01*
Y1816D01*
X1502Y1818D01*
X1511Y1840D01*
X1514Y1863D01*
X1511Y1886D01*
X1502Y1908D01*
X1488Y1926D01*
X1469Y1940D01*
X1448Y1949D01*
X1424Y1952D01*
D02*
G37*
G36*
X9750Y1904D02*
X9675D01*
Y1829D01*
X9685Y1830D01*
X9707Y1839D01*
X9725Y1853D01*
X9740Y1872D01*
X9749Y1894D01*
X9750Y1904D01*
D02*
G37*
G36*
X9649D02*
X9574D01*
X9575Y1894D01*
X9584Y1872D01*
X9599Y1853D01*
X9617Y1839D01*
X9639Y1830D01*
X9649Y1829D01*
Y1904D01*
D02*
G37*
G36*
X3641Y1904D02*
X3565D01*
Y1829D01*
X3576Y1830D01*
X3597Y1839D01*
X3616Y1854D01*
X3630Y1872D01*
X3639Y1894D01*
X3641Y1904D01*
D02*
G37*
G36*
X3540D02*
X3465D01*
X3466Y1894D01*
X3475Y1872D01*
X3489Y1854D01*
X3508Y1839D01*
X3529Y1830D01*
X3540Y1829D01*
Y1904D01*
D02*
G37*
G36*
X8032Y1893D02*
X7957D01*
Y1818D01*
X7967Y1819D01*
X7989Y1828D01*
X8007Y1842D01*
X8021Y1861D01*
X8030Y1883D01*
X8032Y1893D01*
D02*
G37*
G36*
X7931D02*
X7856D01*
X7857Y1883D01*
X7866Y1861D01*
X7880Y1842D01*
X7899Y1828D01*
X7921Y1819D01*
X7931Y1818D01*
Y1893D01*
D02*
G37*
G36*
X8739Y1895D02*
X8664D01*
Y1819D01*
X8674Y1821D01*
X8696Y1830D01*
X8714Y1844D01*
X8729Y1863D01*
X8738Y1884D01*
X8739Y1895D01*
D02*
G37*
G36*
X9194Y2121D02*
X9094D01*
X9074Y2118D01*
X9068Y2116D01*
X9019D01*
X9009Y2114D01*
X9001Y2108D01*
X8995Y2100D01*
X8993Y2090D01*
Y2000D01*
X8995Y1990D01*
X9001Y1981D01*
X9009Y1976D01*
X9019Y1974D01*
X9068D01*
X9074Y1971D01*
X9094Y1969D01*
X9162D01*
X9190Y1941D01*
Y1791D01*
X9181Y1785D01*
X9177Y1784D01*
X9169Y1786D01*
X9120D01*
X9114Y1788D01*
X9094Y1791D01*
X9074Y1788D01*
X9068Y1786D01*
X9019D01*
X9009Y1784D01*
X9001Y1778D01*
X8995Y1770D01*
X8993Y1760D01*
Y1671D01*
X8988Y1666D01*
X8805D01*
X8803Y1667D01*
X8781Y1676D01*
X8758Y1679D01*
X8735Y1676D01*
X8717Y1669D01*
X8707Y1675D01*
X8705Y1677D01*
Y1760D01*
X8703Y1770D01*
X8697Y1778D01*
X8689Y1784D01*
X8679Y1786D01*
X8641D01*
X8613Y1813D01*
X8620Y1824D01*
X8628Y1821D01*
X8638Y1819D01*
Y1895D01*
X8563D01*
X8564Y1888D01*
X8552Y1882D01*
X8473Y1961D01*
X8473Y1965D01*
X8475Y1977D01*
X8480Y1980D01*
X8486Y1988D01*
X8488Y1998D01*
Y2088D01*
X8486Y2098D01*
X8480Y2106D01*
X8472Y2112D01*
X8462Y2114D01*
X8413D01*
X8407Y2116D01*
X8387Y2119D01*
X8367Y2116D01*
X8361Y2114D01*
X8312D01*
X8302Y2112D01*
X8294Y2106D01*
X8288Y2098D01*
X8286Y2088D01*
Y1998D01*
X8288Y1988D01*
X8294Y1980D01*
X8302Y1974D01*
X8311Y1972D01*
Y1940D01*
X8313Y1920D01*
X8321Y1902D01*
X8333Y1886D01*
X8416Y1803D01*
X8413Y1788D01*
X8407Y1786D01*
X8407Y1786D01*
X8387Y1789D01*
X8367Y1786D01*
X8361Y1784D01*
X8312D01*
X8302Y1782D01*
X8294Y1776D01*
X8288Y1768D01*
X8286Y1758D01*
Y1668D01*
X8288Y1658D01*
X8294Y1650D01*
X8302Y1644D01*
X8312Y1642D01*
X8317D01*
X8321Y1632D01*
X8333Y1617D01*
X8414Y1536D01*
X8425Y1527D01*
X8427Y1515D01*
X8426Y1512D01*
X8422Y1505D01*
X8420Y1495D01*
Y1405D01*
X8422Y1396D01*
X8427Y1387D01*
X8436Y1382D01*
X8445Y1380D01*
X8495D01*
X8501Y1377D01*
X8520Y1374D01*
X8540Y1377D01*
X8546Y1380D01*
X8595D01*
X8605Y1382D01*
X8614Y1387D01*
X8619Y1396D01*
X8621Y1405D01*
Y1494D01*
X8640Y1513D01*
X8711D01*
X8713Y1512D01*
X8735Y1503D01*
X8758Y1500D01*
X8781Y1503D01*
X8803Y1512D01*
X8805Y1513D01*
X8903D01*
X8911Y1501D01*
X8910Y1495D01*
Y1405D01*
X8912Y1396D01*
X8917Y1387D01*
X8926Y1382D01*
X8935Y1380D01*
X8985D01*
X8991Y1377D01*
X9010Y1374D01*
X9183D01*
X9203Y1377D01*
X9221Y1385D01*
X9237Y1397D01*
X9320Y1479D01*
X9332Y1495D01*
X9339Y1513D01*
X9342Y1533D01*
Y1973D01*
X9339Y1992D01*
X9332Y2011D01*
X9320Y2026D01*
X9248Y2098D01*
X9232Y2110D01*
X9214Y2118D01*
X9194Y2121D01*
D02*
G37*
G36*
X9482Y716D02*
X9407D01*
X9408Y705D01*
X9417Y684D01*
X9432Y665D01*
X9450Y651D01*
X9472Y642D01*
X9482Y641D01*
Y716D01*
D02*
G37*
G36*
X7158Y703D02*
X7082D01*
Y628D01*
X7093Y629D01*
X7115Y638D01*
X7133Y653D01*
X7147Y671D01*
X7156Y693D01*
X7158Y703D01*
D02*
G37*
G36*
X849Y717D02*
X773D01*
X775Y707D01*
X784Y685D01*
X798Y667D01*
X816Y652D01*
X838Y644D01*
X849Y642D01*
Y717D01*
D02*
G37*
G36*
X9583Y716D02*
X9508D01*
Y641D01*
X9518Y642D01*
X9540Y651D01*
X9558Y665D01*
X9573Y684D01*
X9582Y705D01*
X9583Y716D01*
D02*
G37*
G36*
X11388Y687D02*
X11212D01*
X11213Y677D01*
X11222Y655D01*
X11237Y637D01*
X11255Y622D01*
X11266Y618D01*
X11264Y605D01*
X11260Y604D01*
X11252Y598D01*
X11246Y590D01*
X11244Y580D01*
Y548D01*
X11345D01*
X11446D01*
Y580D01*
X11444Y590D01*
X11438Y598D01*
X11430Y604D01*
X11420Y606D01*
X11338D01*
X11336Y619D01*
X11345Y622D01*
X11363Y637D01*
X11378Y655D01*
X11387Y677D01*
X11388Y687D01*
D02*
G37*
G36*
X5288D02*
X5112D01*
X5113Y677D01*
X5122Y655D01*
X5137Y637D01*
X5155Y622D01*
X5166Y618D01*
X5164Y605D01*
X5160Y604D01*
X5152Y598D01*
X5146Y590D01*
X5144Y580D01*
Y548D01*
X5245D01*
X5346D01*
Y580D01*
X5344Y590D01*
X5338Y598D01*
X5330Y604D01*
X5320Y606D01*
X5238D01*
X5236Y619D01*
X5245Y622D01*
X5263Y637D01*
X5278Y655D01*
X5287Y677D01*
X5288Y687D01*
D02*
G37*
G36*
X7057Y703D02*
X6982D01*
X6983Y693D01*
X6992Y671D01*
X7006Y653D01*
X7025Y638D01*
X7047Y629D01*
X7057Y628D01*
Y703D01*
D02*
G37*
G36*
X2760Y665D02*
X2584D01*
X2585Y654D01*
X2594Y633D01*
X2608Y614D01*
X2624Y602D01*
X2620Y595D01*
X2618Y585D01*
Y553D01*
X2719D01*
X2819D01*
Y585D01*
X2817Y595D01*
X2812Y604D01*
X2803Y609D01*
X2794Y611D01*
X2749D01*
X2743Y624D01*
X2749Y633D01*
X2758Y654D01*
X2760Y665D01*
D02*
G37*
G36*
X3440Y853D02*
X3351D01*
Y795D01*
X3364D01*
X3367Y782D01*
X3355Y778D01*
X3337Y763D01*
X3322Y745D01*
X3313Y723D01*
X3312Y713D01*
X3488D01*
X3487Y723D01*
X3478Y745D01*
X3463Y763D01*
X3445Y778D01*
X3427Y785D01*
X3426Y789D01*
X3426Y797D01*
X3426Y799D01*
X3432Y803D01*
X3438Y811D01*
X3440Y821D01*
Y853D01*
D02*
G37*
G36*
X2684Y766D02*
Y690D01*
X2760D01*
X2758Y701D01*
X2749Y722D01*
X2735Y741D01*
X2716Y755D01*
X2695Y764D01*
X2684Y766D01*
D02*
G37*
G36*
X7124Y840D02*
X6922D01*
Y808D01*
X6924Y798D01*
X6929Y790D01*
X6938Y784D01*
X6948Y782D01*
X6992D01*
X6999Y770D01*
X6992Y761D01*
X6983Y739D01*
X6982Y729D01*
X7158D01*
X7156Y739D01*
X7147Y761D01*
X7133Y779D01*
X7117Y792D01*
X7122Y798D01*
X7124Y808D01*
Y840D01*
D02*
G37*
G36*
X4836Y1209D02*
X4817Y1207D01*
X4811Y1204D01*
X4761D01*
X4752Y1202D01*
X4743Y1197D01*
X4737Y1188D01*
X4736Y1178D01*
Y1088D01*
X4737Y1078D01*
X4743Y1070D01*
X4752Y1064D01*
X4761Y1062D01*
X4762D01*
X4763Y1057D01*
X4771Y1039D01*
X4783Y1023D01*
X4837Y968D01*
X4853Y956D01*
X4871Y949D01*
X4891Y946D01*
X5146D01*
X5149Y942D01*
X5152Y928D01*
X5146Y920D01*
X5144Y910D01*
Y820D01*
X5146Y810D01*
X5152Y802D01*
X5160Y796D01*
X5164Y795D01*
X5166Y782D01*
X5155Y778D01*
X5137Y763D01*
X5122Y745D01*
X5113Y723D01*
X5112Y713D01*
X5288D01*
X5287Y723D01*
X5278Y745D01*
X5263Y763D01*
X5246Y776D01*
X5247Y783D01*
X5249Y790D01*
X5265Y792D01*
X5271Y794D01*
X5320D01*
X5330Y796D01*
X5338Y802D01*
X5344Y810D01*
X5346Y820D01*
Y910D01*
X5344Y920D01*
X5338Y928D01*
X5330Y934D01*
X5320Y936D01*
X5314D01*
Y973D01*
X5311Y993D01*
X5304Y1011D01*
X5291Y1027D01*
X5268Y1051D01*
X5273Y1062D01*
X5314D01*
Y1121D01*
X5226D01*
Y1100D01*
X5220Y1097D01*
X5213Y1094D01*
X5209Y1096D01*
X5189Y1098D01*
X4937D01*
Y1178D01*
X4935Y1188D01*
X4930Y1197D01*
X4921Y1202D01*
X4911Y1204D01*
X4862D01*
X4856Y1207D01*
X4836Y1209D01*
D02*
G37*
G36*
X8867Y751D02*
X8857Y750D01*
X8835Y741D01*
X8817Y727D01*
X8802Y708D01*
X8793Y687D01*
X8792Y676D01*
X8867D01*
Y751D01*
D02*
G37*
G36*
X949Y717D02*
X874D01*
Y642D01*
X884Y644D01*
X906Y652D01*
X925Y667D01*
X939Y685D01*
X948Y707D01*
X949Y717D01*
D02*
G37*
G36*
X2659Y766D02*
X2648Y764D01*
X2627Y755D01*
X2608Y741D01*
X2594Y722D01*
X2585Y701D01*
X2584Y690D01*
X2659D01*
Y766D01*
D02*
G37*
G36*
X8893Y751D02*
Y676D01*
X8968D01*
X8967Y687D01*
X8958Y708D01*
X8943Y727D01*
X8925Y741D01*
X8903Y750D01*
X8893Y751D01*
D02*
G37*
G36*
X5346Y522D02*
X5258D01*
Y464D01*
X5320D01*
X5330Y466D01*
X5338Y472D01*
X5344Y480D01*
X5346Y490D01*
Y522D01*
D02*
G37*
G36*
X5232D02*
X5144D01*
Y490D01*
X5146Y480D01*
X5152Y472D01*
X5160Y466D01*
X5170Y464D01*
X5232D01*
Y522D01*
D02*
G37*
G36*
X11332D02*
X11244D01*
Y490D01*
X11246Y480D01*
X11252Y472D01*
X11260Y466D01*
X11270Y464D01*
X11332D01*
Y522D01*
D02*
G37*
G36*
X10632D02*
X10544D01*
Y490D01*
X10546Y480D01*
X10552Y472D01*
X10560Y466D01*
X10570Y464D01*
X10632D01*
Y522D01*
D02*
G37*
G36*
X8321Y512D02*
X8233D01*
Y454D01*
X8295D01*
X8305Y456D01*
X8313Y461D01*
X8319Y470D01*
X8321Y480D01*
Y512D01*
D02*
G37*
G36*
X8207D02*
X8119D01*
Y480D01*
X8121Y470D01*
X8127Y461D01*
X8135Y456D01*
X8145Y454D01*
X8207D01*
Y512D01*
D02*
G37*
G36*
X9028Y514D02*
X8940D01*
Y455D01*
X9002D01*
X9012Y457D01*
X9020Y463D01*
X9026Y471D01*
X9028Y481D01*
Y514D01*
D02*
G37*
G36*
X8914D02*
X8826D01*
Y481D01*
X8828Y471D01*
X8834Y463D01*
X8842Y457D01*
X8852Y455D01*
X8914D01*
Y514D01*
D02*
G37*
G36*
X2706Y528D02*
X2618D01*
Y495D01*
X2620Y486D01*
X2625Y477D01*
X2634Y472D01*
X2644Y470D01*
X2706D01*
Y528D01*
D02*
G37*
G36*
X2112Y526D02*
X2024D01*
Y468D01*
X2086D01*
X2096Y470D01*
X2105Y476D01*
X2110Y484D01*
X2112Y494D01*
Y526D01*
D02*
G37*
G36*
X8968Y651D02*
X8792D01*
X8793Y640D01*
X8802Y619D01*
X8817Y600D01*
X8833Y588D01*
X8828Y581D01*
X8826Y571D01*
Y539D01*
X8927D01*
X9028D01*
Y571D01*
X9026Y581D01*
X9020Y590D01*
X9012Y595D01*
X9002Y597D01*
X8957D01*
X8951Y610D01*
X8958Y619D01*
X8967Y640D01*
X8968Y651D01*
D02*
G37*
G36*
X2819Y528D02*
X2731D01*
Y470D01*
X2794D01*
X2803Y472D01*
X2812Y477D01*
X2817Y486D01*
X2819Y495D01*
Y528D01*
D02*
G37*
G36*
X4523Y525D02*
X4435D01*
Y493D01*
X4437Y483D01*
X4442Y474D01*
X4451Y469D01*
X4461Y467D01*
X4523D01*
Y525D01*
D02*
G37*
G36*
X11446Y522D02*
X11358D01*
Y464D01*
X11420D01*
X11430Y466D01*
X11438Y472D01*
X11444Y480D01*
X11446Y490D01*
Y522D01*
D02*
G37*
G36*
X1999Y526D02*
X1911D01*
Y494D01*
X1912Y484D01*
X1918Y476D01*
X1927Y470D01*
X1936Y468D01*
X1999D01*
Y526D01*
D02*
G37*
G36*
X4637Y525D02*
X4549D01*
Y467D01*
X4611D01*
X4621Y469D01*
X4629Y474D01*
X4635Y483D01*
X4637Y493D01*
Y525D01*
D02*
G37*
G36*
X9556Y852D02*
X9354D01*
Y820D01*
X9356Y810D01*
X9362Y802D01*
X9370Y796D01*
X9380Y794D01*
X9417D01*
X9424Y781D01*
X9417Y773D01*
X9408Y752D01*
X9407Y741D01*
X9583D01*
X9582Y752D01*
X9573Y773D01*
X9558Y792D01*
X9548Y800D01*
X9548Y802D01*
X9554Y810D01*
X9556Y820D01*
Y852D01*
D02*
G37*
G36*
X11423Y1120D02*
X11335D01*
Y1088D01*
X11337Y1078D01*
X11343Y1070D01*
X11351Y1064D01*
X11361Y1062D01*
X11423D01*
Y1120D01*
D02*
G37*
G36*
X6537Y1116D02*
X6449D01*
Y1058D01*
X6512D01*
X6521Y1060D01*
X6530Y1065D01*
X6536Y1074D01*
X6537Y1084D01*
Y1116D01*
D02*
G37*
G36*
X5427Y1121D02*
X5339D01*
Y1062D01*
X5401D01*
X5411Y1064D01*
X5420Y1070D01*
X5425Y1078D01*
X5427Y1088D01*
Y1121D01*
D02*
G37*
G36*
X11537Y1120D02*
X11449D01*
Y1062D01*
X11511D01*
X11521Y1064D01*
X11529Y1070D01*
X11535Y1078D01*
X11537Y1088D01*
Y1120D01*
D02*
G37*
G36*
X3865Y1357D02*
X3842Y1354D01*
X3820Y1345D01*
X3802Y1331D01*
X3788Y1312D01*
X3779Y1290D01*
X3776Y1267D01*
X3779Y1244D01*
X3788Y1222D01*
X3789Y1220D01*
Y1177D01*
X3792Y1157D01*
X3799Y1139D01*
X3811Y1124D01*
Y1085D01*
X3813Y1075D01*
X3819Y1067D01*
X3827Y1061D01*
X3837Y1059D01*
X3886D01*
X3893Y1057D01*
X3912Y1054D01*
X3932Y1057D01*
X3938Y1059D01*
X3987D01*
X3997Y1061D01*
X4006Y1067D01*
X4011Y1075D01*
X4013Y1085D01*
Y1175D01*
X4011Y1185D01*
X4006Y1193D01*
X3997Y1199D01*
X3987Y1201D01*
X3949D01*
X3941Y1209D01*
Y1220D01*
X3943Y1222D01*
X3952Y1244D01*
X3955Y1267D01*
X3952Y1290D01*
X3943Y1312D01*
X3929Y1331D01*
X3910Y1345D01*
X3888Y1354D01*
X3865Y1357D01*
D02*
G37*
G36*
X9975Y1357D02*
X9951Y1354D01*
X9930Y1345D01*
X9911Y1330D01*
X9897Y1312D01*
X9888Y1290D01*
X9885Y1267D01*
X9888Y1244D01*
X9897Y1222D01*
X9899Y1220D01*
Y1177D01*
X9901Y1157D01*
X9909Y1139D01*
X9921Y1123D01*
Y1085D01*
X9923Y1075D01*
X9928Y1067D01*
X9937Y1061D01*
X9947Y1059D01*
X9996D01*
X10002Y1056D01*
X10022Y1054D01*
X10041Y1056D01*
X10047Y1059D01*
X10097D01*
X10107Y1061D01*
X10115Y1067D01*
X10121Y1075D01*
X10123Y1085D01*
Y1175D01*
X10121Y1185D01*
X10115Y1193D01*
X10107Y1199D01*
X10097Y1201D01*
X10058D01*
X10051Y1208D01*
Y1220D01*
X10052Y1222D01*
X10061Y1244D01*
X10064Y1267D01*
X10061Y1290D01*
X10052Y1312D01*
X10038Y1330D01*
X10020Y1345D01*
X9998Y1354D01*
X9975Y1357D01*
D02*
G37*
G36*
X6424Y1116D02*
X6336D01*
Y1084D01*
X6338Y1074D01*
X6343Y1065D01*
X6352Y1060D01*
X6362Y1058D01*
X6424D01*
Y1116D01*
D02*
G37*
G36*
X1341Y1358D02*
X1318Y1355D01*
X1296Y1346D01*
X1277Y1332D01*
X1263Y1313D01*
X1254Y1292D01*
X1251Y1269D01*
X1254Y1245D01*
X1263Y1224D01*
X1265Y1222D01*
Y1178D01*
X1267Y1159D01*
X1275Y1140D01*
X1287Y1125D01*
Y1086D01*
X1289Y1077D01*
X1295Y1068D01*
X1303Y1063D01*
X1313Y1061D01*
X1362D01*
X1368Y1058D01*
X1388Y1055D01*
X1408Y1058D01*
X1414Y1061D01*
X1463D01*
X1473Y1063D01*
X1481Y1068D01*
X1487Y1077D01*
X1489Y1086D01*
Y1176D01*
X1487Y1186D01*
X1481Y1195D01*
X1473Y1200D01*
X1463Y1202D01*
X1424D01*
X1417Y1210D01*
Y1222D01*
X1419Y1224D01*
X1427Y1245D01*
X1431Y1269D01*
X1427Y1292D01*
X1419Y1313D01*
X1404Y1332D01*
X1386Y1346D01*
X1364Y1355D01*
X1341Y1358D01*
D02*
G37*
G36*
X5367Y1258D02*
X5191D01*
X5193Y1247D01*
X5202Y1226D01*
X5216Y1207D01*
X5232Y1195D01*
X5227Y1188D01*
X5226Y1178D01*
Y1146D01*
X5326D01*
X5427D01*
Y1178D01*
X5425Y1188D01*
X5420Y1197D01*
X5411Y1202D01*
X5401Y1204D01*
X5357D01*
X5350Y1217D01*
X5357Y1226D01*
X5366Y1247D01*
X5367Y1258D01*
D02*
G37*
G36*
X11477Y1258D02*
X11301D01*
X11302Y1247D01*
X11311Y1225D01*
X11325Y1207D01*
X11341Y1195D01*
X11337Y1188D01*
X11335Y1178D01*
Y1146D01*
X11436D01*
X11537D01*
Y1178D01*
X11535Y1188D01*
X11529Y1196D01*
X11521Y1202D01*
X11511Y1204D01*
X11466D01*
X11460Y1217D01*
X11467Y1225D01*
X11475Y1247D01*
X11477Y1258D01*
D02*
G37*
G36*
X7141Y1297D02*
X7065D01*
X7067Y1287D01*
X7076Y1265D01*
X7090Y1247D01*
X7108Y1232D01*
X7130Y1223D01*
X7141Y1222D01*
Y1297D01*
D02*
G37*
G36*
X2843Y1259D02*
X2667D01*
X2668Y1249D01*
X2677Y1227D01*
X2692Y1208D01*
X2708Y1196D01*
X2703Y1190D01*
X2701Y1180D01*
Y1147D01*
X2802D01*
X2903D01*
Y1180D01*
X2901Y1190D01*
X2895Y1198D01*
X2887Y1204D01*
X2877Y1206D01*
X2832D01*
X2826Y1218D01*
X2833Y1227D01*
X2842Y1249D01*
X2843Y1259D01*
D02*
G37*
G36*
X2903Y1122D02*
X2815D01*
Y1064D01*
X2877D01*
X2887Y1066D01*
X2895Y1071D01*
X2901Y1080D01*
X2903Y1090D01*
Y1122D01*
D02*
G37*
G36*
X2789D02*
X2701D01*
Y1090D01*
X2703Y1080D01*
X2709Y1071D01*
X2717Y1066D01*
X2727Y1064D01*
X2789D01*
Y1122D01*
D02*
G37*
G36*
X6478Y1253D02*
X6302D01*
X6303Y1243D01*
X6312Y1221D01*
X6326Y1203D01*
X6342Y1190D01*
X6338Y1184D01*
X6336Y1174D01*
Y1141D01*
X6437D01*
X6537D01*
Y1174D01*
X6536Y1184D01*
X6530Y1192D01*
X6521Y1198D01*
X6512Y1200D01*
X6467D01*
X6461Y1212D01*
X6467Y1221D01*
X6476Y1243D01*
X6478Y1253D01*
D02*
G37*
G36*
X9052Y1245D02*
X8876D01*
X8877Y1234D01*
X8886Y1213D01*
X8900Y1194D01*
X8916Y1182D01*
X8912Y1175D01*
X8910Y1165D01*
Y1133D01*
X9010D01*
X9111D01*
Y1165D01*
X9109Y1175D01*
X9104Y1184D01*
X9095Y1189D01*
X9085Y1191D01*
X9041D01*
X9034Y1204D01*
X9041Y1213D01*
X9050Y1234D01*
X9052Y1245D01*
D02*
G37*
G36*
X898Y1207D02*
X878Y1205D01*
X872Y1202D01*
X823D01*
X813Y1200D01*
X805Y1195D01*
X799Y1186D01*
X797Y1176D01*
Y1086D01*
X799Y1077D01*
X805Y1068D01*
X813Y1063D01*
X822Y1061D01*
Y1032D01*
X824Y1013D01*
X832Y994D01*
X844Y979D01*
X873Y950D01*
X868Y938D01*
X827D01*
Y880D01*
X915D01*
Y900D01*
X928Y907D01*
X932Y905D01*
X952Y902D01*
X1203D01*
Y822D01*
X1205Y812D01*
X1211Y804D01*
X1219Y798D01*
X1229Y796D01*
X1278D01*
X1285Y794D01*
X1304Y791D01*
X1324Y794D01*
X1330Y796D01*
X1379D01*
X1389Y798D01*
X1398Y804D01*
X1403Y812D01*
X1405Y822D01*
Y912D01*
X1403Y922D01*
X1398Y931D01*
X1389Y936D01*
X1379Y938D01*
X1378D01*
X1378Y943D01*
X1370Y962D01*
X1358Y978D01*
X1303Y1032D01*
X1288Y1044D01*
X1269Y1052D01*
X1250Y1055D01*
X994D01*
X990Y1067D01*
X991Y1068D01*
X997Y1077D01*
X999Y1086D01*
Y1176D01*
X997Y1186D01*
X991Y1195D01*
X983Y1200D01*
X973Y1202D01*
X924D01*
X918Y1205D01*
X898Y1207D01*
D02*
G37*
G36*
X3422Y1206D02*
X3403Y1204D01*
X3396Y1201D01*
X3347D01*
X3337Y1199D01*
X3329Y1193D01*
X3323Y1185D01*
X3321Y1175D01*
Y1085D01*
X3323Y1075D01*
X3329Y1067D01*
X3337Y1061D01*
X3346Y1059D01*
Y1031D01*
X3349Y1011D01*
X3356Y993D01*
X3368Y977D01*
X3397Y949D01*
X3392Y937D01*
X3351D01*
Y879D01*
X3440D01*
Y898D01*
X3452Y905D01*
X3456Y904D01*
X3476Y901D01*
X3728D01*
Y821D01*
X3730Y811D01*
X3735Y803D01*
X3744Y797D01*
X3754Y795D01*
X3764D01*
X3767Y782D01*
X3755Y778D01*
X3737Y763D01*
X3722Y745D01*
X3713Y723D01*
X3710Y700D01*
X3713Y677D01*
X3722Y655D01*
X3724Y653D01*
Y565D01*
X3727Y545D01*
X3728Y542D01*
Y491D01*
X3730Y481D01*
X3731Y480D01*
X3724Y467D01*
X3443D01*
X3437Y480D01*
X3438Y481D01*
X3440Y491D01*
Y581D01*
X3438Y591D01*
X3432Y599D01*
X3428Y602D01*
X3429Y616D01*
X3445Y622D01*
X3463Y637D01*
X3478Y655D01*
X3487Y677D01*
X3488Y687D01*
X3312D01*
X3313Y677D01*
X3322Y655D01*
X3337Y637D01*
X3355Y622D01*
X3351Y610D01*
X3339Y612D01*
X3319Y609D01*
X3313Y607D01*
X3264D01*
X3254Y605D01*
X3245Y599D01*
X3240Y591D01*
X3238Y581D01*
Y491D01*
X3240Y481D01*
X3245Y473D01*
X3254Y467D01*
X3264Y465D01*
X3268D01*
Y432D01*
X3270Y412D01*
X3278Y394D01*
X3290Y378D01*
X3331Y337D01*
X3347Y325D01*
X3365Y317D01*
X3385Y315D01*
X3995D01*
X4014Y317D01*
X4033Y325D01*
X4048Y337D01*
X4100Y388D01*
X4112Y404D01*
X4119Y422D01*
X4122Y442D01*
Y467D01*
X4131Y469D01*
X4139Y474D01*
X4145Y483D01*
X4147Y493D01*
Y583D01*
X4145Y592D01*
X4139Y601D01*
X4131Y606D01*
X4121Y608D01*
X4072D01*
X4065Y611D01*
X4046Y614D01*
X4030Y611D01*
X4026Y624D01*
X4039Y629D01*
X4054Y641D01*
X4100Y686D01*
X4112Y702D01*
X4119Y720D01*
X4122Y740D01*
Y797D01*
X4131Y799D01*
X4139Y804D01*
X4145Y813D01*
X4147Y823D01*
Y911D01*
X4159Y924D01*
X4253D01*
X4255Y922D01*
X4277Y913D01*
X4300Y910D01*
X4323Y913D01*
X4345Y922D01*
X4347Y924D01*
X4424D01*
X4435Y913D01*
Y823D01*
X4437Y813D01*
X4442Y804D01*
X4451Y799D01*
X4461Y797D01*
X4462D01*
X4462Y794D01*
X4470Y776D01*
X4472Y773D01*
X4467Y762D01*
X4465Y761D01*
X4444Y752D01*
X4425Y738D01*
X4411Y720D01*
X4402Y698D01*
X4401Y687D01*
X4489D01*
Y662D01*
X4401D01*
X4402Y652D01*
X4411Y630D01*
X4425Y611D01*
X4441Y599D01*
X4437Y592D01*
X4435Y583D01*
Y550D01*
X4536D01*
X4637D01*
Y583D01*
X4635Y592D01*
X4629Y601D01*
X4621Y606D01*
X4611Y608D01*
X4566D01*
X4560Y621D01*
X4567Y630D01*
X4575Y652D01*
X4577Y660D01*
X4589Y664D01*
X4659Y594D01*
X4656Y590D01*
X4654Y580D01*
Y490D01*
X4656Y480D01*
X4662Y472D01*
X4670Y466D01*
X4680Y464D01*
X4729D01*
X4735Y462D01*
X4755Y459D01*
X4775Y462D01*
X4781Y464D01*
X4830D01*
X4840Y466D01*
X4848Y472D01*
X4854Y480D01*
X4856Y490D01*
Y580D01*
X4854Y590D01*
X4848Y598D01*
X4840Y604D01*
X4831Y606D01*
X4828Y625D01*
X4824Y635D01*
X4821Y643D01*
X4809Y659D01*
X4686Y781D01*
X4691Y794D01*
X4729D01*
X4735Y792D01*
X4755Y789D01*
X4775Y792D01*
X4781Y794D01*
X4830D01*
X4840Y796D01*
X4848Y802D01*
X4854Y810D01*
X4856Y820D01*
Y910D01*
X4854Y920D01*
X4848Y928D01*
X4840Y934D01*
X4830Y936D01*
X4827D01*
X4821Y952D01*
X4809Y968D01*
X4723Y1054D01*
X4707Y1066D01*
X4689Y1073D01*
X4669Y1076D01*
X4347D01*
X4345Y1078D01*
X4323Y1087D01*
X4300Y1090D01*
X4277Y1087D01*
X4255Y1078D01*
X4253Y1076D01*
X4128D01*
X4108Y1073D01*
X4090Y1066D01*
X4074Y1054D01*
X3992Y972D01*
X3980Y956D01*
X3973Y938D01*
X3971D01*
X3961Y936D01*
X3952Y931D01*
X3947Y922D01*
X3945Y913D01*
Y823D01*
X3947Y813D01*
X3952Y804D01*
X3961Y799D01*
X3970Y797D01*
Y771D01*
X3969Y771D01*
X3854D01*
X3845Y778D01*
X3842Y779D01*
X3844Y792D01*
X3848Y792D01*
X3855Y795D01*
X3904D01*
X3914Y797D01*
X3922Y803D01*
X3928Y811D01*
X3930Y821D01*
Y911D01*
X3928Y921D01*
X3922Y929D01*
X3914Y935D01*
X3904Y937D01*
X3903D01*
X3902Y942D01*
X3895Y960D01*
X3882Y976D01*
X3828Y1031D01*
X3812Y1043D01*
X3794Y1051D01*
X3774Y1053D01*
X3518D01*
X3514Y1066D01*
X3516Y1067D01*
X3521Y1075D01*
X3523Y1085D01*
Y1175D01*
X3521Y1185D01*
X3516Y1193D01*
X3507Y1199D01*
X3497Y1201D01*
X3448D01*
X3442Y1204D01*
X3422Y1206D01*
D02*
G37*
G36*
X2312Y1211D02*
X2292Y1208D01*
X2286Y1206D01*
X2237D01*
X2227Y1204D01*
X2219Y1198D01*
X2213Y1190D01*
X2211Y1180D01*
Y1090D01*
X2213Y1080D01*
X2219Y1071D01*
X2227Y1066D01*
X2237Y1064D01*
X2238D01*
X2239Y1058D01*
X2246Y1040D01*
X2258Y1024D01*
X2334Y949D01*
X2350Y937D01*
X2357Y934D01*
X2368Y929D01*
X2388Y927D01*
X2598D01*
X2618Y906D01*
Y825D01*
X2620Y816D01*
X2625Y807D01*
X2634Y802D01*
X2644Y800D01*
X2693D01*
X2699Y797D01*
X2719Y794D01*
X2738Y797D01*
X2744Y800D01*
X2794D01*
X2803Y802D01*
X2812Y807D01*
X2817Y816D01*
X2819Y825D01*
Y915D01*
X2817Y925D01*
X2812Y934D01*
X2803Y939D01*
X2794Y941D01*
X2788D01*
X2784Y951D01*
X2772Y967D01*
X2683Y1056D01*
X2667Y1068D01*
X2649Y1076D01*
X2629Y1079D01*
X2422D01*
X2413Y1089D01*
X2413Y1090D01*
Y1180D01*
X2411Y1190D01*
X2405Y1198D01*
X2397Y1204D01*
X2387Y1206D01*
X2338D01*
X2332Y1208D01*
X2312Y1211D01*
D02*
G37*
G36*
X1759Y1098D02*
X1735Y1095D01*
X1714Y1086D01*
X1712Y1084D01*
X1610D01*
X1590Y1081D01*
X1572Y1074D01*
X1556Y1062D01*
X1468Y973D01*
X1456Y957D01*
X1448Y940D01*
X1446D01*
X1437Y938D01*
X1428Y932D01*
X1422Y924D01*
X1421Y914D01*
Y824D01*
X1422Y814D01*
X1428Y806D01*
X1437Y800D01*
X1445Y798D01*
Y773D01*
X1423Y751D01*
X1304D01*
X1302Y752D01*
X1281Y761D01*
X1257Y764D01*
X1234Y761D01*
X1213Y752D01*
X1194Y738D01*
X1180Y719D01*
X1171Y698D01*
X1168Y674D01*
X1171Y651D01*
X1180Y630D01*
X1181Y628D01*
Y584D01*
X1184Y565D01*
X1192Y546D01*
X1203Y531D01*
Y492D01*
X1205Y482D01*
X1206Y481D01*
X1200Y468D01*
X919D01*
X912Y481D01*
X913Y482D01*
X915Y492D01*
Y582D01*
X913Y592D01*
X908Y601D01*
X899Y606D01*
X889Y608D01*
X840D01*
X834Y611D01*
X814Y613D01*
X795Y611D01*
X788Y608D01*
X739D01*
X729Y606D01*
X721Y601D01*
X715Y592D01*
X713Y582D01*
Y492D01*
X715Y482D01*
X721Y474D01*
X729Y468D01*
X738Y467D01*
Y438D01*
X741Y419D01*
X748Y400D01*
X761Y384D01*
X807Y338D01*
X822Y326D01*
X830Y323D01*
X841Y319D01*
X860Y316D01*
X1470D01*
X1490Y319D01*
X1508Y326D01*
X1524Y338D01*
X1575Y390D01*
X1587Y405D01*
X1590Y413D01*
X1595Y424D01*
X1597Y443D01*
Y468D01*
X1606Y470D01*
X1615Y476D01*
X1620Y484D01*
X1622Y494D01*
Y584D01*
X1620Y594D01*
X1615Y602D01*
X1606Y608D01*
X1596Y610D01*
X1547D01*
X1541Y612D01*
X1521Y615D01*
X1521Y615D01*
X1515Y627D01*
X1575Y687D01*
X1587Y703D01*
X1590Y711D01*
X1595Y722D01*
X1597Y741D01*
Y798D01*
X1606Y800D01*
X1615Y806D01*
X1620Y814D01*
X1622Y824D01*
Y913D01*
X1641Y932D01*
X1712D01*
X1714Y930D01*
X1735Y921D01*
X1759Y918D01*
X1782Y921D01*
X1803Y930D01*
X1806Y932D01*
X1904D01*
X1912Y919D01*
X1911Y914D01*
Y824D01*
X1912Y814D01*
X1918Y806D01*
X1927Y800D01*
X1936Y798D01*
X1938D01*
X1938Y795D01*
X1946Y777D01*
X1947Y775D01*
X1943Y764D01*
X1941Y762D01*
X1920Y754D01*
X1901Y739D01*
X1887Y721D01*
X1878Y699D01*
X1876Y689D01*
X1964D01*
Y663D01*
X1876D01*
X1878Y653D01*
X1887Y631D01*
X1901Y613D01*
X1917Y600D01*
X1912Y594D01*
X1911Y584D01*
Y552D01*
X2011D01*
X2112D01*
Y584D01*
X2110Y594D01*
X2105Y602D01*
X2096Y608D01*
X2086Y610D01*
X2042D01*
X2035Y622D01*
X2042Y631D01*
X2051Y653D01*
X2052Y661D01*
X2064Y665D01*
X2131Y598D01*
X2130Y595D01*
X2128Y585D01*
Y495D01*
X2130Y486D01*
X2135Y477D01*
X2144Y472D01*
X2154Y470D01*
X2203D01*
X2209Y467D01*
X2229Y464D01*
X2248Y467D01*
X2254Y470D01*
X2304D01*
X2313Y472D01*
X2322Y477D01*
X2327Y486D01*
X2329Y495D01*
Y585D01*
X2327Y595D01*
X2322Y604D01*
X2313Y609D01*
X2304Y611D01*
X2302Y628D01*
X2294Y646D01*
X2282Y662D01*
X2158Y787D01*
X2163Y800D01*
X2203D01*
X2209Y797D01*
X2229Y794D01*
X2248Y797D01*
X2254Y800D01*
X2304D01*
X2313Y802D01*
X2322Y807D01*
X2327Y816D01*
X2329Y825D01*
Y915D01*
X2327Y925D01*
X2322Y934D01*
X2313Y939D01*
X2304Y941D01*
X2302D01*
X2294Y959D01*
X2282Y975D01*
X2195Y1062D01*
X2180Y1074D01*
X2161Y1081D01*
X2142Y1084D01*
X1806D01*
X1803Y1086D01*
X1782Y1095D01*
X1759Y1098D01*
D02*
G37*
G36*
X7106Y1193D02*
X7087Y1191D01*
X7080Y1188D01*
X7031D01*
X7021Y1186D01*
X7013Y1181D01*
X7007Y1172D01*
X7005Y1162D01*
Y1072D01*
X7007Y1062D01*
X7013Y1054D01*
X7021Y1048D01*
X7030Y1047D01*
Y1018D01*
X7033Y999D01*
X7040Y980D01*
X7052Y964D01*
X7081Y936D01*
X7076Y924D01*
X7035D01*
Y866D01*
X7124D01*
Y886D01*
X7136Y893D01*
X7140Y891D01*
X7160Y888D01*
X7412D01*
Y808D01*
X7414Y798D01*
X7419Y790D01*
X7428Y784D01*
X7438Y782D01*
X7487D01*
X7493Y780D01*
X7513Y777D01*
X7532Y780D01*
X7539Y782D01*
X7588D01*
X7598Y784D01*
X7606Y790D01*
X7612Y798D01*
X7614Y808D01*
Y898D01*
X7612Y908D01*
X7606Y916D01*
X7598Y922D01*
X7588Y924D01*
X7587D01*
X7586Y929D01*
X7579Y948D01*
X7567Y963D01*
X7512Y1018D01*
X7496Y1030D01*
X7478Y1038D01*
X7458Y1040D01*
X7202D01*
X7198Y1053D01*
X7200Y1054D01*
X7205Y1062D01*
X7207Y1072D01*
Y1162D01*
X7205Y1172D01*
X7200Y1181D01*
X7191Y1186D01*
X7181Y1188D01*
X7132D01*
X7126Y1191D01*
X7106Y1193D01*
D02*
G37*
G36*
X915Y855D02*
X713D01*
Y822D01*
X715Y812D01*
X721Y804D01*
X729Y798D01*
X739Y796D01*
X784D01*
X790Y784D01*
X784Y775D01*
X775Y753D01*
X773Y743D01*
X949D01*
X948Y753D01*
X939Y775D01*
X925Y794D01*
X909Y806D01*
X913Y812D01*
X915Y822D01*
Y855D01*
D02*
G37*
G36*
X8520Y1197D02*
X8501Y1194D01*
X8495Y1191D01*
X8445D01*
X8436Y1189D01*
X8427Y1184D01*
X8422Y1175D01*
X8420Y1165D01*
Y1075D01*
X8422Y1066D01*
X8427Y1057D01*
X8436Y1052D01*
X8445Y1050D01*
X8446D01*
X8447Y1044D01*
X8455Y1026D01*
X8467Y1010D01*
X8521Y955D01*
X8537Y943D01*
X8556Y936D01*
X8575Y933D01*
X8831D01*
X8835Y921D01*
X8834Y920D01*
X8828Y911D01*
X8826Y901D01*
Y811D01*
X8828Y801D01*
X8834Y793D01*
X8842Y787D01*
X8852Y785D01*
X8901D01*
X8907Y783D01*
X8927Y780D01*
X8947Y783D01*
X8953Y785D01*
X9002D01*
X9012Y787D01*
X9020Y793D01*
X9026Y801D01*
X9028Y811D01*
Y901D01*
X9026Y911D01*
X9020Y920D01*
X9012Y925D01*
X9003Y927D01*
Y955D01*
X9000Y975D01*
X8996Y986D01*
X8993Y993D01*
X8981Y1009D01*
X8952Y1038D01*
X8957Y1050D01*
X8998D01*
Y1108D01*
X8910D01*
Y1087D01*
X8904Y1084D01*
X8897Y1081D01*
X8893Y1083D01*
X8873Y1085D01*
X8621D01*
Y1165D01*
X8619Y1175D01*
X8614Y1184D01*
X8605Y1189D01*
X8595Y1191D01*
X8546D01*
X8540Y1194D01*
X8520Y1197D01*
D02*
G37*
G36*
X7967Y1083D02*
X7944Y1080D01*
X7922Y1071D01*
X7920Y1070D01*
X7818D01*
X7799Y1067D01*
X7780Y1060D01*
X7765Y1048D01*
X7676Y959D01*
X7664Y943D01*
X7657Y926D01*
X7655D01*
X7645Y924D01*
X7637Y918D01*
X7631Y910D01*
X7629Y900D01*
Y810D01*
X7631Y800D01*
X7637Y791D01*
X7645Y786D01*
X7654Y784D01*
Y759D01*
X7653Y758D01*
X7487D01*
X7468Y755D01*
X7449Y748D01*
X7449Y748D01*
X7443Y747D01*
X7421Y738D01*
X7402Y724D01*
X7388Y705D01*
X7379Y683D01*
X7376Y660D01*
X7379Y637D01*
X7388Y615D01*
X7390Y613D01*
Y570D01*
X7392Y550D01*
X7400Y532D01*
X7412Y516D01*
Y478D01*
X7414Y468D01*
X7415Y467D01*
X7408Y454D01*
X7127D01*
X7121Y467D01*
X7122Y468D01*
X7124Y478D01*
Y568D01*
X7122Y578D01*
X7116Y586D01*
X7108Y592D01*
X7098Y594D01*
X7049D01*
X7042Y597D01*
X7023Y599D01*
X7003Y597D01*
X6997Y594D01*
X6948D01*
X6938Y592D01*
X6929Y586D01*
X6924Y578D01*
X6922Y568D01*
Y478D01*
X6924Y468D01*
X6929Y460D01*
X6938Y454D01*
X6947Y452D01*
Y424D01*
X6949Y404D01*
X6957Y386D01*
X6969Y370D01*
X7015Y324D01*
X7031Y312D01*
X7038Y309D01*
X7049Y304D01*
X7069Y302D01*
X7679D01*
X7698Y304D01*
X7717Y312D01*
X7732Y324D01*
X7784Y375D01*
X7796Y391D01*
X7803Y409D01*
X7806Y429D01*
Y454D01*
X7815Y456D01*
X7823Y461D01*
X7829Y470D01*
X7831Y480D01*
Y570D01*
X7829Y580D01*
X7823Y588D01*
X7815Y594D01*
X7805Y596D01*
X7756D01*
X7750Y598D01*
X7730Y601D01*
X7714Y599D01*
X7710Y611D01*
X7723Y616D01*
X7739Y628D01*
X7784Y673D01*
X7796Y689D01*
X7803Y707D01*
X7806Y727D01*
Y784D01*
X7815Y786D01*
X7823Y791D01*
X7829Y800D01*
X7831Y810D01*
Y899D01*
X7850Y918D01*
X7920D01*
X7922Y916D01*
X7944Y907D01*
X7967Y904D01*
X7990Y907D01*
X8012Y916D01*
X8014Y918D01*
X8112D01*
X8120Y905D01*
X8119Y900D01*
Y810D01*
X8121Y800D01*
X8127Y791D01*
X8135Y786D01*
X8145Y784D01*
X8146D01*
X8146Y781D01*
X8154Y763D01*
X8156Y760D01*
X8151Y749D01*
X8149Y748D01*
X8128Y740D01*
X8110Y725D01*
X8095Y707D01*
X8086Y685D01*
X8085Y675D01*
X8173D01*
Y649D01*
X8085D01*
X8086Y639D01*
X8095Y617D01*
X8110Y598D01*
X8125Y586D01*
X8121Y580D01*
X8119Y570D01*
Y537D01*
X8220D01*
X8321D01*
Y570D01*
X8319Y580D01*
X8313Y588D01*
X8305Y594D01*
X8295Y596D01*
X8250D01*
X8244Y608D01*
X8251Y617D01*
X8260Y639D01*
X8261Y647D01*
X8273Y651D01*
X8340Y584D01*
X8338Y581D01*
X8336Y571D01*
Y481D01*
X8338Y471D01*
X8344Y463D01*
X8352Y457D01*
X8362Y455D01*
X8411D01*
X8417Y453D01*
X8437Y450D01*
X8457Y453D01*
X8463Y455D01*
X8512D01*
X8522Y457D01*
X8530Y463D01*
X8536Y471D01*
X8538Y481D01*
Y571D01*
X8536Y581D01*
X8530Y590D01*
X8522Y595D01*
X8513Y597D01*
X8510Y614D01*
X8506Y625D01*
X8503Y632D01*
X8491Y648D01*
X8366Y773D01*
X8371Y785D01*
X8411D01*
X8417Y783D01*
X8437Y780D01*
X8457Y783D01*
X8463Y785D01*
X8512D01*
X8522Y787D01*
X8530Y793D01*
X8536Y801D01*
X8538Y811D01*
Y901D01*
X8536Y911D01*
X8530Y920D01*
X8522Y925D01*
X8512Y927D01*
X8510D01*
X8503Y945D01*
X8491Y961D01*
X8404Y1048D01*
X8388Y1060D01*
X8370Y1067D01*
X8350Y1070D01*
X8014D01*
X8012Y1071D01*
X7990Y1080D01*
X7967Y1083D01*
D02*
G37*
G36*
X10946Y1209D02*
X10926Y1207D01*
X10920Y1204D01*
X10871D01*
X10861Y1202D01*
X10853Y1196D01*
X10847Y1188D01*
X10845Y1178D01*
Y1088D01*
X10847Y1078D01*
X10853Y1070D01*
X10861Y1064D01*
X10870Y1062D01*
Y1038D01*
X10858Y1031D01*
X10836Y1054D01*
X10820Y1066D01*
X10801Y1073D01*
X10782Y1076D01*
X10447D01*
X10445Y1078D01*
X10423Y1087D01*
X10400Y1090D01*
X10377Y1087D01*
X10355Y1078D01*
X10353Y1076D01*
X10237D01*
X10217Y1073D01*
X10207Y1069D01*
X10199Y1066D01*
X10183Y1054D01*
X10101Y972D01*
X10089Y956D01*
X10082Y938D01*
X10081Y936D01*
X10080D01*
X10070Y934D01*
X10062Y928D01*
X10057Y921D01*
X10050Y920D01*
X10043Y921D01*
X10038Y928D01*
X10030Y934D01*
X10020Y936D01*
X10018D01*
X10014Y946D01*
X10011Y953D01*
X9999Y969D01*
X9930Y1038D01*
X9914Y1050D01*
X9896Y1057D01*
X9876Y1060D01*
X9636D01*
X9629Y1073D01*
X9631Y1075D01*
X9633Y1085D01*
Y1175D01*
X9631Y1185D01*
X9625Y1193D01*
X9617Y1199D01*
X9607Y1201D01*
X9557D01*
X9551Y1203D01*
X9532Y1206D01*
X9512Y1203D01*
X9506Y1201D01*
X9457D01*
X9447Y1199D01*
X9438Y1193D01*
X9433Y1185D01*
X9431Y1175D01*
Y1085D01*
X9433Y1075D01*
X9438Y1067D01*
X9447Y1061D01*
X9456Y1059D01*
Y1031D01*
X9458Y1011D01*
X9466Y993D01*
X9478Y977D01*
X9507Y948D01*
X9502Y936D01*
X9468D01*
Y878D01*
X9556D01*
Y899D01*
X9569Y909D01*
X9579Y908D01*
X9844D01*
Y820D01*
X9846Y810D01*
X9852Y802D01*
X9860Y796D01*
X9870Y794D01*
X9919D01*
X9925Y792D01*
X9945Y789D01*
X9965Y792D01*
X9971Y794D01*
X10020D01*
X10030Y796D01*
X10038Y802D01*
X10043Y809D01*
X10050Y810D01*
X10057Y809D01*
X10062Y802D01*
X10070Y796D01*
X10079Y794D01*
Y771D01*
X10079Y771D01*
X9913D01*
X9893Y768D01*
X9875Y760D01*
X9875Y760D01*
X9868Y759D01*
X9846Y750D01*
X9828Y736D01*
X9814Y718D01*
X9805Y696D01*
X9802Y673D01*
X9805Y650D01*
X9814Y628D01*
X9815Y626D01*
Y589D01*
X9818Y569D01*
X9825Y551D01*
X9837Y535D01*
X9844Y528D01*
Y490D01*
X9833Y480D01*
X9567D01*
X9556Y490D01*
Y580D01*
X9554Y590D01*
X9548Y598D01*
X9540Y604D01*
X9530Y606D01*
X9481D01*
X9475Y608D01*
X9455Y611D01*
X9435Y608D01*
X9429Y606D01*
X9380D01*
X9370Y604D01*
X9362Y598D01*
X9356Y590D01*
X9354Y580D01*
Y490D01*
X9356Y480D01*
X9362Y472D01*
X9370Y466D01*
X9380Y464D01*
X9383D01*
Y438D01*
X9386Y418D01*
X9394Y400D01*
X9406Y384D01*
X9440Y350D01*
X9456Y338D01*
X9463Y335D01*
X9474Y330D01*
X9494Y328D01*
X10091D01*
X10111Y330D01*
X10129Y338D01*
X10145Y350D01*
X10209Y414D01*
X10221Y430D01*
X10224Y437D01*
X10228Y448D01*
X10231Y464D01*
X10240Y466D01*
X10248Y472D01*
X10254Y480D01*
X10256Y490D01*
Y580D01*
X10254Y590D01*
X10248Y598D01*
X10240Y604D01*
X10230Y606D01*
X10181D01*
X10175Y608D01*
X10155Y611D01*
X10135Y608D01*
X10129Y606D01*
X10112D01*
X10111Y619D01*
X10130Y621D01*
X10148Y629D01*
X10164Y641D01*
X10209Y686D01*
X10221Y701D01*
X10228Y720D01*
X10231Y739D01*
Y794D01*
X10240Y796D01*
X10248Y802D01*
X10254Y810D01*
X10256Y820D01*
Y910D01*
X10256Y911D01*
X10268Y924D01*
X10353D01*
X10355Y922D01*
X10377Y913D01*
X10400Y910D01*
X10423Y913D01*
X10445Y922D01*
X10447Y924D01*
X10535D01*
X10544Y911D01*
X10544Y910D01*
Y820D01*
X10546Y810D01*
X10552Y802D01*
X10560Y796D01*
X10570Y794D01*
X10571D01*
X10572Y794D01*
X10579Y775D01*
X10580Y774D01*
X10576Y762D01*
X10574Y761D01*
X10553Y752D01*
X10535Y738D01*
X10521Y719D01*
X10512Y698D01*
X10510Y687D01*
X10598D01*
Y662D01*
X10510D01*
X10512Y651D01*
X10521Y630D01*
X10535Y611D01*
X10552Y598D01*
X10546Y590D01*
X10544Y580D01*
Y548D01*
X10645D01*
Y535D01*
X10658D01*
Y464D01*
X10720D01*
X10730Y466D01*
X10738Y472D01*
X10743Y479D01*
X10750Y480D01*
X10757Y479D01*
X10762Y472D01*
X10770Y466D01*
X10780Y464D01*
X10829D01*
X10835Y462D01*
X10855Y459D01*
X10875Y462D01*
X10881Y464D01*
X10930D01*
X10940Y466D01*
X10948Y472D01*
X10954Y480D01*
X10956Y490D01*
Y580D01*
X10954Y590D01*
X10948Y598D01*
X10940Y604D01*
X10931Y606D01*
Y614D01*
X10928Y634D01*
X10924Y645D01*
X10921Y652D01*
X10909Y668D01*
X10794Y782D01*
X10799Y794D01*
X10829D01*
X10835Y792D01*
X10855Y789D01*
X10875Y792D01*
X10881Y794D01*
X10930D01*
X10940Y796D01*
X10948Y802D01*
X10954Y810D01*
X10956Y820D01*
Y903D01*
X10968Y911D01*
X10968Y912D01*
X10980Y907D01*
X11000Y904D01*
X11244D01*
Y820D01*
X11246Y810D01*
X11252Y802D01*
X11260Y796D01*
X11264Y795D01*
X11266Y782D01*
X11255Y778D01*
X11237Y763D01*
X11222Y745D01*
X11213Y723D01*
X11212Y713D01*
X11388D01*
X11387Y723D01*
X11378Y745D01*
X11363Y763D01*
X11346Y776D01*
X11347Y783D01*
X11349Y790D01*
X11365Y792D01*
X11371Y794D01*
X11420D01*
X11430Y796D01*
X11438Y802D01*
X11444Y810D01*
X11446Y820D01*
Y910D01*
X11444Y920D01*
X11438Y928D01*
X11430Y934D01*
X11421Y936D01*
X11418Y952D01*
X11411Y971D01*
X11399Y986D01*
X11351Y1034D01*
X11336Y1046D01*
X11317Y1054D01*
X11298Y1056D01*
X11042D01*
X11038Y1069D01*
X11039Y1070D01*
X11045Y1078D01*
X11047Y1088D01*
Y1178D01*
X11045Y1188D01*
X11039Y1196D01*
X11031Y1202D01*
X11021Y1204D01*
X10972D01*
X10966Y1207D01*
X10946Y1209D01*
D02*
G37*
G36*
X802Y938D02*
X739D01*
X729Y936D01*
X721Y931D01*
X715Y922D01*
X713Y912D01*
Y880D01*
X802D01*
Y938D01*
D02*
G37*
G36*
X9111Y1108D02*
X9023D01*
Y1050D01*
X9085D01*
X9095Y1052D01*
X9104Y1057D01*
X9109Y1066D01*
X9111Y1075D01*
Y1108D01*
D02*
G37*
G36*
X7549Y1344D02*
X7526Y1341D01*
X7504Y1332D01*
X7486Y1318D01*
X7472Y1299D01*
X7463Y1278D01*
X7460Y1254D01*
X7463Y1231D01*
X7472Y1210D01*
X7473Y1208D01*
Y1164D01*
X7476Y1145D01*
X7483Y1126D01*
X7495Y1111D01*
Y1072D01*
X7497Y1062D01*
X7503Y1054D01*
X7511Y1048D01*
X7521Y1046D01*
X7570D01*
X7577Y1044D01*
X7596Y1041D01*
X7616Y1044D01*
X7622Y1046D01*
X7671D01*
X7681Y1048D01*
X7690Y1054D01*
X7695Y1062D01*
X7697Y1072D01*
Y1162D01*
X7695Y1172D01*
X7690Y1181D01*
X7681Y1186D01*
X7671Y1188D01*
X7633D01*
X7625Y1196D01*
Y1208D01*
X7627Y1210D01*
X7636Y1231D01*
X7639Y1254D01*
X7636Y1278D01*
X7627Y1299D01*
X7613Y1318D01*
X7594Y1332D01*
X7573Y1341D01*
X7549Y1344D01*
D02*
G37*
G36*
X7010Y924D02*
X6948D01*
X6938Y922D01*
X6929Y916D01*
X6924Y908D01*
X6922Y898D01*
Y866D01*
X7010D01*
Y924D01*
D02*
G37*
G36*
X3326Y853D02*
X3238D01*
Y821D01*
X3240Y811D01*
X3245Y803D01*
X3254Y797D01*
X3264Y795D01*
X3326D01*
Y853D01*
D02*
G37*
G36*
Y937D02*
X3264D01*
X3254Y935D01*
X3245Y929D01*
X3240Y921D01*
X3238Y911D01*
Y879D01*
X3326D01*
Y937D01*
D02*
G37*
G36*
X9442Y936D02*
X9380D01*
X9370Y934D01*
X9362Y928D01*
X9356Y920D01*
X9354Y910D01*
Y878D01*
X9442D01*
Y936D01*
D02*
G37*
G36*
X9214Y3130D02*
X9191Y3127D01*
X9169Y3118D01*
X9151Y3104D01*
X9136Y3085D01*
X9127Y3063D01*
X9124Y3040D01*
X9127Y3017D01*
X9136Y2995D01*
X9138Y2993D01*
Y2950D01*
X9141Y2930D01*
X9148Y2912D01*
X9160Y2896D01*
Y2858D01*
X9162Y2848D01*
X9168Y2840D01*
X9176Y2834D01*
X9186Y2832D01*
X9235D01*
X9241Y2829D01*
X9261Y2827D01*
X9281Y2829D01*
X9287Y2832D01*
X9336D01*
X9346Y2834D01*
X9354Y2840D01*
X9360Y2848D01*
X9362Y2858D01*
Y2948D01*
X9360Y2958D01*
X9354Y2966D01*
X9346Y2972D01*
X9336Y2974D01*
X9298D01*
X9290Y2981D01*
Y2993D01*
X9292Y2995D01*
X9301Y3017D01*
X9304Y3040D01*
X9301Y3063D01*
X9292Y3085D01*
X9277Y3104D01*
X9259Y3118D01*
X9237Y3127D01*
X9214Y3130D01*
D02*
G37*
G36*
X3577Y2719D02*
X3514D01*
X3504Y2717D01*
X3496Y2712D01*
X3490Y2703D01*
X3488Y2693D01*
Y2661D01*
X3577D01*
Y2719D01*
D02*
G37*
G36*
X5530Y3143D02*
X5507Y3140D01*
X5485Y3131D01*
X5467Y3116D01*
X5452Y3098D01*
X5443Y3076D01*
X5440Y3053D01*
X5443Y3030D01*
X5452Y3008D01*
X5454Y3006D01*
Y2963D01*
X5457Y2943D01*
X5464Y2925D01*
X5476Y2909D01*
Y2871D01*
X5478Y2861D01*
X5484Y2852D01*
X5492Y2847D01*
X5502Y2845D01*
X5551D01*
X5557Y2842D01*
X5577Y2840D01*
X5597Y2842D01*
X5603Y2845D01*
X5652D01*
X5662Y2847D01*
X5670Y2852D01*
X5676Y2861D01*
X5678Y2871D01*
Y2961D01*
X5676Y2971D01*
X5670Y2979D01*
X5662Y2985D01*
X5652Y2987D01*
X5614D01*
X5606Y2994D01*
Y3006D01*
X5608Y3008D01*
X5617Y3030D01*
X5620Y3053D01*
X5617Y3076D01*
X5608Y3098D01*
X5593Y3116D01*
X5575Y3131D01*
X5553Y3140D01*
X5530Y3143D01*
D02*
G37*
G36*
X11639Y3142D02*
X11616Y3139D01*
X11595Y3130D01*
X11576Y3116D01*
X11562Y3098D01*
X11553Y3076D01*
X11550Y3053D01*
X11553Y3029D01*
X11562Y3008D01*
X11563Y3006D01*
Y2962D01*
X11566Y2943D01*
X11574Y2924D01*
X11585Y2909D01*
Y2871D01*
X11587Y2861D01*
X11593Y2852D01*
X11601Y2847D01*
X11611Y2845D01*
X11660D01*
X11667Y2842D01*
X11686Y2839D01*
X11706Y2842D01*
X11712Y2845D01*
X11761D01*
X11771Y2847D01*
X11780Y2852D01*
X11785Y2861D01*
X11787Y2871D01*
Y2961D01*
X11785Y2970D01*
X11780Y2979D01*
X11771Y2984D01*
X11761Y2986D01*
X11723D01*
X11715Y2994D01*
Y3006D01*
X11717Y3008D01*
X11726Y3029D01*
X11729Y3053D01*
X11726Y3076D01*
X11717Y3098D01*
X11703Y3116D01*
X11684Y3130D01*
X11663Y3139D01*
X11639Y3142D01*
D02*
G37*
G36*
X6101Y2718D02*
X6039D01*
X6029Y2716D01*
X6020Y2710D01*
X6015Y2702D01*
X6013Y2692D01*
Y2660D01*
X6101D01*
Y2718D01*
D02*
G37*
G36*
X7261Y2706D02*
X7198D01*
X7188Y2705D01*
X7180Y2699D01*
X7174Y2690D01*
X7172Y2681D01*
Y2648D01*
X7261D01*
Y2706D01*
D02*
G37*
G36*
X9686Y2719D02*
X9624D01*
X9614Y2717D01*
X9605Y2711D01*
X9600Y2703D01*
X9598Y2693D01*
Y2661D01*
X9686D01*
Y2719D01*
D02*
G37*
G36*
X6189Y2718D02*
X6126D01*
Y2660D01*
X6214D01*
Y2692D01*
X6213Y2702D01*
X6207Y2710D01*
X6199Y2716D01*
X6189Y2718D01*
D02*
G37*
G36*
X9816Y3092D02*
X9741D01*
X9742Y3082D01*
X9751Y3060D01*
X9766Y3042D01*
X9784Y3028D01*
X9806Y3019D01*
X9816Y3017D01*
Y3092D01*
D02*
G37*
G36*
X8888Y3087D02*
X8813D01*
Y3012D01*
X8823Y3013D01*
X8845Y3022D01*
X8863Y3037D01*
X8878Y3055D01*
X8887Y3077D01*
X8888Y3087D01*
D02*
G37*
G36*
X3707Y3093D02*
X3632D01*
X3633Y3082D01*
X3642Y3061D01*
X3656Y3042D01*
X3675Y3028D01*
X3696Y3019D01*
X3707Y3017D01*
Y3093D01*
D02*
G37*
G36*
X9917Y3092D02*
X9842D01*
Y3017D01*
X9852Y3019D01*
X9874Y3028D01*
X9892Y3042D01*
X9907Y3060D01*
X9916Y3082D01*
X9917Y3092D01*
D02*
G37*
G36*
X7391Y3080D02*
X7316D01*
X7317Y3069D01*
X7326Y3048D01*
X7340Y3029D01*
X7359Y3015D01*
X7381Y3006D01*
X7391Y3005D01*
Y3080D01*
D02*
G37*
G36*
X3006Y3144D02*
X2982Y3141D01*
X2961Y3132D01*
X2942Y3118D01*
X2928Y3099D01*
X2919Y3078D01*
X2916Y3054D01*
X2919Y3031D01*
X2928Y3009D01*
X2930Y3007D01*
Y2964D01*
X2932Y2944D01*
X2940Y2926D01*
X2952Y2911D01*
Y2872D01*
X2954Y2862D01*
X2959Y2854D01*
X2968Y2848D01*
X2978Y2846D01*
X3027D01*
X3033Y2844D01*
X3053Y2841D01*
X3072Y2844D01*
X3078Y2846D01*
X3128D01*
X3137Y2848D01*
X3146Y2854D01*
X3151Y2862D01*
X3153Y2872D01*
Y2962D01*
X3151Y2972D01*
X3146Y2980D01*
X3137Y2986D01*
X3128Y2988D01*
X3089D01*
X3082Y2996D01*
Y3007D01*
X3083Y3009D01*
X3092Y3031D01*
X3095Y3054D01*
X3092Y3078D01*
X3083Y3099D01*
X3069Y3118D01*
X3050Y3132D01*
X3029Y3141D01*
X3006Y3144D01*
D02*
G37*
G36*
X8787Y3087D02*
X8712D01*
X8713Y3077D01*
X8722Y3055D01*
X8737Y3037D01*
X8755Y3022D01*
X8777Y3013D01*
X8787Y3012D01*
Y3087D01*
D02*
G37*
G36*
X7492Y3080D02*
X7416D01*
Y3005D01*
X7427Y3006D01*
X7449Y3015D01*
X7467Y3029D01*
X7481Y3048D01*
X7490Y3069D01*
X7492Y3080D01*
D02*
G37*
G36*
X9800Y2635D02*
X9598D01*
Y2603D01*
X9600Y2593D01*
X9605Y2585D01*
X9614Y2579D01*
X9624Y2577D01*
X9668D01*
X9675Y2565D01*
X9668Y2556D01*
X9659Y2534D01*
X9658Y2524D01*
X9834D01*
X9832Y2534D01*
X9823Y2556D01*
X9809Y2574D01*
X9793Y2587D01*
X9798Y2593D01*
X9800Y2603D01*
Y2635D01*
D02*
G37*
G36*
X6214Y2634D02*
X6013D01*
Y2602D01*
X6015Y2592D01*
X6020Y2584D01*
X6029Y2578D01*
X6039Y2576D01*
X6083D01*
X6090Y2563D01*
X6083Y2555D01*
X6074Y2533D01*
X6073Y2523D01*
X6249D01*
X6247Y2533D01*
X6238Y2555D01*
X6224Y2573D01*
X6208Y2586D01*
X6213Y2592D01*
X6214Y2602D01*
Y2634D01*
D02*
G37*
G36*
X9177Y2715D02*
X9158Y2712D01*
X9152Y2710D01*
X9102D01*
X9093Y2708D01*
X9084Y2702D01*
X9079Y2694D01*
X9077Y2684D01*
Y2594D01*
X9079Y2584D01*
X9084Y2575D01*
X9093Y2570D01*
X9102Y2568D01*
X9141D01*
X9169Y2540D01*
X9161Y2529D01*
X9154Y2533D01*
X9143Y2534D01*
Y2459D01*
X9219D01*
X9217Y2469D01*
X9214Y2477D01*
X9225Y2484D01*
X9252Y2457D01*
X9267Y2445D01*
X9275Y2442D01*
X9286Y2438D01*
X9305Y2435D01*
X9387D01*
X9389Y2433D01*
X9411Y2424D01*
X9434Y2421D01*
X9457Y2424D01*
X9479Y2433D01*
X9497Y2448D01*
X9511Y2466D01*
X9520Y2488D01*
X9523Y2511D01*
X9520Y2534D01*
X9511Y2556D01*
X9497Y2574D01*
X9479Y2589D01*
X9457Y2598D01*
X9434Y2601D01*
X9411Y2598D01*
X9389Y2589D01*
X9387Y2587D01*
X9337D01*
X9278Y2645D01*
Y2684D01*
X9276Y2694D01*
X9271Y2702D01*
X9262Y2708D01*
X9252Y2710D01*
X9203D01*
X9197Y2712D01*
X9177Y2715D01*
D02*
G37*
G36*
X3690Y2636D02*
X3488D01*
Y2603D01*
X3490Y2594D01*
X3496Y2585D01*
X3504Y2580D01*
X3514Y2578D01*
X3559D01*
X3565Y2565D01*
X3559Y2556D01*
X3550Y2534D01*
X3548Y2524D01*
X3724D01*
X3723Y2534D01*
X3714Y2556D01*
X3700Y2575D01*
X3684Y2587D01*
X3688Y2594D01*
X3690Y2603D01*
Y2636D01*
D02*
G37*
G36*
X5434Y2547D02*
X5423Y2545D01*
X5402Y2536D01*
X5383Y2522D01*
X5369Y2504D01*
X5360Y2482D01*
X5358Y2472D01*
X5434D01*
Y2547D01*
D02*
G37*
G36*
X11569Y2547D02*
Y2471D01*
X11644D01*
X11643Y2482D01*
X11634Y2503D01*
X11619Y2522D01*
X11601Y2536D01*
X11579Y2545D01*
X11569Y2547D01*
D02*
G37*
G36*
X7374Y2623D02*
X7172D01*
Y2591D01*
X7174Y2581D01*
X7180Y2572D01*
X7188Y2567D01*
X7198Y2565D01*
X7243D01*
X7249Y2552D01*
X7243Y2543D01*
X7234Y2522D01*
X7232Y2511D01*
X7408D01*
X7407Y2522D01*
X7398Y2543D01*
X7384Y2562D01*
X7368Y2574D01*
X7372Y2581D01*
X7374Y2591D01*
Y2623D01*
D02*
G37*
G36*
X2909Y2548D02*
X2899Y2547D01*
X2877Y2538D01*
X2859Y2524D01*
X2844Y2505D01*
X2835Y2483D01*
X2834Y2473D01*
X2909D01*
Y2548D01*
D02*
G37*
G36*
X9782Y2988D02*
X9762Y2986D01*
X9756Y2983D01*
X9707D01*
X9697Y2981D01*
X9689Y2976D01*
X9683Y2967D01*
X9681Y2957D01*
Y2867D01*
X9683Y2857D01*
X9689Y2849D01*
X9697Y2843D01*
X9706Y2842D01*
Y2813D01*
X9709Y2794D01*
X9716Y2775D01*
X9728Y2759D01*
X9757Y2731D01*
X9752Y2719D01*
X9711D01*
Y2661D01*
X9800D01*
Y2681D01*
X9812Y2688D01*
X9816Y2686D01*
X9836Y2683D01*
X10088D01*
Y2603D01*
X10090Y2593D01*
X10095Y2585D01*
X10104Y2579D01*
X10114Y2577D01*
X10163D01*
X10169Y2575D01*
X10189Y2572D01*
X10208Y2575D01*
X10214Y2577D01*
X10264D01*
X10274Y2579D01*
X10282Y2585D01*
X10288Y2593D01*
X10290Y2603D01*
Y2693D01*
X10288Y2703D01*
X10282Y2711D01*
X10274Y2717D01*
X10264Y2719D01*
X10263D01*
X10262Y2724D01*
X10254Y2743D01*
X10242Y2758D01*
X10188Y2813D01*
X10172Y2825D01*
X10154Y2833D01*
X10134Y2835D01*
X9878D01*
X9874Y2848D01*
X9875Y2849D01*
X9881Y2857D01*
X9883Y2867D01*
Y2957D01*
X9881Y2967D01*
X9875Y2976D01*
X9867Y2981D01*
X9857Y2983D01*
X9808D01*
X9802Y2986D01*
X9782Y2988D01*
D02*
G37*
G36*
X5785Y3157D02*
X5762Y3153D01*
X5740Y3145D01*
X5722Y3130D01*
X5708Y3112D01*
X5699Y3090D01*
X5696Y3067D01*
X5699Y3044D01*
X5708Y3022D01*
X5722Y3003D01*
X5740Y2989D01*
X5762Y2980D01*
X5785Y2977D01*
X5809Y2980D01*
X5830Y2989D01*
X5832Y2991D01*
X6350D01*
X6528Y2813D01*
Y2718D01*
X6519Y2716D01*
X6510Y2710D01*
X6505Y2702D01*
X6503Y2692D01*
Y2602D01*
X6505Y2592D01*
X6510Y2584D01*
X6519Y2578D01*
X6529Y2576D01*
X6578D01*
X6584Y2574D01*
X6604Y2571D01*
X6623Y2574D01*
X6629Y2576D01*
X6679D01*
X6689Y2578D01*
X6697Y2584D01*
X6703Y2592D01*
X6704Y2602D01*
Y2692D01*
X6703Y2702D01*
X6697Y2710D01*
X6689Y2716D01*
X6680Y2718D01*
Y2844D01*
X6677Y2864D01*
X6669Y2882D01*
X6657Y2898D01*
X6435Y3121D01*
X6419Y3133D01*
X6401Y3140D01*
X6381Y3143D01*
X5832D01*
X5830Y3145D01*
X5809Y3153D01*
X5785Y3157D01*
D02*
G37*
G36*
X1148Y2990D02*
X1129Y2987D01*
X1122Y2985D01*
X1073D01*
X1063Y2983D01*
X1055Y2977D01*
X1049Y2969D01*
X1047Y2959D01*
Y2869D01*
X1049Y2859D01*
X1055Y2851D01*
X1063Y2845D01*
X1072Y2843D01*
Y2815D01*
X1075Y2795D01*
X1082Y2777D01*
X1095Y2761D01*
X1123Y2732D01*
X1118Y2721D01*
X1078D01*
Y2662D01*
X1166D01*
Y2682D01*
X1178Y2689D01*
X1183Y2688D01*
X1202Y2685D01*
X1454D01*
Y2605D01*
X1456Y2595D01*
X1462Y2586D01*
X1470Y2581D01*
X1480Y2579D01*
X1529D01*
X1535Y2576D01*
X1555Y2574D01*
X1575Y2576D01*
X1581Y2579D01*
X1630D01*
X1640Y2581D01*
X1648Y2586D01*
X1654Y2595D01*
X1656Y2605D01*
Y2695D01*
X1654Y2705D01*
X1648Y2713D01*
X1640Y2719D01*
X1630Y2721D01*
X1629D01*
X1628Y2726D01*
X1621Y2744D01*
X1609Y2760D01*
X1554Y2815D01*
X1538Y2827D01*
X1520Y2834D01*
X1500Y2837D01*
X1244D01*
X1240Y2850D01*
X1242Y2851D01*
X1247Y2859D01*
X1249Y2869D01*
Y2959D01*
X1247Y2969D01*
X1242Y2977D01*
X1233Y2983D01*
X1223Y2985D01*
X1174D01*
X1168Y2987D01*
X1148Y2990D01*
D02*
G37*
G36*
X3673Y2989D02*
X3653Y2986D01*
X3647Y2983D01*
X3598D01*
X3588Y2982D01*
X3579Y2976D01*
X3574Y2968D01*
X3572Y2958D01*
Y2868D01*
X3574Y2858D01*
X3579Y2849D01*
X3588Y2844D01*
X3597Y2842D01*
Y2814D01*
X3599Y2794D01*
X3607Y2776D01*
X3619Y2760D01*
X3648Y2731D01*
X3643Y2719D01*
X3602D01*
Y2661D01*
X3690D01*
Y2680D01*
X3703Y2688D01*
X3707Y2686D01*
X3727Y2684D01*
X3978D01*
Y2603D01*
X3980Y2594D01*
X3986Y2585D01*
X3994Y2580D01*
X4004Y2578D01*
X4053D01*
X4060Y2575D01*
X4079Y2572D01*
X4099Y2575D01*
X4105Y2578D01*
X4154D01*
X4164Y2580D01*
X4173Y2585D01*
X4178Y2594D01*
X4180Y2603D01*
Y2693D01*
X4178Y2703D01*
X4173Y2712D01*
X4164Y2717D01*
X4154Y2719D01*
X4153D01*
X4153Y2725D01*
X4145Y2743D01*
X4133Y2759D01*
X4078Y2813D01*
X4063Y2825D01*
X4044Y2833D01*
X4025Y2836D01*
X3769D01*
X3765Y2848D01*
X3766Y2849D01*
X3772Y2858D01*
X3774Y2868D01*
Y2958D01*
X3772Y2968D01*
X3766Y2976D01*
X3758Y2982D01*
X3748Y2983D01*
X3699D01*
X3692Y2986D01*
X3673Y2989D01*
D02*
G37*
G36*
X2969Y2729D02*
X2949Y2726D01*
X2943Y2724D01*
X2894D01*
X2884Y2722D01*
X2876Y2716D01*
X2870Y2708D01*
X2868Y2698D01*
Y2608D01*
X2870Y2598D01*
X2876Y2590D01*
X2884Y2584D01*
X2894Y2582D01*
X2932D01*
X2960Y2554D01*
X2953Y2544D01*
X2945Y2547D01*
X2935Y2548D01*
Y2473D01*
X3010D01*
X3009Y2483D01*
X3006Y2491D01*
X3016Y2498D01*
X3106Y2408D01*
X3122Y2396D01*
X3141Y2388D01*
X3160Y2386D01*
X3270D01*
X3273Y2384D01*
X3294Y2375D01*
X3317Y2372D01*
X3341Y2375D01*
X3362Y2384D01*
X3381Y2398D01*
X3395Y2417D01*
X3404Y2439D01*
X3407Y2462D01*
X3404Y2485D01*
X3395Y2507D01*
X3381Y2525D01*
X3362Y2539D01*
X3341Y2548D01*
X3317Y2551D01*
X3294Y2548D01*
X3273Y2539D01*
X3270Y2538D01*
X3192D01*
X3070Y2660D01*
Y2698D01*
X3068Y2708D01*
X3062Y2716D01*
X3054Y2722D01*
X3044Y2724D01*
X2995D01*
X2989Y2726D01*
X2969Y2729D01*
D02*
G37*
G36*
X5495Y2728D02*
X5493D01*
X5474Y2725D01*
X5468Y2723D01*
X5418D01*
X5409Y2721D01*
X5400Y2715D01*
X5394Y2707D01*
X5393Y2697D01*
Y2607D01*
X5394Y2597D01*
X5400Y2588D01*
X5409Y2583D01*
X5418Y2581D01*
X5457D01*
X5484Y2553D01*
X5477Y2542D01*
X5470Y2545D01*
X5459Y2547D01*
Y2472D01*
X5534D01*
X5533Y2482D01*
X5530Y2490D01*
X5541Y2497D01*
X5673Y2364D01*
X5689Y2352D01*
X5708Y2344D01*
X5727Y2342D01*
X5738D01*
X5740Y2340D01*
X5762Y2331D01*
X5785Y2328D01*
X5809Y2331D01*
X5830Y2340D01*
X5849Y2354D01*
X5863Y2373D01*
X5872Y2395D01*
X5875Y2418D01*
X5872Y2441D01*
X5863Y2463D01*
X5849Y2481D01*
X5830Y2496D01*
X5809Y2504D01*
X5785Y2508D01*
X5762Y2504D01*
X5752Y2500D01*
X5594Y2658D01*
Y2697D01*
X5592Y2707D01*
X5587Y2715D01*
X5578Y2721D01*
X5568Y2723D01*
X5521D01*
X5515Y2725D01*
X5495Y2728D01*
D02*
G37*
G36*
X11849Y2741D02*
X11825Y2738D01*
X11804Y2729D01*
X11802Y2727D01*
X11603D01*
X11583Y2725D01*
X11577Y2722D01*
X11528D01*
X11518Y2720D01*
X11510Y2715D01*
X11504Y2706D01*
X11502Y2696D01*
Y2606D01*
X11504Y2596D01*
X11510Y2588D01*
X11518Y2582D01*
X11528Y2580D01*
X11577D01*
X11583Y2578D01*
X11603Y2575D01*
X11802D01*
X11804Y2574D01*
X11825Y2565D01*
X11849Y2562D01*
X11872Y2565D01*
X11893Y2574D01*
X11912Y2588D01*
X11926Y2607D01*
X11935Y2628D01*
X11938Y2651D01*
X11935Y2675D01*
X11926Y2696D01*
X11912Y2715D01*
X11893Y2729D01*
X11872Y2738D01*
X11849Y2741D01*
D02*
G37*
G36*
X7357Y2976D02*
X7337Y2973D01*
X7331Y2971D01*
X7282D01*
X7272Y2969D01*
X7263Y2963D01*
X7258Y2955D01*
X7256Y2945D01*
Y2855D01*
X7258Y2845D01*
X7263Y2836D01*
X7272Y2831D01*
X7281Y2829D01*
Y2801D01*
X7283Y2781D01*
X7291Y2763D01*
X7303Y2747D01*
X7332Y2718D01*
X7327Y2706D01*
X7286D01*
Y2648D01*
X7374D01*
Y2663D01*
X7387Y2671D01*
X7398Y2666D01*
X7418Y2664D01*
X7662D01*
Y2591D01*
X7664Y2581D01*
X7670Y2572D01*
X7678Y2567D01*
X7688Y2565D01*
X7737D01*
X7744Y2562D01*
X7763Y2560D01*
X7783Y2562D01*
X7789Y2565D01*
X7838D01*
X7848Y2567D01*
X7857Y2572D01*
X7862Y2581D01*
X7864Y2591D01*
Y2681D01*
X7862Y2690D01*
X7857Y2699D01*
X7848Y2705D01*
X7838Y2706D01*
X7833D01*
X7829Y2716D01*
X7817Y2732D01*
X7755Y2794D01*
X7740Y2806D01*
X7721Y2813D01*
X7702Y2816D01*
X7457D01*
X7450Y2824D01*
X7450Y2836D01*
X7456Y2845D01*
X7458Y2855D01*
Y2945D01*
X7456Y2955D01*
X7450Y2963D01*
X7442Y2969D01*
X7432Y2971D01*
X7383D01*
X7376Y2973D01*
X7357Y2976D01*
D02*
G37*
G36*
X3808Y3093D02*
X3732D01*
Y3017D01*
X3743Y3019D01*
X3764Y3028D01*
X3783Y3042D01*
X3797Y3061D01*
X3806Y3082D01*
X3808Y3093D01*
D02*
G37*
G36*
X11297Y3233D02*
X11095D01*
Y3201D01*
X11097Y3191D01*
X11103Y3182D01*
X11111Y3177D01*
X11121Y3175D01*
X11166D01*
X11172Y3162D01*
X11166Y3153D01*
X11157Y3132D01*
X11155Y3121D01*
X11331D01*
X11330Y3132D01*
X11321Y3153D01*
X11307Y3172D01*
X11291Y3184D01*
X11295Y3191D01*
X11297Y3201D01*
Y3233D01*
D02*
G37*
G36*
X1249Y3231D02*
X1047D01*
Y3199D01*
X1049Y3189D01*
X1055Y3181D01*
X1063Y3175D01*
X1073Y3173D01*
X1118D01*
X1124Y3160D01*
X1118Y3152D01*
X1109Y3130D01*
X1107Y3119D01*
X1283D01*
X1282Y3130D01*
X1273Y3152D01*
X1259Y3170D01*
X1243Y3182D01*
X1247Y3189D01*
X1249Y3199D01*
Y3231D01*
D02*
G37*
G36*
X2663Y3234D02*
X2462D01*
Y3202D01*
X2464Y3192D01*
X2469Y3184D01*
X2478Y3178D01*
X2488Y3176D01*
X2532D01*
X2539Y3164D01*
X2532Y3155D01*
X2523Y3133D01*
X2521Y3123D01*
X2697D01*
X2696Y3133D01*
X2687Y3155D01*
X2673Y3173D01*
X2657Y3186D01*
X2661Y3192D01*
X2663Y3202D01*
Y3234D01*
D02*
G37*
G36*
X5188Y3233D02*
X4986D01*
Y3201D01*
X4988Y3191D01*
X4994Y3182D01*
X5002Y3177D01*
X5012Y3175D01*
X5057D01*
X5063Y3162D01*
X5056Y3153D01*
X5047Y3132D01*
X5046Y3121D01*
X5222D01*
X5220Y3132D01*
X5212Y3153D01*
X5197Y3172D01*
X5181Y3184D01*
X5186Y3191D01*
X5188Y3201D01*
Y3233D01*
D02*
G37*
G36*
X8872Y3220D02*
X8670D01*
Y3188D01*
X8672Y3178D01*
X8678Y3170D01*
X8686Y3164D01*
X8696Y3162D01*
X8721D01*
X8727Y3151D01*
X8722Y3145D01*
X8713Y3123D01*
X8712Y3113D01*
X8888D01*
X8887Y3123D01*
X8878Y3145D01*
X8868Y3157D01*
X8864Y3170D01*
X8870Y3178D01*
X8872Y3188D01*
Y3220D01*
D02*
G37*
G36*
X7458Y3217D02*
X7256D01*
Y3185D01*
X7258Y3175D01*
X7263Y3166D01*
X7272Y3161D01*
X7282Y3159D01*
X7327D01*
X7333Y3146D01*
X7326Y3137D01*
X7317Y3116D01*
X7316Y3105D01*
X7492D01*
X7490Y3116D01*
X7481Y3137D01*
X7467Y3156D01*
X7451Y3168D01*
X7456Y3175D01*
X7458Y3185D01*
Y3217D01*
D02*
G37*
G36*
X3774Y3230D02*
X3572D01*
Y3198D01*
X3574Y3188D01*
X3579Y3179D01*
X3588Y3174D01*
X3598Y3172D01*
X3642D01*
X3649Y3159D01*
X3642Y3150D01*
X3633Y3129D01*
X3632Y3118D01*
X3808D01*
X3806Y3129D01*
X3797Y3150D01*
X3783Y3169D01*
X3767Y3181D01*
X3772Y3188D01*
X3774Y3198D01*
Y3230D01*
D02*
G37*
G36*
X9883Y3230D02*
X9681D01*
Y3197D01*
X9683Y3187D01*
X9689Y3179D01*
X9697Y3173D01*
X9707Y3171D01*
X9752D01*
X9758Y3159D01*
X9751Y3150D01*
X9742Y3128D01*
X9741Y3118D01*
X9917D01*
X9916Y3128D01*
X9907Y3150D01*
X9892Y3169D01*
X9877Y3181D01*
X9881Y3187D01*
X9883Y3197D01*
Y3230D01*
D02*
G37*
G36*
X5193Y3442D02*
X4896D01*
X4877Y3440D01*
X4858Y3432D01*
X4843Y3420D01*
X4811Y3388D01*
X4799Y3373D01*
X4791Y3354D01*
X4789Y3335D01*
Y3314D01*
X4785Y3313D01*
X4777Y3308D01*
X4771Y3299D01*
X4769Y3289D01*
Y3199D01*
X4771Y3189D01*
X4777Y3181D01*
X4785Y3175D01*
X4795Y3173D01*
X4844D01*
X4850Y3171D01*
X4870Y3168D01*
X4890Y3171D01*
X4896Y3173D01*
X4945D01*
X4955Y3175D01*
X4963Y3181D01*
X4969Y3189D01*
X4971Y3199D01*
Y3289D01*
X4972Y3290D01*
X4986D01*
Y3259D01*
X5188D01*
Y3273D01*
X5197Y3282D01*
X5202Y3281D01*
X5476D01*
Y3201D01*
X5478Y3191D01*
X5484Y3182D01*
X5492Y3177D01*
X5502Y3175D01*
X5551D01*
X5557Y3172D01*
X5577Y3170D01*
X5597Y3172D01*
X5603Y3175D01*
X5652D01*
X5662Y3177D01*
X5670Y3182D01*
X5676Y3191D01*
X5678Y3201D01*
Y3291D01*
X5676Y3301D01*
X5670Y3309D01*
X5662Y3315D01*
X5652Y3317D01*
X5651D01*
X5650Y3322D01*
X5643Y3340D01*
X5631Y3356D01*
X5576Y3411D01*
X5560Y3423D01*
X5542Y3430D01*
X5522Y3433D01*
X5229D01*
X5213Y3440D01*
X5193Y3442D01*
D02*
G37*
G36*
X11604Y3460D02*
X11077D01*
X11057Y3457D01*
X11038Y3450D01*
X11023Y3438D01*
X10925Y3340D01*
X10913Y3325D01*
X10909Y3315D01*
X10904D01*
X10894Y3313D01*
X10886Y3307D01*
X10880Y3299D01*
X10878Y3289D01*
Y3199D01*
X10880Y3189D01*
X10886Y3181D01*
X10894Y3175D01*
X10904Y3173D01*
X10953D01*
X10960Y3170D01*
X10979Y3168D01*
X10999Y3170D01*
X11005Y3173D01*
X11054D01*
X11064Y3175D01*
X11073Y3181D01*
X11078Y3189D01*
X11080Y3199D01*
Y3270D01*
X11083Y3272D01*
X11095Y3265D01*
Y3258D01*
X11297D01*
Y3291D01*
X11296Y3295D01*
X11305Y3308D01*
X11573D01*
X11586Y3294D01*
X11585Y3291D01*
Y3201D01*
X11587Y3191D01*
X11593Y3182D01*
X11601Y3177D01*
X11611Y3175D01*
X11660D01*
X11667Y3172D01*
X11686Y3169D01*
X11706Y3172D01*
X11712Y3175D01*
X11761D01*
X11771Y3177D01*
X11780Y3182D01*
X11785Y3191D01*
X11787Y3201D01*
Y3291D01*
X11785Y3300D01*
X11780Y3309D01*
X11771Y3314D01*
X11761Y3316D01*
X11760D01*
X11760Y3321D01*
X11755Y3332D01*
X11752Y3339D01*
X11740Y3355D01*
X11658Y3438D01*
X11642Y3450D01*
X11624Y3457D01*
X11604Y3460D01*
D02*
G37*
G36*
X10201Y3446D02*
X9517D01*
X9498Y3444D01*
X9487Y3439D01*
X9479Y3436D01*
X9464Y3424D01*
X9380Y3341D01*
X9368Y3325D01*
X9361Y3307D01*
X9360Y3306D01*
X9347Y3301D01*
X9346Y3302D01*
X9336Y3304D01*
X9335D01*
X9334Y3309D01*
X9330Y3320D01*
X9327Y3327D01*
X9315Y3343D01*
X9251Y3407D01*
X9235Y3419D01*
X9217Y3427D01*
X9197Y3429D01*
X8633D01*
X8614Y3427D01*
X8595Y3419D01*
X8580Y3407D01*
X8500Y3328D01*
X8488Y3312D01*
X8484Y3302D01*
X8479D01*
X8469Y3300D01*
X8461Y3295D01*
X8455Y3286D01*
X8453Y3276D01*
Y3186D01*
X8455Y3176D01*
X8461Y3168D01*
X8469Y3162D01*
X8479Y3160D01*
X8528D01*
X8534Y3158D01*
X8554Y3155D01*
X8574Y3158D01*
X8580Y3160D01*
X8629D01*
X8639Y3162D01*
X8647Y3168D01*
X8653Y3176D01*
X8655Y3186D01*
Y3257D01*
X8657Y3259D01*
X8670Y3252D01*
Y3246D01*
X8872D01*
Y3277D01*
X9160D01*
Y3188D01*
X9162Y3178D01*
X9168Y3170D01*
X9176Y3164D01*
X9186Y3162D01*
X9235D01*
X9241Y3159D01*
X9261Y3157D01*
X9281Y3159D01*
X9287Y3162D01*
X9332D01*
X9337Y3161D01*
X9345Y3151D01*
X9347Y3137D01*
X9356Y3115D01*
X9370Y3097D01*
X9389Y3082D01*
X9411Y3073D01*
X9434Y3070D01*
X9457Y3073D01*
X9479Y3082D01*
X9497Y3097D01*
X9511Y3115D01*
X9520Y3137D01*
X9523Y3160D01*
X9520Y3183D01*
X9511Y3205D01*
X9510Y3207D01*
Y3255D01*
X9549Y3294D01*
X9675D01*
X9681Y3287D01*
Y3255D01*
X9883D01*
Y3287D01*
X9889Y3294D01*
X10160D01*
X10171Y3287D01*
Y3197D01*
X10173Y3187D01*
X10179Y3179D01*
X10187Y3173D01*
X10197Y3171D01*
X10246D01*
X10252Y3169D01*
X10272Y3166D01*
X10292Y3169D01*
X10298Y3171D01*
X10347D01*
X10357Y3173D01*
X10365Y3179D01*
X10371Y3187D01*
X10373Y3197D01*
Y3287D01*
X10371Y3297D01*
X10365Y3306D01*
X10357Y3311D01*
X10347Y3313D01*
X10346D01*
X10346Y3319D01*
X10341Y3329D01*
X10338Y3337D01*
X10326Y3353D01*
X10254Y3424D01*
X10239Y3436D01*
X10220Y3444D01*
X10201Y3446D01*
D02*
G37*
G36*
X2989Y3468D02*
X2397D01*
X2377Y3466D01*
X2359Y3458D01*
X2343Y3446D01*
X2292Y3395D01*
X2280Y3379D01*
X2272Y3361D01*
X2269Y3341D01*
Y3316D01*
X2261Y3314D01*
X2252Y3309D01*
X2247Y3300D01*
X2245Y3291D01*
Y3201D01*
X2247Y3191D01*
X2252Y3182D01*
X2261Y3177D01*
X2270Y3175D01*
X2320D01*
X2326Y3172D01*
X2345Y3169D01*
X2365Y3172D01*
X2371Y3175D01*
X2420D01*
X2430Y3177D01*
X2439Y3182D01*
X2444Y3191D01*
X2446Y3201D01*
Y3291D01*
X2444Y3300D01*
X2445Y3301D01*
X2451Y3312D01*
X2456Y3312D01*
X2457Y3311D01*
X2463Y3301D01*
X2462Y3292D01*
Y3260D01*
X2663D01*
Y3292D01*
X2661Y3302D01*
X2660Y3304D01*
X2667Y3316D01*
X2948D01*
X2955Y3304D01*
X2954Y3302D01*
X2952Y3292D01*
Y3202D01*
X2954Y3192D01*
X2959Y3184D01*
X2968Y3178D01*
X2978Y3176D01*
X3027D01*
X3033Y3174D01*
X3053Y3171D01*
X3072Y3174D01*
X3078Y3176D01*
X3128D01*
X3137Y3178D01*
X3146Y3184D01*
X3151Y3192D01*
X3153Y3202D01*
Y3292D01*
X3151Y3302D01*
X3146Y3310D01*
X3137Y3316D01*
X3129Y3318D01*
Y3329D01*
X3126Y3349D01*
X3118Y3367D01*
X3106Y3383D01*
X3043Y3446D01*
X3027Y3458D01*
X3009Y3466D01*
X2989Y3468D01*
D02*
G37*
G36*
X7463Y3426D02*
X7251D01*
X7234Y3424D01*
X7023D01*
X7003Y3421D01*
X6993Y3417D01*
X6985Y3414D01*
X6969Y3402D01*
X6897Y3330D01*
X6885Y3314D01*
X6878Y3296D01*
X6875Y3276D01*
Y3153D01*
X6873Y3151D01*
X6865Y3129D01*
X6861Y3106D01*
X6865Y3082D01*
X6873Y3061D01*
X6888Y3042D01*
X6906Y3028D01*
X6928Y3019D01*
X6951Y3016D01*
X6974Y3019D01*
X6996Y3028D01*
X7015Y3042D01*
X7029Y3061D01*
X7038Y3082D01*
X7041Y3106D01*
X7038Y3129D01*
X7029Y3151D01*
X7027Y3153D01*
Y3244D01*
X7055Y3272D01*
X7248D01*
X7256Y3265D01*
Y3242D01*
X7458D01*
Y3265D01*
X7465Y3272D01*
X7711D01*
X7746Y3237D01*
Y3185D01*
X7748Y3175D01*
X7753Y3166D01*
X7762Y3161D01*
X7772Y3159D01*
X7821D01*
X7827Y3156D01*
X7847Y3154D01*
X7866Y3156D01*
X7873Y3159D01*
X7922D01*
X7932Y3161D01*
X7940Y3166D01*
X7946Y3175D01*
X7948Y3185D01*
Y3275D01*
X7946Y3285D01*
X7940Y3293D01*
X7932Y3299D01*
X7922Y3301D01*
X7897D01*
X7796Y3402D01*
X7781Y3414D01*
X7762Y3421D01*
X7743Y3424D01*
X7480D01*
X7463Y3426D01*
D02*
G37*
G36*
X10489Y3320D02*
X10470Y3317D01*
X10463Y3315D01*
X10414D01*
X10404Y3313D01*
X10396Y3307D01*
X10390Y3299D01*
X10388Y3289D01*
Y3199D01*
X10390Y3189D01*
X10396Y3181D01*
X10404Y3175D01*
X10413Y3173D01*
Y3148D01*
X10391Y3126D01*
X10272D01*
X10270Y3127D01*
X10248Y3136D01*
X10225Y3139D01*
X10202Y3136D01*
X10180Y3127D01*
X10162Y3113D01*
X10148Y3094D01*
X10139Y3073D01*
X10136Y3049D01*
X10139Y3026D01*
X10148Y3005D01*
X10149Y3003D01*
Y2959D01*
X10152Y2940D01*
X10159Y2921D01*
X10171Y2906D01*
Y2867D01*
X10173Y2857D01*
X10179Y2849D01*
X10187Y2843D01*
X10197Y2841D01*
X10246D01*
X10252Y2839D01*
X10272Y2836D01*
X10292Y2839D01*
X10298Y2841D01*
X10347D01*
X10357Y2843D01*
X10365Y2849D01*
X10371Y2857D01*
X10373Y2867D01*
Y2957D01*
X10380Y2961D01*
X10388Y2951D01*
Y2869D01*
X10390Y2859D01*
X10396Y2851D01*
X10404Y2845D01*
X10413Y2843D01*
Y2265D01*
X10416Y2245D01*
X10423Y2227D01*
X10435Y2211D01*
X10484Y2162D01*
Y1830D01*
X10458Y1804D01*
X10325D01*
X10305Y1802D01*
X10293Y1797D01*
X10247D01*
X10237Y1795D01*
X10229Y1789D01*
X10223Y1781D01*
X10221Y1771D01*
Y1681D01*
X10223Y1671D01*
X10229Y1662D01*
X10237Y1657D01*
X10247Y1655D01*
X10296D01*
X10303Y1652D01*
X10322Y1650D01*
X10342Y1652D01*
X10490D01*
X10510Y1655D01*
X10528Y1662D01*
X10544Y1674D01*
X10614Y1745D01*
X10626Y1761D01*
X10634Y1779D01*
X10636Y1799D01*
Y2194D01*
X10634Y2214D01*
X10626Y2232D01*
X10614Y2248D01*
X10565Y2296D01*
Y2843D01*
X10574Y2845D01*
X10583Y2851D01*
X10588Y2859D01*
X10590Y2869D01*
Y2959D01*
X10588Y2969D01*
X10583Y2977D01*
X10574Y2983D01*
X10564Y2985D01*
X10515D01*
X10509Y2987D01*
X10489Y2990D01*
X10488Y2990D01*
X10482Y3002D01*
X10543Y3063D01*
X10555Y3078D01*
X10563Y3097D01*
X10565Y3116D01*
Y3173D01*
X10574Y3175D01*
X10583Y3181D01*
X10588Y3189D01*
X10590Y3199D01*
Y3289D01*
X10588Y3299D01*
X10583Y3307D01*
X10574Y3313D01*
X10564Y3315D01*
X10515D01*
X10509Y3317D01*
X10489Y3320D01*
D02*
G37*
G36*
X1586Y3476D02*
X1000D01*
X980Y3473D01*
X970Y3469D01*
X962Y3466D01*
X946Y3454D01*
X846Y3354D01*
X834Y3338D01*
X827Y3320D01*
X824Y3300D01*
Y2447D01*
X822Y2445D01*
X813Y2423D01*
X810Y2400D01*
X813Y2377D01*
X822Y2355D01*
X837Y2337D01*
X855Y2322D01*
X877Y2313D01*
X900Y2310D01*
X923Y2313D01*
X945Y2322D01*
X951Y2327D01*
X964Y2321D01*
Y2275D01*
X966Y2265D01*
X972Y2256D01*
X980Y2251D01*
X989Y2249D01*
Y2221D01*
X991Y2201D01*
X999Y2183D01*
X1011Y2167D01*
X1040Y2138D01*
X1035Y2127D01*
X994D01*
Y2068D01*
X1082D01*
Y2083D01*
X1095Y2091D01*
X1106Y2086D01*
X1126Y2084D01*
X1370D01*
Y2011D01*
X1372Y2001D01*
X1378Y1992D01*
X1386Y1987D01*
X1396Y1985D01*
X1445D01*
X1452Y1982D01*
X1471Y1980D01*
X1491Y1982D01*
X1497Y1985D01*
X1546D01*
X1556Y1987D01*
X1565Y1992D01*
X1570Y2001D01*
X1572Y2011D01*
Y2101D01*
X1570Y2111D01*
X1565Y2119D01*
X1556Y2125D01*
X1546Y2127D01*
X1541D01*
X1537Y2136D01*
X1525Y2152D01*
X1463Y2214D01*
X1448Y2226D01*
X1429Y2233D01*
X1410Y2236D01*
X1165D01*
X1158Y2244D01*
X1158Y2256D01*
X1164Y2265D01*
X1166Y2275D01*
Y2365D01*
X1164Y2375D01*
X1158Y2383D01*
X1150Y2389D01*
X1140Y2391D01*
X1091D01*
X1085Y2393D01*
X1065Y2396D01*
X1045Y2393D01*
X1039Y2391D01*
X1001D01*
X990Y2400D01*
X987Y2423D01*
X978Y2445D01*
X976Y2447D01*
Y2569D01*
X989Y2579D01*
X990Y2579D01*
X1035D01*
X1041Y2566D01*
X1034Y2557D01*
X1025Y2536D01*
X1024Y2525D01*
X1200D01*
X1198Y2536D01*
X1189Y2557D01*
X1175Y2576D01*
X1159Y2588D01*
X1164Y2595D01*
X1166Y2605D01*
Y2637D01*
X1065D01*
Y2650D01*
X1052D01*
Y2721D01*
X990D01*
X989Y2720D01*
X976Y2730D01*
Y3268D01*
X1032Y3324D01*
X1059D01*
X1059Y3323D01*
X1061Y3311D01*
X1055Y3307D01*
X1049Y3299D01*
X1047Y3289D01*
Y3257D01*
X1249D01*
Y3289D01*
X1247Y3299D01*
X1242Y3307D01*
X1236Y3311D01*
X1238Y3323D01*
X1238Y3324D01*
X1545D01*
X1550Y3312D01*
X1550Y3311D01*
X1545Y3307D01*
X1539Y3299D01*
X1537Y3289D01*
Y3199D01*
X1539Y3189D01*
X1545Y3181D01*
X1553Y3175D01*
X1563Y3173D01*
X1612D01*
X1619Y3170D01*
X1638Y3168D01*
X1658Y3170D01*
X1664Y3173D01*
X1713D01*
X1723Y3175D01*
X1732Y3181D01*
X1737Y3189D01*
X1739Y3199D01*
Y3289D01*
X1737Y3299D01*
X1732Y3307D01*
X1723Y3313D01*
X1714Y3315D01*
Y3348D01*
X1712Y3367D01*
X1704Y3386D01*
X1692Y3401D01*
X1640Y3454D01*
X1624Y3466D01*
X1606Y3473D01*
X1586Y3476D01*
D02*
G37*
G36*
X4106Y3471D02*
X3418D01*
X3398Y3468D01*
X3388Y3464D01*
X3380Y3461D01*
X3364Y3449D01*
X3264Y3348D01*
X3252Y3332D01*
X3244Y3314D01*
X3241Y3294D01*
Y3158D01*
X3240Y3156D01*
X3231Y3134D01*
X3228Y3111D01*
X3231Y3088D01*
X3240Y3066D01*
X3254Y3047D01*
X3273Y3033D01*
X3294Y3024D01*
X3317Y3021D01*
X3341Y3024D01*
X3362Y3033D01*
X3381Y3047D01*
X3395Y3066D01*
X3404Y3088D01*
X3407Y3111D01*
X3404Y3134D01*
X3395Y3156D01*
X3393Y3158D01*
Y3263D01*
X3450Y3319D01*
X3576D01*
X3580Y3306D01*
X3579Y3306D01*
X3574Y3298D01*
X3572Y3288D01*
Y3255D01*
X3774D01*
Y3288D01*
X3772Y3298D01*
X3766Y3306D01*
X3766Y3306D01*
X3770Y3319D01*
X4066D01*
X4070Y3306D01*
X4069Y3306D01*
X4064Y3298D01*
X4062Y3288D01*
Y3198D01*
X4064Y3188D01*
X4069Y3179D01*
X4078Y3174D01*
X4088Y3172D01*
X4137D01*
X4143Y3169D01*
X4163Y3167D01*
X4182Y3169D01*
X4189Y3172D01*
X4238D01*
X4248Y3174D01*
X4256Y3179D01*
X4262Y3188D01*
X4264Y3198D01*
Y3288D01*
X4262Y3298D01*
X4256Y3306D01*
X4248Y3312D01*
X4239Y3313D01*
Y3338D01*
X4236Y3358D01*
X4229Y3376D01*
X4216Y3392D01*
X4160Y3449D01*
X4144Y3461D01*
X4126Y3468D01*
X4106Y3471D01*
D02*
G37*
G36*
X5222Y3096D02*
X5147D01*
Y3021D01*
X5157Y3022D01*
X5179Y3031D01*
X5197Y3045D01*
X5212Y3064D01*
X5220Y3085D01*
X5222Y3096D01*
D02*
G37*
G36*
X5121D02*
X5046D01*
X5047Y3085D01*
X5056Y3064D01*
X5070Y3045D01*
X5089Y3031D01*
X5111Y3022D01*
X5121Y3021D01*
Y3096D01*
D02*
G37*
G36*
X2697Y3097D02*
X2622D01*
Y3022D01*
X2633Y3023D01*
X2654Y3032D01*
X2673Y3047D01*
X2687Y3065D01*
X2696Y3087D01*
X2697Y3097D01*
D02*
G37*
G36*
X2597D02*
X2521D01*
X2523Y3087D01*
X2532Y3065D01*
X2546Y3047D01*
X2565Y3032D01*
X2586Y3023D01*
X2597Y3022D01*
Y3097D01*
D02*
G37*
G36*
X1283Y3094D02*
X1208D01*
Y3019D01*
X1218Y3020D01*
X1240Y3029D01*
X1259Y3043D01*
X1273Y3062D01*
X1282Y3084D01*
X1283Y3094D01*
D02*
G37*
G36*
X1183D02*
X1107D01*
X1109Y3084D01*
X1118Y3062D01*
X1132Y3043D01*
X1150Y3029D01*
X1172Y3020D01*
X1183Y3019D01*
Y3094D01*
D02*
G37*
G36*
X11331Y3096D02*
X11256D01*
Y3020D01*
X11266Y3022D01*
X11288Y3031D01*
X11307Y3045D01*
X11321Y3064D01*
X11330Y3085D01*
X11331Y3096D01*
D02*
G37*
G36*
X11231D02*
X11155D01*
X11157Y3085D01*
X11166Y3064D01*
X11180Y3045D01*
X11198Y3031D01*
X11220Y3022D01*
X11231Y3020D01*
Y3096D01*
D02*
G37*
G36*
X4836Y3139D02*
Y3064D01*
X4911D01*
X4909Y3075D01*
X4901Y3096D01*
X4886Y3115D01*
X4868Y3129D01*
X4846Y3138D01*
X4836Y3139D01*
D02*
G37*
G36*
X4810D02*
X4800Y3138D01*
X4778Y3129D01*
X4759Y3115D01*
X4745Y3096D01*
X4736Y3075D01*
X4735Y3064D01*
X4810D01*
Y3139D01*
D02*
G37*
G36*
X2311Y3141D02*
Y3065D01*
X2386D01*
X2385Y3076D01*
X2376Y3098D01*
X2362Y3116D01*
X2343Y3130D01*
X2322Y3139D01*
X2311Y3141D01*
D02*
G37*
G36*
X2286D02*
X2275Y3139D01*
X2254Y3130D01*
X2235Y3116D01*
X2221Y3098D01*
X2212Y3076D01*
X2210Y3065D01*
X2286D01*
Y3141D01*
D02*
G37*
G36*
X8520Y3127D02*
Y3051D01*
X8595D01*
X8594Y3062D01*
X8585Y3083D01*
X8570Y3102D01*
X8552Y3116D01*
X8530Y3125D01*
X8520Y3127D01*
D02*
G37*
G36*
X8494D02*
X8484Y3125D01*
X8462Y3116D01*
X8444Y3102D01*
X8429Y3083D01*
X8420Y3062D01*
X8419Y3051D01*
X8494D01*
Y3127D01*
D02*
G37*
G36*
X10945Y3139D02*
Y3064D01*
X11020D01*
X11019Y3074D01*
X11010Y3096D01*
X10996Y3114D01*
X10977Y3129D01*
X10956Y3138D01*
X10945Y3139D01*
D02*
G37*
G36*
X10920D02*
X10909Y3138D01*
X10887Y3129D01*
X10869Y3114D01*
X10855Y3096D01*
X10846Y3074D01*
X10844Y3064D01*
X10920D01*
Y3139D01*
D02*
G37*
G36*
X969Y2127D02*
X906D01*
X896Y2125D01*
X888Y2119D01*
X882Y2111D01*
X880Y2101D01*
Y2068D01*
X969D01*
Y2127D01*
D02*
G37*
G36*
X10397Y2127D02*
X10335D01*
Y2068D01*
X10423D01*
Y2101D01*
X10421Y2111D01*
X10416Y2119D01*
X10407Y2125D01*
X10397Y2127D01*
D02*
G37*
G36*
X4288Y2127D02*
X4226D01*
Y2069D01*
X4314D01*
Y2101D01*
X4312Y2111D01*
X4306Y2119D01*
X4298Y2125D01*
X4288Y2127D01*
D02*
G37*
G36*
X4200D02*
X4138D01*
X4128Y2125D01*
X4119Y2119D01*
X4114Y2111D01*
X4112Y2101D01*
Y2069D01*
X4200D01*
Y2127D01*
D02*
G37*
G36*
X9602Y2125D02*
X9540D01*
X9530Y2123D01*
X9522Y2117D01*
X9516Y2109D01*
X9514Y2099D01*
Y2067D01*
X9602D01*
Y2125D01*
D02*
G37*
G36*
X8679Y2116D02*
X8617D01*
Y2057D01*
X8705D01*
Y2090D01*
X8703Y2100D01*
X8697Y2108D01*
X8689Y2114D01*
X8679Y2116D01*
D02*
G37*
G36*
X10310Y2127D02*
X10247D01*
X10237Y2125D01*
X10229Y2119D01*
X10223Y2111D01*
X10221Y2101D01*
Y2068D01*
X10310D01*
Y2127D01*
D02*
G37*
G36*
X3493Y2125D02*
X3431D01*
X3421Y2123D01*
X3412Y2118D01*
X3407Y2109D01*
X3405Y2099D01*
Y2067D01*
X3493D01*
Y2125D01*
D02*
G37*
G36*
X4995Y2128D02*
X4933D01*
Y2070D01*
X5021D01*
Y2102D01*
X5019Y2112D01*
X5013Y2121D01*
X5005Y2126D01*
X4995Y2128D01*
D02*
G37*
G36*
X4907D02*
X4845D01*
X4835Y2126D01*
X4827Y2121D01*
X4821Y2112D01*
X4819Y2102D01*
Y2070D01*
X4907D01*
Y2128D01*
D02*
G37*
G36*
X2471Y2130D02*
X2408D01*
Y2072D01*
X2496D01*
Y2104D01*
X2494Y2114D01*
X2489Y2122D01*
X2480Y2128D01*
X2471Y2130D01*
D02*
G37*
G36*
X2383D02*
X2321D01*
X2311Y2128D01*
X2302Y2122D01*
X2297Y2114D01*
X2295Y2104D01*
Y2072D01*
X2383D01*
Y2130D01*
D02*
G37*
G36*
X11104Y2128D02*
X11042D01*
Y2070D01*
X11130D01*
Y2102D01*
X11128Y2112D01*
X11123Y2121D01*
X11114Y2126D01*
X11104Y2128D01*
D02*
G37*
G36*
X11017D02*
X10954D01*
X10944Y2126D01*
X10936Y2121D01*
X10930Y2112D01*
X10928Y2102D01*
Y2070D01*
X11017D01*
Y2128D01*
D02*
G37*
G36*
X1763Y2128D02*
X1701D01*
Y2070D01*
X1789D01*
Y2102D01*
X1787Y2112D01*
X1782Y2121D01*
X1773Y2126D01*
X1763Y2128D01*
D02*
G37*
G36*
X1676D02*
X1613D01*
X1604Y2126D01*
X1595Y2121D01*
X1590Y2112D01*
X1588Y2102D01*
Y2070D01*
X1676D01*
Y2128D01*
D02*
G37*
G36*
X5021Y2045D02*
X4819D01*
Y2012D01*
X4821Y2003D01*
X4827Y1994D01*
X4835Y1989D01*
X4845Y1987D01*
X4890D01*
X4896Y1974D01*
X4889Y1965D01*
X4880Y1944D01*
X4879Y1933D01*
X5055D01*
X5053Y1944D01*
X5045Y1965D01*
X5030Y1984D01*
X5014Y1996D01*
X5019Y2003D01*
X5021Y2012D01*
Y2045D01*
D02*
G37*
G36*
X1789Y2045D02*
X1588D01*
Y2012D01*
X1590Y2002D01*
X1595Y1994D01*
X1604Y1988D01*
X1613Y1986D01*
X1658D01*
X1664Y1974D01*
X1658Y1965D01*
X1649Y1943D01*
X1647Y1933D01*
X1823D01*
X1822Y1943D01*
X1813Y1965D01*
X1799Y1983D01*
X1783Y1996D01*
X1787Y2002D01*
X1789Y2012D01*
Y2045D01*
D02*
G37*
G36*
X7273Y2382D02*
X7254Y2379D01*
X7247Y2376D01*
X7198D01*
X7188Y2375D01*
X7180Y2369D01*
X7174Y2360D01*
X7172Y2351D01*
Y2261D01*
X7174Y2251D01*
X7180Y2242D01*
X7188Y2237D01*
X7197Y2235D01*
Y2207D01*
X7200Y2187D01*
X7207Y2169D01*
X7219Y2153D01*
X7248Y2124D01*
X7243Y2112D01*
X7202D01*
Y2054D01*
X7291D01*
Y2069D01*
X7303Y2077D01*
X7314Y2072D01*
X7334Y2070D01*
X7579D01*
Y1996D01*
X7581Y1987D01*
X7586Y1978D01*
X7595Y1972D01*
X7605Y1971D01*
X7654D01*
X7660Y1968D01*
X7680Y1965D01*
X7699Y1968D01*
X7706Y1971D01*
X7755D01*
X7765Y1972D01*
X7773Y1978D01*
X7779Y1987D01*
X7781Y1996D01*
Y2086D01*
X7779Y2096D01*
X7773Y2105D01*
X7765Y2110D01*
X7755Y2112D01*
X7750D01*
X7746Y2122D01*
X7734Y2138D01*
X7672Y2199D01*
X7656Y2212D01*
X7638Y2219D01*
X7618Y2222D01*
X7373D01*
X7367Y2229D01*
X7367Y2242D01*
X7372Y2251D01*
X7374Y2261D01*
Y2351D01*
X7372Y2360D01*
X7367Y2369D01*
X7358Y2375D01*
X7348Y2376D01*
X7299D01*
X7293Y2379D01*
X7273Y2382D01*
D02*
G37*
G36*
X2496Y2046D02*
X2295D01*
Y2014D01*
X2297Y2004D01*
X2302Y1996D01*
X2311Y1990D01*
X2321Y1988D01*
X2365D01*
X2372Y1975D01*
X2365Y1966D01*
X2356Y1945D01*
X2354Y1934D01*
X2530D01*
X2529Y1945D01*
X2520Y1966D01*
X2506Y1985D01*
X2490Y1997D01*
X2494Y2004D01*
X2496Y2014D01*
Y2046D01*
D02*
G37*
G36*
X10423Y2043D02*
X10221D01*
Y2011D01*
X10223Y2001D01*
X10229Y1992D01*
X10237Y1987D01*
X10247Y1985D01*
X10292D01*
X10298Y1972D01*
X10292Y1963D01*
X10283Y1942D01*
X10281Y1931D01*
X10457D01*
X10456Y1942D01*
X10447Y1963D01*
X10433Y1982D01*
X10417Y1994D01*
X10421Y2001D01*
X10423Y2011D01*
Y2043D01*
D02*
G37*
G36*
X3607Y2042D02*
X3405D01*
Y2009D01*
X3407Y1999D01*
X3412Y1991D01*
X3421Y1985D01*
X3431Y1983D01*
X3475D01*
X3482Y1971D01*
X3475Y1962D01*
X3466Y1940D01*
X3465Y1930D01*
X3641D01*
X3639Y1940D01*
X3630Y1962D01*
X3616Y1981D01*
X3600Y1993D01*
X3605Y1999D01*
X3607Y2009D01*
Y2042D01*
D02*
G37*
G36*
X4314Y2043D02*
X4112D01*
Y2011D01*
X4114Y2001D01*
X4119Y1993D01*
X4128Y1987D01*
X4138Y1985D01*
X4183D01*
X4189Y1972D01*
X4182Y1964D01*
X4173Y1942D01*
X4172Y1931D01*
X4348D01*
X4346Y1942D01*
X4337Y1964D01*
X4323Y1982D01*
X4307Y1994D01*
X4312Y2001D01*
X4314Y2011D01*
Y2043D01*
D02*
G37*
G36*
X1082Y2043D02*
X880D01*
Y2011D01*
X882Y2001D01*
X888Y1992D01*
X896Y1987D01*
X906Y1985D01*
X951D01*
X957Y1972D01*
X951Y1963D01*
X942Y1942D01*
X940Y1931D01*
X1116D01*
X1115Y1942D01*
X1106Y1963D01*
X1092Y1982D01*
X1076Y1994D01*
X1080Y2001D01*
X1082Y2011D01*
Y2043D01*
D02*
G37*
G36*
X7884Y2114D02*
X7822D01*
X7812Y2112D01*
X7804Y2106D01*
X7798Y2098D01*
X7796Y2088D01*
Y2056D01*
X7884D01*
Y2114D01*
D02*
G37*
G36*
X7177Y2112D02*
X7115D01*
X7105Y2110D01*
X7096Y2105D01*
X7091Y2096D01*
X7089Y2086D01*
Y2054D01*
X7177D01*
Y2112D01*
D02*
G37*
G36*
X8591Y2116D02*
X8529D01*
X8519Y2114D01*
X8511Y2108D01*
X8505Y2100D01*
X8503Y2090D01*
Y2057D01*
X8591D01*
Y2116D01*
D02*
G37*
G36*
X7972Y2114D02*
X7910D01*
Y2056D01*
X7998D01*
Y2088D01*
X7996Y2098D01*
X7990Y2106D01*
X7982Y2112D01*
X7972Y2114D01*
D02*
G37*
G36*
X3589Y2394D02*
X3570Y2392D01*
X3563Y2389D01*
X3514D01*
X3504Y2387D01*
X3496Y2382D01*
X3490Y2373D01*
X3488Y2363D01*
Y2273D01*
X3490Y2264D01*
X3496Y2255D01*
X3504Y2250D01*
X3514Y2248D01*
X3518D01*
Y2214D01*
X3521Y2195D01*
X3529Y2176D01*
X3541Y2160D01*
X3564Y2137D01*
X3559Y2125D01*
X3518D01*
Y2067D01*
X3607D01*
Y2087D01*
X3619Y2094D01*
X3623Y2092D01*
X3643Y2089D01*
X3895D01*
Y2009D01*
X3897Y1999D01*
X3902Y1991D01*
X3911Y1985D01*
X3921Y1983D01*
X3970D01*
X3976Y1981D01*
X3996Y1978D01*
X4015Y1981D01*
X4022Y1983D01*
X4071D01*
X4081Y1985D01*
X4089Y1991D01*
X4095Y1999D01*
X4097Y2009D01*
Y2099D01*
X4095Y2109D01*
X4089Y2118D01*
X4081Y2123D01*
X4071Y2125D01*
X4070D01*
X4069Y2130D01*
X4062Y2149D01*
X4049Y2165D01*
X3995Y2219D01*
X3979Y2231D01*
X3961Y2239D01*
X3941Y2242D01*
X3685D01*
X3681Y2254D01*
X3683Y2255D01*
X3688Y2264D01*
X3690Y2273D01*
Y2363D01*
X3688Y2373D01*
X3683Y2382D01*
X3674Y2387D01*
X3664Y2389D01*
X3615D01*
X3609Y2392D01*
X3589Y2394D01*
D02*
G37*
G36*
X9699Y2394D02*
X9679Y2392D01*
X9673Y2389D01*
X9624D01*
X9614Y2387D01*
X9605Y2381D01*
X9600Y2373D01*
X9598Y2363D01*
Y2273D01*
X9600Y2263D01*
X9605Y2255D01*
X9614Y2249D01*
X9623Y2247D01*
Y2219D01*
X9625Y2199D01*
X9633Y2181D01*
X9645Y2165D01*
X9674Y2137D01*
X9669Y2125D01*
X9628D01*
Y2067D01*
X9716D01*
Y2087D01*
X9729Y2093D01*
X9733Y2092D01*
X9753Y2089D01*
X10004D01*
Y2009D01*
X10006Y1999D01*
X10012Y1991D01*
X10020Y1985D01*
X10030Y1983D01*
X10079D01*
X10085Y1981D01*
X10105Y1978D01*
X10125Y1981D01*
X10131Y1983D01*
X10180D01*
X10190Y1985D01*
X10198Y1991D01*
X10204Y1999D01*
X10206Y2009D01*
Y2099D01*
X10204Y2109D01*
X10198Y2117D01*
X10190Y2123D01*
X10180Y2125D01*
X10179D01*
X10179Y2130D01*
X10171Y2149D01*
X10159Y2164D01*
X10104Y2219D01*
X10088Y2231D01*
X10070Y2239D01*
X10050Y2241D01*
X9794D01*
X9791Y2254D01*
X9792Y2255D01*
X9798Y2263D01*
X9800Y2273D01*
Y2363D01*
X9798Y2373D01*
X9792Y2381D01*
X9784Y2387D01*
X9774Y2389D01*
X9724D01*
X9718Y2392D01*
X9699Y2394D01*
D02*
G37*
G36*
X11130Y2045D02*
X11042D01*
Y1986D01*
X11104D01*
X11114Y1988D01*
X11123Y1994D01*
X11128Y2002D01*
X11130Y2012D01*
Y2045D01*
D02*
G37*
G36*
X11017D02*
X10928D01*
Y2012D01*
X10930Y2002D01*
X10936Y1994D01*
X10944Y1988D01*
X10954Y1986D01*
X11017D01*
Y2045D01*
D02*
G37*
G36*
X7716Y2532D02*
X7693Y2529D01*
X7671Y2520D01*
X7653Y2506D01*
X7639Y2488D01*
X7630Y2466D01*
X7627Y2443D01*
X7630Y2420D01*
X7639Y2398D01*
X7640Y2396D01*
Y2353D01*
X7643Y2333D01*
X7650Y2315D01*
X7662Y2299D01*
Y2261D01*
X7664Y2251D01*
X7670Y2242D01*
X7678Y2237D01*
X7688Y2235D01*
X7737D01*
X7744Y2232D01*
X7763Y2230D01*
X7783Y2232D01*
X7789Y2235D01*
X7838D01*
X7848Y2237D01*
X7857Y2242D01*
X7862Y2251D01*
X7864Y2261D01*
Y2351D01*
X7862Y2360D01*
X7857Y2369D01*
X7848Y2375D01*
X7838Y2376D01*
X7800D01*
X7792Y2384D01*
Y2396D01*
X7794Y2398D01*
X7803Y2420D01*
X7806Y2443D01*
X7803Y2466D01*
X7794Y2488D01*
X7780Y2506D01*
X7761Y2520D01*
X7740Y2529D01*
X7716Y2532D01*
D02*
G37*
G36*
X9733Y2498D02*
X9658D01*
X9659Y2488D01*
X9668Y2466D01*
X9682Y2448D01*
X9701Y2433D01*
X9722Y2424D01*
X9733Y2423D01*
Y2498D01*
D02*
G37*
G36*
X6249Y2497D02*
X6173D01*
Y2422D01*
X6184Y2423D01*
X6205Y2432D01*
X6224Y2447D01*
X6238Y2465D01*
X6247Y2487D01*
X6249Y2497D01*
D02*
G37*
G36*
X3623Y2499D02*
X3548D01*
X3550Y2488D01*
X3559Y2466D01*
X3573Y2448D01*
X3591Y2434D01*
X3613Y2425D01*
X3623Y2423D01*
Y2499D01*
D02*
G37*
G36*
X9834Y2498D02*
X9758D01*
Y2423D01*
X9769Y2424D01*
X9790Y2433D01*
X9809Y2448D01*
X9823Y2466D01*
X9832Y2488D01*
X9834Y2498D01*
D02*
G37*
G36*
X7408Y2486D02*
X7333D01*
Y2410D01*
X7343Y2412D01*
X7365Y2421D01*
X7384Y2435D01*
X7398Y2454D01*
X7407Y2475D01*
X7408Y2486D01*
D02*
G37*
G36*
X7308D02*
X7232D01*
X7234Y2475D01*
X7243Y2454D01*
X7257Y2435D01*
X7275Y2421D01*
X7297Y2412D01*
X7308Y2410D01*
Y2486D01*
D02*
G37*
G36*
X6148Y2497D02*
X6073D01*
X6074Y2487D01*
X6083Y2465D01*
X6097Y2447D01*
X6116Y2432D01*
X6137Y2423D01*
X6148Y2422D01*
Y2497D01*
D02*
G37*
G36*
X8595Y3026D02*
X8419D01*
X8420Y3015D01*
X8429Y2994D01*
X8444Y2975D01*
X8459Y2963D01*
X8455Y2956D01*
X8453Y2946D01*
Y2914D01*
X8554D01*
Y2889D01*
X8453D01*
Y2856D01*
X8455Y2846D01*
X8461Y2838D01*
X8469Y2832D01*
X8479Y2830D01*
X8528D01*
X8533Y2819D01*
X8469Y2754D01*
X8457Y2738D01*
X8449Y2720D01*
X8446Y2700D01*
Y2430D01*
X8449Y2411D01*
X8457Y2392D01*
X8469Y2377D01*
X8588Y2258D01*
X8589Y2254D01*
X8594Y2245D01*
X8603Y2240D01*
X8612Y2238D01*
X8618D01*
X8624Y2235D01*
X8644Y2233D01*
X8687D01*
X8707Y2235D01*
X8713Y2238D01*
X8762D01*
X8772Y2240D01*
X8781Y2245D01*
X8786Y2254D01*
X8788Y2264D01*
Y2354D01*
X8786Y2364D01*
X8781Y2372D01*
X8772Y2378D01*
X8762Y2380D01*
X8713D01*
X8707Y2382D01*
X8687Y2385D01*
X8676D01*
X8599Y2462D01*
Y2545D01*
X8611Y2552D01*
X8611Y2552D01*
Y2549D01*
X8614Y2529D01*
X8622Y2511D01*
X8634Y2495D01*
X8647Y2481D01*
X8648Y2478D01*
X8657Y2457D01*
X8671Y2438D01*
X8690Y2424D01*
X8711Y2415D01*
X8734Y2412D01*
X8758Y2415D01*
X8779Y2424D01*
X8798Y2438D01*
X8812Y2457D01*
X8821Y2478D01*
X8824Y2502D01*
X8821Y2525D01*
X8812Y2546D01*
X8798Y2565D01*
X8782Y2577D01*
X8786Y2584D01*
X8788Y2594D01*
Y2684D01*
X8786Y2694D01*
X8781Y2702D01*
X8772Y2708D01*
X8762Y2710D01*
X8756D01*
X8752Y2722D01*
X8758Y2727D01*
X8770Y2743D01*
X8778Y2761D01*
X8780Y2781D01*
Y2805D01*
X8808Y2832D01*
X8846D01*
X8856Y2834D01*
X8864Y2840D01*
X8870Y2848D01*
X8872Y2858D01*
Y2948D01*
X8870Y2958D01*
X8864Y2966D01*
X8856Y2972D01*
X8846Y2974D01*
X8797D01*
X8791Y2976D01*
X8771Y2979D01*
X8751Y2976D01*
X8745Y2974D01*
X8696D01*
X8686Y2972D01*
X8678Y2966D01*
X8672Y2958D01*
X8670Y2948D01*
Y2918D01*
X8667Y2917D01*
X8655Y2923D01*
Y2946D01*
X8653Y2956D01*
X8647Y2965D01*
X8639Y2970D01*
X8629Y2972D01*
X8584D01*
X8578Y2985D01*
X8585Y2994D01*
X8594Y3015D01*
X8595Y3026D01*
D02*
G37*
G36*
X2386Y3040D02*
X2210D01*
X2212Y3029D01*
X2221Y3008D01*
X2235Y2989D01*
X2251Y2977D01*
X2247Y2970D01*
X2245Y2961D01*
Y2928D01*
X2345D01*
Y2903D01*
X2245D01*
Y2871D01*
X2247Y2861D01*
X2252Y2852D01*
X2261Y2847D01*
X2270Y2845D01*
X2320D01*
X2325Y2833D01*
X2275Y2783D01*
X2263Y2767D01*
X2255Y2749D01*
X2253Y2729D01*
Y2473D01*
X2255Y2454D01*
X2263Y2435D01*
X2275Y2420D01*
X2378Y2316D01*
Y2278D01*
X2380Y2268D01*
X2386Y2260D01*
X2394Y2254D01*
X2404Y2252D01*
X2453D01*
X2459Y2250D01*
X2479Y2247D01*
X2499Y2250D01*
X2505Y2252D01*
X2554D01*
X2564Y2254D01*
X2572Y2260D01*
X2578Y2268D01*
X2580Y2278D01*
Y2368D01*
X2578Y2378D01*
X2572Y2386D01*
X2564Y2392D01*
X2554Y2394D01*
X2516D01*
X2488Y2422D01*
X2495Y2432D01*
X2503Y2429D01*
X2526Y2426D01*
X2549Y2429D01*
X2571Y2438D01*
X2589Y2452D01*
X2604Y2471D01*
X2613Y2493D01*
X2616Y2516D01*
X2613Y2539D01*
X2604Y2561D01*
X2589Y2579D01*
X2574Y2591D01*
X2578Y2598D01*
X2580Y2608D01*
Y2698D01*
X2578Y2708D01*
X2572Y2716D01*
X2564Y2722D01*
X2554Y2724D01*
X2505D01*
X2504Y2724D01*
X2501Y2738D01*
X2502Y2738D01*
X2505Y2741D01*
X2610Y2846D01*
X2638D01*
X2647Y2848D01*
X2656Y2854D01*
X2661Y2862D01*
X2663Y2872D01*
Y2962D01*
X2661Y2972D01*
X2656Y2980D01*
X2647Y2986D01*
X2638Y2988D01*
X2588D01*
X2582Y2991D01*
X2563Y2993D01*
X2543Y2991D01*
X2537Y2988D01*
X2488D01*
X2478Y2986D01*
X2469Y2980D01*
X2464Y2972D01*
X2462Y2962D01*
Y2921D01*
X2459Y2920D01*
X2446Y2926D01*
Y2961D01*
X2444Y2970D01*
X2439Y2979D01*
X2430Y2984D01*
X2420Y2986D01*
X2376D01*
X2369Y2999D01*
X2376Y3008D01*
X2385Y3029D01*
X2386Y3040D01*
D02*
G37*
G36*
X4911Y3039D02*
X4735D01*
X4736Y3028D01*
X4745Y3007D01*
X4759Y2988D01*
X4775Y2976D01*
X4771Y2969D01*
X4769Y2959D01*
Y2927D01*
X4870D01*
Y2901D01*
X4769D01*
Y2869D01*
X4771Y2859D01*
X4777Y2851D01*
X4785Y2845D01*
X4795Y2843D01*
X4844D01*
X4849Y2832D01*
X4785Y2767D01*
X4773Y2751D01*
X4765Y2733D01*
X4762Y2713D01*
Y2443D01*
X4765Y2424D01*
X4773Y2405D01*
X4785Y2390D01*
X4904Y2270D01*
X4904Y2267D01*
X4910Y2258D01*
X4919Y2253D01*
X4928Y2251D01*
X4934D01*
X4940Y2248D01*
X4960Y2246D01*
X5003D01*
X5023Y2248D01*
X5029Y2251D01*
X5078D01*
X5088Y2253D01*
X5097Y2258D01*
X5102Y2267D01*
X5104Y2277D01*
Y2367D01*
X5102Y2377D01*
X5097Y2385D01*
X5088Y2391D01*
X5078Y2393D01*
X5029D01*
X5023Y2395D01*
X5003Y2398D01*
X4992D01*
X4914Y2475D01*
Y2557D01*
X4927Y2565D01*
X4927Y2565D01*
Y2561D01*
X4930Y2542D01*
X4938Y2523D01*
X4950Y2508D01*
X4963Y2494D01*
X4964Y2491D01*
X4973Y2470D01*
X4987Y2451D01*
X5006Y2437D01*
X5027Y2428D01*
X5050Y2425D01*
X5074Y2428D01*
X5095Y2437D01*
X5114Y2451D01*
X5128Y2470D01*
X5137Y2491D01*
X5140Y2514D01*
X5137Y2538D01*
X5128Y2559D01*
X5114Y2578D01*
X5098Y2590D01*
X5102Y2597D01*
X5104Y2607D01*
Y2697D01*
X5102Y2707D01*
X5097Y2715D01*
X5088Y2721D01*
X5078Y2723D01*
X5072D01*
X5068Y2735D01*
X5074Y2740D01*
X5086Y2756D01*
X5094Y2774D01*
X5096Y2794D01*
Y2807D01*
X5134Y2845D01*
X5162D01*
X5172Y2847D01*
X5180Y2852D01*
X5186Y2861D01*
X5188Y2871D01*
Y2961D01*
X5186Y2971D01*
X5180Y2979D01*
X5172Y2985D01*
X5162Y2987D01*
X5113D01*
X5107Y2989D01*
X5087Y2992D01*
X5067Y2989D01*
X5061Y2987D01*
X5012D01*
X5002Y2985D01*
X4994Y2979D01*
X4988Y2971D01*
X4986Y2961D01*
Y2921D01*
X4983Y2919D01*
X4971Y2926D01*
Y2959D01*
X4969Y2969D01*
X4963Y2978D01*
X4955Y2983D01*
X4945Y2985D01*
X4900D01*
X4894Y2998D01*
X4901Y3007D01*
X4909Y3028D01*
X4911Y3039D01*
D02*
G37*
G36*
X11543Y2547D02*
X11533Y2545D01*
X11511Y2536D01*
X11492Y2522D01*
X11478Y2503D01*
X11469Y2482D01*
X11468Y2471D01*
X11543D01*
Y2547D01*
D02*
G37*
G36*
X9118Y2534D02*
X9107Y2533D01*
X9086Y2524D01*
X9067Y2509D01*
X9053Y2491D01*
X9044Y2469D01*
X9043Y2459D01*
X9118D01*
Y2534D01*
D02*
G37*
G36*
X11020Y3038D02*
X10844D01*
X10846Y3028D01*
X10855Y3006D01*
X10869Y2988D01*
X10885Y2976D01*
X10880Y2969D01*
X10878Y2959D01*
Y2927D01*
X10979D01*
Y2901D01*
X10878D01*
Y2869D01*
X10880Y2859D01*
X10886Y2851D01*
X10894Y2845D01*
X10904Y2843D01*
X10954D01*
X10959Y2831D01*
X10894Y2767D01*
X10882Y2751D01*
X10874Y2733D01*
X10872Y2713D01*
Y2443D01*
X10874Y2423D01*
X10882Y2405D01*
X10894Y2389D01*
X11013Y2270D01*
X11014Y2266D01*
X11020Y2258D01*
X11028Y2252D01*
X11038Y2250D01*
X11044D01*
X11050Y2248D01*
X11069Y2245D01*
X11113D01*
X11133Y2248D01*
X11139Y2250D01*
X11188D01*
X11198Y2252D01*
X11206Y2258D01*
X11212Y2266D01*
X11214Y2276D01*
Y2366D01*
X11212Y2376D01*
X11206Y2385D01*
X11198Y2390D01*
X11188Y2392D01*
X11139D01*
X11133Y2395D01*
X11113Y2397D01*
X11101D01*
X11024Y2475D01*
Y2557D01*
X11037Y2565D01*
X11037Y2565D01*
Y2561D01*
X11039Y2541D01*
X11047Y2523D01*
X11059Y2507D01*
X11073Y2494D01*
X11073Y2491D01*
X11082Y2469D01*
X11096Y2451D01*
X11115Y2437D01*
X11137Y2428D01*
X11160Y2425D01*
X11183Y2428D01*
X11205Y2437D01*
X11223Y2451D01*
X11237Y2469D01*
X11246Y2491D01*
X11249Y2514D01*
X11246Y2537D01*
X11237Y2559D01*
X11223Y2578D01*
X11207Y2590D01*
X11212Y2596D01*
X11214Y2606D01*
Y2696D01*
X11212Y2706D01*
X11206Y2715D01*
X11198Y2720D01*
X11188Y2722D01*
X11181D01*
X11177Y2735D01*
X11183Y2740D01*
X11196Y2756D01*
X11203Y2774D01*
X11206Y2794D01*
Y2817D01*
X11233Y2845D01*
X11271D01*
X11281Y2847D01*
X11290Y2852D01*
X11295Y2861D01*
X11297Y2871D01*
Y2961D01*
X11295Y2970D01*
X11290Y2979D01*
X11281Y2984D01*
X11271Y2986D01*
X11222D01*
X11216Y2989D01*
X11196Y2992D01*
X11177Y2989D01*
X11170Y2986D01*
X11121D01*
X11111Y2984D01*
X11103Y2979D01*
X11097Y2970D01*
X11095Y2961D01*
Y2931D01*
X11093Y2929D01*
X11080Y2936D01*
Y2959D01*
X11078Y2969D01*
X11073Y2977D01*
X11064Y2983D01*
X11054Y2985D01*
X11010D01*
X11003Y2998D01*
X11010Y3006D01*
X11019Y3028D01*
X11020Y3038D01*
D02*
G37*
G36*
X3724Y2499D02*
X3649D01*
Y2423D01*
X3659Y2425D01*
X3681Y2434D01*
X3700Y2448D01*
X3714Y2466D01*
X3723Y2488D01*
X3724Y2499D01*
D02*
G37*
G36*
X1200Y2500D02*
X1124D01*
Y2425D01*
X1135Y2426D01*
X1157Y2435D01*
X1175Y2449D01*
X1189Y2468D01*
X1198Y2489D01*
X1200Y2500D01*
D02*
G37*
G36*
X1099D02*
X1024D01*
X1025Y2489D01*
X1034Y2468D01*
X1048Y2449D01*
X1067Y2435D01*
X1089Y2426D01*
X1099Y2425D01*
Y2500D01*
D02*
G37*
G36*
X1508Y2547D02*
X1485Y2544D01*
X1463Y2535D01*
X1444Y2520D01*
X1430Y2502D01*
X1421Y2480D01*
X1418Y2457D01*
X1421Y2434D01*
X1430Y2412D01*
X1432Y2410D01*
Y2367D01*
X1434Y2347D01*
X1442Y2329D01*
X1454Y2313D01*
Y2275D01*
X1456Y2265D01*
X1462Y2256D01*
X1470Y2251D01*
X1480Y2249D01*
X1529D01*
X1535Y2246D01*
X1555Y2244D01*
X1575Y2246D01*
X1581Y2249D01*
X1630D01*
X1640Y2251D01*
X1648Y2256D01*
X1654Y2265D01*
X1656Y2275D01*
Y2365D01*
X1654Y2375D01*
X1648Y2383D01*
X1640Y2389D01*
X1630Y2391D01*
X1591D01*
X1584Y2398D01*
Y2410D01*
X1586Y2412D01*
X1594Y2434D01*
X1598Y2457D01*
X1594Y2480D01*
X1586Y2502D01*
X1571Y2520D01*
X1553Y2535D01*
X1531Y2544D01*
X1508Y2547D01*
D02*
G37*
G36*
X4032Y2545D02*
X4009Y2542D01*
X3987Y2533D01*
X3969Y2519D01*
X3955Y2500D01*
X3946Y2479D01*
X3943Y2456D01*
X3946Y2432D01*
X3955Y2411D01*
X3956Y2409D01*
Y2365D01*
X3959Y2346D01*
X3966Y2327D01*
X3978Y2312D01*
Y2273D01*
X3980Y2264D01*
X3986Y2255D01*
X3994Y2250D01*
X4004Y2248D01*
X4053D01*
X4060Y2245D01*
X4079Y2242D01*
X4099Y2245D01*
X4105Y2248D01*
X4154D01*
X4164Y2250D01*
X4173Y2255D01*
X4178Y2264D01*
X4180Y2273D01*
Y2363D01*
X4178Y2373D01*
X4173Y2382D01*
X4164Y2387D01*
X4154Y2389D01*
X4116D01*
X4108Y2397D01*
Y2409D01*
X4110Y2411D01*
X4119Y2432D01*
X4122Y2456D01*
X4119Y2479D01*
X4110Y2500D01*
X4096Y2519D01*
X4077Y2533D01*
X4055Y2542D01*
X4032Y2545D01*
D02*
G37*
G36*
X11704Y2309D02*
X11616D01*
Y2250D01*
X11678D01*
X11688Y2252D01*
X11696Y2258D01*
X11702Y2266D01*
X11704Y2276D01*
Y2309D01*
D02*
G37*
G36*
X11590D02*
X11502D01*
Y2276D01*
X11504Y2266D01*
X11510Y2258D01*
X11518Y2252D01*
X11528Y2250D01*
X11590D01*
Y2309D01*
D02*
G37*
G36*
X9278Y2296D02*
X9190D01*
Y2238D01*
X9252D01*
X9262Y2240D01*
X9271Y2245D01*
X9276Y2254D01*
X9278Y2264D01*
Y2296D01*
D02*
G37*
G36*
X9165D02*
X9077D01*
Y2264D01*
X9079Y2254D01*
X9084Y2245D01*
X9093Y2240D01*
X9102Y2238D01*
X9165D01*
Y2296D01*
D02*
G37*
G36*
X10142Y2545D02*
X10118Y2542D01*
X10097Y2533D01*
X10078Y2519D01*
X10064Y2500D01*
X10055Y2479D01*
X10052Y2455D01*
X10055Y2432D01*
X10064Y2410D01*
X10066Y2408D01*
Y2365D01*
X10068Y2345D01*
X10076Y2327D01*
X10088Y2312D01*
Y2273D01*
X10090Y2263D01*
X10095Y2255D01*
X10104Y2249D01*
X10114Y2247D01*
X10163D01*
X10169Y2245D01*
X10189Y2242D01*
X10208Y2245D01*
X10214Y2247D01*
X10264D01*
X10274Y2249D01*
X10282Y2255D01*
X10288Y2263D01*
X10290Y2273D01*
Y2363D01*
X10288Y2373D01*
X10282Y2381D01*
X10274Y2387D01*
X10264Y2389D01*
X10225D01*
X10218Y2397D01*
Y2408D01*
X10219Y2410D01*
X10228Y2432D01*
X10231Y2455D01*
X10228Y2479D01*
X10219Y2500D01*
X10205Y2519D01*
X10187Y2533D01*
X10165Y2542D01*
X10142Y2545D01*
D02*
G37*
G36*
X6557Y2544D02*
X6533Y2541D01*
X6512Y2532D01*
X6493Y2518D01*
X6479Y2499D01*
X6470Y2477D01*
X6467Y2454D01*
X6470Y2431D01*
X6479Y2409D01*
X6481Y2407D01*
Y2364D01*
X6483Y2344D01*
X6491Y2326D01*
X6503Y2310D01*
Y2272D01*
X6505Y2262D01*
X6510Y2254D01*
X6519Y2248D01*
X6529Y2246D01*
X6578D01*
X6584Y2244D01*
X6604Y2241D01*
X6623Y2244D01*
X6629Y2246D01*
X6679D01*
X6689Y2248D01*
X6697Y2254D01*
X6703Y2262D01*
X6704Y2272D01*
Y2362D01*
X6703Y2372D01*
X6697Y2380D01*
X6689Y2386D01*
X6679Y2388D01*
X6640D01*
X6633Y2396D01*
Y2407D01*
X6634Y2409D01*
X6643Y2431D01*
X6646Y2454D01*
X6643Y2477D01*
X6634Y2499D01*
X6620Y2518D01*
X6601Y2532D01*
X6580Y2541D01*
X6557Y2544D01*
D02*
G37*
G36*
X11644Y2446D02*
X11468D01*
X11469Y2435D01*
X11478Y2414D01*
X11492Y2395D01*
X11508Y2383D01*
X11504Y2376D01*
X11502Y2366D01*
Y2334D01*
X11603D01*
X11704D01*
Y2366D01*
X11702Y2376D01*
X11696Y2385D01*
X11688Y2390D01*
X11678Y2392D01*
X11633D01*
X11627Y2405D01*
X11634Y2414D01*
X11643Y2435D01*
X11644Y2446D01*
D02*
G37*
G36*
X9219Y2433D02*
X9043D01*
X9044Y2423D01*
X9053Y2401D01*
X9067Y2383D01*
X9083Y2370D01*
X9079Y2364D01*
X9077Y2354D01*
Y2321D01*
X9177D01*
X9278D01*
Y2354D01*
X9276Y2364D01*
X9271Y2372D01*
X9262Y2378D01*
X9252Y2380D01*
X9208D01*
X9201Y2392D01*
X9208Y2401D01*
X9217Y2423D01*
X9219Y2433D01*
D02*
G37*
G36*
X3010Y2447D02*
X2834D01*
X2835Y2437D01*
X2844Y2415D01*
X2859Y2397D01*
X2875Y2385D01*
X2870Y2378D01*
X2868Y2368D01*
Y2336D01*
X2969D01*
X3070D01*
Y2368D01*
X3068Y2378D01*
X3062Y2386D01*
X3054Y2392D01*
X3044Y2394D01*
X2999D01*
X2993Y2407D01*
X3000Y2415D01*
X3009Y2437D01*
X3010Y2447D01*
D02*
G37*
G36*
X5534Y2446D02*
X5358D01*
X5360Y2436D01*
X5369Y2414D01*
X5383Y2395D01*
X5399Y2383D01*
X5394Y2377D01*
X5393Y2367D01*
Y2334D01*
X5493D01*
X5594D01*
Y2367D01*
X5592Y2377D01*
X5587Y2385D01*
X5578Y2391D01*
X5568Y2393D01*
X5524D01*
X5517Y2405D01*
X5524Y2414D01*
X5533Y2436D01*
X5534Y2446D01*
D02*
G37*
G36*
X5594Y2309D02*
X5506D01*
Y2251D01*
X5568D01*
X5578Y2253D01*
X5587Y2258D01*
X5592Y2267D01*
X5594Y2277D01*
Y2309D01*
D02*
G37*
G36*
X5481D02*
X5393D01*
Y2277D01*
X5394Y2267D01*
X5400Y2258D01*
X5409Y2253D01*
X5418Y2251D01*
X5481D01*
Y2309D01*
D02*
G37*
G36*
X3070Y2310D02*
X2982D01*
Y2252D01*
X3044D01*
X3054Y2254D01*
X3062Y2260D01*
X3068Y2268D01*
X3070Y2278D01*
Y2310D01*
D02*
G37*
G36*
X2956D02*
X2868D01*
Y2278D01*
X2870Y2268D01*
X2876Y2260D01*
X2884Y2254D01*
X2894Y2252D01*
X2956D01*
Y2310D01*
D02*
G37*
%LPD*%
D10*
X11113Y2321D02*
D03*
Y2651D02*
D03*
X11603D02*
D03*
Y2321D02*
D03*
X11686Y3246D02*
D03*
Y2916D02*
D03*
X11196D02*
D03*
Y3246D02*
D03*
X10489Y2914D02*
D03*
Y3244D02*
D03*
X10979D02*
D03*
Y2914D02*
D03*
X10812Y2056D02*
D03*
Y1726D02*
D03*
X10322D02*
D03*
Y2056D02*
D03*
X11519Y2057D02*
D03*
Y1727D02*
D03*
X11029D02*
D03*
Y2057D02*
D03*
X10946Y1133D02*
D03*
Y1463D02*
D03*
X11436D02*
D03*
Y1133D02*
D03*
X10855Y535D02*
D03*
Y865D02*
D03*
X11345D02*
D03*
Y535D02*
D03*
X10155D02*
D03*
Y865D02*
D03*
X10645D02*
D03*
Y535D02*
D03*
X9945Y865D02*
D03*
Y535D02*
D03*
X9455D02*
D03*
Y865D02*
D03*
X10022Y1460D02*
D03*
Y1130D02*
D03*
X9532D02*
D03*
Y1460D02*
D03*
X10105Y2054D02*
D03*
Y1724D02*
D03*
X9615D02*
D03*
Y2054D02*
D03*
X10189Y2648D02*
D03*
Y2318D02*
D03*
X9699D02*
D03*
Y2648D02*
D03*
X10272Y3242D02*
D03*
Y2912D02*
D03*
X9782D02*
D03*
Y3242D02*
D03*
X8064Y2901D02*
D03*
Y3231D02*
D03*
X8554D02*
D03*
Y2901D02*
D03*
X9261Y3233D02*
D03*
Y2903D02*
D03*
X8771D02*
D03*
Y3233D02*
D03*
X8687Y2309D02*
D03*
Y2639D02*
D03*
X9177D02*
D03*
Y2309D02*
D03*
X9094Y2045D02*
D03*
Y1715D02*
D03*
X8604D02*
D03*
Y2045D02*
D03*
X8387Y2043D02*
D03*
Y1713D02*
D03*
X7897D02*
D03*
Y2043D02*
D03*
X8520Y1120D02*
D03*
Y1450D02*
D03*
X9010D02*
D03*
Y1120D02*
D03*
X8437Y526D02*
D03*
Y856D02*
D03*
X8927D02*
D03*
Y526D02*
D03*
X7730Y525D02*
D03*
Y855D02*
D03*
X8220D02*
D03*
Y525D02*
D03*
X7513Y853D02*
D03*
Y523D02*
D03*
X7023D02*
D03*
Y853D02*
D03*
X7596Y1447D02*
D03*
Y1117D02*
D03*
X7106D02*
D03*
Y1447D02*
D03*
X7680Y2041D02*
D03*
Y1711D02*
D03*
X7190D02*
D03*
Y2041D02*
D03*
X7763Y2636D02*
D03*
Y2306D02*
D03*
X7273D02*
D03*
Y2636D02*
D03*
X7847Y3230D02*
D03*
Y2900D02*
D03*
X7357D02*
D03*
Y3230D02*
D03*
X5947Y1129D02*
D03*
Y1459D02*
D03*
X6437D02*
D03*
Y1129D02*
D03*
X6604Y2647D02*
D03*
Y2317D02*
D03*
X6114D02*
D03*
Y2647D02*
D03*
X5003Y2322D02*
D03*
Y2652D02*
D03*
X5493D02*
D03*
Y2322D02*
D03*
X5577Y3246D02*
D03*
Y2916D02*
D03*
X5087D02*
D03*
Y3246D02*
D03*
X4380Y2914D02*
D03*
Y3244D02*
D03*
X4870D02*
D03*
Y2914D02*
D03*
X5410Y2057D02*
D03*
Y1727D02*
D03*
X4920D02*
D03*
Y2057D02*
D03*
X4703Y2056D02*
D03*
Y1726D02*
D03*
X4213D02*
D03*
Y2056D02*
D03*
X4836Y1133D02*
D03*
Y1463D02*
D03*
X5326D02*
D03*
Y1133D02*
D03*
X4755Y535D02*
D03*
Y865D02*
D03*
X5245D02*
D03*
Y535D02*
D03*
X4046Y538D02*
D03*
Y868D02*
D03*
X4536D02*
D03*
Y538D02*
D03*
X3829Y866D02*
D03*
Y536D02*
D03*
X3339D02*
D03*
Y866D02*
D03*
X3912Y1460D02*
D03*
Y1130D02*
D03*
X3422D02*
D03*
Y1460D02*
D03*
X3996Y2054D02*
D03*
Y1724D02*
D03*
X3506D02*
D03*
Y2054D02*
D03*
X4079Y2648D02*
D03*
Y2318D02*
D03*
X3589D02*
D03*
Y2648D02*
D03*
X4163Y3243D02*
D03*
Y2913D02*
D03*
X3673D02*
D03*
Y3243D02*
D03*
X2479Y2323D02*
D03*
Y2653D02*
D03*
X2969D02*
D03*
Y2323D02*
D03*
X3053Y3247D02*
D03*
Y2917D02*
D03*
X2563D02*
D03*
Y3247D02*
D03*
X1855Y2916D02*
D03*
Y3246D02*
D03*
X2345D02*
D03*
Y2916D02*
D03*
X2178Y2057D02*
D03*
Y1727D02*
D03*
X1688D02*
D03*
Y2057D02*
D03*
X2886Y2059D02*
D03*
Y1729D02*
D03*
X2396D02*
D03*
Y2059D02*
D03*
X2312Y1135D02*
D03*
Y1465D02*
D03*
X2802D02*
D03*
Y1135D02*
D03*
X2229Y540D02*
D03*
Y870D02*
D03*
X2719D02*
D03*
Y540D02*
D03*
X1521Y539D02*
D03*
Y869D02*
D03*
X2011D02*
D03*
Y539D02*
D03*
X1304Y867D02*
D03*
Y537D02*
D03*
X814D02*
D03*
Y867D02*
D03*
X1388Y1461D02*
D03*
Y1131D02*
D03*
X898D02*
D03*
Y1461D02*
D03*
X1471Y2056D02*
D03*
Y1726D02*
D03*
X981D02*
D03*
Y2056D02*
D03*
X1555Y2650D02*
D03*
Y2320D02*
D03*
X1065D02*
D03*
Y2650D02*
D03*
X1638Y3244D02*
D03*
Y2914D02*
D03*
X1148D02*
D03*
Y3244D02*
D03*
D11*
X7023Y3348D02*
X7248D01*
X6951Y3276D02*
X7023Y3348D01*
X6951Y3106D02*
Y3276D01*
X6604Y2647D02*
Y2844D01*
X5985Y1640D02*
X6114Y1768D01*
X5844Y1640D02*
X5985D01*
X6114Y1768D02*
Y2317D01*
X6557Y2364D02*
X6604Y2317D01*
X6557Y2364D02*
Y2454D01*
X7463Y3350D02*
X7465Y3348D01*
X7251Y3350D02*
X7463D01*
X7248Y3348D02*
X7251Y3350D01*
X11029Y1727D02*
X11029D01*
X10645Y813D02*
X10656D01*
X8604Y1715D02*
X8604D01*
X8220Y801D02*
X8230D01*
X5020Y2839D02*
X5092Y2911D01*
X4920Y1728D02*
X4925D01*
X4536Y814D02*
X4546D01*
X2395Y1729D02*
X2396D01*
X2011Y815D02*
X2022D01*
X8230Y801D02*
X8437Y594D01*
X1638Y3244D02*
Y3348D01*
X1586Y3400D02*
X1638Y3348D01*
X1000Y3400D02*
X1586D01*
X10272Y3242D02*
Y3299D01*
X10201Y3370D02*
X10272Y3299D01*
X9517Y3370D02*
X10201D01*
X9434Y3287D02*
X9517Y3370D01*
X9434Y3160D02*
Y3287D01*
X9177Y2639D02*
X9305Y2511D01*
X9434D01*
X7847Y3230D02*
Y3244D01*
X7743Y3348D02*
X7847Y3244D01*
X7465Y3348D02*
X7743D01*
X6694Y1459D02*
X6841Y1606D01*
X6437Y1459D02*
X6694D01*
X6381Y3067D02*
X6604Y2844D01*
X5785Y3067D02*
X6381D01*
X5493Y2652D02*
X5727Y2418D01*
X5785D01*
X5493Y2652D02*
X5495D01*
X4163Y3243D02*
Y3338D01*
X4106Y3395D02*
X4163Y3338D01*
X3418Y3395D02*
X4106D01*
X3317Y3294D02*
X3418Y3395D01*
X3317Y3111D02*
Y3294D01*
X2969Y2653D02*
X3160Y2462D01*
X3317D01*
X1688Y1727D02*
X1854D01*
X1920Y1793D01*
Y2202D01*
X1855Y2266D02*
X1920Y2202D01*
X1855Y2266D02*
Y2916D01*
X4213Y1726D02*
X4232Y1707D01*
X4387D01*
X4444Y1763D01*
Y2201D01*
X4380Y2265D02*
X4444Y2201D01*
X4380Y2265D02*
Y2914D01*
X7897Y1713D02*
X7899Y1716D01*
X8065D01*
X8135Y1786D01*
Y2181D01*
X8064Y2252D02*
X8135Y2181D01*
X8064Y2252D02*
Y2901D01*
X10322Y1726D02*
X10325Y1728D01*
X10490D01*
X10560Y1799D01*
Y2194D01*
X10489Y2265D02*
X10560Y2194D01*
X10489Y2265D02*
Y2914D01*
X11069Y2321D02*
X11113D01*
X10948Y2443D02*
X11069Y2321D01*
X10948Y2443D02*
Y2713D01*
X11028Y2794D01*
X11130D01*
Y2849D01*
X11196Y2916D01*
X11686Y3246D02*
Y3301D01*
X11604Y3384D02*
X11686Y3301D01*
X11077Y3384D02*
X11604D01*
X10979Y3287D02*
X11077Y3384D01*
X10979Y3244D02*
Y3287D01*
X10963Y1794D02*
X11029Y1727D01*
X10963Y1794D02*
Y1802D01*
X10812Y1952D02*
X10963Y1802D01*
X10812Y1952D02*
Y2056D01*
X11519Y2057D02*
X11577D01*
X11670Y1964D01*
Y1541D02*
Y1964D01*
X11592Y1463D02*
X11670Y1541D01*
X11436Y1463D02*
X11592D01*
X11345Y865D02*
Y933D01*
X11298Y980D02*
X11345Y933D01*
X11000Y980D02*
X11298D01*
X10946Y1034D02*
X11000Y980D01*
X10946Y1034D02*
Y1133D01*
X10855Y535D02*
Y614D01*
X10656Y813D02*
X10855Y614D01*
X10645Y813D02*
Y865D01*
X10155Y468D02*
Y535D01*
X10091Y404D02*
X10155Y468D01*
X9494Y404D02*
X10091D01*
X9460Y438D02*
X9494Y404D01*
X9460Y438D02*
Y530D01*
X9455Y535D02*
X9460Y530D01*
X9945Y865D02*
Y915D01*
X9876Y984D02*
X9945Y915D01*
X9579Y984D02*
X9876D01*
X9532Y1031D02*
X9579Y984D01*
X9532Y1031D02*
Y1130D01*
X10022Y1460D02*
Y1516D01*
X9961Y1577D02*
X10022Y1516D01*
X9663Y1577D02*
X9961D01*
X9615Y1625D02*
X9663Y1577D01*
X9615Y1625D02*
Y1724D01*
X10105Y2054D02*
Y2110D01*
X10050Y2165D02*
X10105Y2110D01*
X9753Y2165D02*
X10050D01*
X9699Y2219D02*
X9753Y2165D01*
X9699Y2219D02*
Y2318D01*
X10189Y2648D02*
Y2705D01*
X10134Y2759D02*
X10189Y2705D01*
X9836Y2759D02*
X10134D01*
X9782Y2813D02*
X9836Y2759D01*
X9782Y2813D02*
Y2912D01*
X8644Y2309D02*
X8687D01*
X8522Y2430D02*
X8644Y2309D01*
X8522Y2430D02*
Y2700D01*
X8603Y2781D01*
X8704D01*
Y2836D01*
X8771Y2903D01*
X9261Y3233D02*
Y3289D01*
X9197Y3353D02*
X9261Y3289D01*
X8633Y3353D02*
X9197D01*
X8554Y3274D02*
X8633Y3353D01*
X8554Y3231D02*
Y3274D01*
X8537Y1781D02*
X8604Y1715D01*
X8537Y1781D02*
Y1789D01*
X8387Y1940D02*
X8537Y1789D01*
X8387Y1940D02*
Y2043D01*
X9094Y2045D02*
X9194D01*
X9266Y1973D01*
Y1533D02*
Y1973D01*
X9183Y1450D02*
X9266Y1533D01*
X9010Y1450D02*
X9183D01*
X8520Y1064D02*
Y1120D01*
Y1064D02*
X8575Y1009D01*
X8873D01*
X8927Y955D01*
Y856D02*
Y955D01*
X7967Y994D02*
X8350D01*
X7818D02*
X7967D01*
X8437Y526D02*
Y594D01*
X8220Y801D02*
Y855D01*
X7730Y429D02*
Y525D01*
X7679Y378D02*
X7730Y429D01*
X7069Y378D02*
X7679D01*
X7023Y424D02*
X7069Y378D01*
X7023Y424D02*
Y523D01*
X7513Y853D02*
Y910D01*
X7458Y964D02*
X7513Y910D01*
X7160Y964D02*
X7458D01*
X7106Y1018D02*
X7160Y964D01*
X7106Y1018D02*
Y1117D01*
X7596Y1447D02*
Y1504D01*
X7542Y1558D02*
X7596Y1504D01*
X7244Y1558D02*
X7542D01*
X7190Y1612D02*
X7244Y1558D01*
X7190Y1612D02*
Y1711D01*
X7680Y2041D02*
Y2084D01*
X7618Y2146D02*
X7680Y2084D01*
X7334Y2146D02*
X7618D01*
X7675Y2047D02*
X7680Y2041D01*
X7273Y2207D02*
X7334Y2146D01*
X7273Y2207D02*
Y2306D01*
X7763Y2636D02*
Y2678D01*
X7702Y2740D02*
X7763Y2678D01*
X7418Y2740D02*
X7702D01*
X7357Y2801D02*
X7418Y2740D01*
X7357Y2801D02*
Y2900D01*
X5847Y1129D02*
X5947D01*
X5767Y1209D02*
X5847Y1129D01*
X5767Y1209D02*
Y1562D01*
X5844Y1640D01*
X4960Y2322D02*
X5003D01*
X4838Y2443D02*
X4960Y2322D01*
X4838Y2443D02*
Y2713D01*
X4919Y2794D01*
X5020D01*
Y2839D01*
X5087Y2916D02*
X5092Y2911D01*
X5577Y3246D02*
Y3302D01*
X5522Y3357D02*
X5577Y3302D01*
X5202Y3357D02*
X5522D01*
X5193Y3366D02*
X5202Y3357D01*
X4896Y3366D02*
X5193D01*
X4865Y3335D02*
X4896Y3366D01*
X4865Y3249D02*
Y3335D01*
Y3249D02*
X4870Y3244D01*
X4853Y1794D02*
X4920Y1728D01*
X4853Y1794D02*
Y1802D01*
X4703Y1953D02*
X4853Y1802D01*
X4703Y1953D02*
Y2056D01*
X5410Y2057D02*
X5497D01*
X5576Y1979D01*
Y1556D02*
Y1979D01*
X5483Y1463D02*
X5576Y1556D01*
X5326Y1463D02*
X5483D01*
X4836Y1077D02*
Y1133D01*
Y1077D02*
X4891Y1022D01*
X5189D01*
X5238Y973D01*
Y872D02*
Y973D01*
Y872D02*
X5245Y865D01*
X4755Y535D02*
Y605D01*
X4546Y814D02*
X4755Y605D01*
X4536Y814D02*
Y868D01*
X4046Y442D02*
Y538D01*
X3995Y391D02*
X4046Y442D01*
X3385Y391D02*
X3995D01*
X3344Y432D02*
X3385Y391D01*
X3344Y432D02*
Y531D01*
X3339Y536D02*
X3344Y531D01*
X3829Y866D02*
Y922D01*
X3774Y977D02*
X3829Y922D01*
X3476Y977D02*
X3774D01*
X3422Y1031D02*
X3476Y977D01*
X3422Y1031D02*
Y1130D01*
X3912Y1460D02*
Y1517D01*
X3857Y1571D02*
X3912Y1517D01*
X3560Y1571D02*
X3857D01*
X3506Y1625D02*
X3560Y1571D01*
X3506Y1625D02*
Y1724D01*
X3996Y2054D02*
Y2111D01*
X3941Y2165D02*
X3996Y2111D01*
X3643Y2165D02*
X3941D01*
X3594Y2214D02*
X3643Y2165D01*
X3594Y2214D02*
Y2313D01*
X3589Y2318D02*
X3594Y2313D01*
X4079Y2648D02*
Y2705D01*
X4025Y2760D02*
X4079Y2705D01*
X3727Y2760D02*
X4025D01*
X3673Y2814D02*
X3727Y2760D01*
X3673Y2814D02*
Y2913D01*
X2563Y2906D02*
Y2917D01*
X2452Y2795D02*
X2563Y2906D01*
X2395Y2795D02*
X2452D01*
X2329Y2729D02*
X2395Y2795D01*
X2329Y2473D02*
Y2729D01*
Y2473D02*
X2479Y2323D01*
X3053Y3247D02*
Y3329D01*
X2989Y3392D02*
X3053Y3329D01*
X2397Y3392D02*
X2989D01*
X2345Y3341D02*
X2397Y3392D01*
X2345Y3246D02*
Y3341D01*
X2329Y1796D02*
X2395Y1729D01*
X2329Y1796D02*
Y1803D01*
X2178Y1954D02*
X2329Y1803D01*
X2178Y1954D02*
Y2057D01*
X2886Y2059D02*
X2973D01*
X3051Y1981D01*
Y1558D02*
Y1981D01*
X2958Y1465D02*
X3051Y1558D01*
X2802Y1465D02*
X2958D01*
X2312Y1078D02*
Y1135D01*
Y1078D02*
X2388Y1003D01*
X2629D01*
X2719Y913D01*
Y870D02*
Y913D01*
X2229Y540D02*
Y608D01*
X2022Y815D02*
X2229Y608D01*
X2011Y815D02*
Y869D01*
X1521Y443D02*
Y539D01*
X1470Y392D02*
X1521Y443D01*
X860Y392D02*
X1470D01*
X814Y438D02*
X860Y392D01*
X814Y438D02*
Y537D01*
X1304Y867D02*
Y924D01*
X1250Y978D02*
X1304Y924D01*
X952Y978D02*
X1250D01*
X898Y1032D02*
X952Y978D01*
X898Y1032D02*
Y1131D01*
X1388Y1461D02*
Y1518D01*
X1333Y1573D02*
X1388Y1518D01*
X1035Y1573D02*
X1333D01*
X981Y1627D02*
X1035Y1573D01*
X981Y1627D02*
Y1726D01*
X1471Y2056D02*
Y2098D01*
X1410Y2160D02*
X1471Y2098D01*
X1126Y2160D02*
X1410D01*
X1065Y2221D02*
X1126Y2160D01*
X1065Y2221D02*
Y2320D01*
X1555Y2650D02*
Y2706D01*
X1500Y2761D02*
X1555Y2706D01*
X1202Y2761D02*
X1500D01*
X1148Y2815D02*
X1202Y2761D01*
X1148Y2815D02*
Y2914D01*
X9891Y673D02*
X9913Y695D01*
X10110D01*
X10155Y739D01*
Y865D01*
X7466Y660D02*
X7487Y682D01*
X7685D01*
X7730Y727D01*
Y855D01*
X8350Y994D02*
X8437Y907D01*
Y856D02*
Y907D01*
X7730Y905D02*
X7818Y994D01*
X7730Y855D02*
Y905D01*
X7466Y570D02*
X7513Y523D01*
X7466Y570D02*
Y660D01*
X7549Y1164D02*
X7596Y1117D01*
X7549Y1164D02*
Y1254D01*
X8468Y1590D02*
X8609D01*
X8387Y1670D02*
X8468Y1590D01*
X8387Y1670D02*
Y1713D01*
X8758Y1590D02*
X9019D01*
X9094Y1664D01*
Y1715D01*
X8609Y1590D02*
X8758D01*
X8520Y1501D02*
X8609Y1590D01*
X8520Y1450D02*
Y1501D01*
X8687Y2549D02*
X8734Y2502D01*
X8687Y2549D02*
Y2639D01*
X7633Y1758D02*
X7680Y1711D01*
X7633Y1758D02*
Y1849D01*
X7716Y2353D02*
X7763Y2306D01*
X7716Y2353D02*
Y2443D01*
X5947Y1369D02*
X5994Y1322D01*
X5947Y1369D02*
Y1459D01*
X4300Y1000D02*
X4669D01*
X4755Y914D01*
Y865D02*
Y914D01*
X4128Y1000D02*
X4300D01*
X4046Y918D02*
X4128Y1000D01*
X4046Y868D02*
Y918D01*
X3800Y700D02*
X3805Y695D01*
X4001D01*
X4046Y740D01*
Y868D01*
X3865Y1177D02*
X3912Y1130D01*
X3865Y1177D02*
Y1267D01*
X3800Y565D02*
X3829Y536D01*
X3800Y565D02*
Y700D01*
X1257Y674D02*
X1455D01*
X1521Y741D01*
Y869D01*
X1759Y1008D02*
X2142D01*
X2229Y921D01*
Y870D02*
Y921D01*
X1610Y1008D02*
X1759D01*
X1521Y919D02*
X1610Y1008D01*
X1521Y869D02*
Y919D01*
X1257Y584D02*
X1304Y537D01*
X1257Y584D02*
Y674D01*
X1341Y1178D02*
X1388Y1131D01*
X1341Y1178D02*
Y1269D01*
X4784Y1602D02*
X4925D01*
X4703Y1683D02*
X4784Y1602D01*
X4703Y1683D02*
Y1726D01*
X5074Y1602D02*
X5335D01*
X5410Y1677D01*
Y1727D01*
X4925Y1602D02*
X5074D01*
X4836Y1514D02*
X4925Y1602D01*
X4836Y1463D02*
Y1514D01*
X5003Y2561D02*
X5050Y2514D01*
X5003Y2561D02*
Y2652D01*
X3949Y1771D02*
X3996Y1724D01*
X3949Y1771D02*
Y1861D01*
X4032Y2365D02*
X4079Y2318D01*
X4032Y2365D02*
Y2456D01*
X2259Y1604D02*
X2401D01*
X2178Y1685D02*
X2259Y1604D01*
X2178Y1685D02*
Y1727D01*
X2549Y1604D02*
X2803D01*
X2886Y1686D01*
Y1729D01*
X2401Y1604D02*
X2549D01*
X2312Y1515D02*
X2401Y1604D01*
X2312Y1465D02*
Y1515D01*
X1424Y1773D02*
X1471Y1726D01*
X1424Y1773D02*
Y1863D01*
X1508Y2367D02*
X1555Y2320D01*
X1508Y2367D02*
Y2457D01*
X2479Y2563D02*
X2526Y2516D01*
X2479Y2563D02*
Y2653D01*
X1591Y3051D02*
X1613Y3073D01*
X1810D01*
X1855Y3118D01*
Y3246D01*
X1591Y2961D02*
X1638Y2914D01*
X1591Y2961D02*
Y3051D01*
X3006Y2964D02*
X3053Y2917D01*
X3006Y2964D02*
Y3054D01*
X4116Y3050D02*
X4137Y3071D01*
X4335D01*
X4380Y3117D01*
Y3244D01*
X4116Y2960D02*
X4163Y2913D01*
X4116Y2960D02*
Y3050D01*
X5530Y2963D02*
X5577Y2916D01*
X5530Y2963D02*
Y3053D01*
X7800Y3037D02*
X7822Y3059D01*
X8019D01*
X8064Y3104D01*
Y3231D01*
X7800Y2947D02*
X7847Y2900D01*
X7800Y2947D02*
Y3037D01*
X9214Y2950D02*
X9261Y2903D01*
X9214Y2950D02*
Y3040D01*
X10225Y3049D02*
X10422D01*
X10489Y3116D01*
Y3244D01*
X10225Y2959D02*
X10272Y2912D01*
X10225Y2959D02*
Y3049D01*
X10142Y2365D02*
X10189Y2318D01*
X10142Y2365D02*
Y2455D01*
X10058Y1771D02*
X10105Y1724D01*
X10058Y1771D02*
Y1861D01*
X9975Y1177D02*
X10022Y1130D01*
X9975Y1177D02*
Y1267D01*
X9891Y589D02*
X9945Y535D01*
X9891Y589D02*
Y673D01*
X10400Y1000D02*
X10782D01*
X10855Y927D01*
Y865D02*
Y927D01*
X10237Y1000D02*
X10400D01*
X10155Y918D02*
X10237Y1000D01*
X10155Y865D02*
Y918D01*
X10829Y1602D02*
X11034D01*
X10812Y1619D02*
X10829Y1602D01*
X10812Y1619D02*
Y1726D01*
X11183Y1602D02*
X11437D01*
X11519Y1685D01*
Y1727D01*
X11034Y1602D02*
X11183D01*
X10946Y1514D02*
X11034Y1602D01*
X10946Y1463D02*
Y1514D01*
X11113Y2561D02*
X11160Y2514D01*
X11113Y2561D02*
Y2651D01*
X11639Y2962D02*
X11686Y2916D01*
X11639Y2962D02*
Y3053D01*
X900Y3300D02*
X1000Y3400D01*
X900Y2400D02*
Y3300D01*
X11603Y2651D02*
X11849D01*
D12*
X12100Y0D02*
G03*
X12300Y200I0J200D01*
G01*
Y3600D02*
G03*
X12100Y3800I-200J-0D01*
G01*
X0Y200D02*
G03*
X200Y0I200J0D01*
G01*
X200Y3800D02*
G03*
X0Y3600I0J-200D01*
G01*
X12300Y200D02*
Y3600D01*
X200Y3794D02*
X12100Y3800D01*
X0Y200D02*
Y3600D01*
X200Y0D02*
X12100D01*
D13*
X5259Y2971D02*
X5404D01*
X5259Y3191D02*
X5404D01*
Y2971D02*
Y3191D01*
X5259Y2971D02*
Y3191D01*
X11608Y2236D02*
Y2736D01*
X11108Y2236D02*
Y2736D01*
X11608D01*
X11108Y2236D02*
X11608D01*
X11191Y2831D02*
Y3331D01*
X11691Y2831D02*
Y3331D01*
X11191Y2831D02*
X11691D01*
X11191Y3331D02*
X11691D01*
X10984Y2829D02*
Y3329D01*
X10484Y2829D02*
Y3329D01*
X10984D01*
X10484Y2829D02*
X10984D01*
X10317Y1641D02*
Y2141D01*
X10817Y1641D02*
Y2141D01*
X10317Y1641D02*
X10817D01*
X10317Y2141D02*
X10817D01*
X11024Y1642D02*
Y2142D01*
X11524Y1642D02*
Y2142D01*
X11024Y1642D02*
X11524D01*
X11024Y2142D02*
X11524D01*
X11441Y1048D02*
Y1548D01*
X10941Y1048D02*
Y1548D01*
X11441D01*
X10941Y1048D02*
X11441D01*
X11350Y450D02*
Y950D01*
X10850Y450D02*
Y950D01*
X11350D01*
X10850Y450D02*
X11350D01*
X10650D02*
Y950D01*
X10150Y450D02*
Y950D01*
X10650D01*
X10150Y450D02*
X10650D01*
X9450Y450D02*
Y950D01*
X9950Y450D02*
Y950D01*
X9450Y450D02*
X9950D01*
X9450Y950D02*
X9950D01*
X9527Y1045D02*
Y1545D01*
X10027Y1045D02*
Y1545D01*
X9527Y1045D02*
X10027D01*
X9527Y1545D02*
X10027D01*
X9610Y1639D02*
Y2139D01*
X10110Y1639D02*
Y2139D01*
X9610Y1639D02*
X10110D01*
X9610Y2139D02*
X10110D01*
X9694Y2233D02*
Y2733D01*
X10194Y2233D02*
Y2733D01*
X9694Y2233D02*
X10194D01*
X9694Y2733D02*
X10194D01*
X9777Y2827D02*
Y3327D01*
X10277Y2827D02*
Y3327D01*
X9777Y2827D02*
X10277D01*
X9777Y3327D02*
X10277D01*
X8559Y2816D02*
Y3316D01*
X8059Y2816D02*
Y3316D01*
X8559D01*
X8059Y2816D02*
X8559D01*
X8766Y2818D02*
Y3318D01*
X9266Y2818D02*
Y3318D01*
X8766Y2818D02*
X9266D01*
X8766Y3318D02*
X9266D01*
X9182Y2224D02*
Y2724D01*
X8682Y2224D02*
Y2724D01*
X9182D01*
X8682Y2224D02*
X9182D01*
X8599Y1630D02*
Y2130D01*
X9099Y1630D02*
Y2130D01*
X8599Y1630D02*
X9099D01*
X8599Y2130D02*
X9099D01*
X7892Y1628D02*
Y2128D01*
X8392Y1628D02*
Y2128D01*
X7892Y1628D02*
X8392D01*
X7892Y2128D02*
X8392D01*
X9015Y1035D02*
Y1535D01*
X8515Y1035D02*
Y1535D01*
X9015D01*
X8515Y1035D02*
X9015D01*
X8932Y441D02*
Y941D01*
X8432Y441D02*
Y941D01*
X8932D01*
X8432Y441D02*
X8932D01*
X8225Y440D02*
Y940D01*
X7725Y440D02*
Y940D01*
X8225D01*
X7725Y440D02*
X8225D01*
X7018Y438D02*
Y938D01*
X7518Y438D02*
Y938D01*
X7018Y438D02*
X7518D01*
X7018Y938D02*
X7518D01*
X7101Y1032D02*
Y1532D01*
X7601Y1032D02*
Y1532D01*
X7101Y1032D02*
X7601D01*
X7101Y1532D02*
X7601D01*
X7185Y1626D02*
Y2126D01*
X7685Y1626D02*
Y2126D01*
X7185Y1626D02*
X7685D01*
X7185Y2126D02*
X7685D01*
X7268Y2221D02*
Y2721D01*
X7768Y2221D02*
Y2721D01*
X7268Y2221D02*
X7768D01*
X7268Y2721D02*
X7768D01*
X7352Y2815D02*
Y3315D01*
X7852Y2815D02*
Y3315D01*
X7352Y2815D02*
X7852D01*
X7352Y3315D02*
X7852D01*
X6442Y1044D02*
Y1544D01*
X5942Y1044D02*
Y1544D01*
X6442D01*
X5942Y1044D02*
X6442D01*
X6109Y2232D02*
Y2732D01*
X6609Y2232D02*
Y2732D01*
X6109Y2232D02*
X6609D01*
X6109Y2732D02*
X6609D01*
X5498Y2237D02*
Y2737D01*
X4998Y2237D02*
Y2737D01*
X5498D01*
X4998Y2237D02*
X5498D01*
X5082Y2831D02*
Y3331D01*
X5582Y2831D02*
Y3331D01*
X5082Y2831D02*
X5582D01*
X5082Y3331D02*
X5582D01*
X4875Y2829D02*
Y3329D01*
X4375Y2829D02*
Y3329D01*
X4875D01*
X4375Y2829D02*
X4875D01*
X4915Y1642D02*
Y2142D01*
X5415Y1642D02*
Y2142D01*
X4915Y1642D02*
X5415D01*
X4915Y2142D02*
X5415D01*
X4208Y1641D02*
Y2141D01*
X4708Y1641D02*
Y2141D01*
X4208Y1641D02*
X4708D01*
X4208Y2141D02*
X4708D01*
X5331Y1048D02*
Y1548D01*
X4831Y1048D02*
Y1548D01*
X5331D01*
X4831Y1048D02*
X5331D01*
X5250Y450D02*
Y950D01*
X4750Y450D02*
Y950D01*
X5250D01*
X4750Y450D02*
X5250D01*
X4541Y453D02*
Y953D01*
X4041Y453D02*
Y953D01*
X4541D01*
X4041Y453D02*
X4541D01*
X3334Y451D02*
Y951D01*
X3834Y451D02*
Y951D01*
X3334Y451D02*
X3834D01*
X3334Y951D02*
X3834D01*
X3417Y1045D02*
Y1545D01*
X3917Y1045D02*
Y1545D01*
X3417Y1045D02*
X3917D01*
X3417Y1545D02*
X3917D01*
X3501Y1639D02*
Y2139D01*
X4001Y1639D02*
Y2139D01*
X3501Y1639D02*
X4001D01*
X3501Y2139D02*
X4001D01*
X3584Y2233D02*
Y2733D01*
X4084Y2233D02*
Y2733D01*
X3584Y2233D02*
X4084D01*
X3584Y2733D02*
X4084D01*
X3668Y2828D02*
Y3328D01*
X4168Y2828D02*
Y3328D01*
X3668Y2828D02*
X4168D01*
X3668Y3328D02*
X4168D01*
X2974Y2238D02*
Y2738D01*
X2474Y2238D02*
Y2738D01*
X2974D01*
X2474Y2238D02*
X2974D01*
X2558Y2832D02*
Y3332D01*
X3058Y2832D02*
Y3332D01*
X2558Y2832D02*
X3058D01*
X2558Y3332D02*
X3058D01*
X2350Y2831D02*
Y3331D01*
X1850Y2831D02*
Y3331D01*
X2350D01*
X1850Y2831D02*
X2350D01*
X1683Y1642D02*
Y2142D01*
X2183Y1642D02*
Y2142D01*
X1683Y1642D02*
X2183D01*
X1683Y2142D02*
X2183D01*
X2391Y1644D02*
Y2144D01*
X2891Y1644D02*
Y2144D01*
X2391Y1644D02*
X2891D01*
X2391Y2144D02*
X2891D01*
X2807Y1050D02*
Y1550D01*
X2307Y1050D02*
Y1550D01*
X2807D01*
X2307Y1050D02*
X2807D01*
X2724Y455D02*
Y955D01*
X2224Y455D02*
Y955D01*
X2724D01*
X2224Y455D02*
X2724D01*
X2016Y454D02*
Y954D01*
X1516Y454D02*
Y954D01*
X2016D01*
X1516Y454D02*
X2016D01*
X809Y452D02*
Y952D01*
X1309Y452D02*
Y952D01*
X809Y452D02*
X1309D01*
X809Y952D02*
X1309D01*
X893Y1046D02*
Y1546D01*
X1393Y1046D02*
Y1546D01*
X893Y1046D02*
X1393D01*
X893Y1546D02*
X1393D01*
X976Y1641D02*
Y2141D01*
X1476Y1641D02*
Y2141D01*
X976Y1641D02*
X1476D01*
X976Y2141D02*
X1476D01*
X1060Y2235D02*
Y2735D01*
X1560Y2235D02*
Y2735D01*
X1060Y2235D02*
X1560D01*
X1060Y2735D02*
X1560D01*
X1143Y2829D02*
Y3329D01*
X1643Y2829D02*
Y3329D01*
X1143Y2829D02*
X1643D01*
X1143Y3329D02*
X1643D01*
X10495Y2001D02*
X10640D01*
X10495Y1781D02*
X10640D01*
X10495D02*
Y2001D01*
X10640Y1781D02*
Y2001D01*
X11202Y1782D02*
X11347D01*
X11202Y2002D02*
X11347D01*
Y1782D02*
Y2002D01*
X11202Y1782D02*
Y2002D01*
X11118Y1408D02*
X11263D01*
X11118Y1188D02*
X11263D01*
X11118D02*
Y1408D01*
X11263Y1188D02*
Y1408D01*
X11369Y2971D02*
X11514D01*
X11369Y3191D02*
X11514D01*
Y2971D02*
Y3191D01*
X11369Y2971D02*
Y3191D01*
X10662Y3189D02*
X10807D01*
X10662Y2969D02*
X10807D01*
X10662D02*
Y3189D01*
X10807Y2969D02*
Y3189D01*
X11285Y2596D02*
X11430D01*
X11285Y2376D02*
X11430D01*
X11285D02*
Y2596D01*
X11430Y2376D02*
Y2596D01*
X9871Y2373D02*
X10016D01*
X9871Y2593D02*
X10016D01*
Y2373D02*
Y2593D01*
X9871Y2373D02*
Y2593D01*
X9788Y1779D02*
X9933D01*
X9788Y1999D02*
X9933D01*
Y1779D02*
Y1999D01*
X9788Y1779D02*
Y1999D01*
X9704Y1185D02*
X9849D01*
X9704Y1405D02*
X9849D01*
Y1185D02*
Y1405D01*
X9704Y1185D02*
Y1405D01*
X9621Y591D02*
X9766D01*
X9621Y811D02*
X9766D01*
Y591D02*
Y811D01*
X9621Y591D02*
Y811D01*
X10328Y812D02*
X10473D01*
X10328Y592D02*
X10473D01*
X10328D02*
Y812D01*
X10473Y592D02*
Y812D01*
X8860Y2584D02*
X9005D01*
X8860Y2364D02*
X9005D01*
X8860D02*
Y2584D01*
X9005Y2364D02*
Y2584D01*
X8943Y2958D02*
X9088D01*
X8943Y3178D02*
X9088D01*
Y2958D02*
Y3178D01*
X8943Y2958D02*
Y3178D01*
X9955Y2967D02*
X10100D01*
X9955Y3187D02*
X10100D01*
Y2967D02*
Y3187D01*
X9955Y2967D02*
Y3187D01*
X8236Y3176D02*
X8381D01*
X8236Y2956D02*
X8381D01*
X8236D02*
Y3176D01*
X8381Y2956D02*
Y3176D01*
X8069Y1988D02*
X8214D01*
X8069Y1768D02*
X8214D01*
X8069D02*
Y1988D01*
X8214Y1768D02*
Y1988D01*
X8776Y1770D02*
X8921D01*
X8776Y1990D02*
X8921D01*
Y1770D02*
Y1990D01*
X8776Y1770D02*
Y1990D01*
X8693Y1175D02*
X8838D01*
X8693Y1395D02*
X8838D01*
Y1175D02*
Y1395D01*
X8693Y1175D02*
Y1395D01*
X11035Y814D02*
X11180D01*
X11035Y594D02*
X11180D01*
X11035D02*
Y814D01*
X11180Y594D02*
Y814D01*
X8609Y801D02*
X8754D01*
X8609Y581D02*
X8754D01*
X8609D02*
Y801D01*
X8754Y581D02*
Y801D01*
X7902Y800D02*
X8047D01*
X7902Y580D02*
X8047D01*
X7902D02*
Y800D01*
X8047Y580D02*
Y800D01*
X7195Y578D02*
X7340D01*
X7195Y798D02*
X7340D01*
Y578D02*
Y798D01*
X7195Y578D02*
Y798D01*
X7279Y1172D02*
X7424D01*
X7279Y1392D02*
X7424D01*
Y1172D02*
Y1392D01*
X7279Y1172D02*
Y1392D01*
X7362Y1766D02*
X7507D01*
X7362Y1986D02*
X7507D01*
Y1766D02*
Y1986D01*
X7362Y1766D02*
Y1986D01*
X7446Y2361D02*
X7591D01*
X7446Y2581D02*
X7591D01*
Y2361D02*
Y2581D01*
X7446Y2361D02*
Y2581D01*
X7529Y2955D02*
X7674D01*
X7529Y3175D02*
X7674D01*
Y2955D02*
Y3175D01*
X7529Y2955D02*
Y3175D01*
X6119Y1404D02*
X6264D01*
X6119Y1184D02*
X6264D01*
X6119D02*
Y1404D01*
X6264Y1184D02*
Y1404D01*
X6279Y2403D02*
X6424D01*
X6279Y2623D02*
X6424D01*
Y2403D02*
Y2623D01*
X6279Y2403D02*
Y2623D01*
X5176Y2377D02*
X5321D01*
X5176Y2597D02*
X5321D01*
Y2377D02*
Y2597D01*
X5176Y2377D02*
Y2597D01*
X4552Y3189D02*
X4697D01*
X4552Y2969D02*
X4697D01*
X4552D02*
Y3189D01*
X4697Y2969D02*
Y3189D01*
X4385Y2001D02*
X4530D01*
X4385Y1781D02*
X4530D01*
X4385D02*
Y2001D01*
X4530Y1781D02*
Y2001D01*
X5092Y1782D02*
X5237D01*
X5092Y2002D02*
X5237D01*
Y1782D02*
Y2002D01*
X5092Y1782D02*
Y2002D01*
X5009Y1188D02*
X5154D01*
X5009Y1408D02*
X5154D01*
Y1188D02*
Y1408D01*
X5009Y1188D02*
Y1408D01*
X4925Y814D02*
X5070D01*
X4925Y594D02*
X5070D01*
X4925D02*
Y814D01*
X5070Y594D02*
Y814D01*
X4218Y813D02*
X4363D01*
X4218Y593D02*
X4363D01*
X4218D02*
Y813D01*
X4363Y593D02*
Y813D01*
X3511Y591D02*
X3656D01*
X3511Y811D02*
X3656D01*
Y591D02*
Y811D01*
X3511Y591D02*
Y811D01*
X3595Y1185D02*
X3740D01*
X3595Y1405D02*
X3740D01*
Y1185D02*
Y1405D01*
X3595Y1185D02*
Y1405D01*
X3678Y1779D02*
X3823D01*
X3678Y1999D02*
X3823D01*
Y1779D02*
Y1999D01*
X3678Y1779D02*
Y1999D01*
X3762Y2373D02*
X3907D01*
X3762Y2593D02*
X3907D01*
Y2373D02*
Y2593D01*
X3762Y2373D02*
Y2593D01*
X3845Y2968D02*
X3990D01*
X3845Y3188D02*
X3990D01*
Y2968D02*
Y3188D01*
X3845Y2968D02*
Y3188D01*
X2735Y2972D02*
X2880D01*
X2735Y3192D02*
X2880D01*
Y2972D02*
Y3192D01*
X2735Y2972D02*
Y3192D01*
X2652Y2378D02*
X2797D01*
X2652Y2598D02*
X2797D01*
Y2378D02*
Y2598D01*
X2652Y2378D02*
Y2598D01*
X2028Y3191D02*
X2173D01*
X2028Y2971D02*
X2173D01*
X2028D02*
Y3191D01*
X2173Y2971D02*
Y3191D01*
X1861Y2002D02*
X2006D01*
X1861Y1782D02*
X2006D01*
X1861D02*
Y2002D01*
X2006Y1782D02*
Y2002D01*
X1237Y2375D02*
X1382D01*
X1237Y2595D02*
X1382D01*
Y2375D02*
Y2595D01*
X1237Y2375D02*
Y2595D01*
X2568Y1784D02*
X2713D01*
X2568Y2004D02*
X2713D01*
Y1784D02*
Y2004D01*
X2568Y1784D02*
Y2004D01*
X2485Y1190D02*
X2630D01*
X2485Y1410D02*
X2630D01*
Y1190D02*
Y1410D01*
X2485Y1190D02*
Y1410D01*
X2401Y815D02*
X2546D01*
X2401Y595D02*
X2546D01*
X2401D02*
Y815D01*
X2546Y595D02*
Y815D01*
X1070Y1186D02*
X1215D01*
X1070Y1406D02*
X1215D01*
Y1186D02*
Y1406D01*
X1070Y1186D02*
Y1406D01*
X1694Y814D02*
X1839D01*
X1694Y594D02*
X1839D01*
X1694D02*
Y814D01*
X1839Y594D02*
Y814D01*
X987Y592D02*
X1132D01*
X987Y812D02*
X1132D01*
Y592D02*
Y812D01*
X987Y592D02*
Y812D01*
X1154Y1781D02*
X1299D01*
X1154Y2001D02*
X1299D01*
Y1781D02*
Y2001D01*
X1154Y1781D02*
Y2001D01*
X1321Y2969D02*
X1466D01*
X1321Y3189D02*
X1466D01*
Y2969D02*
Y3189D01*
X1321Y2969D02*
Y3189D01*
X3250Y2648D02*
X3385D01*
X3250Y2868D02*
X3385D01*
Y2648D02*
Y2868D01*
X3250Y2648D02*
Y2868D01*
X5718Y2604D02*
X5853D01*
X5718Y2824D02*
X5853D01*
Y2604D02*
Y2824D01*
X5718Y2604D02*
Y2824D01*
X6877Y2813D02*
X7012D01*
X6877Y2593D02*
X7012D01*
X6877D02*
Y2813D01*
X7012Y2593D02*
Y2813D01*
X9366Y2917D02*
X9501D01*
X9366Y2697D02*
X9501D01*
X9366D02*
Y2917D01*
X9501Y2697D02*
Y2917D01*
D14*
X12000Y3500D02*
D03*
Y300D02*
D03*
X300Y3500D02*
D03*
Y300D02*
D03*
D15*
X6951Y3106D02*
D03*
X6161Y2510D02*
D03*
X8173Y662D02*
D03*
X9434Y3160D02*
D03*
Y2511D02*
D03*
X6841Y1606D02*
D03*
X5785Y3067D02*
D03*
Y2418D02*
D03*
X3317Y3111D02*
D03*
Y2462D02*
D03*
X7967Y994D02*
D03*
X5446Y2459D02*
D03*
X2922Y2460D02*
D03*
X2755Y1272D02*
D03*
X8651Y1907D02*
D03*
X11389Y1270D02*
D03*
X7944Y1906D02*
D03*
X6390Y1266D02*
D03*
X5279Y1270D02*
D03*
X4967Y1920D02*
D03*
X4823Y3051D02*
D03*
X10058Y1861D02*
D03*
X3949Y1861D02*
D03*
X4032Y2456D02*
D03*
X2298Y3053D02*
D03*
X2609Y3110D02*
D03*
X2442Y1922D02*
D03*
X1424Y1863D02*
D03*
X9495Y729D02*
D03*
X9579Y1323D02*
D03*
X9662Y1917D02*
D03*
X9746Y2511D02*
D03*
X9829Y3105D02*
D03*
X10932Y3051D02*
D03*
X10369Y1918D02*
D03*
X10598Y674D02*
D03*
X11300Y700D02*
D03*
X11556Y2459D02*
D03*
X11243Y3108D02*
D03*
X8800Y3100D02*
D03*
X9131Y2446D02*
D03*
X8964Y1258D02*
D03*
X8880Y663D02*
D03*
X8507Y3039D02*
D03*
X7404Y3093D02*
D03*
X7237Y1904D02*
D03*
X7153Y1310D02*
D03*
X7070Y716D02*
D03*
X5994Y1322D02*
D03*
X5200Y700D02*
D03*
X5134Y3109D02*
D03*
X4260Y1919D02*
D03*
X4489Y675D02*
D03*
X3400Y700D02*
D03*
X3469Y1323D02*
D03*
X3553Y1917D02*
D03*
X3636Y2511D02*
D03*
X3720Y3105D02*
D03*
X1735Y1920D02*
D03*
X861Y730D02*
D03*
X945Y1324D02*
D03*
X1028Y1918D02*
D03*
X1112Y2513D02*
D03*
X1195Y3107D02*
D03*
X2672Y678D02*
D03*
X10142Y2455D02*
D03*
X10225Y3049D02*
D03*
X9975Y1267D02*
D03*
X9891Y673D02*
D03*
X7466Y660D02*
D03*
X7549Y1254D02*
D03*
X7633Y1849D02*
D03*
X7716Y2443D02*
D03*
X7800Y3037D02*
D03*
X3800Y700D02*
D03*
X3865Y1267D02*
D03*
X4116Y3050D02*
D03*
X1257Y674D02*
D03*
X1341Y1269D02*
D03*
X1508Y2457D02*
D03*
X1591Y3051D02*
D03*
X3006Y3054D02*
D03*
X2526Y2516D02*
D03*
X2549Y1604D02*
D03*
X1759Y1008D02*
D03*
X1964Y676D02*
D03*
X5530Y3053D02*
D03*
X5050Y2514D02*
D03*
X5074Y1602D02*
D03*
X4300Y1000D02*
D03*
X8758Y1590D02*
D03*
X8734Y2502D02*
D03*
X9214Y3040D02*
D03*
X11160Y2514D02*
D03*
X11183Y1602D02*
D03*
X10400Y1000D02*
D03*
X11639Y3053D02*
D03*
X6557Y2454D02*
D03*
X7320Y2498D02*
D03*
X900Y2400D02*
D03*
X11849Y2651D02*
D03*
X11500Y1900D02*
D03*
M02*
