G04 Layer_Color=32896*
%FSLAX42Y42*%
%MOMM*%
G71*
G01*
G75*
%ADD12C,0.25*%
%ADD13C,0.10*%
%ADD22C,0.20*%
%ADD29C,0.50*%
%ADD30C,0.05*%
D12*
X12275Y2092D02*
Y2150D01*
X12212D02*
X12275D01*
X11680D02*
X11747D01*
X11680Y2090D02*
Y2150D01*
X12275Y1650D02*
Y1702D01*
X12215Y1650D02*
X12275D01*
X11680D02*
X11747D01*
X11680D02*
Y1715D01*
X615Y2285D02*
Y2350D01*
X553D02*
X615D01*
X25D02*
X85D01*
X25Y2290D02*
Y2350D01*
X615Y1449D02*
Y1512D01*
X553Y1449D02*
X615D01*
X25Y1447D02*
X88D01*
X25D02*
Y1507D01*
X12025Y2225D02*
Y2377D01*
X11949D01*
X11923Y2352D01*
Y2301D01*
X11949Y2276D01*
X12025D01*
X11771Y2225D02*
X11873D01*
X11771Y2327D01*
Y2352D01*
X11796Y2377D01*
X11847D01*
X11873Y2352D01*
X600Y2500D02*
Y2652D01*
X524D01*
X498Y2627D01*
Y2576D01*
X524Y2551D01*
X600D01*
X448Y2500D02*
X397D01*
X422D01*
Y2652D01*
X448Y2627D01*
X11314Y2831D02*
X11339Y2857D01*
X11390D01*
X11415Y2831D01*
Y2730D01*
X11390Y2704D01*
X11339D01*
X11314Y2730D01*
X11161Y2857D02*
X11263D01*
Y2781D01*
X11212Y2806D01*
X11187D01*
X11161Y2781D01*
Y2730D01*
X11187Y2704D01*
X11238D01*
X11263Y2730D01*
X11034Y2704D02*
Y2857D01*
X11111Y2781D01*
X11009D01*
X11397Y3427D02*
X11422Y3453D01*
X11473D01*
X11498Y3427D01*
Y3326D01*
X11473Y3300D01*
X11422D01*
X11397Y3326D01*
X11245Y3453D02*
X11346D01*
Y3376D01*
X11295Y3402D01*
X11270D01*
X11245Y3376D01*
Y3326D01*
X11270Y3300D01*
X11321D01*
X11346Y3326D01*
X11194Y3427D02*
X11168Y3453D01*
X11118D01*
X11092Y3427D01*
Y3402D01*
X11118Y3376D01*
X11143D01*
X11118D01*
X11092Y3351D01*
Y3326D01*
X11118Y3300D01*
X11168D01*
X11194Y3326D01*
X10667Y3453D02*
X10693Y3479D01*
X10744D01*
X10769Y3453D01*
Y3352D01*
X10744Y3326D01*
X10693D01*
X10667Y3352D01*
X10515Y3479D02*
X10617D01*
Y3403D01*
X10566Y3428D01*
X10541D01*
X10515Y3403D01*
Y3352D01*
X10541Y3326D01*
X10591D01*
X10617Y3352D01*
X10363Y3326D02*
X10464D01*
X10363Y3428D01*
Y3453D01*
X10388Y3479D01*
X10439D01*
X10464Y3453D01*
X10522Y2237D02*
X10547Y2263D01*
X10598D01*
X10624Y2237D01*
Y2136D01*
X10598Y2110D01*
X10547D01*
X10522Y2136D01*
X10370Y2263D02*
X10471D01*
Y2186D01*
X10420Y2212D01*
X10395D01*
X10370Y2186D01*
Y2136D01*
X10395Y2110D01*
X10446D01*
X10471Y2136D01*
X10319Y2110D02*
X10268D01*
X10294D01*
Y2263D01*
X10319Y2237D01*
X11231Y2237D02*
X11256Y2263D01*
X11307D01*
X11332Y2237D01*
Y2136D01*
X11307Y2110D01*
X11256D01*
X11231Y2136D01*
X11078Y2263D02*
X11180D01*
Y2186D01*
X11129Y2212D01*
X11104D01*
X11078Y2186D01*
Y2136D01*
X11104Y2110D01*
X11155D01*
X11180Y2136D01*
X11028Y2237D02*
X11002Y2263D01*
X10952D01*
X10926Y2237D01*
Y2136D01*
X10952Y2110D01*
X11002D01*
X11028Y2136D01*
Y2237D01*
X11146Y1643D02*
X11172Y1668D01*
X11222D01*
X11248Y1643D01*
Y1541D01*
X11222Y1516D01*
X11172D01*
X11146Y1541D01*
X11019Y1516D02*
Y1668D01*
X11095Y1592D01*
X10994D01*
X10943Y1541D02*
X10918Y1516D01*
X10867D01*
X10841Y1541D01*
Y1643D01*
X10867Y1668D01*
X10918D01*
X10943Y1643D01*
Y1617D01*
X10918Y1592D01*
X10841D01*
X11133Y1015D02*
X11158Y1040D01*
X11209D01*
X11234Y1015D01*
Y913D01*
X11209Y888D01*
X11158D01*
X11133Y913D01*
X11006Y888D02*
Y1040D01*
X11082Y964D01*
X10980D01*
X10929Y1015D02*
X10904Y1040D01*
X10853D01*
X10828Y1015D01*
Y990D01*
X10853Y964D01*
X10828Y939D01*
Y913D01*
X10853Y888D01*
X10904D01*
X10929Y913D01*
Y939D01*
X10904Y964D01*
X10929Y990D01*
Y1015D01*
X10904Y964D02*
X10853D01*
X10356Y1048D02*
X10382Y1074D01*
X10432D01*
X10458Y1048D01*
Y947D01*
X10432Y921D01*
X10382D01*
X10356Y947D01*
X10229Y921D02*
Y1074D01*
X10305Y998D01*
X10204D01*
X10153Y1074D02*
X10051D01*
Y1048D01*
X10153Y947D01*
Y921D01*
X9649Y1046D02*
X9674Y1072D01*
X9725D01*
X9751Y1046D01*
Y945D01*
X9725Y919D01*
X9674D01*
X9649Y945D01*
X9522Y919D02*
Y1072D01*
X9598Y995D01*
X9497D01*
X9344Y1072D02*
X9395Y1046D01*
X9446Y995D01*
Y945D01*
X9421Y919D01*
X9370D01*
X9344Y945D01*
Y970D01*
X9370Y995D01*
X9446D01*
X9733Y1640D02*
X9759Y1666D01*
X9809D01*
X9835Y1640D01*
Y1539D01*
X9809Y1513D01*
X9759D01*
X9733Y1539D01*
X9606Y1513D02*
Y1666D01*
X9682Y1590D01*
X9581D01*
X9429Y1666D02*
X9530D01*
Y1590D01*
X9479Y1615D01*
X9454D01*
X9429Y1590D01*
Y1539D01*
X9454Y1513D01*
X9505D01*
X9530Y1539D01*
X9816Y2234D02*
X9841Y2259D01*
X9892D01*
X9918Y2234D01*
Y2132D01*
X9892Y2107D01*
X9841D01*
X9816Y2132D01*
X9689Y2107D02*
Y2259D01*
X9765Y2183D01*
X9664D01*
X9537Y2107D02*
Y2259D01*
X9613Y2183D01*
X9511D01*
X9899Y2830D02*
X9925Y2855D01*
X9975D01*
X10001Y2830D01*
Y2728D01*
X9975Y2703D01*
X9925D01*
X9899Y2728D01*
X9772Y2703D02*
Y2855D01*
X9848Y2779D01*
X9747D01*
X9696Y2830D02*
X9671Y2855D01*
X9620D01*
X9595Y2830D01*
Y2804D01*
X9620Y2779D01*
X9645D01*
X9620D01*
X9595Y2754D01*
Y2728D01*
X9620Y2703D01*
X9671D01*
X9696Y2728D01*
X9982Y3422D02*
X10007Y3447D01*
X10058D01*
X10083Y3422D01*
Y3320D01*
X10058Y3295D01*
X10007D01*
X9982Y3320D01*
X9855Y3295D02*
Y3447D01*
X9931Y3371D01*
X9829D01*
X9677Y3295D02*
X9779D01*
X9677Y3397D01*
Y3422D01*
X9703Y3447D01*
X9753D01*
X9779Y3422D01*
X8888Y2819D02*
X8913Y2844D01*
X8964D01*
X8990Y2819D01*
Y2717D01*
X8964Y2692D01*
X8913D01*
X8888Y2717D01*
X8761Y2692D02*
Y2844D01*
X8837Y2768D01*
X8736D01*
X8685Y2692D02*
X8634D01*
X8660D01*
Y2844D01*
X8685Y2819D01*
X8972Y3415D02*
X8997Y3440D01*
X9048D01*
X9073Y3415D01*
Y3313D01*
X9048Y3288D01*
X8997D01*
X8972Y3313D01*
X8845Y3288D02*
Y3440D01*
X8921Y3364D01*
X8819D01*
X8768Y3415D02*
X8743Y3440D01*
X8692D01*
X8667Y3415D01*
Y3313D01*
X8692Y3288D01*
X8743D01*
X8768Y3313D01*
Y3415D01*
X8263Y3413D02*
X8289Y3438D01*
X8339D01*
X8365Y3413D01*
Y3312D01*
X8339Y3286D01*
X8289D01*
X8263Y3312D01*
X8212Y3413D02*
X8187Y3438D01*
X8136D01*
X8111Y3413D01*
Y3388D01*
X8136Y3362D01*
X8162D01*
X8136D01*
X8111Y3337D01*
Y3312D01*
X8136Y3286D01*
X8187D01*
X8212Y3312D01*
X8060D02*
X8035Y3286D01*
X7984D01*
X7959Y3312D01*
Y3413D01*
X7984Y3438D01*
X8035D01*
X8060Y3413D01*
Y3388D01*
X8035Y3362D01*
X7959D01*
X8096Y2223D02*
X8122Y2248D01*
X8172D01*
X8198Y2223D01*
Y2121D01*
X8172Y2096D01*
X8122D01*
X8096Y2121D01*
X8045Y2223D02*
X8020Y2248D01*
X7969D01*
X7944Y2223D01*
Y2197D01*
X7969Y2172D01*
X7995D01*
X7969D01*
X7944Y2147D01*
Y2121D01*
X7969Y2096D01*
X8020D01*
X8045Y2121D01*
X7893Y2223D02*
X7868Y2248D01*
X7817D01*
X7791Y2223D01*
Y2197D01*
X7817Y2172D01*
X7791Y2147D01*
Y2121D01*
X7817Y2096D01*
X7868D01*
X7893Y2121D01*
Y2147D01*
X7868Y2172D01*
X7893Y2197D01*
Y2223D01*
X7868Y2172D02*
X7817D01*
X8775Y2205D02*
X8801Y2230D01*
X8851D01*
X8877Y2205D01*
Y2103D01*
X8851Y2078D01*
X8801D01*
X8775Y2103D01*
X8724Y2205D02*
X8699Y2230D01*
X8648D01*
X8623Y2205D01*
Y2179D01*
X8648Y2154D01*
X8674D01*
X8648D01*
X8623Y2128D01*
Y2103D01*
X8648Y2078D01*
X8699D01*
X8724Y2103D01*
X8572Y2230D02*
X8471D01*
Y2205D01*
X8572Y2103D01*
Y2078D01*
X8721Y1632D02*
X8746Y1658D01*
X8797D01*
X8823Y1632D01*
Y1531D01*
X8797Y1505D01*
X8746D01*
X8721Y1531D01*
X8670Y1632D02*
X8645Y1658D01*
X8594D01*
X8569Y1632D01*
Y1607D01*
X8594Y1581D01*
X8619D01*
X8594D01*
X8569Y1556D01*
Y1531D01*
X8594Y1505D01*
X8645D01*
X8670Y1531D01*
X8416Y1658D02*
X8467Y1632D01*
X8518Y1581D01*
Y1531D01*
X8493Y1505D01*
X8442D01*
X8416Y1531D01*
Y1556D01*
X8442Y1581D01*
X8518D01*
X8637Y1038D02*
X8662Y1064D01*
X8713D01*
X8738Y1038D01*
Y937D01*
X8713Y911D01*
X8662D01*
X8637Y937D01*
X8586Y1038D02*
X8560Y1064D01*
X8510D01*
X8484Y1038D01*
Y1013D01*
X8510Y987D01*
X8535D01*
X8510D01*
X8484Y962D01*
Y937D01*
X8510Y911D01*
X8560D01*
X8586Y937D01*
X8332Y1064D02*
X8433D01*
Y987D01*
X8383Y1013D01*
X8357D01*
X8332Y987D01*
Y937D01*
X8357Y911D01*
X8408D01*
X8433Y937D01*
X7929Y1035D02*
X7955Y1060D01*
X8005D01*
X8031Y1035D01*
Y933D01*
X8005Y908D01*
X7955D01*
X7929Y933D01*
X7878Y1035D02*
X7853Y1060D01*
X7802D01*
X7777Y1035D01*
Y1010D01*
X7802Y984D01*
X7828D01*
X7802D01*
X7777Y959D01*
Y933D01*
X7802Y908D01*
X7853D01*
X7878Y933D01*
X7650Y908D02*
Y1060D01*
X7726Y984D01*
X7625D01*
X7224Y1034D02*
X7250Y1059D01*
X7301D01*
X7326Y1034D01*
Y932D01*
X7301Y907D01*
X7250D01*
X7224Y932D01*
X7174Y1034D02*
X7148Y1059D01*
X7098D01*
X7072Y1034D01*
Y1008D01*
X7098Y983D01*
X7123D01*
X7098D01*
X7072Y958D01*
Y932D01*
X7098Y907D01*
X7148D01*
X7174Y932D01*
X7021Y1034D02*
X6996Y1059D01*
X6945D01*
X6920Y1034D01*
Y1008D01*
X6945Y983D01*
X6971D01*
X6945D01*
X6920Y958D01*
Y932D01*
X6945Y907D01*
X6996D01*
X7021Y932D01*
X7308Y1628D02*
X7333Y1653D01*
X7384D01*
X7410Y1628D01*
Y1526D01*
X7384Y1501D01*
X7333D01*
X7308Y1526D01*
X7257Y1628D02*
X7232Y1653D01*
X7181D01*
X7156Y1628D01*
Y1602D01*
X7181Y1577D01*
X7206D01*
X7181D01*
X7156Y1551D01*
Y1526D01*
X7181Y1501D01*
X7232D01*
X7257Y1526D01*
X7003Y1501D02*
X7105D01*
X7003Y1602D01*
Y1628D01*
X7029Y1653D01*
X7079D01*
X7105Y1628D01*
X7389Y2221D02*
X7415Y2247D01*
X7466D01*
X7491Y2221D01*
Y2120D01*
X7466Y2094D01*
X7415D01*
X7389Y2120D01*
X7339Y2221D02*
X7313Y2247D01*
X7262D01*
X7237Y2221D01*
Y2196D01*
X7262Y2170D01*
X7288D01*
X7262D01*
X7237Y2145D01*
Y2120D01*
X7262Y2094D01*
X7313D01*
X7339Y2120D01*
X7186Y2094D02*
X7135D01*
X7161D01*
Y2247D01*
X7186Y2221D01*
X7474Y2817D02*
X7499Y2843D01*
X7550D01*
X7575Y2817D01*
Y2716D01*
X7550Y2690D01*
X7499D01*
X7474Y2716D01*
X7423Y2817D02*
X7398Y2843D01*
X7347D01*
X7322Y2817D01*
Y2792D01*
X7347Y2766D01*
X7372D01*
X7347D01*
X7322Y2741D01*
Y2716D01*
X7347Y2690D01*
X7398D01*
X7423Y2716D01*
X7271Y2817D02*
X7245Y2843D01*
X7195D01*
X7169Y2817D01*
Y2716D01*
X7195Y2690D01*
X7245D01*
X7271Y2716D01*
Y2817D01*
X7557Y3411D02*
X7583Y3437D01*
X7634D01*
X7659Y3411D01*
Y3310D01*
X7634Y3284D01*
X7583D01*
X7557Y3310D01*
X7405Y3284D02*
X7507D01*
X7405Y3386D01*
Y3411D01*
X7430Y3437D01*
X7481D01*
X7507Y3411D01*
X7354Y3310D02*
X7329Y3284D01*
X7278D01*
X7253Y3310D01*
Y3411D01*
X7278Y3437D01*
X7329D01*
X7354Y3411D01*
Y3386D01*
X7329Y3361D01*
X7253D01*
X6147Y1640D02*
X6173Y1666D01*
X6224D01*
X6249Y1640D01*
Y1539D01*
X6224Y1513D01*
X6173D01*
X6147Y1539D01*
X5995Y1513D02*
X6097D01*
X5995Y1615D01*
Y1640D01*
X6020Y1666D01*
X6071D01*
X6097Y1640D01*
X5944D02*
X5919Y1666D01*
X5868D01*
X5843Y1640D01*
Y1615D01*
X5868Y1589D01*
X5843Y1564D01*
Y1539D01*
X5868Y1513D01*
X5919D01*
X5944Y1539D01*
Y1564D01*
X5919Y1589D01*
X5944Y1615D01*
Y1640D01*
X5919Y1589D02*
X5868D01*
X6306Y2859D02*
X6332Y2884D01*
X6382D01*
X6408Y2859D01*
Y2757D01*
X6382Y2732D01*
X6332D01*
X6306Y2757D01*
X6154Y2732D02*
X6255D01*
X6154Y2833D01*
Y2859D01*
X6179Y2884D01*
X6230D01*
X6255Y2859D01*
X6103Y2884D02*
X6002D01*
Y2859D01*
X6103Y2757D01*
Y2732D01*
X5204Y2833D02*
X5229Y2859D01*
X5280D01*
X5306Y2833D01*
Y2732D01*
X5280Y2706D01*
X5229D01*
X5204Y2732D01*
X5052Y2706D02*
X5153D01*
X5052Y2808D01*
Y2833D01*
X5077Y2859D01*
X5128D01*
X5153Y2833D01*
X4899Y2859D02*
X4950Y2833D01*
X5001Y2783D01*
Y2732D01*
X4975Y2706D01*
X4925D01*
X4899Y2732D01*
Y2757D01*
X4925Y2783D01*
X5001D01*
X5216Y3462D02*
X5241Y3488D01*
X5292D01*
X5317Y3462D01*
Y3361D01*
X5292Y3335D01*
X5241D01*
X5216Y3361D01*
X5063Y3335D02*
X5165D01*
X5063Y3437D01*
Y3462D01*
X5089Y3488D01*
X5139D01*
X5165Y3462D01*
X4911Y3488D02*
X5013D01*
Y3412D01*
X4962Y3437D01*
X4936D01*
X4911Y3412D01*
Y3361D01*
X4936Y3335D01*
X4987D01*
X5013Y3361D01*
X4558Y3454D02*
X4583Y3479D01*
X4634D01*
X4660Y3454D01*
Y3352D01*
X4634Y3327D01*
X4583D01*
X4558Y3352D01*
X4406Y3327D02*
X4507D01*
X4406Y3428D01*
Y3454D01*
X4431Y3479D01*
X4482D01*
X4507Y3454D01*
X4279Y3327D02*
Y3479D01*
X4355Y3403D01*
X4253D01*
X4441Y2258D02*
X4466Y2284D01*
X4517D01*
X4542Y2258D01*
Y2157D01*
X4517Y2131D01*
X4466D01*
X4441Y2157D01*
X4288Y2131D02*
X4390D01*
X4288Y2233D01*
Y2258D01*
X4314Y2284D01*
X4364D01*
X4390Y2258D01*
X4237D02*
X4212Y2284D01*
X4161D01*
X4136Y2258D01*
Y2233D01*
X4161Y2208D01*
X4187D01*
X4161D01*
X4136Y2182D01*
Y2157D01*
X4161Y2131D01*
X4212D01*
X4237Y2157D01*
X5098Y2267D02*
X5124Y2292D01*
X5174D01*
X5200Y2267D01*
Y2165D01*
X5174Y2140D01*
X5124D01*
X5098Y2165D01*
X4946Y2140D02*
X5047D01*
X4946Y2242D01*
Y2267D01*
X4971Y2292D01*
X5022D01*
X5047Y2267D01*
X4793Y2140D02*
X4895D01*
X4793Y2242D01*
Y2267D01*
X4819Y2292D01*
X4870D01*
X4895Y2267D01*
X5036Y1644D02*
X5061Y1669D01*
X5112D01*
X5137Y1644D01*
Y1542D01*
X5112Y1517D01*
X5061D01*
X5036Y1542D01*
X4883Y1517D02*
X4985D01*
X4883Y1618D01*
Y1644D01*
X4909Y1669D01*
X4960D01*
X4985Y1644D01*
X4833Y1517D02*
X4782D01*
X4807D01*
Y1669D01*
X4833Y1644D01*
X4954Y1051D02*
X4979Y1076D01*
X5030D01*
X5055Y1051D01*
Y949D01*
X5030Y924D01*
X4979D01*
X4954Y949D01*
X4801Y924D02*
X4903D01*
X4801Y1026D01*
Y1051D01*
X4827Y1076D01*
X4877D01*
X4903Y1051D01*
X4750D02*
X4725Y1076D01*
X4674D01*
X4649Y1051D01*
Y949D01*
X4674Y924D01*
X4725D01*
X4750Y949D01*
Y1051D01*
X4247Y1048D02*
X4273Y1074D01*
X4324D01*
X4349Y1048D01*
Y947D01*
X4324Y921D01*
X4273D01*
X4247Y947D01*
X4197Y921D02*
X4146D01*
X4171D01*
Y1074D01*
X4197Y1048D01*
X4070Y947D02*
X4044Y921D01*
X3994D01*
X3968Y947D01*
Y1048D01*
X3994Y1074D01*
X4044D01*
X4070Y1048D01*
Y1023D01*
X4044Y998D01*
X3968D01*
X3540Y1046D02*
X3565Y1072D01*
X3616D01*
X3642Y1046D01*
Y945D01*
X3616Y919D01*
X3565D01*
X3540Y945D01*
X3489Y919D02*
X3439D01*
X3464D01*
Y1072D01*
X3489Y1046D01*
X3362D02*
X3337Y1072D01*
X3286D01*
X3261Y1046D01*
Y1021D01*
X3286Y996D01*
X3261Y970D01*
Y945D01*
X3286Y919D01*
X3337D01*
X3362Y945D01*
Y970D01*
X3337Y996D01*
X3362Y1021D01*
Y1046D01*
X3337Y996D02*
X3286D01*
X3623Y1642D02*
X3648Y1667D01*
X3699D01*
X3724Y1642D01*
Y1540D01*
X3699Y1515D01*
X3648D01*
X3623Y1540D01*
X3572Y1515D02*
X3521D01*
X3547D01*
Y1667D01*
X3572Y1642D01*
X3445Y1667D02*
X3343D01*
Y1642D01*
X3445Y1540D01*
Y1515D01*
X3707Y2234D02*
X3733Y2259D01*
X3783D01*
X3809Y2234D01*
Y2132D01*
X3783Y2107D01*
X3733D01*
X3707Y2132D01*
X3656Y2107D02*
X3606D01*
X3631D01*
Y2259D01*
X3656Y2234D01*
X3428Y2259D02*
X3479Y2234D01*
X3529Y2183D01*
Y2132D01*
X3504Y2107D01*
X3453D01*
X3428Y2132D01*
Y2158D01*
X3453Y2183D01*
X3529D01*
X3791Y2828D02*
X3816Y2854D01*
X3867D01*
X3892Y2828D01*
Y2727D01*
X3867Y2701D01*
X3816D01*
X3791Y2727D01*
X3740Y2701D02*
X3689D01*
X3714D01*
Y2854D01*
X3740Y2828D01*
X3511Y2854D02*
X3613D01*
Y2777D01*
X3562Y2803D01*
X3537D01*
X3511Y2777D01*
Y2727D01*
X3537Y2701D01*
X3588D01*
X3613Y2727D01*
X3873Y3424D02*
X3899Y3450D01*
X3949D01*
X3975Y3424D01*
Y3323D01*
X3949Y3297D01*
X3899D01*
X3873Y3323D01*
X3823Y3297D02*
X3772D01*
X3797D01*
Y3450D01*
X3823Y3424D01*
X3619Y3297D02*
Y3450D01*
X3696Y3373D01*
X3594D01*
X2680Y2835D02*
X2705Y2860D01*
X2756D01*
X2781Y2835D01*
Y2733D01*
X2756Y2708D01*
X2705D01*
X2680Y2733D01*
X2629Y2708D02*
X2578D01*
X2603D01*
Y2860D01*
X2629Y2835D01*
X2502D02*
X2476Y2860D01*
X2426D01*
X2400Y2835D01*
Y2809D01*
X2426Y2784D01*
X2451D01*
X2426D01*
X2400Y2758D01*
Y2733D01*
X2426Y2708D01*
X2476D01*
X2502Y2733D01*
X2762Y3427D02*
X2788Y3453D01*
X2839D01*
X2864Y3427D01*
Y3326D01*
X2839Y3300D01*
X2788D01*
X2762Y3326D01*
X2712Y3300D02*
X2661D01*
X2686D01*
Y3453D01*
X2712Y3427D01*
X2483Y3300D02*
X2585D01*
X2483Y3402D01*
Y3427D01*
X2509Y3453D01*
X2559D01*
X2585Y3427D01*
X2055Y3426D02*
X2081Y3451D01*
X2132D01*
X2157Y3426D01*
Y3324D01*
X2132Y3299D01*
X2081D01*
X2055Y3324D01*
X2005Y3299D02*
X1954D01*
X1979D01*
Y3451D01*
X2005Y3426D01*
X1878Y3299D02*
X1827D01*
X1852D01*
Y3451D01*
X1878Y3426D01*
X1889Y2237D02*
X1915Y2262D01*
X1965D01*
X1991Y2237D01*
Y2135D01*
X1965Y2110D01*
X1915D01*
X1889Y2135D01*
X1838Y2110D02*
X1788D01*
X1813D01*
Y2262D01*
X1838Y2237D01*
X1711D02*
X1686Y2262D01*
X1635D01*
X1610Y2237D01*
Y2135D01*
X1635Y2110D01*
X1686D01*
X1711Y2135D01*
Y2237D01*
X2595Y2240D02*
X2620Y2266D01*
X2671D01*
X2696Y2240D01*
Y2139D01*
X2671Y2113D01*
X2620D01*
X2595Y2139D01*
X2544D02*
X2519Y2113D01*
X2468D01*
X2443Y2139D01*
Y2240D01*
X2468Y2266D01*
X2519D01*
X2544Y2240D01*
Y2215D01*
X2519Y2190D01*
X2443D01*
X2512Y1646D02*
X2538Y1671D01*
X2588D01*
X2614Y1646D01*
Y1544D01*
X2588Y1519D01*
X2538D01*
X2512Y1544D01*
X2462Y1646D02*
X2436Y1671D01*
X2385D01*
X2360Y1646D01*
Y1620D01*
X2385Y1595D01*
X2360Y1569D01*
Y1544D01*
X2385Y1519D01*
X2436D01*
X2462Y1544D01*
Y1569D01*
X2436Y1595D01*
X2462Y1620D01*
Y1646D01*
X2436Y1595D02*
X2385D01*
X2429Y1051D02*
X2454Y1076D01*
X2505D01*
X2530Y1051D01*
Y949D01*
X2505Y924D01*
X2454D01*
X2429Y949D01*
X2378Y1076D02*
X2277D01*
Y1051D01*
X2378Y949D01*
Y924D01*
X1723Y1048D02*
X1748Y1074D01*
X1799D01*
X1824Y1048D01*
Y947D01*
X1799Y921D01*
X1748D01*
X1723Y947D01*
X1570Y1074D02*
X1621Y1048D01*
X1672Y998D01*
Y947D01*
X1647Y921D01*
X1596D01*
X1570Y947D01*
Y972D01*
X1596Y998D01*
X1672D01*
X1016Y1047D02*
X1041Y1073D01*
X1092D01*
X1117Y1047D01*
Y946D01*
X1092Y920D01*
X1041D01*
X1016Y946D01*
X864Y1073D02*
X965D01*
Y996D01*
X914Y1022D01*
X889D01*
X864Y996D01*
Y946D01*
X889Y920D01*
X940D01*
X965Y946D01*
X1099Y1641D02*
X1125Y1667D01*
X1176D01*
X1201Y1641D01*
Y1540D01*
X1176Y1514D01*
X1125D01*
X1099Y1540D01*
X972Y1514D02*
Y1667D01*
X1049Y1591D01*
X947D01*
X1182Y2237D02*
X1207Y2262D01*
X1258D01*
X1284Y2237D01*
Y2135D01*
X1258Y2110D01*
X1207D01*
X1182Y2135D01*
X1131Y2237D02*
X1106Y2262D01*
X1055D01*
X1030Y2237D01*
Y2211D01*
X1055Y2186D01*
X1080D01*
X1055D01*
X1030Y2160D01*
Y2135D01*
X1055Y2110D01*
X1106D01*
X1131Y2135D01*
X1266Y2832D02*
X1291Y2857D01*
X1342D01*
X1368Y2832D01*
Y2730D01*
X1342Y2705D01*
X1291D01*
X1266Y2730D01*
X1114Y2705D02*
X1215D01*
X1114Y2806D01*
Y2832D01*
X1139Y2857D01*
X1190D01*
X1215Y2832D01*
X1350Y3425D02*
X1375Y3451D01*
X1426D01*
X1451Y3425D01*
Y3324D01*
X1426Y3298D01*
X1375D01*
X1350Y3324D01*
X1299Y3298D02*
X1248D01*
X1274D01*
Y3451D01*
X1299Y3425D01*
X3389Y3012D02*
Y3164D01*
X3313D01*
X3287Y3139D01*
Y3088D01*
X3313Y3063D01*
X3389D01*
X3338D02*
X3287Y3012D01*
X3237D02*
X3186D01*
X3211D01*
Y3164D01*
X3237Y3139D01*
X5857Y2967D02*
Y3119D01*
X5781D01*
X5756Y3094D01*
Y3043D01*
X5781Y3018D01*
X5857D01*
X5806D02*
X5756Y2967D01*
X5603D02*
X5705D01*
X5603Y3068D01*
Y3094D01*
X5629Y3119D01*
X5679D01*
X5705Y3094D01*
X7016Y2955D02*
Y3108D01*
X6940D01*
X6915Y3082D01*
Y3031D01*
X6940Y3006D01*
X7016D01*
X6966D02*
X6915Y2955D01*
X6864Y3082D02*
X6839Y3108D01*
X6788D01*
X6763Y3082D01*
Y3057D01*
X6788Y3031D01*
X6813D01*
X6788D01*
X6763Y3006D01*
Y2981D01*
X6788Y2955D01*
X6839D01*
X6864Y2981D01*
X9506Y3061D02*
Y3214D01*
X9430D01*
X9404Y3188D01*
Y3138D01*
X9430Y3112D01*
X9506D01*
X9455D02*
X9404Y3061D01*
X9278D02*
Y3214D01*
X9354Y3138D01*
X9252D01*
X12100Y0D02*
G03*
X12300Y200I0J200D01*
G01*
Y3600D02*
G03*
X12100Y3800I-200J-0D01*
G01*
X0Y200D02*
G03*
X200Y0I200J0D01*
G01*
X200Y3800D02*
G03*
X0Y3600I0J-200D01*
G01*
X12300Y200D02*
Y3600D01*
X200Y3794D02*
X12100Y3800D01*
X0Y200D02*
Y3600D01*
X200Y0D02*
X12100D01*
D13*
X5259Y2971D02*
X5404D01*
X5259Y3191D02*
X5404D01*
Y2971D02*
Y3191D01*
X5259Y2971D02*
Y3191D01*
X11608Y2236D02*
Y2736D01*
X11108Y2236D02*
Y2736D01*
X11608D01*
X11108Y2236D02*
X11608D01*
X11191Y2831D02*
Y3331D01*
X11691Y2831D02*
Y3331D01*
X11191Y2831D02*
X11691D01*
X11191Y3331D02*
X11691D01*
X10984Y2829D02*
Y3329D01*
X10484Y2829D02*
Y3329D01*
X10984D01*
X10484Y2829D02*
X10984D01*
X10317Y1641D02*
Y2141D01*
X10817Y1641D02*
Y2141D01*
X10317Y1641D02*
X10817D01*
X10317Y2141D02*
X10817D01*
X11024Y1642D02*
Y2142D01*
X11524Y1642D02*
Y2142D01*
X11024Y1642D02*
X11524D01*
X11024Y2142D02*
X11524D01*
X11441Y1048D02*
Y1548D01*
X10941Y1048D02*
Y1548D01*
X11441D01*
X10941Y1048D02*
X11441D01*
X11350Y450D02*
Y950D01*
X10850Y450D02*
Y950D01*
X11350D01*
X10850Y450D02*
X11350D01*
X10650D02*
Y950D01*
X10150Y450D02*
Y950D01*
X10650D01*
X10150Y450D02*
X10650D01*
X9450Y450D02*
Y950D01*
X9950Y450D02*
Y950D01*
X9450Y450D02*
X9950D01*
X9450Y950D02*
X9950D01*
X9527Y1045D02*
Y1545D01*
X10027Y1045D02*
Y1545D01*
X9527Y1045D02*
X10027D01*
X9527Y1545D02*
X10027D01*
X9610Y1639D02*
Y2139D01*
X10110Y1639D02*
Y2139D01*
X9610Y1639D02*
X10110D01*
X9610Y2139D02*
X10110D01*
X9694Y2233D02*
Y2733D01*
X10194Y2233D02*
Y2733D01*
X9694Y2233D02*
X10194D01*
X9694Y2733D02*
X10194D01*
X9777Y2827D02*
Y3327D01*
X10277Y2827D02*
Y3327D01*
X9777Y2827D02*
X10277D01*
X9777Y3327D02*
X10277D01*
X8559Y2816D02*
Y3316D01*
X8059Y2816D02*
Y3316D01*
X8559D01*
X8059Y2816D02*
X8559D01*
X8766Y2818D02*
Y3318D01*
X9266Y2818D02*
Y3318D01*
X8766Y2818D02*
X9266D01*
X8766Y3318D02*
X9266D01*
X9182Y2224D02*
Y2724D01*
X8682Y2224D02*
Y2724D01*
X9182D01*
X8682Y2224D02*
X9182D01*
X8599Y1630D02*
Y2130D01*
X9099Y1630D02*
Y2130D01*
X8599Y1630D02*
X9099D01*
X8599Y2130D02*
X9099D01*
X7892Y1628D02*
Y2128D01*
X8392Y1628D02*
Y2128D01*
X7892Y1628D02*
X8392D01*
X7892Y2128D02*
X8392D01*
X9015Y1035D02*
Y1535D01*
X8515Y1035D02*
Y1535D01*
X9015D01*
X8515Y1035D02*
X9015D01*
X8932Y441D02*
Y941D01*
X8432Y441D02*
Y941D01*
X8932D01*
X8432Y441D02*
X8932D01*
X8225Y440D02*
Y940D01*
X7725Y440D02*
Y940D01*
X8225D01*
X7725Y440D02*
X8225D01*
X7018Y438D02*
Y938D01*
X7518Y438D02*
Y938D01*
X7018Y438D02*
X7518D01*
X7018Y938D02*
X7518D01*
X7101Y1032D02*
Y1532D01*
X7601Y1032D02*
Y1532D01*
X7101Y1032D02*
X7601D01*
X7101Y1532D02*
X7601D01*
X7185Y1626D02*
Y2126D01*
X7685Y1626D02*
Y2126D01*
X7185Y1626D02*
X7685D01*
X7185Y2126D02*
X7685D01*
X7268Y2221D02*
Y2721D01*
X7768Y2221D02*
Y2721D01*
X7268Y2221D02*
X7768D01*
X7268Y2721D02*
X7768D01*
X7352Y2815D02*
Y3315D01*
X7852Y2815D02*
Y3315D01*
X7352Y2815D02*
X7852D01*
X7352Y3315D02*
X7852D01*
X6442Y1044D02*
Y1544D01*
X5942Y1044D02*
Y1544D01*
X6442D01*
X5942Y1044D02*
X6442D01*
X6109Y2232D02*
Y2732D01*
X6609Y2232D02*
Y2732D01*
X6109Y2232D02*
X6609D01*
X6109Y2732D02*
X6609D01*
X5498Y2237D02*
Y2737D01*
X4998Y2237D02*
Y2737D01*
X5498D01*
X4998Y2237D02*
X5498D01*
X5082Y2831D02*
Y3331D01*
X5582Y2831D02*
Y3331D01*
X5082Y2831D02*
X5582D01*
X5082Y3331D02*
X5582D01*
X4875Y2829D02*
Y3329D01*
X4375Y2829D02*
Y3329D01*
X4875D01*
X4375Y2829D02*
X4875D01*
X4915Y1642D02*
Y2142D01*
X5415Y1642D02*
Y2142D01*
X4915Y1642D02*
X5415D01*
X4915Y2142D02*
X5415D01*
X4208Y1641D02*
Y2141D01*
X4708Y1641D02*
Y2141D01*
X4208Y1641D02*
X4708D01*
X4208Y2141D02*
X4708D01*
X5331Y1048D02*
Y1548D01*
X4831Y1048D02*
Y1548D01*
X5331D01*
X4831Y1048D02*
X5331D01*
X5250Y450D02*
Y950D01*
X4750Y450D02*
Y950D01*
X5250D01*
X4750Y450D02*
X5250D01*
X4541Y453D02*
Y953D01*
X4041Y453D02*
Y953D01*
X4541D01*
X4041Y453D02*
X4541D01*
X3334Y451D02*
Y951D01*
X3834Y451D02*
Y951D01*
X3334Y451D02*
X3834D01*
X3334Y951D02*
X3834D01*
X3417Y1045D02*
Y1545D01*
X3917Y1045D02*
Y1545D01*
X3417Y1045D02*
X3917D01*
X3417Y1545D02*
X3917D01*
X3501Y1639D02*
Y2139D01*
X4001Y1639D02*
Y2139D01*
X3501Y1639D02*
X4001D01*
X3501Y2139D02*
X4001D01*
X3584Y2233D02*
Y2733D01*
X4084Y2233D02*
Y2733D01*
X3584Y2233D02*
X4084D01*
X3584Y2733D02*
X4084D01*
X3668Y2828D02*
Y3328D01*
X4168Y2828D02*
Y3328D01*
X3668Y2828D02*
X4168D01*
X3668Y3328D02*
X4168D01*
X2974Y2238D02*
Y2738D01*
X2474Y2238D02*
Y2738D01*
X2974D01*
X2474Y2238D02*
X2974D01*
X2558Y2832D02*
Y3332D01*
X3058Y2832D02*
Y3332D01*
X2558Y2832D02*
X3058D01*
X2558Y3332D02*
X3058D01*
X2350Y2831D02*
Y3331D01*
X1850Y2831D02*
Y3331D01*
X2350D01*
X1850Y2831D02*
X2350D01*
X1683Y1642D02*
Y2142D01*
X2183Y1642D02*
Y2142D01*
X1683Y1642D02*
X2183D01*
X1683Y2142D02*
X2183D01*
X2391Y1644D02*
Y2144D01*
X2891Y1644D02*
Y2144D01*
X2391Y1644D02*
X2891D01*
X2391Y2144D02*
X2891D01*
X2807Y1050D02*
Y1550D01*
X2307Y1050D02*
Y1550D01*
X2807D01*
X2307Y1050D02*
X2807D01*
X2724Y455D02*
Y955D01*
X2224Y455D02*
Y955D01*
X2724D01*
X2224Y455D02*
X2724D01*
X2016Y454D02*
Y954D01*
X1516Y454D02*
Y954D01*
X2016D01*
X1516Y454D02*
X2016D01*
X809Y452D02*
Y952D01*
X1309Y452D02*
Y952D01*
X809Y452D02*
X1309D01*
X809Y952D02*
X1309D01*
X893Y1046D02*
Y1546D01*
X1393Y1046D02*
Y1546D01*
X893Y1046D02*
X1393D01*
X893Y1546D02*
X1393D01*
X976Y1641D02*
Y2141D01*
X1476Y1641D02*
Y2141D01*
X976Y1641D02*
X1476D01*
X976Y2141D02*
X1476D01*
X1060Y2235D02*
Y2735D01*
X1560Y2235D02*
Y2735D01*
X1060Y2235D02*
X1560D01*
X1060Y2735D02*
X1560D01*
X1143Y2829D02*
Y3329D01*
X1643Y2829D02*
Y3329D01*
X1143Y2829D02*
X1643D01*
X1143Y3329D02*
X1643D01*
X10495Y2001D02*
X10640D01*
X10495Y1781D02*
X10640D01*
X10495D02*
Y2001D01*
X10640Y1781D02*
Y2001D01*
X11202Y1782D02*
X11347D01*
X11202Y2002D02*
X11347D01*
Y1782D02*
Y2002D01*
X11202Y1782D02*
Y2002D01*
X11118Y1408D02*
X11263D01*
X11118Y1188D02*
X11263D01*
X11118D02*
Y1408D01*
X11263Y1188D02*
Y1408D01*
X11369Y2971D02*
X11514D01*
X11369Y3191D02*
X11514D01*
Y2971D02*
Y3191D01*
X11369Y2971D02*
Y3191D01*
X10662Y3189D02*
X10807D01*
X10662Y2969D02*
X10807D01*
X10662D02*
Y3189D01*
X10807Y2969D02*
Y3189D01*
X11285Y2596D02*
X11430D01*
X11285Y2376D02*
X11430D01*
X11285D02*
Y2596D01*
X11430Y2376D02*
Y2596D01*
X9871Y2373D02*
X10016D01*
X9871Y2593D02*
X10016D01*
Y2373D02*
Y2593D01*
X9871Y2373D02*
Y2593D01*
X9788Y1779D02*
X9933D01*
X9788Y1999D02*
X9933D01*
Y1779D02*
Y1999D01*
X9788Y1779D02*
Y1999D01*
X9704Y1185D02*
X9849D01*
X9704Y1405D02*
X9849D01*
Y1185D02*
Y1405D01*
X9704Y1185D02*
Y1405D01*
X9621Y591D02*
X9766D01*
X9621Y811D02*
X9766D01*
Y591D02*
Y811D01*
X9621Y591D02*
Y811D01*
X10328Y812D02*
X10473D01*
X10328Y592D02*
X10473D01*
X10328D02*
Y812D01*
X10473Y592D02*
Y812D01*
X8860Y2584D02*
X9005D01*
X8860Y2364D02*
X9005D01*
X8860D02*
Y2584D01*
X9005Y2364D02*
Y2584D01*
X8943Y2958D02*
X9088D01*
X8943Y3178D02*
X9088D01*
Y2958D02*
Y3178D01*
X8943Y2958D02*
Y3178D01*
X9955Y2967D02*
X10100D01*
X9955Y3187D02*
X10100D01*
Y2967D02*
Y3187D01*
X9955Y2967D02*
Y3187D01*
X8236Y3176D02*
X8381D01*
X8236Y2956D02*
X8381D01*
X8236D02*
Y3176D01*
X8381Y2956D02*
Y3176D01*
X8069Y1988D02*
X8214D01*
X8069Y1768D02*
X8214D01*
X8069D02*
Y1988D01*
X8214Y1768D02*
Y1988D01*
X8776Y1770D02*
X8921D01*
X8776Y1990D02*
X8921D01*
Y1770D02*
Y1990D01*
X8776Y1770D02*
Y1990D01*
X8693Y1175D02*
X8838D01*
X8693Y1395D02*
X8838D01*
Y1175D02*
Y1395D01*
X8693Y1175D02*
Y1395D01*
X11035Y814D02*
X11180D01*
X11035Y594D02*
X11180D01*
X11035D02*
Y814D01*
X11180Y594D02*
Y814D01*
X8609Y801D02*
X8754D01*
X8609Y581D02*
X8754D01*
X8609D02*
Y801D01*
X8754Y581D02*
Y801D01*
X7902Y800D02*
X8047D01*
X7902Y580D02*
X8047D01*
X7902D02*
Y800D01*
X8047Y580D02*
Y800D01*
X7195Y578D02*
X7340D01*
X7195Y798D02*
X7340D01*
Y578D02*
Y798D01*
X7195Y578D02*
Y798D01*
X7279Y1172D02*
X7424D01*
X7279Y1392D02*
X7424D01*
Y1172D02*
Y1392D01*
X7279Y1172D02*
Y1392D01*
X7362Y1766D02*
X7507D01*
X7362Y1986D02*
X7507D01*
Y1766D02*
Y1986D01*
X7362Y1766D02*
Y1986D01*
X7446Y2361D02*
X7591D01*
X7446Y2581D02*
X7591D01*
Y2361D02*
Y2581D01*
X7446Y2361D02*
Y2581D01*
X7529Y2955D02*
X7674D01*
X7529Y3175D02*
X7674D01*
Y2955D02*
Y3175D01*
X7529Y2955D02*
Y3175D01*
X6119Y1404D02*
X6264D01*
X6119Y1184D02*
X6264D01*
X6119D02*
Y1404D01*
X6264Y1184D02*
Y1404D01*
X6279Y2403D02*
X6424D01*
X6279Y2623D02*
X6424D01*
Y2403D02*
Y2623D01*
X6279Y2403D02*
Y2623D01*
X5176Y2377D02*
X5321D01*
X5176Y2597D02*
X5321D01*
Y2377D02*
Y2597D01*
X5176Y2377D02*
Y2597D01*
X4552Y3189D02*
X4697D01*
X4552Y2969D02*
X4697D01*
X4552D02*
Y3189D01*
X4697Y2969D02*
Y3189D01*
X4385Y2001D02*
X4530D01*
X4385Y1781D02*
X4530D01*
X4385D02*
Y2001D01*
X4530Y1781D02*
Y2001D01*
X5092Y1782D02*
X5237D01*
X5092Y2002D02*
X5237D01*
Y1782D02*
Y2002D01*
X5092Y1782D02*
Y2002D01*
X5009Y1188D02*
X5154D01*
X5009Y1408D02*
X5154D01*
Y1188D02*
Y1408D01*
X5009Y1188D02*
Y1408D01*
X4925Y814D02*
X5070D01*
X4925Y594D02*
X5070D01*
X4925D02*
Y814D01*
X5070Y594D02*
Y814D01*
X4218Y813D02*
X4363D01*
X4218Y593D02*
X4363D01*
X4218D02*
Y813D01*
X4363Y593D02*
Y813D01*
X3511Y591D02*
X3656D01*
X3511Y811D02*
X3656D01*
Y591D02*
Y811D01*
X3511Y591D02*
Y811D01*
X3595Y1185D02*
X3740D01*
X3595Y1405D02*
X3740D01*
Y1185D02*
Y1405D01*
X3595Y1185D02*
Y1405D01*
X3678Y1779D02*
X3823D01*
X3678Y1999D02*
X3823D01*
Y1779D02*
Y1999D01*
X3678Y1779D02*
Y1999D01*
X3762Y2373D02*
X3907D01*
X3762Y2593D02*
X3907D01*
Y2373D02*
Y2593D01*
X3762Y2373D02*
Y2593D01*
X3845Y2968D02*
X3990D01*
X3845Y3188D02*
X3990D01*
Y2968D02*
Y3188D01*
X3845Y2968D02*
Y3188D01*
X2735Y2972D02*
X2880D01*
X2735Y3192D02*
X2880D01*
Y2972D02*
Y3192D01*
X2735Y2972D02*
Y3192D01*
X2652Y2378D02*
X2797D01*
X2652Y2598D02*
X2797D01*
Y2378D02*
Y2598D01*
X2652Y2378D02*
Y2598D01*
X2028Y3191D02*
X2173D01*
X2028Y2971D02*
X2173D01*
X2028D02*
Y3191D01*
X2173Y2971D02*
Y3191D01*
X1861Y2002D02*
X2006D01*
X1861Y1782D02*
X2006D01*
X1861D02*
Y2002D01*
X2006Y1782D02*
Y2002D01*
X1237Y2375D02*
X1382D01*
X1237Y2595D02*
X1382D01*
Y2375D02*
Y2595D01*
X1237Y2375D02*
Y2595D01*
X2568Y1784D02*
X2713D01*
X2568Y2004D02*
X2713D01*
Y1784D02*
Y2004D01*
X2568Y1784D02*
Y2004D01*
X2485Y1190D02*
X2630D01*
X2485Y1410D02*
X2630D01*
Y1190D02*
Y1410D01*
X2485Y1190D02*
Y1410D01*
X2401Y815D02*
X2546D01*
X2401Y595D02*
X2546D01*
X2401D02*
Y815D01*
X2546Y595D02*
Y815D01*
X1070Y1186D02*
X1215D01*
X1070Y1406D02*
X1215D01*
Y1186D02*
Y1406D01*
X1070Y1186D02*
Y1406D01*
X1694Y814D02*
X1839D01*
X1694Y594D02*
X1839D01*
X1694D02*
Y814D01*
X1839Y594D02*
Y814D01*
X987Y592D02*
X1132D01*
X987Y812D02*
X1132D01*
Y592D02*
Y812D01*
X987Y592D02*
Y812D01*
X1154Y1781D02*
X1299D01*
X1154Y2001D02*
X1299D01*
Y1781D02*
Y2001D01*
X1154Y1781D02*
Y2001D01*
X1321Y2969D02*
X1466D01*
X1321Y3189D02*
X1466D01*
Y2969D02*
Y3189D01*
X1321Y2969D02*
Y3189D01*
X3250Y2648D02*
X3385D01*
X3250Y2868D02*
X3385D01*
Y2648D02*
Y2868D01*
X3250Y2648D02*
Y2868D01*
X5718Y2604D02*
X5853D01*
X5718Y2824D02*
X5853D01*
Y2604D02*
Y2824D01*
X5718Y2604D02*
Y2824D01*
X6877Y2813D02*
X7012D01*
X6877Y2593D02*
X7012D01*
X6877D02*
Y2813D01*
X7012Y2593D02*
Y2813D01*
X9366Y2917D02*
X9501D01*
X9366Y2697D02*
X9501D01*
X9366D02*
Y2917D01*
X9501Y2697D02*
Y2917D01*
D22*
X5389Y3076D02*
Y3086D01*
X5274Y3076D02*
Y3086D01*
X10510Y1886D02*
Y1896D01*
X10625Y1886D02*
Y1896D01*
X11332Y1887D02*
Y1897D01*
X11217Y1887D02*
Y1897D01*
X11133Y1293D02*
Y1303D01*
X11248Y1293D02*
Y1303D01*
X11499Y3076D02*
Y3086D01*
X11384Y3076D02*
Y3086D01*
X10677Y3074D02*
Y3084D01*
X10792Y3074D02*
Y3084D01*
X11300Y2481D02*
Y2491D01*
X11415Y2481D02*
Y2491D01*
X10001Y2478D02*
Y2488D01*
X9886Y2478D02*
Y2488D01*
X9918Y1884D02*
Y1894D01*
X9803Y1884D02*
Y1894D01*
X9834Y1290D02*
Y1300D01*
X9719Y1290D02*
Y1300D01*
X9751Y696D02*
Y706D01*
X9636Y696D02*
Y706D01*
X10343Y697D02*
Y707D01*
X10458Y697D02*
Y707D01*
X8875Y2469D02*
Y2479D01*
X8990Y2469D02*
Y2479D01*
X9073Y3063D02*
Y3073D01*
X8958Y3063D02*
Y3073D01*
X10085Y3072D02*
Y3082D01*
X9970Y3072D02*
Y3082D01*
X8251Y3061D02*
Y3071D01*
X8366Y3061D02*
Y3071D01*
X8084Y1873D02*
Y1883D01*
X8199Y1873D02*
Y1883D01*
X8906Y1875D02*
Y1885D01*
X8791Y1875D02*
Y1885D01*
X8823Y1280D02*
Y1290D01*
X8708Y1280D02*
Y1290D01*
X11050Y699D02*
Y709D01*
X11165Y699D02*
Y709D01*
X8624Y686D02*
Y696D01*
X8739Y686D02*
Y696D01*
X7917Y685D02*
Y695D01*
X8032Y685D02*
Y695D01*
X7325Y683D02*
Y693D01*
X7210Y683D02*
Y693D01*
X7409Y1277D02*
Y1287D01*
X7294Y1277D02*
Y1287D01*
X7492Y1871D02*
Y1881D01*
X7377Y1871D02*
Y1881D01*
X7576Y2466D02*
Y2476D01*
X7461Y2466D02*
Y2476D01*
X7659Y3060D02*
Y3070D01*
X7544Y3060D02*
Y3070D01*
X6134Y1289D02*
Y1299D01*
X6249Y1289D02*
Y1299D01*
X6409Y2508D02*
Y2518D01*
X6294Y2508D02*
Y2518D01*
X5306Y2482D02*
Y2492D01*
X5191Y2482D02*
Y2492D01*
X4567Y3074D02*
Y3084D01*
X4682Y3074D02*
Y3084D01*
X4400Y1886D02*
Y1896D01*
X4515Y1886D02*
Y1896D01*
X5222Y1887D02*
Y1897D01*
X5107Y1887D02*
Y1897D01*
X5139Y1293D02*
Y1303D01*
X5024Y1293D02*
Y1303D01*
X4940Y699D02*
Y709D01*
X5055Y699D02*
Y709D01*
X4233Y698D02*
Y708D01*
X4348Y698D02*
Y708D01*
X3641Y696D02*
Y706D01*
X3526Y696D02*
Y706D01*
X3725Y1290D02*
Y1300D01*
X3610Y1290D02*
Y1300D01*
X3808Y1884D02*
Y1894D01*
X3693Y1884D02*
Y1894D01*
X3892Y2478D02*
Y2488D01*
X3777Y2478D02*
Y2488D01*
X3975Y3073D02*
Y3083D01*
X3860Y3073D02*
Y3083D01*
X2865Y3077D02*
Y3087D01*
X2750Y3077D02*
Y3087D01*
X2782Y2483D02*
Y2493D01*
X2667Y2483D02*
Y2493D01*
X2043Y3076D02*
Y3086D01*
X2158Y3076D02*
Y3086D01*
X1876Y1887D02*
Y1897D01*
X1991Y1887D02*
Y1897D01*
X1367Y2480D02*
Y2490D01*
X1252Y2480D02*
Y2490D01*
X2698Y1889D02*
Y1899D01*
X2583Y1889D02*
Y1899D01*
X2615Y1295D02*
Y1305D01*
X2500Y1295D02*
Y1305D01*
X2416Y700D02*
Y710D01*
X2531Y700D02*
Y710D01*
X1200Y1291D02*
Y1301D01*
X1085Y1291D02*
Y1301D01*
X1709Y699D02*
Y709D01*
X1824Y699D02*
Y709D01*
X1117Y697D02*
Y707D01*
X1002Y697D02*
Y707D01*
X1284Y1886D02*
Y1896D01*
X1169Y1886D02*
Y1896D01*
X1451Y3074D02*
Y3084D01*
X1336Y3074D02*
Y3084D01*
X3377Y2753D02*
Y2763D01*
X3257Y2753D02*
Y2763D01*
X5845Y2709D02*
Y2719D01*
X5725Y2709D02*
Y2719D01*
X6885Y2698D02*
Y2708D01*
X7005Y2698D02*
Y2708D01*
X9374Y2802D02*
Y2812D01*
X9494Y2802D02*
Y2812D01*
D29*
X11730Y1700D02*
D03*
X570Y1500D02*
D03*
D30*
X725Y2175D02*
X700D01*
Y2187D01*
X704Y2192D01*
X721D01*
X725Y2187D01*
Y2175D01*
Y2217D02*
Y2200D01*
X712D01*
X717Y2208D01*
Y2212D01*
X712Y2217D01*
X704D01*
X700Y2212D01*
Y2204D01*
X704Y2200D01*
X11575Y1825D02*
X11600D01*
Y1813D01*
X11596Y1808D01*
X11579D01*
X11575Y1813D01*
Y1825D01*
X11600Y1796D02*
Y1788D01*
X11596Y1783D01*
X11588D01*
X11583Y1788D01*
Y1796D01*
X11588Y1800D01*
X11596D01*
X11600Y1796D01*
X11583Y1775D02*
X11596D01*
X11600Y1771D01*
Y1758D01*
X11583D01*
X11579Y1746D02*
X11583D01*
Y1750D01*
Y1742D01*
Y1746D01*
X11596D01*
X11600Y1742D01*
X11579Y1908D02*
X11575Y1913D01*
Y1921D01*
X11579Y1925D01*
X11596D01*
X11600Y1921D01*
Y1913D01*
X11596Y1908D01*
X11588D01*
Y1917D01*
X11600Y1900D02*
X11575D01*
X11600Y1883D01*
X11575D01*
Y1875D02*
X11600D01*
Y1863D01*
X11596Y1858D01*
X11579D01*
X11575Y1863D01*
Y1875D01*
Y1983D02*
Y2000D01*
X11588D01*
X11583Y1992D01*
Y1988D01*
X11588Y1983D01*
X11596D01*
X11600Y1988D01*
Y1996D01*
X11596Y2000D01*
X11575Y1975D02*
X11592D01*
X11600Y1967D01*
X11592Y1958D01*
X11575D01*
X725Y2075D02*
X700D01*
Y2087D01*
X704Y2092D01*
X721D01*
X725Y2087D01*
Y2075D01*
X700Y2112D02*
X725D01*
X712Y2100D01*
Y2117D01*
X725Y1975D02*
X700D01*
Y1987D01*
X704Y1992D01*
X721D01*
X725Y1987D01*
Y1975D01*
X721Y2000D02*
X725Y2004D01*
Y2012D01*
X721Y2017D01*
X717D01*
X712Y2012D01*
Y2008D01*
Y2012D01*
X708Y2017D01*
X704D01*
X700Y2012D01*
Y2004D01*
X704Y2000D01*
X725Y1875D02*
X700D01*
Y1887D01*
X704Y1892D01*
X721D01*
X725Y1887D01*
Y1875D01*
X700Y1917D02*
Y1900D01*
X717Y1917D01*
X721D01*
X725Y1912D01*
Y1904D01*
X721Y1900D01*
X725Y1775D02*
X700D01*
Y1787D01*
X704Y1792D01*
X721D01*
X725Y1787D01*
Y1775D01*
X700Y1800D02*
Y1808D01*
Y1804D01*
X725D01*
X721Y1800D01*
Y1667D02*
X725Y1662D01*
Y1654D01*
X721Y1650D01*
X704D01*
X700Y1654D01*
Y1662D01*
X704Y1667D01*
X712D01*
Y1658D01*
X700Y1675D02*
X725D01*
X700Y1692D01*
X725D01*
Y1700D02*
X700D01*
Y1712D01*
X704Y1717D01*
X721D01*
X725Y1712D01*
Y1700D01*
Y1592D02*
Y1575D01*
X712D01*
X717Y1583D01*
Y1587D01*
X712Y1592D01*
X704D01*
X700Y1587D01*
Y1579D01*
X704Y1575D01*
X725Y1600D02*
X708D01*
X700Y1608D01*
X708Y1617D01*
X725D01*
M02*
