M48
;Layer_Color=9474304
;FILE_FORMAT=4:2
METRIC,LZ
;TYPE=PLATED
T1F00S00C0.56
T2F00S00C0.60
T3F00S00C0.71
T4F00S00C2.00
%
T01
X005446Y000888
X0057
X005954
X005192
X004938
X004684
X00443
X004176
X003922
X003668
X003414
X00316
Y00165
X003414
X003668
X003922
X004176
X00443
X004684
X004938
X005192
X005446
X0057
X005954
T02
X00538Y000485
X00622
X00649
X00676
X00703
X0073
X00757
X00784
X00811
X00838
X00511
X00484
X00457
X0043
X00403
X00376
X00349
X00322
X00278
X00251
X00224
X00197
X0017
X00143
X00116
X00089
X00062
Y002015
X00089
X00116
X00143
X0017
X00197
X00224
X00251
X00278
X00322
X00349
X00376
X00403
X0043
X00457
X00484
X00511
X00538
X00622
X00649
X00676
X00703
X0073
X00757
X00784
X00811
X00838
T03
X00622Y00027
X00676Y0007
X0073Y00027
X0073Y00147
X00636Y00128
X00527
X00511Y0007
X00485Y00019
X0043Y00027
X00376Y0007
X00365Y00138
X0031Y00131
X00322Y00027
X00224Y0002
X0017Y00027
X0025Y0007
X00251Y0018
X00223Y00223
X00322
X00376Y0018
X005112Y001806
X00483Y00223
X00623
X0065Y00223
X00676Y0018
X00757Y00173
X00811Y0018
T04
X00876Y0003
X00025
X00375Y0026
X00525
M30
