G04 Layer_Physical_Order=1*
G04 Layer_Color=255*
%FSLAX42Y42*%
%MOMM*%
G71*
G01*
G75*
%ADD10C,0.50*%
%ADD11C,0.90*%
%ADD12C,1.56*%
%ADD13R,1.56X1.56*%
%ADD14C,3.50*%
%ADD15C,1.27*%
G36*
X8362Y2095D02*
X8357Y2082D01*
X8344Y2076D01*
X8331Y2066D01*
X8245D01*
X8225Y2062D01*
X8209Y2051D01*
X8190Y2033D01*
X8177Y2038D01*
X8171Y2051D01*
X8160Y2065D01*
X8146Y2076D01*
X8128Y2084D01*
X8110Y2086D01*
X8092Y2084D01*
X8074Y2076D01*
X8060Y2065D01*
X8049Y2051D01*
X8041Y2033D01*
X8039Y2015D01*
X8041Y1997D01*
X8047Y1984D01*
X8040Y1971D01*
X7910D01*
X7903Y1984D01*
X7909Y1997D01*
X7911Y2015D01*
X7909Y2033D01*
X7901Y2051D01*
X7890Y2065D01*
X7876Y2076D01*
X7858Y2084D01*
X7840Y2086D01*
X7822Y2084D01*
X7804Y2076D01*
X7791Y2066D01*
X7726D01*
X7670Y2123D01*
X7675Y2134D01*
X8323D01*
X8362Y2095D01*
D02*
G37*
G36*
X5350Y2850D02*
Y2850D01*
X5351Y2851D01*
X5370Y2847D01*
X5386Y2836D01*
X5397Y2820D01*
X5401Y2800D01*
X5401Y2751D01*
X5388Y2746D01*
X5362Y2767D01*
X5327Y2786D01*
X5289Y2798D01*
X5250Y2801D01*
X5211Y2798D01*
X5173Y2786D01*
X5138Y2767D01*
X5108Y2742D01*
X5083Y2712D01*
X5064Y2677D01*
X5052Y2639D01*
X5049Y2600D01*
X5052Y2561D01*
X5064Y2523D01*
X5083Y2488D01*
X5108Y2458D01*
X5138Y2433D01*
X5173Y2414D01*
X5211Y2402D01*
X5250Y2399D01*
X5289Y2402D01*
X5327Y2414D01*
X5362Y2433D01*
X5387Y2453D01*
X5390Y2453D01*
X5400Y2447D01*
X5403Y2430D01*
X5414Y2414D01*
X5430Y2403D01*
X5450Y2399D01*
Y2400D01*
X8900D01*
Y2400D01*
X8901Y2401D01*
X8920Y2397D01*
X8936Y2386D01*
X8947Y2370D01*
X8951Y2350D01*
X8950Y396D01*
X8937Y393D01*
X8927Y412D01*
X8902Y442D01*
X8872Y467D01*
X8837Y486D01*
X8799Y498D01*
X8760Y501D01*
X8721Y498D01*
X8683Y486D01*
X8648Y467D01*
X8618Y442D01*
X8614Y438D01*
X8602Y442D01*
Y1979D01*
X8598Y1999D01*
X8587Y2015D01*
X8380Y2222D01*
X8364Y2233D01*
X8344Y2237D01*
X6589D01*
X6587Y2253D01*
X6578Y2275D01*
X6563Y2293D01*
X6545Y2308D01*
X6523Y2317D01*
X6500Y2320D01*
X6477Y2317D01*
X6455Y2308D01*
X6437Y2293D01*
X6422Y2275D01*
X6413Y2253D01*
X6410Y2230D01*
X6413Y2207D01*
X6422Y2185D01*
X6431Y2174D01*
X6424Y2162D01*
X6412D01*
X6408Y2161D01*
X6317Y2253D01*
X6317Y2253D01*
X6308Y2275D01*
X6293Y2293D01*
X6275Y2308D01*
X6253Y2317D01*
X6230Y2320D01*
X6207Y2317D01*
X6185Y2308D01*
X6167Y2293D01*
X6152Y2275D01*
X6143Y2253D01*
X6141Y2237D01*
X4919D01*
X4917Y2253D01*
X4908Y2275D01*
X4893Y2293D01*
X4875Y2308D01*
X4853Y2317D01*
X4830Y2320D01*
X4807Y2317D01*
X4785Y2308D01*
X4767Y2293D01*
X4752Y2275D01*
X4743Y2253D01*
X4741Y2237D01*
X3689D01*
X3670Y2233D01*
X3653Y2222D01*
X3602Y2171D01*
X3418D01*
X3367Y2222D01*
X3350Y2233D01*
X3331Y2237D01*
X3309D01*
X3307Y2253D01*
X3298Y2275D01*
X3283Y2293D01*
X3265Y2308D01*
X3243Y2317D01*
X3220Y2320D01*
X3197Y2317D01*
X3175Y2308D01*
X3157Y2293D01*
X3142Y2275D01*
X3133Y2253D01*
X3131Y2237D01*
X2321D01*
X2318Y2240D01*
X2317Y2253D01*
X2308Y2275D01*
X2293Y2293D01*
X2275Y2308D01*
X2253Y2317D01*
X2230Y2320D01*
X2207Y2317D01*
X2185Y2308D01*
X2167Y2293D01*
X2152Y2275D01*
X2143Y2253D01*
X2141Y2237D01*
X926D01*
X906Y2233D01*
X890Y2222D01*
X734Y2066D01*
X669D01*
X656Y2076D01*
X638Y2084D01*
X620Y2086D01*
X602Y2084D01*
X584Y2076D01*
X570Y2065D01*
X559Y2051D01*
X551Y2033D01*
X549Y2015D01*
X551Y1997D01*
X559Y1979D01*
X569Y1966D01*
Y1070D01*
X573Y1050D01*
X584Y1034D01*
X637Y980D01*
X654Y969D01*
X674Y965D01*
X3073D01*
X3079Y952D01*
X3070Y940D01*
X3059Y915D01*
X3056Y888D01*
X3059Y861D01*
X3070Y836D01*
X3086Y814D01*
X3108Y798D01*
X3133Y787D01*
X3160Y784D01*
X3187Y787D01*
X3212Y798D01*
X3234Y814D01*
X3250Y836D01*
X3261Y861D01*
X3264Y888D01*
X3261Y915D01*
X3250Y940D01*
X3241Y952D01*
X3247Y965D01*
X3327D01*
X3333Y952D01*
X3324Y940D01*
X3313Y915D01*
X3310Y888D01*
X3313Y861D01*
X3324Y836D01*
X3340Y814D01*
X3362Y798D01*
X3387Y787D01*
X3414Y784D01*
X3441Y787D01*
X3466Y798D01*
X3488Y814D01*
X3504Y836D01*
X3515Y861D01*
X3518Y888D01*
X3515Y915D01*
X3504Y940D01*
X3495Y952D01*
X3501Y965D01*
X3581D01*
X3587Y952D01*
X3578Y940D01*
X3567Y915D01*
X3564Y888D01*
X3567Y861D01*
X3578Y836D01*
X3594Y814D01*
X3616Y798D01*
X3641Y787D01*
X3668Y784D01*
X3695Y787D01*
X3720Y798D01*
X3742Y814D01*
X3758Y836D01*
X3769Y861D01*
X3772Y888D01*
X3769Y915D01*
X3758Y940D01*
X3749Y952D01*
X3755Y965D01*
X3835D01*
X3841Y952D01*
X3832Y940D01*
X3821Y915D01*
X3818Y888D01*
X3821Y861D01*
X3832Y836D01*
X3848Y814D01*
X3870Y798D01*
X3895Y787D01*
X3922Y784D01*
X3949Y787D01*
X3974Y798D01*
X3996Y814D01*
X4012Y836D01*
X4023Y861D01*
X4026Y888D01*
X4023Y915D01*
X4012Y940D01*
X4003Y952D01*
X4009Y965D01*
X4089D01*
X4095Y952D01*
X4086Y940D01*
X4075Y915D01*
X4072Y888D01*
X4075Y861D01*
X4086Y836D01*
X4102Y814D01*
X4124Y798D01*
X4149Y787D01*
X4176Y784D01*
X4203Y787D01*
X4228Y798D01*
X4250Y814D01*
X4266Y836D01*
X4277Y861D01*
X4280Y888D01*
X4277Y915D01*
X4266Y940D01*
X4257Y952D01*
X4263Y965D01*
X4343D01*
X4349Y952D01*
X4340Y940D01*
X4329Y915D01*
X4326Y888D01*
X4329Y861D01*
X4340Y836D01*
X4356Y814D01*
X4378Y798D01*
X4403Y787D01*
X4430Y784D01*
X4457Y787D01*
X4482Y798D01*
X4504Y814D01*
X4520Y836D01*
X4531Y861D01*
X4534Y888D01*
X4531Y915D01*
X4520Y940D01*
X4511Y952D01*
X4517Y965D01*
X4597D01*
X4603Y952D01*
X4594Y940D01*
X4583Y915D01*
X4580Y888D01*
X4583Y861D01*
X4594Y836D01*
X4610Y814D01*
X4632Y798D01*
X4657Y787D01*
X4684Y784D01*
X4711Y787D01*
X4736Y798D01*
X4758Y814D01*
X4774Y836D01*
X4785Y861D01*
X4788Y888D01*
X4785Y915D01*
X4774Y940D01*
X4765Y952D01*
X4771Y965D01*
X4851D01*
X4857Y952D01*
X4848Y940D01*
X4837Y915D01*
X4834Y888D01*
X4837Y861D01*
X4848Y836D01*
X4864Y814D01*
X4886Y798D01*
X4911Y787D01*
X4938Y784D01*
X4965Y787D01*
X4990Y798D01*
X5012Y814D01*
X5028Y836D01*
X5039Y861D01*
X5042Y888D01*
X5039Y915D01*
X5028Y940D01*
X5019Y952D01*
X5025Y965D01*
X5105D01*
X5111Y952D01*
X5102Y940D01*
X5091Y915D01*
X5088Y888D01*
X5091Y861D01*
X5102Y836D01*
X5118Y814D01*
X5140Y798D01*
X5165Y787D01*
X5192Y784D01*
X5219Y787D01*
X5244Y798D01*
X5266Y814D01*
X5282Y836D01*
X5293Y861D01*
X5296Y888D01*
X5293Y915D01*
X5282Y940D01*
X5273Y952D01*
X5279Y965D01*
X5296D01*
X5346Y916D01*
X5345Y915D01*
X5342Y888D01*
X5345Y861D01*
X5356Y836D01*
X5372Y814D01*
X5394Y798D01*
X5419Y787D01*
X5446Y784D01*
X5473Y787D01*
X5498Y798D01*
X5520Y814D01*
X5536Y836D01*
X5547Y861D01*
X5550Y888D01*
X5547Y915D01*
X5536Y940D01*
X5520Y962D01*
X5498Y978D01*
X5473Y989D01*
X5446Y992D01*
X5419Y989D01*
X5418Y988D01*
X5354Y1053D01*
X5337Y1064D01*
X5318Y1068D01*
X695D01*
X671Y1091D01*
Y1964D01*
X755D01*
X775Y1968D01*
X791Y1979D01*
X810Y1997D01*
X823Y1992D01*
X829Y1979D01*
X840Y1965D01*
X854Y1954D01*
X872Y1946D01*
X890Y1944D01*
X908Y1946D01*
X926Y1954D01*
X939Y1964D01*
X1025D01*
X1045Y1968D01*
X1061Y1979D01*
X1080Y1997D01*
X1093Y1992D01*
X1099Y1979D01*
X1110Y1965D01*
X1124Y1954D01*
X1142Y1946D01*
X1160Y1944D01*
X1178Y1946D01*
X1196Y1954D01*
X1209Y1964D01*
X1274D01*
X1354Y1883D01*
X1371Y1872D01*
X1390Y1868D01*
X1470D01*
X1472Y1869D01*
X1532D01*
X1593Y1808D01*
X1610Y1797D01*
X1629Y1793D01*
X2421D01*
X2423Y1777D01*
X2432Y1755D01*
X2447Y1737D01*
X2465Y1722D01*
X2487Y1713D01*
X2510Y1710D01*
X2533Y1713D01*
X2555Y1722D01*
X2573Y1737D01*
X2588Y1755D01*
X2590Y1762D01*
X2593Y1764D01*
X2698Y1868D01*
X3053D01*
X3113Y1808D01*
X3130Y1797D01*
X3149Y1793D01*
X3671D01*
X3673Y1777D01*
X3678Y1766D01*
X3669Y1754D01*
X3668Y1754D01*
X3641Y1751D01*
X3616Y1740D01*
X3594Y1724D01*
X3578Y1702D01*
X3567Y1677D01*
X3564Y1650D01*
X3567Y1623D01*
X3578Y1598D01*
X3594Y1576D01*
X3616Y1560D01*
X3641Y1549D01*
X3668Y1546D01*
X3695Y1549D01*
X3696Y1550D01*
X3812Y1434D01*
X3828Y1423D01*
X3848Y1419D01*
X7227D01*
X7237Y1407D01*
X7255Y1392D01*
X7277Y1383D01*
X7300Y1380D01*
X7323Y1383D01*
X7345Y1392D01*
X7363Y1407D01*
X7378Y1425D01*
X7387Y1447D01*
X7390Y1470D01*
X7387Y1493D01*
X7378Y1515D01*
X7363Y1533D01*
X7345Y1548D01*
X7323Y1557D01*
X7300Y1560D01*
X7277Y1557D01*
X7255Y1548D01*
X7237Y1533D01*
X7227Y1521D01*
X3869D01*
X3768Y1622D01*
X3769Y1623D01*
X3772Y1650D01*
X3769Y1677D01*
X3760Y1698D01*
X3760Y1698D01*
X3765Y1709D01*
X3767Y1711D01*
X3783Y1713D01*
X3805Y1722D01*
X3823Y1737D01*
X3838Y1755D01*
X3847Y1777D01*
X3848Y1789D01*
X3927Y1868D01*
X4133D01*
X4193Y1808D01*
X4210Y1797D01*
X4229Y1793D01*
X4371D01*
X4373Y1793D01*
X4497D01*
X4499Y1793D01*
X5024D01*
X5025Y1782D01*
X5034Y1761D01*
X5048Y1742D01*
X5067Y1728D01*
X5088Y1719D01*
X5098Y1718D01*
X5103Y1704D01*
X5102Y1702D01*
X5091Y1677D01*
X5089Y1663D01*
X5295D01*
X5293Y1677D01*
X5282Y1702D01*
X5266Y1724D01*
X5244Y1740D01*
X5219Y1751D01*
X5199Y1753D01*
X5198Y1754D01*
X5192Y1766D01*
X5192Y1767D01*
X5193Y1771D01*
X5288Y1865D01*
X5496D01*
X5501Y1854D01*
X5410Y1762D01*
X5399Y1746D01*
X5398Y1742D01*
X5394Y1740D01*
X5372Y1724D01*
X5356Y1702D01*
X5345Y1677D01*
X5342Y1650D01*
X5345Y1623D01*
X5356Y1598D01*
X5372Y1576D01*
X5394Y1560D01*
X5419Y1549D01*
X5446Y1546D01*
X5473Y1549D01*
X5498Y1560D01*
X5520Y1576D01*
X5536Y1598D01*
X5547Y1623D01*
X5550Y1650D01*
X5547Y1677D01*
X5536Y1702D01*
X5520Y1724D01*
X5520Y1727D01*
X5583Y1790D01*
X6024D01*
X6082Y1732D01*
X6098Y1721D01*
X6118Y1717D01*
X6609D01*
X6676Y1650D01*
X6693Y1639D01*
X6713Y1635D01*
X6811D01*
X6831Y1639D01*
X6848Y1650D01*
X6981Y1783D01*
X7111D01*
X7162Y1732D01*
X7178Y1721D01*
X7198Y1717D01*
X7482D01*
X7483Y1707D01*
X7492Y1685D01*
X7507Y1667D01*
X7525Y1652D01*
X7547Y1643D01*
X7570Y1640D01*
X7593Y1643D01*
X7615Y1652D01*
X7633Y1667D01*
X7648Y1685D01*
X7657Y1707D01*
X7660Y1730D01*
X7657Y1753D01*
X7648Y1775D01*
X7643Y1781D01*
X7648Y1793D01*
X8021D01*
X8023Y1777D01*
X8032Y1755D01*
X8047Y1737D01*
X8065Y1722D01*
X8087Y1713D01*
X8110Y1710D01*
X8133Y1713D01*
X8155Y1722D01*
X8173Y1737D01*
X8188Y1755D01*
X8197Y1777D01*
X8199Y1796D01*
X8200Y1797D01*
X8217Y1808D01*
X8268Y1859D01*
X8399D01*
X8424Y1833D01*
Y801D01*
X8405Y783D01*
X7198D01*
X7178Y779D01*
X7162Y768D01*
X7116Y721D01*
X6971D01*
X6912Y780D01*
X6910Y784D01*
X6844Y850D01*
X6827Y861D01*
X6807Y865D01*
X6713D01*
X6693Y861D01*
X6676Y850D01*
X6609Y783D01*
X6003D01*
X6000Y795D01*
X6006Y798D01*
X6028Y814D01*
X6044Y836D01*
X6055Y861D01*
X6058Y888D01*
X6055Y915D01*
X6044Y940D01*
X6028Y962D01*
X6006Y978D01*
X5981Y989D01*
X5954Y992D01*
X5927Y989D01*
X5902Y978D01*
X5880Y962D01*
X5864Y940D01*
X5853Y915D01*
X5850Y888D01*
X5853Y861D01*
X5864Y836D01*
X5880Y814D01*
X5902Y798D01*
X5908Y795D01*
X5905Y783D01*
X5878D01*
X5800Y860D01*
X5801Y861D01*
X5804Y888D01*
X5801Y915D01*
X5790Y940D01*
X5774Y962D01*
X5752Y978D01*
X5727Y989D01*
X5700Y992D01*
X5673Y989D01*
X5648Y978D01*
X5626Y962D01*
X5610Y940D01*
X5599Y915D01*
X5596Y888D01*
X5599Y861D01*
X5610Y836D01*
X5626Y814D01*
X5648Y798D01*
X5673Y787D01*
X5700Y784D01*
X5727Y787D01*
X5728Y788D01*
X5820Y695D01*
X5837Y684D01*
X5857Y680D01*
X6084D01*
X6089Y668D01*
X6072Y651D01*
X5261D01*
X5198Y715D01*
X5197Y723D01*
X5188Y745D01*
X5173Y763D01*
X5155Y778D01*
X5133Y787D01*
X5110Y790D01*
X5087Y787D01*
X5065Y778D01*
X5047Y763D01*
X5032Y745D01*
X5032Y745D01*
X5020Y736D01*
X4991Y707D01*
X4229D01*
X4210Y703D01*
X4193Y692D01*
X4142Y641D01*
X3921D01*
X3848Y715D01*
X3847Y723D01*
X3838Y745D01*
X3823Y763D01*
X3805Y778D01*
X3783Y787D01*
X3760Y790D01*
X3737Y787D01*
X3715Y778D01*
X3697Y763D01*
X3682Y745D01*
X3678Y735D01*
X3651Y707D01*
X3149D01*
X3130Y703D01*
X3113Y692D01*
X3072Y651D01*
X2658D01*
X2617Y692D01*
X2600Y703D01*
X2589Y706D01*
X2587Y723D01*
X2578Y745D01*
X2563Y763D01*
X2545Y778D01*
X2523Y787D01*
X2500Y790D01*
X2477Y787D01*
X2455Y778D01*
X2437Y763D01*
X2422Y745D01*
X2413Y723D01*
X2411Y707D01*
X1546D01*
X1526Y703D01*
X1509Y692D01*
X1449Y632D01*
X1390D01*
X1371Y628D01*
X1354Y617D01*
X1274Y536D01*
X1209D01*
X1196Y546D01*
X1178Y554D01*
X1160Y556D01*
X1142Y554D01*
X1124Y546D01*
X1110Y535D01*
X1099Y521D01*
X1093Y508D01*
X1080Y503D01*
X1061Y521D01*
X1045Y532D01*
X1025Y536D01*
X939D01*
X926Y546D01*
X908Y554D01*
X890Y556D01*
X872Y554D01*
X854Y546D01*
X840Y535D01*
X829Y521D01*
X823Y508D01*
X810Y503D01*
X791Y521D01*
X775Y532D01*
X755Y536D01*
X669D01*
X656Y546D01*
X638Y554D01*
X620Y556D01*
X602Y554D01*
X584Y546D01*
X570Y535D01*
X559Y521D01*
X551Y503D01*
X549Y485D01*
X551Y467D01*
X559Y449D01*
X570Y435D01*
X584Y424D01*
X602Y416D01*
X620Y414D01*
X638Y416D01*
X656Y424D01*
X669Y434D01*
X734D01*
X814Y353D01*
X831Y342D01*
X850Y338D01*
X930D01*
X932Y339D01*
X992D01*
X1053Y278D01*
X1070Y267D01*
X1089Y263D01*
X1611D01*
X1613Y247D01*
X1622Y225D01*
X1637Y207D01*
X1655Y192D01*
X1677Y183D01*
X1700Y180D01*
X1723Y183D01*
X1745Y192D01*
X1763Y207D01*
X1778Y225D01*
X1785Y242D01*
X1881Y338D01*
X2073D01*
X2133Y278D01*
X2150Y267D01*
X2161Y264D01*
X2167Y250D01*
X2162Y245D01*
X2153Y223D01*
X2150Y200D01*
X2153Y177D01*
X2162Y155D01*
X2177Y137D01*
X2195Y122D01*
X2217Y113D01*
X2240Y110D01*
X2263Y113D01*
X2285Y122D01*
X2303Y137D01*
X2318Y155D01*
X2325Y174D01*
X2339Y187D01*
X3069D01*
X3136Y120D01*
X3153Y109D01*
X3173Y105D01*
X3276D01*
X3296Y109D01*
X3312Y120D01*
X3455Y263D01*
X3561D01*
X3561Y263D01*
X3622Y202D01*
X3638Y191D01*
X3658Y187D01*
X4149D01*
X4216Y120D01*
X4233Y109D01*
X4253Y105D01*
X4347D01*
X4367Y109D01*
X4384Y120D01*
X4512Y249D01*
X4656D01*
X4702Y202D01*
X4718Y191D01*
X4738Y187D01*
X4761D01*
X4763Y167D01*
X4772Y145D01*
X4787Y127D01*
X4805Y112D01*
X4827Y103D01*
X4850Y100D01*
X4873Y103D01*
X4895Y112D01*
X4913Y127D01*
X4928Y145D01*
X4937Y167D01*
X4938Y179D01*
X6078D01*
X6136Y120D01*
X6153Y109D01*
X6173Y105D01*
X6267D01*
X6287Y109D01*
X6304Y120D01*
X6434Y250D01*
X6574D01*
X6622Y202D01*
X6638Y191D01*
X6658Y187D01*
X7149D01*
X7216Y120D01*
X7233Y109D01*
X7253Y105D01*
X7347D01*
X7367Y109D01*
X7384Y120D01*
X7450Y186D01*
X7461Y203D01*
X7465Y223D01*
Y323D01*
X7481Y338D01*
X7610D01*
X7629Y342D01*
X7646Y353D01*
X7726Y434D01*
X7791D01*
X7804Y424D01*
X7822Y416D01*
X7840Y414D01*
X7858Y416D01*
X7876Y424D01*
X7889Y434D01*
X7954D01*
X8034Y353D01*
X8051Y342D01*
X8070Y338D01*
X8213D01*
X8273Y278D01*
X8290Y267D01*
X8309Y263D01*
X8451D01*
X8470Y267D01*
X8487Y278D01*
X8550Y341D01*
X8562Y335D01*
X8559Y300D01*
X8563Y261D01*
X8574Y223D01*
X8593Y188D01*
X8618Y158D01*
X8648Y133D01*
X8683Y114D01*
X8721Y103D01*
X8760Y99D01*
X8799Y103D01*
X8837Y114D01*
X8872Y133D01*
X8902Y158D01*
X8927Y188D01*
X8937Y207D01*
X8950Y203D01*
X8950Y100D01*
X8950D01*
X8951Y99D01*
X8947Y80D01*
X8936Y64D01*
X8920Y53D01*
X8900Y49D01*
X100Y50D01*
Y50D01*
X99Y49D01*
X80Y53D01*
X64Y64D01*
X53Y80D01*
X49Y100D01*
X49Y228D01*
X62Y230D01*
X64Y223D01*
X83Y188D01*
X108Y158D01*
X138Y133D01*
X173Y114D01*
X211Y103D01*
X250Y99D01*
X289Y103D01*
X327Y114D01*
X362Y133D01*
X392Y158D01*
X417Y188D01*
X436Y223D01*
X448Y261D01*
X451Y300D01*
X448Y339D01*
X436Y377D01*
X417Y412D01*
X392Y442D01*
X362Y467D01*
X327Y486D01*
X289Y498D01*
X250Y501D01*
X211Y498D01*
X173Y486D01*
X138Y467D01*
X108Y442D01*
X83Y412D01*
X64Y377D01*
X62Y370D01*
X49Y372D01*
X50Y2350D01*
X50D01*
X49Y2351D01*
X53Y2370D01*
X64Y2386D01*
X80Y2397D01*
X99Y2401D01*
X100Y2400D01*
Y2400D01*
X3550D01*
Y2399D01*
X3570Y2403D01*
X3586Y2414D01*
X3597Y2430D01*
X3600Y2447D01*
X3608Y2451D01*
X3614Y2453D01*
X3638Y2433D01*
X3673Y2414D01*
X3711Y2402D01*
X3750Y2399D01*
X3789Y2402D01*
X3827Y2414D01*
X3862Y2433D01*
X3892Y2458D01*
X3917Y2488D01*
X3936Y2523D01*
X3947Y2561D01*
X3951Y2600D01*
X3947Y2639D01*
X3936Y2677D01*
X3917Y2712D01*
X3892Y2742D01*
X3862Y2767D01*
X3827Y2786D01*
X3789Y2798D01*
X3750Y2801D01*
X3711Y2798D01*
X3673Y2786D01*
X3638Y2767D01*
X3613Y2747D01*
X3600Y2753D01*
X3600Y2800D01*
X3600Y2800D01*
X3600D01*
X3601Y2812D01*
X3603Y2820D01*
X3614Y2836D01*
X3630Y2847D01*
X3650Y2851D01*
X5350Y2850D01*
D02*
G37*
%LPC*%
G36*
X6347Y1368D02*
X6337Y1367D01*
X6315Y1358D01*
X6297Y1343D01*
X6287Y1331D01*
X5343D01*
X5333Y1343D01*
X5315Y1358D01*
X5293Y1367D01*
X5283Y1368D01*
Y1280D01*
Y1192D01*
X5293Y1193D01*
X5315Y1202D01*
X5333Y1217D01*
X5343Y1229D01*
X6287D01*
X6297Y1217D01*
X6315Y1202D01*
X6337Y1193D01*
X6347Y1192D01*
Y1280D01*
Y1368D01*
D02*
G37*
G36*
X3087Y1398D02*
X3077Y1397D01*
X3055Y1388D01*
X3037Y1373D01*
X3022Y1355D01*
X3013Y1333D01*
X3012Y1323D01*
X3087D01*
Y1398D01*
D02*
G37*
G36*
X6373Y1368D02*
Y1293D01*
X6448D01*
X6447Y1303D01*
X6438Y1325D01*
X6423Y1343D01*
X6405Y1358D01*
X6383Y1367D01*
X6373Y1368D01*
D02*
G37*
G36*
X3414Y1754D02*
X3387Y1751D01*
X3362Y1740D01*
X3340Y1724D01*
X3324Y1702D01*
X3313Y1677D01*
X3310Y1650D01*
X3313Y1623D01*
X3324Y1598D01*
X3340Y1576D01*
X3362Y1560D01*
X3387Y1549D01*
X3414Y1546D01*
X3441Y1549D01*
X3466Y1560D01*
X3488Y1576D01*
X3504Y1598D01*
X3515Y1623D01*
X3518Y1650D01*
X3515Y1677D01*
X3504Y1702D01*
X3488Y1724D01*
X3466Y1740D01*
X3441Y1751D01*
X3414Y1754D01*
D02*
G37*
G36*
X3663Y1468D02*
Y1393D01*
X3738D01*
X3737Y1403D01*
X3728Y1425D01*
X3713Y1443D01*
X3695Y1458D01*
X3673Y1467D01*
X3663Y1468D01*
D02*
G37*
G36*
X3637D02*
X3627Y1467D01*
X3605Y1458D01*
X3587Y1443D01*
X3572Y1425D01*
X3563Y1403D01*
X3562Y1393D01*
X3637D01*
Y1468D01*
D02*
G37*
G36*
X3087Y1297D02*
X3012D01*
X3013Y1287D01*
X3022Y1265D01*
X3037Y1247D01*
X3055Y1232D01*
X3077Y1223D01*
X3087Y1222D01*
Y1297D01*
D02*
G37*
G36*
X6448Y1267D02*
X6373D01*
Y1192D01*
X6383Y1193D01*
X6405Y1202D01*
X6423Y1217D01*
X6438Y1235D01*
X6447Y1257D01*
X6448Y1267D01*
D02*
G37*
G36*
X5257D02*
X5182D01*
X5183Y1257D01*
X5192Y1235D01*
X5207Y1217D01*
X5225Y1202D01*
X5247Y1193D01*
X5257Y1192D01*
Y1267D01*
D02*
G37*
G36*
Y1368D02*
X5247Y1367D01*
X5225Y1358D01*
X5207Y1343D01*
X5192Y1325D01*
X5183Y1303D01*
X5182Y1293D01*
X5257D01*
Y1368D01*
D02*
G37*
G36*
X3738Y1367D02*
X3663D01*
Y1292D01*
X3673Y1293D01*
X3695Y1302D01*
X3713Y1317D01*
X3728Y1335D01*
X3737Y1357D01*
X3738Y1367D01*
D02*
G37*
G36*
X3113Y1398D02*
Y1310D01*
Y1222D01*
X3123Y1223D01*
X3145Y1232D01*
X3163Y1247D01*
X3173Y1259D01*
X3580D01*
X3600Y1263D01*
X3616Y1274D01*
X3635Y1292D01*
X3637Y1292D01*
Y1367D01*
X3556D01*
X3551Y1361D01*
X3173D01*
X3163Y1373D01*
X3145Y1388D01*
X3123Y1397D01*
X3113Y1398D01*
D02*
G37*
G36*
X4176Y1754D02*
X4149Y1751D01*
X4124Y1740D01*
X4102Y1724D01*
X4086Y1702D01*
X4075Y1677D01*
X4072Y1650D01*
X4075Y1623D01*
X4086Y1598D01*
X4102Y1576D01*
X4124Y1560D01*
X4149Y1549D01*
X4176Y1546D01*
X4203Y1549D01*
X4228Y1560D01*
X4250Y1576D01*
X4266Y1598D01*
X4277Y1623D01*
X4280Y1650D01*
X4277Y1677D01*
X4266Y1702D01*
X4250Y1724D01*
X4228Y1740D01*
X4203Y1751D01*
X4176Y1754D01*
D02*
G37*
G36*
X5179Y1637D02*
X5089D01*
X5091Y1623D01*
X5102Y1598D01*
X5118Y1576D01*
X5140Y1560D01*
X5165Y1549D01*
X5179Y1547D01*
Y1637D01*
D02*
G37*
G36*
X4025D02*
X3935D01*
Y1547D01*
X3949Y1549D01*
X3974Y1560D01*
X3996Y1576D01*
X4012Y1598D01*
X4023Y1623D01*
X4025Y1637D01*
D02*
G37*
G36*
X3909D02*
X3819D01*
X3821Y1623D01*
X3832Y1598D01*
X3848Y1576D01*
X3870Y1560D01*
X3895Y1549D01*
X3909Y1547D01*
Y1637D01*
D02*
G37*
G36*
X3935Y1753D02*
Y1663D01*
X4025D01*
X4023Y1677D01*
X4012Y1702D01*
X3996Y1724D01*
X3974Y1740D01*
X3949Y1751D01*
X3935Y1753D01*
D02*
G37*
G36*
X3909D02*
X3895Y1751D01*
X3870Y1740D01*
X3848Y1724D01*
X3832Y1702D01*
X3821Y1677D01*
X3819Y1663D01*
X3909D01*
Y1753D01*
D02*
G37*
G36*
X5295Y1637D02*
X5205D01*
Y1547D01*
X5219Y1549D01*
X5244Y1560D01*
X5266Y1576D01*
X5282Y1598D01*
X5293Y1623D01*
X5295Y1637D01*
D02*
G37*
G36*
X4938Y1754D02*
X4911Y1751D01*
X4886Y1740D01*
X4864Y1724D01*
X4848Y1702D01*
X4837Y1677D01*
X4834Y1650D01*
X4837Y1623D01*
X4848Y1598D01*
X4864Y1576D01*
X4886Y1560D01*
X4911Y1549D01*
X4938Y1546D01*
X4965Y1549D01*
X4990Y1560D01*
X5012Y1576D01*
X5028Y1598D01*
X5039Y1623D01*
X5042Y1650D01*
X5039Y1677D01*
X5028Y1702D01*
X5012Y1724D01*
X4990Y1740D01*
X4965Y1751D01*
X4938Y1754D01*
D02*
G37*
G36*
X4684D02*
X4657Y1751D01*
X4632Y1740D01*
X4610Y1724D01*
X4594Y1702D01*
X4583Y1677D01*
X4580Y1650D01*
X4583Y1623D01*
X4594Y1598D01*
X4610Y1576D01*
X4632Y1560D01*
X4657Y1549D01*
X4684Y1546D01*
X4711Y1549D01*
X4736Y1560D01*
X4758Y1576D01*
X4774Y1598D01*
X4785Y1623D01*
X4788Y1650D01*
X4785Y1677D01*
X4774Y1702D01*
X4758Y1724D01*
X4736Y1740D01*
X4711Y1751D01*
X4684Y1754D01*
D02*
G37*
G36*
X4430D02*
X4403Y1751D01*
X4378Y1740D01*
X4356Y1724D01*
X4340Y1702D01*
X4329Y1677D01*
X4326Y1650D01*
X4329Y1623D01*
X4340Y1598D01*
X4356Y1576D01*
X4378Y1560D01*
X4403Y1549D01*
X4430Y1546D01*
X4457Y1549D01*
X4482Y1560D01*
X4504Y1576D01*
X4520Y1598D01*
X4531Y1623D01*
X4534Y1650D01*
X4531Y1677D01*
X4520Y1702D01*
X4504Y1724D01*
X4482Y1740D01*
X4457Y1751D01*
X4430Y1754D01*
D02*
G37*
G36*
X3263Y1753D02*
X3057D01*
Y1547D01*
X3263D01*
Y1753D01*
D02*
G37*
G36*
X5954Y1754D02*
X5927Y1751D01*
X5902Y1740D01*
X5880Y1724D01*
X5864Y1702D01*
X5853Y1677D01*
X5850Y1650D01*
X5853Y1623D01*
X5864Y1598D01*
X5880Y1576D01*
X5902Y1560D01*
X5927Y1549D01*
X5954Y1546D01*
X5981Y1549D01*
X6006Y1560D01*
X6028Y1576D01*
X6044Y1598D01*
X6055Y1623D01*
X6058Y1650D01*
X6055Y1677D01*
X6044Y1702D01*
X6028Y1724D01*
X6006Y1740D01*
X5981Y1751D01*
X5954Y1754D01*
D02*
G37*
G36*
X5700D02*
X5673Y1751D01*
X5648Y1740D01*
X5626Y1724D01*
X5610Y1702D01*
X5599Y1677D01*
X5596Y1650D01*
X5599Y1623D01*
X5610Y1598D01*
X5626Y1576D01*
X5648Y1560D01*
X5673Y1549D01*
X5700Y1546D01*
X5727Y1549D01*
X5752Y1560D01*
X5774Y1576D01*
X5790Y1598D01*
X5801Y1623D01*
X5804Y1650D01*
X5801Y1677D01*
X5790Y1702D01*
X5774Y1724D01*
X5752Y1740D01*
X5727Y1751D01*
X5700Y1754D01*
D02*
G37*
%LPD*%
D10*
X890Y485D02*
X1025D01*
X1970D02*
X2105D01*
X2200Y390D01*
X3260D01*
X3355Y485D01*
X3490D01*
X3625D01*
X3720Y390D01*
X4340D01*
X4435Y485D01*
X4570D01*
X4705D01*
X6260Y390D02*
X6355Y485D01*
X6490D01*
X6625D01*
X6720Y390D01*
X7340D01*
X7435Y485D01*
X7570D01*
X620D02*
X755D01*
X850Y390D01*
X930D01*
X930Y390D01*
X1013D01*
X1740Y270D02*
X1860Y390D01*
X2094D01*
X2169Y314D01*
X3176D01*
X3220Y270D01*
X3250D01*
X3370Y390D01*
X3450D01*
X3530Y390D02*
X3530Y390D01*
X3613D01*
X3689Y314D01*
X4256D01*
X4300Y270D01*
X4340D01*
X4450Y380D01*
X4703D01*
X6176Y314D02*
X6220Y270D01*
X6247D01*
X6366Y390D01*
X6530D01*
X6530Y390D01*
X6613D01*
X6689Y314D01*
X7256D01*
X7300Y270D01*
X2550Y580D02*
X2645Y485D01*
X2780D01*
X3085D01*
X3180Y580D01*
X3895Y485D02*
X4030D01*
X4165D01*
X4260Y580D01*
X5245Y485D02*
X5380D01*
X6085D01*
X6180Y580D01*
X6895Y485D02*
X7030D01*
X7165D01*
X7260Y580D01*
X8256D01*
X8352Y485D01*
X1160D02*
X1295D01*
X1390Y580D01*
X1470D01*
X2456Y656D02*
X2500Y700D01*
X2544Y656D01*
X2581D01*
X2637Y600D01*
X3093D01*
X3149Y656D01*
X3672D01*
X3716Y700D02*
X3760D01*
X3800Y580D02*
X3895Y485D01*
X3672Y656D02*
X3716Y700D01*
X3180Y580D02*
X3800D01*
X3760Y700D02*
X3790D01*
X3900Y590D01*
X4163D01*
X4229Y656D01*
X5012D01*
X5056Y700D02*
X5110D01*
X5150Y580D02*
X5245Y485D01*
X5012Y656D02*
X5056Y700D01*
X4260Y580D02*
X5150D01*
X6180D02*
X6800D01*
X6895Y485D01*
X5110Y700D02*
X5140D01*
X5240Y600D01*
X6093D01*
X6149Y656D01*
X6716D01*
X6760Y700D01*
X1013Y390D02*
X1089Y314D01*
X1025Y485D02*
X1120Y390D01*
X1700Y270D02*
X1740D01*
X1656Y314D02*
X1700Y270D01*
X1740Y390D02*
X1835Y485D01*
X1970D01*
X1089Y314D02*
X1656D01*
X1120Y390D02*
X1740D01*
X1430Y485D02*
X1565D01*
X1660Y580D01*
X2550D01*
X1546Y656D02*
X2456D01*
X1470Y580D02*
X1470Y580D01*
X1546Y656D01*
X2240Y200D02*
X2279D01*
X4491Y300D02*
X4677D01*
X6173Y156D02*
X6267D01*
X6595Y302D02*
X6658Y239D01*
X7170D01*
X7253Y156D01*
X7347D01*
X7414Y223D01*
Y344D01*
X7460Y390D01*
X7610D01*
X7705Y485D01*
X7840D01*
X4347Y156D02*
X4491Y300D01*
X2279Y200D02*
X2318Y239D01*
X3561Y314D02*
X3561Y315D01*
X3582D01*
X3658Y239D01*
X4253Y156D02*
X4347D01*
X3658Y239D02*
X4170D01*
X2318D02*
X3090D01*
X3173Y156D01*
X4170Y239D02*
X4253Y156D01*
X3450Y390D02*
X3450Y390D01*
X3530D01*
X3173Y156D02*
X3276D01*
X3434Y314D01*
X3561D01*
X6267Y156D02*
X6413Y302D01*
X6595D01*
X4850Y190D02*
X4890Y230D01*
X6099D01*
X6173Y156D01*
X4738Y239D02*
X4801D01*
X4850Y190D01*
X4705Y485D02*
X4800Y390D01*
X6260D01*
X4703Y380D02*
X4769Y314D01*
X6176D01*
X4677Y300D02*
X4738Y239D01*
X1430Y2015D02*
X1565D01*
X1660Y1920D01*
X2570D01*
X2665Y2015D01*
X2780D01*
X3800Y1920D02*
X3895Y2015D01*
X4030D01*
X4165D01*
X4260Y1920D01*
X4340D01*
X4340Y1920D01*
X4530D01*
X4530Y1920D01*
X5160D01*
X5255Y2015D01*
X5380D01*
X6085D01*
X6180Y1920D01*
X6800D01*
X6895Y2015D01*
X7030D01*
X7165D01*
X7260Y1920D01*
X8150D01*
X8245Y2015D01*
X8380D01*
X1160D02*
X1295D01*
X1390Y1920D01*
X1470D01*
X1470Y1920D01*
X1553D01*
X1629Y1844D01*
X2466D01*
X2510Y1800D01*
X2557D01*
X2676Y1920D01*
X3716Y1844D02*
X3760Y1800D01*
X3787D01*
X3906Y1920D01*
X4154D01*
X4229Y1844D01*
X4371D01*
X4371Y1845D01*
X4499D01*
X4499Y1844D01*
X5073D01*
X5112Y1806D01*
X5156D01*
X5267Y1917D01*
X6077D01*
X6149Y1844D01*
X6716D01*
X6760Y1800D01*
X6787D01*
X6897Y1910D01*
X7163D01*
X7229Y1844D01*
X8066D01*
X8110Y1800D01*
X890Y2015D02*
X1025D01*
X1120Y2110D01*
X1200D01*
X1200Y2110D01*
X1390D01*
X1390Y2110D01*
X3390Y2020D02*
X3485D01*
X3490Y2015D01*
X3625D01*
X3720Y2110D01*
X5420D01*
X5420Y2110D01*
X6180D01*
X6180Y2110D01*
X6280D01*
X6375Y2015D01*
X6490D01*
X620D02*
X755D01*
X926Y2186D01*
X2186D01*
X2230Y2230D01*
X2256D01*
X2300Y2186D01*
X3176D01*
X3220Y2230D02*
X3264Y2186D01*
X3331D01*
X3397Y2120D01*
X3623D01*
X3689Y2186D01*
X4820D01*
X4830Y2196D01*
Y2230D01*
X4874Y2186D01*
X6196D01*
X6230Y2220D01*
Y2230D01*
X6267D01*
X6392Y2105D01*
X6406D01*
X6412Y2110D01*
X7610D01*
X7705Y2015D01*
X7840D01*
X6760Y700D02*
X6790D01*
X6900Y590D01*
X7163D01*
X7229Y656D01*
X8344D01*
X8475Y525D01*
Y445D02*
Y525D01*
X8420Y390D02*
X8475Y445D01*
X8340Y390D02*
X8420D01*
X8245Y485D02*
X8340Y390D01*
X8110Y485D02*
X8245D01*
X7840D02*
X7975D01*
X8070Y390D01*
X8234D01*
X8309Y314D01*
X8451D01*
X8551Y414D01*
Y1979D01*
X8344Y2186D02*
X8551Y1979D01*
X6544Y2186D02*
X8344D01*
X6500Y2230D02*
X6544Y2186D01*
X5446Y1650D02*
Y1726D01*
X5561Y1841D01*
X6046D01*
X6118Y1769D01*
X6630D01*
X6713Y1686D01*
X6811D01*
X6960Y1835D01*
X7132D01*
X7198Y1769D01*
X7531D01*
X7570Y1730D01*
X5700Y888D02*
X5857Y731D01*
X6630D01*
X6713Y814D01*
X6807D01*
X6874Y747D01*
Y746D02*
Y747D01*
Y746D02*
X6950Y670D01*
X7137D01*
X7198Y731D01*
X8427D01*
X8475Y780D01*
Y1855D01*
X8420Y1910D02*
X8475Y1855D01*
X8247Y1910D02*
X8420D01*
X8181Y1844D02*
X8247Y1910D01*
X8154Y1844D02*
X8181D01*
X5318Y1016D02*
X5446Y888D01*
X620Y1070D02*
Y2015D01*
Y1070D02*
X674Y1016D01*
X5318D01*
X3848Y1470D02*
X7300D01*
X3668Y1650D02*
X3848Y1470D01*
X5270Y1280D02*
X6360D01*
X2676Y1920D02*
X3074D01*
X3149Y1844D01*
X3716D01*
X2780Y2015D02*
X3085D01*
X3180Y1920D01*
X3800D01*
X1390Y2110D02*
X3300D01*
X3390Y2020D01*
X3176Y2186D02*
X3220Y2230D01*
X3580Y1310D02*
X3650Y1380D01*
X3100Y1310D02*
X3580D01*
D11*
X2780Y2015D02*
D03*
X2510D02*
D03*
X2240D02*
D03*
X1970D02*
D03*
X1700D02*
D03*
X1430D02*
D03*
X1160D02*
D03*
X890D02*
D03*
X620D02*
D03*
X2780Y485D02*
D03*
X2510D02*
D03*
X2240D02*
D03*
X1970D02*
D03*
X1700D02*
D03*
X1430D02*
D03*
X1160D02*
D03*
X890D02*
D03*
X620D02*
D03*
X8380Y2015D02*
D03*
X8110D02*
D03*
X7840D02*
D03*
X7570D02*
D03*
X7300D02*
D03*
X7030D02*
D03*
X6760D02*
D03*
X6490D02*
D03*
X6220D02*
D03*
X8380Y485D02*
D03*
X8110D02*
D03*
X7840D02*
D03*
X7570D02*
D03*
X7300D02*
D03*
X7030D02*
D03*
X6760D02*
D03*
X6490D02*
D03*
X6220D02*
D03*
X5380Y2015D02*
D03*
X5110D02*
D03*
X4840D02*
D03*
X4570D02*
D03*
X4300D02*
D03*
X4030D02*
D03*
X3760D02*
D03*
X3490D02*
D03*
X3220D02*
D03*
X5380Y485D02*
D03*
X5110D02*
D03*
X4840D02*
D03*
X4570D02*
D03*
X4300D02*
D03*
X4030D02*
D03*
X3760D02*
D03*
X3490D02*
D03*
X3220D02*
D03*
D12*
X5954Y888D02*
D03*
X5700D02*
D03*
X5446D02*
D03*
X5192D02*
D03*
X4938D02*
D03*
X4684D02*
D03*
X4430D02*
D03*
X4176D02*
D03*
X3922D02*
D03*
X3668D02*
D03*
X3414D02*
D03*
X3160D02*
D03*
X5954Y1650D02*
D03*
X5700D02*
D03*
X5446D02*
D03*
X5192D02*
D03*
X4938D02*
D03*
X4684D02*
D03*
X4430D02*
D03*
X4176D02*
D03*
X3922D02*
D03*
X3668D02*
D03*
X3414D02*
D03*
D13*
X3160D02*
D03*
D14*
X250Y300D02*
D03*
X8760D02*
D03*
X3750Y2600D02*
D03*
X5250D02*
D03*
D15*
X3220Y270D02*
D03*
X4300D02*
D03*
X6220D02*
D03*
X7300D02*
D03*
X2500Y700D02*
D03*
X3760D02*
D03*
X5110D02*
D03*
X6760D02*
D03*
X1700Y270D02*
D03*
X2240Y200D02*
D03*
X4850Y190D02*
D03*
X2510Y1800D02*
D03*
X3760D02*
D03*
X5112Y1806D02*
D03*
X6760Y1800D02*
D03*
X8110D02*
D03*
X2230Y2230D02*
D03*
X4830D02*
D03*
X6230D02*
D03*
X6500Y2230D02*
D03*
X7570Y1730D02*
D03*
X7300Y1470D02*
D03*
X5270Y1280D02*
D03*
X6360D02*
D03*
X3220Y2230D02*
D03*
X3650Y1380D02*
D03*
X3100Y1310D02*
D03*
M02*
