G04 Layer_Color=128*
%FSLAX42Y42*%
%MOMM*%
G71*
G01*
G75*
%ADD30C,0.13*%
D30*
X2750Y2015D02*
X2810D01*
X2780Y1985D02*
Y2045D01*
X2480Y2015D02*
X2540D01*
X2510Y1985D02*
Y2045D01*
X2210Y2015D02*
X2270D01*
X2240Y1985D02*
Y2045D01*
X1940Y2015D02*
X2000D01*
X1970Y1985D02*
Y2045D01*
X1670Y2015D02*
X1730D01*
X1700Y1985D02*
Y2045D01*
X1400Y2015D02*
X1460D01*
X1430Y1985D02*
Y2045D01*
X1130Y2015D02*
X1190D01*
X1160Y1985D02*
Y2045D01*
X860Y2015D02*
X920D01*
X890Y1985D02*
Y2045D01*
X590Y2015D02*
X650D01*
X620Y1985D02*
Y2045D01*
X2750Y485D02*
X2810D01*
X2780Y455D02*
Y515D01*
X2480Y485D02*
X2540D01*
X2510Y455D02*
Y515D01*
X2210Y485D02*
X2270D01*
X2240Y455D02*
Y515D01*
X1940Y485D02*
X2000D01*
X1970Y455D02*
Y515D01*
X1670Y485D02*
X1730D01*
X1700Y455D02*
Y515D01*
X1400Y485D02*
X1460D01*
X1430Y455D02*
Y515D01*
X1130Y485D02*
X1190D01*
X1160Y455D02*
Y515D01*
X860Y485D02*
X920D01*
X890Y455D02*
Y515D01*
X590Y485D02*
X650D01*
X620Y455D02*
Y515D01*
X5926Y888D02*
X5982D01*
X5954Y860D02*
Y916D01*
X5672Y888D02*
X5728D01*
X5700Y860D02*
Y916D01*
X5418Y888D02*
X5474D01*
X5446Y860D02*
Y916D01*
X5164Y888D02*
X5220D01*
X5192Y860D02*
Y916D01*
X4910Y888D02*
X4966D01*
X4938Y860D02*
Y916D01*
X4656Y888D02*
X4712D01*
X4684Y860D02*
Y916D01*
X4402Y888D02*
X4458D01*
X4430Y860D02*
Y916D01*
X4148Y888D02*
X4204D01*
X4176Y860D02*
Y916D01*
X3894Y888D02*
X3950D01*
X3922Y860D02*
Y916D01*
X3640Y888D02*
X3696D01*
X3668Y860D02*
Y916D01*
X3386Y888D02*
X3442D01*
X3414Y860D02*
Y916D01*
X3132Y888D02*
X3188D01*
X3160Y860D02*
Y916D01*
X5926Y1650D02*
X5982D01*
X5954Y1622D02*
Y1678D01*
X5672Y1650D02*
X5728D01*
X5700Y1622D02*
Y1678D01*
X5418Y1650D02*
X5474D01*
X5446Y1622D02*
Y1678D01*
X5164Y1650D02*
X5220D01*
X5192Y1622D02*
Y1678D01*
X4910Y1650D02*
X4966D01*
X4938Y1622D02*
Y1678D01*
X4656Y1650D02*
X4712D01*
X4684Y1622D02*
Y1678D01*
X4402Y1650D02*
X4458D01*
X4430Y1622D02*
Y1678D01*
X4148Y1650D02*
X4204D01*
X4176Y1622D02*
Y1678D01*
X3894Y1650D02*
X3950D01*
X3922Y1622D02*
Y1678D01*
X3640Y1650D02*
X3696D01*
X3668Y1622D02*
Y1678D01*
X3386Y1650D02*
X3442D01*
X3414Y1622D02*
Y1678D01*
X3132Y1650D02*
X3188D01*
X3160Y1622D02*
Y1678D01*
X150Y300D02*
X350D01*
X250Y200D02*
Y400D01*
X8660Y300D02*
X8860D01*
X8760Y200D02*
Y400D01*
X3650Y2600D02*
X3850D01*
X3750Y2500D02*
Y2700D01*
X5150Y2600D02*
X5350D01*
X5250Y2500D02*
Y2700D01*
X8350Y2015D02*
X8410D01*
X8380Y1985D02*
Y2045D01*
X8080Y2015D02*
X8140D01*
X8110Y1985D02*
Y2045D01*
X7810Y2015D02*
X7870D01*
X7840Y1985D02*
Y2045D01*
X7540Y2015D02*
X7600D01*
X7570Y1985D02*
Y2045D01*
X7270Y2015D02*
X7330D01*
X7300Y1985D02*
Y2045D01*
X7000Y2015D02*
X7060D01*
X7030Y1985D02*
Y2045D01*
X6730Y2015D02*
X6790D01*
X6760Y1985D02*
Y2045D01*
X6460Y2015D02*
X6520D01*
X6490Y1985D02*
Y2045D01*
X6190Y2015D02*
X6250D01*
X6220Y1985D02*
Y2045D01*
X8350Y485D02*
X8410D01*
X8380Y455D02*
Y515D01*
X8080Y485D02*
X8140D01*
X8110Y455D02*
Y515D01*
X7810Y485D02*
X7870D01*
X7840Y455D02*
Y515D01*
X7540Y485D02*
X7600D01*
X7570Y455D02*
Y515D01*
X7270Y485D02*
X7330D01*
X7300Y455D02*
Y515D01*
X7000Y485D02*
X7060D01*
X7030Y455D02*
Y515D01*
X6730Y485D02*
X6790D01*
X6760Y455D02*
Y515D01*
X6460Y485D02*
X6520D01*
X6490Y455D02*
Y515D01*
X6190Y485D02*
X6250D01*
X6220Y455D02*
Y515D01*
X5350Y2015D02*
X5410D01*
X5380Y1985D02*
Y2045D01*
X5080Y2015D02*
X5140D01*
X5110Y1985D02*
Y2045D01*
X4810Y2015D02*
X4870D01*
X4840Y1985D02*
Y2045D01*
X4540Y2015D02*
X4600D01*
X4570Y1985D02*
Y2045D01*
X4270Y2015D02*
X4330D01*
X4300Y1985D02*
Y2045D01*
X4000Y2015D02*
X4060D01*
X4030Y1985D02*
Y2045D01*
X3730Y2015D02*
X3790D01*
X3760Y1985D02*
Y2045D01*
X3460Y2015D02*
X3520D01*
X3490Y1985D02*
Y2045D01*
X3190Y2015D02*
X3250D01*
X3220Y1985D02*
Y2045D01*
X5350Y485D02*
X5410D01*
X5380Y455D02*
Y515D01*
X5080Y485D02*
X5140D01*
X5110Y455D02*
Y515D01*
X4810Y485D02*
X4870D01*
X4840Y455D02*
Y515D01*
X4540Y485D02*
X4600D01*
X4570Y455D02*
Y515D01*
X4270Y485D02*
X4330D01*
X4300Y455D02*
Y515D01*
X4000Y485D02*
X4060D01*
X4030Y455D02*
Y515D01*
X3730Y485D02*
X3790D01*
X3760Y455D02*
Y515D01*
X3460Y485D02*
X3520D01*
X3490Y455D02*
Y515D01*
X3190Y485D02*
X3250D01*
X3220Y455D02*
Y515D01*
X3184Y270D02*
X3256D01*
X3220Y234D02*
Y306D01*
X4264Y270D02*
X4336D01*
X4300Y234D02*
Y306D01*
X6184Y270D02*
X6256D01*
X6220Y234D02*
Y306D01*
X7264Y270D02*
X7336D01*
X7300Y234D02*
Y306D01*
X2464Y700D02*
X2536D01*
X2500Y664D02*
Y736D01*
X3724Y700D02*
X3796D01*
X3760Y664D02*
Y736D01*
X5074Y700D02*
X5146D01*
X5110Y664D02*
Y736D01*
X6724Y700D02*
X6796D01*
X6760Y664D02*
Y736D01*
X1664Y270D02*
X1736D01*
X1700Y234D02*
Y306D01*
X2204Y200D02*
X2276D01*
X2240Y164D02*
Y236D01*
X4814Y190D02*
X4886D01*
X4850Y154D02*
Y226D01*
X2474Y1800D02*
X2546D01*
X2510Y1764D02*
Y1836D01*
X3724Y1800D02*
X3796D01*
X3760Y1764D02*
Y1836D01*
X5076Y1806D02*
X5147D01*
X5112Y1770D02*
Y1841D01*
X6724Y1800D02*
X6796D01*
X6760Y1764D02*
Y1836D01*
X8074Y1800D02*
X8146D01*
X8110Y1764D02*
Y1836D01*
X2194Y2230D02*
X2266D01*
X2230Y2194D02*
Y2266D01*
X4794Y2230D02*
X4866D01*
X4830Y2194D02*
Y2266D01*
X6194Y2230D02*
X6266D01*
X6230Y2194D02*
Y2266D01*
X6464Y2230D02*
X6536D01*
X6500Y2194D02*
Y2266D01*
X7534Y1730D02*
X7606D01*
X7570Y1694D02*
Y1766D01*
X7264Y1470D02*
X7336D01*
X7300Y1434D02*
Y1506D01*
X5234Y1280D02*
X5306D01*
X5270Y1244D02*
Y1316D01*
X6324Y1280D02*
X6396D01*
X6360Y1244D02*
Y1316D01*
X3184Y2230D02*
X3256D01*
X3220Y2194D02*
Y2266D01*
X3614Y1380D02*
X3686D01*
X3650Y1344D02*
Y1416D01*
X3064Y1310D02*
X3136D01*
X3100Y1274D02*
Y1346D01*
M02*
