G04 Layer_Color=2752767*
%FSLAX42Y42*%
%MOMM*%
G71*
G01*
G75*
%ADD30C,0.13*%
%ADD31C,0.17*%
D30*
X2729Y1964D02*
Y2066D01*
X2831D01*
Y1964D01*
X2729D01*
X2459D02*
Y2066D01*
X2561D01*
Y1964D01*
X2459D01*
X2189D02*
Y2066D01*
X2291D01*
Y1964D01*
X2189D01*
X1919D02*
Y2066D01*
X2021D01*
Y1964D01*
X1919D01*
X1649D02*
Y2066D01*
X1751D01*
Y1964D01*
X1649D01*
X1379D02*
Y2066D01*
X1481D01*
Y1964D01*
X1379D01*
X1109D02*
Y2066D01*
X1211D01*
Y1964D01*
X1109D01*
X839D02*
Y2066D01*
X941D01*
Y1964D01*
X839D01*
X569D02*
Y2066D01*
X671D01*
Y1964D01*
X569D01*
X2729Y434D02*
Y536D01*
X2831D01*
Y434D01*
X2729D01*
X2459D02*
Y536D01*
X2561D01*
Y434D01*
X2459D01*
X2189D02*
Y536D01*
X2291D01*
Y434D01*
X2189D01*
X1919D02*
Y536D01*
X2021D01*
Y434D01*
X1919D01*
X1649D02*
Y536D01*
X1751D01*
Y434D01*
X1649D01*
X1379D02*
Y536D01*
X1481D01*
Y434D01*
X1379D01*
X1109D02*
Y536D01*
X1211D01*
Y434D01*
X1109D01*
X839D02*
Y536D01*
X941D01*
Y434D01*
X839D01*
X569D02*
Y536D01*
X671D01*
Y434D01*
X569D01*
X250Y249D02*
X199Y351D01*
X301D01*
X250Y249D01*
X8760D02*
X8709Y351D01*
X8811D01*
X8760Y249D01*
X3750Y2549D02*
X3699Y2651D01*
X3801D01*
X3750Y2549D01*
X5250D02*
X5199Y2651D01*
X5301D01*
X5250Y2549D01*
X8329Y1964D02*
Y2066D01*
X8431D01*
Y1964D01*
X8329D01*
X8059D02*
Y2066D01*
X8161D01*
Y1964D01*
X8059D01*
X7789D02*
Y2066D01*
X7891D01*
Y1964D01*
X7789D01*
X7519D02*
Y2066D01*
X7621D01*
Y1964D01*
X7519D01*
X7249D02*
Y2066D01*
X7351D01*
Y1964D01*
X7249D01*
X6979D02*
Y2066D01*
X7081D01*
Y1964D01*
X6979D01*
X6709D02*
Y2066D01*
X6811D01*
Y1964D01*
X6709D01*
X6439D02*
Y2066D01*
X6541D01*
Y1964D01*
X6439D01*
X6169D02*
Y2066D01*
X6271D01*
Y1964D01*
X6169D01*
X8329Y434D02*
Y536D01*
X8431D01*
Y434D01*
X8329D01*
X8059D02*
Y536D01*
X8161D01*
Y434D01*
X8059D01*
X7789D02*
Y536D01*
X7891D01*
Y434D01*
X7789D01*
X7519D02*
Y536D01*
X7621D01*
Y434D01*
X7519D01*
X7249D02*
Y536D01*
X7351D01*
Y434D01*
X7249D01*
X6979D02*
Y536D01*
X7081D01*
Y434D01*
X6979D01*
X6709D02*
Y536D01*
X6811D01*
Y434D01*
X6709D01*
X6439D02*
Y536D01*
X6541D01*
Y434D01*
X6439D01*
X6169D02*
Y536D01*
X6271D01*
Y434D01*
X6169D01*
X5329Y1964D02*
Y2066D01*
X5431D01*
Y1964D01*
X5329D01*
X5059D02*
Y2066D01*
X5161D01*
Y1964D01*
X5059D01*
X4789D02*
Y2066D01*
X4891D01*
Y1964D01*
X4789D01*
X4519D02*
Y2066D01*
X4621D01*
Y1964D01*
X4519D01*
X4249D02*
Y2066D01*
X4351D01*
Y1964D01*
X4249D01*
X3979D02*
Y2066D01*
X4081D01*
Y1964D01*
X3979D01*
X3709D02*
Y2066D01*
X3811D01*
Y1964D01*
X3709D01*
X3439D02*
Y2066D01*
X3541D01*
Y1964D01*
X3439D01*
X3169D02*
Y2066D01*
X3271D01*
Y1964D01*
X3169D01*
X5329Y434D02*
Y536D01*
X5431D01*
Y434D01*
X5329D01*
X5059D02*
Y536D01*
X5161D01*
Y434D01*
X5059D01*
X4789D02*
Y536D01*
X4891D01*
Y434D01*
X4789D01*
X4519D02*
Y536D01*
X4621D01*
Y434D01*
X4519D01*
X4249D02*
Y536D01*
X4351D01*
Y434D01*
X4249D01*
X3979D02*
Y536D01*
X4081D01*
Y434D01*
X3979D01*
X3709D02*
Y536D01*
X3811D01*
Y434D01*
X3709D01*
X3439D02*
Y536D01*
X3541D01*
Y434D01*
X3439D01*
X3169D02*
Y536D01*
X3271D01*
Y434D01*
X3169D01*
X3220Y219D02*
X3245Y245D01*
X3271D01*
X3245Y270D01*
X3271Y295D01*
X3245D01*
X3220Y321D01*
X3195Y295D01*
X3169D01*
X3195Y270D01*
X3169Y245D01*
X3195D01*
X3220Y219D01*
X4300D02*
X4325Y245D01*
X4351D01*
X4325Y270D01*
X4351Y295D01*
X4325D01*
X4300Y321D01*
X4275Y295D01*
X4249D01*
X4275Y270D01*
X4249Y245D01*
X4275D01*
X4300Y219D01*
X6220D02*
X6245Y245D01*
X6271D01*
X6245Y270D01*
X6271Y295D01*
X6245D01*
X6220Y321D01*
X6195Y295D01*
X6169D01*
X6195Y270D01*
X6169Y245D01*
X6195D01*
X6220Y219D01*
X7300D02*
X7325Y245D01*
X7351D01*
X7325Y270D01*
X7351Y295D01*
X7325D01*
X7300Y321D01*
X7275Y295D01*
X7249D01*
X7275Y270D01*
X7249Y245D01*
X7275D01*
X7300Y219D01*
X2500Y649D02*
X2525Y675D01*
X2551D01*
X2525Y700D01*
X2551Y725D01*
X2525D01*
X2500Y751D01*
X2475Y725D01*
X2449D01*
X2475Y700D01*
X2449Y675D01*
X2475D01*
X2500Y649D01*
X3760D02*
X3785Y675D01*
X3811D01*
X3785Y700D01*
X3811Y725D01*
X3785D01*
X3760Y751D01*
X3735Y725D01*
X3709D01*
X3735Y700D01*
X3709Y675D01*
X3735D01*
X3760Y649D01*
X5110D02*
X5135Y675D01*
X5161D01*
X5135Y700D01*
X5161Y725D01*
X5135D01*
X5110Y751D01*
X5085Y725D01*
X5059D01*
X5085Y700D01*
X5059Y675D01*
X5085D01*
X5110Y649D01*
X6760D02*
X6785Y675D01*
X6811D01*
X6785Y700D01*
X6811Y725D01*
X6785D01*
X6760Y751D01*
X6735Y725D01*
X6709D01*
X6735Y700D01*
X6709Y675D01*
X6735D01*
X6760Y649D01*
X1700Y219D02*
X1725Y245D01*
X1751D01*
X1725Y270D01*
X1751Y295D01*
X1725D01*
X1700Y321D01*
X1675Y295D01*
X1649D01*
X1675Y270D01*
X1649Y245D01*
X1675D01*
X1700Y219D01*
X2240Y149D02*
X2265Y175D01*
X2291D01*
X2265Y200D01*
X2291Y225D01*
X2265D01*
X2240Y251D01*
X2215Y225D01*
X2189D01*
X2215Y200D01*
X2189Y175D01*
X2215D01*
X2240Y149D01*
X4850Y139D02*
X4875Y165D01*
X4901D01*
X4875Y190D01*
X4901Y215D01*
X4875D01*
X4850Y241D01*
X4825Y215D01*
X4799D01*
X4825Y190D01*
X4799Y165D01*
X4825D01*
X4850Y139D01*
X2510Y1749D02*
X2535Y1775D01*
X2561D01*
X2535Y1800D01*
X2561Y1825D01*
X2535D01*
X2510Y1851D01*
X2485Y1825D01*
X2459D01*
X2485Y1800D01*
X2459Y1775D01*
X2485D01*
X2510Y1749D01*
X3760D02*
X3785Y1775D01*
X3811D01*
X3785Y1800D01*
X3811Y1825D01*
X3785D01*
X3760Y1851D01*
X3735Y1825D01*
X3709D01*
X3735Y1800D01*
X3709Y1775D01*
X3735D01*
X3760Y1749D01*
X5112Y1755D02*
X5137Y1780D01*
X5162D01*
X5137Y1806D01*
X5162Y1831D01*
X5137D01*
X5112Y1857D01*
X5086Y1831D01*
X5061D01*
X5086Y1806D01*
X5061Y1780D01*
X5086D01*
X5112Y1755D01*
X6760Y1749D02*
X6785Y1775D01*
X6811D01*
X6785Y1800D01*
X6811Y1825D01*
X6785D01*
X6760Y1851D01*
X6735Y1825D01*
X6709D01*
X6735Y1800D01*
X6709Y1775D01*
X6735D01*
X6760Y1749D01*
X8110D02*
X8135Y1775D01*
X8161D01*
X8135Y1800D01*
X8161Y1825D01*
X8135D01*
X8110Y1851D01*
X8085Y1825D01*
X8059D01*
X8085Y1800D01*
X8059Y1775D01*
X8085D01*
X8110Y1749D01*
X2230Y2179D02*
X2255Y2205D01*
X2281D01*
X2255Y2230D01*
X2281Y2255D01*
X2255D01*
X2230Y2281D01*
X2205Y2255D01*
X2179D01*
X2205Y2230D01*
X2179Y2205D01*
X2205D01*
X2230Y2179D01*
X4830D02*
X4855Y2205D01*
X4881D01*
X4855Y2230D01*
X4881Y2255D01*
X4855D01*
X4830Y2281D01*
X4805Y2255D01*
X4779D01*
X4805Y2230D01*
X4779Y2205D01*
X4805D01*
X4830Y2179D01*
X6230D02*
X6255Y2205D01*
X6281D01*
X6255Y2230D01*
X6281Y2255D01*
X6255D01*
X6230Y2281D01*
X6205Y2255D01*
X6179D01*
X6205Y2230D01*
X6179Y2205D01*
X6205D01*
X6230Y2179D01*
X6500Y2179D02*
X6525Y2205D01*
X6551D01*
X6525Y2230D01*
X6551Y2255D01*
X6525D01*
X6500Y2281D01*
X6475Y2255D01*
X6449D01*
X6475Y2230D01*
X6449Y2205D01*
X6475D01*
X6500Y2179D01*
X7570Y1679D02*
X7595Y1705D01*
X7621D01*
X7595Y1730D01*
X7621Y1755D01*
X7595D01*
X7570Y1781D01*
X7545Y1755D01*
X7519D01*
X7545Y1730D01*
X7519Y1705D01*
X7545D01*
X7570Y1679D01*
X7300Y1419D02*
X7325Y1445D01*
X7351D01*
X7325Y1470D01*
X7351Y1495D01*
X7325D01*
X7300Y1521D01*
X7275Y1495D01*
X7249D01*
X7275Y1470D01*
X7249Y1445D01*
X7275D01*
X7300Y1419D01*
X5270Y1229D02*
X5295Y1255D01*
X5321D01*
X5295Y1280D01*
X5321Y1305D01*
X5295D01*
X5270Y1331D01*
X5245Y1305D01*
X5219D01*
X5245Y1280D01*
X5219Y1255D01*
X5245D01*
X5270Y1229D01*
X6360D02*
X6385Y1255D01*
X6411D01*
X6385Y1280D01*
X6411Y1305D01*
X6385D01*
X6360Y1331D01*
X6335Y1305D01*
X6309D01*
X6335Y1280D01*
X6309Y1255D01*
X6335D01*
X6360Y1229D01*
X3220Y2179D02*
X3245Y2205D01*
X3271D01*
X3245Y2230D01*
X3271Y2255D01*
X3245D01*
X3220Y2281D01*
X3195Y2255D01*
X3169D01*
X3195Y2230D01*
X3169Y2205D01*
X3195D01*
X3220Y2179D01*
X3650Y1329D02*
X3675Y1355D01*
X3701D01*
X3675Y1380D01*
X3701Y1405D01*
X3675D01*
X3650Y1431D01*
X3625Y1405D01*
X3599D01*
X3625Y1380D01*
X3599Y1355D01*
X3625D01*
X3650Y1329D01*
X3100Y1259D02*
X3125Y1285D01*
X3151D01*
X3125Y1310D01*
X3151Y1335D01*
X3125D01*
X3100Y1361D01*
X3075Y1335D01*
X3049D01*
X3075Y1310D01*
X3049Y1285D01*
X3075D01*
X3100Y1259D01*
D31*
X6005Y888D02*
G03*
X6005Y888I-51J0D01*
G01*
X5751D02*
G03*
X5751Y888I-51J0D01*
G01*
X5497D02*
G03*
X5497Y888I-51J0D01*
G01*
X5243D02*
G03*
X5243Y888I-51J0D01*
G01*
X4989D02*
G03*
X4989Y888I-51J0D01*
G01*
X4735D02*
G03*
X4735Y888I-51J0D01*
G01*
X4481D02*
G03*
X4481Y888I-51J0D01*
G01*
X4227D02*
G03*
X4227Y888I-51J0D01*
G01*
X3973D02*
G03*
X3973Y888I-51J0D01*
G01*
X3719D02*
G03*
X3719Y888I-51J0D01*
G01*
X3465D02*
G03*
X3465Y888I-51J0D01*
G01*
X3211D02*
G03*
X3211Y888I-51J0D01*
G01*
X6005Y1650D02*
G03*
X6005Y1650I-51J0D01*
G01*
X5751D02*
G03*
X5751Y1650I-51J0D01*
G01*
X5497D02*
G03*
X5497Y1650I-51J0D01*
G01*
X5243D02*
G03*
X5243Y1650I-51J0D01*
G01*
X4989D02*
G03*
X4989Y1650I-51J0D01*
G01*
X4735D02*
G03*
X4735Y1650I-51J0D01*
G01*
X4481D02*
G03*
X4481Y1650I-51J0D01*
G01*
X4227D02*
G03*
X4227Y1650I-51J0D01*
G01*
X3973D02*
G03*
X3973Y1650I-51J0D01*
G01*
X3719D02*
G03*
X3719Y1650I-51J0D01*
G01*
X3465D02*
G03*
X3465Y1650I-51J0D01*
G01*
X3211D02*
G03*
X3211Y1650I-51J0D01*
G01*
M02*
