M48
;Layer_Color=9474304
;FILE_FORMAT=4:2
METRIC,LZ
;TYPE=PLATED
T1F00S00C0.50
T2F00S00C2.00
%
T01
X00693Y0003
X0072Y00036
X007443Y000398
X007446Y000638
X0077
X007954
X00796Y00046
X008208Y000638
X008462
X008471Y001119
X008218Y001123
X008344Y001421
X00847Y00162
X008462Y002162
X008208
X007954
X0077
X007446
X00744Y00239
X0072Y00244
X007192Y002162
X006938
X00659Y00218
X007085Y001875
X00746Y00168
X00733Y00143
X00771Y00112
X00797Y00137
X00784Y00168
X007192Y000638
X006938
X00892Y00106
Y00261
X00573Y00219
Y00191
X006046Y001576
Y001226
X00592Y00086
X005062Y000638
X004808
X004554
X00456Y00039
X0043Y000638
X004046
X003792
X003538
X00354Y00027
X00378Y00028
X00405Y00034
X00383Y00087
X003954Y001226
Y001574
X003446
Y001226
X003319Y000881
X00285Y00074
X002462Y000638
X00235Y00075
X002554Y001226
Y001574
X00276Y00141
X002462Y002162
X00328Y00225
X003538Y002162
X003792
X004046
X0043
X00419Y0023
X004554Y002162
X004808
X005062
X00503Y00193
X005154Y001576
Y001226
X004646
Y001576
X00442Y00141
X00431Y00091
X00452Y00086
X00332Y00194
X002208Y002162
X001954
X0017
X001446
X001192
X000938
X00123Y00194
X001354Y001576
X00135Y00123
X00104Y00141
X000846Y001576
X000846Y001226
X000719Y000881
X000938Y000638
X001192
X001446
X0017
X001954
X002208
X001921Y000881
X00204Y00123
X002046Y001576
T02
X0091Y0003
X00595Y00305
X00345
X0003Y0003
M30
