G04 Layer_Physical_Order=2*
G04 Layer_Color=16711680*
%FSLAX42Y42*%
%MOMM*%
G71*
G01*
G75*
%ADD10C,0.25*%
%ADD11C,0.50*%
%ADD12C,1.00*%
%ADD13C,3.50*%
%ADD14C,1.27*%
G04:AMPARAMS|DCode=15|XSize=0.6mm|YSize=1.65mm|CornerRadius=0.05mm|HoleSize=0mm|Usage=FLASHONLY|Rotation=180.000|XOffset=0mm|YOffset=0mm|HoleType=Round|Shape=RoundedRectangle|*
%AMROUNDEDRECTD15*
21,1,0.60,1.55,0,0,180.0*
21,1,0.50,1.65,0,0,180.0*
1,1,0.10,-0.25,0.77*
1,1,0.10,0.25,0.77*
1,1,0.10,0.25,-0.77*
1,1,0.10,-0.25,-0.77*
%
%ADD15ROUNDEDRECTD15*%
%ADD16O,0.60X1.90*%
%ADD17R,1.50X3.00*%
%ADD18R,1.50X1.25*%
%ADD19C,1.00*%
G36*
X2059Y1684D02*
X2059Y1680D01*
X2071D01*
X2069Y1680D01*
X2067Y1679D01*
X2065Y1678D01*
X2063Y1676D01*
X2062Y1674D01*
X2061Y1671D01*
X2060Y1670D01*
X2061Y1663D01*
X2063Y1654D01*
X2065Y1645D01*
X2068Y1637D01*
X2071Y1629D01*
X2075Y1621D01*
X2080Y1614D01*
X2084Y1608D01*
X2008D01*
X2012Y1614D01*
X2017Y1621D01*
X2021Y1629D01*
X2024Y1637D01*
X2027Y1645D01*
X2029Y1654D01*
X2031Y1663D01*
X2032Y1669D01*
X2031Y1671D01*
X2030Y1674D01*
X2029Y1676D01*
X2027Y1678D01*
X2025Y1679D01*
X2023Y1680D01*
X2021Y1680D01*
X2033D01*
X2033Y1684D01*
X2033Y1694D01*
X2059D01*
X2059Y1684D01*
D02*
G37*
G36*
X744Y982D02*
X746Y956D01*
X748D01*
X747Y956D01*
X746Y954D01*
X746Y952D01*
X746Y950D01*
X747Y941D01*
X751Y927D01*
X753Y921D01*
X755Y917D01*
X757Y913D01*
X744D01*
X744Y905D01*
X694D01*
X694Y913D01*
X681D01*
X683Y917D01*
X685Y921D01*
X687Y927D01*
X689Y934D01*
X691Y941D01*
X692Y952D01*
X692Y954D01*
X691Y956D01*
X690Y956D01*
X692D01*
X693Y960D01*
X693Y970D01*
X694Y994D01*
X744D01*
X744Y982D01*
D02*
G37*
G36*
X859Y1684D02*
X859Y1680D01*
X871D01*
X869Y1680D01*
X867Y1679D01*
X865Y1678D01*
X863Y1676D01*
X862Y1674D01*
X861Y1671D01*
X860Y1670D01*
X861Y1663D01*
X863Y1654D01*
X865Y1645D01*
X868Y1637D01*
X871Y1629D01*
X875Y1621D01*
X880Y1614D01*
X884Y1608D01*
X808D01*
X812Y1614D01*
X817Y1621D01*
X821Y1629D01*
X824Y1637D01*
X827Y1645D01*
X829Y1654D01*
X831Y1663D01*
X832Y1669D01*
X831Y1671D01*
X830Y1674D01*
X829Y1676D01*
X827Y1678D01*
X825Y1679D01*
X823Y1680D01*
X821Y1680D01*
X833D01*
X833Y1684D01*
X833Y1694D01*
X859D01*
X859Y1684D01*
D02*
G37*
G36*
X1367D02*
X1367Y1680D01*
X1379D01*
X1377Y1680D01*
X1375Y1679D01*
X1373Y1678D01*
X1371Y1676D01*
X1370Y1674D01*
X1369Y1671D01*
X1368Y1670D01*
X1369Y1663D01*
X1371Y1654D01*
X1373Y1645D01*
X1376Y1637D01*
X1379Y1629D01*
X1383Y1621D01*
X1388Y1614D01*
X1392Y1608D01*
X1316D01*
X1320Y1614D01*
X1325Y1621D01*
X1329Y1629D01*
X1332Y1637D01*
X1335Y1645D01*
X1337Y1654D01*
X1339Y1663D01*
X1340Y1669D01*
X1339Y1671D01*
X1338Y1674D01*
X1337Y1676D01*
X1335Y1678D01*
X1333Y1679D01*
X1331Y1680D01*
X1329Y1680D01*
X1341D01*
X1341Y1684D01*
X1341Y1694D01*
X1367D01*
X1367Y1684D01*
D02*
G37*
G36*
X1946Y982D02*
X1948Y950D01*
X1949Y941D01*
X1953Y927D01*
X1955Y921D01*
X1957Y917D01*
X1959Y913D01*
X1946D01*
X1946Y906D01*
X1896Y905D01*
X1896Y913D01*
X1883D01*
X1885Y917D01*
X1887Y921D01*
X1889Y927D01*
X1891Y934D01*
X1893Y941D01*
X1894Y949D01*
X1893Y951D01*
X1892Y954D01*
X1891Y955D01*
X1890Y956D01*
X1894D01*
X1895Y960D01*
X1895Y970D01*
X1896Y994D01*
X1946D01*
X1946Y982D01*
D02*
G37*
G36*
X8109Y838D02*
X8107Y837D01*
X8106Y835D01*
X8106Y833D01*
X8105Y831D01*
X8104Y828D01*
X8104Y824D01*
X8103Y816D01*
X8103Y810D01*
X8078D01*
X8078Y816D01*
X8077Y828D01*
X8076Y831D01*
X8075Y833D01*
X8075Y835D01*
X8074Y837D01*
X8072Y838D01*
X8071Y838D01*
X8110D01*
X8109Y838D01*
D02*
G37*
G36*
X7478Y844D02*
X7476Y843D01*
X7474Y841D01*
X7473Y839D01*
X7471Y835D01*
X7470Y831D01*
X7469Y826D01*
X7469Y821D01*
X7468Y815D01*
X7468Y808D01*
X7443D01*
X7443Y815D01*
X7442Y826D01*
X7441Y831D01*
X7440Y835D01*
X7438Y839D01*
X7437Y841D01*
X7435Y843D01*
X7433Y844D01*
X7430Y845D01*
X7481D01*
X7478Y844D01*
D02*
G37*
G36*
X3843Y978D02*
X3845Y957D01*
X3845Y956D01*
X3855Y957D01*
X3853Y956D01*
X3851Y955D01*
X3849Y954D01*
X3847Y952D01*
X3846Y951D01*
X3847Y948D01*
X3849Y939D01*
X3852Y931D01*
X3855Y923D01*
X3859Y915D01*
X3864Y908D01*
X3868Y902D01*
X3792D01*
X3796Y908D01*
X3801Y915D01*
X3805Y923D01*
X3808Y931D01*
X3811Y939D01*
X3813Y948D01*
X3814Y950D01*
X3813Y951D01*
X3811Y953D01*
X3809Y954D01*
X3807Y955D01*
X3805Y955D01*
X3815Y955D01*
X3815Y957D01*
X3816Y967D01*
X3817Y978D01*
X3817Y988D01*
X3843D01*
X3843Y978D01*
D02*
G37*
G36*
X8359Y834D02*
X8358Y833D01*
X8358Y832D01*
X8358Y831D01*
X8358Y830D01*
X8357Y822D01*
X8357Y815D01*
X8332D01*
X8332Y819D01*
X8331Y832D01*
X8331Y833D01*
X8330Y834D01*
X8330Y834D01*
X8359D01*
X8359Y834D01*
D02*
G37*
G36*
X1123Y955D02*
X1121Y954D01*
X1119Y953D01*
X1117Y951D01*
X1116Y949D01*
X1115Y946D01*
X1114Y943D01*
X1113Y939D01*
X1113Y934D01*
X1113Y930D01*
X1087D01*
X1087Y934D01*
X1087Y939D01*
X1086Y943D01*
X1085Y946D01*
X1084Y949D01*
X1083Y951D01*
X1081Y953D01*
X1079Y954D01*
X1077Y955D01*
X1075Y955D01*
X1125D01*
X1123Y955D01*
D02*
G37*
G36*
X2567Y1682D02*
X2567Y1680D01*
X2579D01*
X2577Y1680D01*
X2575Y1679D01*
X2573Y1678D01*
X2571Y1676D01*
X2570Y1674D01*
X2569Y1671D01*
X2568Y1669D01*
X2569Y1661D01*
X2571Y1652D01*
X2573Y1643D01*
X2576Y1635D01*
X2579Y1627D01*
X2583Y1619D01*
X2588Y1612D01*
X2592Y1606D01*
X2516D01*
X2520Y1612D01*
X2525Y1619D01*
X2529Y1627D01*
X2532Y1635D01*
X2535Y1643D01*
X2537Y1652D01*
X2539Y1661D01*
X2540Y1669D01*
X2539Y1671D01*
X2538Y1674D01*
X2537Y1676D01*
X2535Y1678D01*
X2533Y1679D01*
X2531Y1680D01*
X2529Y1680D01*
X2541D01*
X2541Y1682D01*
X2541Y1692D01*
X2567D01*
X2567Y1682D01*
D02*
G37*
G36*
X7343Y1538D02*
X7345Y1517D01*
X7347Y1508D01*
X7349Y1499D01*
X7352Y1491D01*
X7355Y1483D01*
X7359Y1475D01*
X7364Y1468D01*
X7368Y1462D01*
X7292D01*
X7296Y1468D01*
X7301Y1475D01*
X7305Y1483D01*
X7308Y1491D01*
X7311Y1499D01*
X7313Y1508D01*
X7315Y1517D01*
X7316Y1527D01*
X7317Y1538D01*
X7317Y1548D01*
X7343D01*
X7343Y1538D01*
D02*
G37*
G36*
X9050Y1672D02*
X9046Y1669D01*
X9042Y1664D01*
X9039Y1657D01*
X9036Y1648D01*
X9034Y1637D01*
X9032Y1626D01*
X9034Y1608D01*
X9036Y1597D01*
X9039Y1588D01*
X9042Y1581D01*
X9046Y1576D01*
X9050Y1573D01*
X9055Y1572D01*
X8905D01*
X8910Y1573D01*
X8914Y1576D01*
X8918Y1581D01*
X8921Y1588D01*
X8924Y1597D01*
X8926Y1608D01*
X8928Y1619D01*
X8926Y1637D01*
X8924Y1648D01*
X8921Y1657D01*
X8918Y1664D01*
X8914Y1669D01*
X8910Y1672D01*
X8905Y1673D01*
X9055D01*
X9050Y1672D01*
D02*
G37*
G36*
X3459Y1682D02*
X3459Y1680D01*
X3471D01*
X3469Y1680D01*
X3467Y1679D01*
X3465Y1678D01*
X3463Y1676D01*
X3462Y1674D01*
X3461Y1671D01*
X3460Y1669D01*
X3461Y1661D01*
X3463Y1652D01*
X3465Y1643D01*
X3468Y1635D01*
X3471Y1627D01*
X3475Y1619D01*
X3480Y1612D01*
X3484Y1606D01*
X3408D01*
X3412Y1612D01*
X3417Y1619D01*
X3421Y1627D01*
X3424Y1635D01*
X3427Y1643D01*
X3429Y1652D01*
X3431Y1661D01*
X3432Y1669D01*
X3431Y1671D01*
X3430Y1674D01*
X3429Y1676D01*
X3427Y1678D01*
X3425Y1679D01*
X3423Y1680D01*
X3421Y1680D01*
X3433D01*
X3433Y1682D01*
X3433Y1692D01*
X3459D01*
X3459Y1682D01*
D02*
G37*
G36*
X5167Y1684D02*
X5167Y1680D01*
X5179D01*
X5177Y1680D01*
X5175Y1679D01*
X5173Y1678D01*
X5171Y1676D01*
X5170Y1674D01*
X5169Y1671D01*
X5168Y1670D01*
X5169Y1663D01*
X5171Y1654D01*
X5173Y1645D01*
X5176Y1637D01*
X5179Y1629D01*
X5183Y1621D01*
X5188Y1614D01*
X5192Y1608D01*
X5116D01*
X5120Y1614D01*
X5125Y1621D01*
X5129Y1629D01*
X5132Y1637D01*
X5135Y1645D01*
X5137Y1654D01*
X5139Y1663D01*
X5140Y1669D01*
X5139Y1671D01*
X5138Y1674D01*
X5137Y1676D01*
X5135Y1678D01*
X5133Y1679D01*
X5131Y1680D01*
X5129Y1680D01*
X5141D01*
X5141Y1684D01*
X5141Y1694D01*
X5167D01*
X5167Y1684D01*
D02*
G37*
G36*
X6059D02*
X6059Y1680D01*
X6071D01*
X6069Y1680D01*
X6067Y1679D01*
X6065Y1678D01*
X6063Y1676D01*
X6062Y1674D01*
X6061Y1671D01*
X6060Y1670D01*
X6061Y1663D01*
X6063Y1654D01*
X6065Y1645D01*
X6068Y1637D01*
X6071Y1629D01*
X6075Y1621D01*
X6080Y1614D01*
X6084Y1608D01*
X6008D01*
X6012Y1614D01*
X6017Y1621D01*
X6021Y1629D01*
X6024Y1637D01*
X6027Y1645D01*
X6029Y1654D01*
X6031Y1663D01*
X6032Y1669D01*
X6031Y1671D01*
X6030Y1674D01*
X6029Y1676D01*
X6027Y1678D01*
X6025Y1679D01*
X6023Y1680D01*
X6021Y1680D01*
X6033D01*
X6033Y1684D01*
X6033Y1694D01*
X6059D01*
X6059Y1684D01*
D02*
G37*
G36*
X3967Y1682D02*
X3967Y1680D01*
X3979D01*
X3977Y1680D01*
X3975Y1679D01*
X3973Y1678D01*
X3971Y1676D01*
X3970Y1674D01*
X3969Y1671D01*
X3968Y1669D01*
X3969Y1661D01*
X3971Y1652D01*
X3973Y1643D01*
X3976Y1635D01*
X3979Y1627D01*
X3983Y1619D01*
X3988Y1612D01*
X3992Y1606D01*
X3916D01*
X3920Y1612D01*
X3925Y1619D01*
X3929Y1627D01*
X3932Y1635D01*
X3935Y1643D01*
X3937Y1652D01*
X3939Y1661D01*
X3940Y1669D01*
X3939Y1671D01*
X3938Y1674D01*
X3937Y1676D01*
X3935Y1678D01*
X3933Y1679D01*
X3931Y1680D01*
X3929Y1680D01*
X3941D01*
X3941Y1682D01*
X3941Y1692D01*
X3967D01*
X3967Y1682D01*
D02*
G37*
G36*
X4659Y1684D02*
X4659Y1680D01*
X4671D01*
X4669Y1680D01*
X4667Y1679D01*
X4665Y1678D01*
X4663Y1676D01*
X4662Y1674D01*
X4661Y1671D01*
X4660Y1670D01*
X4661Y1663D01*
X4663Y1654D01*
X4665Y1645D01*
X4668Y1637D01*
X4671Y1629D01*
X4675Y1621D01*
X4680Y1614D01*
X4684Y1608D01*
X4608D01*
X4612Y1614D01*
X4617Y1621D01*
X4621Y1629D01*
X4624Y1637D01*
X4627Y1645D01*
X4629Y1654D01*
X4631Y1663D01*
X4632Y1669D01*
X4631Y1671D01*
X4630Y1674D01*
X4629Y1676D01*
X4627Y1678D01*
X4625Y1679D01*
X4623Y1680D01*
X4621Y1680D01*
X4633D01*
X4633Y1684D01*
X4633Y1694D01*
X4659D01*
X4659Y1684D01*
D02*
G37*
G36*
X7351Y844D02*
X7349Y843D01*
X7347Y841D01*
X7346Y839D01*
X7344Y835D01*
X7343Y831D01*
X7342Y826D01*
X7342Y821D01*
X7341Y815D01*
X7341Y808D01*
X7316D01*
X7316Y815D01*
X7315Y826D01*
X7314Y831D01*
X7313Y835D01*
X7311Y839D01*
X7310Y841D01*
X7308Y843D01*
X7306Y844D01*
X7303Y845D01*
X7354D01*
X7351Y844D01*
D02*
G37*
G36*
X2863Y848D02*
X2865Y827D01*
X2867Y818D01*
X2869Y809D01*
X2872Y801D01*
X2875Y793D01*
X2879Y785D01*
X2884Y778D01*
X2888Y772D01*
X2812D01*
X2816Y778D01*
X2821Y785D01*
X2825Y793D01*
X2828Y801D01*
X2831Y809D01*
X2833Y818D01*
X2835Y827D01*
X2836Y837D01*
X2837Y848D01*
X2837Y858D01*
X2863D01*
X2863Y848D01*
D02*
G37*
G36*
X7988Y1793D02*
X7987Y1791D01*
X7986Y1788D01*
X7985Y1786D01*
X7984Y1782D01*
X7984Y1779D01*
X7983Y1771D01*
X7983Y1767D01*
X7983Y1762D01*
X7957Y1755D01*
X7957Y1762D01*
X7956Y1773D01*
X7955Y1777D01*
X7954Y1780D01*
X7953Y1783D01*
X7951Y1785D01*
X7949Y1787D01*
X7947Y1787D01*
X7945Y1787D01*
X7989Y1795D01*
X7988Y1793D01*
D02*
G37*
G36*
X7473Y1794D02*
X7481Y1795D01*
X7480Y1793D01*
X7478Y1790D01*
X7477Y1787D01*
X7476Y1784D01*
X7475Y1781D01*
X7474Y1777D01*
X7474Y1777D01*
X7475Y1767D01*
X7477Y1758D01*
X7479Y1749D01*
X7482Y1741D01*
X7485Y1733D01*
X7489Y1725D01*
X7494Y1718D01*
X7498Y1712D01*
X7422D01*
X7426Y1718D01*
X7431Y1725D01*
X7435Y1733D01*
X7438Y1741D01*
X7441Y1749D01*
X7443Y1758D01*
X7445Y1767D01*
X7446Y1775D01*
X7445Y1778D01*
X7444Y1781D01*
X7443Y1784D01*
X7441Y1787D01*
X7439Y1788D01*
X7437Y1789D01*
X7435Y1789D01*
X7447Y1790D01*
X7447Y1798D01*
X7473D01*
X7473Y1794D01*
D02*
G37*
G36*
X2363Y858D02*
X2365Y837D01*
X2367Y828D01*
X2369Y819D01*
X2372Y811D01*
X2375Y803D01*
X2379Y795D01*
X2384Y788D01*
X2388Y782D01*
X2312D01*
X2316Y788D01*
X2321Y795D01*
X2325Y803D01*
X2328Y811D01*
X2331Y819D01*
X2333Y828D01*
X2335Y837D01*
X2336Y847D01*
X2337Y858D01*
X2337Y868D01*
X2363D01*
X2363Y858D01*
D02*
G37*
G36*
X7291Y683D02*
X7282Y674D01*
X7246Y634D01*
X7243Y629D01*
X7241Y625D01*
X7239Y622D01*
X7211Y684D01*
X7218Y682D01*
X7224Y681D01*
X7231Y681D01*
X7238Y682D01*
X7245Y685D01*
X7253Y688D01*
X7261Y693D01*
X7268Y698D01*
X7276Y705D01*
X7285Y713D01*
X7291Y683D01*
D02*
G37*
G36*
X1658Y611D02*
X1656Y613D01*
X1653Y616D01*
X1649Y618D01*
X1645Y620D01*
X1639Y622D01*
X1633Y623D01*
X1627Y624D01*
X1619Y625D01*
X1602Y625D01*
Y651D01*
X1611Y651D01*
X1627Y652D01*
X1633Y653D01*
X1639Y654D01*
X1645Y656D01*
X1649Y658D01*
X1653Y660D01*
X1656Y663D01*
X1658Y665D01*
Y611D01*
D02*
G37*
G36*
X7352Y1792D02*
X7350Y1789D01*
X7348Y1785D01*
X7347Y1782D01*
X7346Y1778D01*
X7345Y1774D01*
X7344Y1771D01*
X7343Y1767D01*
X7343Y1763D01*
X7343Y1758D01*
X7317Y1757D01*
X7317Y1764D01*
X7316Y1775D01*
X7315Y1780D01*
X7314Y1784D01*
X7313Y1787D01*
X7311Y1790D01*
X7309Y1791D01*
X7307Y1792D01*
X7305Y1793D01*
X7354Y1795D01*
X7352Y1792D01*
D02*
G37*
G36*
X7468Y753D02*
X7468Y741D01*
X7470Y720D01*
X7471Y710D01*
X7475Y693D01*
X7477Y686D01*
X7480Y679D01*
X7483Y672D01*
X7487Y667D01*
X7412Y675D01*
X7418Y681D01*
X7423Y687D01*
X7428Y694D01*
X7432Y702D01*
X7435Y710D01*
X7438Y718D01*
X7440Y727D01*
X7442Y737D01*
X7442Y747D01*
X7443Y758D01*
X7468Y753D01*
D02*
G37*
G36*
X4995Y723D02*
X5011Y710D01*
X5019Y705D01*
X5027Y700D01*
X5035Y696D01*
X5043Y693D01*
X5051Y691D01*
X5059Y689D01*
X5067Y688D01*
X5012Y633D01*
X5011Y641D01*
X5009Y649D01*
X5007Y657D01*
X5004Y665D01*
X5000Y673D01*
X4995Y681D01*
X4990Y689D01*
X4984Y697D01*
X4977Y705D01*
X4969Y713D01*
X4987Y731D01*
X4995Y723D01*
D02*
G37*
G36*
X1942Y1680D02*
X1940Y1679D01*
X1938Y1678D01*
X1936Y1676D01*
X1935Y1674D01*
X1934Y1671D01*
X1933Y1668D01*
X1932Y1664D01*
X1932Y1659D01*
X1932Y1655D01*
X1906D01*
X1906Y1659D01*
X1906Y1664D01*
X1905Y1668D01*
X1904Y1671D01*
X1903Y1674D01*
X1902Y1676D01*
X1900Y1678D01*
X1898Y1679D01*
X1896Y1680D01*
X1894Y1680D01*
X1944D01*
X1942Y1680D01*
D02*
G37*
G36*
X2450D02*
X2448Y1679D01*
X2446Y1678D01*
X2444Y1676D01*
X2443Y1674D01*
X2442Y1671D01*
X2441Y1668D01*
X2440Y1664D01*
X2440Y1659D01*
X2440Y1655D01*
X2414D01*
X2414Y1659D01*
X2414Y1664D01*
X2413Y1668D01*
X2412Y1671D01*
X2411Y1674D01*
X2410Y1676D01*
X2408Y1678D01*
X2406Y1679D01*
X2404Y1680D01*
X2402Y1680D01*
X2452D01*
X2450Y1680D01*
D02*
G37*
G36*
X742D02*
X740Y1679D01*
X738Y1678D01*
X736Y1676D01*
X735Y1674D01*
X734Y1671D01*
X733Y1668D01*
X732Y1664D01*
X732Y1659D01*
X732Y1655D01*
X706D01*
X706Y1659D01*
X706Y1664D01*
X705Y1668D01*
X704Y1671D01*
X703Y1674D01*
X702Y1676D01*
X700Y1678D01*
X698Y1679D01*
X696Y1680D01*
X694Y1680D01*
X744D01*
X742Y1680D01*
D02*
G37*
G36*
X1250D02*
X1248Y1679D01*
X1246Y1678D01*
X1244Y1676D01*
X1243Y1674D01*
X1242Y1671D01*
X1241Y1668D01*
X1240Y1664D01*
X1240Y1659D01*
X1240Y1655D01*
X1214D01*
X1214Y1659D01*
X1214Y1664D01*
X1213Y1668D01*
X1212Y1671D01*
X1211Y1674D01*
X1210Y1676D01*
X1208Y1678D01*
X1206Y1679D01*
X1204Y1680D01*
X1202Y1680D01*
X1252D01*
X1250Y1680D01*
D02*
G37*
G36*
X3342D02*
X3340Y1679D01*
X3338Y1678D01*
X3336Y1676D01*
X3335Y1674D01*
X3334Y1671D01*
X3333Y1668D01*
X3332Y1664D01*
X3332Y1659D01*
X3332Y1655D01*
X3306D01*
X3306Y1659D01*
X3306Y1664D01*
X3305Y1668D01*
X3304Y1671D01*
X3303Y1674D01*
X3302Y1676D01*
X3300Y1678D01*
X3298Y1679D01*
X3296Y1680D01*
X3294Y1680D01*
X3344D01*
X3342Y1680D01*
D02*
G37*
G36*
X5050D02*
X5048Y1679D01*
X5046Y1678D01*
X5044Y1676D01*
X5043Y1674D01*
X5042Y1671D01*
X5041Y1668D01*
X5040Y1664D01*
X5040Y1659D01*
X5040Y1655D01*
X5014D01*
X5014Y1659D01*
X5014Y1664D01*
X5013Y1668D01*
X5012Y1671D01*
X5011Y1674D01*
X5010Y1676D01*
X5008Y1678D01*
X5006Y1679D01*
X5004Y1680D01*
X5002Y1680D01*
X5052D01*
X5050Y1680D01*
D02*
G37*
G36*
X5942D02*
X5940Y1679D01*
X5938Y1678D01*
X5936Y1676D01*
X5935Y1674D01*
X5934Y1671D01*
X5933Y1668D01*
X5932Y1664D01*
X5932Y1659D01*
X5932Y1655D01*
X5906D01*
X5906Y1659D01*
X5906Y1664D01*
X5905Y1668D01*
X5904Y1671D01*
X5903Y1674D01*
X5902Y1676D01*
X5900Y1678D01*
X5898Y1679D01*
X5896Y1680D01*
X5894Y1680D01*
X5944D01*
X5942Y1680D01*
D02*
G37*
G36*
X3850D02*
X3848Y1679D01*
X3846Y1678D01*
X3844Y1676D01*
X3843Y1674D01*
X3842Y1671D01*
X3841Y1668D01*
X3840Y1664D01*
X3840Y1659D01*
X3840Y1655D01*
X3814D01*
X3814Y1659D01*
X3814Y1664D01*
X3813Y1668D01*
X3812Y1671D01*
X3811Y1674D01*
X3810Y1676D01*
X3808Y1678D01*
X3806Y1679D01*
X3804Y1680D01*
X3802Y1680D01*
X3852D01*
X3850Y1680D01*
D02*
G37*
G36*
X4542D02*
X4540Y1679D01*
X4538Y1678D01*
X4536Y1676D01*
X4535Y1674D01*
X4534Y1671D01*
X4533Y1668D01*
X4532Y1664D01*
X4532Y1659D01*
X4532Y1655D01*
X4506D01*
X4506Y1659D01*
X4506Y1664D01*
X4505Y1668D01*
X4504Y1671D01*
X4503Y1674D01*
X4502Y1676D01*
X4500Y1678D01*
X4498Y1679D01*
X4496Y1680D01*
X4494Y1680D01*
X4544D01*
X4542Y1680D01*
D02*
G37*
G36*
X6080Y1188D02*
X6075Y1181D01*
X6071Y1173D01*
X6068Y1165D01*
X6065Y1157D01*
X6063Y1148D01*
X6061Y1139D01*
X6060Y1131D01*
X6061Y1129D01*
X6062Y1126D01*
X6063Y1124D01*
X6065Y1122D01*
X6067Y1121D01*
X6069Y1120D01*
X6071Y1120D01*
X6059D01*
X6059Y1118D01*
X6059Y1108D01*
X6033D01*
X6033Y1118D01*
X6033Y1120D01*
X6021D01*
X6023Y1120D01*
X6025Y1121D01*
X6027Y1122D01*
X6029Y1124D01*
X6030Y1126D01*
X6031Y1129D01*
X6032Y1131D01*
X6031Y1139D01*
X6029Y1148D01*
X6027Y1157D01*
X6024Y1165D01*
X6021Y1173D01*
X6017Y1181D01*
X6012Y1188D01*
X6008Y1194D01*
X6084D01*
X6080Y1188D01*
D02*
G37*
G36*
X2588Y1188D02*
X2583Y1181D01*
X2579Y1173D01*
X2576Y1165D01*
X2573Y1157D01*
X2571Y1148D01*
X2569Y1139D01*
X2568Y1131D01*
X2569Y1129D01*
X2570Y1126D01*
X2571Y1124D01*
X2573Y1122D01*
X2575Y1121D01*
X2577Y1120D01*
X2579Y1120D01*
X2567D01*
X2567Y1118D01*
X2567Y1108D01*
X2541D01*
X2541Y1118D01*
X2541Y1120D01*
X2529D01*
X2531Y1120D01*
X2533Y1121D01*
X2535Y1122D01*
X2537Y1124D01*
X2538Y1126D01*
X2539Y1129D01*
X2540Y1131D01*
X2539Y1139D01*
X2537Y1148D01*
X2535Y1157D01*
X2532Y1165D01*
X2529Y1173D01*
X2525Y1181D01*
X2520Y1188D01*
X2516Y1194D01*
X2592D01*
X2588Y1188D01*
D02*
G37*
G36*
X880Y1188D02*
X875Y1181D01*
X871Y1173D01*
X868Y1165D01*
X865Y1157D01*
X863Y1148D01*
X861Y1139D01*
X860Y1131D01*
X861Y1129D01*
X862Y1126D01*
X863Y1124D01*
X865Y1122D01*
X867Y1121D01*
X869Y1120D01*
X871Y1120D01*
X859D01*
X859Y1118D01*
X859Y1108D01*
X833D01*
X833Y1118D01*
X833Y1120D01*
X821D01*
X823Y1120D01*
X825Y1121D01*
X827Y1122D01*
X829Y1124D01*
X830Y1126D01*
X831Y1129D01*
X832Y1131D01*
X831Y1139D01*
X829Y1148D01*
X827Y1157D01*
X824Y1165D01*
X821Y1173D01*
X817Y1181D01*
X812Y1188D01*
X808Y1194D01*
X884D01*
X880Y1188D01*
D02*
G37*
G36*
X4680D02*
X4675Y1181D01*
X4671Y1173D01*
X4668Y1165D01*
X4665Y1157D01*
X4663Y1148D01*
X4661Y1139D01*
X4660Y1131D01*
X4661Y1129D01*
X4662Y1126D01*
X4663Y1124D01*
X4665Y1122D01*
X4667Y1121D01*
X4669Y1120D01*
X4671Y1120D01*
X4659D01*
X4659Y1118D01*
X4659Y1108D01*
X4633D01*
X4633Y1118D01*
X4633Y1120D01*
X4621D01*
X4623Y1120D01*
X4625Y1121D01*
X4627Y1122D01*
X4629Y1124D01*
X4630Y1126D01*
X4631Y1129D01*
X4632Y1131D01*
X4631Y1139D01*
X4629Y1148D01*
X4627Y1157D01*
X4624Y1165D01*
X4621Y1173D01*
X4617Y1181D01*
X4612Y1188D01*
X4608Y1194D01*
X4684D01*
X4680Y1188D01*
D02*
G37*
G36*
X3480Y1188D02*
X3475Y1181D01*
X3471Y1173D01*
X3468Y1165D01*
X3465Y1157D01*
X3463Y1148D01*
X3461Y1139D01*
X3460Y1131D01*
X3461Y1129D01*
X3462Y1126D01*
X3463Y1124D01*
X3465Y1122D01*
X3467Y1121D01*
X3469Y1120D01*
X3471Y1120D01*
X3459D01*
X3459Y1118D01*
X3459Y1108D01*
X3433D01*
X3433Y1118D01*
X3433Y1120D01*
X3421D01*
X3423Y1120D01*
X3425Y1121D01*
X3427Y1122D01*
X3429Y1124D01*
X3430Y1126D01*
X3431Y1129D01*
X3432Y1131D01*
X3431Y1139D01*
X3429Y1148D01*
X3427Y1157D01*
X3424Y1165D01*
X3421Y1173D01*
X3417Y1181D01*
X3412Y1188D01*
X3408Y1194D01*
X3484D01*
X3480Y1188D01*
D02*
G37*
G36*
X2450Y955D02*
X2448Y954D01*
X2446Y953D01*
X2444Y951D01*
X2443Y949D01*
X2442Y946D01*
X2441Y943D01*
X2440Y939D01*
X2440Y934D01*
X2440Y930D01*
X2414D01*
X2414Y934D01*
X2414Y939D01*
X2413Y943D01*
X2412Y946D01*
X2411Y949D01*
X2410Y951D01*
X2408Y953D01*
X2406Y954D01*
X2404Y955D01*
X2402Y955D01*
X2452D01*
X2450Y955D01*
D02*
G37*
G36*
X5188Y1188D02*
X5183Y1181D01*
X5179Y1173D01*
X5176Y1165D01*
X5173Y1157D01*
X5171Y1148D01*
X5169Y1139D01*
X5168Y1131D01*
X5169Y1129D01*
X5170Y1126D01*
X5171Y1124D01*
X5173Y1122D01*
X5175Y1121D01*
X5177Y1120D01*
X5179Y1120D01*
X5167D01*
X5167Y1118D01*
X5167Y1108D01*
X5141D01*
X5141Y1118D01*
X5141Y1120D01*
X5129D01*
X5131Y1120D01*
X5133Y1121D01*
X5135Y1122D01*
X5137Y1124D01*
X5138Y1126D01*
X5139Y1129D01*
X5140Y1131D01*
X5139Y1139D01*
X5137Y1148D01*
X5135Y1157D01*
X5132Y1165D01*
X5129Y1173D01*
X5125Y1181D01*
X5120Y1188D01*
X5116Y1194D01*
X5192D01*
X5188Y1188D01*
D02*
G37*
G36*
X3988Y1188D02*
X3983Y1181D01*
X3979Y1173D01*
X3976Y1165D01*
X3973Y1157D01*
X3971Y1148D01*
X3969Y1139D01*
X3968Y1131D01*
X3969Y1129D01*
X3970Y1126D01*
X3971Y1124D01*
X3973Y1122D01*
X3975Y1121D01*
X3977Y1120D01*
X3979Y1120D01*
X3967D01*
X3967Y1118D01*
X3967Y1108D01*
X3941D01*
X3941Y1118D01*
X3941Y1120D01*
X3929D01*
X3931Y1120D01*
X3933Y1121D01*
X3935Y1122D01*
X3937Y1124D01*
X3938Y1126D01*
X3939Y1129D01*
X3940Y1131D01*
X3939Y1139D01*
X3937Y1148D01*
X3935Y1157D01*
X3932Y1165D01*
X3929Y1173D01*
X3925Y1181D01*
X3920Y1188D01*
X3916Y1194D01*
X3992D01*
X3988Y1188D01*
D02*
G37*
G36*
X3723Y955D02*
X3721Y954D01*
X3719Y953D01*
X3717Y951D01*
X3716Y949D01*
X3715Y946D01*
X3714Y943D01*
X3713Y939D01*
X3713Y934D01*
X3713Y930D01*
X3687D01*
X3687Y934D01*
X3687Y939D01*
X3686Y943D01*
X3685Y946D01*
X3684Y949D01*
X3683Y951D01*
X3681Y953D01*
X3679Y954D01*
X3677Y955D01*
X3675Y955D01*
X3725D01*
X3723Y955D01*
D02*
G37*
G36*
X2330Y1040D02*
X2331Y1036D01*
X2331Y1033D01*
X2333Y1029D01*
X2334Y1026D01*
X2336Y1022D01*
X2339Y1018D01*
X2341Y1015D01*
X2345Y1011D01*
X2348Y1007D01*
X2341Y979D01*
X2339Y980D01*
X2337Y982D01*
X2335Y983D01*
X2334Y983D01*
X2333Y982D01*
X2332Y981D01*
X2331Y980D01*
X2330Y978D01*
X2330Y975D01*
X2330Y971D01*
Y1043D01*
X2330Y1040D01*
D02*
G37*
G36*
X8505Y1080D02*
X8501Y1073D01*
X8497Y1066D01*
X8493Y1058D01*
X8491Y1049D01*
X8488Y1041D01*
X8487Y1031D01*
X8485Y1023D01*
X8486Y1019D01*
X8487Y1015D01*
X8489Y1011D01*
X8490Y1009D01*
X8492Y1007D01*
X8494Y1006D01*
X8497Y1005D01*
X8484D01*
X8484Y1000D01*
X8459D01*
X8459Y1005D01*
X8446D01*
X8449Y1006D01*
X8451Y1007D01*
X8453Y1009D01*
X8454Y1011D01*
X8456Y1015D01*
X8457Y1019D01*
X8457Y1022D01*
X8456Y1031D01*
X8455Y1041D01*
X8452Y1049D01*
X8450Y1058D01*
X8446Y1066D01*
X8442Y1073D01*
X8438Y1080D01*
X8433Y1086D01*
X8510D01*
X8505Y1080D01*
D02*
G37*
G36*
X4323Y1018D02*
X4325Y997D01*
X4327Y988D01*
X4329Y979D01*
X4332Y971D01*
X4335Y963D01*
X4339Y955D01*
X4344Y948D01*
X4348Y942D01*
X4272D01*
X4276Y948D01*
X4281Y955D01*
X4285Y963D01*
X4288Y971D01*
X4291Y979D01*
X4293Y988D01*
X4295Y997D01*
X4296Y1007D01*
X4297Y1018D01*
X4297Y1028D01*
X4323D01*
X4323Y1018D01*
D02*
G37*
G36*
X5050Y955D02*
X5048Y954D01*
X5046Y953D01*
X5044Y951D01*
X5043Y949D01*
X5042Y946D01*
X5041Y943D01*
X5040Y939D01*
X5040Y934D01*
X5040Y930D01*
X5014D01*
X5014Y934D01*
X5014Y939D01*
X5013Y943D01*
X5012Y946D01*
X5011Y949D01*
X5010Y951D01*
X5008Y953D01*
X5006Y954D01*
X5004Y955D01*
X5002Y955D01*
X5052D01*
X5050Y955D01*
D02*
G37*
G36*
X4923D02*
X4921Y954D01*
X4919Y953D01*
X4917Y951D01*
X4916Y949D01*
X4915Y946D01*
X4914Y943D01*
X4913Y939D01*
X4913Y934D01*
X4913Y930D01*
X4887D01*
X4887Y934D01*
X4887Y939D01*
X4886Y943D01*
X4885Y946D01*
X4884Y949D01*
X4883Y951D01*
X4881Y953D01*
X4879Y954D01*
X4877Y955D01*
X4875Y955D01*
X4925D01*
X4923Y955D01*
D02*
G37*
G36*
X7595Y1033D02*
X7596Y1022D01*
X7596Y1020D01*
X7597Y1018D01*
X7597Y1016D01*
X7598Y1015D01*
X7599Y1014D01*
X7600Y1014D01*
X7565D01*
X7566Y1014D01*
X7567Y1015D01*
X7568Y1016D01*
X7568Y1018D01*
X7569Y1020D01*
X7569Y1022D01*
X7569Y1025D01*
X7570Y1033D01*
X7570Y1038D01*
X7595D01*
X7595Y1033D01*
D02*
G37*
G36*
X7977Y1016D02*
X7950D01*
X7950Y1016D01*
X7950Y1017D01*
X7950Y1018D01*
X7951Y1021D01*
X7951Y1034D01*
X7976D01*
X7977Y1016D01*
D02*
G37*
G36*
X8251Y1084D02*
X8247Y1077D01*
X8243Y1070D01*
X8239Y1062D01*
X8237Y1053D01*
X8234Y1045D01*
X8233Y1035D01*
X8231Y1025D01*
X8231Y1025D01*
X8231Y1024D01*
X8232Y1019D01*
X8233Y1015D01*
X8235Y1011D01*
X8236Y1009D01*
X8238Y1007D01*
X8240Y1006D01*
X8243Y1005D01*
X8230D01*
X8230Y1004D01*
X8205D01*
X8205Y1005D01*
X8192D01*
X8195Y1006D01*
X8197Y1007D01*
X8199Y1009D01*
X8200Y1011D01*
X8202Y1015D01*
X8203Y1019D01*
X8204Y1024D01*
X8202Y1035D01*
X8201Y1045D01*
X8198Y1053D01*
X8196Y1062D01*
X8192Y1070D01*
X8188Y1077D01*
X8184Y1084D01*
X8179Y1090D01*
X8256D01*
X8251Y1084D01*
D02*
G37*
G36*
X7862Y1005D02*
X7811D01*
X7811Y1006D01*
X7811Y1007D01*
X7811Y1012D01*
X7811Y1047D01*
X7861D01*
X7862Y1005D01*
D02*
G37*
G36*
X986Y1141D02*
X986Y1136D01*
X987Y1132D01*
X988Y1129D01*
X989Y1126D01*
X990Y1124D01*
X992Y1122D01*
X994Y1121D01*
X996Y1120D01*
X998Y1120D01*
X948D01*
X950Y1120D01*
X952Y1121D01*
X954Y1122D01*
X956Y1124D01*
X957Y1126D01*
X958Y1129D01*
X959Y1132D01*
X960Y1136D01*
X960Y1141D01*
X960Y1145D01*
X986D01*
X986Y1141D01*
D02*
G37*
G36*
X2728Y1372D02*
X2722Y1376D01*
X2715Y1381D01*
X2707Y1385D01*
X2699Y1388D01*
X2691Y1391D01*
X2682Y1393D01*
X2673Y1395D01*
X2663Y1396D01*
X2652Y1397D01*
X2642Y1397D01*
Y1423D01*
X2652Y1423D01*
X2673Y1425D01*
X2682Y1427D01*
X2691Y1429D01*
X2699Y1432D01*
X2707Y1435D01*
X2715Y1439D01*
X2722Y1444D01*
X2728Y1448D01*
Y1372D01*
D02*
G37*
G36*
X4458Y1444D02*
X4465Y1439D01*
X4473Y1435D01*
X4481Y1432D01*
X4489Y1429D01*
X4498Y1427D01*
X4507Y1425D01*
X4517Y1424D01*
X4528Y1423D01*
X4538Y1423D01*
Y1397D01*
X4528Y1397D01*
X4507Y1395D01*
X4498Y1393D01*
X4489Y1391D01*
X4481Y1388D01*
X4473Y1385D01*
X4465Y1381D01*
X4458Y1376D01*
X4452Y1372D01*
Y1448D01*
X4458Y1444D01*
D02*
G37*
G36*
X8906Y1275D02*
X8905Y1277D01*
X8905Y1279D01*
X8903Y1281D01*
X8901Y1283D01*
X8899Y1284D01*
X8896Y1285D01*
X8893Y1286D01*
X8889Y1287D01*
X8885Y1287D01*
X8880Y1287D01*
Y1313D01*
X8885Y1313D01*
X8889Y1313D01*
X8893Y1314D01*
X8896Y1315D01*
X8899Y1316D01*
X8901Y1317D01*
X8903Y1319D01*
X8905Y1321D01*
X8905Y1323D01*
X8906Y1325D01*
Y1275D01*
D02*
G37*
G36*
X1008Y1372D02*
X1002Y1376D01*
X995Y1381D01*
X987Y1385D01*
X979Y1388D01*
X971Y1391D01*
X962Y1393D01*
X953Y1395D01*
X943Y1396D01*
X932Y1397D01*
X922Y1397D01*
X922Y1423D01*
X932Y1423D01*
X953Y1425D01*
X962Y1427D01*
X971Y1429D01*
X979Y1432D01*
X987Y1435D01*
X995Y1439D01*
X1002Y1444D01*
X1008Y1448D01*
Y1372D01*
D02*
G37*
G36*
X2561Y1437D02*
X2565Y1434D01*
X2569Y1432D01*
X2573Y1429D01*
X2577Y1427D01*
X2582Y1426D01*
X2586Y1424D01*
X2591Y1423D01*
X2596Y1423D01*
X2601Y1423D01*
X2626Y1397D01*
X2621Y1397D01*
X2618Y1397D01*
X2615Y1396D01*
X2613Y1394D01*
X2612Y1393D01*
X2611Y1391D01*
X2612Y1388D01*
X2613Y1386D01*
X2615Y1383D01*
X2619Y1379D01*
X2561Y1401D01*
X2557Y1441D01*
X2561Y1437D01*
D02*
G37*
G36*
X7983Y1478D02*
X7985Y1457D01*
X7987Y1448D01*
X7989Y1439D01*
X7992Y1431D01*
X7995Y1423D01*
X7999Y1415D01*
X8004Y1408D01*
X8008Y1402D01*
X7932D01*
X7936Y1408D01*
X7941Y1415D01*
X7945Y1423D01*
X7948Y1431D01*
X7951Y1439D01*
X7953Y1448D01*
X7955Y1457D01*
X7956Y1467D01*
X7957Y1478D01*
X7957Y1488D01*
X7983D01*
X7983Y1478D01*
D02*
G37*
G36*
X1253Y955D02*
X1251Y954D01*
X1249Y952D01*
X1248Y950D01*
X1247Y947D01*
X1245Y944D01*
X1245Y941D01*
X1244Y938D01*
X1244Y934D01*
X1244Y930D01*
X1218D01*
X1218Y934D01*
X1218Y939D01*
X1217Y943D01*
X1216Y946D01*
X1215Y949D01*
X1214Y951D01*
X1212Y953D01*
X1210Y954D01*
X1208Y955D01*
X1205Y955D01*
X1256Y956D01*
X1253Y955D01*
D02*
G37*
G36*
X4669Y1419D02*
X4687Y1401D01*
X4673Y1379D01*
X4669Y1383D01*
X4665Y1386D01*
X4661Y1388D01*
X4657Y1391D01*
X4653Y1393D01*
X4648Y1394D01*
X4644Y1396D01*
X4639Y1397D01*
X4634Y1397D01*
X4629Y1397D01*
X4604Y1423D01*
X4609Y1423D01*
X4612Y1423D01*
X4615Y1424D01*
X4617Y1426D01*
X4619Y1427D01*
X4619Y1429D01*
X4618Y1432D01*
X4617Y1434D01*
X4615Y1437D01*
X4611Y1441D01*
X4669Y1419D01*
D02*
G37*
G36*
X851Y1437D02*
X855Y1434D01*
X859Y1432D01*
X863Y1429D01*
X867Y1427D01*
X872Y1426D01*
X876Y1424D01*
X881Y1423D01*
X886Y1423D01*
X891Y1423D01*
X916Y1397D01*
X911Y1397D01*
X908Y1397D01*
X905Y1396D01*
X903Y1394D01*
X902Y1393D01*
X901Y1391D01*
X902Y1389D01*
X903Y1386D01*
X905Y1383D01*
X909Y1379D01*
X851Y1401D01*
X847Y1441D01*
X851Y1437D01*
D02*
G37*
G36*
X2694Y1141D02*
X2694Y1136D01*
X2695Y1132D01*
X2696Y1129D01*
X2697Y1126D01*
X2698Y1124D01*
X2700Y1122D01*
X2702Y1121D01*
X2704Y1120D01*
X2706Y1120D01*
X2656D01*
X2658Y1120D01*
X2660Y1121D01*
X2662Y1122D01*
X2664Y1124D01*
X2665Y1126D01*
X2666Y1129D01*
X2667Y1132D01*
X2668Y1136D01*
X2668Y1141D01*
X2668Y1145D01*
X2694D01*
X2694Y1141D01*
D02*
G37*
G36*
X3586D02*
X3586Y1136D01*
X3587Y1132D01*
X3588Y1129D01*
X3589Y1126D01*
X3590Y1124D01*
X3592Y1122D01*
X3594Y1121D01*
X3596Y1120D01*
X3598Y1120D01*
X3548D01*
X3550Y1120D01*
X3552Y1121D01*
X3554Y1122D01*
X3556Y1124D01*
X3557Y1126D01*
X3558Y1129D01*
X3559Y1132D01*
X3560Y1136D01*
X3560Y1141D01*
X3560Y1145D01*
X3586D01*
X3586Y1141D01*
D02*
G37*
G36*
X1494D02*
X1494Y1136D01*
X1495Y1132D01*
X1496Y1129D01*
X1497Y1126D01*
X1498Y1124D01*
X1500Y1122D01*
X1502Y1121D01*
X1504Y1120D01*
X1506Y1120D01*
X1456D01*
X1458Y1120D01*
X1460Y1121D01*
X1462Y1122D01*
X1464Y1124D01*
X1465Y1126D01*
X1466Y1129D01*
X1467Y1132D01*
X1468Y1136D01*
X1468Y1141D01*
X1468Y1145D01*
X1494D01*
X1494Y1141D01*
D02*
G37*
G36*
X2186D02*
X2186Y1136D01*
X2187Y1132D01*
X2188Y1129D01*
X2189Y1126D01*
X2190Y1124D01*
X2192Y1122D01*
X2194Y1121D01*
X2196Y1120D01*
X2198Y1120D01*
X2148D01*
X2150Y1120D01*
X2152Y1121D01*
X2154Y1122D01*
X2156Y1124D01*
X2157Y1126D01*
X2158Y1129D01*
X2159Y1132D01*
X2160Y1136D01*
X2160Y1141D01*
X2160Y1145D01*
X2186D01*
X2186Y1141D01*
D02*
G37*
G36*
X4094D02*
X4094Y1136D01*
X4095Y1132D01*
X4096Y1129D01*
X4097Y1126D01*
X4098Y1124D01*
X4100Y1122D01*
X4102Y1121D01*
X4104Y1120D01*
X4106Y1120D01*
X4056D01*
X4058Y1120D01*
X4060Y1121D01*
X4062Y1122D01*
X4064Y1124D01*
X4065Y1126D01*
X4066Y1129D01*
X4067Y1132D01*
X4068Y1136D01*
X4068Y1141D01*
X4068Y1145D01*
X4094D01*
X4094Y1141D01*
D02*
G37*
G36*
X6186D02*
X6186Y1136D01*
X6187Y1132D01*
X6188Y1129D01*
X6189Y1126D01*
X6190Y1124D01*
X6192Y1122D01*
X6194Y1121D01*
X6196Y1120D01*
X6198Y1120D01*
X6148D01*
X6150Y1120D01*
X6152Y1121D01*
X6154Y1122D01*
X6156Y1124D01*
X6157Y1126D01*
X6158Y1129D01*
X6159Y1132D01*
X6160Y1136D01*
X6160Y1141D01*
X6160Y1145D01*
X6186D01*
X6186Y1141D01*
D02*
G37*
G36*
X6313D02*
X6313Y1136D01*
X6314Y1132D01*
X6315Y1129D01*
X6316Y1126D01*
X6317Y1124D01*
X6319Y1122D01*
X6321Y1121D01*
X6323Y1120D01*
X6325Y1120D01*
X6275D01*
X6277Y1120D01*
X6279Y1121D01*
X6281Y1122D01*
X6283Y1124D01*
X6284Y1126D01*
X6285Y1129D01*
X6286Y1132D01*
X6287Y1136D01*
X6287Y1141D01*
X6287Y1145D01*
X6313D01*
X6313Y1141D01*
D02*
G37*
G36*
X4786D02*
X4786Y1136D01*
X4787Y1132D01*
X4788Y1129D01*
X4789Y1126D01*
X4790Y1124D01*
X4792Y1122D01*
X4794Y1121D01*
X4796Y1120D01*
X4798Y1120D01*
X4748D01*
X4750Y1120D01*
X4752Y1121D01*
X4754Y1122D01*
X4756Y1124D01*
X4757Y1126D01*
X4758Y1129D01*
X4759Y1132D01*
X4760Y1136D01*
X4760Y1141D01*
X4760Y1145D01*
X4786D01*
X4786Y1141D01*
D02*
G37*
G36*
X5294D02*
X5294Y1136D01*
X5295Y1132D01*
X5296Y1129D01*
X5297Y1126D01*
X5298Y1124D01*
X5300Y1122D01*
X5302Y1121D01*
X5304Y1120D01*
X5306Y1120D01*
X5256D01*
X5258Y1120D01*
X5260Y1121D01*
X5262Y1122D01*
X5264Y1124D01*
X5265Y1126D01*
X5266Y1129D01*
X5267Y1132D01*
X5268Y1136D01*
X5268Y1141D01*
X5268Y1145D01*
X5294D01*
X5294Y1141D01*
D02*
G37*
G36*
X2429Y600D02*
X2423Y605D01*
X2416Y610D01*
X2408Y614D01*
X2400Y618D01*
X2392Y621D01*
X2383Y623D01*
X2374Y625D01*
X2364Y626D01*
X2354Y627D01*
X2343Y627D01*
X2344Y653D01*
X2355Y653D01*
X2376Y655D01*
X2385Y657D01*
X2394Y659D01*
X2402Y661D01*
X2410Y665D01*
X2418Y668D01*
X2424Y672D01*
X2431Y677D01*
X2429Y600D01*
D02*
G37*
G36*
X5698Y2152D02*
X5692Y2156D01*
X5685Y2161D01*
X5677Y2165D01*
X5669Y2168D01*
X5661Y2171D01*
X5652Y2173D01*
X5643Y2175D01*
X5633Y2176D01*
X5622Y2177D01*
X5612Y2177D01*
Y2203D01*
X5622Y2203D01*
X5643Y2205D01*
X5652Y2207D01*
X5661Y2209D01*
X5669Y2212D01*
X5677Y2215D01*
X5685Y2219D01*
X5692Y2224D01*
X5698Y2228D01*
Y2152D01*
D02*
G37*
G36*
X4224Y2262D02*
X4219Y2255D01*
X4215Y2247D01*
X4212Y2239D01*
X4209Y2231D01*
X4207Y2222D01*
X4205Y2213D01*
X4204Y2203D01*
X4203Y2192D01*
X4203Y2182D01*
X4177D01*
X4177Y2192D01*
X4175Y2213D01*
X4173Y2222D01*
X4171Y2231D01*
X4168Y2239D01*
X4165Y2247D01*
X4161Y2255D01*
X4156Y2262D01*
X4152Y2268D01*
X4228D01*
X4224Y2262D01*
D02*
G37*
G36*
X6558Y2142D02*
X6552Y2146D01*
X6545Y2151D01*
X6537Y2155D01*
X6529Y2158D01*
X6521Y2161D01*
X6512Y2163D01*
X6503Y2165D01*
X6493Y2166D01*
X6482Y2167D01*
X6472Y2167D01*
Y2193D01*
X6482Y2193D01*
X6503Y2195D01*
X6512Y2197D01*
X6521Y2199D01*
X6529Y2202D01*
X6537Y2205D01*
X6545Y2209D01*
X6552Y2214D01*
X6558Y2218D01*
Y2142D01*
D02*
G37*
G36*
X7922Y2124D02*
X7916Y2128D01*
X7909Y2133D01*
X7901Y2137D01*
X7893Y2140D01*
X7885Y2143D01*
X7876Y2145D01*
X7867Y2147D01*
X7857Y2148D01*
X7846Y2149D01*
X7836Y2149D01*
Y2175D01*
X7846Y2175D01*
X7867Y2177D01*
X7876Y2179D01*
X7885Y2181D01*
X7893Y2184D01*
X7901Y2187D01*
X7909Y2191D01*
X7916Y2196D01*
X7922Y2200D01*
Y2124D01*
D02*
G37*
G36*
X7656Y2138D02*
X7655Y2140D01*
X7652Y2142D01*
X7649Y2144D01*
X7645Y2145D01*
X7641Y2146D01*
X7636Y2147D01*
X7630Y2148D01*
X7616Y2149D01*
X7608Y2149D01*
Y2175D01*
X7616Y2175D01*
X7636Y2177D01*
X7641Y2178D01*
X7645Y2179D01*
X7649Y2180D01*
X7652Y2182D01*
X7655Y2184D01*
X7656Y2186D01*
Y2138D01*
D02*
G37*
G36*
X3319Y2284D02*
X3325Y2279D01*
X3333Y2275D01*
X3341Y2272D01*
X3349Y2269D01*
X3358Y2267D01*
X3367Y2265D01*
X3377Y2264D01*
X3388Y2263D01*
X3398Y2263D01*
Y2237D01*
X3388Y2237D01*
X3367Y2235D01*
X3358Y2233D01*
X3349Y2231D01*
X3341Y2228D01*
X3333Y2225D01*
X3325Y2221D01*
X3319Y2217D01*
X3312Y2212D01*
Y2289D01*
X3319Y2284D01*
D02*
G37*
G36*
X4698Y2276D02*
X4693Y2275D01*
X4689Y2275D01*
X4685Y2273D01*
X4682Y2272D01*
X4679Y2269D01*
X4677Y2267D01*
X4675Y2263D01*
X4674Y2259D01*
X4673Y2255D01*
X4673Y2250D01*
X4647D01*
X4647Y2255D01*
X4646Y2259D01*
X4645Y2263D01*
X4643Y2267D01*
X4641Y2269D01*
X4638Y2272D01*
X4635Y2273D01*
X4631Y2275D01*
X4627Y2275D01*
X4622Y2276D01*
X4660Y2301D01*
X4698Y2276D01*
D02*
G37*
G36*
X7474Y2352D02*
X7469Y2345D01*
X7465Y2337D01*
X7462Y2329D01*
X7459Y2321D01*
X7457Y2312D01*
X7455Y2303D01*
X7454Y2293D01*
X7453Y2282D01*
X7453Y2277D01*
X7453Y2271D01*
X7454Y2261D01*
X7455Y2251D01*
X7457Y2242D01*
X7460Y2233D01*
X7463Y2225D01*
X7467Y2217D01*
X7472Y2210D01*
X7477Y2203D01*
X7482Y2197D01*
X7406Y2192D01*
X7410Y2198D01*
X7414Y2205D01*
X7417Y2212D01*
X7420Y2219D01*
X7422Y2228D01*
X7424Y2237D01*
X7425Y2246D01*
X7427Y2267D01*
X7427Y2275D01*
X7427Y2282D01*
X7425Y2303D01*
X7423Y2312D01*
X7421Y2321D01*
X7418Y2329D01*
X7415Y2337D01*
X7411Y2345D01*
X7406Y2352D01*
X7402Y2358D01*
X7478D01*
X7474Y2352D01*
D02*
G37*
G36*
X3757Y2251D02*
X3797Y2216D01*
X3802Y2213D01*
X3807Y2210D01*
X3810Y2208D01*
X3751Y2191D01*
X3753Y2195D01*
X3755Y2199D01*
X3755Y2203D01*
X3754Y2207D01*
X3752Y2212D01*
X3750Y2217D01*
X3747Y2223D01*
X3742Y2229D01*
X3737Y2235D01*
X3731Y2241D01*
X3749Y2259D01*
X3757Y2251D01*
D02*
G37*
G36*
X7213Y2278D02*
X7213Y2266D01*
X7214Y2245D01*
X7216Y2235D01*
X7218Y2227D01*
X7220Y2218D01*
X7222Y2211D01*
X7225Y2204D01*
X7229Y2197D01*
X7232Y2191D01*
X7157Y2198D01*
X7163Y2204D01*
X7168Y2211D01*
X7173Y2218D01*
X7177Y2225D01*
X7180Y2233D01*
X7183Y2242D01*
X7185Y2251D01*
X7186Y2261D01*
X7187Y2271D01*
X7187Y2282D01*
X7213Y2278D01*
D02*
G37*
G36*
X6953Y2114D02*
X6949Y2113D01*
X6944Y2110D01*
X6938Y2107D01*
X6932Y2103D01*
X6919Y2092D01*
X6904Y2079D01*
X6887Y2063D01*
X6868Y2080D01*
X6875Y2087D01*
X6881Y2094D01*
X6886Y2100D01*
X6889Y2107D01*
X6892Y2113D01*
X6894Y2119D01*
X6895Y2125D01*
X6895Y2130D01*
X6895Y2136D01*
X6893Y2141D01*
X6953Y2114D01*
D02*
G37*
G36*
X3550Y2113D02*
X3545Y2112D01*
X3539Y2110D01*
X3533Y2106D01*
X3527Y2103D01*
X3520Y2098D01*
X3506Y2086D01*
X3490Y2072D01*
X3481Y2063D01*
X3456Y2074D01*
X3464Y2082D01*
X3471Y2090D01*
X3476Y2098D01*
X3481Y2106D01*
X3485Y2114D01*
X3487Y2122D01*
X3489Y2129D01*
X3490Y2137D01*
X3490Y2144D01*
X3489Y2152D01*
X3550Y2113D01*
D02*
G37*
G36*
X2494Y2122D02*
X2490Y2117D01*
X2486Y2110D01*
X2483Y2103D01*
X2481Y2095D01*
X2479Y2087D01*
X2477Y2078D01*
X2476Y2069D01*
X2475Y2059D01*
X2475Y2048D01*
X2449D01*
X2449Y2059D01*
X2447Y2078D01*
X2445Y2087D01*
X2443Y2095D01*
X2441Y2103D01*
X2438Y2110D01*
X2434Y2117D01*
X2430Y2122D01*
X2425Y2128D01*
X2499D01*
X2494Y2122D01*
D02*
G37*
G36*
X1269Y2011D02*
X1254Y1984D01*
X1206Y1984D01*
X1251Y2029D01*
X1269Y2011D01*
D02*
G37*
G36*
X9030Y2088D02*
X9034Y2043D01*
X9036Y2032D01*
X9039Y2023D01*
X9042Y2016D01*
X9046Y2011D01*
X9050Y2008D01*
X9055Y2007D01*
X8905D01*
X8910Y2008D01*
X8914Y2011D01*
X8918Y2016D01*
X8921Y2023D01*
X8924Y2032D01*
X8926Y2043D01*
X8928Y2056D01*
X8930Y2088D01*
X8930Y2107D01*
X9030D01*
X9030Y2088D01*
D02*
G37*
G36*
X4522Y2124D02*
X4516Y2128D01*
X4509Y2133D01*
X4501Y2137D01*
X4493Y2140D01*
X4485Y2143D01*
X4476Y2145D01*
X4467Y2147D01*
X4457Y2148D01*
X4446Y2149D01*
X4436Y2149D01*
Y2175D01*
X4446Y2175D01*
X4467Y2177D01*
X4476Y2179D01*
X4485Y2181D01*
X4493Y2184D01*
X4501Y2187D01*
X4509Y2191D01*
X4516Y2196D01*
X4522Y2200D01*
Y2124D01*
D02*
G37*
G36*
X5030D02*
X5024Y2128D01*
X5017Y2133D01*
X5009Y2137D01*
X5001Y2140D01*
X4993Y2143D01*
X4984Y2145D01*
X4975Y2147D01*
X4965Y2148D01*
X4954Y2149D01*
X4944Y2149D01*
Y2175D01*
X4954Y2175D01*
X4975Y2177D01*
X4984Y2179D01*
X4993Y2181D01*
X5001Y2184D01*
X5009Y2187D01*
X5017Y2191D01*
X5024Y2196D01*
X5030Y2200D01*
Y2124D01*
D02*
G37*
G36*
X4084Y2196D02*
X4091Y2191D01*
X4099Y2187D01*
X4107Y2184D01*
X4115Y2181D01*
X4124Y2179D01*
X4133Y2177D01*
X4143Y2176D01*
X4154Y2175D01*
X4164Y2175D01*
Y2149D01*
X4154Y2149D01*
X4133Y2147D01*
X4124Y2145D01*
X4115Y2143D01*
X4107Y2140D01*
X4099Y2137D01*
X4091Y2133D01*
X4084Y2128D01*
X4078Y2124D01*
Y2200D01*
X4084Y2196D01*
D02*
G37*
G36*
X8467Y2112D02*
X8459Y2111D01*
X8451Y2109D01*
X8443Y2107D01*
X8435Y2104D01*
X8427Y2100D01*
X8419Y2095D01*
X8411Y2090D01*
X8403Y2084D01*
X8395Y2077D01*
X8387Y2069D01*
X8369Y2087D01*
X8377Y2095D01*
X8390Y2111D01*
X8395Y2119D01*
X8400Y2127D01*
X8404Y2135D01*
X8407Y2143D01*
X8409Y2151D01*
X8411Y2159D01*
X8412Y2167D01*
X8467Y2112D01*
D02*
G37*
G36*
X1989Y2099D02*
X1971Y2081D01*
X1940Y2114D01*
X1975Y2117D01*
X1989Y2099D01*
D02*
G37*
G36*
X7234Y2402D02*
X7229Y2395D01*
X7225Y2387D01*
X7222Y2379D01*
X7219Y2371D01*
X7217Y2362D01*
X7215Y2353D01*
X7214Y2343D01*
X7213Y2332D01*
X7213Y2322D01*
X7187D01*
X7187Y2332D01*
X7185Y2353D01*
X7183Y2362D01*
X7181Y2371D01*
X7178Y2379D01*
X7175Y2387D01*
X7171Y2395D01*
X7166Y2402D01*
X7162Y2408D01*
X7238D01*
X7234Y2402D01*
D02*
G37*
G36*
X4245Y2850D02*
X4241Y2849D01*
X4237Y2846D01*
X4234Y2843D01*
X4231Y2838D01*
X4229Y2833D01*
X4227Y2826D01*
X4226Y2818D01*
X4225Y2810D01*
X4225Y2800D01*
X4175D01*
X4175Y2810D01*
X4174Y2818D01*
X4173Y2826D01*
X4171Y2833D01*
X4169Y2838D01*
X4166Y2843D01*
X4163Y2846D01*
X4159Y2849D01*
X4155Y2850D01*
X4150Y2851D01*
X4250D01*
X4245Y2850D01*
D02*
G37*
G36*
X4445D02*
X4441Y2849D01*
X4437Y2846D01*
X4434Y2843D01*
X4431Y2838D01*
X4429Y2833D01*
X4427Y2826D01*
X4426Y2818D01*
X4425Y2810D01*
X4425Y2800D01*
X4375D01*
X4375Y2810D01*
X4374Y2818D01*
X4373Y2826D01*
X4371Y2833D01*
X4369Y2838D01*
X4366Y2843D01*
X4363Y2846D01*
X4359Y2849D01*
X4355Y2850D01*
X4350Y2851D01*
X4450D01*
X4445Y2850D01*
D02*
G37*
G36*
X4045D02*
X4041Y2849D01*
X4037Y2846D01*
X4034Y2843D01*
X4031Y2838D01*
X4029Y2833D01*
X4027Y2826D01*
X4026Y2818D01*
X4025Y2810D01*
X4025Y2800D01*
X3975D01*
X3975Y2810D01*
X3974Y2818D01*
X3973Y2826D01*
X3971Y2833D01*
X3969Y2838D01*
X3966Y2843D01*
X3963Y2846D01*
X3959Y2849D01*
X3955Y2850D01*
X3950Y2851D01*
X4050D01*
X4045Y2850D01*
D02*
G37*
G36*
X3870Y2849D02*
X3866Y2846D01*
X3862Y2841D01*
X3859Y2834D01*
X3856Y2825D01*
X3854Y2814D01*
X3852Y2801D01*
X3850Y2769D01*
X3850Y2750D01*
X3750D01*
X3750Y2769D01*
X3746Y2814D01*
X3744Y2825D01*
X3741Y2834D01*
X3738Y2841D01*
X3734Y2846D01*
X3730Y2849D01*
X3725Y2850D01*
X3875D01*
X3870Y2849D01*
D02*
G37*
G36*
X5669Y2850D02*
X5665Y2848D01*
X5661Y2844D01*
X5658Y2839D01*
X5656Y2832D01*
X5654Y2824D01*
X5652Y2815D01*
X5651Y2803D01*
X5650Y2777D01*
X5550D01*
X5550Y2791D01*
X5548Y2815D01*
X5546Y2824D01*
X5544Y2832D01*
X5542Y2839D01*
X5539Y2844D01*
X5535Y2848D01*
X5531Y2850D01*
X5527Y2851D01*
X5673D01*
X5669Y2850D01*
D02*
G37*
G36*
X3553Y378D02*
X3555Y357D01*
X3557Y348D01*
X3559Y339D01*
X3562Y331D01*
X3565Y323D01*
X3569Y315D01*
X3574Y308D01*
X3578Y302D01*
X3502D01*
X3506Y308D01*
X3511Y315D01*
X3515Y323D01*
X3518Y331D01*
X3521Y339D01*
X3523Y348D01*
X3525Y357D01*
X3526Y367D01*
X3527Y378D01*
X3527Y388D01*
X3553D01*
X3553Y378D01*
D02*
G37*
G36*
X5877Y3237D02*
X5873Y3236D01*
X5838Y3217D01*
X5808Y3192D01*
X5783Y3162D01*
X5764Y3127D01*
X5753Y3089D01*
X5749Y3050D01*
X5753Y3011D01*
X5764Y2973D01*
X5783Y2938D01*
X5808Y2908D01*
X5838Y2883D01*
X5870Y2866D01*
X5866Y2853D01*
X5700D01*
Y3175D01*
X4813D01*
Y3000D01*
Y2825D01*
X4946D01*
X4946Y2824D01*
X4947Y2820D01*
X4948Y2815D01*
X4949Y2811D01*
Y2560D01*
X4953Y2540D01*
X4958Y2532D01*
X4959Y2530D01*
X4959Y2529D01*
X4959Y2529D01*
X4960Y2529D01*
X4960Y2528D01*
X4960Y2527D01*
X4961Y2525D01*
X4961Y2523D01*
X4961Y2519D01*
Y2390D01*
X4964Y2375D01*
X4973Y2363D01*
X4996Y2339D01*
X4991Y2327D01*
X4456D01*
X4439Y2344D01*
Y2469D01*
X4439Y2473D01*
X4439Y2475D01*
X4440Y2477D01*
X4440Y2478D01*
X4440Y2479D01*
X4441Y2479D01*
X4441Y2479D01*
X4441Y2480D01*
X4442Y2482D01*
X4447Y2490D01*
X4451Y2510D01*
Y2811D01*
X4452Y2815D01*
X4453Y2820D01*
X4454Y2824D01*
X4454Y2825D01*
X4587D01*
Y3000D01*
Y3175D01*
X3700D01*
Y2851D01*
X3699Y2850D01*
X3700Y2849D01*
Y2825D01*
X3717D01*
X3719Y2819D01*
X3720Y2811D01*
X3724Y2768D01*
X3724Y2762D01*
Y2722D01*
X3688Y2686D01*
X550D01*
X530Y2683D01*
X512Y2676D01*
X496Y2664D01*
X376Y2544D01*
X364Y2528D01*
X357Y2510D01*
X354Y2490D01*
Y1120D01*
X357Y1100D01*
X364Y1082D01*
X376Y1066D01*
X466Y976D01*
X482Y964D01*
X500Y957D01*
X520Y954D01*
X655D01*
X658Y951D01*
X664Y941D01*
X664Y939D01*
X663Y935D01*
X661Y931D01*
X661Y930D01*
X659Y928D01*
X659Y926D01*
X653Y919D01*
X646Y901D01*
X643Y881D01*
X646Y861D01*
X653Y843D01*
X665Y827D01*
X681Y815D01*
X699Y808D01*
X719Y805D01*
X739Y808D01*
X757Y815D01*
X773Y827D01*
X785Y843D01*
X792Y861D01*
X795Y881D01*
X792Y901D01*
X785Y919D01*
X779Y926D01*
X779Y928D01*
X777Y930D01*
X777Y931D01*
X775Y934D01*
X773Y946D01*
X773Y948D01*
X773Y948D01*
X775Y960D01*
Y1115D01*
X773Y1127D01*
X766Y1137D01*
X756Y1144D01*
X744Y1146D01*
X694D01*
X682Y1144D01*
X672Y1137D01*
X665Y1127D01*
X663Y1115D01*
Y1106D01*
X552D01*
X506Y1152D01*
Y2458D01*
X582Y2534D01*
X772D01*
X777Y2522D01*
X692Y2436D01*
X683Y2424D01*
X680Y2409D01*
Y1867D01*
X672Y1862D01*
X665Y1852D01*
X663Y1840D01*
Y1685D01*
X665Y1673D01*
X672Y1663D01*
X680Y1658D01*
Y1551D01*
X683Y1536D01*
X692Y1524D01*
X833Y1383D01*
X934Y1281D01*
Y1231D01*
X921Y1231D01*
X921Y1234D01*
X919Y1246D01*
X912Y1264D01*
X900Y1280D01*
X884Y1292D01*
X866Y1299D01*
X846Y1302D01*
X826Y1299D01*
X808Y1292D01*
X792Y1280D01*
X780Y1264D01*
X773Y1246D01*
X770Y1226D01*
X773Y1206D01*
X780Y1188D01*
X786Y1180D01*
X787Y1178D01*
X791Y1173D01*
X794Y1168D01*
X797Y1162D01*
X800Y1156D01*
X802Y1150D01*
X804Y1142D01*
X804Y1140D01*
X799Y1137D01*
X792Y1127D01*
X790Y1115D01*
Y960D01*
X792Y948D01*
X799Y938D01*
X809Y931D01*
X821Y929D01*
X871D01*
X883Y931D01*
X893Y938D01*
X900Y948D01*
X902Y960D01*
Y1115D01*
X900Y1127D01*
X893Y1137D01*
X888Y1140D01*
X888Y1142D01*
X890Y1150D01*
X892Y1156D01*
X895Y1162D01*
X898Y1168D01*
X901Y1173D01*
X905Y1178D01*
X906Y1180D01*
X912Y1188D01*
X919Y1206D01*
X921Y1218D01*
X921Y1221D01*
X934Y1221D01*
Y1142D01*
X926Y1137D01*
X919Y1127D01*
X917Y1115D01*
Y960D01*
X919Y948D01*
X926Y938D01*
X936Y931D01*
X948Y929D01*
X998D01*
X1010Y931D01*
X1020Y938D01*
X1027Y948D01*
X1029Y960D01*
Y1115D01*
X1027Y1127D01*
X1020Y1137D01*
X1012Y1142D01*
Y1297D01*
X1009Y1312D01*
X1000Y1324D01*
X982Y1343D01*
X991Y1352D01*
X992Y1351D01*
X994Y1350D01*
X1002Y1344D01*
X1020Y1337D01*
X1040Y1334D01*
X1060Y1337D01*
X1078Y1344D01*
X1094Y1356D01*
X1106Y1372D01*
X1113Y1390D01*
X1116Y1410D01*
X1113Y1430D01*
X1106Y1448D01*
X1094Y1464D01*
X1078Y1476D01*
X1060Y1483D01*
X1040Y1486D01*
X1020Y1483D01*
X1002Y1476D01*
X994Y1470D01*
X992Y1469D01*
X987Y1465D01*
X982Y1462D01*
X976Y1459D01*
X970Y1456D01*
X964Y1454D01*
X956Y1452D01*
X949Y1451D01*
X931Y1449D01*
X886D01*
X885Y1449D01*
X882Y1450D01*
X879Y1450D01*
X877Y1451D01*
X875Y1452D01*
X872Y1454D01*
X870Y1455D01*
X869Y1456D01*
X837Y1488D01*
X842Y1500D01*
X846Y1500D01*
X866Y1503D01*
X884Y1510D01*
X900Y1522D01*
X912Y1538D01*
X919Y1556D01*
X922Y1576D01*
X919Y1596D01*
X912Y1614D01*
X906Y1622D01*
X905Y1624D01*
X901Y1629D01*
X898Y1634D01*
X895Y1640D01*
X892Y1646D01*
X890Y1652D01*
X888Y1660D01*
X888Y1660D01*
X893Y1663D01*
X900Y1673D01*
X902Y1685D01*
Y1840D01*
X900Y1852D01*
X893Y1862D01*
X883Y1869D01*
X871Y1871D01*
X821D01*
X809Y1869D01*
X799Y1862D01*
X792Y1852D01*
X790Y1840D01*
Y1685D01*
X792Y1673D01*
X799Y1663D01*
X804Y1660D01*
X804Y1660D01*
X802Y1652D01*
X800Y1646D01*
X797Y1640D01*
X794Y1634D01*
X791Y1629D01*
X787Y1624D01*
X786Y1622D01*
X780Y1614D01*
X773Y1596D01*
X771Y1581D01*
X758Y1581D01*
Y1658D01*
X766Y1663D01*
X773Y1673D01*
X775Y1685D01*
Y1840D01*
X773Y1852D01*
X766Y1862D01*
X758Y1867D01*
Y2393D01*
X836Y2471D01*
X1810D01*
X1814Y2459D01*
X1773Y2417D01*
X1764Y2405D01*
X1761Y2390D01*
Y2226D01*
X1748Y2220D01*
X1738Y2228D01*
X1720Y2235D01*
X1700Y2238D01*
X1680Y2235D01*
X1662Y2228D01*
X1646Y2216D01*
X1634Y2200D01*
X1627Y2182D01*
X1624Y2162D01*
X1627Y2142D01*
X1634Y2124D01*
X1635Y2122D01*
X1629Y2110D01*
X1515D01*
X1510Y2121D01*
X1512Y2124D01*
X1519Y2142D01*
X1522Y2162D01*
X1519Y2182D01*
X1512Y2200D01*
X1500Y2216D01*
X1484Y2228D01*
X1466Y2235D01*
X1446Y2238D01*
X1426Y2235D01*
X1408Y2228D01*
X1392Y2216D01*
X1380Y2200D01*
X1373Y2182D01*
X1370Y2162D01*
X1373Y2142D01*
X1380Y2124D01*
X1382Y2121D01*
X1377Y2110D01*
X1261D01*
X1256Y2121D01*
X1258Y2124D01*
X1265Y2142D01*
X1268Y2162D01*
X1265Y2182D01*
X1258Y2200D01*
X1246Y2216D01*
X1230Y2228D01*
X1212Y2235D01*
X1192Y2238D01*
X1172Y2235D01*
X1154Y2228D01*
X1138Y2216D01*
X1126Y2200D01*
X1119Y2182D01*
X1116Y2162D01*
X1119Y2142D01*
X1126Y2124D01*
X1128Y2122D01*
X1122Y2108D01*
X1116Y2107D01*
X1103Y2098D01*
X1073Y2067D01*
X1064Y2055D01*
X1061Y2040D01*
Y1867D01*
X1053Y1862D01*
X1046Y1852D01*
X1044Y1840D01*
Y1685D01*
X1046Y1673D01*
X1053Y1663D01*
X1063Y1656D01*
X1075Y1654D01*
X1125D01*
X1137Y1656D01*
X1147Y1663D01*
X1154Y1673D01*
X1156Y1685D01*
Y1840D01*
X1154Y1852D01*
X1147Y1862D01*
X1139Y1867D01*
Y2024D01*
X1147Y2032D01*
X1200D01*
X1205Y2020D01*
X1200Y2014D01*
X1199Y2013D01*
X1189Y2003D01*
X1176Y1994D01*
X1164Y1978D01*
X1157Y1960D01*
X1154Y1940D01*
X1157Y1920D01*
X1164Y1902D01*
X1169Y1896D01*
X1170Y1894D01*
X1174Y1889D01*
X1176Y1884D01*
X1179Y1878D01*
X1181Y1872D01*
X1183Y1866D01*
X1184Y1864D01*
X1180Y1862D01*
X1173Y1852D01*
X1171Y1840D01*
Y1685D01*
X1173Y1673D01*
X1180Y1663D01*
X1188Y1658D01*
Y1553D01*
X1191Y1538D01*
X1200Y1526D01*
X1442Y1283D01*
Y1142D01*
X1434Y1137D01*
X1427Y1127D01*
X1425Y1115D01*
Y960D01*
X1427Y948D01*
X1434Y938D01*
X1444Y931D01*
X1456Y929D01*
X1506D01*
X1518Y931D01*
X1528Y938D01*
X1535Y948D01*
X1537Y960D01*
Y1115D01*
X1535Y1127D01*
X1528Y1137D01*
X1520Y1142D01*
Y1299D01*
X1517Y1314D01*
X1508Y1326D01*
X1347Y1488D01*
X1353Y1500D01*
X1354Y1500D01*
X1374Y1503D01*
X1392Y1510D01*
X1408Y1522D01*
X1420Y1538D01*
X1427Y1556D01*
X1430Y1576D01*
X1427Y1596D01*
X1420Y1614D01*
X1414Y1622D01*
X1413Y1624D01*
X1409Y1629D01*
X1406Y1634D01*
X1403Y1640D01*
X1400Y1646D01*
X1398Y1652D01*
X1396Y1660D01*
X1396Y1660D01*
X1401Y1663D01*
X1408Y1673D01*
X1410Y1685D01*
Y1840D01*
X1408Y1852D01*
X1401Y1862D01*
X1391Y1869D01*
X1379Y1871D01*
X1329D01*
X1317Y1869D01*
X1307Y1862D01*
X1300Y1852D01*
X1298Y1840D01*
Y1685D01*
X1300Y1673D01*
X1307Y1663D01*
X1312Y1660D01*
X1312Y1660D01*
X1310Y1652D01*
X1308Y1646D01*
X1305Y1640D01*
X1302Y1634D01*
X1299Y1629D01*
X1295Y1624D01*
X1294Y1622D01*
X1288Y1614D01*
X1281Y1596D01*
X1279Y1581D01*
X1266Y1581D01*
Y1658D01*
X1274Y1663D01*
X1281Y1673D01*
X1283Y1685D01*
Y1840D01*
X1281Y1852D01*
X1274Y1862D01*
X1272Y1863D01*
X1274Y1868D01*
X1276Y1874D01*
X1280Y1880D01*
X1283Y1885D01*
X1288Y1891D01*
X1289Y1893D01*
X1296Y1902D01*
X1303Y1920D01*
X1306Y1940D01*
X1303Y1960D01*
X1300Y1968D01*
X1308Y1981D01*
X1740D01*
X1755Y1984D01*
X1767Y1993D01*
X1809Y2034D01*
X1821Y2030D01*
Y1950D01*
X1824Y1935D01*
X1833Y1923D01*
X1877Y1879D01*
X1875Y1864D01*
X1872Y1862D01*
X1865Y1852D01*
X1863Y1840D01*
Y1685D01*
X1865Y1673D01*
X1872Y1663D01*
X1880Y1658D01*
Y1561D01*
X1883Y1546D01*
X1892Y1534D01*
X2134Y1291D01*
Y1142D01*
X2126Y1137D01*
X2119Y1127D01*
X2117Y1115D01*
Y960D01*
X2119Y948D01*
X2126Y938D01*
X2136Y931D01*
X2148Y929D01*
X2198D01*
X2210Y931D01*
X2220Y938D01*
X2227Y948D01*
X2229Y960D01*
Y1115D01*
X2227Y1127D01*
X2220Y1137D01*
X2212Y1142D01*
Y1307D01*
X2209Y1322D01*
X2200Y1334D01*
X2048Y1487D01*
X2052Y1501D01*
X2066Y1503D01*
X2084Y1510D01*
X2100Y1522D01*
X2112Y1538D01*
X2119Y1556D01*
X2122Y1576D01*
X2119Y1596D01*
X2112Y1614D01*
X2106Y1622D01*
X2105Y1624D01*
X2101Y1629D01*
X2098Y1634D01*
X2095Y1640D01*
X2092Y1646D01*
X2090Y1652D01*
X2088Y1660D01*
X2088Y1660D01*
X2093Y1663D01*
X2100Y1673D01*
X2102Y1685D01*
Y1840D01*
X2100Y1852D01*
X2093Y1862D01*
X2083Y1869D01*
X2071Y1871D01*
X2021D01*
X2009Y1869D01*
X1999Y1862D01*
X1992Y1852D01*
X1990Y1840D01*
Y1685D01*
X1992Y1673D01*
X1999Y1663D01*
X2004Y1660D01*
X2004Y1660D01*
X2002Y1652D01*
X2000Y1646D01*
X1997Y1640D01*
X1994Y1634D01*
X1991Y1629D01*
X1987Y1624D01*
X1986Y1622D01*
X1980Y1614D01*
X1973Y1596D01*
X1972Y1595D01*
X1959Y1588D01*
X1958Y1588D01*
Y1658D01*
X1966Y1663D01*
X1973Y1673D01*
X1975Y1685D01*
Y1840D01*
X1973Y1852D01*
X1966Y1862D01*
X1958Y1867D01*
Y1891D01*
X1955Y1906D01*
X1946Y1918D01*
X1899Y1966D01*
Y2093D01*
X1912Y2100D01*
X1916Y2096D01*
X1924Y2093D01*
X1927Y2089D01*
X1953Y2063D01*
X1965Y2054D01*
X1980Y2051D01*
X2114D01*
X2134Y2031D01*
Y1867D01*
X2126Y1862D01*
X2119Y1852D01*
X2117Y1840D01*
Y1685D01*
X2119Y1673D01*
X2126Y1663D01*
X2136Y1656D01*
X2148Y1654D01*
X2198D01*
X2210Y1656D01*
X2220Y1663D01*
X2227Y1673D01*
X2229Y1685D01*
Y1840D01*
X2227Y1852D01*
X2220Y1862D01*
X2212Y1867D01*
Y2047D01*
X2209Y2062D01*
X2201Y2074D01*
X2201Y2076D01*
X2207Y2086D01*
X2208Y2086D01*
X2228Y2089D01*
X2246Y2096D01*
X2250Y2099D01*
X2261Y2093D01*
Y1867D01*
X2253Y1862D01*
X2246Y1852D01*
X2244Y1840D01*
Y1685D01*
X2246Y1673D01*
X2253Y1663D01*
X2263Y1656D01*
X2275Y1654D01*
X2325D01*
X2337Y1656D01*
X2347Y1663D01*
X2354Y1673D01*
X2356Y1685D01*
Y1840D01*
X2354Y1852D01*
X2347Y1862D01*
X2339Y1867D01*
Y2174D01*
X2376Y2211D01*
X2391D01*
X2391Y2210D01*
X2396Y2199D01*
X2389Y2182D01*
X2386Y2162D01*
X2389Y2142D01*
X2396Y2124D01*
X2405Y2113D01*
X2406Y2111D01*
X2409Y2107D01*
X2412Y2103D01*
X2414Y2099D01*
X2417Y2093D01*
X2419Y2088D01*
X2420Y2081D01*
X2421Y2074D01*
X2423Y2057D01*
Y2048D01*
X2426Y2033D01*
X2435Y2021D01*
X2476Y1979D01*
X2489Y1970D01*
X2504Y1967D01*
X2788D01*
X2811Y1944D01*
Y1480D01*
X2800Y1475D01*
X2798Y1476D01*
X2780Y1483D01*
X2760Y1486D01*
X2740Y1483D01*
X2722Y1476D01*
X2714Y1470D01*
X2712Y1469D01*
X2707Y1465D01*
X2702Y1462D01*
X2696Y1459D01*
X2690Y1456D01*
X2684Y1454D01*
X2676Y1452D01*
X2669Y1451D01*
X2651Y1449D01*
X2596D01*
X2595Y1449D01*
X2592Y1450D01*
X2589Y1450D01*
X2587Y1451D01*
X2585Y1452D01*
X2582Y1454D01*
X2580Y1455D01*
X2579Y1456D01*
X2548Y1487D01*
X2552Y1494D01*
X2555Y1498D01*
X2574Y1501D01*
X2592Y1508D01*
X2608Y1520D01*
X2620Y1536D01*
X2627Y1554D01*
X2630Y1574D01*
X2627Y1594D01*
X2620Y1612D01*
X2614Y1620D01*
X2613Y1622D01*
X2609Y1627D01*
X2606Y1632D01*
X2603Y1638D01*
X2600Y1644D01*
X2598Y1650D01*
X2596Y1658D01*
X2596Y1660D01*
X2601Y1663D01*
X2608Y1673D01*
X2610Y1685D01*
Y1840D01*
X2608Y1852D01*
X2601Y1862D01*
X2591Y1869D01*
X2579Y1871D01*
X2529D01*
X2517Y1869D01*
X2507Y1862D01*
X2500Y1852D01*
X2498Y1840D01*
Y1685D01*
X2500Y1673D01*
X2507Y1663D01*
X2512Y1660D01*
X2512Y1658D01*
X2510Y1650D01*
X2508Y1644D01*
X2505Y1638D01*
X2502Y1632D01*
X2499Y1627D01*
X2495Y1622D01*
X2494Y1620D01*
X2488Y1612D01*
X2481Y1594D01*
X2479Y1579D01*
X2466Y1579D01*
Y1658D01*
X2474Y1663D01*
X2481Y1673D01*
X2483Y1685D01*
Y1840D01*
X2481Y1852D01*
X2474Y1862D01*
X2464Y1869D01*
X2452Y1871D01*
X2402D01*
X2390Y1869D01*
X2380Y1862D01*
X2373Y1852D01*
X2371Y1840D01*
Y1685D01*
X2373Y1673D01*
X2380Y1663D01*
X2388Y1658D01*
Y1553D01*
X2391Y1538D01*
X2400Y1526D01*
X2543Y1383D01*
X2642Y1283D01*
Y1231D01*
X2629Y1231D01*
X2629Y1234D01*
X2627Y1246D01*
X2620Y1264D01*
X2608Y1280D01*
X2592Y1292D01*
X2574Y1299D01*
X2554Y1302D01*
X2534Y1299D01*
X2516Y1292D01*
X2500Y1280D01*
X2488Y1264D01*
X2481Y1246D01*
X2478Y1226D01*
X2481Y1206D01*
X2488Y1188D01*
X2494Y1180D01*
X2495Y1178D01*
X2499Y1173D01*
X2502Y1168D01*
X2505Y1162D01*
X2508Y1156D01*
X2510Y1150D01*
X2512Y1142D01*
X2512Y1140D01*
X2507Y1137D01*
X2500Y1127D01*
X2498Y1115D01*
Y960D01*
X2500Y948D01*
X2507Y938D01*
X2517Y931D01*
X2529Y929D01*
X2579D01*
X2591Y931D01*
X2601Y938D01*
X2608Y948D01*
X2610Y960D01*
Y1115D01*
X2608Y1127D01*
X2601Y1137D01*
X2596Y1140D01*
X2596Y1142D01*
X2598Y1150D01*
X2600Y1156D01*
X2603Y1162D01*
X2606Y1168D01*
X2609Y1173D01*
X2613Y1178D01*
X2614Y1180D01*
X2620Y1188D01*
X2627Y1206D01*
X2629Y1218D01*
X2629Y1221D01*
X2642Y1221D01*
Y1142D01*
X2634Y1137D01*
X2627Y1127D01*
X2625Y1115D01*
Y960D01*
X2627Y948D01*
X2634Y938D01*
X2644Y931D01*
X2656Y929D01*
X2706D01*
X2718Y931D01*
X2728Y938D01*
X2735Y948D01*
X2737Y960D01*
Y1115D01*
X2735Y1127D01*
X2728Y1137D01*
X2720Y1142D01*
Y1299D01*
X2717Y1314D01*
X2708Y1326D01*
X2682Y1353D01*
X2689Y1364D01*
X2690Y1364D01*
X2696Y1361D01*
X2702Y1358D01*
X2707Y1355D01*
X2712Y1351D01*
X2714Y1350D01*
X2722Y1344D01*
X2740Y1337D01*
X2760Y1334D01*
X2780Y1337D01*
X2798Y1344D01*
X2800Y1345D01*
X2811Y1340D01*
Y849D01*
X2810Y840D01*
X2809Y831D01*
X2808Y824D01*
X2806Y816D01*
X2804Y810D01*
X2801Y804D01*
X2798Y798D01*
X2795Y793D01*
X2791Y788D01*
X2790Y786D01*
X2784Y778D01*
X2777Y760D01*
X2774Y740D01*
X2777Y720D01*
X2784Y702D01*
X2796Y686D01*
X2812Y674D01*
X2830Y667D01*
X2850Y664D01*
X2870Y667D01*
X2888Y674D01*
X2904Y686D01*
X2916Y702D01*
X2923Y720D01*
X2926Y740D01*
X2923Y760D01*
X2916Y778D01*
X2910Y786D01*
X2909Y788D01*
X2905Y793D01*
X2902Y798D01*
X2899Y804D01*
X2896Y810D01*
X2894Y816D01*
X2892Y824D01*
X2891Y831D01*
X2889Y849D01*
Y1960D01*
X2886Y1975D01*
X2877Y1987D01*
X2856Y2009D01*
X2860Y2021D01*
X3286D01*
X3288Y2008D01*
X3282Y2006D01*
X3266Y1994D01*
X3254Y1978D01*
X3247Y1960D01*
X3244Y1940D01*
X3247Y1920D01*
X3254Y1902D01*
X3260Y1895D01*
X3261Y1893D01*
X3265Y1887D01*
X3268Y1882D01*
X3271Y1877D01*
X3273Y1871D01*
X3275Y1864D01*
X3275Y1864D01*
X3272Y1862D01*
X3265Y1852D01*
X3263Y1840D01*
Y1685D01*
X3265Y1673D01*
X3272Y1663D01*
X3280Y1658D01*
Y1551D01*
X3283Y1536D01*
X3292Y1524D01*
X3534Y1281D01*
Y1231D01*
X3521Y1231D01*
X3521Y1234D01*
X3519Y1246D01*
X3512Y1264D01*
X3500Y1280D01*
X3484Y1292D01*
X3466Y1299D01*
X3446Y1302D01*
X3426Y1299D01*
X3408Y1292D01*
X3392Y1280D01*
X3380Y1264D01*
X3373Y1246D01*
X3370Y1226D01*
X3373Y1206D01*
X3380Y1188D01*
X3386Y1180D01*
X3387Y1178D01*
X3391Y1173D01*
X3394Y1168D01*
X3397Y1162D01*
X3400Y1156D01*
X3402Y1150D01*
X3404Y1142D01*
X3404Y1140D01*
X3399Y1137D01*
X3392Y1127D01*
X3390Y1115D01*
Y960D01*
X3392Y948D01*
X3399Y938D01*
X3409Y931D01*
X3421Y929D01*
X3471D01*
X3483Y931D01*
X3493Y938D01*
X3500Y948D01*
X3502Y960D01*
Y1115D01*
X3500Y1127D01*
X3493Y1137D01*
X3488Y1140D01*
X3488Y1142D01*
X3490Y1150D01*
X3492Y1156D01*
X3495Y1162D01*
X3498Y1168D01*
X3501Y1173D01*
X3505Y1178D01*
X3506Y1180D01*
X3512Y1188D01*
X3519Y1206D01*
X3521Y1218D01*
X3521Y1221D01*
X3534Y1221D01*
Y1142D01*
X3526Y1137D01*
X3519Y1127D01*
X3517Y1115D01*
Y960D01*
X3519Y948D01*
X3526Y938D01*
X3536Y931D01*
X3548Y929D01*
X3598D01*
X3610Y931D01*
X3620Y938D01*
X3627Y948D01*
X3629Y960D01*
Y1115D01*
X3627Y1127D01*
X3620Y1137D01*
X3612Y1142D01*
Y1297D01*
X3609Y1312D01*
X3600Y1324D01*
X3439Y1486D01*
X3445Y1498D01*
X3446Y1498D01*
X3466Y1501D01*
X3484Y1508D01*
X3500Y1520D01*
X3512Y1536D01*
X3519Y1554D01*
X3522Y1574D01*
X3519Y1594D01*
X3512Y1612D01*
X3506Y1620D01*
X3505Y1622D01*
X3501Y1627D01*
X3498Y1632D01*
X3495Y1638D01*
X3492Y1644D01*
X3490Y1650D01*
X3488Y1658D01*
X3488Y1660D01*
X3493Y1663D01*
X3500Y1673D01*
X3502Y1685D01*
Y1840D01*
X3500Y1852D01*
X3493Y1862D01*
X3483Y1869D01*
X3471Y1871D01*
X3421D01*
X3409Y1869D01*
X3399Y1862D01*
X3392Y1852D01*
X3390Y1840D01*
Y1685D01*
X3392Y1673D01*
X3399Y1663D01*
X3404Y1660D01*
X3404Y1658D01*
X3402Y1650D01*
X3400Y1644D01*
X3397Y1638D01*
X3394Y1632D01*
X3391Y1627D01*
X3387Y1622D01*
X3386Y1620D01*
X3380Y1612D01*
X3373Y1594D01*
X3371Y1579D01*
X3358Y1579D01*
Y1658D01*
X3366Y1663D01*
X3373Y1673D01*
X3375Y1685D01*
Y1840D01*
X3373Y1852D01*
X3366Y1862D01*
X3363Y1864D01*
X3365Y1869D01*
X3368Y1876D01*
X3371Y1881D01*
X3374Y1886D01*
X3379Y1892D01*
X3380Y1894D01*
X3386Y1902D01*
X3393Y1920D01*
X3396Y1940D01*
X3393Y1960D01*
X3386Y1978D01*
X3374Y1994D01*
X3358Y2006D01*
X3352Y2008D01*
X3354Y2021D01*
X3460D01*
X3475Y2024D01*
X3487Y2033D01*
X3509Y2054D01*
X3523Y2067D01*
X3536Y2077D01*
X3541Y2081D01*
X3546Y2084D01*
X3550Y2086D01*
X3554Y2088D01*
X3557Y2088D01*
X3558Y2089D01*
X3576Y2096D01*
X3592Y2108D01*
X3604Y2124D01*
X3611Y2142D01*
X3614Y2162D01*
X3611Y2182D01*
X3604Y2199D01*
X3609Y2210D01*
X3609Y2211D01*
X3719D01*
X3726Y2201D01*
X3726Y2200D01*
X3719Y2182D01*
X3716Y2162D01*
X3719Y2142D01*
X3726Y2124D01*
X3728Y2121D01*
X3723Y2110D01*
X3651D01*
X3636Y2107D01*
X3623Y2098D01*
X3546Y2020D01*
X3537Y2008D01*
X3534Y1993D01*
Y1867D01*
X3526Y1862D01*
X3519Y1852D01*
X3517Y1840D01*
Y1685D01*
X3519Y1673D01*
X3526Y1663D01*
X3536Y1656D01*
X3548Y1654D01*
X3598D01*
X3610Y1656D01*
X3620Y1663D01*
X3627Y1673D01*
X3629Y1685D01*
Y1840D01*
X3627Y1852D01*
X3620Y1862D01*
X3612Y1867D01*
Y1977D01*
X3667Y2032D01*
X3680D01*
X3685Y2020D01*
X3673Y2008D01*
X3665Y1996D01*
X3662Y1981D01*
Y1868D01*
X3653Y1862D01*
X3646Y1852D01*
X3644Y1840D01*
Y1685D01*
X3646Y1673D01*
X3653Y1663D01*
X3663Y1656D01*
X3675Y1654D01*
X3725D01*
X3737Y1656D01*
X3747Y1663D01*
X3754Y1673D01*
X3756Y1685D01*
Y1840D01*
X3754Y1852D01*
X3747Y1862D01*
X3740Y1867D01*
Y1965D01*
X3756Y1981D01*
X3820D01*
X3824Y1969D01*
X3800Y1944D01*
X3791Y1932D01*
X3788Y1917D01*
Y1867D01*
X3780Y1862D01*
X3773Y1852D01*
X3771Y1840D01*
Y1685D01*
X3773Y1673D01*
X3780Y1663D01*
X3788Y1658D01*
Y1553D01*
X3791Y1538D01*
X3800Y1526D01*
X4042Y1283D01*
Y1231D01*
X4029Y1231D01*
X4029Y1234D01*
X4027Y1246D01*
X4020Y1264D01*
X4008Y1280D01*
X3992Y1292D01*
X3974Y1299D01*
X3954Y1302D01*
X3934Y1299D01*
X3916Y1292D01*
X3900Y1280D01*
X3888Y1264D01*
X3881Y1246D01*
X3878Y1226D01*
X3881Y1206D01*
X3888Y1188D01*
X3894Y1180D01*
X3895Y1178D01*
X3899Y1173D01*
X3902Y1168D01*
X3905Y1162D01*
X3908Y1156D01*
X3910Y1150D01*
X3912Y1142D01*
X3912Y1140D01*
X3907Y1137D01*
X3900Y1127D01*
X3898Y1115D01*
Y960D01*
X3900Y948D01*
X3907Y938D01*
X3917Y931D01*
X3929Y929D01*
X3979D01*
X3991Y931D01*
X4001Y938D01*
X4008Y948D01*
X4010Y960D01*
Y1115D01*
X4008Y1127D01*
X4001Y1137D01*
X3996Y1140D01*
X3996Y1142D01*
X3998Y1150D01*
X4000Y1156D01*
X4003Y1162D01*
X4006Y1168D01*
X4009Y1173D01*
X4013Y1178D01*
X4014Y1180D01*
X4020Y1188D01*
X4027Y1206D01*
X4029Y1218D01*
X4029Y1221D01*
X4042Y1221D01*
Y1142D01*
X4034Y1137D01*
X4027Y1127D01*
X4025Y1115D01*
Y960D01*
X4027Y948D01*
X4034Y938D01*
X4044Y931D01*
X4056Y929D01*
X4106D01*
X4118Y931D01*
X4128Y938D01*
X4135Y948D01*
X4137Y960D01*
Y1115D01*
X4135Y1127D01*
X4128Y1137D01*
X4120Y1142D01*
Y1299D01*
X4117Y1314D01*
X4108Y1326D01*
X3948Y1487D01*
X3952Y1494D01*
X3955Y1498D01*
X3974Y1501D01*
X3992Y1508D01*
X4008Y1520D01*
X4020Y1536D01*
X4027Y1554D01*
X4030Y1574D01*
X4027Y1594D01*
X4020Y1612D01*
X4014Y1620D01*
X4013Y1622D01*
X4009Y1627D01*
X4006Y1632D01*
X4003Y1638D01*
X4000Y1644D01*
X3998Y1650D01*
X3996Y1658D01*
X3996Y1660D01*
X4001Y1663D01*
X4008Y1673D01*
X4010Y1685D01*
Y1840D01*
X4008Y1852D01*
X4001Y1862D01*
X3991Y1869D01*
X3979Y1871D01*
X3929D01*
X3917Y1869D01*
X3907Y1862D01*
X3900Y1852D01*
X3898Y1840D01*
Y1685D01*
X3900Y1673D01*
X3907Y1663D01*
X3912Y1660D01*
X3912Y1658D01*
X3910Y1650D01*
X3908Y1644D01*
X3905Y1638D01*
X3902Y1632D01*
X3899Y1627D01*
X3895Y1622D01*
X3894Y1620D01*
X3888Y1612D01*
X3881Y1594D01*
X3879Y1579D01*
X3866Y1579D01*
Y1658D01*
X3874Y1663D01*
X3881Y1673D01*
X3883Y1685D01*
Y1840D01*
X3881Y1852D01*
X3874Y1862D01*
X3866Y1867D01*
Y1901D01*
X3886Y1921D01*
X4310D01*
X4325Y1924D01*
X4337Y1933D01*
X4440Y2035D01*
X4624D01*
X4639Y2038D01*
X4651Y2046D01*
X4687Y2083D01*
X4696Y2095D01*
X4699Y2110D01*
Y2250D01*
X4798D01*
X4799Y2237D01*
X4788Y2235D01*
X4770Y2228D01*
X4754Y2216D01*
X4742Y2200D01*
X4735Y2182D01*
X4732Y2162D01*
X4735Y2142D01*
X4742Y2124D01*
X4754Y2108D01*
X4770Y2096D01*
X4788Y2089D01*
X4792Y2088D01*
X4796Y2076D01*
X4659Y1939D01*
X4470D01*
X4455Y1936D01*
X4443Y1927D01*
X4283Y1767D01*
X4274Y1755D01*
X4271Y1740D01*
Y1019D01*
X4270Y1010D01*
X4269Y1001D01*
X4268Y994D01*
X4266Y986D01*
X4264Y980D01*
X4261Y974D01*
X4258Y968D01*
X4255Y963D01*
X4251Y958D01*
X4250Y956D01*
X4244Y948D01*
X4237Y930D01*
X4234Y910D01*
X4237Y890D01*
X4244Y872D01*
X4256Y856D01*
X4272Y844D01*
X4290Y837D01*
X4310Y834D01*
X4330Y837D01*
X4348Y844D01*
X4364Y856D01*
X4376Y872D01*
X4383Y890D01*
X4386Y910D01*
X4383Y930D01*
X4376Y948D01*
X4370Y956D01*
X4369Y958D01*
X4365Y963D01*
X4362Y968D01*
X4359Y974D01*
X4356Y980D01*
X4354Y986D01*
X4352Y994D01*
X4351Y1001D01*
X4349Y1019D01*
Y1358D01*
X4362Y1362D01*
X4366Y1356D01*
X4382Y1344D01*
X4400Y1337D01*
X4420Y1334D01*
X4440Y1337D01*
X4458Y1344D01*
X4466Y1350D01*
X4468Y1351D01*
X4473Y1355D01*
X4478Y1358D01*
X4484Y1361D01*
X4490Y1364D01*
X4496Y1366D01*
X4504Y1368D01*
X4511Y1369D01*
X4529Y1371D01*
X4634D01*
X4635Y1371D01*
X4638Y1370D01*
X4641Y1370D01*
X4643Y1369D01*
X4645Y1368D01*
X4648Y1366D01*
X4650Y1365D01*
X4651Y1364D01*
X4734Y1281D01*
Y1231D01*
X4721Y1231D01*
X4721Y1234D01*
X4719Y1246D01*
X4712Y1264D01*
X4700Y1280D01*
X4684Y1292D01*
X4666Y1299D01*
X4646Y1302D01*
X4626Y1299D01*
X4608Y1292D01*
X4592Y1280D01*
X4580Y1264D01*
X4573Y1246D01*
X4570Y1226D01*
X4573Y1206D01*
X4580Y1188D01*
X4586Y1180D01*
X4587Y1178D01*
X4591Y1173D01*
X4594Y1168D01*
X4597Y1162D01*
X4600Y1156D01*
X4602Y1150D01*
X4604Y1142D01*
X4604Y1140D01*
X4599Y1137D01*
X4592Y1127D01*
X4590Y1115D01*
Y960D01*
X4592Y948D01*
X4599Y938D01*
X4609Y931D01*
X4621Y929D01*
X4671D01*
X4683Y931D01*
X4693Y938D01*
X4700Y948D01*
X4702Y960D01*
Y1115D01*
X4700Y1127D01*
X4693Y1137D01*
X4688Y1140D01*
X4688Y1142D01*
X4690Y1150D01*
X4692Y1156D01*
X4695Y1162D01*
X4698Y1168D01*
X4701Y1173D01*
X4705Y1178D01*
X4706Y1180D01*
X4712Y1188D01*
X4719Y1206D01*
X4721Y1218D01*
X4721Y1221D01*
X4734Y1221D01*
Y1142D01*
X4726Y1137D01*
X4719Y1127D01*
X4717Y1115D01*
Y960D01*
X4719Y948D01*
X4726Y938D01*
X4736Y931D01*
X4748Y929D01*
X4798D01*
X4810Y931D01*
X4820Y938D01*
X4827Y948D01*
X4829Y960D01*
Y1115D01*
X4827Y1127D01*
X4820Y1137D01*
X4812Y1142D01*
Y1297D01*
X4809Y1312D01*
X4800Y1324D01*
X4687Y1437D01*
X4637Y1488D01*
X4642Y1500D01*
X4646Y1500D01*
X4666Y1503D01*
X4684Y1510D01*
X4700Y1522D01*
X4712Y1538D01*
X4719Y1556D01*
X4722Y1576D01*
X4719Y1596D01*
X4712Y1614D01*
X4706Y1622D01*
X4705Y1624D01*
X4701Y1629D01*
X4698Y1634D01*
X4695Y1640D01*
X4692Y1646D01*
X4690Y1652D01*
X4688Y1660D01*
X4688Y1660D01*
X4693Y1663D01*
X4700Y1673D01*
X4702Y1685D01*
Y1840D01*
X4700Y1852D01*
X4693Y1862D01*
X4701Y1871D01*
X4703Y1873D01*
X4734Y1904D01*
X4743Y1895D01*
X4737Y1886D01*
X4734Y1871D01*
Y1867D01*
X4726Y1862D01*
X4719Y1852D01*
X4717Y1840D01*
Y1685D01*
X4719Y1673D01*
X4726Y1663D01*
X4736Y1656D01*
X4748Y1654D01*
X4798D01*
X4810Y1656D01*
X4820Y1663D01*
X4827Y1673D01*
X4829Y1685D01*
Y1840D01*
X4827Y1852D01*
X4820Y1862D01*
X4820Y1863D01*
X4849Y1893D01*
X4861Y1888D01*
Y1867D01*
X4853Y1862D01*
X4846Y1852D01*
X4844Y1840D01*
Y1685D01*
X4846Y1673D01*
X4853Y1663D01*
X4863Y1656D01*
X4875Y1654D01*
X4925D01*
X4937Y1656D01*
X4947Y1663D01*
X4954Y1673D01*
X4956Y1685D01*
Y1840D01*
X4954Y1852D01*
X4947Y1862D01*
X4939Y1867D01*
Y1905D01*
X4944Y1909D01*
X4946Y1909D01*
X4959Y1905D01*
X4964Y1892D01*
X4970Y1884D01*
X4971Y1882D01*
X4975Y1877D01*
X4978Y1872D01*
X4981Y1866D01*
X4982Y1863D01*
X4980Y1862D01*
X4973Y1852D01*
X4971Y1840D01*
Y1685D01*
X4973Y1673D01*
X4980Y1663D01*
X4988Y1658D01*
Y1553D01*
X4991Y1538D01*
X5000Y1526D01*
X5242Y1283D01*
Y1231D01*
X5229Y1231D01*
X5229Y1234D01*
X5227Y1246D01*
X5220Y1264D01*
X5208Y1280D01*
X5192Y1292D01*
X5174Y1299D01*
X5154Y1302D01*
X5134Y1299D01*
X5116Y1292D01*
X5100Y1280D01*
X5088Y1264D01*
X5081Y1246D01*
X5078Y1226D01*
X5081Y1206D01*
X5088Y1188D01*
X5094Y1180D01*
X5095Y1178D01*
X5099Y1173D01*
X5102Y1168D01*
X5105Y1162D01*
X5108Y1156D01*
X5110Y1150D01*
X5112Y1142D01*
X5112Y1140D01*
X5107Y1137D01*
X5100Y1127D01*
X5098Y1115D01*
Y960D01*
X5100Y948D01*
X5107Y938D01*
X5117Y931D01*
X5129Y929D01*
X5179D01*
X5191Y931D01*
X5201Y938D01*
X5208Y948D01*
X5210Y960D01*
Y1115D01*
X5208Y1127D01*
X5201Y1137D01*
X5196Y1140D01*
X5196Y1142D01*
X5198Y1150D01*
X5200Y1156D01*
X5203Y1162D01*
X5206Y1168D01*
X5209Y1173D01*
X5213Y1178D01*
X5214Y1180D01*
X5220Y1188D01*
X5227Y1206D01*
X5229Y1218D01*
X5229Y1221D01*
X5242Y1221D01*
Y1142D01*
X5234Y1137D01*
X5227Y1127D01*
X5225Y1115D01*
Y960D01*
X5227Y948D01*
X5234Y938D01*
X5244Y931D01*
X5256Y929D01*
X5306D01*
X5318Y931D01*
X5328Y938D01*
X5335Y948D01*
X5337Y960D01*
Y1115D01*
X5335Y1127D01*
X5328Y1137D01*
X5320Y1142D01*
Y1299D01*
X5317Y1314D01*
X5308Y1326D01*
X5147Y1488D01*
X5153Y1500D01*
X5154Y1500D01*
X5174Y1503D01*
X5192Y1510D01*
X5208Y1522D01*
X5220Y1538D01*
X5227Y1556D01*
X5230Y1576D01*
X5227Y1596D01*
X5220Y1614D01*
X5214Y1622D01*
X5213Y1624D01*
X5209Y1629D01*
X5206Y1634D01*
X5203Y1640D01*
X5200Y1646D01*
X5198Y1652D01*
X5196Y1660D01*
X5196Y1660D01*
X5201Y1663D01*
X5208Y1673D01*
X5210Y1685D01*
Y1840D01*
X5208Y1852D01*
X5201Y1862D01*
X5191Y1869D01*
X5179Y1871D01*
X5129D01*
X5117Y1869D01*
X5107Y1862D01*
X5100Y1852D01*
X5098Y1840D01*
Y1685D01*
X5100Y1673D01*
X5107Y1663D01*
X5112Y1660D01*
X5112Y1660D01*
X5110Y1652D01*
X5108Y1646D01*
X5105Y1640D01*
X5102Y1634D01*
X5099Y1629D01*
X5095Y1624D01*
X5094Y1622D01*
X5088Y1614D01*
X5081Y1596D01*
X5079Y1581D01*
X5066Y1581D01*
Y1658D01*
X5074Y1663D01*
X5081Y1673D01*
X5083Y1685D01*
Y1840D01*
X5081Y1852D01*
X5076Y1858D01*
X5076Y1859D01*
X5076Y1859D01*
X5076Y1860D01*
X5079Y1866D01*
X5082Y1872D01*
X5085Y1877D01*
X5089Y1882D01*
X5090Y1884D01*
X5096Y1892D01*
X5103Y1910D01*
X5106Y1930D01*
X5103Y1950D01*
X5096Y1968D01*
X5095Y1970D01*
X5100Y1981D01*
X5678D01*
X5682Y1968D01*
X5676Y1964D01*
X5664Y1948D01*
X5657Y1930D01*
X5654Y1910D01*
X5657Y1890D01*
X5664Y1872D01*
X5676Y1856D01*
X5692Y1844D01*
X5710Y1837D01*
X5730Y1834D01*
X5750Y1837D01*
X5768Y1844D01*
X5776Y1850D01*
X5778Y1851D01*
X5783Y1855D01*
X5788Y1858D01*
X5794Y1861D01*
X5800Y1864D01*
X5806Y1866D01*
X5814Y1868D01*
X5821Y1869D01*
X5839Y1871D01*
X5863D01*
X5872Y1862D01*
X5865Y1852D01*
X5863Y1840D01*
Y1685D01*
X5865Y1673D01*
X5872Y1663D01*
X5880Y1658D01*
Y1551D01*
X5883Y1536D01*
X5892Y1524D01*
X6134Y1281D01*
Y1231D01*
X6121Y1231D01*
X6121Y1234D01*
X6119Y1246D01*
X6112Y1264D01*
X6100Y1280D01*
X6084Y1292D01*
X6066Y1299D01*
X6046Y1302D01*
X6026Y1299D01*
X6008Y1292D01*
X5992Y1280D01*
X5980Y1264D01*
X5973Y1246D01*
X5970Y1226D01*
X5973Y1206D01*
X5980Y1188D01*
X5986Y1180D01*
X5987Y1178D01*
X5991Y1173D01*
X5994Y1168D01*
X5997Y1162D01*
X6000Y1156D01*
X6002Y1150D01*
X6004Y1142D01*
X6004Y1140D01*
X5999Y1137D01*
X5992Y1127D01*
X5990Y1115D01*
Y960D01*
X5992Y948D01*
X5999Y938D01*
X6009Y931D01*
X6021Y929D01*
X6071D01*
X6083Y931D01*
X6093Y938D01*
X6100Y948D01*
X6102Y960D01*
Y1115D01*
X6100Y1127D01*
X6093Y1137D01*
X6088Y1140D01*
X6088Y1142D01*
X6090Y1150D01*
X6092Y1156D01*
X6095Y1162D01*
X6098Y1168D01*
X6101Y1173D01*
X6105Y1178D01*
X6106Y1180D01*
X6112Y1188D01*
X6119Y1206D01*
X6121Y1218D01*
X6121Y1221D01*
X6134Y1221D01*
Y1142D01*
X6126Y1137D01*
X6119Y1127D01*
X6117Y1115D01*
Y960D01*
X6119Y948D01*
X6126Y938D01*
X6136Y931D01*
X6148Y929D01*
X6198D01*
X6210Y931D01*
X6220Y938D01*
X6227Y948D01*
X6229Y960D01*
Y1115D01*
X6227Y1127D01*
X6220Y1137D01*
X6212Y1142D01*
Y1297D01*
X6209Y1312D01*
X6200Y1324D01*
X6037Y1488D01*
X6042Y1500D01*
X6046Y1500D01*
X6066Y1503D01*
X6084Y1510D01*
X6100Y1522D01*
X6112Y1538D01*
X6119Y1556D01*
X6122Y1576D01*
X6119Y1596D01*
X6112Y1614D01*
X6106Y1622D01*
X6105Y1624D01*
X6101Y1629D01*
X6098Y1634D01*
X6095Y1640D01*
X6092Y1646D01*
X6090Y1652D01*
X6088Y1660D01*
X6088Y1660D01*
X6093Y1663D01*
X6100Y1673D01*
X6102Y1685D01*
Y1840D01*
X6100Y1852D01*
X6093Y1862D01*
X6083Y1869D01*
X6071Y1871D01*
X6021D01*
X6009Y1869D01*
X5999Y1862D01*
X5992Y1852D01*
X5990Y1840D01*
Y1685D01*
X5992Y1673D01*
X5999Y1663D01*
X6004Y1660D01*
X6004Y1660D01*
X6002Y1652D01*
X6000Y1646D01*
X5997Y1640D01*
X5994Y1634D01*
X5991Y1629D01*
X5987Y1624D01*
X5986Y1622D01*
X5980Y1614D01*
X5973Y1596D01*
X5971Y1581D01*
X5958Y1581D01*
Y1658D01*
X5966Y1663D01*
X5973Y1673D01*
X5975Y1685D01*
Y1840D01*
X5973Y1852D01*
X5966Y1862D01*
X5958Y1867D01*
Y1871D01*
X5955Y1886D01*
X5946Y1898D01*
X5907Y1937D01*
X5895Y1946D01*
X5880Y1949D01*
X5839D01*
X5830Y1950D01*
X5821Y1951D01*
X5814Y1952D01*
X5806Y1954D01*
X5800Y1956D01*
X5794Y1959D01*
X5788Y1962D01*
X5783Y1965D01*
X5778Y1968D01*
X5778Y1970D01*
X5784Y1981D01*
X6134D01*
X6143Y1968D01*
X6141Y1960D01*
Y1870D01*
X6136Y1869D01*
X6126Y1862D01*
X6119Y1852D01*
X6117Y1840D01*
Y1685D01*
X6119Y1673D01*
X6126Y1663D01*
X6136Y1656D01*
X6148Y1654D01*
X6198D01*
X6210Y1656D01*
X6220Y1663D01*
X6227Y1673D01*
X6229Y1685D01*
Y1840D01*
X6227Y1852D01*
X6223Y1857D01*
X6222Y1860D01*
X6221Y1860D01*
X6220Y1861D01*
X6220Y1862D01*
X6220Y1862D01*
X6219Y1862D01*
X6219Y1865D01*
Y1930D01*
X6819D01*
X6824Y1919D01*
X6763Y1857D01*
X6754Y1845D01*
X6751Y1830D01*
Y1286D01*
X6724Y1259D01*
X6330D01*
X6315Y1256D01*
X6303Y1247D01*
X6273Y1217D01*
X6264Y1205D01*
X6261Y1190D01*
Y1142D01*
X6253Y1137D01*
X6246Y1127D01*
X6244Y1115D01*
Y960D01*
X6246Y948D01*
X6253Y938D01*
X6263Y931D01*
X6275Y929D01*
X6325D01*
X6337Y931D01*
X6347Y938D01*
X6354Y948D01*
X6356Y960D01*
Y1115D01*
X6354Y1127D01*
X6347Y1137D01*
X6339Y1142D01*
Y1174D01*
X6346Y1181D01*
X6740D01*
X6755Y1184D01*
X6767Y1193D01*
X6817Y1243D01*
X6826Y1255D01*
X6829Y1270D01*
Y1814D01*
X6894Y1880D01*
X6963D01*
X6978Y1883D01*
X6990Y1891D01*
X7001Y1901D01*
X7011Y1895D01*
X7011Y1894D01*
X7009Y1875D01*
X7012Y1855D01*
X7019Y1837D01*
X7031Y1821D01*
X7047Y1809D01*
X7065Y1802D01*
X7085Y1799D01*
X7105Y1802D01*
X7123Y1809D01*
X7131Y1816D01*
X7132Y1816D01*
X7137Y1815D01*
X7145Y1810D01*
X7149Y1788D01*
X7162Y1770D01*
X7180Y1758D01*
X7201Y1754D01*
X7223Y1758D01*
X7241Y1770D01*
X7254Y1788D01*
X7258Y1810D01*
Y1940D01*
X7254Y1962D01*
X7247Y1972D01*
X7254Y1984D01*
X7276D01*
X7283Y1972D01*
X7276Y1962D01*
X7272Y1940D01*
Y1810D01*
X7276Y1788D01*
X7289Y1770D01*
X7291Y1769D01*
X7291Y1764D01*
Y1539D01*
X7290Y1530D01*
X7289Y1521D01*
X7288Y1514D01*
X7286Y1506D01*
X7284Y1500D01*
X7281Y1494D01*
X7278Y1488D01*
X7275Y1483D01*
X7271Y1478D01*
X7270Y1476D01*
X7264Y1468D01*
X7257Y1450D01*
X7254Y1430D01*
X7257Y1410D01*
X7264Y1392D01*
X7276Y1376D01*
X7292Y1364D01*
X7310Y1357D01*
X7330Y1354D01*
X7350Y1357D01*
X7368Y1364D01*
X7384Y1376D01*
X7396Y1392D01*
X7403Y1410D01*
X7406Y1430D01*
X7403Y1450D01*
X7396Y1468D01*
X7390Y1476D01*
X7389Y1478D01*
X7385Y1483D01*
X7382Y1488D01*
X7379Y1494D01*
X7376Y1500D01*
X7374Y1506D01*
X7372Y1514D01*
X7371Y1521D01*
X7369Y1539D01*
Y1763D01*
X7369Y1764D01*
X7369Y1766D01*
X7370Y1768D01*
X7370Y1770D01*
X7371Y1772D01*
X7372Y1774D01*
X7373Y1776D01*
X7374Y1778D01*
X7376Y1780D01*
X7376Y1782D01*
X7381Y1788D01*
X7385Y1810D01*
Y1940D01*
X7381Y1962D01*
X7374Y1972D01*
X7381Y1984D01*
X7403D01*
X7410Y1972D01*
X7403Y1962D01*
X7399Y1940D01*
Y1810D01*
X7403Y1788D01*
X7416Y1770D01*
X7419Y1768D01*
X7418Y1764D01*
X7416Y1756D01*
X7414Y1750D01*
X7411Y1744D01*
X7408Y1738D01*
X7405Y1733D01*
X7401Y1728D01*
X7400Y1726D01*
X7394Y1718D01*
X7387Y1700D01*
X7384Y1680D01*
X7387Y1660D01*
X7394Y1642D01*
X7406Y1626D01*
X7422Y1614D01*
X7440Y1607D01*
X7460Y1604D01*
X7480Y1607D01*
X7498Y1614D01*
X7514Y1626D01*
X7526Y1642D01*
X7533Y1660D01*
X7536Y1680D01*
X7533Y1700D01*
X7526Y1718D01*
X7520Y1726D01*
X7519Y1728D01*
X7515Y1733D01*
X7512Y1738D01*
X7509Y1744D01*
X7506Y1750D01*
X7504Y1756D01*
X7502Y1764D01*
X7501Y1771D01*
X7500Y1775D01*
X7500Y1776D01*
X7501Y1777D01*
X7501Y1778D01*
X7502Y1779D01*
X7503Y1780D01*
X7504Y1782D01*
X7508Y1788D01*
X7512Y1810D01*
Y1940D01*
X7508Y1962D01*
X7501Y1972D01*
X7508Y1984D01*
X7530D01*
X7537Y1972D01*
X7530Y1962D01*
X7526Y1940D01*
Y1888D01*
X7639D01*
Y1940D01*
X7635Y1962D01*
X7628Y1972D01*
X7635Y1984D01*
X7657D01*
X7664Y1972D01*
X7657Y1962D01*
X7653Y1940D01*
Y1810D01*
X7657Y1788D01*
X7670Y1770D01*
X7688Y1758D01*
X7710Y1754D01*
X7731Y1758D01*
X7749Y1770D01*
X7762Y1788D01*
X7766Y1810D01*
Y1940D01*
X7762Y1962D01*
X7755Y1972D01*
X7756Y1976D01*
X7761Y1985D01*
X7772Y1987D01*
X7785Y1996D01*
X7824Y2035D01*
X8374D01*
X8389Y2038D01*
X8401Y2046D01*
X8413Y2058D01*
X8419Y2064D01*
X8426Y2069D01*
X8433Y2073D01*
X8439Y2077D01*
X8445Y2080D01*
X8451Y2082D01*
X8457Y2084D01*
X8463Y2086D01*
X8470Y2087D01*
X8472Y2087D01*
X8482Y2089D01*
X8500Y2096D01*
X8516Y2108D01*
X8528Y2124D01*
X8535Y2142D01*
X8538Y2162D01*
X8535Y2182D01*
X8528Y2200D01*
X8516Y2216D01*
X8500Y2228D01*
X8482Y2235D01*
X8462Y2238D01*
X8442Y2235D01*
X8424Y2228D01*
X8408Y2216D01*
X8396Y2200D01*
X8389Y2182D01*
X8387Y2172D01*
X8387Y2170D01*
X8386Y2163D01*
X8384Y2157D01*
X8382Y2151D01*
X8380Y2145D01*
X8377Y2139D01*
X8373Y2133D01*
X8369Y2126D01*
X8358Y2113D01*
X8279D01*
X8279Y2114D01*
X8274Y2125D01*
X8281Y2142D01*
X8284Y2162D01*
X8281Y2182D01*
X8274Y2200D01*
X8262Y2216D01*
X8246Y2228D01*
X8228Y2235D01*
X8208Y2238D01*
X8188Y2235D01*
X8170Y2228D01*
X8154Y2216D01*
X8142Y2200D01*
X8135Y2182D01*
X8132Y2162D01*
X8135Y2142D01*
X8142Y2125D01*
X8137Y2114D01*
X8137Y2113D01*
X8025D01*
X8025Y2114D01*
X8020Y2125D01*
X8027Y2142D01*
X8030Y2162D01*
X8027Y2182D01*
X8020Y2200D01*
X8008Y2216D01*
X7992Y2228D01*
X7974Y2235D01*
X7954Y2238D01*
X7934Y2235D01*
X7916Y2228D01*
X7908Y2222D01*
X7906Y2221D01*
X7901Y2217D01*
X7896Y2214D01*
X7890Y2211D01*
X7884Y2208D01*
X7878Y2206D01*
X7870Y2204D01*
X7863Y2203D01*
X7845Y2201D01*
X7825D01*
X7810Y2198D01*
X7797Y2189D01*
X7785Y2178D01*
X7784Y2178D01*
X7773Y2183D01*
X7766Y2200D01*
X7754Y2216D01*
X7738Y2228D01*
X7720Y2235D01*
X7700Y2238D01*
X7680Y2235D01*
X7662Y2228D01*
X7646Y2216D01*
X7637Y2203D01*
X7635Y2203D01*
X7632Y2202D01*
X7623Y2201D01*
X7589Y2236D01*
Y2490D01*
X7586Y2505D01*
X7577Y2518D01*
X7559Y2536D01*
X7564Y2548D01*
X8547D01*
X8560Y2535D01*
Y1984D01*
X8559Y1981D01*
X8559Y1981D01*
X8559Y1980D01*
X8546Y1962D01*
X8542Y1940D01*
Y1810D01*
X8546Y1788D01*
X8559Y1770D01*
X8577Y1758D01*
X8599Y1754D01*
X8620Y1758D01*
X8638Y1770D01*
X8651Y1788D01*
X8655Y1810D01*
Y1940D01*
X8651Y1962D01*
X8638Y1980D01*
X8638Y1980D01*
X8637Y1985D01*
Y2551D01*
X8634Y2566D01*
X8626Y2579D01*
X8618Y2586D01*
X8623Y2598D01*
X8846D01*
X8847Y2590D01*
X8854Y2572D01*
X8866Y2556D01*
X8882Y2544D01*
X8900Y2537D01*
X8903Y2536D01*
X8911Y2522D01*
X8907Y2512D01*
X8904Y2493D01*
Y2096D01*
X8904Y2089D01*
X8902Y2059D01*
X8900Y2047D01*
X8899Y2039D01*
X8897Y2033D01*
X8880D01*
Y2008D01*
X8879Y2007D01*
X8880Y2006D01*
Y1921D01*
X8876Y1916D01*
X8863Y1901D01*
X8704Y1741D01*
X8692Y1725D01*
X8688Y1705D01*
Y1351D01*
X8662Y1325D01*
X8064D01*
X8044Y1321D01*
X8043Y1321D01*
X8034Y1330D01*
X8036Y1332D01*
X8043Y1350D01*
X8046Y1370D01*
X8043Y1390D01*
X8036Y1408D01*
X8030Y1416D01*
X8029Y1418D01*
X8025Y1423D01*
X8022Y1428D01*
X8019Y1434D01*
X8016Y1440D01*
X8014Y1446D01*
X8012Y1454D01*
X8011Y1461D01*
X8009Y1479D01*
Y1769D01*
X8009Y1775D01*
X8010Y1777D01*
X8010Y1779D01*
X8010Y1780D01*
X8011Y1780D01*
X8011Y1781D01*
X8012Y1782D01*
X8016Y1788D01*
X8020Y1810D01*
Y1940D01*
X8016Y1962D01*
X8003Y1980D01*
X7985Y1992D01*
X7964Y1996D01*
X7942Y1992D01*
X7924Y1980D01*
X7911Y1962D01*
X7907Y1940D01*
Y1810D01*
X7911Y1788D01*
X7924Y1770D01*
X7931Y1765D01*
X7931Y1762D01*
Y1479D01*
X7930Y1470D01*
X7929Y1461D01*
X7928Y1454D01*
X7926Y1446D01*
X7924Y1440D01*
X7921Y1434D01*
X7918Y1428D01*
X7915Y1423D01*
X7911Y1418D01*
X7910Y1416D01*
X7904Y1408D01*
X7897Y1390D01*
X7894Y1370D01*
X7897Y1350D01*
X7904Y1332D01*
X7916Y1316D01*
X7932Y1304D01*
X7950Y1297D01*
X7970Y1294D01*
X7990Y1297D01*
X8000Y1301D01*
X8008Y1290D01*
X7800Y1083D01*
X7789Y1066D01*
X7785Y1047D01*
Y1013D01*
X7784Y1012D01*
X7780Y990D01*
Y860D01*
X7784Y838D01*
X7797Y820D01*
X7815Y808D01*
X7836Y804D01*
X7858Y808D01*
X7876Y820D01*
X7889Y838D01*
X7893Y860D01*
Y990D01*
X7889Y1012D01*
X7888Y1012D01*
X7888Y1025D01*
Y1025D01*
X7912Y1049D01*
X7915Y1049D01*
X7925Y1035D01*
X7925Y1034D01*
Y1031D01*
X7924Y1030D01*
X7911Y1012D01*
X7907Y990D01*
Y860D01*
X7911Y838D01*
X7924Y820D01*
X7942Y808D01*
X7964Y804D01*
X7985Y808D01*
X8003Y820D01*
X8016Y838D01*
X8020Y860D01*
Y990D01*
X8016Y1012D01*
X8008Y1023D01*
X8129Y1144D01*
X8143Y1142D01*
X8144Y1141D01*
X8141Y1123D01*
X8144Y1103D01*
X8152Y1084D01*
X8157Y1077D01*
X8158Y1075D01*
X8163Y1069D01*
X8166Y1064D01*
X8169Y1059D01*
X8171Y1053D01*
X8174Y1046D01*
X8175Y1039D01*
X8177Y1031D01*
X8177Y1029D01*
X8165Y1012D01*
X8161Y990D01*
Y860D01*
X8164Y847D01*
X8155Y835D01*
X8153D01*
X8144Y847D01*
X8147Y860D01*
Y990D01*
X8143Y1012D01*
X8130Y1030D01*
X8112Y1042D01*
X8090Y1046D01*
X8069Y1042D01*
X8051Y1030D01*
X8038Y1012D01*
X8034Y990D01*
Y860D01*
X8038Y838D01*
X8051Y820D01*
X8051Y819D01*
X8052Y817D01*
Y813D01*
X8051Y810D01*
X8054Y795D01*
X8063Y783D01*
X8064Y781D01*
X8060Y769D01*
X7650D01*
X7635Y766D01*
X7623Y757D01*
X7573Y707D01*
X7564Y695D01*
X7561Y680D01*
Y266D01*
X7546Y251D01*
X7001D01*
X7001Y252D01*
X6996Y263D01*
X7003Y280D01*
X7006Y300D01*
X7003Y320D01*
X6996Y338D01*
X6993Y342D01*
X6992Y343D01*
X6989Y348D01*
X6987Y353D01*
X6985Y358D01*
X6983Y364D01*
X6981Y370D01*
X6979Y378D01*
X6978Y386D01*
X6977Y404D01*
Y529D01*
X6978Y538D01*
X6979Y547D01*
X6980Y554D01*
X6982Y562D01*
X6984Y568D01*
X6987Y574D01*
X6990Y580D01*
X6993Y585D01*
X6995Y587D01*
X6995Y588D01*
X6998Y590D01*
X7001Y592D01*
X7005Y593D01*
X7010Y595D01*
X7016Y597D01*
X7023Y598D01*
X7039Y599D01*
X7048D01*
X7063Y602D01*
X7075Y611D01*
X7104Y639D01*
X7117Y634D01*
X7119Y618D01*
X7126Y600D01*
X7138Y584D01*
X7139Y584D01*
X7143Y579D01*
X7147Y574D01*
X7150Y569D01*
X7153Y564D01*
X7155Y558D01*
X7157Y551D01*
X7159Y544D01*
X7160Y536D01*
X7161Y527D01*
X7161Y527D01*
Y469D01*
X7160Y460D01*
X7159Y451D01*
X7158Y444D01*
X7156Y436D01*
X7154Y430D01*
X7151Y424D01*
X7148Y418D01*
X7145Y413D01*
X7141Y408D01*
X7140Y406D01*
X7134Y398D01*
X7127Y380D01*
X7124Y360D01*
X7127Y340D01*
X7134Y322D01*
X7146Y306D01*
X7162Y294D01*
X7180Y287D01*
X7200Y284D01*
X7220Y287D01*
X7238Y294D01*
X7254Y306D01*
X7266Y322D01*
X7273Y340D01*
X7276Y360D01*
X7273Y380D01*
X7266Y398D01*
X7260Y406D01*
X7259Y408D01*
X7255Y413D01*
X7252Y418D01*
X7249Y424D01*
X7246Y430D01*
X7244Y436D01*
X7242Y444D01*
X7241Y451D01*
X7239Y469D01*
Y534D01*
X7240Y552D01*
X7241Y560D01*
X7243Y568D01*
X7245Y574D01*
X7247Y580D01*
X7249Y585D01*
X7251Y590D01*
X7254Y595D01*
X7255Y596D01*
X7258Y600D01*
X7262Y610D01*
X7263Y612D01*
X7264Y614D01*
X7265Y615D01*
X7266Y618D01*
X7299Y654D01*
X7356Y711D01*
X7364Y724D01*
X7367Y739D01*
Y816D01*
X7368Y819D01*
X7368Y819D01*
X7368Y820D01*
X7381Y838D01*
X7385Y860D01*
Y990D01*
X7383Y999D01*
X7392Y1010D01*
X7401Y999D01*
X7399Y990D01*
Y860D01*
X7403Y838D01*
X7416Y820D01*
X7416Y820D01*
X7417Y815D01*
Y749D01*
X7417Y749D01*
X7416Y740D01*
X7415Y732D01*
X7413Y725D01*
X7411Y718D01*
X7408Y713D01*
X7406Y707D01*
X7402Y703D01*
X7399Y698D01*
X7394Y693D01*
X7394Y693D01*
X7392Y692D01*
X7380Y676D01*
X7373Y658D01*
X7370Y638D01*
X7373Y618D01*
X7380Y600D01*
X7385Y594D01*
X7386Y592D01*
X7390Y587D01*
X7392Y582D01*
X7395Y576D01*
X7397Y570D01*
X7399Y564D01*
X7401Y556D01*
X7403Y549D01*
X7404Y531D01*
Y506D01*
X7404Y497D01*
X7402Y489D01*
X7401Y481D01*
X7399Y474D01*
X7397Y467D01*
X7394Y461D01*
X7391Y456D01*
X7388Y451D01*
X7384Y445D01*
X7383Y443D01*
X7377Y436D01*
X7370Y417D01*
X7367Y398D01*
X7370Y378D01*
X7377Y360D01*
X7389Y344D01*
X7405Y332D01*
X7423Y324D01*
X7443Y321D01*
X7463Y324D01*
X7481Y332D01*
X7497Y344D01*
X7509Y360D01*
X7517Y378D01*
X7519Y398D01*
X7517Y417D01*
X7509Y436D01*
X7503Y443D01*
X7502Y445D01*
X7498Y451D01*
X7495Y456D01*
X7492Y461D01*
X7489Y467D01*
X7487Y474D01*
X7485Y481D01*
X7484Y489D01*
X7482Y506D01*
Y528D01*
X7482Y528D01*
X7483Y537D01*
X7484Y545D01*
X7485Y553D01*
X7487Y560D01*
X7490Y566D01*
X7493Y572D01*
X7496Y578D01*
X7499Y583D01*
X7504Y589D01*
X7505Y591D01*
X7512Y600D01*
X7519Y618D01*
X7522Y638D01*
X7519Y658D01*
X7512Y676D01*
X7509Y679D01*
X7509Y681D01*
X7506Y685D01*
X7504Y689D01*
X7502Y694D01*
X7500Y700D01*
X7497Y715D01*
X7496Y723D01*
X7494Y741D01*
Y816D01*
X7495Y819D01*
X7495Y819D01*
X7495Y820D01*
X7508Y838D01*
X7512Y860D01*
Y990D01*
X7510Y999D01*
X7519Y1010D01*
X7528Y999D01*
X7526Y990D01*
Y860D01*
X7530Y838D01*
X7543Y820D01*
X7561Y808D01*
X7582Y804D01*
X7604Y808D01*
X7622Y820D01*
X7635Y838D01*
X7639Y860D01*
Y990D01*
X7635Y1012D01*
X7622Y1030D01*
X7621Y1031D01*
X7621Y1031D01*
Y1038D01*
X7618Y1052D01*
X7610Y1065D01*
X7589Y1086D01*
X7577Y1094D01*
X7562Y1097D01*
X7173D01*
X7158Y1094D01*
X7146Y1086D01*
X7106Y1046D01*
X7098Y1033D01*
X7095Y1018D01*
Y739D01*
X7032Y677D01*
X7030Y677D01*
X7023Y678D01*
X7016Y679D01*
X7010Y681D01*
X7005Y683D01*
X7001Y684D01*
X6998Y686D01*
X6995Y688D01*
X6993Y691D01*
X6992Y692D01*
X6976Y704D01*
X6958Y711D01*
X6938Y714D01*
X6918Y711D01*
X6900Y704D01*
X6884Y692D01*
X6872Y676D01*
X6865Y658D01*
X6862Y638D01*
X6865Y618D01*
X6872Y600D01*
X6878Y592D01*
X6879Y590D01*
X6883Y585D01*
X6886Y580D01*
X6889Y574D01*
X6892Y568D01*
X6894Y562D01*
X6896Y554D01*
X6897Y547D01*
X6899Y529D01*
Y411D01*
X6899Y411D01*
X6898Y402D01*
X6897Y394D01*
X6895Y387D01*
X6893Y380D01*
X6891Y374D01*
X6888Y369D01*
X6885Y364D01*
X6881Y359D01*
X6877Y354D01*
X6876Y354D01*
X6864Y338D01*
X6857Y320D01*
X6854Y300D01*
X6857Y280D01*
X6864Y263D01*
X6859Y252D01*
X6859Y251D01*
X5324D01*
X5240Y335D01*
Y696D01*
X5237Y710D01*
X5228Y723D01*
X5066Y886D01*
Y933D01*
X5074Y938D01*
X5081Y948D01*
X5083Y960D01*
Y1115D01*
X5081Y1127D01*
X5074Y1137D01*
X5064Y1144D01*
X5052Y1146D01*
X5002D01*
X4990Y1144D01*
X4980Y1137D01*
X4973Y1127D01*
X4971Y1115D01*
Y960D01*
X4973Y948D01*
X4980Y938D01*
X4988Y933D01*
Y869D01*
X4991Y855D01*
X5000Y842D01*
X5001Y841D01*
X4996Y829D01*
X4946D01*
X4939Y836D01*
Y933D01*
X4947Y938D01*
X4954Y948D01*
X4956Y960D01*
Y1115D01*
X4954Y1127D01*
X4947Y1137D01*
X4937Y1144D01*
X4925Y1146D01*
X4875D01*
X4863Y1144D01*
X4853Y1137D01*
X4846Y1127D01*
X4844Y1115D01*
Y960D01*
X4846Y948D01*
X4853Y938D01*
X4861Y933D01*
Y820D01*
X4864Y805D01*
X4873Y793D01*
X4884Y781D01*
X4880Y769D01*
X4366D01*
X4325Y810D01*
X4313Y818D01*
X4298Y821D01*
X3901D01*
X3897Y834D01*
X3903Y850D01*
X3906Y870D01*
X3903Y890D01*
X3896Y908D01*
X3890Y916D01*
X3889Y918D01*
X3885Y923D01*
X3882Y928D01*
X3879Y934D01*
X3876Y940D01*
X3876Y941D01*
X3876Y941D01*
X3876Y942D01*
X3881Y948D01*
X3883Y960D01*
Y1115D01*
X3881Y1127D01*
X3874Y1137D01*
X3864Y1144D01*
X3852Y1146D01*
X3802D01*
X3790Y1144D01*
X3780Y1137D01*
X3773Y1127D01*
X3771Y1115D01*
Y960D01*
X3773Y948D01*
X3780Y938D01*
X3782Y937D01*
X3781Y934D01*
X3778Y928D01*
X3775Y923D01*
X3771Y918D01*
X3770Y916D01*
X3764Y908D01*
X3757Y890D01*
X3754Y870D01*
X3757Y850D01*
X3760Y843D01*
X3752Y828D01*
X3748Y827D01*
X3739Y836D01*
Y933D01*
X3747Y938D01*
X3754Y948D01*
X3756Y960D01*
Y1115D01*
X3754Y1127D01*
X3747Y1137D01*
X3737Y1144D01*
X3725Y1146D01*
X3675D01*
X3663Y1144D01*
X3653Y1137D01*
X3646Y1127D01*
X3644Y1115D01*
Y960D01*
X3646Y948D01*
X3653Y938D01*
X3661Y933D01*
Y820D01*
X3664Y805D01*
X3673Y793D01*
X3688Y777D01*
X3684Y765D01*
X3502D01*
X3487Y762D01*
X3474Y754D01*
X3359Y639D01*
X2646D01*
X2466Y819D01*
Y933D01*
X2474Y938D01*
X2481Y948D01*
X2483Y960D01*
Y1115D01*
X2481Y1127D01*
X2474Y1137D01*
X2464Y1144D01*
X2452Y1146D01*
X2402D01*
X2390Y1144D01*
X2380Y1137D01*
X2373Y1127D01*
X2371Y1115D01*
Y1050D01*
X2358Y1045D01*
X2356Y1048D01*
Y1115D01*
X2354Y1127D01*
X2347Y1137D01*
X2337Y1144D01*
X2325Y1146D01*
X2275D01*
X2263Y1144D01*
X2253Y1137D01*
X2246Y1127D01*
X2244Y1115D01*
Y960D01*
X2246Y948D01*
X2253Y938D01*
X2263Y931D01*
X2275Y929D01*
X2311D01*
Y859D01*
X2310Y850D01*
X2309Y841D01*
X2308Y834D01*
X2306Y826D01*
X2304Y820D01*
X2301Y814D01*
X2298Y808D01*
X2295Y803D01*
X2291Y798D01*
X2290Y796D01*
X2284Y788D01*
X2277Y770D01*
X2276Y766D01*
X2264Y762D01*
X2219Y807D01*
X2206Y815D01*
X2191Y818D01*
X1982D01*
X1977Y831D01*
X1987Y843D01*
X1994Y861D01*
X1997Y881D01*
X1994Y901D01*
X1987Y919D01*
X1981Y926D01*
X1981Y928D01*
X1979Y930D01*
X1979Y931D01*
X1977Y934D01*
X1975Y946D01*
X1974Y953D01*
X1974Y954D01*
X1975Y960D01*
Y1115D01*
X1973Y1127D01*
X1966Y1137D01*
X1956Y1144D01*
X1944Y1146D01*
X1894D01*
X1882Y1144D01*
X1872Y1137D01*
X1865Y1127D01*
X1863Y1115D01*
Y960D01*
X1865Y948D01*
X1867Y946D01*
X1867Y945D01*
X1867Y945D01*
X1866Y939D01*
X1865Y935D01*
X1863Y931D01*
X1863Y930D01*
X1861Y928D01*
X1861Y926D01*
X1855Y919D01*
X1848Y901D01*
X1845Y881D01*
X1848Y861D01*
X1855Y843D01*
X1865Y831D01*
X1860Y818D01*
X1287D01*
X1270Y835D01*
Y934D01*
X1270Y934D01*
X1270Y935D01*
X1270Y936D01*
X1274Y938D01*
X1274Y938D01*
X1274Y939D01*
X1275Y939D01*
X1275Y940D01*
X1277Y943D01*
X1281Y948D01*
X1283Y960D01*
Y1115D01*
X1281Y1127D01*
X1274Y1137D01*
X1264Y1144D01*
X1252Y1146D01*
X1202D01*
X1190Y1144D01*
X1180Y1137D01*
X1173Y1127D01*
X1171Y1115D01*
Y960D01*
X1173Y948D01*
X1180Y938D01*
X1190Y931D01*
X1192Y931D01*
Y819D01*
X1195Y804D01*
X1203Y792D01*
X1216Y779D01*
X1211Y767D01*
X1188D01*
X1139Y816D01*
Y933D01*
X1147Y938D01*
X1154Y948D01*
X1156Y960D01*
Y1115D01*
X1154Y1127D01*
X1147Y1137D01*
X1137Y1144D01*
X1125Y1146D01*
X1075D01*
X1063Y1144D01*
X1053Y1137D01*
X1046Y1127D01*
X1044Y1115D01*
Y960D01*
X1046Y948D01*
X1053Y938D01*
X1061Y933D01*
Y800D01*
X1064Y785D01*
X1073Y773D01*
X1138Y707D01*
X1138Y692D01*
X1137Y690D01*
X1126Y676D01*
X1119Y658D01*
X1116Y638D01*
X1119Y618D01*
X1126Y600D01*
X1138Y584D01*
X1154Y572D01*
X1172Y565D01*
X1192Y562D01*
X1212Y565D01*
X1230Y572D01*
X1246Y584D01*
X1258Y600D01*
X1265Y618D01*
X1268Y638D01*
X1265Y658D01*
X1258Y676D01*
X1256Y678D01*
X1262Y690D01*
X1376D01*
X1382Y678D01*
X1380Y676D01*
X1373Y658D01*
X1370Y638D01*
X1373Y618D01*
X1380Y600D01*
X1392Y584D01*
X1408Y572D01*
X1426Y565D01*
X1446Y562D01*
X1466Y565D01*
X1484Y572D01*
X1500Y584D01*
X1512Y600D01*
X1519Y618D01*
X1522Y638D01*
X1521Y646D01*
X1533Y652D01*
X1575Y611D01*
X1587Y602D01*
X1602Y599D01*
X1609D01*
X1617Y599D01*
X1623Y598D01*
X1629Y597D01*
X1633Y597D01*
X1636Y596D01*
X1637Y595D01*
X1638Y595D01*
X1638Y594D01*
X1639Y593D01*
X1640Y592D01*
X1640Y592D01*
X1646Y584D01*
X1662Y572D01*
X1680Y565D01*
X1700Y562D01*
X1720Y565D01*
X1738Y572D01*
X1754Y584D01*
X1766Y600D01*
X1773Y618D01*
X1776Y638D01*
X1773Y658D01*
X1766Y676D01*
X1754Y692D01*
X1738Y704D01*
X1720Y711D01*
X1700Y714D01*
X1680Y711D01*
X1662Y704D01*
X1646Y692D01*
X1640Y684D01*
X1640Y684D01*
X1639Y683D01*
X1638Y682D01*
X1638Y681D01*
X1637Y681D01*
X1636Y680D01*
X1633Y679D01*
X1629Y679D01*
X1624Y678D01*
X1618Y677D01*
X1566Y729D01*
X1571Y740D01*
X2175D01*
X2192Y723D01*
X2192Y722D01*
X2187Y711D01*
X2170Y704D01*
X2154Y692D01*
X2142Y676D01*
X2135Y658D01*
X2132Y638D01*
X2135Y618D01*
X2142Y600D01*
X2154Y584D01*
X2170Y572D01*
X2188Y565D01*
X2208Y562D01*
X2228Y565D01*
X2246Y572D01*
X2262Y584D01*
X2274Y600D01*
X2281Y617D01*
X2292Y622D01*
X2293Y622D01*
X2303Y613D01*
X2316Y604D01*
X2331Y601D01*
X2353D01*
X2361Y600D01*
X2370Y599D01*
X2377Y598D01*
X2384Y596D01*
X2391Y593D01*
X2397Y591D01*
X2402Y588D01*
X2408Y584D01*
X2413Y580D01*
X2415Y579D01*
X2424Y572D01*
X2442Y565D01*
X2462Y562D01*
X2482Y565D01*
X2500Y572D01*
X2516Y584D01*
X2528Y600D01*
X2535Y618D01*
X2536Y623D01*
X2548Y627D01*
X2603Y573D01*
X2615Y564D01*
X2630Y561D01*
X3375D01*
X3390Y564D01*
X3403Y573D01*
X3453Y622D01*
X3454Y622D01*
X3465Y617D01*
X3472Y600D01*
X3479Y591D01*
X3480Y589D01*
X3484Y584D01*
X3488Y578D01*
X3491Y573D01*
X3493Y567D01*
X3496Y560D01*
X3498Y553D01*
X3499Y546D01*
X3500Y537D01*
X3501Y529D01*
Y379D01*
X3500Y370D01*
X3499Y361D01*
X3498Y354D01*
X3496Y346D01*
X3494Y340D01*
X3491Y334D01*
X3488Y328D01*
X3485Y323D01*
X3481Y318D01*
X3480Y316D01*
X3474Y308D01*
X3467Y290D01*
X3464Y270D01*
X3467Y250D01*
X3474Y232D01*
X3486Y216D01*
X3502Y204D01*
X3520Y197D01*
X3540Y194D01*
X3560Y197D01*
X3578Y204D01*
X3594Y216D01*
X3606Y232D01*
X3613Y250D01*
X3616Y270D01*
X3613Y290D01*
X3606Y308D01*
X3600Y316D01*
X3599Y318D01*
X3595Y323D01*
X3592Y328D01*
X3589Y334D01*
X3586Y340D01*
X3584Y346D01*
X3582Y354D01*
X3581Y361D01*
X3579Y379D01*
Y525D01*
X3579Y540D01*
X3581Y548D01*
X3582Y556D01*
X3584Y563D01*
X3586Y570D01*
X3588Y576D01*
X3591Y581D01*
X3594Y586D01*
X3598Y591D01*
X3599Y593D01*
X3604Y600D01*
X3611Y618D01*
X3614Y638D01*
X3611Y658D01*
X3604Y675D01*
X3609Y686D01*
X3609Y687D01*
X3721D01*
X3721Y686D01*
X3726Y675D01*
X3719Y658D01*
X3716Y638D01*
X3719Y618D01*
X3726Y600D01*
X3728Y598D01*
X3728Y597D01*
X3731Y593D01*
X3733Y589D01*
X3734Y584D01*
X3736Y578D01*
X3738Y571D01*
X3739Y564D01*
X3741Y536D01*
Y389D01*
X3740Y380D01*
X3739Y371D01*
X3738Y364D01*
X3736Y356D01*
X3734Y350D01*
X3731Y344D01*
X3728Y338D01*
X3725Y333D01*
X3721Y328D01*
X3720Y326D01*
X3714Y318D01*
X3707Y300D01*
X3704Y280D01*
X3707Y260D01*
X3714Y242D01*
X3726Y226D01*
X3742Y214D01*
X3760Y207D01*
X3780Y204D01*
X3800Y207D01*
X3818Y214D01*
X3834Y226D01*
X3846Y242D01*
X3853Y260D01*
X3856Y280D01*
X3853Y300D01*
X3846Y318D01*
X3840Y326D01*
X3839Y328D01*
X3835Y333D01*
X3832Y338D01*
X3829Y344D01*
X3826Y350D01*
X3824Y356D01*
X3822Y364D01*
X3821Y371D01*
X3819Y389D01*
Y526D01*
X3819Y527D01*
X3820Y536D01*
X3821Y544D01*
X3823Y551D01*
X3825Y557D01*
X3827Y563D01*
X3830Y568D01*
X3833Y572D01*
X3836Y576D01*
X3841Y580D01*
X3842Y581D01*
X3846Y584D01*
X3858Y600D01*
X3865Y618D01*
X3868Y638D01*
X3865Y658D01*
X3858Y675D01*
X3863Y686D01*
X3863Y687D01*
X3975D01*
X3975Y686D01*
X3980Y675D01*
X3973Y658D01*
X3970Y638D01*
X3973Y618D01*
X3980Y600D01*
X3986Y592D01*
X3987Y590D01*
X3991Y585D01*
X3994Y580D01*
X3997Y574D01*
X4000Y568D01*
X4002Y562D01*
X4004Y554D01*
X4005Y547D01*
X4007Y529D01*
Y452D01*
X4007Y437D01*
X4006Y429D01*
X4004Y421D01*
X4003Y414D01*
X4001Y407D01*
X3998Y401D01*
X3996Y396D01*
X3993Y391D01*
X3989Y386D01*
X3989Y384D01*
X3984Y378D01*
X3977Y360D01*
X3974Y340D01*
X3977Y320D01*
X3984Y302D01*
X3996Y286D01*
X4012Y274D01*
X4030Y267D01*
X4050Y264D01*
X4070Y267D01*
X4088Y274D01*
X4104Y286D01*
X4116Y302D01*
X4123Y320D01*
X4126Y340D01*
X4123Y360D01*
X4116Y378D01*
X4108Y388D01*
X4107Y390D01*
X4103Y395D01*
X4099Y401D01*
X4096Y406D01*
X4093Y413D01*
X4090Y419D01*
X4088Y426D01*
X4087Y434D01*
X4086Y442D01*
X4085Y450D01*
X4085Y450D01*
Y529D01*
X4086Y538D01*
X4087Y547D01*
X4088Y554D01*
X4090Y562D01*
X4092Y568D01*
X4095Y574D01*
X4098Y580D01*
X4101Y585D01*
X4105Y590D01*
X4106Y592D01*
X4112Y600D01*
X4119Y618D01*
X4122Y638D01*
X4119Y658D01*
X4112Y675D01*
X4117Y686D01*
X4117Y687D01*
X4229D01*
X4229Y686D01*
X4234Y675D01*
X4227Y658D01*
X4224Y638D01*
X4227Y618D01*
X4234Y600D01*
X4246Y584D01*
X4262Y572D01*
X4280Y565D01*
X4300Y562D01*
X4320Y565D01*
X4338Y572D01*
X4354Y584D01*
X4366Y600D01*
X4373Y618D01*
X4376Y638D01*
X4373Y658D01*
X4366Y676D01*
X4363Y680D01*
X4369Y691D01*
X4485D01*
X4491Y680D01*
X4488Y676D01*
X4481Y658D01*
X4478Y638D01*
X4481Y618D01*
X4488Y600D01*
X4498Y587D01*
X4498Y586D01*
X4500Y585D01*
X4500Y584D01*
X4500Y584D01*
X4503Y581D01*
X4507Y576D01*
X4510Y570D01*
X4513Y565D01*
X4515Y558D01*
X4518Y551D01*
X4519Y544D01*
X4520Y536D01*
X4521Y528D01*
X4521Y527D01*
Y499D01*
X4520Y490D01*
X4519Y481D01*
X4518Y474D01*
X4516Y466D01*
X4514Y460D01*
X4511Y454D01*
X4508Y448D01*
X4505Y443D01*
X4501Y438D01*
X4500Y436D01*
X4494Y428D01*
X4487Y410D01*
X4484Y390D01*
X4487Y370D01*
X4494Y352D01*
X4506Y336D01*
X4522Y324D01*
X4540Y317D01*
X4560Y314D01*
X4580Y317D01*
X4598Y324D01*
X4614Y336D01*
X4626Y352D01*
X4633Y370D01*
X4636Y390D01*
X4633Y410D01*
X4626Y428D01*
X4620Y436D01*
X4619Y438D01*
X4615Y443D01*
X4612Y448D01*
X4609Y454D01*
X4606Y460D01*
X4604Y466D01*
X4602Y474D01*
X4601Y481D01*
X4599Y499D01*
Y532D01*
X4600Y551D01*
X4602Y559D01*
X4603Y566D01*
X4605Y573D01*
X4607Y579D01*
X4610Y584D01*
X4612Y588D01*
X4615Y593D01*
X4616Y595D01*
X4620Y600D01*
X4627Y618D01*
X4630Y638D01*
X4627Y658D01*
X4620Y676D01*
X4617Y680D01*
X4623Y691D01*
X4739D01*
X4745Y680D01*
X4742Y676D01*
X4735Y658D01*
X4732Y638D01*
X4735Y618D01*
X4742Y600D01*
X4754Y584D01*
X4770Y572D01*
X4788Y565D01*
X4808Y562D01*
X4828Y565D01*
X4846Y572D01*
X4862Y584D01*
X4874Y600D01*
X4881Y618D01*
X4884Y638D01*
X4881Y658D01*
X4874Y676D01*
X4871Y680D01*
X4877Y691D01*
X4954D01*
X4958Y687D01*
X4964Y681D01*
X4969Y674D01*
X4973Y667D01*
X4977Y661D01*
X4980Y655D01*
X4982Y649D01*
X4984Y643D01*
X4986Y637D01*
X4987Y630D01*
X4987Y628D01*
X4989Y618D01*
X4996Y600D01*
X5008Y584D01*
X5024Y572D01*
X5042Y565D01*
X5062Y562D01*
X5082Y565D01*
X5098Y571D01*
X5110Y566D01*
Y281D01*
X5113Y266D01*
X5122Y253D01*
X5241Y134D01*
X5254Y125D01*
X5269Y122D01*
X7601D01*
X7616Y125D01*
X7629Y134D01*
X7727Y233D01*
X7736Y245D01*
X7739Y260D01*
Y529D01*
X7740Y538D01*
X7741Y547D01*
X7742Y554D01*
X7744Y562D01*
X7746Y568D01*
X7749Y574D01*
X7752Y580D01*
X7755Y585D01*
X7759Y590D01*
X7760Y592D01*
X7766Y600D01*
X7773Y618D01*
X7776Y638D01*
X7773Y658D01*
X7766Y676D01*
X7763Y680D01*
X7769Y691D01*
X7885D01*
X7891Y680D01*
X7888Y676D01*
X7881Y658D01*
X7878Y638D01*
X7881Y618D01*
X7888Y600D01*
X7898Y587D01*
X7898Y586D01*
X7900Y585D01*
X7900Y584D01*
X7900Y584D01*
X7903Y581D01*
X7907Y576D01*
X7910Y570D01*
X7913Y565D01*
X7915Y558D01*
X7918Y551D01*
X7919Y547D01*
X7918Y544D01*
X7916Y536D01*
X7914Y530D01*
X7911Y524D01*
X7908Y518D01*
X7905Y513D01*
X7901Y508D01*
X7900Y506D01*
X7894Y498D01*
X7887Y480D01*
X7884Y460D01*
X7887Y440D01*
X7894Y422D01*
X7906Y406D01*
X7922Y394D01*
X7940Y387D01*
X7960Y384D01*
X7980Y387D01*
X7998Y394D01*
X8014Y406D01*
X8026Y422D01*
X8033Y440D01*
X8036Y460D01*
X8033Y480D01*
X8026Y498D01*
X8020Y506D01*
X8019Y508D01*
X8015Y513D01*
X8012Y518D01*
X8009Y524D01*
X8006Y530D01*
X8004Y536D01*
X8002Y544D01*
X8001Y551D01*
X8001Y552D01*
X8002Y559D01*
X8003Y566D01*
X8005Y573D01*
X8007Y579D01*
X8010Y584D01*
X8010Y585D01*
X8012Y586D01*
X8018Y589D01*
X8024Y592D01*
X8030Y594D01*
X8038Y596D01*
X8045Y597D01*
X8063Y599D01*
X8067D01*
X8204Y463D01*
X8217Y454D01*
X8231Y451D01*
X8510D01*
X8525Y454D01*
X8538Y463D01*
X8628Y553D01*
X8637Y566D01*
X8640Y580D01*
Y696D01*
X8637Y710D01*
X8628Y723D01*
X8547Y804D01*
X8534Y813D01*
X8523Y815D01*
X8518Y824D01*
X8517Y828D01*
X8524Y838D01*
X8528Y860D01*
Y990D01*
X8524Y1012D01*
X8512Y1029D01*
X8514Y1035D01*
X8515Y1042D01*
X8518Y1049D01*
X8520Y1055D01*
X8523Y1060D01*
X8526Y1065D01*
X8531Y1071D01*
X8532Y1073D01*
X8537Y1080D01*
X8545Y1099D01*
X8548Y1119D01*
X8545Y1138D01*
X8537Y1157D01*
X8534Y1160D01*
X8540Y1172D01*
X8761D01*
X8775Y1175D01*
X8788Y1183D01*
X8866Y1261D01*
X8880D01*
Y1212D01*
X9080D01*
Y1388D01*
X8880D01*
Y1339D01*
X8850D01*
X8835Y1336D01*
X8823Y1327D01*
X8797Y1302D01*
X8787Y1310D01*
X8787Y1310D01*
X8791Y1330D01*
Y1684D01*
X8868Y1760D01*
X8880Y1755D01*
Y1674D01*
X8879Y1673D01*
X8880Y1672D01*
Y1647D01*
X8897D01*
X8899Y1641D01*
X8900Y1633D01*
X8901Y1620D01*
X8900Y1612D01*
X8899Y1604D01*
X8897Y1598D01*
X8880D01*
Y1573D01*
X8879Y1572D01*
X8880Y1571D01*
Y1422D01*
X9080D01*
Y1571D01*
X9081Y1572D01*
X9080Y1573D01*
Y1598D01*
X9063D01*
X9061Y1604D01*
X9060Y1612D01*
X9059Y1625D01*
X9060Y1633D01*
X9061Y1641D01*
X9063Y1647D01*
X9080D01*
Y1672D01*
X9081Y1673D01*
X9080Y1674D01*
Y1823D01*
X8947D01*
X8942Y1835D01*
X8948Y1841D01*
X8953Y1845D01*
X8961Y1851D01*
X8967Y1855D01*
X8970Y1857D01*
X9080D01*
Y2006D01*
X9081Y2007D01*
X9080Y2008D01*
Y2033D01*
X9063D01*
X9061Y2039D01*
X9060Y2047D01*
X9056Y2089D01*
X9056Y2096D01*
Y2461D01*
X9099Y2504D01*
X9111Y2520D01*
X9114Y2528D01*
X9119Y2538D01*
X9121Y2558D01*
Y2662D01*
X9119Y2682D01*
X9111Y2700D01*
X9099Y2716D01*
X9027Y2788D01*
X9031Y2800D01*
X9300D01*
Y375D01*
X9287Y373D01*
X9286Y377D01*
X9267Y412D01*
X9242Y442D01*
X9212Y467D01*
X9177Y486D01*
X9139Y498D01*
X9100Y501D01*
X9061Y498D01*
X9023Y486D01*
X8988Y467D01*
X8958Y442D01*
X8933Y412D01*
X8914Y377D01*
X8903Y339D01*
X8899Y300D01*
X8903Y261D01*
X8914Y223D01*
X8933Y188D01*
X8958Y158D01*
X8988Y133D01*
X9023Y114D01*
X9027Y113D01*
X9025Y100D01*
X375D01*
X373Y113D01*
X377Y114D01*
X412Y133D01*
X442Y158D01*
X467Y188D01*
X486Y223D01*
X498Y261D01*
X501Y300D01*
X498Y339D01*
X486Y377D01*
X467Y412D01*
X442Y442D01*
X412Y467D01*
X377Y486D01*
X339Y498D01*
X300Y501D01*
X261Y498D01*
X223Y486D01*
X188Y467D01*
X158Y442D01*
X133Y412D01*
X114Y377D01*
X113Y373D01*
X100Y375D01*
Y2800D01*
X3300D01*
Y2897D01*
X3313Y2903D01*
X3338Y2883D01*
X3373Y2864D01*
X3411Y2852D01*
X3450Y2849D01*
X3489Y2852D01*
X3527Y2864D01*
X3562Y2883D01*
X3592Y2908D01*
X3617Y2938D01*
X3636Y2973D01*
X3647Y3011D01*
X3651Y3050D01*
X3647Y3089D01*
X3636Y3127D01*
X3617Y3162D01*
X3592Y3192D01*
X3562Y3217D01*
X3527Y3236D01*
X3523Y3237D01*
X3525Y3250D01*
X5875D01*
X5877Y3237D01*
D02*
G37*
G36*
X5445Y2850D02*
X5441Y2849D01*
X5437Y2846D01*
X5434Y2843D01*
X5431Y2838D01*
X5429Y2833D01*
X5427Y2826D01*
X5426Y2818D01*
X5425Y2810D01*
X5425Y2800D01*
X5375D01*
X5375Y2810D01*
X5374Y2818D01*
X5373Y2826D01*
X5371Y2833D01*
X5369Y2838D01*
X5366Y2843D01*
X5363Y2846D01*
X5359Y2849D01*
X5355Y2850D01*
X5350Y2851D01*
X5450D01*
X5445Y2850D01*
D02*
G37*
G36*
X5045D02*
X5041Y2849D01*
X5037Y2846D01*
X5034Y2843D01*
X5031Y2838D01*
X5029Y2833D01*
X5027Y2826D01*
X5026Y2818D01*
X5025Y2810D01*
X5025Y2800D01*
X4975D01*
X4975Y2810D01*
X4974Y2818D01*
X4973Y2826D01*
X4971Y2833D01*
X4969Y2838D01*
X4966Y2843D01*
X4963Y2846D01*
X4959Y2849D01*
X4955Y2850D01*
X4950Y2851D01*
X5050D01*
X5045Y2850D01*
D02*
G37*
G36*
X5245D02*
X5241Y2849D01*
X5237Y2846D01*
X5234Y2843D01*
X5231Y2838D01*
X5229Y2833D01*
X5227Y2826D01*
X5226Y2818D01*
X5225Y2810D01*
X5225Y2800D01*
X5175D01*
X5175Y2810D01*
X5174Y2818D01*
X5173Y2826D01*
X5171Y2833D01*
X5169Y2838D01*
X5166Y2843D01*
X5163Y2846D01*
X5159Y2849D01*
X5155Y2850D01*
X5150Y2851D01*
X5250D01*
X5245Y2850D01*
D02*
G37*
G36*
X5018Y2543D02*
X5017Y2541D01*
X5016Y2538D01*
X5015Y2535D01*
X5014Y2532D01*
X5014Y2529D01*
X5013Y2526D01*
X5013Y2518D01*
X5013Y2513D01*
X4987D01*
X4987Y2518D01*
X4987Y2526D01*
X4986Y2529D01*
X4986Y2532D01*
X4985Y2535D01*
X4984Y2538D01*
X4983Y2541D01*
X4982Y2543D01*
X4980Y2545D01*
X5020D01*
X5018Y2543D01*
D02*
G37*
G36*
X7213Y468D02*
X7215Y447D01*
X7217Y438D01*
X7219Y429D01*
X7222Y421D01*
X7225Y413D01*
X7229Y405D01*
X7234Y398D01*
X7238Y392D01*
X7162D01*
X7166Y398D01*
X7171Y405D01*
X7175Y413D01*
X7178Y421D01*
X7181Y429D01*
X7183Y438D01*
X7185Y447D01*
X7186Y457D01*
X7187Y468D01*
X7187Y478D01*
X7213D01*
X7213Y468D01*
D02*
G37*
G36*
X5218Y2533D02*
X5217Y2531D01*
X5216Y2528D01*
X5215Y2525D01*
X5214Y2522D01*
X5214Y2519D01*
X5213Y2516D01*
X5213Y2508D01*
X5213Y2503D01*
X5187D01*
X5187Y2508D01*
X5187Y2516D01*
X5186Y2519D01*
X5186Y2522D01*
X5185Y2525D01*
X5184Y2528D01*
X5183Y2531D01*
X5182Y2533D01*
X5180Y2535D01*
X5220D01*
X5218Y2533D01*
D02*
G37*
G36*
X4413Y2390D02*
X4387Y2352D01*
X4387Y2357D01*
X4386Y2361D01*
X4385Y2365D01*
X4383Y2368D01*
X4381Y2371D01*
X4378Y2373D01*
X4375Y2375D01*
X4371Y2376D01*
X4367Y2377D01*
X4362Y2377D01*
Y2403D01*
X4367Y2403D01*
X4371Y2404D01*
X4375Y2405D01*
X4378Y2407D01*
X4381Y2409D01*
X4383Y2412D01*
X4385Y2415D01*
X4386Y2419D01*
X4387Y2423D01*
X4387Y2428D01*
X4413Y2390D01*
D02*
G37*
G36*
X4418Y2493D02*
X4417Y2491D01*
X4416Y2488D01*
X4415Y2485D01*
X4414Y2482D01*
X4414Y2479D01*
X4413Y2476D01*
X4413Y2468D01*
X4413Y2463D01*
X4387D01*
X4387Y2468D01*
X4387Y2476D01*
X4386Y2479D01*
X4386Y2482D01*
X4385Y2485D01*
X4384Y2488D01*
X4383Y2491D01*
X4382Y2493D01*
X4380Y2495D01*
X4420D01*
X4418Y2493D01*
D02*
G37*
G36*
X6951Y416D02*
X6951Y404D01*
X6952Y383D01*
X6954Y373D01*
X6956Y365D01*
X6958Y356D01*
X6960Y349D01*
X6963Y342D01*
X6967Y335D01*
X6970Y329D01*
X6895Y336D01*
X6901Y342D01*
X6906Y349D01*
X6911Y356D01*
X6915Y363D01*
X6918Y371D01*
X6921Y380D01*
X6923Y389D01*
X6924Y399D01*
X6925Y409D01*
X6925Y420D01*
X6951Y416D01*
D02*
G37*
G36*
X3793Y388D02*
X3795Y367D01*
X3797Y358D01*
X3799Y349D01*
X3802Y341D01*
X3805Y333D01*
X3809Y325D01*
X3814Y318D01*
X3818Y312D01*
X3742D01*
X3746Y318D01*
X3751Y325D01*
X3755Y333D01*
X3758Y341D01*
X3761Y349D01*
X3763Y358D01*
X3765Y367D01*
X3766Y377D01*
X3767Y388D01*
X3767Y398D01*
X3793D01*
X3793Y388D01*
D02*
G37*
G36*
X4218Y2633D02*
X4217Y2631D01*
X4216Y2628D01*
X4215Y2625D01*
X4214Y2622D01*
X4214Y2619D01*
X4213Y2616D01*
X4213Y2608D01*
X4213Y2603D01*
X4187D01*
X4187Y2608D01*
X4187Y2616D01*
X4186Y2619D01*
X4186Y2622D01*
X4185Y2625D01*
X4184Y2628D01*
X4183Y2631D01*
X4182Y2633D01*
X4180Y2635D01*
X4220D01*
X4218Y2633D01*
D02*
G37*
G36*
X4059Y449D02*
X4060Y439D01*
X4061Y429D01*
X4063Y420D01*
X4066Y411D01*
X4069Y402D01*
X4073Y394D01*
X4077Y387D01*
X4082Y380D01*
X4087Y373D01*
X4011Y371D01*
X4015Y377D01*
X4019Y384D01*
X4022Y391D01*
X4025Y399D01*
X4028Y407D01*
X4030Y416D01*
X4031Y425D01*
X4032Y435D01*
X4033Y457D01*
X4059Y459D01*
X4059Y449D01*
D02*
G37*
G36*
X4018Y2633D02*
X4017Y2631D01*
X4016Y2628D01*
X4015Y2625D01*
X4014Y2622D01*
X4014Y2619D01*
X4013Y2616D01*
X4013Y2608D01*
X4013Y2603D01*
X3987D01*
X3987Y2608D01*
X3987Y2616D01*
X3986Y2619D01*
X3986Y2622D01*
X3985Y2625D01*
X3984Y2628D01*
X3983Y2631D01*
X3982Y2633D01*
X3980Y2635D01*
X4020D01*
X4018Y2633D01*
D02*
G37*
G36*
X8611Y1985D02*
X8612Y1974D01*
X8613Y1969D01*
X8614Y1965D01*
X8616Y1961D01*
X8617Y1959D01*
X8619Y1957D01*
X8621Y1956D01*
X8624Y1955D01*
X8573D01*
X8576Y1956D01*
X8578Y1957D01*
X8580Y1959D01*
X8581Y1961D01*
X8583Y1965D01*
X8584Y1969D01*
X8585Y1974D01*
X8585Y1979D01*
X8586Y1985D01*
X8586Y1992D01*
X8611D01*
X8611Y1985D01*
D02*
G37*
G36*
X7484Y605D02*
X7478Y598D01*
X7474Y591D01*
X7469Y584D01*
X7466Y576D01*
X7463Y568D01*
X7460Y559D01*
X7458Y550D01*
X7457Y540D01*
X7456Y530D01*
X7456Y519D01*
X7430Y521D01*
X7430Y532D01*
X7428Y552D01*
X7427Y562D01*
X7424Y570D01*
X7422Y579D01*
X7419Y587D01*
X7415Y594D01*
X7411Y601D01*
X7407Y607D01*
X7484Y605D01*
D02*
G37*
G36*
X3572Y600D02*
X3568Y594D01*
X3565Y586D01*
X3561Y578D01*
X3559Y570D01*
X3557Y561D01*
X3555Y552D01*
X3554Y542D01*
X3553Y520D01*
X3527Y519D01*
X3527Y530D01*
X3526Y540D01*
X3525Y550D01*
X3523Y559D01*
X3521Y568D01*
X3518Y576D01*
X3514Y584D01*
X3510Y592D01*
X3505Y599D01*
X3500Y605D01*
X3577Y607D01*
X3572Y600D01*
D02*
G37*
G36*
X7992Y672D02*
X7999Y667D01*
X8007Y663D01*
X8015Y660D01*
X8023Y657D01*
X8032Y655D01*
X8041Y653D01*
X8051Y652D01*
X8062Y651D01*
X8072Y651D01*
Y625D01*
X8062Y625D01*
X8041Y623D01*
X8032Y621D01*
X8023Y619D01*
X8015Y616D01*
X8007Y613D01*
X7999Y609D01*
X7992Y604D01*
X7991Y603D01*
X7990Y602D01*
X7986Y595D01*
X7983Y588D01*
X7980Y581D01*
X7978Y572D01*
X7976Y563D01*
X7975Y554D01*
X7974Y552D01*
X7975Y547D01*
X7977Y538D01*
X7979Y529D01*
X7982Y521D01*
X7985Y513D01*
X7989Y505D01*
X7994Y498D01*
X7998Y492D01*
X7922D01*
X7926Y498D01*
X7931Y505D01*
X7935Y513D01*
X7938Y521D01*
X7941Y529D01*
X7943Y538D01*
X7945Y547D01*
X7945Y549D01*
X7943Y558D01*
X7940Y567D01*
X7937Y575D01*
X7933Y583D01*
X7928Y590D01*
X7923Y597D01*
X7918Y603D01*
X7986Y607D01*
Y676D01*
X7992Y672D01*
D02*
G37*
G36*
X4590Y602D02*
X4586Y595D01*
X4583Y588D01*
X4580Y581D01*
X4578Y572D01*
X4576Y563D01*
X4575Y554D01*
X4573Y533D01*
X4573Y522D01*
X4547Y518D01*
X4547Y529D01*
X4546Y539D01*
X4545Y549D01*
X4543Y558D01*
X4540Y567D01*
X4537Y575D01*
X4533Y583D01*
X4528Y590D01*
X4523Y597D01*
X4518Y603D01*
X4594Y608D01*
X4590Y602D01*
D02*
G37*
G36*
X1932Y1866D02*
X1932Y1861D01*
X1933Y1857D01*
X1934Y1854D01*
X1935Y1851D01*
X1936Y1849D01*
X1938Y1847D01*
X1940Y1846D01*
X1942Y1845D01*
X1944Y1845D01*
X1894D01*
X1896Y1845D01*
X1898Y1846D01*
X1900Y1847D01*
X1902Y1849D01*
X1903Y1851D01*
X1904Y1854D01*
X1905Y1857D01*
X1906Y1861D01*
X1906Y1866D01*
X1906Y1870D01*
X1932D01*
X1932Y1866D01*
D02*
G37*
G36*
X2186D02*
X2186Y1861D01*
X2187Y1857D01*
X2188Y1854D01*
X2189Y1851D01*
X2190Y1849D01*
X2192Y1847D01*
X2194Y1846D01*
X2196Y1845D01*
X2198Y1845D01*
X2148D01*
X2150Y1845D01*
X2152Y1846D01*
X2154Y1847D01*
X2156Y1849D01*
X2157Y1851D01*
X2158Y1854D01*
X2159Y1857D01*
X2160Y1861D01*
X2160Y1866D01*
X2160Y1870D01*
X2186D01*
X2186Y1866D01*
D02*
G37*
G36*
X4080Y600D02*
X4075Y593D01*
X4071Y585D01*
X4068Y577D01*
X4065Y569D01*
X4063Y560D01*
X4061Y551D01*
X4060Y541D01*
X4059Y530D01*
X4059Y520D01*
X4033D01*
X4033Y530D01*
X4031Y551D01*
X4029Y560D01*
X4027Y569D01*
X4024Y577D01*
X4021Y585D01*
X4017Y593D01*
X4012Y600D01*
X4008Y606D01*
X4084D01*
X4080Y600D01*
D02*
G37*
G36*
X1113Y1866D02*
X1113Y1861D01*
X1114Y1857D01*
X1115Y1854D01*
X1116Y1851D01*
X1117Y1849D01*
X1119Y1847D01*
X1121Y1846D01*
X1123Y1845D01*
X1125Y1845D01*
X1075D01*
X1077Y1845D01*
X1079Y1846D01*
X1081Y1847D01*
X1083Y1849D01*
X1084Y1851D01*
X1085Y1854D01*
X1086Y1857D01*
X1087Y1861D01*
X1087Y1866D01*
X1087Y1870D01*
X1113D01*
X1113Y1866D01*
D02*
G37*
G36*
X1268Y1907D02*
X1262Y1900D01*
X1258Y1893D01*
X1253Y1886D01*
X1250Y1878D01*
X1247Y1870D01*
X1244Y1861D01*
X1242Y1852D01*
X1243Y1851D01*
X1244Y1849D01*
X1246Y1847D01*
X1248Y1846D01*
X1250Y1845D01*
X1252Y1845D01*
X1241D01*
X1241Y1842D01*
X1240Y1832D01*
X1240Y1821D01*
X1214Y1823D01*
X1214Y1834D01*
X1213Y1845D01*
X1202D01*
X1204Y1845D01*
X1206Y1846D01*
X1208Y1847D01*
X1210Y1849D01*
X1211Y1851D01*
X1212Y1854D01*
X1212Y1854D01*
X1211Y1864D01*
X1208Y1873D01*
X1206Y1881D01*
X1203Y1889D01*
X1199Y1896D01*
X1195Y1903D01*
X1191Y1909D01*
X1268Y1907D01*
D02*
G37*
G36*
X3358Y1908D02*
X3353Y1901D01*
X3349Y1894D01*
X3345Y1887D01*
X3341Y1879D01*
X3338Y1870D01*
X3336Y1862D01*
X3334Y1853D01*
X3335Y1851D01*
X3336Y1849D01*
X3338Y1847D01*
X3340Y1846D01*
X3342Y1845D01*
X3344Y1845D01*
X3333D01*
X3333Y1842D01*
X3332Y1832D01*
X3332Y1821D01*
X3306Y1822D01*
X3306Y1833D01*
X3305Y1845D01*
X3294D01*
X3296Y1845D01*
X3298Y1846D01*
X3300Y1847D01*
X3302Y1849D01*
X3303Y1851D01*
X3304Y1853D01*
X3302Y1863D01*
X3300Y1871D01*
X3297Y1880D01*
X3294Y1888D01*
X3290Y1895D01*
X3286Y1902D01*
X3281Y1908D01*
X3358Y1908D01*
D02*
G37*
G36*
X7229Y603D02*
X7225Y596D01*
X7222Y589D01*
X7220Y582D01*
X7218Y573D01*
X7216Y565D01*
X7214Y555D01*
X7213Y534D01*
X7213Y522D01*
X7187Y518D01*
X7187Y529D01*
X7186Y539D01*
X7185Y549D01*
X7183Y558D01*
X7180Y567D01*
X7177Y575D01*
X7173Y582D01*
X7168Y589D01*
X7163Y596D01*
X7157Y602D01*
X7232Y609D01*
X7229Y603D01*
D02*
G37*
G36*
X3824Y599D02*
X3818Y594D01*
X3812Y588D01*
X3808Y581D01*
X3804Y574D01*
X3800Y566D01*
X3798Y558D01*
X3795Y549D01*
X3794Y539D01*
X3793Y529D01*
X3793Y518D01*
X3767Y525D01*
X3767Y536D01*
X3765Y567D01*
X3763Y576D01*
X3761Y584D01*
X3759Y592D01*
X3757Y599D01*
X3754Y605D01*
X3751Y610D01*
X3824Y599D01*
D02*
G37*
G36*
X3714Y1866D02*
X3714Y1861D01*
X3715Y1857D01*
X3716Y1854D01*
X3717Y1851D01*
X3718Y1849D01*
X3720Y1847D01*
X3722Y1845D01*
X3724Y1845D01*
X3726Y1844D01*
X3675Y1845D01*
X3678Y1845D01*
X3680Y1846D01*
X3682Y1847D01*
X3684Y1849D01*
X3685Y1851D01*
X3686Y1854D01*
X3687Y1857D01*
X3688Y1861D01*
X3688Y1866D01*
X3688Y1870D01*
X3713D01*
X3714Y1866D01*
D02*
G37*
G36*
X732Y1866D02*
X732Y1861D01*
X733Y1857D01*
X734Y1854D01*
X735Y1851D01*
X736Y1849D01*
X738Y1847D01*
X740Y1846D01*
X742Y1845D01*
X744Y1845D01*
X694D01*
X696Y1845D01*
X698Y1846D01*
X700Y1847D01*
X702Y1849D01*
X703Y1851D01*
X704Y1854D01*
X705Y1857D01*
X706Y1861D01*
X706Y1866D01*
X706Y1870D01*
X732D01*
X732Y1866D01*
D02*
G37*
G36*
X5064Y1892D02*
X5059Y1885D01*
X5055Y1877D01*
X5052Y1869D01*
X5049Y1861D01*
X5047Y1852D01*
X5046Y1849D01*
X5047Y1848D01*
X5049Y1846D01*
X5051Y1845D01*
X5053Y1844D01*
X5055Y1843D01*
X5045Y1844D01*
X5045Y1843D01*
X5044Y1833D01*
X5043Y1822D01*
X5043Y1812D01*
X5017D01*
X5017Y1822D01*
X5015Y1843D01*
X5015Y1845D01*
X5005Y1845D01*
X5007Y1845D01*
X5009Y1846D01*
X5011Y1847D01*
X5013Y1849D01*
X5014Y1850D01*
X5013Y1852D01*
X5011Y1861D01*
X5008Y1869D01*
X5005Y1877D01*
X5001Y1885D01*
X4996Y1892D01*
X4992Y1898D01*
X5068D01*
X5064Y1892D01*
D02*
G37*
G36*
X6193Y1866D02*
X6193Y1858D01*
X6194Y1855D01*
X6195Y1852D01*
X6196Y1850D01*
X6197Y1848D01*
X6198Y1846D01*
X6200Y1844D01*
X6202Y1844D01*
X6155Y1845D01*
X6157Y1845D01*
X6159Y1846D01*
X6161Y1847D01*
X6163Y1849D01*
X6164Y1851D01*
X6165Y1854D01*
X6166Y1857D01*
X6167Y1861D01*
X6167Y1866D01*
X6167Y1870D01*
X6193D01*
X6193Y1866D01*
D02*
G37*
G36*
X4913Y1866D02*
X4913Y1861D01*
X4914Y1857D01*
X4915Y1854D01*
X4916Y1851D01*
X4917Y1849D01*
X4919Y1847D01*
X4921Y1846D01*
X4923Y1845D01*
X4925Y1845D01*
X4875D01*
X4877Y1845D01*
X4879Y1846D01*
X4881Y1847D01*
X4883Y1849D01*
X4884Y1851D01*
X4885Y1854D01*
X4886Y1857D01*
X4887Y1861D01*
X4887Y1866D01*
X4887Y1870D01*
X4913D01*
X4913Y1866D01*
D02*
G37*
G36*
X8430Y600D02*
X8424Y604D01*
X8417Y609D01*
X8409Y613D01*
X8401Y616D01*
X8393Y619D01*
X8384Y621D01*
X8375Y623D01*
X8365Y624D01*
X8354Y625D01*
X8344Y625D01*
Y651D01*
X8354Y651D01*
X8375Y653D01*
X8384Y655D01*
X8393Y657D01*
X8401Y660D01*
X8409Y663D01*
X8417Y667D01*
X8424Y672D01*
X8430Y676D01*
Y600D01*
D02*
G37*
G36*
X4573Y498D02*
X4575Y477D01*
X4577Y468D01*
X4579Y459D01*
X4582Y451D01*
X4585Y443D01*
X4589Y435D01*
X4594Y428D01*
X4598Y422D01*
X4522D01*
X4526Y428D01*
X4531Y435D01*
X4535Y443D01*
X4538Y451D01*
X4541Y459D01*
X4543Y468D01*
X4545Y477D01*
X4546Y487D01*
X4547Y498D01*
X4547Y508D01*
X4573D01*
X4573Y498D01*
D02*
G37*
G36*
X5932Y1866D02*
X5932Y1861D01*
X5933Y1857D01*
X5934Y1854D01*
X5935Y1851D01*
X5936Y1849D01*
X5938Y1847D01*
X5940Y1846D01*
X5942Y1845D01*
X5944Y1845D01*
X5894D01*
X5896Y1845D01*
X5898Y1846D01*
X5900Y1847D01*
X5902Y1849D01*
X5903Y1851D01*
X5904Y1854D01*
X5905Y1857D01*
X5906Y1861D01*
X5906Y1866D01*
X5906Y1870D01*
X5932D01*
X5932Y1866D01*
D02*
G37*
G36*
X7456Y505D02*
X7458Y485D01*
X7460Y475D01*
X7462Y467D01*
X7465Y458D01*
X7468Y450D01*
X7472Y443D01*
X7477Y436D01*
X7481Y430D01*
X7405D01*
X7410Y436D01*
X7414Y443D01*
X7418Y450D01*
X7421Y458D01*
X7424Y467D01*
X7426Y475D01*
X7428Y485D01*
X7429Y495D01*
X7430Y505D01*
X7430Y516D01*
X7456D01*
X7456Y505D01*
D02*
G37*
G36*
X5768Y1944D02*
X5775Y1939D01*
X5783Y1935D01*
X5791Y1932D01*
X5799Y1929D01*
X5808Y1927D01*
X5817Y1925D01*
X5827Y1924D01*
X5838Y1923D01*
X5848Y1923D01*
Y1897D01*
X5838Y1897D01*
X5817Y1895D01*
X5808Y1893D01*
X5799Y1891D01*
X5791Y1888D01*
X5783Y1885D01*
X5775Y1881D01*
X5768Y1876D01*
X5762Y1872D01*
Y1948D01*
X5768Y1944D01*
D02*
G37*
G36*
X7124Y1908D02*
X7130Y1904D01*
X7137Y1900D01*
X7145Y1897D01*
X7153Y1894D01*
X7162Y1892D01*
X7166Y1891D01*
X7168Y1892D01*
X7170Y1894D01*
X7171Y1896D01*
X7172Y1898D01*
X7172Y1900D01*
Y1890D01*
X7181Y1889D01*
X7191Y1888D01*
X7201Y1888D01*
Y1862D01*
X7191Y1862D01*
X7172Y1860D01*
Y1850D01*
X7172Y1852D01*
X7171Y1854D01*
X7170Y1856D01*
X7168Y1858D01*
X7166Y1859D01*
X7162Y1858D01*
X7153Y1856D01*
X7145Y1853D01*
X7137Y1850D01*
X7130Y1846D01*
X7124Y1842D01*
X7117Y1837D01*
Y1913D01*
X7124Y1908D01*
D02*
G37*
G36*
X3840Y1866D02*
X3840Y1861D01*
X3841Y1857D01*
X3842Y1854D01*
X3843Y1851D01*
X3844Y1849D01*
X3846Y1847D01*
X3848Y1846D01*
X3850Y1845D01*
X3852Y1845D01*
X3802D01*
X3804Y1845D01*
X3806Y1846D01*
X3808Y1847D01*
X3810Y1849D01*
X3811Y1851D01*
X3812Y1854D01*
X3813Y1857D01*
X3814Y1861D01*
X3814Y1866D01*
X3814Y1870D01*
X3840D01*
X3840Y1866D01*
D02*
G37*
G36*
X3586D02*
X3586Y1861D01*
X3587Y1857D01*
X3588Y1854D01*
X3589Y1851D01*
X3590Y1849D01*
X3592Y1847D01*
X3594Y1846D01*
X3596Y1845D01*
X3598Y1845D01*
X3548D01*
X3550Y1845D01*
X3552Y1846D01*
X3554Y1847D01*
X3556Y1849D01*
X3557Y1851D01*
X3558Y1854D01*
X3559Y1857D01*
X3560Y1861D01*
X3560Y1866D01*
X3560Y1870D01*
X3586D01*
X3586Y1866D01*
D02*
G37*
G36*
X2313D02*
X2313Y1861D01*
X2314Y1857D01*
X2315Y1854D01*
X2316Y1851D01*
X2317Y1849D01*
X2319Y1847D01*
X2321Y1846D01*
X2323Y1845D01*
X2325Y1845D01*
X2275D01*
X2277Y1845D01*
X2279Y1846D01*
X2281Y1847D01*
X2283Y1849D01*
X2284Y1851D01*
X2285Y1854D01*
X2286Y1857D01*
X2287Y1861D01*
X2287Y1866D01*
X2287Y1870D01*
X2313D01*
X2313Y1866D01*
D02*
G37*
G36*
X4786D02*
X4786Y1861D01*
X4787Y1857D01*
X4788Y1854D01*
X4789Y1851D01*
X4790Y1849D01*
X4792Y1847D01*
X4794Y1846D01*
X4796Y1845D01*
X4798Y1845D01*
X4748D01*
X4750Y1845D01*
X4752Y1846D01*
X4754Y1847D01*
X4756Y1849D01*
X4757Y1851D01*
X4758Y1854D01*
X4759Y1857D01*
X4760Y1861D01*
X4760Y1866D01*
X4760Y1870D01*
X4786D01*
X4786Y1866D01*
D02*
G37*
G36*
X8986Y1895D02*
X8982Y1895D01*
X8977Y1893D01*
X8975Y1892D01*
X8989Y1883D01*
X8984Y1885D01*
X8979Y1886D01*
X8973Y1886D01*
X8967Y1884D01*
X8961Y1881D01*
X8953Y1877D01*
X8945Y1872D01*
X8937Y1865D01*
X8928Y1857D01*
X8918Y1847D01*
X8870Y1870D01*
X8880Y1881D01*
X8897Y1900D01*
X8903Y1909D01*
X8907Y1916D01*
X8910Y1923D01*
X8911Y1929D01*
X8911Y1934D01*
X8909Y1938D01*
X8906Y1941D01*
X8922Y1929D01*
X8923Y1931D01*
X8926Y1937D01*
X8928Y1942D01*
X8930Y1947D01*
X8930Y1951D01*
X8986Y1895D01*
D02*
G37*
G36*
X7734Y600D02*
X7729Y593D01*
X7725Y585D01*
X7722Y577D01*
X7719Y569D01*
X7717Y560D01*
X7715Y551D01*
X7714Y541D01*
X7713Y530D01*
X7713Y520D01*
X7687D01*
X7687Y530D01*
X7685Y551D01*
X7683Y560D01*
X7681Y569D01*
X7678Y577D01*
X7675Y585D01*
X7671Y593D01*
X7666Y600D01*
X7662Y606D01*
X7738D01*
X7734Y600D01*
D02*
G37*
G36*
X6979Y668D02*
X6984Y665D01*
X6990Y661D01*
X6996Y658D01*
X7003Y656D01*
X7011Y654D01*
X7019Y653D01*
X7028Y652D01*
X7048Y651D01*
Y625D01*
X7038Y625D01*
X7019Y623D01*
X7011Y622D01*
X7003Y620D01*
X6996Y618D01*
X6990Y615D01*
X6984Y611D01*
X6979Y608D01*
X6975Y605D01*
X6972Y600D01*
X6967Y593D01*
X6963Y585D01*
X6960Y577D01*
X6957Y569D01*
X6955Y560D01*
X6953Y551D01*
X6952Y541D01*
X6951Y530D01*
X6951Y520D01*
X6925D01*
X6925Y530D01*
X6923Y551D01*
X6921Y560D01*
X6919Y569D01*
X6916Y577D01*
X6913Y585D01*
X6909Y593D01*
X6904Y600D01*
X6900Y606D01*
X6974D01*
Y672D01*
X6979Y668D01*
D02*
G37*
%LPC*%
G36*
X938Y714D02*
X918Y711D01*
X900Y704D01*
X884Y692D01*
X872Y676D01*
X865Y658D01*
X862Y638D01*
X865Y618D01*
X872Y600D01*
X884Y584D01*
X900Y572D01*
X918Y565D01*
X938Y562D01*
X958Y565D01*
X976Y572D01*
X992Y584D01*
X1004Y600D01*
X1011Y618D01*
X1014Y638D01*
X1011Y658D01*
X1004Y676D01*
X992Y692D01*
X976Y704D01*
X958Y711D01*
X938Y714D01*
D02*
G37*
G36*
X1954D02*
X1934Y711D01*
X1916Y704D01*
X1900Y692D01*
X1888Y676D01*
X1881Y658D01*
X1878Y638D01*
X1881Y618D01*
X1888Y600D01*
X1900Y584D01*
X1916Y572D01*
X1934Y565D01*
X1954Y562D01*
X1974Y565D01*
X1992Y572D01*
X2008Y584D01*
X2020Y600D01*
X2027Y618D01*
X2030Y638D01*
X2027Y658D01*
X2020Y676D01*
X2008Y692D01*
X1992Y704D01*
X1974Y711D01*
X1954Y714D01*
D02*
G37*
G36*
X6452Y1146D02*
X6402D01*
X6390Y1144D01*
X6380Y1137D01*
X6373Y1127D01*
X6371Y1115D01*
Y960D01*
X6373Y948D01*
X6380Y938D01*
X6390Y931D01*
X6402Y929D01*
X6452D01*
X6464Y931D01*
X6474Y938D01*
X6481Y948D01*
X6483Y960D01*
Y1115D01*
X6481Y1127D01*
X6474Y1137D01*
X6464Y1144D01*
X6452Y1146D01*
D02*
G37*
G36*
X2040Y1306D02*
X2020Y1303D01*
X2002Y1296D01*
X1986Y1284D01*
X1974Y1268D01*
X1967Y1250D01*
X1964Y1230D01*
X1967Y1210D01*
X1974Y1192D01*
X1980Y1184D01*
X1981Y1182D01*
X1985Y1177D01*
X1988Y1172D01*
X1991Y1166D01*
X1994Y1160D01*
X1996Y1154D01*
X1998Y1146D01*
X1999Y1139D01*
X2000Y1137D01*
X1999Y1137D01*
X1999Y1137D01*
X1999Y1136D01*
X1998Y1136D01*
X1997Y1135D01*
X1996Y1132D01*
X1992Y1127D01*
X1990Y1115D01*
Y960D01*
X1992Y948D01*
X1999Y938D01*
X2009Y931D01*
X2021Y929D01*
X2071D01*
X2083Y931D01*
X2093Y938D01*
X2100Y948D01*
X2102Y960D01*
Y1115D01*
X2100Y1127D01*
X2093Y1137D01*
X2083Y1144D01*
X2085Y1156D01*
X2086Y1160D01*
X2089Y1166D01*
X2092Y1172D01*
X2095Y1177D01*
X2099Y1182D01*
X2100Y1184D01*
X2106Y1192D01*
X2113Y1210D01*
X2116Y1230D01*
X2113Y1250D01*
X2106Y1268D01*
X2094Y1284D01*
X2078Y1296D01*
X2060Y1303D01*
X2040Y1306D01*
D02*
G37*
G36*
X6706Y1146D02*
X6656D01*
X6644Y1144D01*
X6634Y1137D01*
X6627Y1127D01*
X6625Y1115D01*
Y960D01*
X6627Y948D01*
X6634Y938D01*
X6644Y931D01*
X6656Y929D01*
X6706D01*
X6718Y931D01*
X6728Y938D01*
X6735Y948D01*
X6737Y960D01*
Y1115D01*
X6735Y1127D01*
X6728Y1137D01*
X6718Y1144D01*
X6706Y1146D01*
D02*
G37*
G36*
X6579D02*
X6529D01*
X6517Y1144D01*
X6507Y1137D01*
X6500Y1127D01*
X6498Y1115D01*
Y960D01*
X6500Y948D01*
X6507Y938D01*
X6517Y931D01*
X6529Y929D01*
X6579D01*
X6591Y931D01*
X6601Y938D01*
X6608Y948D01*
X6610Y960D01*
Y1115D01*
X6608Y1127D01*
X6601Y1137D01*
X6591Y1144D01*
X6579Y1146D01*
D02*
G37*
G36*
X1350Y1306D02*
X1330Y1303D01*
X1312Y1296D01*
X1296Y1284D01*
X1284Y1268D01*
X1277Y1250D01*
X1274Y1230D01*
X1277Y1210D01*
X1284Y1192D01*
X1290Y1184D01*
X1291Y1182D01*
X1295Y1177D01*
X1298Y1172D01*
X1301Y1166D01*
X1304Y1160D01*
X1306Y1154D01*
X1308Y1146D01*
X1309Y1139D01*
X1309Y1138D01*
X1307Y1137D01*
X1307Y1137D01*
X1307Y1136D01*
X1306Y1136D01*
X1306Y1135D01*
X1304Y1132D01*
X1300Y1127D01*
X1298Y1115D01*
Y960D01*
X1300Y948D01*
X1307Y938D01*
X1317Y931D01*
X1329Y929D01*
X1379D01*
X1391Y931D01*
X1401Y938D01*
X1408Y948D01*
X1410Y960D01*
Y1115D01*
X1408Y1127D01*
X1401Y1137D01*
X1391Y1143D01*
X1392Y1146D01*
X1394Y1154D01*
X1396Y1160D01*
X1399Y1166D01*
X1402Y1172D01*
X1405Y1177D01*
X1409Y1182D01*
X1410Y1184D01*
X1416Y1192D01*
X1423Y1210D01*
X1426Y1230D01*
X1423Y1250D01*
X1416Y1268D01*
X1404Y1284D01*
X1388Y1296D01*
X1370Y1303D01*
X1350Y1306D01*
D02*
G37*
G36*
X5944Y1146D02*
X5894D01*
X5882Y1144D01*
X5872Y1137D01*
X5865Y1127D01*
X5863Y1115D01*
Y960D01*
X5865Y948D01*
X5867Y946D01*
X5867Y946D01*
X5867Y946D01*
X5868Y938D01*
X5866Y924D01*
X5865Y918D01*
X5864Y914D01*
X5862Y910D01*
X5862Y909D01*
X5860Y907D01*
X5860Y905D01*
X5854Y898D01*
X5847Y880D01*
X5844Y860D01*
X5847Y840D01*
X5854Y822D01*
X5866Y806D01*
X5882Y794D01*
X5900Y787D01*
X5920Y784D01*
X5940Y787D01*
X5958Y794D01*
X5974Y806D01*
X5986Y822D01*
X5993Y840D01*
X5996Y860D01*
X5993Y880D01*
X5986Y898D01*
X5980Y905D01*
X5980Y907D01*
X5978Y909D01*
X5978Y910D01*
X5976Y913D01*
X5974Y925D01*
X5973Y932D01*
X5972Y947D01*
X5973Y948D01*
X5975Y960D01*
Y1115D01*
X5973Y1127D01*
X5966Y1137D01*
X5956Y1144D01*
X5944Y1146D01*
D02*
G37*
G36*
X4544D02*
X4494D01*
X4482Y1144D01*
X4472Y1137D01*
X4465Y1127D01*
X4463Y1115D01*
Y960D01*
X4465Y948D01*
X4467Y946D01*
X4467Y946D01*
X4467Y946D01*
X4468Y938D01*
X4466Y924D01*
X4465Y918D01*
X4464Y914D01*
X4462Y910D01*
X4462Y909D01*
X4460Y907D01*
X4460Y905D01*
X4454Y898D01*
X4447Y880D01*
X4444Y860D01*
X4447Y840D01*
X4454Y822D01*
X4466Y806D01*
X4482Y794D01*
X4500Y787D01*
X4520Y784D01*
X4540Y787D01*
X4558Y794D01*
X4574Y806D01*
X4586Y822D01*
X4593Y840D01*
X4596Y860D01*
X4593Y880D01*
X4586Y898D01*
X4580Y905D01*
X4580Y907D01*
X4578Y909D01*
X4578Y910D01*
X4576Y913D01*
X4574Y925D01*
X4573Y932D01*
X4572Y947D01*
X4573Y948D01*
X4575Y960D01*
Y1115D01*
X4573Y1127D01*
X4566Y1137D01*
X4556Y1144D01*
X4544Y1146D01*
D02*
G37*
G36*
X3344D02*
X3294D01*
X3282Y1144D01*
X3272Y1137D01*
X3265Y1127D01*
X3263Y1115D01*
Y960D01*
X3265Y948D01*
X3265Y948D01*
X3265Y945D01*
X3264Y939D01*
X3263Y935D01*
X3261Y931D01*
X3261Y930D01*
X3259Y928D01*
X3259Y926D01*
X3253Y919D01*
X3246Y901D01*
X3243Y881D01*
X3246Y861D01*
X3253Y843D01*
X3265Y827D01*
X3281Y815D01*
X3299Y808D01*
X3319Y805D01*
X3339Y808D01*
X3357Y815D01*
X3373Y827D01*
X3385Y843D01*
X3392Y861D01*
X3395Y881D01*
X3392Y901D01*
X3385Y919D01*
X3379Y926D01*
X3379Y928D01*
X3377Y930D01*
X3377Y931D01*
X3375Y934D01*
X3373Y946D01*
X3373Y948D01*
X3373Y948D01*
X3375Y960D01*
Y1115D01*
X3373Y1127D01*
X3366Y1137D01*
X3356Y1144D01*
X3344Y1146D01*
D02*
G37*
G36*
X7710Y1197D02*
X7690Y1194D01*
X7671Y1186D01*
X7656Y1174D01*
X7644Y1159D01*
X7636Y1140D01*
X7633Y1120D01*
X7636Y1101D01*
X7644Y1082D01*
X7649Y1075D01*
X7650Y1073D01*
X7655Y1067D01*
X7658Y1062D01*
X7661Y1057D01*
X7663Y1051D01*
X7666Y1044D01*
X7667Y1037D01*
X7669Y1029D01*
X7669Y1029D01*
X7657Y1012D01*
X7653Y990D01*
Y860D01*
X7657Y838D01*
X7670Y820D01*
X7688Y808D01*
X7710Y804D01*
X7731Y808D01*
X7749Y820D01*
X7762Y838D01*
X7766Y860D01*
Y990D01*
X7762Y1012D01*
X7750Y1029D01*
X7750Y1029D01*
X7752Y1037D01*
X7753Y1044D01*
X7756Y1051D01*
X7758Y1057D01*
X7761Y1062D01*
X7764Y1067D01*
X7769Y1073D01*
X7770Y1075D01*
X7775Y1082D01*
X7783Y1101D01*
X7786Y1120D01*
X7783Y1140D01*
X7775Y1159D01*
X7763Y1174D01*
X7748Y1186D01*
X7729Y1194D01*
X7710Y1197D01*
D02*
G37*
G36*
X1506Y1871D02*
X1494D01*
Y1775D01*
X1537D01*
Y1840D01*
X1535Y1852D01*
X1528Y1862D01*
X1518Y1869D01*
X1506Y1871D01*
D02*
G37*
G36*
X1468D02*
X1456D01*
X1444Y1869D01*
X1434Y1862D01*
X1427Y1852D01*
X1425Y1840D01*
Y1775D01*
X1468D01*
Y1871D01*
D02*
G37*
G36*
X8274Y1862D02*
X8230D01*
Y1756D01*
X8239Y1758D01*
X8257Y1770D01*
X8270Y1788D01*
X8274Y1810D01*
Y1862D01*
D02*
G37*
G36*
X4068Y1871D02*
X4056D01*
X4044Y1869D01*
X4034Y1862D01*
X4027Y1852D01*
X4025Y1840D01*
Y1775D01*
X4068D01*
Y1871D01*
D02*
G37*
G36*
X2706D02*
X2694D01*
Y1775D01*
X2737D01*
Y1840D01*
X2735Y1852D01*
X2728Y1862D01*
X2718Y1869D01*
X2706Y1871D01*
D02*
G37*
G36*
X2668D02*
X2656D01*
X2644Y1869D01*
X2634Y1862D01*
X2627Y1852D01*
X2625Y1840D01*
Y1775D01*
X2668D01*
Y1871D01*
D02*
G37*
G36*
X8090Y1996D02*
X8069Y1992D01*
X8051Y1980D01*
X8038Y1962D01*
X8034Y1940D01*
Y1810D01*
X8038Y1788D01*
X8051Y1770D01*
X8069Y1758D01*
X8090Y1754D01*
X8112Y1758D01*
X8130Y1770D01*
X8143Y1788D01*
X8147Y1810D01*
Y1940D01*
X8143Y1962D01*
X8130Y1980D01*
X8112Y1992D01*
X8090Y1996D01*
D02*
G37*
G36*
X6737Y1750D02*
X6694D01*
Y1654D01*
X6706D01*
X6718Y1656D01*
X6728Y1663D01*
X6735Y1673D01*
X6737Y1685D01*
Y1750D01*
D02*
G37*
G36*
X6668D02*
X6625D01*
Y1685D01*
X6627Y1673D01*
X6634Y1663D01*
X6644Y1656D01*
X6656Y1654D01*
X6668D01*
Y1750D01*
D02*
G37*
G36*
X8205Y1862D02*
X8161D01*
Y1810D01*
X8165Y1788D01*
X8178Y1770D01*
X8196Y1758D01*
X8205Y1756D01*
Y1862D01*
D02*
G37*
G36*
X7639D02*
X7595D01*
Y1756D01*
X7604Y1758D01*
X7622Y1770D01*
X7635Y1788D01*
X7639Y1810D01*
Y1862D01*
D02*
G37*
G36*
X7570D02*
X7526D01*
Y1810D01*
X7530Y1788D01*
X7543Y1770D01*
X7561Y1758D01*
X7570Y1756D01*
Y1862D01*
D02*
G37*
G36*
X4788Y2637D02*
X4713D01*
Y2562D01*
X4723Y2563D01*
X4745Y2572D01*
X4763Y2587D01*
X4778Y2605D01*
X4787Y2627D01*
X4788Y2637D01*
D02*
G37*
G36*
X4687D02*
X4612D01*
X4613Y2627D01*
X4622Y2605D01*
X4637Y2587D01*
X4655Y2572D01*
X4677Y2563D01*
X4687Y2562D01*
Y2637D01*
D02*
G37*
G36*
X8230Y1994D02*
Y1888D01*
X8274D01*
Y1940D01*
X8270Y1962D01*
X8257Y1980D01*
X8239Y1992D01*
X8230Y1994D01*
D02*
G37*
G36*
X4787Y3175D02*
X4613D01*
Y3000D01*
Y2825D01*
X4787D01*
Y3000D01*
Y3175D01*
D02*
G37*
G36*
X4713Y2738D02*
Y2663D01*
X4788D01*
X4787Y2673D01*
X4778Y2695D01*
X4763Y2713D01*
X4745Y2728D01*
X4723Y2737D01*
X4713Y2738D01*
D02*
G37*
G36*
X4687D02*
X4677Y2737D01*
X4655Y2728D01*
X4637Y2713D01*
X4622Y2695D01*
X4613Y2673D01*
X4612Y2663D01*
X4687D01*
Y2738D01*
D02*
G37*
G36*
X5306Y1871D02*
X5294D01*
Y1775D01*
X5337D01*
Y1840D01*
X5335Y1852D01*
X5328Y1862D01*
X5318Y1869D01*
X5306Y1871D01*
D02*
G37*
G36*
X5268D02*
X5256D01*
X5244Y1869D01*
X5234Y1862D01*
X5227Y1852D01*
X5225Y1840D01*
Y1775D01*
X5268D01*
Y1871D01*
D02*
G37*
G36*
X4106D02*
X4094D01*
Y1775D01*
X4137D01*
Y1840D01*
X4135Y1852D01*
X4128Y1862D01*
X4118Y1869D01*
X4106Y1871D01*
D02*
G37*
G36*
X8205Y1994D02*
X8196Y1992D01*
X8178Y1980D01*
X8165Y1962D01*
X8161Y1940D01*
Y1888D01*
X8205D01*
Y1994D01*
D02*
G37*
G36*
X6706Y1871D02*
X6694D01*
Y1775D01*
X6737D01*
Y1840D01*
X6735Y1852D01*
X6728Y1862D01*
X6718Y1869D01*
X6706Y1871D01*
D02*
G37*
G36*
X6668D02*
X6656D01*
X6644Y1869D01*
X6634Y1862D01*
X6627Y1852D01*
X6625Y1840D01*
Y1775D01*
X6668D01*
Y1871D01*
D02*
G37*
G36*
X2668Y1750D02*
X2625D01*
Y1685D01*
X2627Y1673D01*
X2634Y1663D01*
X2644Y1656D01*
X2656Y1654D01*
X2668D01*
Y1750D01*
D02*
G37*
G36*
X1537D02*
X1494D01*
Y1654D01*
X1506D01*
X1518Y1656D01*
X1528Y1663D01*
X1535Y1673D01*
X1537Y1685D01*
Y1750D01*
D02*
G37*
G36*
X4068D02*
X4025D01*
Y1685D01*
X4027Y1673D01*
X4034Y1663D01*
X4044Y1656D01*
X4056Y1654D01*
X4068D01*
Y1750D01*
D02*
G37*
G36*
X2737D02*
X2694D01*
Y1654D01*
X2706D01*
X2718Y1656D01*
X2728Y1663D01*
X2735Y1673D01*
X2737Y1685D01*
Y1750D01*
D02*
G37*
G36*
X1468D02*
X1425D01*
Y1685D01*
X1427Y1673D01*
X1434Y1663D01*
X1444Y1656D01*
X1456Y1654D01*
X1468D01*
Y1750D01*
D02*
G37*
G36*
X7836Y1996D02*
X7815Y1992D01*
X7797Y1980D01*
X7784Y1962D01*
X7780Y1940D01*
Y1810D01*
X7784Y1788D01*
X7797Y1770D01*
X7799Y1769D01*
X7798Y1764D01*
X7796Y1756D01*
X7794Y1750D01*
X7791Y1744D01*
X7788Y1738D01*
X7785Y1733D01*
X7781Y1728D01*
X7780Y1726D01*
X7774Y1718D01*
X7767Y1700D01*
X7764Y1680D01*
X7767Y1660D01*
X7774Y1642D01*
X7786Y1626D01*
X7802Y1614D01*
X7820Y1607D01*
X7840Y1604D01*
X7860Y1607D01*
X7878Y1614D01*
X7894Y1626D01*
X7906Y1642D01*
X7913Y1660D01*
X7916Y1680D01*
X7913Y1700D01*
X7906Y1718D01*
X7900Y1726D01*
X7899Y1728D01*
X7895Y1733D01*
X7892Y1738D01*
X7889Y1744D01*
X7886Y1750D01*
X7884Y1756D01*
X7882Y1764D01*
X7881Y1771D01*
X7880Y1774D01*
X7881Y1775D01*
X7881Y1776D01*
X7882Y1777D01*
X7882Y1778D01*
X7884Y1780D01*
X7885Y1782D01*
X7889Y1788D01*
X7893Y1810D01*
Y1940D01*
X7889Y1962D01*
X7876Y1980D01*
X7858Y1992D01*
X7836Y1996D01*
D02*
G37*
G36*
X8920Y1136D02*
X8900Y1133D01*
X8882Y1126D01*
X8866Y1114D01*
X8854Y1098D01*
X8847Y1080D01*
X8844Y1060D01*
X8847Y1040D01*
X8854Y1022D01*
X8866Y1006D01*
X8866Y1004D01*
X8839Y976D01*
X8667D01*
X8664Y977D01*
X8658Y978D01*
X8655Y978D01*
Y990D01*
X8651Y1012D01*
X8638Y1030D01*
X8620Y1042D01*
X8599Y1046D01*
X8577Y1042D01*
X8559Y1030D01*
X8546Y1012D01*
X8542Y990D01*
Y860D01*
X8546Y838D01*
X8559Y820D01*
X8577Y808D01*
X8599Y804D01*
X8620Y808D01*
X8638Y820D01*
X8651Y838D01*
X8655Y860D01*
Y872D01*
X8658Y872D01*
X8664Y873D01*
X8667Y874D01*
X8860D01*
X8880Y878D01*
X8896Y889D01*
X8956Y949D01*
X8967Y965D01*
X8971Y985D01*
Y1004D01*
X8974Y1006D01*
X8986Y1022D01*
X8993Y1040D01*
X8996Y1060D01*
X8993Y1080D01*
X8986Y1098D01*
X8974Y1114D01*
X8958Y1126D01*
X8940Y1133D01*
X8920Y1136D01*
D02*
G37*
G36*
X938Y2238D02*
X918Y2235D01*
X900Y2228D01*
X884Y2216D01*
X872Y2200D01*
X865Y2182D01*
X862Y2162D01*
X865Y2142D01*
X872Y2124D01*
X884Y2108D01*
X900Y2096D01*
X902Y2095D01*
X902Y2095D01*
X911Y2083D01*
X934Y2059D01*
Y1867D01*
X926Y1862D01*
X919Y1852D01*
X917Y1840D01*
Y1685D01*
X919Y1673D01*
X926Y1663D01*
X936Y1656D01*
X948Y1654D01*
X998D01*
X1010Y1656D01*
X1020Y1663D01*
X1027Y1673D01*
X1029Y1685D01*
Y1840D01*
X1027Y1852D01*
X1020Y1862D01*
X1012Y1867D01*
Y2075D01*
X1009Y2090D01*
X1000Y2102D01*
X993Y2110D01*
X1004Y2124D01*
X1011Y2142D01*
X1014Y2162D01*
X1011Y2182D01*
X1004Y2200D01*
X992Y2216D01*
X976Y2228D01*
X958Y2235D01*
X938Y2238D01*
D02*
G37*
G36*
X8471Y1996D02*
X8450Y1992D01*
X8432Y1980D01*
X8419Y1962D01*
X8415Y1940D01*
Y1810D01*
X8419Y1788D01*
X8424Y1782D01*
X8424Y1780D01*
X8426Y1778D01*
X8427Y1776D01*
X8428Y1774D01*
X8429Y1772D01*
X8430Y1770D01*
X8430Y1768D01*
X8431Y1766D01*
X8431Y1764D01*
X8431Y1763D01*
Y1729D01*
X8430Y1720D01*
X8429Y1711D01*
X8428Y1704D01*
X8426Y1696D01*
X8424Y1690D01*
X8421Y1684D01*
X8418Y1678D01*
X8415Y1673D01*
X8411Y1668D01*
X8410Y1666D01*
X8404Y1658D01*
X8397Y1640D01*
X8396Y1636D01*
X8383Y1637D01*
Y1766D01*
X8384Y1769D01*
X8384Y1769D01*
X8384Y1770D01*
X8397Y1788D01*
X8401Y1810D01*
Y1940D01*
X8397Y1962D01*
X8384Y1980D01*
X8366Y1992D01*
X8344Y1996D01*
X8323Y1992D01*
X8305Y1980D01*
X8292Y1962D01*
X8288Y1940D01*
Y1810D01*
X8292Y1788D01*
X8305Y1770D01*
X8305Y1770D01*
X8306Y1765D01*
Y1529D01*
X8305Y1520D01*
X8304Y1512D01*
X8302Y1504D01*
X8301Y1497D01*
X8298Y1490D01*
X8296Y1484D01*
X8293Y1479D01*
X8290Y1474D01*
X8285Y1468D01*
X8284Y1466D01*
X8279Y1459D01*
X8271Y1440D01*
X8268Y1421D01*
X8271Y1401D01*
X8279Y1383D01*
X8291Y1367D01*
X8306Y1355D01*
X8325Y1347D01*
X8344Y1344D01*
X8364Y1347D01*
X8383Y1355D01*
X8398Y1367D01*
X8410Y1383D01*
X8418Y1401D01*
X8421Y1421D01*
X8418Y1440D01*
X8410Y1459D01*
X8405Y1466D01*
X8404Y1468D01*
X8399Y1474D01*
X8396Y1479D01*
X8393Y1484D01*
X8391Y1490D01*
X8388Y1497D01*
X8387Y1504D01*
X8385Y1512D01*
X8383Y1529D01*
Y1603D01*
X8396Y1604D01*
X8397Y1600D01*
X8404Y1582D01*
X8416Y1566D01*
X8432Y1554D01*
X8450Y1547D01*
X8470Y1544D01*
X8490Y1547D01*
X8508Y1554D01*
X8524Y1566D01*
X8536Y1582D01*
X8543Y1600D01*
X8546Y1620D01*
X8543Y1640D01*
X8536Y1658D01*
X8530Y1666D01*
X8529Y1668D01*
X8525Y1673D01*
X8522Y1678D01*
X8519Y1684D01*
X8516Y1690D01*
X8514Y1696D01*
X8512Y1704D01*
X8511Y1711D01*
X8509Y1729D01*
Y1765D01*
X8509Y1768D01*
X8509Y1768D01*
X8511Y1770D01*
X8524Y1788D01*
X8528Y1810D01*
Y1940D01*
X8524Y1962D01*
X8511Y1980D01*
X8493Y1992D01*
X8471Y1996D01*
D02*
G37*
G36*
X5337Y1750D02*
X5294D01*
Y1654D01*
X5306D01*
X5318Y1656D01*
X5328Y1663D01*
X5335Y1673D01*
X5337Y1685D01*
Y1750D01*
D02*
G37*
G36*
X5268D02*
X5225D01*
Y1685D01*
X5227Y1673D01*
X5234Y1663D01*
X5244Y1656D01*
X5256Y1654D01*
X5268D01*
Y1750D01*
D02*
G37*
G36*
X6325Y1871D02*
X6275D01*
X6263Y1869D01*
X6253Y1862D01*
X6246Y1852D01*
X6244Y1840D01*
Y1685D01*
X6246Y1673D01*
X6253Y1663D01*
X6263Y1656D01*
X6275Y1654D01*
X6325D01*
X6337Y1656D01*
X6347Y1663D01*
X6354Y1673D01*
X6356Y1685D01*
Y1840D01*
X6354Y1852D01*
X6347Y1862D01*
X6337Y1869D01*
X6325Y1871D01*
D02*
G37*
G36*
X6579D02*
X6529D01*
X6517Y1869D01*
X6507Y1862D01*
X6500Y1852D01*
X6498Y1840D01*
Y1685D01*
X6500Y1673D01*
X6507Y1663D01*
X6517Y1656D01*
X6529Y1654D01*
X6579D01*
X6591Y1656D01*
X6601Y1663D01*
X6608Y1673D01*
X6610Y1685D01*
Y1840D01*
X6608Y1852D01*
X6601Y1862D01*
X6591Y1869D01*
X6579Y1871D01*
D02*
G37*
G36*
X6452D02*
X6402D01*
X6390Y1869D01*
X6380Y1862D01*
X6373Y1852D01*
X6371Y1840D01*
Y1685D01*
X6373Y1673D01*
X6380Y1663D01*
X6390Y1656D01*
X6402Y1654D01*
X6452D01*
X6464Y1656D01*
X6474Y1663D01*
X6481Y1673D01*
X6483Y1685D01*
Y1840D01*
X6481Y1852D01*
X6474Y1862D01*
X6464Y1869D01*
X6452Y1871D01*
D02*
G37*
G36*
X4137Y1750D02*
X4094D01*
Y1654D01*
X4106D01*
X4118Y1656D01*
X4128Y1663D01*
X4135Y1673D01*
X4137Y1685D01*
Y1750D01*
D02*
G37*
%LPD*%
G36*
X2074Y1192D02*
X2069Y1185D01*
X2065Y1177D01*
X2062Y1169D01*
X2059Y1161D01*
X2057Y1152D01*
X2055Y1143D01*
X2054Y1133D01*
X2054Y1132D01*
X2055Y1129D01*
X2056Y1126D01*
X2057Y1124D01*
X2059Y1122D01*
X2061Y1121D01*
X2063Y1120D01*
X2065Y1120D01*
X2053Y1119D01*
X2053Y1112D01*
X2027D01*
X2027Y1119D01*
X2017Y1119D01*
X2019Y1120D01*
X2021Y1121D01*
X2022Y1123D01*
X2024Y1125D01*
X2025Y1127D01*
X2026Y1130D01*
X2026Y1132D01*
X2025Y1143D01*
X2023Y1152D01*
X2021Y1161D01*
X2018Y1169D01*
X2015Y1177D01*
X2011Y1185D01*
X2006Y1192D01*
X2002Y1198D01*
X2078D01*
X2074Y1192D01*
D02*
G37*
G36*
X8357Y1528D02*
X8360Y1508D01*
X8361Y1498D01*
X8364Y1490D01*
X8366Y1481D01*
X8370Y1473D01*
X8374Y1466D01*
X8378Y1459D01*
X8383Y1453D01*
X8306D01*
X8311Y1459D01*
X8315Y1466D01*
X8319Y1473D01*
X8323Y1481D01*
X8325Y1490D01*
X8328Y1498D01*
X8329Y1508D01*
X8331Y1518D01*
X8332Y1528D01*
X8332Y1539D01*
X8357D01*
X8357Y1528D01*
D02*
G37*
G36*
X4545Y961D02*
X4545Y956D01*
X4548D01*
X4547Y956D01*
X4547Y954D01*
X4546Y951D01*
X4546Y948D01*
X4547Y929D01*
X4548Y920D01*
X4552Y906D01*
X4554Y900D01*
X4556Y896D01*
X4558Y892D01*
X4482D01*
X4484Y896D01*
X4486Y900D01*
X4488Y906D01*
X4490Y913D01*
X4492Y920D01*
X4494Y937D01*
X4493Y951D01*
X4492Y954D01*
X4491Y956D01*
X4490Y956D01*
X4495D01*
X4495Y973D01*
X4545D01*
X4545Y961D01*
D02*
G37*
G36*
X8367Y1794D02*
X8365Y1793D01*
X8363Y1791D01*
X8362Y1789D01*
X8360Y1785D01*
X8359Y1781D01*
X8358Y1776D01*
X8358Y1771D01*
X8357Y1765D01*
X8357Y1758D01*
X8332D01*
X8332Y1765D01*
X8331Y1776D01*
X8330Y1781D01*
X8329Y1785D01*
X8327Y1789D01*
X8326Y1791D01*
X8324Y1793D01*
X8322Y1794D01*
X8319Y1795D01*
X8370D01*
X8367Y1794D01*
D02*
G37*
G36*
X7743Y1082D02*
X7739Y1075D01*
X7735Y1068D01*
X7731Y1060D01*
X7729Y1051D01*
X7726Y1043D01*
X7725Y1033D01*
X7723Y1024D01*
X7723Y1024D01*
X7724Y1019D01*
X7725Y1015D01*
X7727Y1011D01*
X7728Y1009D01*
X7730Y1007D01*
X7732Y1006D01*
X7735Y1005D01*
X7722D01*
X7722Y1002D01*
X7697D01*
X7697Y1005D01*
X7684D01*
X7687Y1006D01*
X7689Y1007D01*
X7691Y1009D01*
X7692Y1011D01*
X7694Y1015D01*
X7695Y1019D01*
X7696Y1023D01*
X7694Y1033D01*
X7693Y1043D01*
X7690Y1051D01*
X7688Y1060D01*
X7684Y1068D01*
X7680Y1075D01*
X7676Y1082D01*
X7671Y1088D01*
X7748D01*
X7743Y1082D01*
D02*
G37*
G36*
X1384Y1192D02*
X1379Y1185D01*
X1375Y1177D01*
X1372Y1169D01*
X1369Y1161D01*
X1367Y1152D01*
X1365Y1143D01*
X1364Y1133D01*
X1364Y1132D01*
X1365Y1129D01*
X1366Y1126D01*
X1367Y1124D01*
X1369Y1122D01*
X1371Y1121D01*
X1373Y1120D01*
X1375Y1120D01*
X1363Y1119D01*
X1363Y1112D01*
X1337D01*
X1337Y1119D01*
X1325Y1119D01*
X1328Y1120D01*
X1330Y1121D01*
X1331Y1123D01*
X1333Y1125D01*
X1334Y1128D01*
X1335Y1131D01*
X1336Y1133D01*
X1335Y1143D01*
X1333Y1152D01*
X1331Y1161D01*
X1328Y1169D01*
X1325Y1177D01*
X1321Y1185D01*
X1316Y1192D01*
X1312Y1198D01*
X1388D01*
X1384Y1192D01*
D02*
G37*
G36*
X7853Y1794D02*
X7862Y1795D01*
X7861Y1792D01*
X7859Y1790D01*
X7857Y1787D01*
X7856Y1783D01*
X7855Y1780D01*
X7854Y1776D01*
X7854Y1776D01*
X7855Y1767D01*
X7857Y1758D01*
X7859Y1749D01*
X7862Y1741D01*
X7865Y1733D01*
X7869Y1725D01*
X7874Y1718D01*
X7878Y1712D01*
X7802D01*
X7806Y1718D01*
X7811Y1725D01*
X7815Y1733D01*
X7818Y1741D01*
X7821Y1749D01*
X7823Y1758D01*
X7825Y1767D01*
X7826Y1775D01*
X7825Y1778D01*
X7824Y1782D01*
X7823Y1785D01*
X7821Y1787D01*
X7819Y1789D01*
X7817Y1790D01*
X7815Y1790D01*
X7827Y1791D01*
X7827Y1798D01*
X7853D01*
X7853Y1794D01*
D02*
G37*
G36*
X8495Y1793D02*
X8493Y1792D01*
X8491Y1791D01*
X8489Y1790D01*
X8487Y1787D01*
X8486Y1784D01*
X8485Y1780D01*
X8484Y1775D01*
X8483Y1770D01*
X8483Y1764D01*
X8483Y1757D01*
X8457Y1758D01*
X8457Y1763D01*
X8457Y1767D01*
X8456Y1771D01*
X8455Y1774D01*
X8454Y1778D01*
X8453Y1782D01*
X8452Y1785D01*
X8450Y1789D01*
X8448Y1792D01*
X8446Y1795D01*
X8495Y1793D01*
D02*
G37*
G36*
X8629Y970D02*
X8630Y966D01*
X8633Y962D01*
X8636Y959D01*
X8641Y956D01*
X8646Y954D01*
X8653Y952D01*
X8660Y951D01*
X8669Y950D01*
X8678Y950D01*
Y900D01*
X8669Y900D01*
X8660Y899D01*
X8653Y898D01*
X8646Y896D01*
X8641Y894D01*
X8636Y891D01*
X8633Y888D01*
X8630Y884D01*
X8629Y880D01*
X8628Y875D01*
Y975D01*
X8629Y970D01*
D02*
G37*
G36*
X3344Y994D02*
X3344Y982D01*
X3346Y956D01*
X3348D01*
X3347Y956D01*
X3346Y954D01*
X3346Y952D01*
X3346Y950D01*
X3347Y941D01*
X3351Y927D01*
X3353Y921D01*
X3355Y917D01*
X3357Y913D01*
X3344D01*
X3344Y905D01*
X3294D01*
X3294Y913D01*
X3281D01*
X3283Y917D01*
X3285Y921D01*
X3287Y927D01*
X3289Y934D01*
X3291Y941D01*
X3292Y952D01*
X3292Y954D01*
X3291Y956D01*
X3290Y956D01*
X3292D01*
X3293Y960D01*
X3293Y970D01*
X3294Y994D01*
X3344Y994D01*
D02*
G37*
G36*
X986Y1866D02*
X986Y1861D01*
X987Y1857D01*
X988Y1854D01*
X989Y1851D01*
X990Y1849D01*
X992Y1847D01*
X994Y1846D01*
X996Y1845D01*
X998Y1845D01*
X948D01*
X950Y1845D01*
X952Y1846D01*
X954Y1847D01*
X956Y1849D01*
X957Y1851D01*
X958Y1854D01*
X959Y1857D01*
X960Y1861D01*
X960Y1866D01*
X960Y1870D01*
X986D01*
X986Y1866D01*
D02*
G37*
G36*
X8483Y1728D02*
X8485Y1707D01*
X8487Y1698D01*
X8489Y1689D01*
X8492Y1681D01*
X8495Y1673D01*
X8499Y1665D01*
X8504Y1658D01*
X8508Y1652D01*
X8432D01*
X8436Y1658D01*
X8441Y1665D01*
X8445Y1673D01*
X8448Y1681D01*
X8451Y1689D01*
X8453Y1698D01*
X8455Y1707D01*
X8456Y1717D01*
X8457Y1728D01*
X8457Y1738D01*
X8483D01*
X8483Y1728D01*
D02*
G37*
G36*
X5945Y961D02*
X5945Y956D01*
X5948D01*
X5947Y956D01*
X5947Y954D01*
X5946Y951D01*
X5946Y948D01*
X5947Y929D01*
X5948Y920D01*
X5952Y906D01*
X5954Y900D01*
X5956Y896D01*
X5958Y892D01*
X5882D01*
X5884Y896D01*
X5886Y900D01*
X5888Y906D01*
X5890Y913D01*
X5892Y920D01*
X5894Y937D01*
X5893Y951D01*
X5892Y954D01*
X5891Y956D01*
X5890Y956D01*
X5895D01*
X5895Y973D01*
X5945D01*
X5945Y961D01*
D02*
G37*
D10*
X4572Y2288D02*
X5430D01*
X4400Y2390D02*
Y2510D01*
Y2328D02*
Y2390D01*
X4400Y2510D02*
X4400Y2510D01*
Y2328D02*
X4440Y2288D01*
X4170Y2450D02*
X4200Y2480D01*
X1860Y2450D02*
X4170D01*
X1800Y2390D02*
X1860Y2450D01*
X3968Y2510D02*
X4000Y2542D01*
X820Y2510D02*
X3968D01*
X719Y2409D02*
X820Y2510D01*
X1890Y2390D02*
X4400D01*
X1860Y2360D02*
X1890Y2390D01*
X1172Y728D02*
X1512D01*
X1602Y638D01*
X1700D01*
X7192D02*
X7228D01*
X7329Y739D01*
Y925D01*
X8231Y490D02*
X8510D01*
X8761Y1211D02*
X8850Y1300D01*
X8141Y1211D02*
X8761D01*
X7964Y1034D02*
X8141Y1211D01*
X5430Y2288D02*
X5528Y2190D01*
X5730D01*
X4937Y2162D02*
X5062D01*
X4675Y1900D02*
X4937Y2162D01*
X4470Y1900D02*
X4675D01*
X5051Y2339D02*
X5851D01*
X5000Y2390D02*
X5051Y2339D01*
X5200Y2450D02*
X5260Y2390D01*
X5000D02*
Y2560D01*
X5200Y2450D02*
Y2550D01*
X4200Y2480D02*
Y2650D01*
X4000Y2542D02*
Y2650D01*
X2504Y2006D02*
X2804D01*
X2462Y2048D02*
X2504Y2006D01*
X2462Y2048D02*
Y2162D01*
X2680Y2060D02*
X3460D01*
X2640Y2100D02*
X2680Y2060D01*
X2640Y2100D02*
Y2190D01*
X2580Y2250D02*
X2640Y2190D01*
X2360Y2250D02*
X2580D01*
X2300Y2190D02*
X2360Y2250D01*
X2300Y1762D02*
Y2190D01*
X4930Y790D02*
X5035D01*
X5027Y869D02*
X5201Y696D01*
X5027Y869D02*
Y1038D01*
X2191Y779D02*
X2331Y640D01*
X1271Y779D02*
X2191D01*
X4900Y1762D02*
Y1926D01*
X6173Y1762D02*
X6180Y1769D01*
X3700Y1762D02*
X3701Y1763D01*
X2173Y1762D02*
Y2047D01*
X2130Y2090D02*
X2173Y2047D01*
X1700Y2110D02*
Y2162D01*
X1954Y2116D02*
X1980Y2090D01*
X2130D01*
X1954Y2116D02*
Y2162D01*
X5149Y601D02*
X5150Y602D01*
Y674D01*
X5035Y790D02*
X5150Y674D01*
X4350Y730D02*
X4970D01*
X4900Y820D02*
X4930Y790D01*
X4350Y730D02*
Y730D01*
X1100Y1762D02*
Y2040D01*
X938Y2110D02*
Y2162D01*
Y2110D02*
X973Y2075D01*
Y1762D02*
Y2075D01*
X5149Y281D02*
Y601D01*
X5201Y319D02*
Y696D01*
X3460Y2060D02*
X3538Y2138D01*
Y2162D01*
X3827Y1553D02*
Y1762D01*
X4081Y1038D02*
Y1299D01*
X719Y1551D02*
Y1762D01*
X973Y1038D02*
Y1297D01*
X1919Y1561D02*
Y1762D01*
Y1561D02*
X2173Y1307D01*
Y1038D02*
Y1307D01*
X4773Y1038D02*
Y1297D01*
X5027Y1553D02*
X5281Y1299D01*
Y1038D02*
Y1299D01*
X5919Y1551D02*
Y1762D01*
X6173Y1038D02*
Y1297D01*
X1227Y1038D02*
X1231Y1034D01*
Y819D02*
Y1034D01*
X3827Y1038D02*
X3830Y1035D01*
X7048Y638D02*
X7133Y723D01*
Y1018D01*
X7173Y1058D01*
X7562D01*
X7582Y1038D01*
Y925D02*
Y1038D01*
X8090Y810D02*
Y925D01*
X8090Y810D02*
X8090Y810D01*
X8090Y810D02*
X8110Y790D01*
X8260D01*
X8324Y726D01*
X8344Y815D02*
Y925D01*
Y815D02*
X8383Y777D01*
X8510Y490D02*
X8601Y580D01*
X8083Y638D02*
X8231Y490D01*
X8242Y730D02*
X8334Y638D01*
X8262D02*
X8350Y550D01*
X8498D01*
X3780Y280D02*
Y626D01*
X4046Y344D02*
Y638D01*
Y344D02*
X4050Y340D01*
X4560Y390D02*
Y632D01*
X3780Y626D02*
X3792Y638D01*
X4970Y730D02*
X5062Y638D01*
X8550Y602D02*
Y674D01*
X8498Y550D02*
X8550Y602D01*
X8601Y580D02*
Y696D01*
X8324Y726D02*
X8498D01*
X8550Y674D01*
X8383Y777D02*
X8520D01*
X8601Y696D01*
X7650Y730D02*
X8242D01*
X7600Y250D02*
Y680D01*
X7650Y730D01*
X7710Y925D02*
Y1120D01*
X8471Y925D02*
Y1119D01*
X1350Y1041D02*
Y1230D01*
Y1041D02*
X1354Y1038D01*
X1481D02*
Y1299D01*
X1231Y819D02*
X1271Y779D01*
X2040Y1044D02*
Y1230D01*
Y1044D02*
X2046Y1038D01*
Y1576D02*
Y1762D01*
X1354Y1576D02*
Y1762D01*
X1354Y1762D02*
X1354Y1762D01*
X1227Y1553D02*
X1481Y1299D01*
X1227Y1553D02*
Y1762D01*
X846Y1576D02*
Y1762D01*
X846Y1762D02*
X846Y1762D01*
X3446Y1038D02*
Y1226D01*
X3954Y1038D02*
Y1226D01*
Y1574D02*
Y1762D01*
X3446Y1574D02*
Y1762D01*
X2554Y1574D02*
Y1762D01*
X5154D02*
X5154Y1762D01*
X6046Y1576D02*
Y1762D01*
Y1038D02*
Y1226D01*
X5154Y1038D02*
Y1226D01*
X5154Y1038D02*
X5154Y1038D01*
X5919Y1551D02*
X6173Y1297D01*
X7964Y925D02*
Y1034D01*
X7840Y1680D02*
Y1872D01*
X7836Y1875D02*
X7840Y1872D01*
X7456Y1875D02*
X7460Y1870D01*
Y1680D02*
Y1870D01*
X7330Y1430D02*
Y1833D01*
X8218Y925D02*
Y1123D01*
X7970Y1370D02*
Y1868D01*
X7964Y1875D02*
X7970Y1868D01*
X8470Y1620D02*
Y1874D01*
X8471Y1875D01*
X3792Y2162D02*
X3810Y2180D01*
X846Y1038D02*
Y1226D01*
X2427Y803D02*
Y1038D01*
X2350Y750D02*
Y988D01*
X2300Y1038D02*
X2350Y988D01*
X4298Y782D02*
X4350Y730D01*
X3830Y870D02*
Y1035D01*
X3881Y782D02*
X4298D01*
X3880Y782D02*
X3881Y782D01*
X3738Y782D02*
X3880D01*
X3700Y820D02*
X3738Y782D01*
X3700Y820D02*
Y1038D01*
X4300Y2110D02*
Y2162D01*
X4432D02*
X4554D01*
X4624Y2074D02*
X4660Y2110D01*
X3573Y1762D02*
Y1993D01*
X3701Y1763D02*
Y1981D01*
X3827Y1762D02*
Y1917D01*
X3870Y1960D01*
X4424Y2074D02*
X4624D01*
X4290Y2020D02*
X4432Y2162D01*
X4261Y2071D02*
X4300Y2110D01*
X4310Y1960D02*
X4424Y2074D01*
X3870Y1960D02*
X4310D01*
X4172Y2162D02*
X4190Y2180D01*
X3701Y1981D02*
X3740Y2020D01*
X3573Y1993D02*
X3651Y2071D01*
X4261D01*
X3740Y2020D02*
X4290D01*
X719Y1762D02*
Y2409D01*
X1661Y2071D02*
X1700Y2110D01*
X1227Y1987D02*
X1260Y2020D01*
X1100Y2040D02*
X1131Y2071D01*
X1661D01*
X1260Y2020D02*
X1740D01*
X1100Y800D02*
Y1038D01*
Y800D02*
X1172Y728D01*
X1740Y2020D02*
X1800Y2080D01*
Y2390D01*
X1860Y1950D02*
Y2360D01*
Y1950D02*
X1919Y1891D01*
Y1762D02*
Y1891D01*
X4046Y2162D02*
X4172D01*
X4554Y638D02*
X4560Y632D01*
X3280Y2250D02*
X3740D01*
X4660Y2110D02*
Y2288D01*
X5730Y1910D02*
X5880D01*
X5919Y1871D01*
Y1762D02*
Y1871D01*
X4519Y1551D02*
Y1762D01*
X5154Y1576D02*
Y1762D01*
X4900Y820D02*
Y1038D01*
X5027Y1553D02*
Y1762D01*
X4773D02*
Y1871D01*
X4900Y1926D02*
X4994Y2020D01*
X4773Y1871D02*
X4973Y2071D01*
X5027Y1762D02*
X5030Y1765D01*
Y1930D01*
X3319Y1939D02*
X3320Y1940D01*
X3319Y1762D02*
Y1939D01*
X4420Y1410D02*
X4660D01*
X4646Y1038D02*
Y1226D01*
Y1576D02*
Y1762D01*
X4310Y1740D02*
X4470Y1900D01*
X2681Y1038D02*
Y1299D01*
X2427Y1553D02*
Y1762D01*
X3319Y1551D02*
Y1762D01*
Y1551D02*
X3573Y1297D01*
Y1038D02*
Y1297D01*
X3827Y1553D02*
X4081Y1299D01*
X4310Y910D02*
Y1740D01*
X2554Y1038D02*
Y1226D01*
X4519Y1551D02*
X4660Y1410D01*
X4773Y1297D01*
X2570Y1410D02*
X2760D01*
X2427Y1553D02*
X2570Y1410D01*
X2681Y1299D01*
X6330Y1220D02*
X6740D01*
X6790Y1270D01*
X6300Y1190D02*
X6330Y1220D01*
X6300Y1038D02*
Y1190D01*
X7046Y2074D02*
X7736D01*
X6180Y1769D02*
Y1960D01*
X6189Y1969D01*
X6790Y1270D02*
Y1830D01*
X6878Y1918D01*
X4973Y2071D02*
X6877D01*
X6938Y2132D01*
X4994Y2020D02*
X6921D01*
X6189Y1969D02*
X6942D01*
X7046Y2074D01*
X6878Y1918D02*
X6963D01*
X7067Y2023D01*
X7085Y1875D02*
X7201D01*
X6010Y2180D02*
X6590D01*
X5851Y2339D02*
X6010Y2180D01*
X5260Y2390D02*
X7030D01*
X7061Y2421D01*
Y2521D01*
X7736Y2074D02*
X7825Y2162D01*
X8850Y1300D02*
X8980D01*
X8599Y1875D02*
Y2551D01*
X7550Y2220D02*
X7608Y2162D01*
X7550Y2220D02*
Y2490D01*
X6921Y2020D02*
X7112Y2211D01*
X7067Y2023D02*
X7758D01*
X7808Y2074D01*
X8374D01*
X7112Y2211D02*
Y2492D01*
X3375Y600D02*
X3502Y726D01*
X2427Y803D02*
X2630Y600D01*
X3375D01*
X2804Y2006D02*
X2850Y1960D01*
Y740D02*
Y1960D01*
X2331Y640D02*
X2462D01*
X3538Y638D02*
X3540Y636D01*
Y270D02*
Y636D01*
X6930Y280D02*
X6938Y272D01*
X7446Y638D02*
X7456Y647D01*
X7192Y2162D02*
X7200Y2170D01*
X7440Y2168D02*
X7446Y2162D01*
X6938Y638D02*
X7048D01*
X7456Y647D02*
Y925D01*
X7200Y2170D02*
Y2440D01*
X7440Y2168D02*
Y2390D01*
X8208Y638D02*
X8262D01*
X7954D02*
X8083D01*
X8334D02*
X8462D01*
X7608Y2162D02*
X7700D01*
X7443Y635D02*
X7446Y638D01*
X7825Y2162D02*
X7954D01*
X6938Y2132D02*
Y2162D01*
X7954Y638D02*
X7960Y632D01*
X7700Y260D02*
Y638D01*
X7180Y346D02*
X7194Y360D01*
X7192Y638D02*
X7200Y630D01*
X7443Y398D02*
Y635D01*
X7960Y460D02*
Y632D01*
X7194Y360D02*
X7200D01*
X6930Y280D02*
Y300D01*
X7200Y360D02*
Y630D01*
X5269Y161D02*
X7601D01*
X5201Y319D02*
X5308Y212D01*
X7562D01*
X7600Y250D01*
X5149Y281D02*
X5269Y161D01*
X7601D02*
X7700Y260D01*
X4190Y2180D02*
Y2300D01*
X1040Y1410D02*
X1040Y1410D01*
X860Y1410D02*
X1040D01*
X719Y1551D02*
X860Y1410D01*
X973Y1297D01*
X8374Y2074D02*
X8462Y2162D01*
X3740Y2250D02*
X3810Y2180D01*
X7180Y346D02*
X7200Y326D01*
X6938Y272D02*
Y638D01*
X1227Y1762D02*
Y1940D01*
X7112Y2492D02*
X7150Y2530D01*
X7510D01*
X7550Y2490D01*
X7061Y2521D02*
X7126Y2586D01*
X8564D01*
X8599Y2551D01*
X4440Y2288D02*
X4572D01*
X4264Y726D02*
X4300Y690D01*
X3502Y726D02*
X4264D01*
X8344Y1421D02*
Y1875D01*
D11*
X8683Y1274D02*
X8740Y1330D01*
X4200Y2650D02*
Y3000D01*
X4000Y2650D02*
Y3000D01*
X5000Y2560D02*
Y3000D01*
X1921Y881D02*
Y1035D01*
X1919Y1038D02*
X1921Y1035D01*
X3319Y881D02*
X3319Y881D01*
Y1038D01*
X4519D02*
X4520Y1036D01*
X5920Y860D02*
Y1036D01*
X5919Y1038D02*
X5920Y1036D01*
X4520Y860D02*
Y1036D01*
X8860Y925D02*
X8920Y985D01*
Y1060D01*
X8599Y925D02*
X8860D01*
X5400Y2759D02*
Y3000D01*
Y2759D02*
X5509Y2650D01*
X5989D01*
X5990Y2650D01*
X8880D01*
X8920Y2610D01*
X5200Y2550D02*
Y3000D01*
X719Y881D02*
Y1030D01*
X4400Y2510D02*
Y3000D01*
X8740Y1705D02*
X8980Y1945D01*
X8740Y1330D02*
Y1705D01*
X8064Y1274D02*
X8683D01*
X7836Y1047D02*
X8064Y1274D01*
X7836Y925D02*
Y1047D01*
D12*
X938Y638D02*
D03*
X1192D02*
D03*
X1446D02*
D03*
X1700D02*
D03*
X1954D02*
D03*
X2208D02*
D03*
X2462D02*
D03*
X938Y2162D02*
D03*
X1192D02*
D03*
X1446D02*
D03*
X1700D02*
D03*
X1954D02*
D03*
X2208D02*
D03*
X2462D02*
D03*
X3538Y638D02*
D03*
X3792D02*
D03*
X4046D02*
D03*
X4300D02*
D03*
X4554D02*
D03*
X4808D02*
D03*
X5062D02*
D03*
X3538Y2162D02*
D03*
X3792D02*
D03*
X4046D02*
D03*
X4300D02*
D03*
X4554D02*
D03*
X4808D02*
D03*
X5062D02*
D03*
X6938Y638D02*
D03*
X7192D02*
D03*
X7446D02*
D03*
X7700D02*
D03*
X7954D02*
D03*
X8208D02*
D03*
X8462D02*
D03*
X6938Y2162D02*
D03*
X7192D02*
D03*
X7446D02*
D03*
X7700D02*
D03*
X7954D02*
D03*
X8208D02*
D03*
X8462D02*
D03*
X4310Y910D02*
D03*
X3780Y280D02*
D03*
X4050Y340D02*
D03*
X4560Y390D02*
D03*
X7710Y1120D02*
D03*
X8471Y1119D02*
D03*
X846Y1226D02*
D03*
X1350Y1230D02*
D03*
X2040D02*
D03*
X2046Y1576D02*
D03*
X1354D02*
D03*
X846D02*
D03*
X3446Y1226D02*
D03*
X3954D02*
D03*
Y1574D02*
D03*
X3446D02*
D03*
X2554D02*
D03*
X5154Y1576D02*
D03*
X6046D02*
D03*
Y1226D02*
D03*
X5154D02*
D03*
X7840Y1680D02*
D03*
X7460D02*
D03*
X7330Y1430D02*
D03*
X8344Y1421D02*
D03*
X8218Y1123D02*
D03*
X7970Y1370D02*
D03*
X8470Y1620D02*
D03*
X719Y881D02*
D03*
X1921D02*
D03*
X2350Y750D02*
D03*
X3319Y881D02*
D03*
X3830Y870D02*
D03*
X4520Y860D02*
D03*
X5920D02*
D03*
X7440Y2390D02*
D03*
X7200Y2440D02*
D03*
X3280Y2250D02*
D03*
X5730Y2190D02*
D03*
Y1910D02*
D03*
X5030Y1930D02*
D03*
X3320Y1940D02*
D03*
X1230D02*
D03*
X4420Y1410D02*
D03*
X4646Y1226D02*
D03*
Y1576D02*
D03*
X2554Y1226D02*
D03*
X2760Y1410D02*
D03*
X7085Y1875D02*
D03*
X6590Y2180D02*
D03*
X2850Y740D02*
D03*
X3540Y270D02*
D03*
X7443Y398D02*
D03*
X7960Y460D02*
D03*
X7200Y360D02*
D03*
X6930Y300D02*
D03*
X4190Y2300D02*
D03*
X1040Y1410D02*
D03*
X8920Y1060D02*
D03*
Y2610D02*
D03*
D13*
X9100Y300D02*
D03*
X300D02*
D03*
X5950Y3050D02*
D03*
X3450D02*
D03*
D14*
X4700Y2650D02*
D03*
D15*
X719Y1762D02*
D03*
X846D02*
D03*
X973D02*
D03*
X1100D02*
D03*
X1227D02*
D03*
X1354D02*
D03*
X1481D02*
D03*
X719Y1038D02*
D03*
X846D02*
D03*
X973D02*
D03*
X1100D02*
D03*
X1227D02*
D03*
X1354D02*
D03*
X1481D02*
D03*
X1919Y1762D02*
D03*
X2046D02*
D03*
X2173D02*
D03*
X2300D02*
D03*
X2427D02*
D03*
X2554D02*
D03*
X2681D02*
D03*
X1919Y1038D02*
D03*
X2046D02*
D03*
X2173D02*
D03*
X2300D02*
D03*
X2427D02*
D03*
X2554D02*
D03*
X2681D02*
D03*
X3319Y1762D02*
D03*
X3446D02*
D03*
X3573D02*
D03*
X3700D02*
D03*
X3827D02*
D03*
X3954D02*
D03*
X4081D02*
D03*
X3319Y1038D02*
D03*
X3446D02*
D03*
X3573D02*
D03*
X3700D02*
D03*
X3827D02*
D03*
X3954D02*
D03*
X4081D02*
D03*
X4519Y1762D02*
D03*
X4646D02*
D03*
X4773D02*
D03*
X4900D02*
D03*
X5027D02*
D03*
X5154D02*
D03*
X5281D02*
D03*
X4519Y1038D02*
D03*
X4646D02*
D03*
X4773D02*
D03*
X4900D02*
D03*
X5027D02*
D03*
X5154D02*
D03*
X5281D02*
D03*
X5919Y1762D02*
D03*
X6046D02*
D03*
X6173D02*
D03*
X6300D02*
D03*
X6427D02*
D03*
X6554D02*
D03*
X6681D02*
D03*
X5919Y1038D02*
D03*
X6046D02*
D03*
X6173D02*
D03*
X6300D02*
D03*
X6427D02*
D03*
X6554D02*
D03*
X6681D02*
D03*
D16*
X8599Y925D02*
D03*
X8471D02*
D03*
X8344D02*
D03*
X8218D02*
D03*
X8090D02*
D03*
X7964D02*
D03*
X7836D02*
D03*
X7710D02*
D03*
X7582D02*
D03*
X7456D02*
D03*
X7329D02*
D03*
X7201D02*
D03*
X8599Y1875D02*
D03*
X8471D02*
D03*
X8344D02*
D03*
X8218D02*
D03*
X8090D02*
D03*
X7964D02*
D03*
X7836D02*
D03*
X7710D02*
D03*
X7582D02*
D03*
X7456D02*
D03*
X7329D02*
D03*
X7201D02*
D03*
D17*
X5600Y3000D02*
D03*
X5400D02*
D03*
X5200D02*
D03*
X5000D02*
D03*
X4800D02*
D03*
X4600D02*
D03*
X4400D02*
D03*
X4200D02*
D03*
X4000D02*
D03*
X3800D02*
D03*
D18*
X8980Y1735D02*
D03*
Y1945D02*
D03*
Y1510D02*
D03*
Y1300D02*
D03*
D19*
X5600Y2777D02*
Y3000D01*
X8980Y2493D02*
X9045Y2558D01*
Y2662D01*
X5600Y2777D02*
X8930D01*
X9045Y2662D01*
X3800Y2690D02*
Y3000D01*
X3720Y2610D02*
X3800Y2690D01*
X550Y2610D02*
X3720D01*
X430Y2490D02*
X550Y2610D01*
X430Y1120D02*
Y2490D01*
Y1120D02*
X520Y1030D01*
X680D01*
X8980Y1510D02*
Y1735D01*
Y1945D02*
Y2493D01*
M02*
