G04 Layer_Color=65535*
%FSLAX42Y42*%
%MOMM*%
G71*
G01*
G75*
%ADD10C,0.25*%
%ADD20C,1.00*%
D10*
X1700Y1146D02*
Y1654D01*
X1446Y1400D02*
X1941D01*
X450Y2352D02*
X2950D01*
X430D02*
X450D01*
X430Y447D02*
Y2352D01*
Y447D02*
X2950D01*
Y2352D01*
X4300Y1146D02*
Y1654D01*
X4046Y1400D02*
X4541D01*
X3050Y2352D02*
X5550D01*
X3030D02*
X3050D01*
X3030Y447D02*
Y2352D01*
Y447D02*
X5550D01*
Y2352D01*
X7700Y1146D02*
Y1654D01*
X7446Y1400D02*
X7941D01*
X6450Y2352D02*
X8950D01*
X6430D02*
X6450D01*
X6430Y447D02*
Y2352D01*
Y447D02*
X8950D01*
Y2352D01*
X6443Y2593D02*
Y2441D01*
X6519D01*
X6545Y2466D01*
Y2568D01*
X6519Y2593D01*
X6443D01*
X6595Y2568D02*
X6621Y2593D01*
X6672D01*
X6697Y2568D01*
Y2543D01*
X6672Y2517D01*
X6646D01*
X6672D01*
X6697Y2492D01*
Y2466D01*
X6672Y2441D01*
X6621D01*
X6595Y2466D01*
X3042Y2593D02*
Y2441D01*
X3118D01*
X3144Y2466D01*
Y2568D01*
X3118Y2593D01*
X3042D01*
X3296Y2441D02*
X3194D01*
X3296Y2543D01*
Y2568D01*
X3271Y2593D01*
X3220D01*
X3194Y2568D01*
X444Y2593D02*
Y2441D01*
X520D01*
X545Y2466D01*
Y2568D01*
X520Y2593D01*
X444D01*
X596Y2441D02*
X647D01*
X621D01*
Y2593D01*
X596Y2568D01*
D20*
X506Y359D02*
D03*
X3106D02*
D03*
X6506D02*
D03*
M02*
