G04 Layer_Color=16711935*
%FSLAX42Y42*%
%MOMM*%
G71*
G01*
G75*
%ADD10C,0.25*%
%ADD12C,0.25*%
%ADD13C,0.10*%
D10*
X100Y2900D02*
G03*
X0Y2800I0J-100D01*
G01*
Y100D02*
G03*
X100Y0I100J0D01*
G01*
X9300D02*
G03*
X9400Y100I0J100D01*
G01*
Y2800D02*
G03*
X9300Y2900I-100J0D01*
G01*
X6200Y3200D02*
G03*
X6100Y3300I-100J0D01*
G01*
X3310D02*
G03*
X3190Y3180I0J-120D01*
G01*
X100Y2900D02*
G03*
X0Y2800I0J-100D01*
G01*
Y100D02*
G03*
X100Y0I100J0D01*
G01*
X9300D02*
G03*
X9400Y100I0J100D01*
G01*
Y2800D02*
G03*
X9300Y2900I-100J0D01*
G01*
X6200Y3200D02*
G03*
X6100Y3300I-100J0D01*
G01*
X3310D02*
G03*
X3190Y3180I0J-120D01*
G01*
D12*
X0Y100D02*
Y2800D01*
X100Y2900D02*
X3190Y2900D01*
X100Y0D02*
X9300D01*
X9400Y100D02*
Y2800D01*
X6200Y2900D02*
X9300D01*
X6200D02*
Y3200D01*
X3190Y2900D02*
Y3180D01*
X3310Y3300D02*
X6100D01*
X0Y100D02*
Y2800D01*
X100Y2900D02*
X3190Y2900D01*
X100Y0D02*
X9300D01*
X9400Y100D02*
Y2800D01*
X6200Y2900D02*
X9300D01*
X6200D02*
Y3200D01*
X3190Y2900D02*
Y3180D01*
X3310Y3300D02*
X6100D01*
D13*
X7260Y1690D02*
G03*
X7260Y1690I-50J0D01*
G01*
X5915Y1590D02*
G03*
X5915Y1590I-50J0D01*
G01*
X4515D02*
G03*
X4515Y1590I-50J0D01*
G01*
X3315D02*
G03*
X3315Y1590I-50J0D01*
G01*
X1915D02*
G03*
X1915Y1590I-50J0D01*
G01*
X715D02*
G03*
X715Y1590I-50J0D01*
G01*
X9047Y1295D02*
Y1515D01*
X8912Y1295D02*
Y1515D01*
Y1295D02*
X9047D01*
X8912Y1515D02*
X9047D01*
X8912Y1950D02*
X9047D01*
X8912Y1730D02*
X9047D01*
X8912D02*
Y1950D01*
X9047Y1730D02*
Y1950D01*
X7120Y1780D02*
X8680D01*
X7120Y1020D02*
X8680D01*
X7120D02*
Y1780D01*
X8680Y1020D02*
Y1780D01*
X6825Y1120D02*
Y1680D01*
X5775Y1120D02*
Y1680D01*
Y1120D02*
X6825D01*
X5775Y1680D02*
X6825D01*
X5425Y1120D02*
Y1680D01*
X4375Y1120D02*
Y1680D01*
Y1120D02*
X5425D01*
X4375Y1680D02*
X5425D01*
X4225Y1120D02*
Y1680D01*
X3175Y1120D02*
Y1680D01*
Y1120D02*
X4225D01*
X3175Y1680D02*
X4225D01*
X2825Y1120D02*
Y1680D01*
X1775Y1120D02*
Y1680D01*
Y1120D02*
X2825D01*
X1775Y1680D02*
X2825D01*
X1625Y1120D02*
Y1680D01*
X575Y1120D02*
Y1680D01*
Y1120D02*
X1625D01*
X575Y1680D02*
X1625D01*
M02*
