G04 Layer_Color=32896*
%FSLAX42Y42*%
%MOMM*%
G71*
G01*
G75*
%ADD10C,0.25*%
%ADD12C,0.25*%
%ADD13C,0.10*%
%ADD28C,0.60*%
%ADD29C,0.20*%
%ADD30C,0.13*%
D10*
X9110Y1290D02*
X9262D01*
Y1366D01*
X9237Y1392D01*
X9186D01*
X9161Y1366D01*
Y1290D01*
Y1341D02*
X9110Y1392D01*
Y1544D02*
Y1442D01*
X9212Y1544D01*
X9237D01*
X9262Y1519D01*
Y1468D01*
X9237Y1442D01*
X9110Y1750D02*
X9262D01*
Y1826D01*
X9237Y1852D01*
X9186D01*
X9161Y1826D01*
Y1750D01*
Y1801D02*
X9110Y1852D01*
Y1902D02*
Y1953D01*
Y1928D01*
X9262D01*
X9237Y1902D01*
X1630Y2072D02*
Y1945D01*
X1605Y1920D01*
X1554D01*
X1528Y1945D01*
Y2072D01*
X1478Y1920D02*
X1427D01*
X1452D01*
Y2072D01*
X1478Y2047D01*
X2826Y2101D02*
Y1974D01*
X2801Y1948D01*
X2750D01*
X2725Y1974D01*
Y2101D01*
X2572Y1948D02*
X2674D01*
X2572Y2050D01*
Y2075D01*
X2598Y2101D01*
X2648D01*
X2674Y2075D01*
X4226Y2100D02*
Y1973D01*
X4201Y1948D01*
X4150D01*
X4125Y1973D01*
Y2100D01*
X4074Y2075D02*
X4049Y2100D01*
X3998D01*
X3972Y2075D01*
Y2049D01*
X3998Y2024D01*
X4023D01*
X3998D01*
X3972Y1999D01*
Y1973D01*
X3998Y1948D01*
X4049D01*
X4074Y1973D01*
X5427Y2101D02*
Y1974D01*
X5402Y1948D01*
X5351D01*
X5325Y1974D01*
Y2101D01*
X5199Y1948D02*
Y2101D01*
X5275Y2024D01*
X5173D01*
X6827Y2101D02*
Y1974D01*
X6801Y1948D01*
X6750D01*
X6725Y1974D01*
Y2101D01*
X6573D02*
X6674D01*
Y2024D01*
X6623Y2050D01*
X6598D01*
X6573Y2024D01*
Y1974D01*
X6598Y1948D01*
X6649D01*
X6674Y1974D01*
X8690Y2112D02*
Y1985D01*
X8665Y1960D01*
X8614D01*
X8588Y1985D01*
Y2112D01*
X100Y2900D02*
G03*
X0Y2800I0J-100D01*
G01*
Y100D02*
G03*
X100Y0I100J0D01*
G01*
X9300D02*
G03*
X9400Y100I0J100D01*
G01*
Y2800D02*
G03*
X9300Y2900I-100J0D01*
G01*
X6200Y3200D02*
G03*
X6100Y3300I-100J0D01*
G01*
X3310D02*
G03*
X3190Y3180I0J-120D01*
G01*
D12*
X7129Y1875D02*
G03*
X7129Y1875I-12J0D01*
G01*
X5847Y1762D02*
G03*
X5847Y1762I-12J0D01*
G01*
X4447D02*
G03*
X4447Y1762I-12J0D01*
G01*
X3247D02*
G03*
X3247Y1762I-12J0D01*
G01*
X1847D02*
G03*
X1847Y1762I-12J0D01*
G01*
X647D02*
G03*
X647Y1762I-12J0D01*
G01*
X0Y100D02*
Y2800D01*
X100Y2900D02*
X3190Y2900D01*
X100Y0D02*
X9300D01*
X9400Y100D02*
Y2800D01*
X6200Y2900D02*
X9300D01*
X6200D02*
Y3200D01*
X3190Y2900D02*
Y3180D01*
X3310Y3300D02*
X6100D01*
D13*
X7260Y1690D02*
G03*
X7260Y1690I-50J0D01*
G01*
X5915Y1590D02*
G03*
X5915Y1590I-50J0D01*
G01*
X4515D02*
G03*
X4515Y1590I-50J0D01*
G01*
X3315D02*
G03*
X3315Y1590I-50J0D01*
G01*
X1915D02*
G03*
X1915Y1590I-50J0D01*
G01*
X715D02*
G03*
X715Y1590I-50J0D01*
G01*
X9047Y1295D02*
Y1515D01*
X8912Y1295D02*
Y1515D01*
Y1295D02*
X9047D01*
X8912Y1515D02*
X9047D01*
X8912Y1950D02*
X9047D01*
X8912Y1730D02*
X9047D01*
X8912D02*
Y1950D01*
X9047Y1730D02*
Y1950D01*
X7120Y1780D02*
X8680D01*
X7120Y1020D02*
X8680D01*
X7120D02*
Y1780D01*
X8680Y1020D02*
Y1780D01*
X6825Y1120D02*
Y1680D01*
X5775Y1120D02*
Y1680D01*
Y1120D02*
X6825D01*
X5775Y1680D02*
X6825D01*
X5425Y1120D02*
Y1680D01*
X4375Y1120D02*
Y1680D01*
Y1120D02*
X5425D01*
X4375Y1680D02*
X5425D01*
X4225Y1120D02*
Y1680D01*
X3175Y1120D02*
Y1680D01*
Y1120D02*
X4225D01*
X3175Y1680D02*
X4225D01*
X2825Y1120D02*
Y1680D01*
X1775Y1120D02*
Y1680D01*
Y1120D02*
X2825D01*
X1775Y1680D02*
X2825D01*
X1625Y1120D02*
Y1680D01*
X575Y1120D02*
Y1680D01*
Y1120D02*
X1625D01*
X575Y1680D02*
X1625D01*
D28*
X7250Y1640D02*
G03*
X7250Y1640I-30J0D01*
G01*
X5905Y1540D02*
G03*
X5905Y1540I-30J0D01*
G01*
X4505D02*
G03*
X4505Y1540I-30J0D01*
G01*
X3305D02*
G03*
X3305Y1540I-30J0D01*
G01*
X1905D02*
G03*
X1905Y1540I-30J0D01*
G01*
X705D02*
G03*
X705Y1540I-30J0D01*
G01*
D29*
X9045Y1400D02*
Y1410D01*
X8915Y1400D02*
Y1410D01*
Y1835D02*
Y1845D01*
X9045Y1835D02*
Y1845D01*
X7120Y1740D02*
X8680D01*
X7120Y1060D02*
X8680D01*
X7120D02*
Y1740D01*
X8680Y1060D02*
Y1740D01*
X6825Y1160D02*
Y1640D01*
X5775Y1160D02*
Y1640D01*
Y1160D02*
X6825D01*
X5775Y1640D02*
X6825D01*
X5425Y1160D02*
Y1640D01*
X4375Y1160D02*
Y1640D01*
Y1160D02*
X5425D01*
X4375Y1640D02*
X5425D01*
X4225Y1160D02*
Y1640D01*
X3175Y1160D02*
Y1640D01*
Y1160D02*
X4225D01*
X3175Y1640D02*
X4225D01*
X2825Y1160D02*
Y1640D01*
X1775Y1160D02*
Y1640D01*
Y1160D02*
X2825D01*
X1775Y1640D02*
X2825D01*
X1625Y1160D02*
Y1640D01*
X575Y1160D02*
Y1640D01*
Y1160D02*
X1625D01*
X575Y1640D02*
X1625D01*
D30*
X8670Y280D02*
Y330D01*
X8637Y280D01*
Y330D01*
X8620Y280D02*
Y330D01*
X8595D01*
X8587Y322D01*
Y305D01*
X8595Y297D01*
X8620D01*
X8537Y322D02*
X8545Y330D01*
X8562D01*
X8570Y322D01*
Y313D01*
X8562Y305D01*
X8545D01*
X8537Y297D01*
Y288D01*
X8545Y280D01*
X8562D01*
X8570Y288D01*
X8487Y322D02*
X8495Y330D01*
X8512D01*
X8520Y322D01*
Y288D01*
X8512Y280D01*
X8495D01*
X8487Y288D01*
X8387Y330D02*
Y280D01*
X8412D01*
X8420Y288D01*
Y305D01*
X8412Y313D01*
X8387D01*
X8362D02*
X8345D01*
X8337Y305D01*
Y280D01*
X8362D01*
X8370Y288D01*
X8362Y297D01*
X8337D01*
X8312Y322D02*
Y313D01*
X8320D01*
X8303D01*
X8312D01*
Y288D01*
X8303Y280D01*
X8253D02*
X8270D01*
X8278Y288D01*
Y305D01*
X8270Y313D01*
X8253D01*
X8245Y305D01*
Y297D01*
X8278D01*
X8178Y280D02*
Y313D01*
X8170D01*
X8162Y305D01*
Y280D01*
Y305D01*
X8154Y313D01*
X8145Y305D01*
Y280D01*
X8120D02*
X8104D01*
X8095Y288D01*
Y305D01*
X8104Y313D01*
X8120D01*
X8129Y305D01*
Y288D01*
X8120Y280D01*
X8045Y330D02*
Y280D01*
X8070D01*
X8079Y288D01*
Y305D01*
X8070Y313D01*
X8045D01*
X8029D02*
Y288D01*
X8020Y280D01*
X7995D01*
Y313D01*
X7979Y280D02*
X7962D01*
X7970D01*
Y330D01*
X7979D01*
X7912Y280D02*
X7929D01*
X7937Y288D01*
Y305D01*
X7929Y313D01*
X7912D01*
X7904Y305D01*
Y297D01*
X7937D01*
X8763Y222D02*
X8779D01*
X8788Y214D01*
Y181D01*
X8779Y173D01*
X8763D01*
X8754Y181D01*
Y214D01*
X8763Y222D01*
X8729Y214D02*
Y206D01*
X8738D01*
X8721D01*
X8729D01*
Y181D01*
X8721Y173D01*
X8696Y222D02*
Y173D01*
Y197D01*
X8688Y206D01*
X8671D01*
X8663Y197D01*
Y173D01*
X8646D02*
Y206D01*
X8621D01*
X8613Y197D01*
Y173D01*
X8596D02*
X8579D01*
X8588D01*
Y206D01*
X8596D01*
X8529Y173D02*
X8546D01*
X8554Y181D01*
Y197D01*
X8546Y206D01*
X8529D01*
X8521Y197D01*
Y189D01*
X8554D01*
X8504Y173D02*
X8488D01*
X8496D01*
Y222D01*
X8504D01*
X8413D02*
Y173D01*
Y189D01*
X8379Y222D01*
X8404Y197D01*
X8379Y173D01*
X8354D02*
X8338D01*
X8329Y181D01*
Y197D01*
X8338Y206D01*
X8354D01*
X8363Y197D01*
Y181D01*
X8354Y173D01*
X8313D02*
Y206D01*
X8288D01*
X8279Y197D01*
Y173D01*
X8254Y206D02*
X8238D01*
X8229Y197D01*
Y173D01*
X8254D01*
X8263Y181D01*
X8254Y189D01*
X8229D01*
X8213Y173D02*
Y206D01*
X8188D01*
X8179Y197D01*
Y173D01*
X8079Y222D02*
X8113D01*
Y173D01*
X8079D01*
X8113Y197D02*
X8096D01*
X8029Y214D02*
X8038Y222D01*
X8054D01*
X8063Y214D01*
Y181D01*
X8054Y173D01*
X8038D01*
X8029Y181D01*
X7979Y222D02*
X8013D01*
Y173D01*
X7979D01*
X8013Y197D02*
X7996D01*
X7879Y173D02*
X7913D01*
X7879Y206D01*
Y214D01*
X7888Y222D01*
X7904D01*
X7913Y214D01*
X7863D02*
X7854Y222D01*
X7838D01*
X7829Y214D01*
Y181D01*
X7838Y173D01*
X7854D01*
X7863Y181D01*
Y214D01*
X7813Y173D02*
X7796D01*
X7804D01*
Y222D01*
X7813Y214D01*
X7771Y222D02*
X7738D01*
Y214D01*
X7771Y181D01*
Y173D01*
X3880Y2752D02*
X3872Y2760D01*
X3855D01*
X3847Y2752D01*
Y2743D01*
X3855Y2735D01*
X3863D01*
X3855D01*
X3847Y2727D01*
Y2718D01*
X3855Y2710D01*
X3872D01*
X3880Y2718D01*
X3830Y2760D02*
Y2727D01*
X3813Y2710D01*
X3797Y2727D01*
Y2760D01*
X3780Y2752D02*
X3772Y2760D01*
X3755D01*
X3747Y2752D01*
Y2743D01*
X3755Y2735D01*
X3763D01*
X3755D01*
X3747Y2727D01*
Y2718D01*
X3755Y2710D01*
X3772D01*
X3780Y2718D01*
X4627Y2752D02*
X4635Y2760D01*
X4652D01*
X4660Y2752D01*
Y2718D01*
X4652Y2710D01*
X4635D01*
X4627Y2718D01*
Y2735D01*
X4643D01*
X4610Y2710D02*
Y2760D01*
X4577Y2710D01*
Y2760D01*
X4560D02*
Y2710D01*
X4535D01*
X4527Y2718D01*
Y2752D01*
X4535Y2760D01*
X4560D01*
X4007Y2710D02*
X4040Y2743D01*
X3990Y2710D02*
Y2760D01*
X3965D01*
X3957Y2752D01*
Y2735D01*
X3965Y2727D01*
X3990D01*
X3973D02*
X3957Y2710D01*
X4227D02*
X4260Y2743D01*
X4177Y2752D02*
X4185Y2760D01*
X4202D01*
X4210Y2752D01*
Y2718D01*
X4202Y2710D01*
X4185D01*
X4177Y2718D01*
Y2735D01*
X4193D01*
X4407Y2710D02*
X4440Y2743D01*
X4390Y2760D02*
Y2710D01*
X4365D01*
X4357Y2718D01*
Y2727D01*
X4365Y2735D01*
X4390D01*
X4365D01*
X4357Y2743D01*
Y2752D01*
X4365Y2760D01*
X4390D01*
X4827Y2752D02*
X4835Y2760D01*
X4852D01*
X4860Y2752D01*
Y2718D01*
X4852Y2710D01*
X4835D01*
X4827Y2718D01*
Y2735D01*
X4843D01*
X4810Y2710D02*
Y2760D01*
X4777Y2710D01*
Y2760D01*
X4760D02*
Y2710D01*
X4735D01*
X4727Y2718D01*
Y2752D01*
X4735Y2760D01*
X4760D01*
X5627Y2750D02*
X5660D01*
Y2725D01*
X5643Y2733D01*
X5635D01*
X5627Y2725D01*
Y2708D01*
X5635Y2700D01*
X5652D01*
X5660Y2708D01*
X5610Y2750D02*
Y2717D01*
X5593Y2700D01*
X5577Y2717D01*
Y2750D01*
X5070Y2760D02*
Y2710D01*
X5045D01*
X5037Y2718D01*
Y2752D01*
X5045Y2760D01*
X5070D01*
X5020D02*
X5003D01*
X5012D01*
Y2710D01*
X5020D01*
X5003D01*
X4978D02*
Y2760D01*
X4945Y2710D01*
Y2760D01*
X5247Y2710D02*
X5280Y2743D01*
X5197Y2752D02*
X5205Y2760D01*
X5222D01*
X5230Y2752D01*
Y2718D01*
X5222Y2710D01*
X5205D01*
X5197Y2718D01*
X5147Y2752D02*
X5155Y2760D01*
X5172D01*
X5180Y2752D01*
Y2743D01*
X5172Y2735D01*
X5155D01*
X5147Y2727D01*
Y2718D01*
X5155Y2710D01*
X5172D01*
X5180Y2718D01*
X5427Y2752D02*
X5435Y2760D01*
X5452D01*
X5460Y2752D01*
Y2718D01*
X5452Y2710D01*
X5435D01*
X5427Y2718D01*
X5410Y2760D02*
Y2710D01*
X5377D01*
X5360Y2760D02*
Y2710D01*
Y2727D01*
X5327Y2760D01*
X5352Y2735D01*
X5327Y2710D01*
M02*
