G04 Layer_Physical_Order=2*
G04 Layer_Color=16711680*
%FSLAX42Y42*%
%MOMM*%
G71*
G01*
G75*
%ADD10C,0.25*%
%ADD11C,0.50*%
%ADD12C,0.25*%
%ADD13C,0.10*%
%ADD14C,3.50*%
%ADD15C,1.00*%
%ADD16R,1.50X1.25*%
%ADD17R,1.50X3.00*%
%ADD18O,0.60X1.90*%
G04:AMPARAMS|DCode=19|XSize=0.6mm|YSize=1.65mm|CornerRadius=0.05mm|HoleSize=0mm|Usage=FLASHONLY|Rotation=180.000|XOffset=0mm|YOffset=0mm|HoleType=Round|Shape=RoundedRectangle|*
%AMROUNDEDRECTD19*
21,1,0.60,1.55,0,0,180.0*
21,1,0.50,1.65,0,0,180.0*
1,1,0.10,-0.25,0.77*
1,1,0.10,0.25,0.77*
1,1,0.10,0.25,-0.77*
1,1,0.10,-0.25,-0.77*
%
%ADD19ROUNDEDRECTD19*%
%ADD20C,1.00*%
G36*
X4336Y2375D02*
Y2335D01*
X4339Y2320D01*
X4348Y2308D01*
X4394Y2261D01*
X4407Y2253D01*
X4422Y2250D01*
X4544D01*
X4545Y2237D01*
X4534Y2235D01*
X4516Y2228D01*
X4500Y2216D01*
X4489Y2201D01*
X4432D01*
X4417Y2198D01*
X4405Y2189D01*
X4387Y2172D01*
X4374Y2177D01*
X4373Y2182D01*
X4366Y2200D01*
X4354Y2216D01*
X4338Y2228D01*
X4320Y2235D01*
X4300Y2238D01*
X4280Y2235D01*
X4262Y2228D01*
X4246Y2216D01*
X4242Y2210D01*
X4229Y2214D01*
Y2235D01*
X4244Y2246D01*
X4256Y2262D01*
X4263Y2280D01*
X4266Y2300D01*
X4263Y2320D01*
X4256Y2338D01*
X4255Y2340D01*
X4260Y2351D01*
X4280D01*
X4295Y2354D01*
X4307Y2363D01*
X4324Y2379D01*
X4336Y2375D01*
D02*
G37*
G36*
X5983Y2153D02*
X5995Y2144D01*
X6010Y2141D01*
X6525D01*
X6536Y2126D01*
X6541Y2122D01*
X6537Y2110D01*
X5766D01*
X5764Y2122D01*
X5768Y2124D01*
X5784Y2136D01*
X5796Y2152D01*
X5803Y2170D01*
X5806Y2190D01*
X5803Y2210D01*
X5796Y2228D01*
X5784Y2244D01*
X5769Y2255D01*
Y2260D01*
X5766Y2275D01*
X5757Y2287D01*
X5756Y2289D01*
X5761Y2300D01*
X5835D01*
X5983Y2153D01*
D02*
G37*
G36*
X4125Y2340D02*
X4124Y2338D01*
X4117Y2320D01*
X4114Y2300D01*
X4117Y2280D01*
X4124Y2262D01*
X4136Y2246D01*
X4151Y2235D01*
Y2201D01*
X4111D01*
X4100Y2216D01*
X4084Y2228D01*
X4066Y2235D01*
X4046Y2238D01*
X4026Y2235D01*
X4008Y2228D01*
X3992Y2216D01*
X3980Y2200D01*
X3973Y2182D01*
X3970Y2162D01*
X3973Y2142D01*
X3980Y2124D01*
X3982Y2121D01*
X3977Y2110D01*
X3861D01*
X3856Y2121D01*
X3858Y2124D01*
X3865Y2142D01*
X3868Y2162D01*
X3865Y2182D01*
X3858Y2200D01*
X3846Y2216D01*
X3830Y2228D01*
X3812Y2235D01*
X3809Y2236D01*
X3767Y2278D01*
X3755Y2286D01*
X3740Y2289D01*
X3345D01*
X3334Y2304D01*
X3318Y2316D01*
X3300Y2324D01*
X3280Y2326D01*
X3260Y2324D01*
X3242Y2316D01*
X3226Y2304D01*
X3214Y2288D01*
X3207Y2270D01*
X3204Y2250D01*
X3207Y2230D01*
X3214Y2212D01*
X3226Y2196D01*
X3242Y2184D01*
X3260Y2177D01*
X3280Y2174D01*
X3300Y2177D01*
X3318Y2184D01*
X3334Y2196D01*
X3345Y2211D01*
X3467D01*
X3467Y2210D01*
X3472Y2199D01*
X3465Y2182D01*
X3462Y2162D01*
X3465Y2142D01*
X3471Y2126D01*
X3444Y2099D01*
X2632D01*
X2589Y2142D01*
Y2198D01*
X2586Y2213D01*
X2578Y2226D01*
X2526Y2278D01*
X2513Y2286D01*
X2498Y2289D01*
X2426D01*
X2411Y2286D01*
X2398Y2278D01*
X2346Y2226D01*
X2338Y2213D01*
X2335Y2198D01*
Y2170D01*
X2287Y2122D01*
X2276Y2129D01*
X2281Y2142D01*
X2284Y2162D01*
X2281Y2182D01*
X2274Y2200D01*
X2262Y2216D01*
X2246Y2228D01*
X2228Y2235D01*
X2208Y2238D01*
X2188Y2235D01*
X2170Y2228D01*
X2154Y2216D01*
X2142Y2200D01*
X2135Y2182D01*
X2132Y2162D01*
X2135Y2142D01*
X2136Y2139D01*
X2126Y2129D01*
X2033D01*
X2026Y2139D01*
X2027Y2142D01*
X2030Y2162D01*
X2027Y2182D01*
X2020Y2200D01*
X2008Y2216D01*
X1992Y2228D01*
X1974Y2235D01*
X1954Y2238D01*
X1934Y2235D01*
X1916Y2228D01*
X1912Y2224D01*
X1899Y2231D01*
Y2344D01*
X1906Y2351D01*
X4120D01*
X4125Y2340D01*
D02*
G37*
G36*
X7073Y2362D02*
Y2227D01*
X7023Y2178D01*
X7022Y2178D01*
X7011Y2183D01*
X7004Y2200D01*
X6992Y2216D01*
X6976Y2228D01*
X6958Y2235D01*
X6938Y2238D01*
X6918Y2235D01*
X6900Y2228D01*
X6884Y2216D01*
X6872Y2200D01*
X6865Y2182D01*
X6862Y2162D01*
X6865Y2142D01*
X6872Y2124D01*
X6874Y2122D01*
X6861Y2110D01*
X6643D01*
X6639Y2122D01*
X6644Y2126D01*
X6656Y2142D01*
X6663Y2160D01*
X6666Y2180D01*
X6663Y2200D01*
X6656Y2218D01*
X6644Y2234D01*
X6628Y2246D01*
X6610Y2253D01*
X6590Y2256D01*
X6570Y2253D01*
X6552Y2246D01*
X6536Y2234D01*
X6525Y2219D01*
X6026D01*
X5906Y2339D01*
X5910Y2351D01*
X7030D01*
X7045Y2354D01*
X7057Y2363D01*
X7061Y2366D01*
X7073Y2362D01*
D02*
G37*
G36*
X8396Y1121D02*
X8395Y1119D01*
X8398Y1099D01*
X8406Y1080D01*
X8418Y1065D01*
X8433Y1053D01*
Y1031D01*
X8432Y1030D01*
X8419Y1012D01*
X8415Y990D01*
Y860D01*
X8419Y838D01*
X8426Y828D01*
X8419Y816D01*
X8399D01*
X8389Y826D01*
X8397Y838D01*
X8401Y860D01*
Y990D01*
X8397Y1012D01*
X8384Y1030D01*
X8366Y1042D01*
X8344Y1046D01*
X8323Y1042D01*
X8305Y1030D01*
X8292Y1012D01*
X8288Y990D01*
Y860D01*
X8292Y838D01*
X8301Y826D01*
X8300Y823D01*
X8294Y821D01*
X8285Y819D01*
X8275Y826D01*
X8274Y826D01*
X8269Y838D01*
X8270Y838D01*
X8274Y860D01*
Y990D01*
X8270Y1012D01*
X8257Y1030D01*
X8256Y1031D01*
Y1057D01*
X8271Y1069D01*
X8283Y1084D01*
X8291Y1103D01*
X8293Y1118D01*
X8294Y1123D01*
X8305Y1130D01*
X8387D01*
X8396Y1121D01*
D02*
G37*
G36*
X4463Y1821D02*
Y1685D01*
X4465Y1673D01*
X4472Y1663D01*
X4480Y1658D01*
Y1551D01*
X4483Y1536D01*
X4492Y1524D01*
X4554Y1461D01*
X4550Y1449D01*
X4485D01*
X4474Y1464D01*
X4458Y1476D01*
X4440Y1483D01*
X4420Y1486D01*
X4400Y1483D01*
X4382Y1476D01*
X4366Y1464D01*
X4362Y1458D01*
X4349Y1462D01*
Y1724D01*
X4451Y1826D01*
X4463Y1821D01*
D02*
G37*
G36*
X5671Y2237D02*
X5664Y2228D01*
X5657Y2210D01*
X5654Y2190D01*
X5657Y2170D01*
X5664Y2152D01*
X5676Y2136D01*
X5692Y2124D01*
X5696Y2122D01*
X5694Y2110D01*
X5131D01*
X5126Y2121D01*
X5128Y2124D01*
X5135Y2142D01*
X5138Y2162D01*
X5135Y2182D01*
X5128Y2200D01*
X5116Y2216D01*
X5100Y2228D01*
X5082Y2235D01*
X5071Y2237D01*
X5072Y2250D01*
X5665D01*
X5671Y2237D01*
D02*
G37*
G36*
X7274Y999D02*
X7272Y990D01*
Y860D01*
X7276Y838D01*
X7289Y820D01*
X7307Y808D01*
X7329Y804D01*
X7331Y804D01*
X7341Y796D01*
Y716D01*
X7302Y677D01*
X7257D01*
X7246Y692D01*
X7230Y704D01*
X7212Y711D01*
X7192Y714D01*
X7183Y713D01*
X7172Y723D01*
X7172Y724D01*
Y799D01*
X7185Y807D01*
X7201Y804D01*
X7223Y808D01*
X7241Y820D01*
X7254Y838D01*
X7258Y860D01*
Y990D01*
X7256Y999D01*
X7265Y1010D01*
X7274Y999D01*
D02*
G37*
G36*
X4161Y2577D02*
X4064Y2480D01*
X3939D01*
X3934Y2491D01*
X4027Y2584D01*
X4036Y2597D01*
X4039Y2612D01*
Y2825D01*
X4161D01*
Y2577D01*
D02*
G37*
G36*
X5796Y3179D02*
X5783Y3162D01*
X5764Y3127D01*
X5753Y3089D01*
X5750Y3063D01*
X5950D01*
Y3037D01*
X5750D01*
X5753Y3011D01*
X5764Y2973D01*
X5783Y2938D01*
X5808Y2908D01*
X5838Y2883D01*
X5870Y2866D01*
X5866Y2853D01*
X5700D01*
Y3175D01*
X4813D01*
Y3000D01*
Y2825D01*
X4961D01*
Y2390D01*
X4964Y2375D01*
X4973Y2363D01*
X4996Y2339D01*
X4991Y2327D01*
X4438D01*
X4414Y2351D01*
Y2469D01*
X4427Y2483D01*
X4436Y2495D01*
X4439Y2510D01*
Y2825D01*
X4587D01*
Y3000D01*
Y3175D01*
X3700D01*
Y2825D01*
X3724D01*
Y2722D01*
X3688Y2686D01*
X550D01*
X530Y2683D01*
X512Y2676D01*
X496Y2664D01*
X376Y2544D01*
X364Y2528D01*
X357Y2510D01*
X354Y2490D01*
Y1120D01*
X357Y1100D01*
X364Y1082D01*
X376Y1066D01*
X466Y976D01*
X482Y964D01*
X500Y957D01*
X520Y954D01*
X664D01*
X665Y948D01*
X668Y945D01*
Y937D01*
X665Y935D01*
X653Y919D01*
X646Y901D01*
X643Y881D01*
X646Y861D01*
X653Y843D01*
X665Y827D01*
X681Y815D01*
X699Y808D01*
X719Y805D01*
X739Y808D01*
X757Y815D01*
X773Y827D01*
X785Y843D01*
X792Y861D01*
X795Y881D01*
X792Y901D01*
X785Y919D01*
X773Y935D01*
X770Y937D01*
Y945D01*
X773Y948D01*
X775Y960D01*
Y1115D01*
X773Y1127D01*
X766Y1137D01*
X756Y1144D01*
X744Y1146D01*
X694D01*
X682Y1144D01*
X672Y1137D01*
X665Y1127D01*
X663Y1115D01*
Y1106D01*
X552D01*
X506Y1152D01*
Y2458D01*
X582Y2534D01*
X773D01*
X777Y2521D01*
X774Y2519D01*
X692Y2436D01*
X683Y2424D01*
X680Y2409D01*
Y1867D01*
X672Y1862D01*
X665Y1852D01*
X663Y1840D01*
Y1685D01*
X665Y1673D01*
X672Y1663D01*
X680Y1658D01*
Y1551D01*
X683Y1536D01*
X692Y1524D01*
X833Y1383D01*
X934Y1281D01*
Y1231D01*
X921Y1231D01*
X921Y1234D01*
X919Y1246D01*
X912Y1264D01*
X900Y1280D01*
X884Y1292D01*
X866Y1299D01*
X846Y1302D01*
X826Y1299D01*
X808Y1292D01*
X792Y1280D01*
X780Y1264D01*
X773Y1246D01*
X770Y1226D01*
X773Y1206D01*
X780Y1188D01*
X792Y1172D01*
X807Y1161D01*
Y1142D01*
X799Y1137D01*
X792Y1127D01*
X790Y1115D01*
Y960D01*
X792Y948D01*
X799Y938D01*
X809Y931D01*
X821Y929D01*
X871D01*
X883Y931D01*
X893Y938D01*
X900Y948D01*
X902Y960D01*
Y1115D01*
X900Y1127D01*
X893Y1137D01*
X885Y1142D01*
Y1161D01*
X900Y1172D01*
X912Y1188D01*
X919Y1206D01*
X921Y1218D01*
X921Y1221D01*
X934Y1221D01*
Y1142D01*
X926Y1137D01*
X919Y1127D01*
X917Y1115D01*
Y960D01*
X919Y948D01*
X926Y938D01*
X936Y931D01*
X948Y929D01*
X998D01*
X1010Y931D01*
X1020Y938D01*
X1027Y948D01*
X1029Y960D01*
Y1115D01*
X1027Y1127D01*
X1020Y1137D01*
X1012Y1142D01*
Y1297D01*
X1009Y1312D01*
X1000Y1324D01*
X980Y1345D01*
X988Y1355D01*
X1002Y1344D01*
X1020Y1337D01*
X1040Y1334D01*
X1060Y1337D01*
X1078Y1344D01*
X1094Y1356D01*
X1106Y1372D01*
X1113Y1390D01*
X1116Y1410D01*
X1113Y1430D01*
X1106Y1448D01*
X1094Y1464D01*
X1078Y1476D01*
X1060Y1483D01*
X1040Y1486D01*
X1020Y1483D01*
X1002Y1476D01*
X986Y1464D01*
X975Y1449D01*
X876D01*
X837Y1488D01*
X842Y1500D01*
X846Y1500D01*
X866Y1503D01*
X884Y1510D01*
X900Y1522D01*
X912Y1538D01*
X919Y1556D01*
X922Y1576D01*
X919Y1596D01*
X912Y1614D01*
X900Y1630D01*
X885Y1641D01*
Y1658D01*
X893Y1663D01*
X900Y1673D01*
X902Y1685D01*
Y1840D01*
X900Y1852D01*
X893Y1862D01*
X883Y1869D01*
X871Y1871D01*
X821D01*
X809Y1869D01*
X799Y1862D01*
X792Y1852D01*
X790Y1840D01*
Y1685D01*
X792Y1673D01*
X799Y1663D01*
X807Y1658D01*
Y1641D01*
X792Y1630D01*
X780Y1614D01*
X773Y1596D01*
X771Y1581D01*
X758Y1581D01*
Y1658D01*
X766Y1663D01*
X773Y1673D01*
X775Y1685D01*
Y1840D01*
X773Y1852D01*
X766Y1862D01*
X758Y1867D01*
Y2393D01*
X818Y2453D01*
X1792D01*
X1796Y2441D01*
X1773Y2417D01*
X1764Y2405D01*
X1761Y2390D01*
Y2226D01*
X1748Y2220D01*
X1738Y2228D01*
X1720Y2235D01*
X1700Y2238D01*
X1680Y2235D01*
X1662Y2228D01*
X1646Y2216D01*
X1634Y2200D01*
X1627Y2182D01*
X1624Y2162D01*
X1627Y2142D01*
X1634Y2124D01*
X1635Y2122D01*
X1629Y2110D01*
X1515D01*
X1510Y2121D01*
X1512Y2124D01*
X1519Y2142D01*
X1522Y2162D01*
X1519Y2182D01*
X1512Y2200D01*
X1500Y2216D01*
X1484Y2228D01*
X1466Y2235D01*
X1446Y2238D01*
X1426Y2235D01*
X1408Y2228D01*
X1392Y2216D01*
X1380Y2200D01*
X1373Y2182D01*
X1370Y2162D01*
X1373Y2142D01*
X1380Y2124D01*
X1382Y2121D01*
X1377Y2110D01*
X1261D01*
X1256Y2121D01*
X1258Y2124D01*
X1265Y2142D01*
X1268Y2162D01*
X1265Y2182D01*
X1258Y2200D01*
X1246Y2216D01*
X1230Y2228D01*
X1212Y2235D01*
X1192Y2238D01*
X1172Y2235D01*
X1154Y2228D01*
X1138Y2216D01*
X1126Y2200D01*
X1119Y2182D01*
X1116Y2162D01*
X1119Y2142D01*
X1126Y2124D01*
X1128Y2122D01*
X1122Y2108D01*
X1116Y2107D01*
X1103Y2098D01*
X1073Y2067D01*
X1064Y2055D01*
X1061Y2040D01*
Y1867D01*
X1053Y1862D01*
X1046Y1852D01*
X1044Y1840D01*
Y1685D01*
X1046Y1673D01*
X1053Y1663D01*
X1063Y1656D01*
X1075Y1654D01*
X1125D01*
X1137Y1656D01*
X1147Y1663D01*
X1154Y1673D01*
X1156Y1685D01*
Y1840D01*
X1154Y1852D01*
X1147Y1862D01*
X1139Y1867D01*
Y2024D01*
X1147Y2032D01*
X1200D01*
X1205Y2020D01*
X1200Y2014D01*
X1194Y2007D01*
X1192Y2006D01*
X1176Y1994D01*
X1164Y1978D01*
X1157Y1960D01*
X1154Y1940D01*
X1157Y1920D01*
X1164Y1902D01*
X1176Y1886D01*
X1186Y1879D01*
X1186Y1866D01*
X1180Y1862D01*
X1173Y1852D01*
X1171Y1840D01*
Y1685D01*
X1173Y1673D01*
X1180Y1663D01*
X1188Y1658D01*
Y1553D01*
X1191Y1538D01*
X1200Y1526D01*
X1442Y1283D01*
Y1142D01*
X1434Y1137D01*
X1427Y1127D01*
X1425Y1115D01*
Y960D01*
X1427Y948D01*
X1434Y938D01*
X1444Y931D01*
X1456Y929D01*
X1506D01*
X1518Y931D01*
X1528Y938D01*
X1535Y948D01*
X1537Y960D01*
Y1115D01*
X1535Y1127D01*
X1528Y1137D01*
X1520Y1142D01*
Y1299D01*
X1517Y1314D01*
X1508Y1326D01*
X1347Y1488D01*
X1353Y1500D01*
X1354Y1500D01*
X1374Y1503D01*
X1392Y1510D01*
X1408Y1522D01*
X1420Y1538D01*
X1427Y1556D01*
X1430Y1576D01*
X1427Y1596D01*
X1420Y1614D01*
X1408Y1630D01*
X1393Y1641D01*
Y1658D01*
X1401Y1663D01*
X1408Y1673D01*
X1410Y1685D01*
Y1840D01*
X1408Y1852D01*
X1401Y1862D01*
X1391Y1869D01*
X1379Y1871D01*
X1329D01*
X1317Y1869D01*
X1307Y1862D01*
X1300Y1852D01*
X1298Y1840D01*
Y1685D01*
X1300Y1673D01*
X1307Y1663D01*
X1315Y1658D01*
Y1641D01*
X1300Y1630D01*
X1288Y1614D01*
X1281Y1596D01*
X1279Y1581D01*
X1266Y1581D01*
Y1658D01*
X1274Y1663D01*
X1281Y1673D01*
X1283Y1685D01*
Y1840D01*
X1281Y1852D01*
X1274Y1862D01*
X1273Y1862D01*
X1272Y1864D01*
X1273Y1878D01*
X1284Y1886D01*
X1296Y1902D01*
X1303Y1920D01*
X1306Y1940D01*
X1303Y1960D01*
X1300Y1968D01*
X1308Y1981D01*
X1740D01*
X1755Y1984D01*
X1767Y1993D01*
X1809Y2034D01*
X1821Y2030D01*
Y1950D01*
X1824Y1935D01*
X1833Y1923D01*
X1877Y1879D01*
X1875Y1864D01*
X1872Y1862D01*
X1865Y1852D01*
X1863Y1840D01*
Y1685D01*
X1865Y1673D01*
X1872Y1663D01*
X1880Y1658D01*
Y1561D01*
X1883Y1546D01*
X1892Y1534D01*
X2134Y1291D01*
Y1142D01*
X2126Y1137D01*
X2119Y1127D01*
X2117Y1115D01*
Y960D01*
X2119Y948D01*
X2126Y938D01*
X2136Y931D01*
X2148Y929D01*
X2198D01*
X2210Y931D01*
X2220Y938D01*
X2227Y948D01*
X2229Y960D01*
Y1115D01*
X2227Y1127D01*
X2220Y1137D01*
X2212Y1142D01*
Y1307D01*
X2209Y1322D01*
X2200Y1334D01*
X2048Y1487D01*
X2052Y1501D01*
X2066Y1503D01*
X2084Y1510D01*
X2100Y1522D01*
X2112Y1538D01*
X2119Y1556D01*
X2122Y1576D01*
X2119Y1596D01*
X2112Y1614D01*
X2100Y1630D01*
X2085Y1641D01*
Y1658D01*
X2093Y1663D01*
X2100Y1673D01*
X2102Y1685D01*
Y1840D01*
X2100Y1852D01*
X2093Y1862D01*
X2083Y1869D01*
X2071Y1871D01*
X2021D01*
X2009Y1869D01*
X1999Y1862D01*
X1992Y1852D01*
X1990Y1840D01*
Y1685D01*
X1992Y1673D01*
X1999Y1663D01*
X2007Y1658D01*
Y1641D01*
X1992Y1630D01*
X1980Y1614D01*
X1973Y1596D01*
X1972Y1595D01*
X1959Y1588D01*
X1958Y1588D01*
Y1658D01*
X1966Y1663D01*
X1973Y1673D01*
X1975Y1685D01*
Y1840D01*
X1973Y1852D01*
X1966Y1862D01*
X1958Y1867D01*
Y1891D01*
X1955Y1906D01*
X1946Y1918D01*
X1899Y1966D01*
Y2093D01*
X1912Y2100D01*
X1916Y2096D01*
X1924Y2093D01*
X1927Y2089D01*
X1953Y2063D01*
X1965Y2054D01*
X1980Y2051D01*
X2114D01*
X2134Y2031D01*
Y1867D01*
X2126Y1862D01*
X2119Y1852D01*
X2117Y1840D01*
Y1685D01*
X2119Y1673D01*
X2126Y1663D01*
X2136Y1656D01*
X2148Y1654D01*
X2198D01*
X2210Y1656D01*
X2220Y1663D01*
X2227Y1673D01*
X2229Y1685D01*
Y1840D01*
X2227Y1852D01*
X2220Y1862D01*
X2212Y1867D01*
Y2047D01*
X2209Y2062D01*
X2201Y2074D01*
X2201Y2076D01*
X2207Y2086D01*
X2208Y2086D01*
X2228Y2089D01*
X2246Y2096D01*
X2254Y2102D01*
X2262Y2096D01*
X2264Y2094D01*
X2261Y2080D01*
Y1867D01*
X2253Y1862D01*
X2246Y1852D01*
X2244Y1840D01*
Y1685D01*
X2246Y1673D01*
X2253Y1663D01*
X2263Y1656D01*
X2275Y1654D01*
X2325D01*
X2337Y1656D01*
X2347Y1663D01*
X2354Y1673D01*
X2356Y1685D01*
Y1840D01*
X2354Y1852D01*
X2347Y1862D01*
X2339Y1867D01*
Y2064D01*
X2391Y2116D01*
X2403Y2115D01*
X2408Y2108D01*
X2423Y2097D01*
Y2088D01*
X2426Y2073D01*
X2435Y2061D01*
X2513Y1982D01*
X2526Y1973D01*
X2541Y1970D01*
X2709D01*
X2709Y1970D01*
X2724Y1967D01*
X2788D01*
X2811Y1944D01*
Y1480D01*
X2800Y1475D01*
X2798Y1476D01*
X2780Y1483D01*
X2760Y1486D01*
X2740Y1483D01*
X2722Y1476D01*
X2706Y1464D01*
X2695Y1449D01*
X2586D01*
X2548Y1487D01*
X2552Y1494D01*
X2555Y1498D01*
X2574Y1501D01*
X2592Y1508D01*
X2608Y1520D01*
X2620Y1536D01*
X2627Y1554D01*
X2630Y1574D01*
X2627Y1594D01*
X2620Y1612D01*
X2608Y1628D01*
X2593Y1639D01*
Y1658D01*
X2601Y1663D01*
X2608Y1673D01*
X2610Y1685D01*
Y1840D01*
X2608Y1852D01*
X2601Y1862D01*
X2591Y1869D01*
X2579Y1871D01*
X2529D01*
X2517Y1869D01*
X2507Y1862D01*
X2500Y1852D01*
X2498Y1840D01*
Y1685D01*
X2500Y1673D01*
X2507Y1663D01*
X2515Y1658D01*
Y1639D01*
X2500Y1628D01*
X2488Y1612D01*
X2481Y1594D01*
X2479Y1579D01*
X2466Y1579D01*
Y1658D01*
X2474Y1663D01*
X2481Y1673D01*
X2483Y1685D01*
Y1840D01*
X2481Y1852D01*
X2474Y1862D01*
X2464Y1869D01*
X2452Y1871D01*
X2402D01*
X2390Y1869D01*
X2380Y1862D01*
X2373Y1852D01*
X2371Y1840D01*
Y1685D01*
X2373Y1673D01*
X2380Y1663D01*
X2388Y1658D01*
Y1553D01*
X2391Y1538D01*
X2400Y1526D01*
X2543Y1383D01*
X2642Y1283D01*
Y1231D01*
X2629Y1231D01*
X2629Y1234D01*
X2627Y1246D01*
X2620Y1264D01*
X2608Y1280D01*
X2592Y1292D01*
X2574Y1299D01*
X2554Y1302D01*
X2534Y1299D01*
X2516Y1292D01*
X2500Y1280D01*
X2488Y1264D01*
X2481Y1246D01*
X2478Y1226D01*
X2481Y1206D01*
X2488Y1188D01*
X2500Y1172D01*
X2515Y1161D01*
Y1142D01*
X2507Y1137D01*
X2500Y1127D01*
X2498Y1115D01*
Y960D01*
X2500Y948D01*
X2507Y938D01*
X2517Y931D01*
X2529Y929D01*
X2579D01*
X2591Y931D01*
X2601Y938D01*
X2608Y948D01*
X2610Y960D01*
Y1115D01*
X2608Y1127D01*
X2601Y1137D01*
X2593Y1142D01*
Y1161D01*
X2608Y1172D01*
X2620Y1188D01*
X2627Y1206D01*
X2629Y1218D01*
X2629Y1221D01*
X2642Y1221D01*
Y1142D01*
X2634Y1137D01*
X2627Y1127D01*
X2625Y1115D01*
Y960D01*
X2627Y948D01*
X2634Y938D01*
X2644Y931D01*
X2656Y929D01*
X2706D01*
X2718Y931D01*
X2728Y938D01*
X2735Y948D01*
X2737Y960D01*
Y1115D01*
X2735Y1127D01*
X2728Y1137D01*
X2720Y1142D01*
Y1299D01*
X2717Y1314D01*
X2708Y1326D01*
X2676Y1359D01*
X2680Y1371D01*
X2695D01*
X2706Y1356D01*
X2722Y1344D01*
X2740Y1337D01*
X2760Y1334D01*
X2780Y1337D01*
X2798Y1344D01*
X2800Y1345D01*
X2811Y1340D01*
Y805D01*
X2796Y794D01*
X2784Y778D01*
X2777Y760D01*
X2774Y740D01*
X2777Y720D01*
X2784Y702D01*
X2796Y686D01*
X2812Y674D01*
X2830Y667D01*
X2850Y664D01*
X2870Y667D01*
X2888Y674D01*
X2904Y686D01*
X2916Y702D01*
X2923Y720D01*
X2926Y740D01*
X2923Y760D01*
X2916Y778D01*
X2904Y794D01*
X2889Y805D01*
Y1960D01*
X2886Y1975D01*
X2877Y1987D01*
X2856Y2009D01*
X2860Y2021D01*
X3286D01*
X3288Y2008D01*
X3282Y2006D01*
X3266Y1994D01*
X3254Y1978D01*
X3247Y1960D01*
X3244Y1940D01*
X3247Y1920D01*
X3254Y1902D01*
X3266Y1886D01*
X3276Y1878D01*
X3276Y1864D01*
X3272Y1862D01*
X3265Y1852D01*
X3263Y1840D01*
Y1685D01*
X3265Y1673D01*
X3272Y1663D01*
X3280Y1658D01*
Y1551D01*
X3283Y1536D01*
X3292Y1524D01*
X3534Y1281D01*
Y1231D01*
X3521Y1231D01*
X3521Y1234D01*
X3519Y1246D01*
X3512Y1264D01*
X3500Y1280D01*
X3484Y1292D01*
X3466Y1299D01*
X3446Y1302D01*
X3426Y1299D01*
X3408Y1292D01*
X3392Y1280D01*
X3380Y1264D01*
X3373Y1246D01*
X3370Y1226D01*
X3373Y1206D01*
X3380Y1188D01*
X3392Y1172D01*
X3407Y1161D01*
Y1142D01*
X3399Y1137D01*
X3392Y1127D01*
X3390Y1115D01*
Y960D01*
X3392Y948D01*
X3399Y938D01*
X3409Y931D01*
X3421Y929D01*
X3471D01*
X3483Y931D01*
X3493Y938D01*
X3500Y948D01*
X3502Y960D01*
Y1115D01*
X3500Y1127D01*
X3493Y1137D01*
X3485Y1142D01*
Y1161D01*
X3500Y1172D01*
X3512Y1188D01*
X3519Y1206D01*
X3521Y1218D01*
X3521Y1221D01*
X3534Y1221D01*
Y1142D01*
X3526Y1137D01*
X3519Y1127D01*
X3517Y1115D01*
Y960D01*
X3519Y948D01*
X3526Y938D01*
X3536Y931D01*
X3548Y929D01*
X3598D01*
X3610Y931D01*
X3620Y938D01*
X3627Y948D01*
X3629Y960D01*
Y1115D01*
X3627Y1127D01*
X3620Y1137D01*
X3612Y1142D01*
Y1297D01*
X3609Y1312D01*
X3600Y1324D01*
X3439Y1486D01*
X3445Y1498D01*
X3446Y1498D01*
X3466Y1501D01*
X3484Y1508D01*
X3500Y1520D01*
X3512Y1536D01*
X3519Y1554D01*
X3522Y1574D01*
X3519Y1594D01*
X3512Y1612D01*
X3500Y1628D01*
X3485Y1639D01*
Y1658D01*
X3493Y1663D01*
X3500Y1673D01*
X3502Y1685D01*
Y1840D01*
X3500Y1852D01*
X3493Y1862D01*
X3483Y1869D01*
X3471Y1871D01*
X3421D01*
X3409Y1869D01*
X3399Y1862D01*
X3392Y1852D01*
X3390Y1840D01*
Y1685D01*
X3392Y1673D01*
X3399Y1663D01*
X3407Y1658D01*
Y1639D01*
X3392Y1628D01*
X3380Y1612D01*
X3373Y1594D01*
X3371Y1579D01*
X3358Y1579D01*
Y1658D01*
X3366Y1663D01*
X3373Y1673D01*
X3375Y1685D01*
Y1840D01*
X3373Y1852D01*
X3366Y1862D01*
X3364Y1863D01*
X3364Y1864D01*
X3363Y1878D01*
X3374Y1886D01*
X3386Y1902D01*
X3393Y1920D01*
X3396Y1940D01*
X3393Y1960D01*
X3386Y1978D01*
X3374Y1994D01*
X3358Y2006D01*
X3352Y2008D01*
X3354Y2021D01*
X3460D01*
X3475Y2024D01*
X3487Y2033D01*
X3541Y2086D01*
X3558Y2089D01*
X3576Y2096D01*
X3592Y2108D01*
X3604Y2124D01*
X3611Y2142D01*
X3614Y2162D01*
X3611Y2182D01*
X3604Y2199D01*
X3609Y2210D01*
X3609Y2211D01*
X3719D01*
X3725Y2202D01*
X3726Y2199D01*
X3719Y2182D01*
X3716Y2162D01*
X3719Y2142D01*
X3726Y2124D01*
X3728Y2121D01*
X3723Y2110D01*
X3651D01*
X3636Y2107D01*
X3623Y2098D01*
X3546Y2020D01*
X3537Y2008D01*
X3534Y1993D01*
Y1867D01*
X3526Y1862D01*
X3519Y1852D01*
X3517Y1840D01*
Y1685D01*
X3519Y1673D01*
X3526Y1663D01*
X3536Y1656D01*
X3548Y1654D01*
X3598D01*
X3610Y1656D01*
X3620Y1663D01*
X3627Y1673D01*
X3629Y1685D01*
Y1840D01*
X3627Y1852D01*
X3620Y1862D01*
X3612Y1867D01*
Y1977D01*
X3667Y2032D01*
X3680D01*
X3685Y2020D01*
X3673Y2008D01*
X3665Y1996D01*
X3662Y1981D01*
Y1868D01*
X3653Y1862D01*
X3646Y1852D01*
X3644Y1840D01*
Y1685D01*
X3646Y1673D01*
X3653Y1663D01*
X3663Y1656D01*
X3675Y1654D01*
X3725D01*
X3737Y1656D01*
X3747Y1663D01*
X3754Y1673D01*
X3756Y1685D01*
Y1840D01*
X3754Y1852D01*
X3747Y1862D01*
X3740Y1867D01*
Y1965D01*
X3756Y1981D01*
X3820D01*
X3824Y1969D01*
X3800Y1944D01*
X3791Y1932D01*
X3788Y1917D01*
Y1867D01*
X3780Y1862D01*
X3773Y1852D01*
X3771Y1840D01*
Y1685D01*
X3773Y1673D01*
X3780Y1663D01*
X3788Y1658D01*
Y1553D01*
X3791Y1538D01*
X3800Y1526D01*
X4042Y1283D01*
Y1231D01*
X4029Y1231D01*
X4029Y1234D01*
X4027Y1246D01*
X4020Y1264D01*
X4008Y1280D01*
X3992Y1292D01*
X3974Y1299D01*
X3954Y1302D01*
X3934Y1299D01*
X3916Y1292D01*
X3900Y1280D01*
X3888Y1264D01*
X3881Y1246D01*
X3878Y1226D01*
X3881Y1206D01*
X3888Y1188D01*
X3900Y1172D01*
X3915Y1161D01*
Y1142D01*
X3907Y1137D01*
X3900Y1127D01*
X3898Y1115D01*
Y960D01*
X3900Y948D01*
X3907Y938D01*
X3917Y931D01*
X3929Y929D01*
X3979D01*
X3991Y931D01*
X4001Y938D01*
X4008Y948D01*
X4010Y960D01*
Y1115D01*
X4008Y1127D01*
X4001Y1137D01*
X3993Y1142D01*
Y1161D01*
X4008Y1172D01*
X4020Y1188D01*
X4027Y1206D01*
X4029Y1218D01*
X4029Y1221D01*
X4042Y1221D01*
Y1142D01*
X4034Y1137D01*
X4027Y1127D01*
X4025Y1115D01*
Y960D01*
X4027Y948D01*
X4034Y938D01*
X4044Y931D01*
X4056Y929D01*
X4106D01*
X4118Y931D01*
X4128Y938D01*
X4135Y948D01*
X4137Y960D01*
Y1115D01*
X4135Y1127D01*
X4128Y1137D01*
X4120Y1142D01*
Y1299D01*
X4117Y1314D01*
X4108Y1326D01*
X3948Y1487D01*
X3952Y1494D01*
X3955Y1498D01*
X3974Y1501D01*
X3992Y1508D01*
X4008Y1520D01*
X4020Y1536D01*
X4027Y1554D01*
X4030Y1574D01*
X4027Y1594D01*
X4020Y1612D01*
X4008Y1628D01*
X3993Y1639D01*
Y1658D01*
X4001Y1663D01*
X4008Y1673D01*
X4010Y1685D01*
Y1840D01*
X4008Y1852D01*
X4001Y1862D01*
X3991Y1869D01*
X3979Y1871D01*
X3929D01*
X3917Y1869D01*
X3907Y1862D01*
X3900Y1852D01*
X3898Y1840D01*
Y1685D01*
X3900Y1673D01*
X3907Y1663D01*
X3915Y1658D01*
Y1639D01*
X3900Y1628D01*
X3888Y1612D01*
X3881Y1594D01*
X3879Y1579D01*
X3866Y1579D01*
Y1658D01*
X3874Y1663D01*
X3881Y1673D01*
X3883Y1685D01*
Y1840D01*
X3881Y1852D01*
X3874Y1862D01*
X3866Y1867D01*
Y1901D01*
X3886Y1921D01*
X4310D01*
X4325Y1924D01*
X4337Y1933D01*
X4440Y2035D01*
X4624D01*
X4639Y2038D01*
X4651Y2046D01*
X4687Y2083D01*
X4696Y2095D01*
X4699Y2110D01*
Y2200D01*
X4696Y2215D01*
X4687Y2227D01*
X4677Y2238D01*
X4682Y2250D01*
X4798D01*
X4799Y2237D01*
X4788Y2235D01*
X4770Y2228D01*
X4754Y2216D01*
X4742Y2200D01*
X4735Y2182D01*
X4732Y2162D01*
X4735Y2142D01*
X4742Y2124D01*
X4754Y2108D01*
X4770Y2096D01*
X4788Y2089D01*
X4808Y2086D01*
X4828Y2089D01*
X4846Y2096D01*
X4862Y2108D01*
X4874Y2124D01*
X4881Y2142D01*
X4884Y2162D01*
X4881Y2182D01*
X4874Y2200D01*
X4862Y2216D01*
X4846Y2228D01*
X4828Y2235D01*
X4817Y2237D01*
X4818Y2250D01*
X5052D01*
X5053Y2237D01*
X5042Y2235D01*
X5024Y2228D01*
X5008Y2216D01*
X4997Y2201D01*
X4992D01*
X4977Y2198D01*
X4965Y2189D01*
X4714Y1939D01*
X4470D01*
X4455Y1936D01*
X4443Y1927D01*
X4283Y1767D01*
X4274Y1755D01*
X4271Y1740D01*
Y975D01*
X4256Y964D01*
X4244Y948D01*
X4237Y930D01*
X4234Y910D01*
X4237Y890D01*
X4244Y872D01*
X4256Y856D01*
X4272Y844D01*
X4290Y837D01*
X4310Y834D01*
X4330Y837D01*
X4348Y844D01*
X4364Y856D01*
X4376Y872D01*
X4383Y890D01*
X4386Y910D01*
X4383Y930D01*
X4376Y948D01*
X4364Y964D01*
X4349Y975D01*
Y1358D01*
X4362Y1362D01*
X4366Y1356D01*
X4382Y1344D01*
X4400Y1337D01*
X4420Y1334D01*
X4440Y1337D01*
X4458Y1344D01*
X4474Y1356D01*
X4485Y1371D01*
X4644D01*
X4734Y1281D01*
Y1231D01*
X4721Y1231D01*
X4721Y1234D01*
X4719Y1246D01*
X4712Y1264D01*
X4700Y1280D01*
X4684Y1292D01*
X4666Y1299D01*
X4646Y1302D01*
X4626Y1299D01*
X4608Y1292D01*
X4592Y1280D01*
X4580Y1264D01*
X4573Y1246D01*
X4570Y1226D01*
X4573Y1206D01*
X4580Y1188D01*
X4592Y1172D01*
X4607Y1161D01*
Y1142D01*
X4599Y1137D01*
X4592Y1127D01*
X4590Y1115D01*
Y960D01*
X4592Y948D01*
X4599Y938D01*
X4609Y931D01*
X4621Y929D01*
X4671D01*
X4683Y931D01*
X4693Y938D01*
X4700Y948D01*
X4702Y960D01*
Y1115D01*
X4700Y1127D01*
X4693Y1137D01*
X4685Y1142D01*
Y1161D01*
X4700Y1172D01*
X4712Y1188D01*
X4719Y1206D01*
X4721Y1218D01*
X4721Y1221D01*
X4734Y1221D01*
Y1142D01*
X4726Y1137D01*
X4719Y1127D01*
X4717Y1115D01*
Y960D01*
X4719Y948D01*
X4726Y938D01*
X4736Y931D01*
X4748Y929D01*
X4798D01*
X4810Y931D01*
X4820Y938D01*
X4827Y948D01*
X4829Y960D01*
Y1115D01*
X4827Y1127D01*
X4820Y1137D01*
X4812Y1142D01*
Y1297D01*
X4809Y1312D01*
X4800Y1324D01*
X4687Y1437D01*
X4637Y1488D01*
X4642Y1500D01*
X4646Y1500D01*
X4666Y1503D01*
X4684Y1510D01*
X4700Y1522D01*
X4712Y1538D01*
X4719Y1556D01*
X4722Y1576D01*
X4719Y1596D01*
X4712Y1614D01*
X4700Y1630D01*
X4685Y1641D01*
Y1658D01*
X4693Y1663D01*
X4700Y1673D01*
X4702Y1685D01*
Y1840D01*
X4710Y1849D01*
X4717Y1840D01*
X4717Y1839D01*
Y1685D01*
X4719Y1673D01*
X4726Y1663D01*
X4736Y1656D01*
X4748Y1654D01*
X4798D01*
X4810Y1656D01*
X4820Y1663D01*
X4827Y1673D01*
X4829Y1685D01*
Y1840D01*
X4827Y1852D01*
X4820Y1862D01*
X4820Y1863D01*
X4849Y1893D01*
X4861Y1888D01*
Y1867D01*
X4853Y1862D01*
X4846Y1852D01*
X4844Y1840D01*
Y1685D01*
X4846Y1673D01*
X4853Y1663D01*
X4863Y1656D01*
X4875Y1654D01*
X4925D01*
X4937Y1656D01*
X4947Y1663D01*
X4954Y1673D01*
X4956Y1685D01*
Y1840D01*
X4954Y1852D01*
X4947Y1862D01*
X4939Y1867D01*
Y1905D01*
X4944Y1909D01*
X4946Y1909D01*
X4959Y1905D01*
X4964Y1892D01*
X4976Y1876D01*
X4980Y1873D01*
X4980Y1862D01*
X4973Y1852D01*
X4971Y1840D01*
Y1685D01*
X4973Y1673D01*
X4980Y1663D01*
X4988Y1658D01*
Y1553D01*
X4991Y1538D01*
X5000Y1526D01*
X5242Y1283D01*
Y1231D01*
X5229Y1231D01*
X5229Y1234D01*
X5227Y1246D01*
X5220Y1264D01*
X5208Y1280D01*
X5192Y1292D01*
X5174Y1299D01*
X5154Y1302D01*
X5134Y1299D01*
X5116Y1292D01*
X5100Y1280D01*
X5088Y1264D01*
X5081Y1246D01*
X5078Y1226D01*
X5081Y1206D01*
X5088Y1188D01*
X5100Y1172D01*
X5115Y1161D01*
Y1142D01*
X5107Y1137D01*
X5100Y1127D01*
X5098Y1115D01*
Y960D01*
X5100Y948D01*
X5107Y938D01*
X5117Y931D01*
X5129Y929D01*
X5179D01*
X5191Y931D01*
X5201Y938D01*
X5208Y948D01*
X5210Y960D01*
Y1115D01*
X5208Y1127D01*
X5201Y1137D01*
X5193Y1142D01*
Y1161D01*
X5208Y1172D01*
X5220Y1188D01*
X5227Y1206D01*
X5229Y1218D01*
X5229Y1221D01*
X5242Y1221D01*
Y1142D01*
X5234Y1137D01*
X5227Y1127D01*
X5225Y1115D01*
Y960D01*
X5227Y948D01*
X5234Y938D01*
X5244Y931D01*
X5256Y929D01*
X5306D01*
X5318Y931D01*
X5328Y938D01*
X5335Y948D01*
X5337Y960D01*
Y1115D01*
X5335Y1127D01*
X5328Y1137D01*
X5320Y1142D01*
Y1299D01*
X5317Y1314D01*
X5308Y1326D01*
X5147Y1488D01*
X5153Y1500D01*
X5154Y1500D01*
X5174Y1503D01*
X5192Y1510D01*
X5208Y1522D01*
X5220Y1538D01*
X5227Y1556D01*
X5230Y1576D01*
X5227Y1596D01*
X5220Y1614D01*
X5208Y1630D01*
X5193Y1641D01*
Y1658D01*
X5201Y1663D01*
X5208Y1673D01*
X5210Y1685D01*
Y1840D01*
X5208Y1852D01*
X5201Y1862D01*
X5191Y1869D01*
X5179Y1871D01*
X5129D01*
X5117Y1869D01*
X5107Y1862D01*
X5100Y1852D01*
X5098Y1840D01*
Y1685D01*
X5100Y1673D01*
X5107Y1663D01*
X5115Y1658D01*
Y1641D01*
X5100Y1630D01*
X5088Y1614D01*
X5081Y1596D01*
X5079Y1581D01*
X5066Y1581D01*
Y1658D01*
X5074Y1663D01*
X5081Y1673D01*
X5083Y1685D01*
Y1840D01*
X5081Y1852D01*
X5074Y1862D01*
X5074Y1868D01*
X5084Y1876D01*
X5096Y1892D01*
X5103Y1910D01*
X5106Y1930D01*
X5103Y1950D01*
X5096Y1968D01*
X5095Y1970D01*
X5100Y1981D01*
X5678D01*
X5682Y1968D01*
X5676Y1964D01*
X5664Y1948D01*
X5657Y1930D01*
X5654Y1910D01*
X5657Y1890D01*
X5664Y1872D01*
X5676Y1856D01*
X5692Y1844D01*
X5710Y1837D01*
X5730Y1834D01*
X5750Y1837D01*
X5768Y1844D01*
X5784Y1856D01*
X5795Y1871D01*
X5863D01*
X5872Y1862D01*
X5865Y1852D01*
X5863Y1840D01*
Y1685D01*
X5865Y1673D01*
X5872Y1663D01*
X5880Y1658D01*
Y1551D01*
X5883Y1536D01*
X5892Y1524D01*
X6134Y1281D01*
Y1231D01*
X6121Y1231D01*
X6121Y1234D01*
X6119Y1246D01*
X6112Y1264D01*
X6100Y1280D01*
X6084Y1292D01*
X6066Y1299D01*
X6046Y1302D01*
X6026Y1299D01*
X6008Y1292D01*
X5992Y1280D01*
X5980Y1264D01*
X5973Y1246D01*
X5970Y1226D01*
X5973Y1206D01*
X5980Y1188D01*
X5992Y1172D01*
X6007Y1161D01*
Y1142D01*
X5999Y1137D01*
X5992Y1127D01*
X5990Y1115D01*
Y960D01*
X5992Y948D01*
X5999Y938D01*
X6009Y931D01*
X6021Y929D01*
X6071D01*
X6083Y931D01*
X6093Y938D01*
X6100Y948D01*
X6102Y960D01*
Y1115D01*
X6100Y1127D01*
X6093Y1137D01*
X6085Y1142D01*
Y1161D01*
X6100Y1172D01*
X6112Y1188D01*
X6119Y1206D01*
X6121Y1218D01*
X6121Y1221D01*
X6134Y1221D01*
Y1142D01*
X6126Y1137D01*
X6119Y1127D01*
X6117Y1115D01*
Y960D01*
X6119Y948D01*
X6126Y938D01*
X6136Y931D01*
X6148Y929D01*
X6198D01*
X6210Y931D01*
X6220Y938D01*
X6227Y948D01*
X6229Y960D01*
Y1115D01*
X6227Y1127D01*
X6220Y1137D01*
X6212Y1142D01*
Y1297D01*
X6209Y1312D01*
X6200Y1324D01*
X6037Y1488D01*
X6042Y1500D01*
X6046Y1500D01*
X6066Y1503D01*
X6084Y1510D01*
X6100Y1522D01*
X6112Y1538D01*
X6119Y1556D01*
X6122Y1576D01*
X6119Y1596D01*
X6112Y1614D01*
X6100Y1630D01*
X6085Y1641D01*
Y1658D01*
X6093Y1663D01*
X6100Y1673D01*
X6102Y1685D01*
Y1840D01*
X6100Y1852D01*
X6093Y1862D01*
X6083Y1869D01*
X6071Y1871D01*
X6021D01*
X6009Y1869D01*
X5999Y1862D01*
X5992Y1852D01*
X5990Y1840D01*
Y1685D01*
X5992Y1673D01*
X5999Y1663D01*
X6007Y1658D01*
Y1641D01*
X5992Y1630D01*
X5980Y1614D01*
X5973Y1596D01*
X5971Y1581D01*
X5958Y1581D01*
Y1658D01*
X5966Y1663D01*
X5973Y1673D01*
X5975Y1685D01*
Y1840D01*
X5973Y1852D01*
X5966Y1862D01*
X5958Y1867D01*
Y1871D01*
X5955Y1886D01*
X5946Y1898D01*
X5907Y1937D01*
X5895Y1946D01*
X5880Y1949D01*
X5795D01*
X5784Y1964D01*
X5778Y1968D01*
X5782Y1981D01*
X6134D01*
X6143Y1968D01*
X6141Y1960D01*
Y1870D01*
X6136Y1869D01*
X6126Y1862D01*
X6119Y1852D01*
X6117Y1840D01*
Y1685D01*
X6119Y1673D01*
X6126Y1663D01*
X6136Y1656D01*
X6148Y1654D01*
X6198D01*
X6210Y1656D01*
X6220Y1663D01*
X6227Y1673D01*
X6229Y1685D01*
Y1840D01*
X6227Y1852D01*
X6220Y1862D01*
X6219Y1863D01*
Y1930D01*
X6819D01*
X6824Y1919D01*
X6763Y1857D01*
X6754Y1845D01*
X6751Y1830D01*
Y1286D01*
X6724Y1259D01*
X6330D01*
X6315Y1256D01*
X6303Y1247D01*
X6273Y1217D01*
X6264Y1205D01*
X6261Y1190D01*
Y1142D01*
X6253Y1137D01*
X6246Y1127D01*
X6244Y1115D01*
Y960D01*
X6246Y948D01*
X6253Y938D01*
X6263Y931D01*
X6275Y929D01*
X6325D01*
X6337Y931D01*
X6347Y938D01*
X6354Y948D01*
X6356Y960D01*
Y1115D01*
X6354Y1127D01*
X6347Y1137D01*
X6339Y1142D01*
Y1174D01*
X6346Y1181D01*
X6740D01*
X6755Y1184D01*
X6767Y1193D01*
X6817Y1243D01*
X6826Y1255D01*
X6829Y1270D01*
Y1814D01*
X6894Y1880D01*
X6963D01*
X6978Y1883D01*
X6990Y1891D01*
X7001Y1901D01*
X7011Y1895D01*
X7011Y1894D01*
X7009Y1875D01*
X7012Y1855D01*
X7019Y1837D01*
X7031Y1821D01*
X7047Y1809D01*
X7065Y1802D01*
X7085Y1799D01*
X7105Y1802D01*
X7123Y1809D01*
X7132Y1816D01*
X7145Y1810D01*
Y1810D01*
X7149Y1788D01*
X7162Y1770D01*
X7180Y1758D01*
X7201Y1754D01*
X7223Y1758D01*
X7241Y1770D01*
X7254Y1788D01*
X7258Y1810D01*
Y1940D01*
X7254Y1962D01*
X7247Y1972D01*
X7254Y1984D01*
X7276D01*
X7283Y1972D01*
X7276Y1962D01*
X7272Y1940D01*
Y1810D01*
X7276Y1788D01*
X7289Y1770D01*
X7291Y1768D01*
Y1495D01*
X7276Y1484D01*
X7264Y1468D01*
X7257Y1450D01*
X7254Y1430D01*
X7257Y1410D01*
X7264Y1392D01*
X7276Y1376D01*
X7292Y1364D01*
X7310Y1357D01*
X7330Y1354D01*
X7350Y1357D01*
X7368Y1364D01*
X7384Y1376D01*
X7396Y1392D01*
X7403Y1410D01*
X7406Y1430D01*
X7403Y1450D01*
X7396Y1468D01*
X7384Y1484D01*
X7369Y1495D01*
Y1771D01*
X7381Y1788D01*
X7385Y1810D01*
Y1940D01*
X7381Y1962D01*
X7374Y1972D01*
X7381Y1984D01*
X7403D01*
X7410Y1972D01*
X7403Y1962D01*
X7399Y1940D01*
Y1810D01*
X7403Y1788D01*
X7416Y1770D01*
X7421Y1766D01*
Y1745D01*
X7406Y1734D01*
X7394Y1718D01*
X7387Y1700D01*
X7384Y1680D01*
X7387Y1660D01*
X7394Y1642D01*
X7406Y1626D01*
X7422Y1614D01*
X7440Y1607D01*
X7460Y1604D01*
X7480Y1607D01*
X7498Y1614D01*
X7514Y1626D01*
X7526Y1642D01*
X7533Y1660D01*
X7536Y1680D01*
X7533Y1700D01*
X7526Y1718D01*
X7514Y1734D01*
X7499Y1745D01*
Y1775D01*
X7508Y1788D01*
X7512Y1810D01*
Y1940D01*
X7508Y1962D01*
X7501Y1972D01*
X7508Y1984D01*
X7530D01*
X7537Y1972D01*
X7530Y1962D01*
X7526Y1940D01*
Y1888D01*
X7639D01*
Y1940D01*
X7635Y1962D01*
X7628Y1972D01*
X7635Y1984D01*
X7657D01*
X7664Y1972D01*
X7657Y1962D01*
X7653Y1940D01*
Y1810D01*
X7657Y1788D01*
X7670Y1770D01*
X7688Y1758D01*
X7710Y1754D01*
X7731Y1758D01*
X7749Y1770D01*
X7762Y1788D01*
X7766Y1810D01*
Y1940D01*
X7762Y1962D01*
X7755Y1972D01*
X7756Y1976D01*
X7761Y1985D01*
X7772Y1987D01*
X7785Y1996D01*
X7824Y2035D01*
X8374D01*
X8389Y2038D01*
X8401Y2046D01*
X8443Y2088D01*
X8462Y2086D01*
X8482Y2089D01*
X8500Y2096D01*
X8516Y2108D01*
X8528Y2124D01*
X8535Y2142D01*
X8538Y2162D01*
X8535Y2182D01*
X8528Y2200D01*
X8516Y2216D01*
X8500Y2228D01*
X8482Y2235D01*
X8462Y2238D01*
X8442Y2235D01*
X8424Y2228D01*
X8408Y2216D01*
X8396Y2200D01*
X8389Y2182D01*
X8386Y2162D01*
X8388Y2143D01*
X8358Y2113D01*
X8279D01*
X8279Y2114D01*
X8274Y2125D01*
X8281Y2142D01*
X8284Y2162D01*
X8281Y2182D01*
X8274Y2200D01*
X8262Y2216D01*
X8246Y2228D01*
X8228Y2235D01*
X8208Y2238D01*
X8188Y2235D01*
X8170Y2228D01*
X8154Y2216D01*
X8142Y2200D01*
X8135Y2182D01*
X8132Y2162D01*
X8135Y2142D01*
X8142Y2125D01*
X8137Y2114D01*
X8137Y2113D01*
X8025D01*
X8025Y2114D01*
X8020Y2125D01*
X8027Y2142D01*
X8030Y2162D01*
X8027Y2182D01*
X8020Y2200D01*
X8008Y2216D01*
X7992Y2228D01*
X7974Y2235D01*
X7954Y2238D01*
X7934Y2235D01*
X7916Y2228D01*
X7900Y2216D01*
X7889Y2201D01*
X7825D01*
X7810Y2198D01*
X7797Y2189D01*
X7785Y2178D01*
X7784Y2178D01*
X7773Y2183D01*
X7766Y2200D01*
X7754Y2216D01*
X7738Y2228D01*
X7720Y2235D01*
X7700Y2238D01*
X7680Y2235D01*
X7662Y2228D01*
X7646Y2216D01*
X7636Y2203D01*
X7623Y2202D01*
X7589Y2236D01*
Y2490D01*
X7586Y2505D01*
X7577Y2518D01*
X7559Y2536D01*
X7564Y2548D01*
X8547D01*
X8560Y2535D01*
Y1981D01*
X8559Y1980D01*
X8546Y1962D01*
X8542Y1940D01*
Y1810D01*
X8546Y1788D01*
X8559Y1770D01*
X8577Y1758D01*
X8599Y1754D01*
X8620Y1758D01*
X8638Y1770D01*
X8651Y1788D01*
X8655Y1810D01*
Y1940D01*
X8651Y1962D01*
X8638Y1980D01*
X8637Y1981D01*
Y2551D01*
X8634Y2566D01*
X8626Y2579D01*
X8618Y2586D01*
X8623Y2598D01*
X8846D01*
X8847Y2590D01*
X8854Y2572D01*
X8866Y2556D01*
X8882Y2544D01*
X8900Y2537D01*
X8903Y2536D01*
X8911Y2522D01*
X8907Y2512D01*
X8904Y2493D01*
Y2033D01*
X8880D01*
Y1917D01*
X8704Y1741D01*
X8692Y1725D01*
X8688Y1705D01*
Y1351D01*
X8658Y1321D01*
X8299D01*
X8280Y1325D01*
X8064D01*
X8044Y1321D01*
X8043Y1321D01*
X8034Y1330D01*
X8036Y1332D01*
X8043Y1350D01*
X8046Y1370D01*
X8043Y1390D01*
X8036Y1408D01*
X8024Y1424D01*
X8009Y1435D01*
Y1778D01*
X8016Y1788D01*
X8020Y1810D01*
Y1940D01*
X8016Y1962D01*
X8003Y1980D01*
X7985Y1992D01*
X7964Y1996D01*
X7942Y1992D01*
X7924Y1980D01*
X7911Y1962D01*
X7907Y1940D01*
Y1810D01*
X7911Y1788D01*
X7924Y1770D01*
X7931Y1765D01*
Y1435D01*
X7916Y1424D01*
X7904Y1408D01*
X7897Y1390D01*
X7894Y1370D01*
X7897Y1350D01*
X7904Y1332D01*
X7916Y1316D01*
X7932Y1304D01*
X7950Y1297D01*
X7970Y1294D01*
X7990Y1297D01*
X8000Y1301D01*
X8008Y1290D01*
X7800Y1083D01*
X7789Y1066D01*
X7785Y1047D01*
Y1013D01*
X7784Y1012D01*
X7780Y990D01*
Y860D01*
X7784Y838D01*
X7797Y820D01*
X7815Y808D01*
X7836Y804D01*
X7858Y808D01*
X7876Y820D01*
X7889Y838D01*
X7893Y860D01*
Y990D01*
X7889Y1012D01*
X7888Y1013D01*
Y1025D01*
X7912Y1049D01*
X7915Y1049D01*
X7925Y1035D01*
X7925Y1034D01*
Y1031D01*
X7924Y1030D01*
X7911Y1012D01*
X7907Y990D01*
Y860D01*
X7911Y838D01*
X7924Y820D01*
X7942Y808D01*
X7964Y804D01*
X7985Y808D01*
X8003Y820D01*
X8016Y838D01*
X8020Y860D01*
Y990D01*
X8016Y1012D01*
X8009Y1021D01*
X8017Y1031D01*
X8036D01*
X8043Y1018D01*
X8038Y1012D01*
X8034Y990D01*
Y860D01*
X8038Y838D01*
X8051Y820D01*
X8052Y819D01*
Y813D01*
X8051Y810D01*
X8054Y795D01*
X8063Y783D01*
X8064Y781D01*
X8060Y769D01*
X7650D01*
X7635Y766D01*
X7623Y757D01*
X7573Y707D01*
X7564Y695D01*
X7561Y680D01*
Y266D01*
X7546Y251D01*
X7001D01*
X7001Y252D01*
X6996Y263D01*
X7003Y280D01*
X7006Y300D01*
X7003Y320D01*
X6996Y338D01*
X6984Y354D01*
X6977Y359D01*
Y573D01*
X6992Y584D01*
X7003Y599D01*
X7048D01*
X7063Y602D01*
X7075Y611D01*
X7104Y639D01*
X7117Y634D01*
X7119Y618D01*
X7126Y600D01*
X7138Y584D01*
X7154Y572D01*
X7161Y569D01*
Y425D01*
X7146Y414D01*
X7134Y398D01*
X7127Y380D01*
X7124Y360D01*
X7127Y340D01*
X7134Y322D01*
X7146Y306D01*
X7162Y294D01*
X7180Y287D01*
X7200Y284D01*
X7220Y287D01*
X7238Y294D01*
X7254Y306D01*
X7266Y322D01*
X7273Y340D01*
X7276Y360D01*
X7273Y380D01*
X7266Y398D01*
X7254Y414D01*
X7239Y425D01*
Y579D01*
X7246Y584D01*
X7257Y599D01*
X7318D01*
X7333Y602D01*
X7345Y611D01*
X7360Y625D01*
X7372Y621D01*
X7373Y618D01*
X7380Y600D01*
X7392Y584D01*
X7404Y575D01*
Y463D01*
X7389Y451D01*
X7377Y436D01*
X7370Y417D01*
X7367Y398D01*
X7370Y378D01*
X7377Y360D01*
X7389Y344D01*
X7405Y332D01*
X7423Y324D01*
X7443Y321D01*
X7463Y324D01*
X7481Y332D01*
X7497Y344D01*
X7509Y360D01*
X7517Y378D01*
X7519Y398D01*
X7517Y417D01*
X7509Y436D01*
X7497Y451D01*
X7482Y463D01*
Y571D01*
X7484Y572D01*
X7500Y584D01*
X7512Y600D01*
X7519Y618D01*
X7522Y638D01*
X7519Y658D01*
X7512Y676D01*
X7500Y692D01*
X7494Y696D01*
Y819D01*
X7495Y820D01*
X7508Y838D01*
X7512Y860D01*
Y990D01*
X7510Y999D01*
X7519Y1010D01*
X7528Y999D01*
X7526Y990D01*
Y860D01*
X7530Y838D01*
X7543Y820D01*
X7561Y808D01*
X7582Y804D01*
X7604Y808D01*
X7622Y820D01*
X7635Y838D01*
X7639Y860D01*
Y990D01*
X7635Y1012D01*
X7622Y1030D01*
X7621Y1031D01*
Y1038D01*
X7618Y1052D01*
X7610Y1065D01*
X7589Y1086D01*
X7577Y1094D01*
X7562Y1097D01*
X7173D01*
X7158Y1094D01*
X7146Y1086D01*
X7106Y1046D01*
X7098Y1033D01*
X7095Y1018D01*
Y739D01*
X7032Y677D01*
X7003D01*
X6992Y692D01*
X6976Y704D01*
X6958Y711D01*
X6938Y714D01*
X6918Y711D01*
X6900Y704D01*
X6884Y692D01*
X6872Y676D01*
X6865Y658D01*
X6862Y638D01*
X6865Y618D01*
X6872Y600D01*
X6884Y584D01*
X6899Y573D01*
Y369D01*
X6892Y366D01*
X6876Y354D01*
X6864Y338D01*
X6857Y320D01*
X6854Y300D01*
X6857Y280D01*
X6864Y263D01*
X6859Y252D01*
X6859Y251D01*
X5324D01*
X5240Y335D01*
Y696D01*
X5237Y710D01*
X5228Y723D01*
X5147Y804D01*
X5134Y813D01*
X5120Y816D01*
X5099D01*
X5066Y849D01*
Y933D01*
X5074Y938D01*
X5081Y948D01*
X5083Y960D01*
Y1115D01*
X5081Y1127D01*
X5074Y1137D01*
X5064Y1144D01*
X5052Y1146D01*
X5002D01*
X4990Y1144D01*
X4980Y1137D01*
X4973Y1127D01*
X4971Y1115D01*
Y960D01*
X4973Y948D01*
X4980Y938D01*
X4988Y933D01*
Y833D01*
X4985Y829D01*
X4946D01*
X4939Y836D01*
Y933D01*
X4947Y938D01*
X4954Y948D01*
X4956Y960D01*
Y1115D01*
X4954Y1127D01*
X4947Y1137D01*
X4937Y1144D01*
X4925Y1146D01*
X4875D01*
X4863Y1144D01*
X4853Y1137D01*
X4846Y1127D01*
X4844Y1115D01*
Y960D01*
X4846Y948D01*
X4853Y938D01*
X4861Y933D01*
Y820D01*
X4864Y805D01*
X4873Y793D01*
X4884Y781D01*
X4880Y769D01*
X4366D01*
X4325Y810D01*
X4313Y818D01*
X4298Y821D01*
X3901D01*
X3897Y834D01*
X3903Y850D01*
X3906Y870D01*
X3903Y890D01*
X3896Y908D01*
X3884Y924D01*
X3874Y932D01*
X3874Y938D01*
X3881Y948D01*
X3883Y960D01*
Y1115D01*
X3881Y1127D01*
X3874Y1137D01*
X3864Y1144D01*
X3852Y1146D01*
X3802D01*
X3790Y1144D01*
X3780Y1137D01*
X3773Y1127D01*
X3771Y1115D01*
Y960D01*
X3773Y948D01*
X3780Y938D01*
X3780Y927D01*
X3776Y924D01*
X3764Y908D01*
X3757Y890D01*
X3754Y870D01*
X3757Y850D01*
X3760Y843D01*
X3752Y828D01*
X3748Y827D01*
X3739Y836D01*
Y933D01*
X3747Y938D01*
X3754Y948D01*
X3756Y960D01*
Y1115D01*
X3754Y1127D01*
X3747Y1137D01*
X3737Y1144D01*
X3725Y1146D01*
X3675D01*
X3663Y1144D01*
X3653Y1137D01*
X3646Y1127D01*
X3644Y1115D01*
Y960D01*
X3646Y948D01*
X3653Y938D01*
X3661Y933D01*
Y820D01*
X3664Y805D01*
X3673Y793D01*
X3688Y777D01*
X3684Y765D01*
X3502D01*
X3487Y762D01*
X3474Y754D01*
X3359Y639D01*
X2646D01*
X2466Y819D01*
Y933D01*
X2474Y938D01*
X2481Y948D01*
X2483Y960D01*
Y1115D01*
X2481Y1127D01*
X2474Y1137D01*
X2464Y1144D01*
X2452Y1146D01*
X2402D01*
X2390Y1144D01*
X2380Y1137D01*
X2373Y1127D01*
X2371Y1115D01*
Y1051D01*
X2358Y1044D01*
X2356Y1046D01*
Y1115D01*
X2354Y1127D01*
X2347Y1137D01*
X2337Y1144D01*
X2325Y1146D01*
X2275D01*
X2263Y1144D01*
X2253Y1137D01*
X2246Y1127D01*
X2244Y1115D01*
Y960D01*
X2246Y948D01*
X2253Y938D01*
X2263Y931D01*
X2275Y929D01*
X2311D01*
Y815D01*
X2296Y804D01*
X2284Y788D01*
X2277Y770D01*
X2276Y767D01*
X2263Y761D01*
X2255Y766D01*
X2241Y769D01*
X1768D01*
X1730Y807D01*
X1718Y815D01*
X1703Y818D01*
X1287D01*
X1270Y835D01*
Y935D01*
X1274Y938D01*
X1281Y948D01*
X1283Y960D01*
Y1115D01*
X1281Y1127D01*
X1274Y1137D01*
X1264Y1144D01*
X1252Y1146D01*
X1202D01*
X1190Y1144D01*
X1180Y1137D01*
X1173Y1127D01*
X1171Y1115D01*
Y960D01*
X1173Y948D01*
X1180Y938D01*
X1190Y931D01*
X1192Y931D01*
Y819D01*
X1195Y804D01*
X1203Y792D01*
X1216Y779D01*
X1211Y767D01*
X1188D01*
X1139Y816D01*
Y933D01*
X1147Y938D01*
X1154Y948D01*
X1156Y960D01*
Y1115D01*
X1154Y1127D01*
X1147Y1137D01*
X1137Y1144D01*
X1125Y1146D01*
X1075D01*
X1063Y1144D01*
X1053Y1137D01*
X1046Y1127D01*
X1044Y1115D01*
Y960D01*
X1046Y948D01*
X1053Y938D01*
X1061Y933D01*
Y800D01*
X1064Y785D01*
X1073Y773D01*
X1138Y707D01*
X1138Y692D01*
X1137Y690D01*
X1126Y676D01*
X1119Y658D01*
X1116Y638D01*
X1119Y618D01*
X1126Y600D01*
X1138Y584D01*
X1154Y572D01*
X1172Y565D01*
X1192Y562D01*
X1212Y565D01*
X1230Y572D01*
X1246Y584D01*
X1258Y600D01*
X1265Y618D01*
X1268Y638D01*
X1265Y658D01*
X1258Y676D01*
X1256Y678D01*
X1262Y690D01*
X1376D01*
X1382Y678D01*
X1380Y676D01*
X1373Y658D01*
X1370Y638D01*
X1373Y618D01*
X1380Y600D01*
X1392Y584D01*
X1408Y572D01*
X1426Y565D01*
X1446Y562D01*
X1466Y565D01*
X1484Y572D01*
X1500Y584D01*
X1512Y600D01*
X1519Y618D01*
X1522Y638D01*
X1519Y658D01*
X1512Y676D01*
X1510Y678D01*
X1516Y690D01*
X1630D01*
X1636Y678D01*
X1634Y676D01*
X1627Y658D01*
X1624Y638D01*
X1627Y618D01*
X1634Y600D01*
X1646Y584D01*
X1662Y572D01*
X1680Y565D01*
X1700Y562D01*
X1720Y565D01*
X1738Y572D01*
X1754Y584D01*
X1766Y600D01*
X1773Y618D01*
X1776Y638D01*
X1773Y658D01*
X1766Y676D01*
X1763Y680D01*
X1769Y691D01*
X1885D01*
X1891Y680D01*
X1888Y676D01*
X1881Y658D01*
X1878Y638D01*
X1881Y618D01*
X1888Y600D01*
X1900Y584D01*
X1916Y572D01*
X1934Y565D01*
X1954Y562D01*
X1974Y565D01*
X1992Y572D01*
X2008Y584D01*
X2020Y600D01*
X2027Y618D01*
X2030Y638D01*
X2027Y658D01*
X2020Y676D01*
X2017Y680D01*
X2023Y691D01*
X2139D01*
X2145Y680D01*
X2142Y676D01*
X2135Y658D01*
X2132Y638D01*
X2135Y618D01*
X2142Y600D01*
X2154Y584D01*
X2170Y572D01*
X2188Y565D01*
X2208Y562D01*
X2228Y565D01*
X2246Y572D01*
X2262Y584D01*
X2274Y600D01*
X2281Y617D01*
X2292Y622D01*
X2293Y622D01*
X2303Y613D01*
X2316Y604D01*
X2331Y601D01*
X2396D01*
X2396Y600D01*
X2408Y584D01*
X2424Y572D01*
X2442Y565D01*
X2462Y562D01*
X2482Y565D01*
X2500Y572D01*
X2516Y584D01*
X2528Y600D01*
X2535Y618D01*
X2536Y623D01*
X2548Y627D01*
X2603Y573D01*
X2615Y564D01*
X2630Y561D01*
X3375D01*
X3390Y564D01*
X3403Y573D01*
X3453Y622D01*
X3454Y622D01*
X3465Y617D01*
X3472Y600D01*
X3484Y584D01*
X3500Y572D01*
X3501Y572D01*
Y335D01*
X3486Y324D01*
X3474Y308D01*
X3467Y290D01*
X3464Y270D01*
X3467Y250D01*
X3474Y232D01*
X3486Y216D01*
X3502Y204D01*
X3520Y197D01*
X3540Y194D01*
X3560Y197D01*
X3578Y204D01*
X3594Y216D01*
X3606Y232D01*
X3613Y250D01*
X3616Y270D01*
X3613Y290D01*
X3606Y308D01*
X3594Y324D01*
X3579Y335D01*
Y574D01*
X3592Y584D01*
X3604Y600D01*
X3611Y618D01*
X3614Y638D01*
X3611Y658D01*
X3604Y675D01*
X3609Y686D01*
X3609Y687D01*
X3721D01*
X3721Y686D01*
X3726Y675D01*
X3719Y658D01*
X3716Y638D01*
X3719Y618D01*
X3726Y600D01*
X3738Y584D01*
X3741Y582D01*
Y345D01*
X3726Y334D01*
X3714Y318D01*
X3707Y300D01*
X3704Y280D01*
X3707Y260D01*
X3714Y242D01*
X3726Y226D01*
X3742Y214D01*
X3760Y207D01*
X3780Y204D01*
X3800Y207D01*
X3818Y214D01*
X3834Y226D01*
X3846Y242D01*
X3853Y260D01*
X3856Y280D01*
X3853Y300D01*
X3846Y318D01*
X3834Y334D01*
X3819Y345D01*
Y568D01*
X3830Y572D01*
X3846Y584D01*
X3858Y600D01*
X3865Y618D01*
X3868Y638D01*
X3865Y658D01*
X3858Y675D01*
X3863Y686D01*
X3863Y687D01*
X3975D01*
X3975Y686D01*
X3980Y675D01*
X3973Y658D01*
X3970Y638D01*
X3973Y618D01*
X3980Y600D01*
X3992Y584D01*
X4007Y573D01*
Y402D01*
X3996Y394D01*
X3984Y378D01*
X3977Y360D01*
X3974Y340D01*
X3977Y320D01*
X3984Y302D01*
X3996Y286D01*
X4012Y274D01*
X4030Y267D01*
X4050Y264D01*
X4070Y267D01*
X4088Y274D01*
X4104Y286D01*
X4116Y302D01*
X4123Y320D01*
X4126Y340D01*
X4123Y360D01*
X4116Y378D01*
X4104Y394D01*
X4088Y406D01*
X4085Y407D01*
Y573D01*
X4100Y584D01*
X4112Y600D01*
X4119Y618D01*
X4122Y638D01*
X4119Y658D01*
X4112Y675D01*
X4117Y686D01*
X4117Y687D01*
X4229D01*
X4229Y686D01*
X4234Y675D01*
X4227Y658D01*
X4224Y638D01*
X4227Y618D01*
X4234Y600D01*
X4246Y584D01*
X4262Y572D01*
X4280Y565D01*
X4300Y562D01*
X4320Y565D01*
X4338Y572D01*
X4354Y584D01*
X4366Y600D01*
X4373Y618D01*
X4376Y638D01*
X4373Y658D01*
X4366Y676D01*
X4363Y680D01*
X4369Y691D01*
X4485D01*
X4491Y680D01*
X4488Y676D01*
X4481Y658D01*
X4478Y638D01*
X4481Y618D01*
X4488Y600D01*
X4500Y584D01*
X4516Y572D01*
X4521Y570D01*
Y455D01*
X4506Y444D01*
X4494Y428D01*
X4487Y410D01*
X4484Y390D01*
X4487Y370D01*
X4494Y352D01*
X4506Y336D01*
X4522Y324D01*
X4540Y317D01*
X4560Y314D01*
X4580Y317D01*
X4598Y324D01*
X4614Y336D01*
X4626Y352D01*
X4633Y370D01*
X4636Y390D01*
X4633Y410D01*
X4626Y428D01*
X4614Y444D01*
X4599Y455D01*
Y577D01*
X4608Y584D01*
X4620Y600D01*
X4627Y618D01*
X4630Y638D01*
X4627Y658D01*
X4620Y676D01*
X4617Y680D01*
X4623Y691D01*
X4739D01*
X4745Y680D01*
X4742Y676D01*
X4735Y658D01*
X4732Y638D01*
X4735Y618D01*
X4742Y600D01*
X4754Y584D01*
X4770Y572D01*
X4788Y565D01*
X4808Y562D01*
X4828Y565D01*
X4846Y572D01*
X4862Y584D01*
X4874Y600D01*
X4881Y618D01*
X4884Y638D01*
X4881Y658D01*
X4874Y676D01*
X4871Y680D01*
X4877Y691D01*
X4954D01*
X4988Y657D01*
X4986Y638D01*
X4989Y618D01*
X4996Y600D01*
X5008Y584D01*
X5024Y572D01*
X5042Y565D01*
X5062Y562D01*
X5082Y565D01*
X5098Y571D01*
X5110Y566D01*
Y281D01*
X5113Y266D01*
X5122Y253D01*
X5241Y134D01*
X5254Y125D01*
X5269Y122D01*
X7601D01*
X7616Y125D01*
X7629Y134D01*
X7727Y233D01*
X7736Y245D01*
X7739Y260D01*
Y573D01*
X7754Y584D01*
X7766Y600D01*
X7773Y618D01*
X7776Y638D01*
X7773Y658D01*
X7766Y676D01*
X7763Y680D01*
X7769Y691D01*
X7885D01*
X7891Y680D01*
X7888Y676D01*
X7881Y658D01*
X7878Y638D01*
X7881Y618D01*
X7888Y600D01*
X7900Y584D01*
X7916Y572D01*
X7921Y570D01*
Y525D01*
X7906Y514D01*
X7894Y498D01*
X7887Y480D01*
X7884Y460D01*
X7887Y440D01*
X7894Y422D01*
X7906Y406D01*
X7922Y394D01*
X7940Y387D01*
X7960Y384D01*
X7980Y387D01*
X7998Y394D01*
X8014Y406D01*
X8026Y422D01*
X8033Y440D01*
X8036Y460D01*
X8033Y480D01*
X8026Y498D01*
X8014Y514D01*
X7999Y525D01*
Y577D01*
X8008Y584D01*
X8019Y599D01*
X8067D01*
X8144Y522D01*
X8157Y514D01*
X8172Y511D01*
X8254D01*
X8303Y463D01*
X8315Y454D01*
X8330Y451D01*
X8510D01*
X8525Y454D01*
X8538Y463D01*
X8628Y553D01*
X8637Y566D01*
X8640Y580D01*
Y696D01*
X8637Y710D01*
X8628Y723D01*
X8547Y804D01*
X8534Y813D01*
X8523Y815D01*
X8518Y824D01*
X8517Y828D01*
X8524Y838D01*
X8528Y860D01*
Y990D01*
X8524Y1012D01*
X8511Y1030D01*
X8510Y1031D01*
Y1053D01*
X8525Y1065D01*
X8537Y1080D01*
X8544Y1097D01*
X8555Y1102D01*
X8557Y1103D01*
X8568Y1092D01*
X8581Y1083D01*
X8595Y1080D01*
X8669D01*
X8684Y1083D01*
X8697Y1092D01*
X8866Y1261D01*
X8880D01*
Y1212D01*
X9080D01*
Y1388D01*
X8880D01*
Y1339D01*
X8850D01*
X8835Y1336D01*
X8823Y1327D01*
X8797Y1302D01*
X8787Y1310D01*
X8787Y1310D01*
X8791Y1330D01*
Y1684D01*
X8868Y1760D01*
X8880Y1755D01*
Y1647D01*
X8904D01*
Y1598D01*
X8880D01*
Y1422D01*
X9080D01*
Y1598D01*
X9056D01*
Y1647D01*
X9080D01*
Y1823D01*
X8947D01*
X8942Y1835D01*
X8965Y1857D01*
X9080D01*
Y2033D01*
X9056D01*
Y2461D01*
X9099Y2504D01*
X9111Y2520D01*
X9114Y2528D01*
X9119Y2538D01*
X9121Y2558D01*
Y2662D01*
X9119Y2682D01*
X9111Y2700D01*
X9099Y2716D01*
X9027Y2788D01*
X9031Y2800D01*
X9300D01*
Y375D01*
X9287Y373D01*
X9286Y377D01*
X9267Y412D01*
X9242Y442D01*
X9212Y467D01*
X9177Y486D01*
X9139Y498D01*
X9100Y501D01*
X9061Y498D01*
X9023Y486D01*
X8988Y467D01*
X8958Y442D01*
X8933Y412D01*
X8914Y377D01*
X8903Y339D01*
X8899Y300D01*
X8903Y261D01*
X8914Y223D01*
X8933Y188D01*
X8958Y158D01*
X8988Y133D01*
X9023Y114D01*
X9027Y113D01*
X9025Y100D01*
X375D01*
X373Y113D01*
X377Y114D01*
X412Y133D01*
X442Y158D01*
X467Y188D01*
X486Y223D01*
X498Y261D01*
X501Y300D01*
X498Y339D01*
X486Y377D01*
X467Y412D01*
X442Y442D01*
X412Y467D01*
X377Y486D01*
X339Y498D01*
X300Y501D01*
X261Y498D01*
X223Y486D01*
X188Y467D01*
X158Y442D01*
X133Y412D01*
X114Y377D01*
X113Y373D01*
X100Y375D01*
Y2800D01*
X3300D01*
Y2897D01*
X3313Y2903D01*
X3338Y2883D01*
X3373Y2864D01*
X3411Y2852D01*
X3450Y2849D01*
X3489Y2852D01*
X3527Y2864D01*
X3562Y2883D01*
X3592Y2908D01*
X3617Y2938D01*
X3636Y2973D01*
X3647Y3011D01*
X3651Y3050D01*
X3647Y3089D01*
X3636Y3127D01*
X3617Y3162D01*
X3604Y3179D01*
X3609Y3190D01*
X5791D01*
X5796Y3179D01*
D02*
G37*
G36*
X3961Y2628D02*
X3864Y2531D01*
X3759D01*
X3756Y2543D01*
X3758Y2544D01*
X3774Y2556D01*
X3854Y2636D01*
X3866Y2652D01*
X3873Y2670D01*
X3876Y2690D01*
Y2825D01*
X3961D01*
Y2628D01*
D02*
G37*
G36*
X7511Y2474D02*
Y2442D01*
X7498Y2438D01*
X7494Y2444D01*
X7478Y2456D01*
X7460Y2463D01*
X7440Y2466D01*
X7420Y2463D01*
X7402Y2456D01*
X7386Y2444D01*
X7374Y2428D01*
X7367Y2410D01*
X7364Y2390D01*
X7367Y2370D01*
X7374Y2352D01*
X7386Y2336D01*
X7401Y2325D01*
Y2223D01*
X7392Y2216D01*
X7380Y2200D01*
X7373Y2182D01*
X7370Y2162D01*
X7373Y2142D01*
X7380Y2125D01*
X7375Y2114D01*
X7375Y2113D01*
X7263D01*
X7263Y2114D01*
X7258Y2125D01*
X7265Y2142D01*
X7268Y2162D01*
X7265Y2182D01*
X7258Y2200D01*
X7246Y2216D01*
X7239Y2221D01*
Y2375D01*
X7254Y2386D01*
X7266Y2402D01*
X7273Y2420D01*
X7276Y2440D01*
X7273Y2460D01*
X7266Y2478D01*
X7265Y2480D01*
X7270Y2491D01*
X7494D01*
X7511Y2474D01*
D02*
G37*
G36*
X4361Y2526D02*
X4348Y2512D01*
X4348Y2512D01*
X4264Y2429D01*
X4140D01*
X4135Y2441D01*
X4227Y2533D01*
X4236Y2546D01*
X4239Y2561D01*
Y2825D01*
X4361D01*
Y2526D01*
D02*
G37*
G36*
X5161Y2450D02*
X5164Y2435D01*
X5173Y2423D01*
X5204Y2391D01*
X5200Y2379D01*
X5066D01*
X5039Y2406D01*
Y2825D01*
X5161D01*
Y2450D01*
D02*
G37*
G36*
X5349Y2759D02*
X5353Y2739D01*
X5364Y2723D01*
X5473Y2614D01*
X5489Y2603D01*
X5509Y2599D01*
X5988D01*
X5990Y2598D01*
X7067D01*
X7072Y2586D01*
X7034Y2549D01*
X7025Y2536D01*
X7022Y2521D01*
Y2437D01*
X7014Y2429D01*
X5373D01*
X5369Y2430D01*
X5275D01*
X5239Y2466D01*
Y2825D01*
X5349D01*
Y2759D01*
D02*
G37*
%LPC*%
G36*
X8471Y1996D02*
X8450Y1992D01*
X8432Y1980D01*
X8419Y1962D01*
X8415Y1940D01*
Y1810D01*
X8419Y1788D01*
X8431Y1771D01*
Y1685D01*
X8416Y1674D01*
X8404Y1658D01*
X8397Y1640D01*
X8396Y1636D01*
X8383Y1637D01*
Y1769D01*
X8384Y1770D01*
X8397Y1788D01*
X8401Y1810D01*
Y1940D01*
X8397Y1962D01*
X8384Y1980D01*
X8366Y1992D01*
X8344Y1996D01*
X8323Y1992D01*
X8305Y1980D01*
X8292Y1962D01*
X8288Y1940D01*
Y1810D01*
X8292Y1788D01*
X8305Y1770D01*
X8306Y1769D01*
Y1486D01*
X8291Y1474D01*
X8279Y1459D01*
X8271Y1440D01*
X8268Y1421D01*
X8271Y1401D01*
X8279Y1383D01*
X8291Y1367D01*
X8306Y1355D01*
X8325Y1347D01*
X8344Y1344D01*
X8364Y1347D01*
X8383Y1355D01*
X8398Y1367D01*
X8410Y1383D01*
X8418Y1401D01*
X8421Y1421D01*
X8418Y1440D01*
X8410Y1459D01*
X8398Y1474D01*
X8383Y1486D01*
Y1603D01*
X8396Y1604D01*
X8397Y1600D01*
X8404Y1582D01*
X8416Y1566D01*
X8432Y1554D01*
X8450Y1547D01*
X8470Y1544D01*
X8490Y1547D01*
X8508Y1554D01*
X8524Y1566D01*
X8536Y1582D01*
X8543Y1600D01*
X8546Y1620D01*
X8543Y1640D01*
X8536Y1658D01*
X8524Y1674D01*
X8509Y1685D01*
Y1768D01*
X8511Y1770D01*
X8524Y1788D01*
X8528Y1810D01*
Y1940D01*
X8524Y1962D01*
X8511Y1980D01*
X8493Y1992D01*
X8471Y1996D01*
D02*
G37*
G36*
X938Y2238D02*
X918Y2235D01*
X900Y2228D01*
X884Y2216D01*
X872Y2200D01*
X865Y2182D01*
X862Y2162D01*
X865Y2142D01*
X872Y2124D01*
X884Y2108D01*
X900Y2096D01*
X902Y2095D01*
X902Y2095D01*
X911Y2083D01*
X934Y2059D01*
Y1867D01*
X926Y1862D01*
X919Y1852D01*
X917Y1840D01*
Y1685D01*
X919Y1673D01*
X926Y1663D01*
X936Y1656D01*
X948Y1654D01*
X998D01*
X1010Y1656D01*
X1020Y1663D01*
X1027Y1673D01*
X1029Y1685D01*
Y1840D01*
X1027Y1852D01*
X1020Y1862D01*
X1012Y1867D01*
Y2075D01*
X1009Y2090D01*
X1000Y2102D01*
X993Y2110D01*
X1004Y2124D01*
X1011Y2142D01*
X1014Y2162D01*
X1011Y2182D01*
X1004Y2200D01*
X992Y2216D01*
X976Y2228D01*
X958Y2235D01*
X938Y2238D01*
D02*
G37*
G36*
X8920Y1136D02*
X8900Y1133D01*
X8882Y1126D01*
X8866Y1114D01*
X8854Y1098D01*
X8847Y1080D01*
X8844Y1060D01*
X8847Y1040D01*
X8854Y1022D01*
X8866Y1006D01*
X8866Y1004D01*
X8839Y976D01*
X8655D01*
Y990D01*
X8651Y1012D01*
X8638Y1030D01*
X8620Y1042D01*
X8599Y1046D01*
X8577Y1042D01*
X8559Y1030D01*
X8546Y1012D01*
X8542Y990D01*
Y860D01*
X8546Y838D01*
X8559Y820D01*
X8577Y808D01*
X8599Y804D01*
X8620Y808D01*
X8638Y820D01*
X8651Y838D01*
X8655Y860D01*
Y874D01*
X8860D01*
X8880Y878D01*
X8896Y889D01*
X8956Y949D01*
X8967Y965D01*
X8971Y985D01*
Y1004D01*
X8974Y1006D01*
X8986Y1022D01*
X8993Y1040D01*
X8996Y1060D01*
X8993Y1080D01*
X8986Y1098D01*
X8974Y1114D01*
X8958Y1126D01*
X8940Y1133D01*
X8920Y1136D01*
D02*
G37*
G36*
X7836Y1996D02*
X7815Y1992D01*
X7797Y1980D01*
X7784Y1962D01*
X7780Y1940D01*
Y1810D01*
X7784Y1788D01*
X7797Y1770D01*
X7801Y1767D01*
Y1745D01*
X7786Y1734D01*
X7774Y1718D01*
X7767Y1700D01*
X7764Y1680D01*
X7767Y1660D01*
X7774Y1642D01*
X7786Y1626D01*
X7802Y1614D01*
X7820Y1607D01*
X7840Y1604D01*
X7860Y1607D01*
X7878Y1614D01*
X7894Y1626D01*
X7906Y1642D01*
X7913Y1660D01*
X7916Y1680D01*
X7913Y1700D01*
X7906Y1718D01*
X7894Y1734D01*
X7879Y1745D01*
Y1774D01*
X7889Y1788D01*
X7893Y1810D01*
Y1940D01*
X7889Y1962D01*
X7876Y1980D01*
X7858Y1992D01*
X7836Y1996D01*
D02*
G37*
G36*
X4137Y1750D02*
X4094D01*
Y1654D01*
X4106D01*
X4118Y1656D01*
X4128Y1663D01*
X4135Y1673D01*
X4137Y1685D01*
Y1750D01*
D02*
G37*
G36*
X2737D02*
X2694D01*
Y1654D01*
X2706D01*
X2718Y1656D01*
X2728Y1663D01*
X2735Y1673D01*
X2737Y1685D01*
Y1750D01*
D02*
G37*
G36*
X4068D02*
X4025D01*
Y1685D01*
X4027Y1673D01*
X4034Y1663D01*
X4044Y1656D01*
X4056Y1654D01*
X4068D01*
Y1750D01*
D02*
G37*
G36*
X2668D02*
X2625D01*
Y1685D01*
X2627Y1673D01*
X2634Y1663D01*
X2644Y1656D01*
X2656Y1654D01*
X2668D01*
Y1750D01*
D02*
G37*
G36*
X1468D02*
X1425D01*
Y1685D01*
X1427Y1673D01*
X1434Y1663D01*
X1444Y1656D01*
X1456Y1654D01*
X1468D01*
Y1750D01*
D02*
G37*
G36*
X1537D02*
X1494D01*
Y1654D01*
X1506D01*
X1518Y1656D01*
X1528Y1663D01*
X1535Y1673D01*
X1537Y1685D01*
Y1750D01*
D02*
G37*
G36*
X7710Y1197D02*
X7690Y1194D01*
X7671Y1186D01*
X7656Y1174D01*
X7644Y1159D01*
X7636Y1140D01*
X7633Y1120D01*
X7636Y1101D01*
X7644Y1082D01*
X7656Y1067D01*
X7671Y1055D01*
Y1031D01*
X7670Y1030D01*
X7657Y1012D01*
X7653Y990D01*
Y860D01*
X7657Y838D01*
X7670Y820D01*
X7688Y808D01*
X7710Y804D01*
X7731Y808D01*
X7749Y820D01*
X7762Y838D01*
X7766Y860D01*
Y990D01*
X7762Y1012D01*
X7749Y1030D01*
X7748Y1031D01*
Y1055D01*
X7763Y1067D01*
X7775Y1082D01*
X7783Y1101D01*
X7786Y1120D01*
X7783Y1140D01*
X7775Y1159D01*
X7763Y1174D01*
X7748Y1186D01*
X7729Y1194D01*
X7710Y1197D01*
D02*
G37*
G36*
X1944Y1146D02*
X1894D01*
X1882Y1144D01*
X1872Y1137D01*
X1865Y1127D01*
X1863Y1115D01*
Y960D01*
X1865Y948D01*
X1870Y942D01*
Y937D01*
X1867Y935D01*
X1855Y919D01*
X1848Y901D01*
X1845Y881D01*
X1848Y861D01*
X1855Y843D01*
X1867Y827D01*
X1883Y815D01*
X1901Y808D01*
X1921Y805D01*
X1941Y808D01*
X1959Y815D01*
X1975Y827D01*
X1987Y843D01*
X1994Y861D01*
X1997Y881D01*
X1994Y901D01*
X1987Y919D01*
X1975Y935D01*
X1972Y937D01*
Y948D01*
X1973Y948D01*
X1975Y960D01*
Y1115D01*
X1973Y1127D01*
X1966Y1137D01*
X1956Y1144D01*
X1944Y1146D01*
D02*
G37*
G36*
X5944D02*
X5894D01*
X5882Y1144D01*
X5872Y1137D01*
X5865Y1127D01*
X5863Y1115D01*
Y960D01*
X5865Y948D01*
X5869Y943D01*
Y916D01*
X5866Y914D01*
X5854Y898D01*
X5847Y880D01*
X5844Y860D01*
X5847Y840D01*
X5854Y822D01*
X5866Y806D01*
X5882Y794D01*
X5900Y787D01*
X5920Y784D01*
X5940Y787D01*
X5958Y794D01*
X5974Y806D01*
X5986Y822D01*
X5993Y840D01*
X5996Y860D01*
X5993Y880D01*
X5986Y898D01*
X5974Y914D01*
X5971Y916D01*
Y946D01*
X5973Y948D01*
X5975Y960D01*
Y1115D01*
X5973Y1127D01*
X5966Y1137D01*
X5956Y1144D01*
X5944Y1146D01*
D02*
G37*
G36*
X938Y714D02*
X918Y711D01*
X900Y704D01*
X884Y692D01*
X872Y676D01*
X865Y658D01*
X862Y638D01*
X865Y618D01*
X872Y600D01*
X884Y584D01*
X900Y572D01*
X918Y565D01*
X938Y562D01*
X958Y565D01*
X976Y572D01*
X992Y584D01*
X1004Y600D01*
X1011Y618D01*
X1014Y638D01*
X1011Y658D01*
X1004Y676D01*
X992Y692D01*
X976Y704D01*
X958Y711D01*
X938Y714D01*
D02*
G37*
G36*
X4544Y1146D02*
X4494D01*
X4482Y1144D01*
X4472Y1137D01*
X4465Y1127D01*
X4463Y1115D01*
Y960D01*
X4465Y948D01*
X4469Y943D01*
Y916D01*
X4466Y914D01*
X4454Y898D01*
X4447Y880D01*
X4444Y860D01*
X4447Y840D01*
X4454Y822D01*
X4466Y806D01*
X4482Y794D01*
X4500Y787D01*
X4520Y784D01*
X4540Y787D01*
X4558Y794D01*
X4574Y806D01*
X4586Y822D01*
X4593Y840D01*
X4596Y860D01*
X4593Y880D01*
X4586Y898D01*
X4574Y914D01*
X4571Y916D01*
Y946D01*
X4573Y948D01*
X4575Y960D01*
Y1115D01*
X4573Y1127D01*
X4566Y1137D01*
X4556Y1144D01*
X4544Y1146D01*
D02*
G37*
G36*
X3344D02*
X3294D01*
X3282Y1144D01*
X3272Y1137D01*
X3265Y1127D01*
X3263Y1115D01*
Y960D01*
X3265Y948D01*
X3268Y945D01*
Y937D01*
X3265Y935D01*
X3253Y919D01*
X3246Y901D01*
X3243Y881D01*
X3246Y861D01*
X3253Y843D01*
X3265Y827D01*
X3281Y815D01*
X3299Y808D01*
X3319Y805D01*
X3339Y808D01*
X3357Y815D01*
X3373Y827D01*
X3385Y843D01*
X3392Y861D01*
X3395Y881D01*
X3392Y901D01*
X3385Y919D01*
X3373Y935D01*
X3370Y937D01*
Y945D01*
X3373Y948D01*
X3375Y960D01*
Y1115D01*
X3373Y1127D01*
X3366Y1137D01*
X3356Y1144D01*
X3344Y1146D01*
D02*
G37*
G36*
X6579D02*
X6529D01*
X6517Y1144D01*
X6507Y1137D01*
X6500Y1127D01*
X6498Y1115D01*
Y960D01*
X6500Y948D01*
X6507Y938D01*
X6517Y931D01*
X6529Y929D01*
X6579D01*
X6591Y931D01*
X6601Y938D01*
X6608Y948D01*
X6610Y960D01*
Y1115D01*
X6608Y1127D01*
X6601Y1137D01*
X6591Y1144D01*
X6579Y1146D01*
D02*
G37*
G36*
X6706D02*
X6656D01*
X6644Y1144D01*
X6634Y1137D01*
X6627Y1127D01*
X6625Y1115D01*
Y960D01*
X6627Y948D01*
X6634Y938D01*
X6644Y931D01*
X6656Y929D01*
X6706D01*
X6718Y931D01*
X6728Y938D01*
X6735Y948D01*
X6737Y960D01*
Y1115D01*
X6735Y1127D01*
X6728Y1137D01*
X6718Y1144D01*
X6706Y1146D01*
D02*
G37*
G36*
X6452D02*
X6402D01*
X6390Y1144D01*
X6380Y1137D01*
X6373Y1127D01*
X6371Y1115D01*
Y960D01*
X6373Y948D01*
X6380Y938D01*
X6390Y931D01*
X6402Y929D01*
X6452D01*
X6464Y931D01*
X6474Y938D01*
X6481Y948D01*
X6483Y960D01*
Y1115D01*
X6481Y1127D01*
X6474Y1137D01*
X6464Y1144D01*
X6452Y1146D01*
D02*
G37*
G36*
X1350Y1306D02*
X1330Y1303D01*
X1312Y1296D01*
X1296Y1284D01*
X1284Y1268D01*
X1277Y1250D01*
X1274Y1230D01*
X1277Y1210D01*
X1284Y1192D01*
X1296Y1176D01*
X1311Y1165D01*
Y1140D01*
X1307Y1137D01*
X1300Y1127D01*
X1298Y1115D01*
Y960D01*
X1300Y948D01*
X1307Y938D01*
X1317Y931D01*
X1329Y929D01*
X1379D01*
X1391Y931D01*
X1401Y938D01*
X1408Y948D01*
X1410Y960D01*
Y1115D01*
X1408Y1127D01*
X1401Y1137D01*
X1391Y1144D01*
X1389Y1144D01*
Y1165D01*
X1404Y1176D01*
X1416Y1192D01*
X1423Y1210D01*
X1426Y1230D01*
X1423Y1250D01*
X1416Y1268D01*
X1404Y1284D01*
X1388Y1296D01*
X1370Y1303D01*
X1350Y1306D01*
D02*
G37*
G36*
X2040D02*
X2020Y1303D01*
X2002Y1296D01*
X1986Y1284D01*
X1974Y1268D01*
X1967Y1250D01*
X1964Y1230D01*
X1967Y1210D01*
X1974Y1192D01*
X1986Y1176D01*
X2001Y1165D01*
Y1138D01*
X1999Y1137D01*
X1992Y1127D01*
X1990Y1115D01*
Y960D01*
X1992Y948D01*
X1999Y938D01*
X2009Y931D01*
X2021Y929D01*
X2071D01*
X2083Y931D01*
X2093Y938D01*
X2100Y948D01*
X2102Y960D01*
Y1115D01*
X2100Y1127D01*
X2093Y1137D01*
X2083Y1144D01*
X2079Y1144D01*
Y1165D01*
X2094Y1176D01*
X2106Y1192D01*
X2113Y1210D01*
X2116Y1230D01*
X2113Y1250D01*
X2106Y1268D01*
X2094Y1284D01*
X2078Y1296D01*
X2060Y1303D01*
X2040Y1306D01*
D02*
G37*
G36*
X5268Y1750D02*
X5225D01*
Y1685D01*
X5227Y1673D01*
X5234Y1663D01*
X5244Y1656D01*
X5256Y1654D01*
X5268D01*
Y1750D01*
D02*
G37*
G36*
X4068Y1871D02*
X4056D01*
X4044Y1869D01*
X4034Y1862D01*
X4027Y1852D01*
X4025Y1840D01*
Y1775D01*
X4068D01*
Y1871D01*
D02*
G37*
G36*
X4106D02*
X4094D01*
Y1775D01*
X4137D01*
Y1840D01*
X4135Y1852D01*
X4128Y1862D01*
X4118Y1869D01*
X4106Y1871D01*
D02*
G37*
G36*
X5268D02*
X5256D01*
X5244Y1869D01*
X5234Y1862D01*
X5227Y1852D01*
X5225Y1840D01*
Y1775D01*
X5268D01*
Y1871D01*
D02*
G37*
G36*
X1506D02*
X1494D01*
Y1775D01*
X1537D01*
Y1840D01*
X1535Y1852D01*
X1528Y1862D01*
X1518Y1869D01*
X1506Y1871D01*
D02*
G37*
G36*
X2668D02*
X2656D01*
X2644Y1869D01*
X2634Y1862D01*
X2627Y1852D01*
X2625Y1840D01*
Y1775D01*
X2668D01*
Y1871D01*
D02*
G37*
G36*
X2706D02*
X2694D01*
Y1775D01*
X2737D01*
Y1840D01*
X2735Y1852D01*
X2728Y1862D01*
X2718Y1869D01*
X2706Y1871D01*
D02*
G37*
G36*
X8205Y1994D02*
X8196Y1992D01*
X8178Y1980D01*
X8165Y1962D01*
X8161Y1940D01*
Y1888D01*
X8205D01*
Y1994D01*
D02*
G37*
G36*
X8230D02*
Y1888D01*
X8274D01*
Y1940D01*
X8270Y1962D01*
X8257Y1980D01*
X8239Y1992D01*
X8230Y1994D01*
D02*
G37*
G36*
X4787Y3175D02*
X4613D01*
Y3000D01*
Y2825D01*
X4787D01*
Y3000D01*
Y3175D01*
D02*
G37*
G36*
X5306Y1871D02*
X5294D01*
Y1775D01*
X5337D01*
Y1840D01*
X5335Y1852D01*
X5328Y1862D01*
X5318Y1869D01*
X5306Y1871D01*
D02*
G37*
G36*
X6668D02*
X6656D01*
X6644Y1869D01*
X6634Y1862D01*
X6627Y1852D01*
X6625Y1840D01*
Y1775D01*
X6668D01*
Y1871D01*
D02*
G37*
G36*
X6706D02*
X6694D01*
Y1775D01*
X6737D01*
Y1840D01*
X6735Y1852D01*
X6728Y1862D01*
X6718Y1869D01*
X6706Y1871D01*
D02*
G37*
G36*
X6579D02*
X6529D01*
X6517Y1869D01*
X6507Y1862D01*
X6500Y1852D01*
X6498Y1840D01*
Y1685D01*
X6500Y1673D01*
X6507Y1663D01*
X6517Y1656D01*
X6529Y1654D01*
X6579D01*
X6591Y1656D01*
X6601Y1663D01*
X6608Y1673D01*
X6610Y1685D01*
Y1840D01*
X6608Y1852D01*
X6601Y1862D01*
X6591Y1869D01*
X6579Y1871D01*
D02*
G37*
G36*
X6668Y1750D02*
X6625D01*
Y1685D01*
X6627Y1673D01*
X6634Y1663D01*
X6644Y1656D01*
X6656Y1654D01*
X6668D01*
Y1750D01*
D02*
G37*
G36*
X6737D02*
X6694D01*
Y1654D01*
X6706D01*
X6718Y1656D01*
X6728Y1663D01*
X6735Y1673D01*
X6737Y1685D01*
Y1750D01*
D02*
G37*
G36*
X5337D02*
X5294D01*
Y1654D01*
X5306D01*
X5318Y1656D01*
X5328Y1663D01*
X5335Y1673D01*
X5337Y1685D01*
Y1750D01*
D02*
G37*
G36*
X6325Y1871D02*
X6275D01*
X6263Y1869D01*
X6253Y1862D01*
X6246Y1852D01*
X6244Y1840D01*
Y1685D01*
X6246Y1673D01*
X6253Y1663D01*
X6263Y1656D01*
X6275Y1654D01*
X6325D01*
X6337Y1656D01*
X6347Y1663D01*
X6354Y1673D01*
X6356Y1685D01*
Y1840D01*
X6354Y1852D01*
X6347Y1862D01*
X6337Y1869D01*
X6325Y1871D01*
D02*
G37*
G36*
X6452D02*
X6402D01*
X6390Y1869D01*
X6380Y1862D01*
X6373Y1852D01*
X6371Y1840D01*
Y1685D01*
X6373Y1673D01*
X6380Y1663D01*
X6390Y1656D01*
X6402Y1654D01*
X6452D01*
X6464Y1656D01*
X6474Y1663D01*
X6481Y1673D01*
X6483Y1685D01*
Y1840D01*
X6481Y1852D01*
X6474Y1862D01*
X6464Y1869D01*
X6452Y1871D01*
D02*
G37*
G36*
X8205Y1862D02*
X8161D01*
Y1810D01*
X8165Y1788D01*
X8178Y1770D01*
X8196Y1758D01*
X8205Y1756D01*
Y1862D01*
D02*
G37*
G36*
X8274D02*
X8230D01*
Y1756D01*
X8239Y1758D01*
X8257Y1770D01*
X8270Y1788D01*
X8274Y1810D01*
Y1862D01*
D02*
G37*
G36*
X1468Y1871D02*
X1456D01*
X1444Y1869D01*
X1434Y1862D01*
X1427Y1852D01*
X1425Y1840D01*
Y1775D01*
X1468D01*
Y1871D01*
D02*
G37*
G36*
X8090Y1996D02*
X8069Y1992D01*
X8051Y1980D01*
X8038Y1962D01*
X8034Y1940D01*
Y1810D01*
X8038Y1788D01*
X8051Y1770D01*
X8069Y1758D01*
X8090Y1754D01*
X8112Y1758D01*
X8130Y1770D01*
X8143Y1788D01*
X8147Y1810D01*
Y1940D01*
X8143Y1962D01*
X8130Y1980D01*
X8112Y1992D01*
X8090Y1996D01*
D02*
G37*
G36*
X7570Y1862D02*
X7526D01*
Y1810D01*
X7530Y1788D01*
X7543Y1770D01*
X7561Y1758D01*
X7570Y1756D01*
Y1862D01*
D02*
G37*
G36*
X7639D02*
X7595D01*
Y1756D01*
X7604Y1758D01*
X7622Y1770D01*
X7635Y1788D01*
X7639Y1810D01*
Y1862D01*
D02*
G37*
%LPD*%
D10*
X8344Y1421D02*
Y1875D01*
X4200Y2561D02*
Y3000D01*
X4080Y2441D02*
X4200Y2561D01*
X3502Y726D02*
X4264D01*
X4300Y690D01*
X4375Y2335D02*
Y2485D01*
X4400Y2510D01*
X4280Y2390D02*
X4375Y2485D01*
X4400Y2510D02*
Y3000D01*
X1851Y2441D02*
X4080D01*
X802Y2492D02*
X3880D01*
X4000Y2612D01*
Y3000D01*
X4375Y2335D02*
X4422Y2288D01*
X4572D02*
X4660Y2200D01*
X4422Y2288D02*
X4572D01*
X5200Y2450D02*
Y3000D01*
Y2450D02*
X5259Y2391D01*
X5369D01*
X5370Y2390D01*
X5000D02*
Y3000D01*
Y2390D02*
X5050Y2340D01*
X5260D01*
X5261Y2339D01*
X8564Y2586D02*
X8599Y2551D01*
X7126Y2586D02*
X8564D01*
X7061Y2521D02*
X7126Y2586D01*
X7510Y2530D02*
X7550Y2490D01*
X7150Y2530D02*
X7510D01*
X7112Y2492D02*
X7150Y2530D01*
X1227Y1762D02*
Y1940D01*
X6938Y272D02*
Y638D01*
X7180Y346D02*
X7200Y326D01*
X3740Y2250D02*
X3810Y2180D01*
X8374Y2074D02*
X8462Y2162D01*
X860Y1410D02*
X973Y1297D01*
X719Y1551D02*
X860Y1410D01*
X1040D01*
X1040Y1410D01*
X4190Y2180D02*
Y2300D01*
X1890Y2390D02*
X4280D01*
X7601Y161D02*
X7700Y260D01*
X5149Y281D02*
X5269Y161D01*
X7562Y212D02*
X7600Y250D01*
X5308Y212D02*
X7562D01*
X5201Y319D02*
X5308Y212D01*
X5269Y161D02*
X7601D01*
X7200Y360D02*
Y630D01*
X6930Y280D02*
Y300D01*
X7194Y360D02*
X7200D01*
X7960Y460D02*
Y632D01*
X7443Y398D02*
Y635D01*
X7192Y638D02*
X7200Y630D01*
X7180Y346D02*
X7194Y360D01*
X7700Y260D02*
Y638D01*
X7954D02*
X7960Y632D01*
X6938Y2132D02*
Y2162D01*
X7825D02*
X7954D01*
X7443Y635D02*
X7446Y638D01*
X7608Y2162D02*
X7700D01*
X8334Y638D02*
X8462D01*
X7954D02*
X8083D01*
X8208D02*
X8262D01*
X7440Y2168D02*
Y2390D01*
X7200Y2170D02*
Y2440D01*
X7456Y647D02*
Y925D01*
X7192Y638D02*
X7318D01*
X6938D02*
X7048D01*
X7440Y2168D02*
X7446Y2162D01*
X7192D02*
X7200Y2170D01*
X7446Y638D02*
X7456Y647D01*
X6930Y280D02*
X6938Y272D01*
X3540Y270D02*
Y636D01*
X3538Y638D02*
X3540Y636D01*
X1700Y638D02*
Y700D01*
X2331Y640D02*
X2462D01*
X2850Y740D02*
Y1960D01*
X2804Y2006D02*
X2850Y1960D01*
X2724Y2006D02*
X2804D01*
X2721Y2009D02*
X2724Y2006D01*
X2541Y2009D02*
X2721D01*
X2616Y2060D02*
X3460D01*
X2630Y600D02*
X3375D01*
X2427Y803D02*
X2630Y600D01*
X3375D02*
X3502Y726D01*
X7112Y2211D02*
Y2492D01*
X8669Y1119D02*
X8850Y1300D01*
X7808Y2074D02*
X8374D01*
X7758Y2023D02*
X7808Y2074D01*
X7067Y2023D02*
X7758D01*
X6921Y2020D02*
X7112Y2211D01*
X7550Y2220D02*
Y2490D01*
Y2220D02*
X7608Y2162D01*
X8599Y1875D02*
Y2551D01*
X8850Y1300D02*
X8980D01*
X7736Y2074D02*
X7825Y2162D01*
X7061Y2421D02*
Y2521D01*
X7030Y2390D02*
X7061Y2421D01*
X5370Y2390D02*
X7030D01*
X5261Y2339D02*
X5851D01*
X4572Y2288D02*
X5702D01*
X5730Y2260D01*
X5851Y2339D02*
X6010Y2180D01*
X5730Y2190D02*
Y2260D01*
X6010Y2180D02*
X6590D01*
X7085Y1875D02*
X7201D01*
X6963Y1918D02*
X7067Y2023D01*
X6878Y1918D02*
X6963D01*
X6942Y1969D02*
X7046Y2074D01*
X6189Y1969D02*
X6942D01*
X4994Y2020D02*
X6921D01*
X6877Y2071D02*
X6938Y2132D01*
X4973Y2071D02*
X6877D01*
X6790Y1830D02*
X6878Y1918D01*
X6790Y1270D02*
Y1830D01*
X6180Y1960D02*
X6189Y1969D01*
X6180Y1769D02*
Y1960D01*
X7046Y2074D02*
X7736D01*
X6300Y1038D02*
Y1190D01*
X6330Y1220D01*
X6740D02*
X6790Y1270D01*
X6330Y1220D02*
X6740D01*
X2570Y1410D02*
X2681Y1299D01*
X2427Y1553D02*
X2570Y1410D01*
X2760D01*
X4660D02*
X4773Y1297D01*
X4519Y1551D02*
X4660Y1410D01*
X2554Y1038D02*
Y1226D01*
X4310Y910D02*
Y1740D01*
X3827Y1553D02*
X4081Y1299D01*
X3573Y1038D02*
Y1297D01*
X3319Y1551D02*
X3573Y1297D01*
X3319Y1551D02*
Y1762D01*
X2427Y1553D02*
Y1762D01*
X2681Y1038D02*
Y1299D01*
X4310Y1740D02*
X4470Y1900D01*
X4646Y1576D02*
Y1762D01*
Y1038D02*
Y1226D01*
X4420Y1410D02*
X4660D01*
X3319Y1762D02*
Y1939D01*
X3320Y1940D01*
X5030Y1765D02*
Y1930D01*
X5027Y1762D02*
X5030Y1765D01*
X4730Y1900D02*
X4992Y2162D01*
X4773Y1871D02*
X4973Y2071D01*
X4900Y1926D02*
X4994Y2020D01*
X4773Y1762D02*
Y1871D01*
X5027Y1553D02*
Y1762D01*
X4900Y820D02*
Y1038D01*
X5154Y1576D02*
Y1762D01*
X4519Y1551D02*
Y1762D01*
X5027Y833D02*
Y1038D01*
X5919Y1762D02*
Y1871D01*
X5880Y1910D02*
X5919Y1871D01*
X5730Y1910D02*
X5880D01*
X4660Y2110D02*
Y2200D01*
X3280Y2250D02*
X3740D01*
X4554Y638D02*
X4560Y632D01*
X4046Y2162D02*
X4172D01*
X719Y2409D02*
X802Y2492D01*
X1800Y2390D02*
X1851Y2441D01*
X1860Y2360D02*
X1890Y2390D01*
X1919Y1762D02*
Y1891D01*
X1860Y1950D02*
X1919Y1891D01*
X1860Y1950D02*
Y2360D01*
X1800Y2080D02*
Y2390D01*
X1740Y2020D02*
X1800Y2080D01*
X1172Y728D02*
X1672D01*
X1100Y800D02*
X1172Y728D01*
X1100Y800D02*
Y1038D01*
X1260Y2020D02*
X1740D01*
X1131Y2071D02*
X1661D01*
X1100Y2040D02*
X1131Y2071D01*
X1227Y1987D02*
X1260Y2020D01*
X1661Y2071D02*
X1700Y2110D01*
X2300Y2080D02*
X2374Y2154D01*
Y2198D01*
X2426Y2250D01*
X2550Y2126D02*
Y2198D01*
X2498Y2250D02*
X2550Y2198D01*
X2426Y2250D02*
X2498D01*
X719Y1762D02*
Y2409D01*
X3740Y2020D02*
X4290D01*
X3651Y2071D02*
X4261D01*
X3573Y1993D02*
X3651Y2071D01*
X3701Y1981D02*
X3740Y2020D01*
X4172Y2162D02*
X4190Y2180D01*
X3870Y1960D02*
X4310D01*
X4424Y2074D01*
X4261Y2071D02*
X4300Y2110D01*
X4290Y2020D02*
X4432Y2162D01*
X4424Y2074D02*
X4624D01*
X3827Y1917D02*
X3870Y1960D01*
X3827Y1762D02*
Y1917D01*
X3701Y1763D02*
Y1981D01*
X3573Y1762D02*
Y1993D01*
X4624Y2074D02*
X4660Y2110D01*
X4432Y2162D02*
X4554D01*
X4470Y1900D02*
X4730D01*
X4300Y2110D02*
Y2162D01*
X3700Y820D02*
Y1038D01*
Y820D02*
X3738Y782D01*
X3880D01*
X3881Y782D01*
X4298D01*
X3830Y870D02*
Y1035D01*
X4298Y782D02*
X4350Y730D01*
X2241Y730D02*
X2331Y640D01*
X1752Y730D02*
X2241D01*
X2300Y1038D02*
X2350Y988D01*
Y750D02*
Y988D01*
X2427Y803D02*
Y1038D01*
X846D02*
Y1226D01*
X3792Y2162D02*
X3810Y2180D01*
X8470Y1874D02*
X8471Y1875D01*
X8470Y1620D02*
Y1874D01*
X7964Y1875D02*
X7970Y1868D01*
Y1370D02*
Y1868D01*
X8218Y925D02*
Y1123D01*
X7330Y1430D02*
Y1833D01*
X7460Y1680D02*
Y1870D01*
X7456Y1875D02*
X7460Y1870D01*
X7836Y1875D02*
X7840Y1872D01*
Y1680D02*
Y1872D01*
X8254Y1211D02*
X8295Y1169D01*
X8181Y1211D02*
X8254D01*
X8435Y1207D02*
X8508D01*
X8398Y1169D02*
X8435Y1207D01*
X8295Y1169D02*
X8398D01*
X8129Y1159D02*
X8181Y1211D01*
X8595Y1119D02*
X8669D01*
X8508Y1207D02*
X8595Y1119D01*
X8000Y1070D02*
X8090D01*
X7964Y1034D02*
X8000Y1070D01*
X7964Y925D02*
Y1034D01*
X8129Y1109D02*
Y1159D01*
X8090Y1070D02*
X8129Y1109D01*
X5919Y1551D02*
X6173Y1297D01*
X5154Y1038D02*
X5154Y1038D01*
Y1226D01*
X6046Y1038D02*
Y1226D01*
Y1576D02*
Y1762D01*
X5154D02*
X5154Y1762D01*
X2554Y1574D02*
Y1762D01*
X3446Y1574D02*
Y1762D01*
X3954Y1574D02*
Y1762D01*
Y1038D02*
Y1226D01*
X3446Y1038D02*
Y1226D01*
X846Y1762D02*
X846Y1762D01*
Y1576D02*
Y1762D01*
X1227Y1553D02*
Y1762D01*
Y1553D02*
X1481Y1299D01*
X1354Y1762D02*
X1354Y1762D01*
Y1576D02*
Y1762D01*
X2046Y1576D02*
Y1762D01*
X2040Y1044D02*
X2046Y1038D01*
X2040Y1044D02*
Y1230D01*
X1231Y819D02*
X1271Y779D01*
X1703D01*
X1672Y728D02*
X1700Y700D01*
X1703Y779D02*
X1752Y730D01*
X1481Y1038D02*
Y1299D01*
X1350Y1041D02*
X1354Y1038D01*
X1350Y1041D02*
Y1230D01*
X8471Y925D02*
Y1119D01*
X7710Y925D02*
Y1120D01*
X7380Y700D02*
Y873D01*
X7318Y638D02*
X7380Y700D01*
X7600Y680D02*
X7650Y730D01*
X7600Y250D02*
Y680D01*
X7650Y730D02*
X8242D01*
X8520Y777D02*
X8601Y696D01*
X8383Y777D02*
X8520D01*
X8498Y726D02*
X8550Y674D01*
X8324Y726D02*
X8498D01*
X8601Y580D02*
Y696D01*
X8498Y550D02*
X8550Y602D01*
Y674D01*
X4992Y2162D02*
X5062D01*
X4970Y730D02*
X5062Y638D01*
X3780Y626D02*
X3792Y638D01*
X4560Y390D02*
Y632D01*
X4046Y344D02*
X4050Y340D01*
X4046Y344D02*
Y638D01*
X3780Y280D02*
Y626D01*
X8330Y490D02*
X8510D01*
X8270Y550D02*
X8330Y490D01*
X8172Y550D02*
X8270D01*
X8350D02*
X8498D01*
X8262Y638D02*
X8350Y550D01*
X8242Y730D02*
X8334Y638D01*
X8083D02*
X8172Y550D01*
X8510Y490D02*
X8601Y580D01*
X8344Y815D02*
X8383Y777D01*
X8344Y815D02*
Y925D01*
X8260Y790D02*
X8324Y726D01*
X8110Y790D02*
X8260D01*
X8090Y810D02*
X8110Y790D01*
X8090Y810D02*
X8090Y810D01*
Y925D01*
X7582D02*
Y1038D01*
X7562Y1058D02*
X7582Y1038D01*
X7173Y1058D02*
X7562D01*
X7133Y1018D02*
X7173Y1058D01*
X7133Y723D02*
Y1018D01*
X7048Y638D02*
X7133Y723D01*
X7329Y925D02*
X7380Y873D01*
X3827Y1038D02*
X3830Y1035D01*
X1231Y819D02*
Y1034D01*
X1227Y1038D02*
X1231Y1034D01*
X6173Y1038D02*
Y1297D01*
X5919Y1551D02*
Y1762D01*
X5281Y1038D02*
Y1299D01*
X5027Y1553D02*
X5281Y1299D01*
X4773Y1038D02*
Y1297D01*
X2173Y1038D02*
Y1307D01*
X1919Y1561D02*
X2173Y1307D01*
X1919Y1561D02*
Y1762D01*
X973Y1038D02*
Y1297D01*
X719Y1551D02*
Y1762D01*
X4081Y1038D02*
Y1299D01*
X3827Y1553D02*
Y1762D01*
X2300D02*
Y2080D01*
X3538Y2138D02*
Y2162D01*
X3460Y2060D02*
X3538Y2138D01*
X2550Y2126D02*
X2616Y2060D01*
X2462Y2088D02*
X2541Y2009D01*
X2462Y2088D02*
Y2162D01*
X5201Y319D02*
Y696D01*
X5149Y281D02*
Y601D01*
X973Y1762D02*
Y2075D01*
X938Y2110D02*
X973Y2075D01*
X938Y2110D02*
Y2162D01*
X1100Y1762D02*
Y2040D01*
X4350Y730D02*
Y730D01*
X4900Y820D02*
X4930Y790D01*
X4990D01*
X4350Y730D02*
X4970D01*
X4990Y790D02*
X5054Y726D01*
X5027Y833D02*
X5083Y777D01*
X5120D01*
X5098Y726D02*
X5150Y674D01*
X5054Y726D02*
X5098D01*
X5120Y777D02*
X5201Y696D01*
X5150Y602D02*
Y674D01*
X5149Y601D02*
X5150Y602D01*
X1954Y2116D02*
Y2162D01*
X1980Y2090D02*
X2130D01*
X1954Y2116D02*
X1980Y2090D01*
X1700Y2110D02*
Y2162D01*
X2130Y2090D02*
X2173Y2047D01*
Y1762D02*
Y2047D01*
X3700Y1762D02*
X3701Y1763D01*
X6173Y1762D02*
X6180Y1769D01*
X4900Y1762D02*
Y1926D01*
X100Y2900D02*
G03*
X0Y2800I0J-100D01*
G01*
Y100D02*
G03*
X100Y0I100J0D01*
G01*
X9300D02*
G03*
X9400Y100I0J100D01*
G01*
Y2800D02*
G03*
X9300Y2900I-100J0D01*
G01*
X6200Y3200D02*
G03*
X6100Y3300I-100J0D01*
G01*
X3310D02*
G03*
X3190Y3180I0J-120D01*
G01*
D11*
X7836Y925D02*
Y1047D01*
X8064Y1274D01*
X8280D01*
X8284Y1270D01*
X8680D01*
X8740Y1330D01*
Y1705D01*
X8980Y1945D01*
X719Y881D02*
Y1030D01*
X8880Y2650D02*
X8920Y2610D01*
X5990Y2650D02*
X8880D01*
X5989Y2650D02*
X5990Y2650D01*
X5509Y2650D02*
X5989D01*
X5400Y2759D02*
X5509Y2650D01*
X5400Y2759D02*
Y3000D01*
X8599Y925D02*
X8860D01*
X8920Y985D02*
Y1060D01*
X8860Y925D02*
X8920Y985D01*
X4520Y860D02*
Y1036D01*
X5919Y1038D02*
X5920Y1036D01*
Y860D02*
Y1036D01*
X4519Y1038D02*
X4520Y1036D01*
X3319Y881D02*
Y1038D01*
X3319Y881D02*
X3319Y881D01*
X1919Y1038D02*
X1921Y1035D01*
Y881D02*
Y1035D01*
D12*
X0Y100D02*
Y2800D01*
X100Y2900D02*
X3190Y2900D01*
X100Y0D02*
X9300D01*
X9400Y100D02*
Y2800D01*
X6200Y2900D02*
X9300D01*
X6200D02*
Y3200D01*
X3190Y2900D02*
Y3180D01*
X3310Y3300D02*
X6100D01*
D13*
X7260Y1690D02*
G03*
X7260Y1690I-50J0D01*
G01*
X5915Y1590D02*
G03*
X5915Y1590I-50J0D01*
G01*
X4515D02*
G03*
X4515Y1590I-50J0D01*
G01*
X3315D02*
G03*
X3315Y1590I-50J0D01*
G01*
X1915D02*
G03*
X1915Y1590I-50J0D01*
G01*
X715D02*
G03*
X715Y1590I-50J0D01*
G01*
X9047Y1295D02*
Y1515D01*
X8912Y1295D02*
Y1515D01*
Y1295D02*
X9047D01*
X8912Y1515D02*
X9047D01*
X8912Y1950D02*
X9047D01*
X8912Y1730D02*
X9047D01*
X8912D02*
Y1950D01*
X9047Y1730D02*
Y1950D01*
X7120Y1780D02*
X8680D01*
X7120Y1020D02*
X8680D01*
X7120D02*
Y1780D01*
X8680Y1020D02*
Y1780D01*
X6825Y1120D02*
Y1680D01*
X5775Y1120D02*
Y1680D01*
Y1120D02*
X6825D01*
X5775Y1680D02*
X6825D01*
X5425Y1120D02*
Y1680D01*
X4375Y1120D02*
Y1680D01*
Y1120D02*
X5425D01*
X4375Y1680D02*
X5425D01*
X4225Y1120D02*
Y1680D01*
X3175Y1120D02*
Y1680D01*
Y1120D02*
X4225D01*
X3175Y1680D02*
X4225D01*
X2825Y1120D02*
Y1680D01*
X1775Y1120D02*
Y1680D01*
Y1120D02*
X2825D01*
X1775Y1680D02*
X2825D01*
X1625Y1120D02*
Y1680D01*
X575Y1120D02*
Y1680D01*
Y1120D02*
X1625D01*
X575Y1680D02*
X1625D01*
D14*
X3450Y3050D02*
D03*
X5950D02*
D03*
X300Y300D02*
D03*
X9100D02*
D03*
D15*
X8462Y2162D02*
D03*
X8208D02*
D03*
X7954D02*
D03*
X7700D02*
D03*
X7446D02*
D03*
X7192D02*
D03*
X6938D02*
D03*
X8462Y638D02*
D03*
X8208D02*
D03*
X7954D02*
D03*
X7700D02*
D03*
X7446D02*
D03*
X7192D02*
D03*
X6938D02*
D03*
X5062Y2162D02*
D03*
X4808D02*
D03*
X4554D02*
D03*
X4300D02*
D03*
X4046D02*
D03*
X3792D02*
D03*
X3538D02*
D03*
X5062Y638D02*
D03*
X4808D02*
D03*
X4554D02*
D03*
X4300D02*
D03*
X4046D02*
D03*
X3792D02*
D03*
X3538D02*
D03*
X2462Y2162D02*
D03*
X2208D02*
D03*
X1954D02*
D03*
X1700D02*
D03*
X1446D02*
D03*
X1192D02*
D03*
X938D02*
D03*
X2462Y638D02*
D03*
X2208D02*
D03*
X1954D02*
D03*
X1700D02*
D03*
X1446D02*
D03*
X1192D02*
D03*
X938D02*
D03*
X8920Y2610D02*
D03*
Y1060D02*
D03*
X1040Y1410D02*
D03*
X4190Y2300D02*
D03*
X6930Y300D02*
D03*
X7200Y360D02*
D03*
X7960Y460D02*
D03*
X7443Y398D02*
D03*
X3540Y270D02*
D03*
X2850Y740D02*
D03*
X6590Y2180D02*
D03*
X7085Y1875D02*
D03*
X2760Y1410D02*
D03*
X2554Y1226D02*
D03*
X4646Y1576D02*
D03*
Y1226D02*
D03*
X4420Y1410D02*
D03*
X1230Y1940D02*
D03*
X3320D02*
D03*
X5030Y1930D02*
D03*
X5730Y1910D02*
D03*
Y2190D02*
D03*
X3280Y2250D02*
D03*
X7200Y2440D02*
D03*
X7440Y2390D02*
D03*
X5920Y860D02*
D03*
X4520D02*
D03*
X3830Y870D02*
D03*
X3319Y881D02*
D03*
X2350Y750D02*
D03*
X1921Y881D02*
D03*
X719D02*
D03*
X8470Y1620D02*
D03*
X7970Y1370D02*
D03*
X8218Y1123D02*
D03*
X8344Y1421D02*
D03*
X7330Y1430D02*
D03*
X7460Y1680D02*
D03*
X7840D02*
D03*
X5154Y1226D02*
D03*
X6046D02*
D03*
Y1576D02*
D03*
X5154D02*
D03*
X2554Y1574D02*
D03*
X3446D02*
D03*
X3954D02*
D03*
Y1226D02*
D03*
X3446D02*
D03*
X846Y1576D02*
D03*
X1354D02*
D03*
X2046D02*
D03*
X2040Y1230D02*
D03*
X1350D02*
D03*
X846Y1226D02*
D03*
X8471Y1119D02*
D03*
X7710Y1120D02*
D03*
X4560Y390D02*
D03*
X4050Y340D02*
D03*
X3780Y280D02*
D03*
X4310Y910D02*
D03*
D16*
X8980Y1300D02*
D03*
Y1510D02*
D03*
Y1945D02*
D03*
Y1735D02*
D03*
D17*
X3800Y3000D02*
D03*
X4000D02*
D03*
X4200D02*
D03*
X4400D02*
D03*
X4600D02*
D03*
X4800D02*
D03*
X5000D02*
D03*
X5200D02*
D03*
X5400D02*
D03*
X5600D02*
D03*
D18*
X7201Y1875D02*
D03*
X7329D02*
D03*
X7456D02*
D03*
X7582D02*
D03*
X7710D02*
D03*
X7836D02*
D03*
X7964D02*
D03*
X8090D02*
D03*
X8218D02*
D03*
X8344D02*
D03*
X8471D02*
D03*
X8599D02*
D03*
X7201Y925D02*
D03*
X7329D02*
D03*
X7456D02*
D03*
X7582D02*
D03*
X7710D02*
D03*
X7836D02*
D03*
X7964D02*
D03*
X8090D02*
D03*
X8218D02*
D03*
X8344D02*
D03*
X8471D02*
D03*
X8599D02*
D03*
D19*
X6681Y1038D02*
D03*
X6554D02*
D03*
X6427D02*
D03*
X6300D02*
D03*
X6173D02*
D03*
X6046D02*
D03*
X5919D02*
D03*
X6681Y1762D02*
D03*
X6554D02*
D03*
X6427D02*
D03*
X6300D02*
D03*
X6173D02*
D03*
X6046D02*
D03*
X5919D02*
D03*
X5281Y1038D02*
D03*
X5154D02*
D03*
X5027D02*
D03*
X4900D02*
D03*
X4773D02*
D03*
X4646D02*
D03*
X4519D02*
D03*
X5281Y1762D02*
D03*
X5154D02*
D03*
X5027D02*
D03*
X4900D02*
D03*
X4773D02*
D03*
X4646D02*
D03*
X4519D02*
D03*
X4081Y1038D02*
D03*
X3954D02*
D03*
X3827D02*
D03*
X3700D02*
D03*
X3573D02*
D03*
X3446D02*
D03*
X3319D02*
D03*
X4081Y1762D02*
D03*
X3954D02*
D03*
X3827D02*
D03*
X3700D02*
D03*
X3573D02*
D03*
X3446D02*
D03*
X3319D02*
D03*
X2681Y1038D02*
D03*
X2554D02*
D03*
X2427D02*
D03*
X2300D02*
D03*
X2173D02*
D03*
X2046D02*
D03*
X1919D02*
D03*
X2681Y1762D02*
D03*
X2554D02*
D03*
X2427D02*
D03*
X2300D02*
D03*
X2173D02*
D03*
X2046D02*
D03*
X1919D02*
D03*
X1481Y1038D02*
D03*
X1354D02*
D03*
X1227D02*
D03*
X1100D02*
D03*
X973D02*
D03*
X846D02*
D03*
X719D02*
D03*
X1481Y1762D02*
D03*
X1354D02*
D03*
X1227D02*
D03*
X1100D02*
D03*
X973D02*
D03*
X846D02*
D03*
X719D02*
D03*
D20*
X8980Y1945D02*
Y2493D01*
Y1510D02*
Y1735D01*
X520Y1030D02*
X680D01*
X430Y1120D02*
X520Y1030D01*
X430Y1120D02*
Y2490D01*
X550Y2610D01*
X3720D01*
X3800Y2690D01*
Y3000D01*
X8930Y2777D02*
X9045Y2662D01*
X5600Y2777D02*
X8930D01*
X9045Y2558D02*
Y2662D01*
X8980Y2493D02*
X9045Y2558D01*
X5600Y2777D02*
Y3000D01*
M02*
