G04 Layer_Physical_Order=2*
G04 Layer_Color=16711680*
%FSLAX42Y42*%
%MOMM*%
G71*
G01*
G75*
%ADD116C,1.00*%
%ADD118C,3.50*%
%ADD119C,1.27*%
G04:AMPARAMS|DCode=120|XSize=1.4mm|YSize=1.05mm|CornerRadius=0mm|HoleSize=0mm|Usage=FLASHONLY|Rotation=272.678|XOffset=0mm|YOffset=0mm|HoleType=Round|Shape=Rectangle|*
%AMROTATEDRECTD120*
4,1,4,-0.56,0.67,0.49,0.72,0.56,-0.67,-0.49,-0.72,-0.56,0.67,0.0*
%
%ADD120ROTATEDRECTD120*%

G04:AMPARAMS|DCode=121|XSize=1.4mm|YSize=1.05mm|CornerRadius=0mm|HoleSize=0mm|Usage=FLASHONLY|Rotation=2.023|XOffset=0mm|YOffset=0mm|HoleType=Round|Shape=Rectangle|*
%AMROTATEDRECTD121*
4,1,4,-0.68,-0.55,-0.72,0.50,0.68,0.55,0.72,-0.50,-0.68,-0.55,0.0*
%
%ADD121ROTATEDRECTD121*%

G04:AMPARAMS|DCode=122|XSize=1.4mm|YSize=1.05mm|CornerRadius=0mm|HoleSize=0mm|Usage=FLASHONLY|Rotation=3.004|XOffset=0mm|YOffset=0mm|HoleType=Round|Shape=Rectangle|*
%AMROTATEDRECTD122*
4,1,4,-0.67,-0.56,-0.73,0.49,0.67,0.56,0.73,-0.49,-0.67,-0.56,0.0*
%
%ADD122ROTATEDRECTD122*%

G04:AMPARAMS|DCode=123|XSize=1.4mm|YSize=1.05mm|CornerRadius=0mm|HoleSize=0mm|Usage=FLASHONLY|Rotation=272.498|XOffset=0mm|YOffset=0mm|HoleType=Round|Shape=Rectangle|*
%AMROTATEDRECTD123*
4,1,4,-0.56,0.68,0.49,0.72,0.56,-0.68,-0.49,-0.72,-0.56,0.68,0.0*
%
%ADD123ROTATEDRECTD123*%

G04:AMPARAMS|DCode=124|XSize=1.4mm|YSize=1.05mm|CornerRadius=0mm|HoleSize=0mm|Usage=FLASHONLY|Rotation=1.976|XOffset=0mm|YOffset=0mm|HoleType=Round|Shape=Rectangle|*
%AMROTATEDRECTD124*
4,1,4,-0.68,-0.55,-0.72,0.50,0.68,0.55,0.72,-0.50,-0.68,-0.55,0.0*
%
%ADD124ROTATEDRECTD124*%

G04:AMPARAMS|DCode=125|XSize=1.4mm|YSize=1.05mm|CornerRadius=0mm|HoleSize=0mm|Usage=FLASHONLY|Rotation=3.000|XOffset=0mm|YOffset=0mm|HoleType=Round|Shape=Rectangle|*
%AMROTATEDRECTD125*
4,1,4,-0.67,-0.56,-0.73,0.49,0.67,0.56,0.73,-0.49,-0.67,-0.56,0.0*
%
%ADD125ROTATEDRECTD125*%

G04:AMPARAMS|DCode=126|XSize=1.4mm|YSize=1.05mm|CornerRadius=0mm|HoleSize=0mm|Usage=FLASHONLY|Rotation=273.177|XOffset=0mm|YOffset=0mm|HoleType=Round|Shape=Rectangle|*
%AMROTATEDRECTD126*
4,1,4,-0.56,0.67,0.49,0.73,0.56,-0.67,-0.49,-0.73,-0.56,0.67,0.0*
%
%ADD126ROTATEDRECTD126*%

G04:AMPARAMS|DCode=127|XSize=1.4mm|YSize=1.05mm|CornerRadius=0mm|HoleSize=0mm|Usage=FLASHONLY|Rotation=2.523|XOffset=0mm|YOffset=0mm|HoleType=Round|Shape=Rectangle|*
%AMROTATEDRECTD127*
4,1,4,-0.68,-0.56,-0.72,0.49,0.68,0.56,0.72,-0.49,-0.68,-0.56,0.0*
%
%ADD127ROTATEDRECTD127*%

G04:AMPARAMS|DCode=128|XSize=1.45mm|YSize=1.15mm|CornerRadius=0mm|HoleSize=0mm|Usage=FLASHONLY|Rotation=178.525|XOffset=0mm|YOffset=0mm|HoleType=Round|Shape=Rectangle|*
%AMROTATEDRECTD128*
4,1,4,0.74,0.56,0.71,-0.59,-0.74,-0.56,-0.71,0.59,0.74,0.56,0.0*
%
%ADD128ROTATEDRECTD128*%

G04:AMPARAMS|DCode=129|XSize=1.45mm|YSize=1.15mm|CornerRadius=0mm|HoleSize=0mm|Usage=FLASHONLY|Rotation=178.500|XOffset=0mm|YOffset=0mm|HoleType=Round|Shape=Rectangle|*
%AMROTATEDRECTD129*
4,1,4,0.74,0.56,0.71,-0.59,-0.74,-0.56,-0.71,0.59,0.74,0.56,0.0*
%
%ADD129ROTATEDRECTD129*%

G04:AMPARAMS|DCode=130|XSize=1.45mm|YSize=1.15mm|CornerRadius=0mm|HoleSize=0mm|Usage=FLASHONLY|Rotation=177.821|XOffset=0mm|YOffset=0mm|HoleType=Round|Shape=Rectangle|*
%AMROTATEDRECTD130*
4,1,4,0.75,0.55,0.70,-0.60,-0.75,-0.55,-0.70,0.60,0.75,0.55,0.0*
%
%ADD130ROTATEDRECTD130*%

G04:AMPARAMS|DCode=131|XSize=1.45mm|YSize=1.15mm|CornerRadius=0mm|HoleSize=0mm|Usage=FLASHONLY|Rotation=148.237|XOffset=0mm|YOffset=0mm|HoleType=Round|Shape=Rectangle|*
%AMROTATEDRECTD131*
4,1,4,0.92,0.11,0.31,-0.87,-0.92,-0.11,-0.31,0.87,0.92,0.11,0.0*
%
%ADD131ROTATEDRECTD131*%

G04:AMPARAMS|DCode=132|XSize=1.45mm|YSize=1.15mm|CornerRadius=0mm|HoleSize=0mm|Usage=FLASHONLY|Rotation=147.368|XOffset=0mm|YOffset=0mm|HoleType=Round|Shape=Rectangle|*
%AMROTATEDRECTD132*
4,1,4,0.92,0.09,0.30,-0.88,-0.92,-0.09,-0.30,0.88,0.92,0.09,0.0*
%
%ADD132ROTATEDRECTD132*%

G04:AMPARAMS|DCode=133|XSize=1.45mm|YSize=1.15mm|CornerRadius=0mm|HoleSize=0mm|Usage=FLASHONLY|Rotation=146.785|XOffset=0mm|YOffset=0mm|HoleType=Round|Shape=Rectangle|*
%AMROTATEDRECTD133*
4,1,4,0.92,0.08,0.29,-0.88,-0.92,-0.08,-0.29,0.88,0.92,0.08,0.0*
%
%ADD133ROTATEDRECTD133*%

G04:AMPARAMS|DCode=134|XSize=1.45mm|YSize=1.15mm|CornerRadius=0mm|HoleSize=0mm|Usage=FLASHONLY|Rotation=117.269|XOffset=0mm|YOffset=0mm|HoleType=Round|Shape=Rectangle|*
%AMROTATEDRECTD134*
4,1,4,0.84,-0.38,-0.18,-0.91,-0.84,0.38,0.18,0.91,0.84,-0.38,0.0*
%
%ADD134ROTATEDRECTD134*%

G04:AMPARAMS|DCode=135|XSize=1.45mm|YSize=1.15mm|CornerRadius=0mm|HoleSize=0mm|Usage=FLASHONLY|Rotation=117.500|XOffset=0mm|YOffset=0mm|HoleType=Round|Shape=Rectangle|*
%AMROTATEDRECTD135*
4,1,4,0.84,-0.38,-0.18,-0.91,-0.84,0.38,0.18,0.91,0.84,-0.38,0.0*
%
%ADD135ROTATEDRECTD135*%

G04:AMPARAMS|DCode=136|XSize=1.45mm|YSize=1.15mm|CornerRadius=0mm|HoleSize=0mm|Usage=FLASHONLY|Rotation=116.986|XOffset=0mm|YOffset=0mm|HoleType=Round|Shape=Rectangle|*
%AMROTATEDRECTD136*
4,1,4,0.84,-0.39,-0.18,-0.91,-0.84,0.39,0.18,0.91,0.84,-0.39,0.0*
%
%ADD136ROTATEDRECTD136*%

G04:AMPARAMS|DCode=137|XSize=1.45mm|YSize=1.15mm|CornerRadius=0mm|HoleSize=0mm|Usage=FLASHONLY|Rotation=86.739|XOffset=0mm|YOffset=0mm|HoleType=Round|Shape=Rectangle|*
%AMROTATEDRECTD137*
4,1,4,0.53,-0.76,-0.62,-0.69,-0.53,0.76,0.62,0.69,0.53,-0.76,0.0*
%
%ADD137ROTATEDRECTD137*%

G04:AMPARAMS|DCode=138|XSize=1.45mm|YSize=1.15mm|CornerRadius=0mm|HoleSize=0mm|Usage=FLASHONLY|Rotation=86.848|XOffset=0mm|YOffset=0mm|HoleType=Round|Shape=Rectangle|*
%AMROTATEDRECTD138*
4,1,4,0.53,-0.76,-0.61,-0.69,-0.53,0.76,0.61,0.69,0.53,-0.76,0.0*
%
%ADD138ROTATEDRECTD138*%

G04:AMPARAMS|DCode=139|XSize=1.45mm|YSize=1.15mm|CornerRadius=0mm|HoleSize=0mm|Usage=FLASHONLY|Rotation=87.572|XOffset=0mm|YOffset=0mm|HoleType=Round|Shape=Rectangle|*
%AMROTATEDRECTD139*
4,1,4,0.54,-0.75,-0.61,-0.70,-0.54,0.75,0.61,0.70,0.54,-0.75,0.0*
%
%ADD139ROTATEDRECTD139*%

G04:AMPARAMS|DCode=140|XSize=1.45mm|YSize=1.15mm|CornerRadius=0mm|HoleSize=0mm|Usage=FLASHONLY|Rotation=56.445|XOffset=0mm|YOffset=0mm|HoleType=Round|Shape=Rectangle|*
%AMROTATEDRECTD140*
4,1,4,0.08,-0.92,-0.88,-0.29,-0.08,0.92,0.88,0.29,0.08,-0.92,0.0*
%
%ADD140ROTATEDRECTD140*%

G04:AMPARAMS|DCode=141|XSize=1.45mm|YSize=1.15mm|CornerRadius=0mm|HoleSize=0mm|Usage=FLASHONLY|Rotation=56.992|XOffset=0mm|YOffset=0mm|HoleType=Round|Shape=Rectangle|*
%AMROTATEDRECTD141*
4,1,4,0.09,-0.92,-0.88,-0.29,-0.09,0.92,0.88,0.29,0.09,-0.92,0.0*
%
%ADD141ROTATEDRECTD141*%

G04:AMPARAMS|DCode=142|XSize=1.45mm|YSize=1.15mm|CornerRadius=0mm|HoleSize=0mm|Usage=FLASHONLY|Rotation=56.772|XOffset=0mm|YOffset=0mm|HoleType=Round|Shape=Rectangle|*
%AMROTATEDRECTD142*
4,1,4,0.08,-0.92,-0.88,-0.29,-0.08,0.92,0.88,0.29,0.08,-0.92,0.0*
%
%ADD142ROTATEDRECTD142*%

G04:AMPARAMS|DCode=143|XSize=1.45mm|YSize=1.15mm|CornerRadius=0mm|HoleSize=0mm|Usage=FLASHONLY|Rotation=27.272|XOffset=0mm|YOffset=0mm|HoleType=Round|Shape=Rectangle|*
%AMROTATEDRECTD143*
4,1,4,-0.38,-0.84,-0.91,0.18,0.38,0.84,0.91,-0.18,-0.38,-0.84,0.0*
%
%ADD143ROTATEDRECTD143*%

G04:AMPARAMS|DCode=144|XSize=1.45mm|YSize=1.15mm|CornerRadius=0mm|HoleSize=0mm|Usage=FLASHONLY|Rotation=27.304|XOffset=0mm|YOffset=0mm|HoleType=Round|Shape=Rectangle|*
%AMROTATEDRECTD144*
4,1,4,-0.38,-0.84,-0.91,0.18,0.38,0.84,0.91,-0.18,-0.38,-0.84,0.0*
%
%ADD144ROTATEDRECTD144*%

G04:AMPARAMS|DCode=145|XSize=1.45mm|YSize=1.15mm|CornerRadius=0mm|HoleSize=0mm|Usage=FLASHONLY|Rotation=26.794|XOffset=0mm|YOffset=0mm|HoleType=Round|Shape=Rectangle|*
%AMROTATEDRECTD145*
4,1,4,-0.39,-0.84,-0.91,0.19,0.39,0.84,0.91,-0.19,-0.39,-0.84,0.0*
%
%ADD145ROTATEDRECTD145*%

G04:AMPARAMS|DCode=146|XSize=1.45mm|YSize=1.15mm|CornerRadius=0mm|HoleSize=0mm|Usage=FLASHONLY|Rotation=357.220|XOffset=0mm|YOffset=0mm|HoleType=Round|Shape=Rectangle|*
%AMROTATEDRECTD146*
4,1,4,-0.75,-0.54,-0.70,0.61,0.75,0.54,0.70,-0.61,-0.75,-0.54,0.0*
%
%ADD146ROTATEDRECTD146*%

G04:AMPARAMS|DCode=147|XSize=1.45mm|YSize=1.15mm|CornerRadius=0mm|HoleSize=0mm|Usage=FLASHONLY|Rotation=357.169|XOffset=0mm|YOffset=0mm|HoleType=Round|Shape=Rectangle|*
%AMROTATEDRECTD147*
4,1,4,-0.75,-0.54,-0.70,0.61,0.75,0.54,0.70,-0.61,-0.75,-0.54,0.0*
%
%ADD147ROTATEDRECTD147*%

G04:AMPARAMS|DCode=148|XSize=1.45mm|YSize=1.15mm|CornerRadius=0mm|HoleSize=0mm|Usage=FLASHONLY|Rotation=357.386|XOffset=0mm|YOffset=0mm|HoleType=Round|Shape=Rectangle|*
%AMROTATEDRECTD148*
4,1,4,-0.75,-0.54,-0.70,0.61,0.75,0.54,0.70,-0.61,-0.75,-0.54,0.0*
%
%ADD148ROTATEDRECTD148*%

G04:AMPARAMS|DCode=149|XSize=1.45mm|YSize=1.15mm|CornerRadius=0mm|HoleSize=0mm|Usage=FLASHONLY|Rotation=326.426|XOffset=0mm|YOffset=0mm|HoleType=Round|Shape=Rectangle|*
%AMROTATEDRECTD149*
4,1,4,-0.92,-0.08,-0.29,0.88,0.92,0.08,0.29,-0.88,-0.92,-0.08,0.0*
%
%ADD149ROTATEDRECTD149*%

G04:AMPARAMS|DCode=150|XSize=1.45mm|YSize=1.15mm|CornerRadius=0mm|HoleSize=0mm|Usage=FLASHONLY|Rotation=209.832|XOffset=0mm|YOffset=0mm|HoleType=Round|Shape=Rectangle|*
%AMROTATEDRECTD150*
4,1,4,0.34,0.86,0.91,-0.14,-0.34,-0.86,-0.91,0.14,0.34,0.86,0.0*
%
%ADD150ROTATEDRECTD150*%

G04:AMPARAMS|DCode=151|XSize=3mm|YSize=1.5mm|CornerRadius=0mm|HoleSize=0mm|Usage=FLASHONLY|Rotation=98.000|XOffset=0mm|YOffset=0mm|HoleType=Round|Shape=Rectangle|*
%AMROTATEDRECTD151*
4,1,4,0.95,-1.38,-0.53,-1.59,-0.95,1.38,0.53,1.59,0.95,-1.38,0.0*
%
%ADD151ROTATEDRECTD151*%

G04:AMPARAMS|DCode=152|XSize=3mm|YSize=1.5mm|CornerRadius=0mm|HoleSize=0mm|Usage=FLASHONLY|Rotation=272.000|XOffset=0mm|YOffset=0mm|HoleType=Round|Shape=Rectangle|*
%AMROTATEDRECTD152*
4,1,4,-0.80,1.47,0.70,1.53,0.80,-1.47,-0.70,-1.53,-0.80,1.47,0.0*
%
%ADD152ROTATEDRECTD152*%

G04:AMPARAMS|DCode=153|XSize=3mm|YSize=2mm|CornerRadius=0mm|HoleSize=0mm|Usage=FLASHONLY|Rotation=84.000|XOffset=0mm|YOffset=0mm|HoleType=Round|Shape=Rectangle|*
%AMROTATEDRECTD153*
4,1,4,0.84,-1.60,-1.15,-1.39,-0.84,1.60,1.15,1.39,0.84,-1.60,0.0*
%
%ADD153ROTATEDRECTD153*%

G04:AMPARAMS|DCode=154|XSize=3mm|YSize=2mm|CornerRadius=0mm|HoleSize=0mm|Usage=FLASHONLY|Rotation=80.000|XOffset=0mm|YOffset=0mm|HoleType=Round|Shape=Rectangle|*
%AMROTATEDRECTD154*
4,1,4,0.72,-1.65,-1.25,-1.30,-0.72,1.65,1.25,1.30,0.72,-1.65,0.0*
%
%ADD154ROTATEDRECTD154*%

%ADD155C,2.00*%
G36*
X316Y10446D02*
X631Y10432D01*
X946Y10408D01*
X1260Y10375D01*
X1573Y10332D01*
X1884Y10280D01*
X2194Y10218D01*
X2501Y10147D01*
X2806Y10067D01*
X3109Y9978D01*
X3409Y9880D01*
X3706Y9772D01*
X3999Y9656D01*
X4289Y9530D01*
X4575Y9397D01*
X4857Y9254D01*
X5056Y9145D01*
X5052Y9133D01*
X5049Y9093D01*
X5052Y9054D01*
X5064Y9016D01*
X5083Y8981D01*
X5108Y8951D01*
X5138Y8926D01*
X5173Y8907D01*
X5211Y8896D01*
X5250Y8892D01*
X5289Y8896D01*
X5327Y8907D01*
X5362Y8926D01*
X5392Y8951D01*
X5393Y8952D01*
X5407Y8944D01*
X5674Y8777D01*
X5937Y8601D01*
X6194Y8418D01*
X6445Y8227D01*
X6691Y8029D01*
X6930Y7823D01*
X7164Y7610D01*
X7390Y7390D01*
X7610Y7164D01*
X7823Y6930D01*
X8029Y6691D01*
X8227Y6445D01*
X8418Y6194D01*
X8601Y5937D01*
X8777Y5674D01*
X8944Y5407D01*
X8952Y5393D01*
X8951Y5392D01*
X8926Y5362D01*
X8907Y5327D01*
X8896Y5289D01*
X8892Y5250D01*
X8896Y5211D01*
X8907Y5173D01*
X8926Y5138D01*
X8951Y5108D01*
X8981Y5083D01*
X9016Y5064D01*
X9054Y5052D01*
X9093Y5049D01*
X9133Y5052D01*
X9145Y5056D01*
X9254Y4857D01*
X9397Y4575D01*
X9530Y4289D01*
X9656Y3999D01*
X9772Y3706D01*
X9880Y3409D01*
X9978Y3109D01*
X10067Y2806D01*
X10147Y2501D01*
X10218Y2194D01*
X10280Y1884D01*
X10332Y1573D01*
X10375Y1260D01*
X10408Y946D01*
X10432Y631D01*
X10446Y316D01*
X10451Y0D01*
X10446Y-316D01*
X10432Y-631D01*
X10408Y-946D01*
X10375Y-1260D01*
X10332Y-1573D01*
X10280Y-1884D01*
X10218Y-2194D01*
X10147Y-2501D01*
X10067Y-2806D01*
X9978Y-3109D01*
X9880Y-3409D01*
X9772Y-3706D01*
X9656Y-3999D01*
X9530Y-4289D01*
X9397Y-4575D01*
X9254Y-4857D01*
X9145Y-5056D01*
X9133Y-5052D01*
X9093Y-5049D01*
X9054Y-5052D01*
X9016Y-5064D01*
X8981Y-5083D01*
X8951Y-5108D01*
X8926Y-5138D01*
X8907Y-5173D01*
X8896Y-5211D01*
X8892Y-5250D01*
X8896Y-5289D01*
X8907Y-5327D01*
X8926Y-5362D01*
X8951Y-5392D01*
X8952Y-5393D01*
X8944Y-5407D01*
X8777Y-5674D01*
X8601Y-5937D01*
X8418Y-6194D01*
X8227Y-6445D01*
X8029Y-6691D01*
X7823Y-6930D01*
X7610Y-7164D01*
X7390Y-7390D01*
X7164Y-7610D01*
X6930Y-7823D01*
X6691Y-8029D01*
X6445Y-8227D01*
X6194Y-8418D01*
X5937Y-8601D01*
X5674Y-8777D01*
X5407Y-8944D01*
X5393Y-8952D01*
X5392Y-8951D01*
X5362Y-8926D01*
X5327Y-8907D01*
X5289Y-8896D01*
X5250Y-8892D01*
X5211Y-8896D01*
X5173Y-8907D01*
X5138Y-8926D01*
X5108Y-8951D01*
X5083Y-8981D01*
X5064Y-9016D01*
X5052Y-9054D01*
X5049Y-9093D01*
X5052Y-9133D01*
X5056Y-9145D01*
X4857Y-9254D01*
X4575Y-9397D01*
X4289Y-9530D01*
X3999Y-9656D01*
X3706Y-9772D01*
X3409Y-9880D01*
X3109Y-9978D01*
X2806Y-10067D01*
X2501Y-10147D01*
X2194Y-10218D01*
X1884Y-10280D01*
X1573Y-10332D01*
X1260Y-10375D01*
X946Y-10408D01*
X631Y-10432D01*
X316Y-10446D01*
X0Y-10451D01*
X-316Y-10446D01*
X-631Y-10432D01*
X-946Y-10408D01*
X-1260Y-10375D01*
X-1573Y-10332D01*
X-1884Y-10280D01*
X-2194Y-10218D01*
X-2501Y-10147D01*
X-2806Y-10067D01*
X-3109Y-9978D01*
X-3409Y-9880D01*
X-3706Y-9772D01*
X-3999Y-9656D01*
X-4289Y-9530D01*
X-4575Y-9397D01*
X-4857Y-9254D01*
X-5056Y-9145D01*
X-5052Y-9133D01*
X-5049Y-9093D01*
X-5052Y-9054D01*
X-5064Y-9016D01*
X-5083Y-8981D01*
X-5108Y-8951D01*
X-5138Y-8926D01*
X-5173Y-8907D01*
X-5211Y-8896D01*
X-5250Y-8892D01*
X-5289Y-8896D01*
X-5327Y-8907D01*
X-5362Y-8926D01*
X-5392Y-8951D01*
X-5393Y-8952D01*
X-5407Y-8944D01*
X-5674Y-8777D01*
X-5937Y-8601D01*
X-6194Y-8418D01*
X-6445Y-8227D01*
X-6691Y-8029D01*
X-6930Y-7823D01*
X-7164Y-7610D01*
X-7390Y-7390D01*
X-7610Y-7164D01*
X-7823Y-6930D01*
X-8029Y-6691D01*
X-8227Y-6445D01*
X-8418Y-6194D01*
X-8601Y-5937D01*
X-8777Y-5674D01*
X-8944Y-5407D01*
X-8952Y-5393D01*
X-8951Y-5392D01*
X-8926Y-5362D01*
X-8907Y-5327D01*
X-8896Y-5289D01*
X-8892Y-5250D01*
X-8896Y-5211D01*
X-8907Y-5173D01*
X-8926Y-5138D01*
X-8951Y-5108D01*
X-8981Y-5083D01*
X-9016Y-5064D01*
X-9054Y-5052D01*
X-9093Y-5049D01*
X-9133Y-5052D01*
X-9145Y-5056D01*
X-9254Y-4857D01*
X-9397Y-4575D01*
X-9530Y-4289D01*
X-9656Y-3999D01*
X-9772Y-3706D01*
X-9880Y-3409D01*
X-9978Y-3109D01*
X-10067Y-2806D01*
X-10147Y-2501D01*
X-10218Y-2194D01*
X-10280Y-1884D01*
X-10332Y-1573D01*
X-10375Y-1260D01*
X-10408Y-946D01*
X-10432Y-631D01*
X-10446Y-316D01*
X-10451Y0D01*
X-10446Y316D01*
X-10432Y631D01*
X-10408Y946D01*
X-10375Y1260D01*
X-10332Y1573D01*
X-10280Y1884D01*
X-10218Y2194D01*
X-10147Y2501D01*
X-10067Y2806D01*
X-9978Y3109D01*
X-9880Y3409D01*
X-9772Y3706D01*
X-9656Y3999D01*
X-9530Y4289D01*
X-9397Y4575D01*
X-9254Y4857D01*
X-9145Y5056D01*
X-9133Y5052D01*
X-9093Y5049D01*
X-9054Y5052D01*
X-9016Y5064D01*
X-8981Y5083D01*
X-8951Y5108D01*
X-8926Y5138D01*
X-8907Y5173D01*
X-8896Y5211D01*
X-8892Y5250D01*
X-8896Y5289D01*
X-8907Y5327D01*
X-8926Y5362D01*
X-8951Y5392D01*
X-8952Y5393D01*
X-8944Y5407D01*
X-8777Y5674D01*
X-8601Y5937D01*
X-8418Y6194D01*
X-8227Y6445D01*
X-8029Y6691D01*
X-7823Y6930D01*
X-7610Y7164D01*
X-7390Y7390D01*
X-7164Y7610D01*
X-6930Y7823D01*
X-6691Y8029D01*
X-6445Y8227D01*
X-6194Y8418D01*
X-5937Y8601D01*
X-5674Y8777D01*
X-5407Y8944D01*
X-5393Y8952D01*
X-5392Y8951D01*
X-5362Y8926D01*
X-5327Y8907D01*
X-5289Y8896D01*
X-5250Y8892D01*
X-5211Y8896D01*
X-5173Y8907D01*
X-5138Y8926D01*
X-5108Y8951D01*
X-5083Y8981D01*
X-5064Y9016D01*
X-5052Y9054D01*
X-5049Y9093D01*
X-5052Y9133D01*
X-5056Y9145D01*
X-4857Y9254D01*
X-4575Y9397D01*
X-4289Y9530D01*
X-3999Y9656D01*
X-3706Y9772D01*
X-3409Y9880D01*
X-3109Y9978D01*
X-2806Y10067D01*
X-2501Y10147D01*
X-2194Y10218D01*
X-1884Y10280D01*
X-1573Y10332D01*
X-1260Y10375D01*
X-946Y10408D01*
X-631Y10432D01*
X-316Y10446D01*
X0Y10451D01*
X316Y10446D01*
D02*
G37*
%LPC*%
G36*
X390Y-7350D02*
X367Y-7353D01*
X345Y-7362D01*
X326Y-7376D01*
X312Y-7395D01*
X303Y-7417D01*
X300Y-7440D01*
X303Y-7463D01*
X312Y-7485D01*
X315Y-7489D01*
X315Y-7495D01*
X315Y-7507D01*
X314Y-7516D01*
X313Y-7520D01*
X300Y-7521D01*
X301Y-7543D01*
X301Y-7543D01*
X301Y-7543D01*
X301Y-7546D01*
X301Y-7547D01*
X301Y-7548D01*
X307Y-7677D01*
X498Y-7668D01*
X492Y-7539D01*
X492Y-7538D01*
X492Y-7537D01*
X491Y-7513D01*
X476Y-7513D01*
X474Y-7508D01*
X472Y-7500D01*
X470Y-7479D01*
X477Y-7463D01*
X480Y-7440D01*
X477Y-7417D01*
X468Y-7395D01*
X453Y-7376D01*
X435Y-7362D01*
X413Y-7353D01*
X390Y-7350D01*
D02*
G37*
G36*
X7700Y4033D02*
X7553Y3957D01*
X7631Y3807D01*
X7632Y3806D01*
X7632Y3805D01*
X7644Y3783D01*
X7662Y3793D01*
X7663Y3793D01*
X7667Y3791D01*
X7673Y3787D01*
X7681Y3781D01*
X7713Y3751D01*
X7717Y3747D01*
X7821Y3634D01*
X7860Y3549D01*
X7858Y3539D01*
X7861Y3515D01*
X7870Y3494D01*
X7884Y3475D01*
X7903Y3461D01*
X7925Y3452D01*
X7948Y3449D01*
X7971Y3452D01*
X7993Y3461D01*
X8011Y3475D01*
X8025Y3494D01*
X8034Y3515D01*
X8038Y3539D01*
X8034Y3562D01*
X8025Y3583D01*
X8011Y3602D01*
X7998Y3612D01*
X7954Y3708D01*
X7953Y3710D01*
X7952Y3712D01*
X7948Y3718D01*
X7944Y3725D01*
X7942Y3727D01*
X7941Y3728D01*
X7752Y3933D01*
X7700Y4033D01*
D02*
G37*
G36*
X6810Y3579D02*
X6662Y3504D01*
X6740Y3353D01*
X6740Y3352D01*
X6741Y3351D01*
X6752Y3329D01*
X6772Y3340D01*
X6772Y3340D01*
X6774Y3339D01*
X6779Y3337D01*
X6785Y3334D01*
X6793Y3328D01*
X6826Y3300D01*
X6831Y3295D01*
X6915Y3210D01*
X6946Y3142D01*
X6945Y3132D01*
X6948Y3109D01*
X6957Y3087D01*
X6971Y3068D01*
X6989Y3054D01*
X7011Y3045D01*
X7034Y3042D01*
X7058Y3045D01*
X7079Y3054D01*
X7098Y3068D01*
X7112Y3087D01*
X7121Y3109D01*
X7124Y3132D01*
X7121Y3155D01*
X7112Y3177D01*
X7098Y3195D01*
X7084Y3206D01*
X7048Y3286D01*
X7046Y3289D01*
X7045Y3292D01*
X7041Y3297D01*
X7037Y3303D01*
X7035Y3305D01*
X7033Y3308D01*
X6859Y3483D01*
X6810Y3579D01*
D02*
G37*
G36*
X9854Y612D02*
X9830Y611D01*
X9829Y611D01*
X9828Y611D01*
X9699Y604D01*
X9709Y413D01*
X9838Y420D01*
X9839Y420D01*
X9840Y420D01*
X9864Y421D01*
X9864Y435D01*
X9868Y437D01*
X9877Y439D01*
X9897Y441D01*
X9913Y434D01*
X9936Y431D01*
X9960Y434D01*
X9981Y443D01*
X10000Y457D01*
X10014Y476D01*
X10023Y498D01*
X10026Y521D01*
X10023Y544D01*
X10014Y566D01*
X10000Y584D01*
X9981Y598D01*
X9960Y607D01*
X9936Y610D01*
X9913Y607D01*
X9892Y598D01*
X9888Y596D01*
X9881Y596D01*
X9869Y596D01*
X9860Y597D01*
X9855Y598D01*
X9854Y612D01*
D02*
G37*
G36*
X8938Y558D02*
X8915Y555D01*
X8893Y546D01*
X8889Y543D01*
X8870Y543D01*
X8861Y544D01*
X8857Y545D01*
X8857Y558D01*
X8834Y557D01*
X8834Y557D01*
X8834Y557D01*
X8832Y557D01*
X8831Y557D01*
X8830Y557D01*
X8701Y551D01*
X8709Y361D01*
X8838Y366D01*
X8839Y366D01*
X8840Y366D01*
X8865Y367D01*
X8864Y382D01*
X8869Y384D01*
X8878Y386D01*
X8899Y388D01*
X8915Y382D01*
X8938Y379D01*
X8961Y382D01*
X8983Y391D01*
X9001Y405D01*
X9015Y424D01*
X9024Y445D01*
X9027Y468D01*
X9024Y492D01*
X9015Y513D01*
X9001Y532D01*
X8983Y546D01*
X8961Y555D01*
X8938Y558D01*
D02*
G37*
G36*
X-492Y-7512D02*
X-493Y-7534D01*
X-494Y-7535D01*
X-495Y-7536D01*
X-499Y-7539D01*
X-505Y-7543D01*
X-514Y-7547D01*
X-555Y-7562D01*
X-562Y-7564D01*
X-677Y-7594D01*
X-752Y-7587D01*
X-760Y-7580D01*
X-782Y-7571D01*
X-805Y-7568D01*
X-828Y-7571D01*
X-850Y-7580D01*
X-868Y-7594D01*
X-883Y-7613D01*
X-891Y-7635D01*
X-895Y-7658D01*
X-891Y-7681D01*
X-883Y-7703D01*
X-868Y-7721D01*
X-850Y-7735D01*
X-828Y-7744D01*
X-805Y-7747D01*
X-782Y-7744D01*
X-766Y-7738D01*
X-678Y-7746D01*
X-675Y-7746D01*
X-672Y-7747D01*
X-665Y-7746D01*
X-659Y-7746D01*
X-655Y-7745D01*
X-652Y-7744D01*
X-413Y-7682D01*
X-305Y-7687D01*
X-297Y-7521D01*
X-466Y-7513D01*
X-467Y-7513D01*
X-468Y-7513D01*
X-492Y-7512D01*
D02*
G37*
G36*
X9665Y602D02*
X9536Y595D01*
X9535Y595D01*
X9534Y595D01*
X9509Y594D01*
X9510Y580D01*
X9505Y579D01*
X9497Y577D01*
X9477Y574D01*
X9460Y581D01*
X9437Y584D01*
X9414Y581D01*
X9392Y572D01*
X9374Y558D01*
X9359Y539D01*
X9350Y518D01*
X9347Y495D01*
X9350Y471D01*
X9359Y450D01*
X9374Y431D01*
X9392Y417D01*
X9414Y408D01*
X9437Y405D01*
X9460Y408D01*
X9482Y417D01*
X9486Y420D01*
X9493Y420D01*
X9504Y419D01*
X9514Y418D01*
X9518Y417D01*
X9519Y403D01*
X9544Y405D01*
X9545Y404D01*
X9546Y405D01*
X9675Y411D01*
X9665Y602D01*
D02*
G37*
G36*
X8667Y550D02*
X8538Y544D01*
X8537Y544D01*
X8536Y544D01*
X8511Y543D01*
X8512Y528D01*
X8507Y527D01*
X8498Y525D01*
X8478Y522D01*
X8462Y529D01*
X8438Y532D01*
X8415Y529D01*
X8394Y520D01*
X8375Y506D01*
X8361Y487D01*
X8352Y465D01*
X8349Y442D01*
X8352Y419D01*
X8361Y397D01*
X8375Y379D01*
X8394Y365D01*
X8415Y356D01*
X8438Y353D01*
X8462Y356D01*
X8483Y365D01*
X8487Y368D01*
X8506Y367D01*
X8515Y366D01*
X8519Y366D01*
X8519Y353D01*
X8542Y354D01*
X8542Y354D01*
X8542Y354D01*
X8544Y354D01*
X8545Y353D01*
X8546Y354D01*
X8675Y359D01*
X8667Y550D01*
D02*
G37*
G36*
X-7038Y5203D02*
X-7062Y5200D01*
X-7083Y5191D01*
X-7102Y5177D01*
X-7116Y5159D01*
X-7125Y5137D01*
X-7127Y5120D01*
X-7189Y5034D01*
X-7190Y5031D01*
X-7192Y5029D01*
X-7195Y5023D01*
X-7198Y5017D01*
X-7199Y5013D01*
X-7200Y5010D01*
X-7265Y4774D01*
X-7324Y4685D01*
X-7185Y4593D01*
X-7092Y4734D01*
X-7091Y4735D01*
X-7091Y4736D01*
X-7077Y4757D01*
X-7096Y4769D01*
X-7097Y4769D01*
X-7097Y4772D01*
X-7098Y4777D01*
X-7098Y4785D01*
X-7098Y4794D01*
X-7090Y4837D01*
X-7088Y4844D01*
X-7057Y4957D01*
X-7003Y5032D01*
X-6994Y5036D01*
X-6975Y5050D01*
X-6961Y5069D01*
X-6952Y5091D01*
X-6949Y5114D01*
X-6952Y5137D01*
X-6961Y5159D01*
X-6975Y5177D01*
X-6994Y5191D01*
X-7015Y5200D01*
X-7038Y5203D01*
D02*
G37*
G36*
X-8861Y-3856D02*
X-8885Y-3859D01*
X-8906Y-3868D01*
X-8925Y-3882D01*
X-8939Y-3901D01*
X-8948Y-3922D01*
X-8951Y-3945D01*
X-8948Y-3969D01*
X-8939Y-3990D01*
X-8925Y-4009D01*
X-8911Y-4019D01*
X-8860Y-4131D01*
X-8860Y-4132D01*
X-8860Y-4133D01*
X-8855Y-4140D01*
X-8850Y-4148D01*
X-8849Y-4148D01*
X-8849Y-4149D01*
X-8646Y-4383D01*
X-8591Y-4487D01*
X-8444Y-4411D01*
X-8522Y-4261D01*
X-8523Y-4260D01*
X-8523Y-4259D01*
X-8535Y-4237D01*
X-8552Y-4246D01*
X-8556Y-4244D01*
X-8562Y-4240D01*
X-8569Y-4234D01*
X-8600Y-4203D01*
X-8603Y-4199D01*
X-8727Y-4058D01*
X-8773Y-3956D01*
X-8772Y-3945D01*
X-8775Y-3922D01*
X-8784Y-3901D01*
X-8798Y-3882D01*
X-8817Y-3868D01*
X-8838Y-3859D01*
X-8861Y-3856D01*
D02*
G37*
G36*
X-7847Y5791D02*
X-7871Y5788D01*
X-7892Y5779D01*
X-7911Y5765D01*
X-7925Y5746D01*
X-7934Y5725D01*
X-7936Y5708D01*
X-8008Y5608D01*
X-8008Y5607D01*
X-8009Y5606D01*
X-8013Y5598D01*
X-8017Y5590D01*
X-8017Y5589D01*
X-8018Y5588D01*
X-8119Y5295D01*
X-8182Y5197D01*
X-8043Y5107D01*
X-7951Y5249D01*
X-7951Y5250D01*
X-7950Y5251D01*
X-7937Y5272D01*
X-7954Y5282D01*
X-7954Y5287D01*
X-7953Y5294D01*
X-7952Y5303D01*
X-7940Y5346D01*
X-7939Y5351D01*
X-7877Y5528D01*
X-7812Y5620D01*
X-7803Y5624D01*
X-7784Y5638D01*
X-7770Y5657D01*
X-7761Y5678D01*
X-7758Y5702D01*
X-7761Y5725D01*
X-7770Y5746D01*
X-7784Y5765D01*
X-7803Y5779D01*
X-7824Y5788D01*
X-7847Y5791D01*
D02*
G37*
G36*
X499Y-7702D02*
X308Y-7711D01*
X314Y-7840D01*
X314Y-7841D01*
X314Y-7842D01*
X315Y-7866D01*
X330Y-7866D01*
X332Y-7871D01*
X333Y-7879D01*
X336Y-7900D01*
X329Y-7916D01*
X326Y-7939D01*
X329Y-7962D01*
X338Y-7984D01*
X353Y-8003D01*
X371Y-8017D01*
X393Y-8026D01*
X416Y-8029D01*
X439Y-8026D01*
X461Y-8017D01*
X479Y-8003D01*
X494Y-7984D01*
X503Y-7962D01*
X506Y-7939D01*
X503Y-7916D01*
X494Y-7894D01*
X491Y-7890D01*
X491Y-7884D01*
X491Y-7872D01*
X492Y-7862D01*
X493Y-7859D01*
X506Y-7858D01*
X505Y-7835D01*
X505Y-7835D01*
X505Y-7835D01*
X505Y-7833D01*
X505Y-7832D01*
X505Y-7831D01*
X499Y-7702D01*
D02*
G37*
G36*
X8592Y4488D02*
X8444Y4412D01*
X8521Y4262D01*
X8521Y4261D01*
X8522Y4260D01*
X8533Y4238D01*
X8551Y4247D01*
X8555Y4245D01*
X8561Y4241D01*
X8568Y4235D01*
X8599Y4204D01*
X8603Y4200D01*
X8727Y4058D01*
X8773Y3956D01*
X8772Y3945D01*
X8775Y3922D01*
X8784Y3901D01*
X8798Y3882D01*
X8817Y3868D01*
X8838Y3859D01*
X8861Y3856D01*
X8885Y3859D01*
X8906Y3868D01*
X8925Y3882D01*
X8939Y3901D01*
X8948Y3922D01*
X8951Y3945D01*
X8948Y3969D01*
X8939Y3990D01*
X8925Y4009D01*
X8911Y4019D01*
X8860Y4131D01*
X8860Y4132D01*
X8860Y4133D01*
X8855Y4140D01*
X8850Y4148D01*
X8849Y4148D01*
X8849Y4149D01*
X8645Y4384D01*
X8592Y4488D01*
D02*
G37*
G36*
X6368Y-4017D02*
X6274Y-4158D01*
X6274Y-4158D01*
X6273Y-4159D01*
X6260Y-4180D01*
X6278Y-4192D01*
X6279Y-4193D01*
X6279Y-4195D01*
X6280Y-4200D01*
X6280Y-4208D01*
X6280Y-4217D01*
X6272Y-4260D01*
X6270Y-4267D01*
X6238Y-4383D01*
X6194Y-4444D01*
X6185Y-4448D01*
X6166Y-4463D01*
X6152Y-4481D01*
X6143Y-4503D01*
X6140Y-4526D01*
X6143Y-4549D01*
X6152Y-4571D01*
X6166Y-4589D01*
X6185Y-4604D01*
X6206Y-4613D01*
X6229Y-4616D01*
X6253Y-4613D01*
X6274Y-4604D01*
X6293Y-4589D01*
X6307Y-4571D01*
X6316Y-4549D01*
X6318Y-4532D01*
X6369Y-4461D01*
X6371Y-4458D01*
X6373Y-4455D01*
X6376Y-4449D01*
X6379Y-4443D01*
X6379Y-4440D01*
X6381Y-4437D01*
X6447Y-4197D01*
X6506Y-4108D01*
X6368Y-4017D01*
D02*
G37*
G36*
X3957Y-7553D02*
X3807Y-7631D01*
X3806Y-7631D01*
X3805Y-7632D01*
X3783Y-7643D01*
X3793Y-7662D01*
X3793Y-7662D01*
X3791Y-7667D01*
X3787Y-7673D01*
X3781Y-7681D01*
X3751Y-7713D01*
X3747Y-7717D01*
X3634Y-7821D01*
X3549Y-7860D01*
X3539Y-7858D01*
X3515Y-7861D01*
X3494Y-7870D01*
X3475Y-7884D01*
X3461Y-7903D01*
X3452Y-7925D01*
X3449Y-7948D01*
X3452Y-7971D01*
X3461Y-7993D01*
X3475Y-8011D01*
X3494Y-8025D01*
X3515Y-8034D01*
X3539Y-8038D01*
X3562Y-8034D01*
X3583Y-8025D01*
X3602Y-8011D01*
X3612Y-7998D01*
X3708Y-7954D01*
X3710Y-7953D01*
X3712Y-7952D01*
X3718Y-7948D01*
X3725Y-7944D01*
X3727Y-7942D01*
X3728Y-7941D01*
X3933Y-7752D01*
X4033Y-7701D01*
X3957Y-7553D01*
D02*
G37*
G36*
X-6229Y4616D02*
X-6253Y4613D01*
X-6274Y4604D01*
X-6293Y4589D01*
X-6307Y4571D01*
X-6316Y4549D01*
X-6318Y4532D01*
X-6369Y4461D01*
X-6371Y4458D01*
X-6373Y4455D01*
X-6376Y4449D01*
X-6379Y4443D01*
X-6379Y4440D01*
X-6381Y4437D01*
X-6446Y4198D01*
X-6505Y4108D01*
X-6366Y4018D01*
X-6274Y4159D01*
X-6273Y4160D01*
X-6273Y4161D01*
X-6259Y4182D01*
X-6278Y4194D01*
X-6278Y4194D01*
X-6279Y4196D01*
X-6280Y4201D01*
X-6280Y4209D01*
X-6279Y4218D01*
X-6271Y4262D01*
X-6269Y4268D01*
X-6238Y4383D01*
X-6194Y4444D01*
X-6185Y4448D01*
X-6166Y4463D01*
X-6152Y4481D01*
X-6143Y4503D01*
X-6140Y4526D01*
X-6143Y4549D01*
X-6152Y4571D01*
X-6166Y4589D01*
X-6185Y4604D01*
X-6206Y4613D01*
X-6229Y4616D01*
D02*
G37*
G36*
X-7658Y895D02*
X-7681Y891D01*
X-7703Y883D01*
X-7721Y868D01*
X-7735Y850D01*
X-7744Y828D01*
X-7747Y805D01*
X-7744Y782D01*
X-7738Y766D01*
X-7746Y678D01*
X-7746Y675D01*
X-7747Y672D01*
X-7746Y665D01*
X-7746Y659D01*
X-7745Y655D01*
X-7744Y652D01*
X-7682Y412D01*
X-7688Y305D01*
X-7522Y296D01*
X-7513Y464D01*
X-7513Y465D01*
X-7513Y466D01*
X-7511Y491D01*
X-7534Y492D01*
X-7534Y492D01*
X-7536Y494D01*
X-7539Y498D01*
X-7543Y505D01*
X-7547Y513D01*
X-7562Y555D01*
X-7564Y561D01*
X-7594Y677D01*
X-7587Y752D01*
X-7580Y760D01*
X-7571Y782D01*
X-7568Y805D01*
X-7571Y828D01*
X-7580Y850D01*
X-7594Y868D01*
X-7613Y883D01*
X-7635Y891D01*
X-7658Y895D01*
D02*
G37*
G36*
X-7522Y-298D02*
X-7547Y-300D01*
X-7548Y-299D01*
X-7549Y-300D01*
X-7678Y-307D01*
X-7667Y-497D01*
X-7538Y-490D01*
X-7537Y-490D01*
X-7536Y-490D01*
X-7512Y-489D01*
X-7512Y-475D01*
X-7508Y-474D01*
X-7499Y-472D01*
X-7480Y-470D01*
X-7463Y-477D01*
X-7440Y-480D01*
X-7417Y-477D01*
X-7395Y-468D01*
X-7376Y-453D01*
X-7362Y-435D01*
X-7353Y-413D01*
X-7350Y-390D01*
X-7353Y-367D01*
X-7362Y-345D01*
X-7376Y-326D01*
X-7395Y-312D01*
X-7417Y-303D01*
X-7440Y-300D01*
X-7463Y-303D01*
X-7485Y-312D01*
X-7488Y-315D01*
X-7496Y-315D01*
X-7507Y-314D01*
X-7517Y-313D01*
X-7521Y-312D01*
X-7522Y-298D01*
D02*
G37*
G36*
X-4526Y-6140D02*
X-4549Y-6143D01*
X-4571Y-6152D01*
X-4589Y-6166D01*
X-4604Y-6185D01*
X-4613Y-6206D01*
X-4616Y-6229D01*
X-4613Y-6253D01*
X-4604Y-6274D01*
X-4589Y-6293D01*
X-4571Y-6307D01*
X-4549Y-6316D01*
X-4532Y-6318D01*
X-4461Y-6369D01*
X-4458Y-6371D01*
X-4455Y-6373D01*
X-4449Y-6376D01*
X-4443Y-6379D01*
X-4440Y-6379D01*
X-4437Y-6381D01*
X-4197Y-6447D01*
X-4108Y-6506D01*
X-4017Y-6368D01*
X-4157Y-6274D01*
X-4158Y-6274D01*
X-4159Y-6273D01*
X-4180Y-6260D01*
X-4192Y-6278D01*
X-4193Y-6279D01*
X-4195Y-6279D01*
X-4200Y-6280D01*
X-4208Y-6280D01*
X-4217Y-6280D01*
X-4260Y-6272D01*
X-4267Y-6270D01*
X-4383Y-6238D01*
X-4444Y-6194D01*
X-4448Y-6185D01*
X-4463Y-6166D01*
X-4481Y-6152D01*
X-4503Y-6143D01*
X-4526Y-6140D01*
D02*
G37*
G36*
X-9708Y-413D02*
X-9837Y-419D01*
X-9838Y-419D01*
X-9839Y-419D01*
X-9864Y-420D01*
X-9863Y-435D01*
X-9868Y-436D01*
X-9877Y-438D01*
X-9897Y-441D01*
X-9913Y-434D01*
X-9936Y-431D01*
X-9960Y-434D01*
X-9981Y-443D01*
X-10000Y-457D01*
X-10014Y-476D01*
X-10023Y-498D01*
X-10026Y-521D01*
X-10023Y-544D01*
X-10014Y-566D01*
X-10000Y-584D01*
X-9981Y-598D01*
X-9960Y-607D01*
X-9936Y-610D01*
X-9913Y-607D01*
X-9892Y-598D01*
X-9888Y-595D01*
X-9881Y-595D01*
X-9869Y-596D01*
X-9860Y-597D01*
X-9856Y-598D01*
X-9855Y-611D01*
X-9830Y-610D01*
X-9829Y-610D01*
X-9828Y-610D01*
X-9699Y-604D01*
X-9708Y-413D01*
D02*
G37*
G36*
X-8709Y-361D02*
X-8838Y-366D01*
X-8839Y-366D01*
X-8840Y-366D01*
X-8865Y-368D01*
X-8864Y-382D01*
X-8869Y-384D01*
X-8878Y-386D01*
X-8899Y-388D01*
X-8915Y-382D01*
X-8938Y-379D01*
X-8961Y-382D01*
X-8983Y-391D01*
X-9001Y-405D01*
X-9015Y-424D01*
X-9024Y-445D01*
X-9027Y-468D01*
X-9024Y-492D01*
X-9015Y-513D01*
X-9001Y-532D01*
X-8983Y-546D01*
X-8961Y-555D01*
X-8938Y-558D01*
X-8915Y-555D01*
X-8893Y-546D01*
X-8889Y-543D01*
X-8870Y-543D01*
X-8861Y-544D01*
X-8857Y-545D01*
X-8857Y-558D01*
X-8834Y-557D01*
X-8834Y-557D01*
X-8834Y-557D01*
X-8832Y-557D01*
X-8831Y-557D01*
X-8830Y-557D01*
X-8701Y-551D01*
X-8709Y-361D01*
D02*
G37*
G36*
X-9518Y-404D02*
X-9543Y-405D01*
X-9544Y-405D01*
X-9545Y-406D01*
X-9674Y-412D01*
X-9665Y-602D01*
X-9536Y-596D01*
X-9535Y-596D01*
X-9534Y-596D01*
X-9510Y-595D01*
X-9510Y-580D01*
X-9506Y-579D01*
X-9497Y-577D01*
X-9476Y-574D01*
X-9460Y-581D01*
X-9437Y-584D01*
X-9414Y-581D01*
X-9392Y-572D01*
X-9374Y-558D01*
X-9359Y-539D01*
X-9350Y-518D01*
X-9347Y-495D01*
X-9350Y-471D01*
X-9359Y-450D01*
X-9374Y-431D01*
X-9392Y-417D01*
X-9414Y-408D01*
X-9437Y-405D01*
X-9460Y-408D01*
X-9482Y-417D01*
X-9486Y-420D01*
X-9493Y-420D01*
X-9504Y-419D01*
X-9514Y-418D01*
X-9518Y-418D01*
X-9518Y-404D01*
D02*
G37*
G36*
X-7712Y-309D02*
X-7841Y-316D01*
X-7842Y-316D01*
X-7843Y-316D01*
X-7867Y-317D01*
X-7867Y-331D01*
X-7871Y-332D01*
X-7880Y-334D01*
X-7899Y-336D01*
X-7916Y-329D01*
X-7939Y-326D01*
X-7962Y-329D01*
X-7984Y-338D01*
X-8003Y-353D01*
X-8017Y-371D01*
X-8026Y-393D01*
X-8029Y-416D01*
X-8026Y-439D01*
X-8017Y-461D01*
X-8003Y-479D01*
X-7984Y-494D01*
X-7962Y-503D01*
X-7939Y-506D01*
X-7916Y-503D01*
X-7894Y-494D01*
X-7891Y-491D01*
X-7883Y-491D01*
X-7872Y-492D01*
X-7862Y-493D01*
X-7858Y-494D01*
X-7857Y-508D01*
X-7832Y-506D01*
X-7831Y-507D01*
X-7830Y-506D01*
X-7701Y-499D01*
X-7712Y-309D01*
D02*
G37*
G36*
X-8519Y-352D02*
X-8542Y-353D01*
X-8542Y-353D01*
X-8542Y-353D01*
X-8544Y-354D01*
X-8545Y-353D01*
X-8546Y-354D01*
X-8675Y-359D01*
X-8667Y-550D01*
X-8538Y-544D01*
X-8537Y-544D01*
X-8536Y-544D01*
X-8511Y-543D01*
X-8512Y-528D01*
X-8507Y-527D01*
X-8498Y-525D01*
X-8478Y-522D01*
X-8462Y-529D01*
X-8438Y-532D01*
X-8415Y-529D01*
X-8394Y-520D01*
X-8375Y-506D01*
X-8361Y-487D01*
X-8352Y-465D01*
X-8349Y-442D01*
X-8352Y-419D01*
X-8361Y-397D01*
X-8375Y-379D01*
X-8394Y-365D01*
X-8415Y-356D01*
X-8438Y-353D01*
X-8462Y-356D01*
X-8483Y-365D01*
X-8487Y-368D01*
X-8506Y-367D01*
X-8515Y-366D01*
X-8519Y-366D01*
X-8519Y-352D01*
D02*
G37*
G36*
X7205Y-4562D02*
X7113Y-4704D01*
X7112Y-4705D01*
X7112Y-4706D01*
X7098Y-4726D01*
X7116Y-4738D01*
X7116Y-4739D01*
X7117Y-4743D01*
X7116Y-4751D01*
X7115Y-4760D01*
X7105Y-4803D01*
X7104Y-4809D01*
X7058Y-4956D01*
X7003Y-5032D01*
X6994Y-5036D01*
X6975Y-5050D01*
X6961Y-5069D01*
X6952Y-5091D01*
X6949Y-5114D01*
X6952Y-5137D01*
X6961Y-5159D01*
X6975Y-5177D01*
X6994Y-5191D01*
X7015Y-5200D01*
X7038Y-5203D01*
X7062Y-5200D01*
X7083Y-5191D01*
X7102Y-5177D01*
X7116Y-5159D01*
X7125Y-5137D01*
X7127Y-5120D01*
X7189Y-5034D01*
X7189Y-5032D01*
X7191Y-5031D01*
X7194Y-5024D01*
X7198Y-5017D01*
X7198Y-5015D01*
X7199Y-5013D01*
X7283Y-4746D01*
X7344Y-4652D01*
X7205Y-4562D01*
D02*
G37*
G36*
X-5114Y-6949D02*
X-5137Y-6952D01*
X-5159Y-6961D01*
X-5177Y-6975D01*
X-5191Y-6994D01*
X-5200Y-7015D01*
X-5203Y-7038D01*
X-5200Y-7062D01*
X-5191Y-7083D01*
X-5177Y-7102D01*
X-5159Y-7116D01*
X-5137Y-7125D01*
X-5120Y-7127D01*
X-5034Y-7189D01*
X-5032Y-7189D01*
X-5031Y-7191D01*
X-5024Y-7194D01*
X-5017Y-7198D01*
X-5015Y-7198D01*
X-5013Y-7199D01*
X-4746Y-7283D01*
X-4652Y-7344D01*
X-4562Y-7205D01*
X-4704Y-7113D01*
X-4705Y-7112D01*
X-4705Y-7112D01*
X-4726Y-7098D01*
X-4738Y-7116D01*
X-4739Y-7116D01*
X-4743Y-7117D01*
X-4751Y-7116D01*
X-4760Y-7115D01*
X-4803Y-7105D01*
X-4809Y-7104D01*
X-4956Y-7058D01*
X-5032Y-7003D01*
X-5036Y-6994D01*
X-5050Y-6975D01*
X-5069Y-6961D01*
X-5091Y-6952D01*
X-5114Y-6949D01*
D02*
G37*
G36*
X7939Y506D02*
X7916Y503D01*
X7894Y494D01*
X7893Y493D01*
X7885Y493D01*
X7862Y495D01*
X7859Y495D01*
X7859Y505D01*
X7834Y504D01*
X7833Y504D01*
X7833Y504D01*
X7833Y504D01*
X7832Y504D01*
X7703Y499D01*
X7710Y308D01*
X7839Y313D01*
X7840Y313D01*
X7841Y313D01*
X7866Y314D01*
X7865Y333D01*
X7870Y334D01*
X7879Y336D01*
X7890Y338D01*
X7895Y338D01*
X7916Y329D01*
X7939Y326D01*
X7962Y329D01*
X7984Y338D01*
X8003Y353D01*
X8017Y371D01*
X8026Y393D01*
X8029Y416D01*
X8026Y439D01*
X8017Y461D01*
X8003Y479D01*
X7984Y494D01*
X7962Y503D01*
X7939Y506D01*
D02*
G37*
G36*
X7669Y498D02*
X7540Y493D01*
X7539Y493D01*
X7538Y493D01*
X7513Y492D01*
X7514Y473D01*
X7509Y472D01*
X7500Y470D01*
X7489Y468D01*
X7484Y468D01*
X7463Y477D01*
X7440Y480D01*
X7417Y477D01*
X7395Y468D01*
X7376Y453D01*
X7362Y435D01*
X7353Y413D01*
X7350Y390D01*
X7353Y367D01*
X7362Y345D01*
X7376Y326D01*
X7395Y312D01*
X7417Y303D01*
X7440Y300D01*
X7463Y303D01*
X7485Y312D01*
X7486Y313D01*
X7494Y313D01*
X7517Y311D01*
X7520Y311D01*
X7520Y301D01*
X7545Y302D01*
X7546Y302D01*
X7546Y302D01*
X7546Y302D01*
X7547Y302D01*
X7676Y307D01*
X7669Y498D01*
D02*
G37*
G36*
X8044Y-5106D02*
X7951Y-5248D01*
X7951Y-5249D01*
X7950Y-5249D01*
X7937Y-5270D01*
X7954Y-5281D01*
X7954Y-5286D01*
X7953Y-5293D01*
X7952Y-5302D01*
X7941Y-5345D01*
X7939Y-5350D01*
X7877Y-5528D01*
X7812Y-5620D01*
X7803Y-5624D01*
X7784Y-5638D01*
X7770Y-5657D01*
X7761Y-5678D01*
X7758Y-5702D01*
X7761Y-5725D01*
X7770Y-5746D01*
X7784Y-5765D01*
X7803Y-5779D01*
X7824Y-5788D01*
X7847Y-5791D01*
X7871Y-5788D01*
X7892Y-5779D01*
X7911Y-5765D01*
X7925Y-5746D01*
X7934Y-5725D01*
X7936Y-5708D01*
X8008Y-5608D01*
X8008Y-5607D01*
X8009Y-5606D01*
X8013Y-5598D01*
X8017Y-5590D01*
X8017Y-5589D01*
X8018Y-5589D01*
X8119Y-5294D01*
X8183Y-5197D01*
X8044Y-5106D01*
D02*
G37*
G36*
X-8652Y999D02*
X-8676Y996D01*
X-8697Y987D01*
X-8716Y973D01*
X-8730Y954D01*
X-8739Y933D01*
X-8742Y909D01*
X-8739Y886D01*
X-8732Y871D01*
X-8743Y766D01*
X-8743Y763D01*
X-8743Y761D01*
X-8742Y754D01*
X-8742Y746D01*
X-8741Y744D01*
X-8741Y742D01*
X-8680Y471D01*
X-8685Y357D01*
X-8519Y351D01*
X-8512Y520D01*
X-8512Y521D01*
X-8512Y521D01*
X-8511Y546D01*
X-8532Y547D01*
X-8532Y547D01*
X-8535Y551D01*
X-8539Y558D01*
X-8542Y566D01*
X-8555Y608D01*
X-8557Y614D01*
X-8590Y763D01*
X-8581Y856D01*
X-8575Y865D01*
X-8566Y886D01*
X-8563Y909D01*
X-8566Y933D01*
X-8575Y954D01*
X-8589Y973D01*
X-8608Y987D01*
X-8629Y996D01*
X-8652Y999D01*
D02*
G37*
G36*
X-9647Y1104D02*
X-9670Y1101D01*
X-9692Y1092D01*
X-9710Y1077D01*
X-9725Y1059D01*
X-9733Y1037D01*
X-9737Y1014D01*
X-9733Y991D01*
X-9727Y975D01*
X-9739Y853D01*
X-9739Y850D01*
X-9739Y848D01*
X-9738Y841D01*
X-9738Y833D01*
X-9737Y831D01*
X-9737Y829D01*
X-9677Y562D01*
X-9683Y452D01*
X-9517Y442D01*
X-9508Y611D01*
X-9507Y612D01*
X-9508Y613D01*
X-9506Y638D01*
X-9528Y639D01*
X-9529Y640D01*
X-9531Y644D01*
X-9535Y650D01*
X-9539Y659D01*
X-9552Y701D01*
X-9554Y707D01*
X-9586Y850D01*
X-9576Y961D01*
X-9569Y969D01*
X-9560Y991D01*
X-9557Y1014D01*
X-9560Y1037D01*
X-9569Y1059D01*
X-9583Y1077D01*
X-9602Y1092D01*
X-9624Y1101D01*
X-9647Y1104D01*
D02*
G37*
G36*
X3504Y-6662D02*
X3353Y-6740D01*
X3352Y-6740D01*
X3351Y-6741D01*
X3329Y-6752D01*
X3340Y-6772D01*
X3340Y-6772D01*
X3339Y-6774D01*
X3337Y-6779D01*
X3334Y-6785D01*
X3328Y-6793D01*
X3300Y-6826D01*
X3295Y-6831D01*
X3210Y-6915D01*
X3142Y-6946D01*
X3132Y-6945D01*
X3109Y-6948D01*
X3087Y-6957D01*
X3068Y-6971D01*
X3054Y-6989D01*
X3045Y-7011D01*
X3042Y-7034D01*
X3045Y-7058D01*
X3054Y-7079D01*
X3068Y-7098D01*
X3087Y-7112D01*
X3109Y-7121D01*
X3132Y-7124D01*
X3155Y-7121D01*
X3177Y-7112D01*
X3195Y-7098D01*
X3206Y-7084D01*
X3286Y-7048D01*
X3289Y-7046D01*
X3292Y-7045D01*
X3297Y-7041D01*
X3303Y-7037D01*
X3305Y-7035D01*
X3308Y-7033D01*
X3483Y-6859D01*
X3579Y-6810D01*
X3504Y-6662D01*
D02*
G37*
G36*
X-447Y8628D02*
X-471Y8625D01*
X-492Y8616D01*
X-511Y8602D01*
X-525Y8583D01*
X-534Y8561D01*
X-537Y8538D01*
X-534Y8515D01*
X-525Y8493D01*
X-521Y8488D01*
X-517Y8417D01*
X-517Y8413D01*
X-517Y8383D01*
X-518Y8371D01*
X-519Y8362D01*
X-519Y8357D01*
X-533Y8356D01*
X-532Y8332D01*
X-532Y8331D01*
X-532Y8330D01*
X-525Y8201D01*
X-335Y8211D01*
X-342Y8340D01*
X-341Y8341D01*
X-342Y8342D01*
X-343Y8366D01*
X-357Y8366D01*
X-358Y8370D01*
X-360Y8379D01*
X-365Y8422D01*
X-365Y8425D01*
X-369Y8495D01*
X-361Y8515D01*
X-358Y8538D01*
X-361Y8561D01*
X-370Y8583D01*
X-384Y8602D01*
X-403Y8616D01*
X-424Y8625D01*
X-447Y8628D01*
D02*
G37*
G36*
X551Y-8702D02*
X361Y-8708D01*
X365Y-8838D01*
X365Y-8838D01*
X365Y-8839D01*
X366Y-8864D01*
X381Y-8864D01*
X383Y-8869D01*
X385Y-8878D01*
X388Y-8899D01*
X382Y-8915D01*
X379Y-8938D01*
X382Y-8961D01*
X391Y-8983D01*
X405Y-9001D01*
X424Y-9015D01*
X445Y-9024D01*
X468Y-9027D01*
X492Y-9024D01*
X513Y-9015D01*
X532Y-9001D01*
X546Y-8983D01*
X555Y-8961D01*
X558Y-8938D01*
X555Y-8915D01*
X546Y-8893D01*
X543Y-8889D01*
X543Y-8871D01*
X544Y-8861D01*
X544Y-8858D01*
X557Y-8858D01*
X556Y-8835D01*
X556Y-8835D01*
X556Y-8834D01*
X556Y-8833D01*
X556Y-8832D01*
X556Y-8831D01*
X551Y-8702D01*
D02*
G37*
G36*
X-598Y-9510D02*
X-598Y-9529D01*
X-602Y-9531D01*
X-609Y-9535D01*
X-617Y-9538D01*
X-660Y-9550D01*
X-665Y-9551D01*
X-849Y-9586D01*
X-961Y-9576D01*
X-969Y-9569D01*
X-991Y-9560D01*
X-1014Y-9557D01*
X-1037Y-9560D01*
X-1059Y-9569D01*
X-1077Y-9583D01*
X-1092Y-9602D01*
X-1101Y-9624D01*
X-1104Y-9647D01*
X-1101Y-9670D01*
X-1092Y-9692D01*
X-1077Y-9710D01*
X-1059Y-9725D01*
X-1037Y-9733D01*
X-1014Y-9737D01*
X-991Y-9733D01*
X-975Y-9727D01*
X-853Y-9739D01*
X-852Y-9739D01*
X-851Y-9739D01*
X-842Y-9738D01*
X-833Y-9738D01*
X-832Y-9738D01*
X-831Y-9738D01*
X-527Y-9679D01*
X-410Y-9684D01*
X-402Y-9518D01*
X-571Y-9511D01*
X-572Y-9511D01*
X-573Y-9511D01*
X-598Y-9510D01*
D02*
G37*
G36*
X9518Y-403D02*
X9511Y-571D01*
X9511Y-572D01*
X9511Y-573D01*
X9510Y-598D01*
X9530Y-599D01*
X9532Y-602D01*
X9535Y-609D01*
X9538Y-618D01*
X9550Y-660D01*
X9551Y-665D01*
X9586Y-849D01*
X9576Y-961D01*
X9569Y-969D01*
X9560Y-991D01*
X9557Y-1014D01*
X9560Y-1037D01*
X9569Y-1059D01*
X9583Y-1077D01*
X9602Y-1092D01*
X9624Y-1101D01*
X9647Y-1104D01*
X9670Y-1101D01*
X9692Y-1092D01*
X9710Y-1077D01*
X9725Y-1059D01*
X9733Y-1037D01*
X9737Y-1014D01*
X9733Y-991D01*
X9727Y-975D01*
X9739Y-853D01*
X9739Y-852D01*
X9739Y-851D01*
X9738Y-842D01*
X9738Y-833D01*
X9738Y-832D01*
X9738Y-831D01*
X9679Y-527D01*
X9684Y-410D01*
X9518Y-403D01*
D02*
G37*
G36*
X5197Y8183D02*
X5106Y8044D01*
X5248Y7951D01*
X5249Y7951D01*
X5249Y7950D01*
X5270Y7937D01*
X5281Y7954D01*
X5286Y7954D01*
X5293Y7953D01*
X5302Y7952D01*
X5345Y7941D01*
X5350Y7939D01*
X5528Y7877D01*
X5620Y7812D01*
X5624Y7803D01*
X5638Y7784D01*
X5657Y7770D01*
X5678Y7761D01*
X5702Y7758D01*
X5725Y7761D01*
X5746Y7770D01*
X5765Y7784D01*
X5779Y7803D01*
X5788Y7824D01*
X5791Y7847D01*
X5788Y7871D01*
X5779Y7892D01*
X5765Y7911D01*
X5746Y7925D01*
X5725Y7934D01*
X5708Y7936D01*
X5608Y8008D01*
X5607Y8008D01*
X5606Y8009D01*
X5598Y8013D01*
X5590Y8017D01*
X5589Y8017D01*
X5589Y8018D01*
X5294Y8119D01*
X5197Y8183D01*
D02*
G37*
G36*
X-333Y8177D02*
X-524Y8167D01*
X-517Y8038D01*
X-517Y8037D01*
X-517Y8036D01*
X-515Y8011D01*
X-501Y8012D01*
X-500Y8008D01*
X-498Y7999D01*
X-493Y7956D01*
X-493Y7953D01*
X-489Y7882D01*
X-497Y7862D01*
X-501Y7839D01*
X-497Y7816D01*
X-488Y7794D01*
X-474Y7776D01*
X-456Y7762D01*
X-434Y7753D01*
X-411Y7750D01*
X-388Y7753D01*
X-366Y7762D01*
X-347Y7776D01*
X-333Y7794D01*
X-324Y7816D01*
X-321Y7839D01*
X-324Y7862D01*
X-333Y7884D01*
X-337Y7889D01*
X-341Y7961D01*
X-341Y7964D01*
X-341Y7995D01*
X-341Y8007D01*
X-340Y8016D01*
X-339Y8020D01*
X-325Y8021D01*
X-326Y8046D01*
X-326Y8047D01*
X-326Y8048D01*
X-333Y8177D01*
D02*
G37*
G36*
X8521Y-348D02*
X8512Y-517D01*
X8511Y-518D01*
X8511Y-519D01*
X8510Y-544D01*
X8532Y-545D01*
X8532Y-545D01*
X8535Y-549D01*
X8538Y-556D01*
X8542Y-565D01*
X8555Y-607D01*
X8556Y-613D01*
X8590Y-763D01*
X8581Y-856D01*
X8575Y-865D01*
X8566Y-886D01*
X8563Y-909D01*
X8566Y-933D01*
X8575Y-954D01*
X8589Y-973D01*
X8608Y-987D01*
X8629Y-996D01*
X8652Y-999D01*
X8676Y-996D01*
X8697Y-987D01*
X8716Y-973D01*
X8730Y-954D01*
X8739Y-933D01*
X8742Y-909D01*
X8739Y-886D01*
X8732Y-871D01*
X8743Y-766D01*
X8743Y-763D01*
X8743Y-761D01*
X8742Y-754D01*
X8742Y-746D01*
X8741Y-744D01*
X8741Y-742D01*
X8680Y-469D01*
X8686Y-357D01*
X8521Y-348D01*
D02*
G37*
G36*
X-3539Y8038D02*
X-3562Y8034D01*
X-3583Y8025D01*
X-3602Y8011D01*
X-3612Y7998D01*
X-3708Y7954D01*
X-3710Y7953D01*
X-3712Y7952D01*
X-3719Y7948D01*
X-3725Y7944D01*
X-3727Y7942D01*
X-3728Y7941D01*
X-3928Y7756D01*
X-4031Y7697D01*
X-3949Y7553D01*
X-3802Y7637D01*
X-3801Y7638D01*
X-3800Y7638D01*
X-3779Y7650D01*
X-3788Y7667D01*
X-3787Y7670D01*
X-3783Y7677D01*
X-3777Y7684D01*
X-3747Y7716D01*
X-3744Y7719D01*
X-3634Y7821D01*
X-3549Y7860D01*
X-3539Y7858D01*
X-3515Y7861D01*
X-3494Y7870D01*
X-3475Y7884D01*
X-3461Y7903D01*
X-3452Y7925D01*
X-3449Y7948D01*
X-3452Y7971D01*
X-3461Y7993D01*
X-3475Y8011D01*
X-3494Y8025D01*
X-3515Y8034D01*
X-3539Y8038D01*
D02*
G37*
G36*
X604Y-9700D02*
X413Y-9707D01*
X417Y-9836D01*
X417Y-9837D01*
X418Y-9838D01*
X418Y-9863D01*
X434Y-9862D01*
X436Y-9868D01*
X438Y-9876D01*
X441Y-9898D01*
X434Y-9913D01*
X431Y-9936D01*
X434Y-9960D01*
X443Y-9981D01*
X457Y-10000D01*
X476Y-10014D01*
X498Y-10023D01*
X521Y-10026D01*
X544Y-10023D01*
X566Y-10014D01*
X584Y-10000D01*
X598Y-9981D01*
X607Y-9960D01*
X610Y-9936D01*
X607Y-9913D01*
X598Y-9892D01*
X595Y-9887D01*
X595Y-9869D01*
X596Y-9860D01*
X597Y-9857D01*
X609Y-9856D01*
X608Y-9833D01*
X608Y-9833D01*
X608Y-9833D01*
X608Y-9831D01*
X608Y-9830D01*
X608Y-9829D01*
X604Y-9700D01*
D02*
G37*
G36*
X-7034Y-3042D02*
X-7058Y-3045D01*
X-7079Y-3054D01*
X-7098Y-3068D01*
X-7112Y-3087D01*
X-7121Y-3109D01*
X-7124Y-3132D01*
X-7121Y-3155D01*
X-7112Y-3177D01*
X-7098Y-3195D01*
X-7084Y-3206D01*
X-7048Y-3286D01*
X-7046Y-3289D01*
X-7045Y-3292D01*
X-7041Y-3297D01*
X-7037Y-3303D01*
X-7035Y-3305D01*
X-7033Y-3308D01*
X-6859Y-3484D01*
X-6810Y-3580D01*
X-6662Y-3504D01*
X-6739Y-3354D01*
X-6740Y-3353D01*
X-6740Y-3352D01*
X-6751Y-3330D01*
X-6771Y-3340D01*
X-6772Y-3340D01*
X-6773Y-3340D01*
X-6778Y-3338D01*
X-6785Y-3334D01*
X-6793Y-3329D01*
X-6826Y-3300D01*
X-6831Y-3295D01*
X-6915Y-3210D01*
X-6946Y-3142D01*
X-6945Y-3132D01*
X-6948Y-3109D01*
X-6957Y-3087D01*
X-6971Y-3068D01*
X-6989Y-3054D01*
X-7011Y-3045D01*
X-7034Y-3042D01*
D02*
G37*
G36*
X1014Y9737D02*
X991Y9733D01*
X969Y9725D01*
X951Y9710D01*
X936Y9692D01*
X928Y9673D01*
X668D01*
X607Y9674D01*
X605Y9676D01*
Y9676D01*
X581Y9677D01*
X580Y9677D01*
X579Y9677D01*
X577Y9677D01*
X577Y9677D01*
X577Y9677D01*
X410Y9683D01*
X403Y9518D01*
X571Y9511D01*
X571Y9511D01*
X572Y9511D01*
X572Y9511D01*
X573Y9511D01*
X574Y9511D01*
X599Y9510D01*
X599Y9517D01*
X656Y9521D01*
X964D01*
X984Y9523D01*
X1002Y9531D01*
X1018Y9543D01*
X1035Y9560D01*
X1037Y9560D01*
X1059Y9569D01*
X1077Y9583D01*
X1092Y9602D01*
X1101Y9624D01*
X1104Y9647D01*
X1101Y9670D01*
X1092Y9692D01*
X1077Y9710D01*
X1059Y9725D01*
X1037Y9733D01*
X1014Y9737D01*
D02*
G37*
G36*
X-500Y9627D02*
X-523Y9624D01*
X-545Y9615D01*
X-563Y9600D01*
X-577Y9582D01*
X-586Y9560D01*
X-588Y9547D01*
X-593Y9544D01*
X-602Y9542D01*
X-618Y9555D01*
X-639Y9563D01*
X-663Y9567D01*
X-686Y9563D01*
X-708Y9555D01*
X-726Y9540D01*
X-740Y9522D01*
X-749Y9500D01*
X-752Y9482D01*
X-853Y9337D01*
X-979Y9325D01*
X-980Y9325D01*
X-980Y9325D01*
X-989Y9322D01*
X-999Y9320D01*
X-999Y9320D01*
X-999Y9320D01*
X-1008Y9315D01*
X-1016Y9311D01*
X-1017Y9311D01*
X-1017Y9311D01*
X-1024Y9304D01*
X-1031Y9297D01*
X-1031Y9297D01*
X-1031Y9297D01*
X-1036Y9289D01*
X-1041Y9281D01*
X-1041Y9280D01*
X-1042Y9280D01*
X-1044Y9271D01*
X-1047Y9262D01*
X-1047Y9261D01*
X-1047Y9261D01*
X-1047Y9251D01*
X-1048Y9242D01*
X-1048Y9241D01*
X-1048Y9241D01*
X-842Y7279D01*
X-935Y7139D01*
X-938Y7132D01*
X-941Y7126D01*
X-942Y7124D01*
X-943Y7121D01*
X-945Y7114D01*
X-947Y7107D01*
X-947Y7104D01*
X-947Y7101D01*
X-947Y7094D01*
X-947Y7087D01*
X-944Y7062D01*
X-971Y7058D01*
X-922Y6711D01*
X-723Y6738D01*
X-772Y7086D01*
X-774Y7086D01*
X-780Y7096D01*
X-700Y7218D01*
X-697Y7224D01*
X-694Y7229D01*
X-693Y7233D01*
X-691Y7236D01*
X-690Y7242D01*
X-688Y7248D01*
X-688Y7252D01*
X-687Y7255D01*
X-688Y7262D01*
X-687Y7268D01*
X-888Y9172D01*
X-879Y9182D01*
X-803Y9189D01*
X-800Y9190D01*
X-797Y9190D01*
X-791Y9192D01*
X-784Y9193D01*
X-781Y9195D01*
X-778Y9196D01*
X-772Y9199D01*
X-766Y9203D01*
X-764Y9205D01*
X-762Y9206D01*
X-757Y9212D01*
X-752Y9216D01*
X-750Y9219D01*
X-748Y9221D01*
X-627Y9396D01*
X-618Y9399D01*
X-599Y9413D01*
X-585Y9432D01*
X-583Y9436D01*
X-571Y9434D01*
X-570Y9416D01*
X-569Y9412D01*
X-569Y9381D01*
X-570Y9370D01*
X-571Y9360D01*
X-572Y9356D01*
X-586Y9355D01*
X-585Y9330D01*
X-585Y9329D01*
X-584Y9328D01*
X-578Y9199D01*
X-387Y9209D01*
X-394Y9338D01*
X-394Y9339D01*
X-394Y9340D01*
X-395Y9365D01*
X-409Y9364D01*
X-411Y9369D01*
X-412Y9377D01*
X-418Y9420D01*
X-418Y9424D01*
X-421Y9494D01*
X-413Y9514D01*
X-410Y9537D01*
X-413Y9560D01*
X-422Y9582D01*
X-436Y9600D01*
X-455Y9615D01*
X-477Y9624D01*
X-500Y9627D01*
D02*
G37*
G36*
X-385Y9175D02*
X-576Y9165D01*
X-569Y9036D01*
X-569Y9035D01*
X-569Y9034D01*
X-568Y9010D01*
X-554Y9010D01*
X-552Y9006D01*
X-551Y8997D01*
X-545Y8955D01*
X-545Y8951D01*
X-542Y8881D01*
X-550Y8861D01*
X-553Y8838D01*
X-550Y8815D01*
X-541Y8793D01*
X-527Y8774D01*
X-508Y8760D01*
X-486Y8751D01*
X-463Y8748D01*
X-440Y8751D01*
X-418Y8760D01*
X-400Y8774D01*
X-386Y8793D01*
X-377Y8815D01*
X-374Y8838D01*
X-377Y8861D01*
X-386Y8883D01*
X-390Y8888D01*
X-393Y8959D01*
X-394Y8963D01*
X-394Y8994D01*
X-393Y9005D01*
X-392Y9015D01*
X-391Y9019D01*
X-377Y9020D01*
X-378Y9044D01*
X-378Y9045D01*
X-379Y9046D01*
X-385Y9175D01*
D02*
G37*
G36*
X895Y8757D02*
X872Y8754D01*
X850Y8745D01*
X848Y8743D01*
X758D01*
X750Y8742D01*
X742Y8741D01*
X473Y8681D01*
X357Y8684D01*
X353Y8518D01*
X522Y8513D01*
X523Y8513D01*
X524Y8513D01*
X549Y8513D01*
X549Y8533D01*
X553Y8536D01*
X560Y8539D01*
X568Y8543D01*
X610Y8555D01*
X615Y8557D01*
X767Y8591D01*
X848D01*
X850Y8589D01*
X872Y8580D01*
X895Y8577D01*
X918Y8580D01*
X940Y8589D01*
X958Y8603D01*
X972Y8622D01*
X981Y8644D01*
X985Y8667D01*
X981Y8690D01*
X972Y8712D01*
X958Y8730D01*
X940Y8745D01*
X918Y8754D01*
X895Y8757D01*
D02*
G37*
G36*
X495Y-9347D02*
X471Y-9350D01*
X450Y-9359D01*
X431Y-9374D01*
X417Y-9392D01*
X408Y-9414D01*
X405Y-9437D01*
X408Y-9460D01*
X417Y-9482D01*
X420Y-9486D01*
X420Y-9504D01*
X419Y-9513D01*
X419Y-9517D01*
X406Y-9517D01*
X407Y-9540D01*
X407Y-9540D01*
X407Y-9541D01*
X407Y-9542D01*
X407Y-9543D01*
X407Y-9544D01*
X412Y-9673D01*
X602Y-9666D01*
X598Y-9537D01*
X598Y-9536D01*
X598Y-9535D01*
X597Y-9511D01*
X581Y-9511D01*
X580Y-9506D01*
X578Y-9497D01*
X575Y-9476D01*
X581Y-9460D01*
X584Y-9437D01*
X581Y-9414D01*
X572Y-9392D01*
X558Y-9374D01*
X539Y-9359D01*
X518Y-9350D01*
X495Y-9347D01*
D02*
G37*
G36*
X-3945Y8951D02*
X-3969Y8948D01*
X-3990Y8939D01*
X-4009Y8925D01*
X-4019Y8911D01*
X-4131Y8860D01*
X-4132Y8860D01*
X-4133Y8860D01*
X-4140Y8855D01*
X-4148Y8850D01*
X-4148Y8849D01*
X-4149Y8849D01*
X-4384Y8645D01*
X-4488Y8592D01*
X-4413Y8444D01*
X-4262Y8521D01*
X-4261Y8521D01*
X-4260Y8522D01*
X-4238Y8533D01*
X-4247Y8551D01*
X-4245Y8555D01*
X-4241Y8561D01*
X-4235Y8568D01*
X-4204Y8599D01*
X-4200Y8603D01*
X-4058Y8727D01*
X-3956Y8773D01*
X-3945Y8772D01*
X-3922Y8775D01*
X-3901Y8784D01*
X-3882Y8798D01*
X-3868Y8817D01*
X-3859Y8838D01*
X-3856Y8861D01*
X-3859Y8885D01*
X-3868Y8906D01*
X-3882Y8925D01*
X-3901Y8939D01*
X-3922Y8948D01*
X-3945Y8951D01*
D02*
G37*
G36*
X0Y7790D02*
X-23Y7787D01*
X-45Y7778D01*
X-63Y7763D01*
X-78Y7745D01*
X-87Y7723D01*
X-90Y7700D01*
X-87Y7677D01*
X-78Y7655D01*
X-76Y7653D01*
Y7376D01*
X-127Y7325D01*
X-245D01*
X-264Y7322D01*
X-275Y7318D01*
X-283Y7315D01*
X-298Y7303D01*
X-418Y7184D01*
X-430Y7168D01*
X-437Y7149D01*
X-440Y7130D01*
Y7113D01*
X-470Y7112D01*
X-458Y6762D01*
X-257Y6769D01*
X-269Y7116D01*
X-213Y7173D01*
X-95D01*
X-75Y7175D01*
X-57Y7183D01*
X-41Y7195D01*
X54Y7290D01*
X66Y7306D01*
X69Y7314D01*
X73Y7324D01*
X76Y7344D01*
Y7653D01*
X78Y7655D01*
X87Y7677D01*
X90Y7700D01*
X87Y7723D01*
X78Y7745D01*
X63Y7763D01*
X45Y7778D01*
X23Y7787D01*
X0Y7790D01*
D02*
G37*
G36*
X-545Y-8511D02*
X-546Y-8532D01*
X-546Y-8532D01*
X-550Y-8535D01*
X-557Y-8538D01*
X-565Y-8542D01*
X-607Y-8555D01*
X-613Y-8557D01*
X-763Y-8590D01*
X-856Y-8581D01*
X-865Y-8575D01*
X-886Y-8566D01*
X-909Y-8563D01*
X-933Y-8566D01*
X-954Y-8575D01*
X-973Y-8589D01*
X-987Y-8608D01*
X-996Y-8629D01*
X-999Y-8652D01*
X-996Y-8676D01*
X-987Y-8697D01*
X-973Y-8716D01*
X-954Y-8730D01*
X-933Y-8739D01*
X-909Y-8742D01*
X-886Y-8739D01*
X-871Y-8732D01*
X-766Y-8743D01*
X-763Y-8743D01*
X-761Y-8743D01*
X-754Y-8742D01*
X-746Y-8742D01*
X-744Y-8741D01*
X-742Y-8741D01*
X-469Y-8680D01*
X-357Y-8686D01*
X-349Y-8520D01*
X-518Y-8512D01*
X-519Y-8512D01*
X-520Y-8512D01*
X-545Y-8511D01*
D02*
G37*
G36*
X-3132Y7124D02*
X-3155Y7121D01*
X-3177Y7112D01*
X-3195Y7098D01*
X-3206Y7084D01*
X-3286Y7048D01*
X-3289Y7046D01*
X-3292Y7045D01*
X-3297Y7041D01*
X-3303Y7037D01*
X-3305Y7035D01*
X-3308Y7033D01*
X-3484Y6859D01*
X-3580Y6810D01*
X-3505Y6662D01*
X-3354Y6738D01*
X-3353Y6739D01*
X-3353Y6739D01*
X-3330Y6750D01*
X-3341Y6770D01*
X-3341Y6771D01*
X-3340Y6773D01*
X-3338Y6778D01*
X-3334Y6785D01*
X-3329Y6792D01*
X-3301Y6826D01*
X-3296Y6831D01*
X-3210Y6915D01*
X-3142Y6946D01*
X-3132Y6945D01*
X-3109Y6948D01*
X-3087Y6957D01*
X-3068Y6971D01*
X-3054Y6989D01*
X-3045Y7011D01*
X-3042Y7034D01*
X-3045Y7058D01*
X-3054Y7079D01*
X-3068Y7098D01*
X-3087Y7112D01*
X-3109Y7121D01*
X-3132Y7124D01*
D02*
G37*
G36*
X0Y6727D02*
X0Y6727D01*
X-0Y6727D01*
X-251Y6722D01*
X-252Y6722D01*
X-252Y6722D01*
X-502Y6708D01*
X-503Y6708D01*
X-503Y6708D01*
X-753Y6685D01*
X-753Y6685D01*
X-754Y6685D01*
X-1002Y6652D01*
X-1003Y6652D01*
X-1003Y6652D01*
X-1250Y6610D01*
X-1251Y6610D01*
X-1251Y6610D01*
X-1496Y6559D01*
X-1497Y6558D01*
X-1497Y6558D01*
X-1741Y6498D01*
X-1741Y6498D01*
X-1742Y6498D01*
X-1982Y6428D01*
X-1983Y6428D01*
X-1983Y6428D01*
X-2221Y6350D01*
X-2222Y6349D01*
X-2222Y6349D01*
X-2457Y6262D01*
X-2458Y6262D01*
X-2458Y6262D01*
X-2690Y6166D01*
X-2690Y6166D01*
X-2691Y6166D01*
X-2918Y6061D01*
X-2919Y6061D01*
X-2919Y6061D01*
X-3143Y5948D01*
X-3143Y5947D01*
X-3144Y5947D01*
X-3363Y5826D01*
X-3363Y5826D01*
X-3364Y5826D01*
X-3579Y5696D01*
X-3579Y5696D01*
X-3579Y5696D01*
X-3789Y5558D01*
X-3789Y5558D01*
X-3790Y5558D01*
X-3994Y5413D01*
X-3995Y5413D01*
X-3995Y5412D01*
X-4194Y5260D01*
X-4194Y5259D01*
X-4195Y5259D01*
X-4388Y5099D01*
X-4388Y5099D01*
X-4388Y5099D01*
X-4575Y4932D01*
X-4576Y4931D01*
X-4576Y4931D01*
X-4756Y4757D01*
X-4757Y4757D01*
X-4757Y4756D01*
X-4931Y4576D01*
X-4931Y4576D01*
X-4932Y4575D01*
X-5099Y4388D01*
X-5099Y4388D01*
X-5099Y4388D01*
X-5259Y4195D01*
X-5259Y4194D01*
X-5260Y4194D01*
X-5412Y3995D01*
X-5413Y3995D01*
X-5413Y3994D01*
X-5558Y3790D01*
X-5558Y3789D01*
X-5558Y3789D01*
X-5696Y3579D01*
X-5696Y3579D01*
X-5696Y3579D01*
X-5826Y3364D01*
X-5826Y3363D01*
X-5826Y3363D01*
X-5947Y3144D01*
X-5947Y3143D01*
X-5948Y3143D01*
X-6061Y2919D01*
X-6061Y2919D01*
X-6061Y2918D01*
X-6166Y2691D01*
X-6166Y2690D01*
X-6166Y2690D01*
X-6262Y2458D01*
X-6262Y2458D01*
X-6262Y2457D01*
X-6349Y2222D01*
X-6349Y2222D01*
X-6350Y2221D01*
X-6428Y1983D01*
X-6428Y1983D01*
X-6428Y1982D01*
X-6498Y1742D01*
X-6498Y1741D01*
X-6498Y1741D01*
X-6558Y1497D01*
X-6558Y1497D01*
X-6559Y1496D01*
X-6610Y1251D01*
X-6610Y1251D01*
X-6610Y1250D01*
X-6652Y1003D01*
X-6652Y1003D01*
X-6652Y1002D01*
X-6685Y754D01*
X-6685Y753D01*
X-6685Y753D01*
X-6708Y503D01*
X-6708Y503D01*
X-6708Y502D01*
X-6722Y252D01*
X-6722Y252D01*
X-6722Y251D01*
X-6727Y0D01*
X-6727Y0D01*
X-6727Y-0D01*
X-6722Y-251D01*
X-6722Y-252D01*
X-6722Y-252D01*
X-6708Y-502D01*
X-6708Y-503D01*
X-6708Y-503D01*
X-6685Y-753D01*
X-6685Y-753D01*
X-6685Y-754D01*
X-6652Y-1002D01*
X-6652Y-1003D01*
X-6652Y-1003D01*
X-6610Y-1250D01*
X-6610Y-1251D01*
X-6610Y-1251D01*
X-6559Y-1496D01*
X-6558Y-1497D01*
X-6558Y-1497D01*
X-6498Y-1741D01*
X-6498Y-1741D01*
X-6498Y-1742D01*
X-6428Y-1982D01*
X-6428Y-1983D01*
X-6428Y-1983D01*
X-6350Y-2221D01*
X-6349Y-2222D01*
X-6349Y-2222D01*
X-6262Y-2457D01*
X-6262Y-2458D01*
X-6262Y-2458D01*
X-6166Y-2690D01*
X-6166Y-2690D01*
X-6166Y-2691D01*
X-6061Y-2918D01*
X-6061Y-2919D01*
X-6061Y-2919D01*
X-5948Y-3143D01*
X-5947Y-3143D01*
X-5947Y-3144D01*
X-5826Y-3363D01*
X-5826Y-3363D01*
X-5826Y-3364D01*
X-5696Y-3579D01*
X-5696Y-3579D01*
X-5696Y-3579D01*
X-5558Y-3789D01*
X-5558Y-3789D01*
X-5558Y-3790D01*
X-5413Y-3994D01*
X-5413Y-3995D01*
X-5412Y-3995D01*
X-5260Y-4194D01*
X-5259Y-4194D01*
X-5259Y-4195D01*
X-5099Y-4388D01*
X-5099Y-4388D01*
X-5099Y-4388D01*
X-4932Y-4575D01*
X-4931Y-4576D01*
X-4931Y-4576D01*
X-4757Y-4756D01*
X-4757Y-4757D01*
X-4756Y-4757D01*
X-4576Y-4931D01*
X-4576Y-4931D01*
X-4575Y-4932D01*
X-4388Y-5099D01*
X-4388Y-5099D01*
X-4388Y-5099D01*
X-4195Y-5259D01*
X-4194Y-5259D01*
X-4194Y-5260D01*
X-3995Y-5412D01*
X-3995Y-5413D01*
X-3994Y-5413D01*
X-3790Y-5558D01*
X-3789Y-5558D01*
X-3789Y-5558D01*
X-3579Y-5696D01*
X-3579Y-5696D01*
X-3579Y-5696D01*
X-3364Y-5826D01*
X-3363Y-5826D01*
X-3363Y-5826D01*
X-3144Y-5947D01*
X-3143Y-5947D01*
X-3143Y-5948D01*
X-2919Y-6061D01*
X-2919Y-6061D01*
X-2918Y-6061D01*
X-2691Y-6166D01*
X-2690Y-6166D01*
X-2690Y-6166D01*
X-2458Y-6262D01*
X-2458Y-6262D01*
X-2457Y-6262D01*
X-2222Y-6349D01*
X-2222Y-6349D01*
X-2221Y-6350D01*
X-1983Y-6428D01*
X-1983Y-6428D01*
X-1982Y-6428D01*
X-1742Y-6498D01*
X-1741Y-6498D01*
X-1741Y-6498D01*
X-1497Y-6558D01*
X-1497Y-6558D01*
X-1496Y-6559D01*
X-1251Y-6610D01*
X-1251Y-6610D01*
X-1250Y-6610D01*
X-1003Y-6652D01*
X-1003Y-6652D01*
X-1002Y-6652D01*
X-754Y-6685D01*
X-753Y-6685D01*
X-753Y-6685D01*
X-503Y-6708D01*
X-503Y-6708D01*
X-502Y-6708D01*
X-252Y-6722D01*
X-252Y-6722D01*
X-251Y-6722D01*
X-0Y-6727D01*
X0Y-6727D01*
X0Y-6727D01*
X251Y-6722D01*
X252Y-6722D01*
X252Y-6722D01*
X502Y-6708D01*
X503Y-6708D01*
X503Y-6708D01*
X753Y-6685D01*
X753Y-6685D01*
X754Y-6685D01*
X1002Y-6652D01*
X1003Y-6652D01*
X1003Y-6652D01*
X1250Y-6610D01*
X1251Y-6610D01*
X1251Y-6610D01*
X1496Y-6559D01*
X1497Y-6558D01*
X1497Y-6558D01*
X1741Y-6498D01*
X1741Y-6498D01*
X1742Y-6498D01*
X1982Y-6428D01*
X1983Y-6428D01*
X1983Y-6428D01*
X2221Y-6350D01*
X2222Y-6349D01*
X2222Y-6349D01*
X2457Y-6262D01*
X2458Y-6262D01*
X2458Y-6262D01*
X2690Y-6166D01*
X2690Y-6166D01*
X2691Y-6166D01*
X2918Y-6061D01*
X2919Y-6061D01*
X2919Y-6061D01*
X3143Y-5948D01*
X3143Y-5947D01*
X3144Y-5947D01*
X3363Y-5826D01*
X3363Y-5826D01*
X3364Y-5826D01*
X3579Y-5696D01*
X3579Y-5696D01*
X3579Y-5696D01*
X3789Y-5558D01*
X3789Y-5558D01*
X3790Y-5558D01*
X3994Y-5413D01*
X3995Y-5413D01*
X3995Y-5412D01*
X4194Y-5260D01*
X4194Y-5259D01*
X4195Y-5259D01*
X4388Y-5099D01*
X4388Y-5099D01*
X4388Y-5099D01*
X4575Y-4932D01*
X4576Y-4931D01*
X4576Y-4931D01*
X4756Y-4757D01*
X4757Y-4757D01*
X4757Y-4756D01*
X4931Y-4576D01*
X4931Y-4576D01*
X4932Y-4575D01*
X5099Y-4388D01*
X5099Y-4388D01*
X5099Y-4388D01*
X5259Y-4195D01*
X5259Y-4194D01*
X5260Y-4194D01*
X5412Y-3995D01*
X5413Y-3995D01*
X5413Y-3994D01*
X5558Y-3790D01*
X5558Y-3789D01*
X5558Y-3789D01*
X5696Y-3579D01*
X5696Y-3579D01*
X5696Y-3579D01*
X5826Y-3364D01*
X5826Y-3363D01*
X5826Y-3363D01*
X5947Y-3144D01*
X5947Y-3143D01*
X5948Y-3143D01*
X6061Y-2919D01*
X6061Y-2919D01*
X6061Y-2918D01*
X6166Y-2691D01*
X6166Y-2690D01*
X6166Y-2690D01*
X6262Y-2458D01*
X6262Y-2458D01*
X6262Y-2457D01*
X6349Y-2222D01*
X6349Y-2222D01*
X6350Y-2221D01*
X6428Y-1983D01*
X6428Y-1983D01*
X6428Y-1982D01*
X6498Y-1742D01*
X6498Y-1741D01*
X6498Y-1741D01*
X6558Y-1497D01*
X6558Y-1497D01*
X6559Y-1496D01*
X6610Y-1251D01*
X6610Y-1251D01*
X6610Y-1250D01*
X6652Y-1003D01*
X6652Y-1003D01*
X6652Y-1002D01*
X6685Y-754D01*
X6685Y-753D01*
X6685Y-753D01*
X6708Y-503D01*
X6708Y-503D01*
X6708Y-502D01*
X6722Y-252D01*
X6722Y-252D01*
X6722Y-251D01*
X6727Y-0D01*
X6727Y0D01*
X6727Y0D01*
X6722Y251D01*
X6722Y252D01*
X6722Y252D01*
X6708Y502D01*
X6708Y503D01*
X6708Y503D01*
X6685Y753D01*
X6685Y753D01*
X6685Y754D01*
X6652Y1002D01*
X6652Y1003D01*
X6652Y1003D01*
X6610Y1250D01*
X6610Y1251D01*
X6610Y1251D01*
X6559Y1496D01*
X6558Y1497D01*
X6558Y1497D01*
X6498Y1741D01*
X6498Y1741D01*
X6498Y1742D01*
X6428Y1982D01*
X6428Y1983D01*
X6428Y1983D01*
X6350Y2221D01*
X6349Y2222D01*
X6349Y2222D01*
X6262Y2457D01*
X6262Y2458D01*
X6262Y2458D01*
X6166Y2690D01*
X6166Y2690D01*
X6166Y2691D01*
X6061Y2918D01*
X6061Y2919D01*
X6061Y2919D01*
X5948Y3143D01*
X5947Y3143D01*
X5947Y3144D01*
X5826Y3363D01*
X5826Y3363D01*
X5826Y3364D01*
X5696Y3579D01*
X5696Y3579D01*
X5696Y3579D01*
X5558Y3789D01*
X5558Y3789D01*
X5558Y3790D01*
X5413Y3994D01*
X5413Y3995D01*
X5412Y3995D01*
X5260Y4194D01*
X5259Y4194D01*
X5259Y4195D01*
X5099Y4388D01*
X5099Y4388D01*
X5099Y4388D01*
X4932Y4575D01*
X4931Y4576D01*
X4931Y4576D01*
X4757Y4756D01*
X4757Y4757D01*
X4756Y4757D01*
X4576Y4931D01*
X4576Y4931D01*
X4575Y4932D01*
X4388Y5099D01*
X4388Y5099D01*
X4388Y5099D01*
X4195Y5259D01*
X4194Y5259D01*
X4194Y5260D01*
X3995Y5412D01*
X3995Y5413D01*
X3994Y5413D01*
X3790Y5558D01*
X3789Y5558D01*
X3789Y5558D01*
X3579Y5696D01*
X3579Y5696D01*
X3579Y5696D01*
X3364Y5826D01*
X3363Y5826D01*
X3363Y5826D01*
X3144Y5947D01*
X3143Y5947D01*
X3143Y5948D01*
X2919Y6061D01*
X2919Y6061D01*
X2918Y6061D01*
X2691Y6166D01*
X2690Y6166D01*
X2690Y6166D01*
X2458Y6262D01*
X2458Y6262D01*
X2457Y6262D01*
X2222Y6349D01*
X2222Y6349D01*
X2221Y6350D01*
X1983Y6428D01*
X1983Y6428D01*
X1982Y6428D01*
X1742Y6498D01*
X1741Y6498D01*
X1741Y6498D01*
X1497Y6558D01*
X1497Y6558D01*
X1496Y6559D01*
X1251Y6610D01*
X1251Y6610D01*
X1250Y6610D01*
X1003Y6652D01*
X1003Y6652D01*
X1002Y6652D01*
X754Y6685D01*
X753Y6685D01*
X753Y6685D01*
X503Y6708D01*
X503Y6708D01*
X502Y6708D01*
X252Y6722D01*
X252Y6722D01*
X251Y6722D01*
X0Y6727D01*
D02*
G37*
G36*
X4107Y6503D02*
X4019Y6362D01*
X4163Y6273D01*
X4164Y6273D01*
X4165Y6272D01*
X4186Y6259D01*
X4198Y6278D01*
X4199Y6278D01*
X4204Y6279D01*
X4211Y6279D01*
X4221Y6278D01*
X4264Y6270D01*
X4270Y6269D01*
X4383Y6238D01*
X4444Y6194D01*
X4448Y6185D01*
X4463Y6166D01*
X4481Y6152D01*
X4503Y6143D01*
X4526Y6140D01*
X4549Y6143D01*
X4571Y6152D01*
X4589Y6166D01*
X4604Y6185D01*
X4613Y6206D01*
X4616Y6229D01*
X4613Y6253D01*
X4604Y6274D01*
X4589Y6293D01*
X4571Y6307D01*
X4549Y6316D01*
X4532Y6318D01*
X4461Y6369D01*
X4458Y6371D01*
X4455Y6373D01*
X4449Y6376D01*
X4443Y6379D01*
X4440Y6379D01*
X4437Y6381D01*
X4200Y6445D01*
X4107Y6503D01*
D02*
G37*
G36*
X-5702Y-7758D02*
X-5725Y-7761D01*
X-5746Y-7770D01*
X-5765Y-7784D01*
X-5779Y-7803D01*
X-5788Y-7824D01*
X-5791Y-7847D01*
X-5788Y-7871D01*
X-5779Y-7892D01*
X-5765Y-7911D01*
X-5746Y-7925D01*
X-5725Y-7934D01*
X-5708Y-7936D01*
X-5608Y-8008D01*
X-5607Y-8008D01*
X-5606Y-8009D01*
X-5598Y-8013D01*
X-5590Y-8017D01*
X-5589Y-8017D01*
X-5589Y-8018D01*
X-5295Y-8119D01*
X-5197Y-8182D01*
X-5107Y-8043D01*
X-5249Y-7951D01*
X-5249Y-7951D01*
X-5250Y-7950D01*
X-5271Y-7937D01*
X-5282Y-7954D01*
X-5286Y-7954D01*
X-5294Y-7953D01*
X-5303Y-7952D01*
X-5345Y-7941D01*
X-5350Y-7939D01*
X-5528Y-7877D01*
X-5620Y-7812D01*
X-5624Y-7803D01*
X-5638Y-7784D01*
X-5657Y-7770D01*
X-5678Y-7761D01*
X-5702Y-7758D01*
D02*
G37*
G36*
X1233Y7017D02*
X1204Y6850D01*
X1201Y6840D01*
X1201Y6834D01*
X1172Y6671D01*
X1393Y6632D01*
X1394Y6632D01*
X1395Y6632D01*
X1419Y6628D01*
X1423Y6650D01*
X1424Y6653D01*
X1426Y6655D01*
X1431Y6658D01*
X1442Y6661D01*
X1458Y6664D01*
X1478Y6666D01*
X1565Y6661D01*
X1657Y6648D01*
X1666Y6648D01*
X1675Y6647D01*
X1682Y6648D01*
X1690Y6648D01*
X1699Y6650D01*
X1707Y6651D01*
X1714Y6654D01*
X1722Y6656D01*
X1730Y6660D01*
X1738Y6664D01*
X1744Y6668D01*
X1751Y6672D01*
X1757Y6678D01*
X1764Y6684D01*
X1783Y6703D01*
X1803Y6729D01*
X1816Y6759D01*
X1820Y6792D01*
X1816Y6825D01*
X1803Y6855D01*
X1783Y6882D01*
X1757Y6902D01*
X1726Y6914D01*
X1693Y6919D01*
X1661Y6914D01*
X1640Y6906D01*
X1605Y6911D01*
X1546Y6923D01*
X1522Y6929D01*
X1503Y6935D01*
X1489Y6942D01*
X1480Y6947D01*
X1476Y6951D01*
X1476Y6952D01*
X1480Y6973D01*
X1456Y6978D01*
X1455Y6978D01*
X1454Y6978D01*
X1233Y7017D01*
D02*
G37*
G36*
X7522Y-295D02*
X7513Y-464D01*
X7513Y-465D01*
X7513Y-466D01*
X7511Y-491D01*
X7534Y-492D01*
X7534Y-492D01*
X7536Y-494D01*
X7539Y-498D01*
X7543Y-504D01*
X7547Y-513D01*
X7562Y-554D01*
X7564Y-561D01*
X7594Y-677D01*
X7587Y-752D01*
X7580Y-760D01*
X7571Y-782D01*
X7568Y-805D01*
X7571Y-828D01*
X7580Y-850D01*
X7594Y-868D01*
X7613Y-883D01*
X7635Y-891D01*
X7658Y-895D01*
X7681Y-891D01*
X7703Y-883D01*
X7721Y-868D01*
X7735Y-850D01*
X7744Y-828D01*
X7747Y-805D01*
X7744Y-782D01*
X7738Y-766D01*
X7746Y-678D01*
X7746Y-675D01*
X7747Y-672D01*
X7746Y-665D01*
X7746Y-659D01*
X7745Y-655D01*
X7744Y-652D01*
X7682Y-412D01*
X7688Y-305D01*
X7522Y-295D01*
D02*
G37*
G36*
X-7948Y-3449D02*
X-7971Y-3452D01*
X-7993Y-3461D01*
X-8011Y-3475D01*
X-8025Y-3494D01*
X-8034Y-3515D01*
X-8038Y-3539D01*
X-8034Y-3562D01*
X-8025Y-3583D01*
X-8011Y-3602D01*
X-7998Y-3612D01*
X-7954Y-3708D01*
X-7953Y-3710D01*
X-7952Y-3712D01*
X-7948Y-3718D01*
X-7944Y-3725D01*
X-7942Y-3727D01*
X-7941Y-3728D01*
X-7752Y-3934D01*
X-7701Y-4034D01*
X-7553Y-3958D01*
X-7630Y-3807D01*
X-7631Y-3806D01*
X-7631Y-3806D01*
X-7643Y-3784D01*
X-7662Y-3793D01*
X-7662Y-3793D01*
X-7666Y-3791D01*
X-7673Y-3787D01*
X-7680Y-3782D01*
X-7713Y-3752D01*
X-7717Y-3747D01*
X-7821Y-3634D01*
X-7860Y-3549D01*
X-7858Y-3539D01*
X-7861Y-3515D01*
X-7870Y-3494D01*
X-7884Y-3475D01*
X-7903Y-3461D01*
X-7925Y-3452D01*
X-7948Y-3449D01*
D02*
G37*
G36*
X792Y7760D02*
X769Y7757D01*
X747Y7748D01*
X745Y7747D01*
X671D01*
X661Y7745D01*
X652Y7744D01*
X415Y7682D01*
X305Y7685D01*
X301Y7519D01*
X470Y7515D01*
X471Y7515D01*
X472Y7515D01*
X496Y7514D01*
X497Y7536D01*
X498Y7537D01*
X502Y7540D01*
X508Y7544D01*
X517Y7548D01*
X558Y7562D01*
X564Y7564D01*
X681Y7595D01*
X745D01*
X747Y7593D01*
X769Y7584D01*
X792Y7581D01*
X815Y7584D01*
X837Y7593D01*
X855Y7607D01*
X870Y7626D01*
X879Y7647D01*
X882Y7671D01*
X879Y7694D01*
X870Y7716D01*
X855Y7734D01*
X837Y7748D01*
X815Y7757D01*
X792Y7760D01*
D02*
G37*
G36*
X4413Y-8444D02*
X4262Y-8521D01*
X4261Y-8521D01*
X4260Y-8521D01*
X4238Y-8533D01*
X4248Y-8551D01*
X4245Y-8555D01*
X4241Y-8561D01*
X4235Y-8568D01*
X4205Y-8599D01*
X4200Y-8603D01*
X4058Y-8727D01*
X3956Y-8773D01*
X3945Y-8772D01*
X3922Y-8775D01*
X3901Y-8784D01*
X3882Y-8798D01*
X3868Y-8817D01*
X3859Y-8838D01*
X3856Y-8861D01*
X3859Y-8885D01*
X3868Y-8906D01*
X3882Y-8925D01*
X3901Y-8939D01*
X3922Y-8948D01*
X3945Y-8951D01*
X3969Y-8948D01*
X3990Y-8939D01*
X4009Y-8925D01*
X4019Y-8911D01*
X4131Y-8860D01*
X4132Y-8860D01*
X4133Y-8860D01*
X4140Y-8855D01*
X4148Y-8850D01*
X4148Y-8849D01*
X4149Y-8849D01*
X4385Y-8644D01*
X4488Y-8592D01*
X4413Y-8444D01*
D02*
G37*
G36*
X442Y-8349D02*
X419Y-8352D01*
X397Y-8361D01*
X379Y-8375D01*
X365Y-8394D01*
X356Y-8415D01*
X353Y-8438D01*
X356Y-8462D01*
X365Y-8483D01*
X368Y-8488D01*
X368Y-8506D01*
X367Y-8515D01*
X366Y-8518D01*
X354Y-8519D01*
X355Y-8541D01*
X355Y-8541D01*
X355Y-8542D01*
X355Y-8543D01*
X355Y-8544D01*
X355Y-8545D01*
X359Y-8674D01*
X550Y-8668D01*
X546Y-8539D01*
X546Y-8538D01*
X546Y-8537D01*
X545Y-8512D01*
X529Y-8513D01*
X527Y-8507D01*
X525Y-8499D01*
X522Y-8477D01*
X529Y-8462D01*
X532Y-8438D01*
X529Y-8415D01*
X520Y-8394D01*
X506Y-8375D01*
X487Y-8361D01*
X465Y-8352D01*
X442Y-8349D01*
D02*
G37*
G36*
X4652Y7343D02*
X4563Y7204D01*
X4705Y7112D01*
X4706Y7112D01*
X4707Y7111D01*
X4728Y7098D01*
X4739Y7116D01*
X4739Y7116D01*
X4744Y7116D01*
X4752Y7116D01*
X4761Y7115D01*
X4804Y7105D01*
X4810Y7103D01*
X4956Y7058D01*
X5032Y7003D01*
X5036Y6994D01*
X5050Y6975D01*
X5069Y6961D01*
X5091Y6952D01*
X5114Y6949D01*
X5137Y6952D01*
X5159Y6961D01*
X5177Y6975D01*
X5191Y6994D01*
X5200Y7015D01*
X5203Y7038D01*
X5200Y7062D01*
X5191Y7083D01*
X5177Y7102D01*
X5159Y7116D01*
X5137Y7125D01*
X5120Y7127D01*
X5034Y7189D01*
X5032Y7190D01*
X5031Y7191D01*
X5024Y7194D01*
X5017Y7198D01*
X5015Y7198D01*
X5013Y7199D01*
X4747Y7282D01*
X4652Y7343D01*
D02*
G37*
%LPD*%
G36*
X7230Y-4781D02*
X7235Y-4774D01*
X7239Y-4769D01*
X7242Y-4767D01*
X7243Y-4768D01*
X7244Y-4771D01*
X7243Y-4778D01*
X7241Y-4787D01*
X7234Y-4814D01*
X7229Y-4832D01*
X7125Y-4828D01*
X7131Y-4810D01*
X7141Y-4765D01*
X7142Y-4753D01*
X7143Y-4743D01*
X7142Y-4734D01*
X7140Y-4728D01*
X7137Y-4722D01*
X7134Y-4719D01*
X7230Y-4781D01*
D02*
G37*
G36*
X-8619Y-4221D02*
X-8586Y-4253D01*
X-8577Y-4261D01*
X-8569Y-4266D01*
X-8562Y-4270D01*
X-8556Y-4273D01*
X-8550Y-4273D01*
X-8546Y-4272D01*
X-8647Y-4325D01*
X-8643Y-4332D01*
X-8642Y-4337D01*
X-8642Y-4339D01*
X-8643Y-4340D01*
X-8647Y-4338D01*
X-8652Y-4333D01*
X-8659Y-4326D01*
X-8690Y-4292D01*
X-8632Y-4207D01*
X-8619Y-4221D01*
D02*
G37*
G36*
X8068Y-5325D02*
X8073Y-5318D01*
X8077Y-5314D01*
X8079Y-5313D01*
X8080Y-5314D01*
X8080Y-5318D01*
X8079Y-5324D01*
X8077Y-5334D01*
X8069Y-5361D01*
X8063Y-5378D01*
X7960Y-5370D01*
X7966Y-5352D01*
X7977Y-5308D01*
X7979Y-5296D01*
X7980Y-5286D01*
X7980Y-5278D01*
X7978Y-5271D01*
X7976Y-5266D01*
X7972Y-5263D01*
X8068Y-5325D01*
D02*
G37*
G36*
X6391Y-4236D02*
X6396Y-4228D01*
X6401Y-4222D01*
X6405Y-4220D01*
X6407Y-4220D01*
X6408Y-4223D01*
X6408Y-4230D01*
X6407Y-4239D01*
X6404Y-4251D01*
X6396Y-4284D01*
X6292Y-4285D01*
X6297Y-4266D01*
X6305Y-4220D01*
X6306Y-4208D01*
X6306Y-4198D01*
X6305Y-4189D01*
X6303Y-4182D01*
X6299Y-4176D01*
X6295Y-4173D01*
X6391Y-4236D01*
D02*
G37*
G36*
X-7731Y-3770D02*
X-7697Y-3801D01*
X-7688Y-3809D01*
X-7679Y-3814D01*
X-7671Y-3818D01*
X-7665Y-3819D01*
X-7659Y-3820D01*
X-7654Y-3818D01*
X-7756Y-3871D01*
X-7752Y-3879D01*
X-7750Y-3885D01*
X-7749Y-3888D01*
X-7751Y-3889D01*
X-7754Y-3887D01*
X-7760Y-3884D01*
X-7767Y-3877D01*
X-7786Y-3857D01*
X-7799Y-3844D01*
X-7744Y-3756D01*
X-7731Y-3770D01*
D02*
G37*
G36*
X4324Y-8646D02*
X4332Y-8642D01*
X4337Y-8641D01*
X4340Y-8640D01*
X4341Y-8642D01*
X4339Y-8646D01*
X4335Y-8651D01*
X4328Y-8658D01*
X4307Y-8677D01*
X4293Y-8689D01*
X4208Y-8631D01*
X4222Y-8618D01*
X4255Y-8585D01*
X4262Y-8576D01*
X4268Y-8568D01*
X4272Y-8561D01*
X4274Y-8554D01*
X4274Y-8549D01*
X4273Y-8544D01*
X4324Y-8646D01*
D02*
G37*
G36*
X-526Y-8652D02*
X-517Y-8652D01*
X-511Y-8654D01*
X-508Y-8655D01*
X-508Y-8657D01*
X-511Y-8659D01*
X-517Y-8662D01*
X-526Y-8665D01*
X-553Y-8672D01*
X-571Y-8676D01*
X-619Y-8585D01*
X-600Y-8580D01*
X-556Y-8567D01*
X-545Y-8562D01*
X-537Y-8557D01*
X-530Y-8552D01*
X-525Y-8547D01*
X-521Y-8543D01*
X-520Y-8537D01*
X-526Y-8652D01*
D02*
G37*
G36*
X494Y-8458D02*
X500Y-8503D01*
X502Y-8514D01*
X505Y-8523D01*
X509Y-8530D01*
X512Y-8535D01*
X516Y-8538D01*
X520Y-8539D01*
X381Y-8543D01*
X384Y-8542D01*
X387Y-8539D01*
X389Y-8534D01*
X391Y-8527D01*
X393Y-8518D01*
X394Y-8507D01*
X394Y-8479D01*
X392Y-8443D01*
X492Y-8439D01*
X494Y-8458D01*
D02*
G37*
G36*
X527Y-8834D02*
X524Y-8837D01*
X521Y-8842D01*
X519Y-8849D01*
X518Y-8858D01*
X517Y-8869D01*
X517Y-8897D01*
X518Y-8933D01*
X418Y-8937D01*
X417Y-8918D01*
X411Y-8873D01*
X408Y-8862D01*
X405Y-8853D01*
X402Y-8846D01*
X399Y-8841D01*
X395Y-8838D01*
X391Y-8838D01*
X530Y-8833D01*
X527Y-8834D01*
D02*
G37*
G36*
X579Y-9832D02*
X576Y-9836D01*
X574Y-9841D01*
X572Y-9848D01*
X570Y-9857D01*
X569Y-9868D01*
X569Y-9896D01*
X571Y-9932D01*
X471Y-9935D01*
X469Y-9916D01*
X463Y-9872D01*
X461Y-9861D01*
X458Y-9852D01*
X455Y-9845D01*
X451Y-9840D01*
X447Y-9837D01*
X443Y-9836D01*
X583Y-9831D01*
X579Y-9832D01*
D02*
G37*
G36*
X-578Y-9651D02*
X-570Y-9651D01*
X-565Y-9652D01*
X-562Y-9653D01*
X-563Y-9655D01*
X-567Y-9657D01*
X-573Y-9659D01*
X-582Y-9662D01*
X-628Y-9672D01*
X-672Y-9579D01*
X-654Y-9575D01*
X-609Y-9563D01*
X-598Y-9559D01*
X-589Y-9554D01*
X-582Y-9550D01*
X-577Y-9545D01*
X-574Y-9541D01*
X-573Y-9536D01*
X-578Y-9651D01*
D02*
G37*
G36*
X546Y-9457D02*
X552Y-9502D01*
X555Y-9513D01*
X558Y-9522D01*
X561Y-9529D01*
X564Y-9533D01*
X568Y-9536D01*
X572Y-9537D01*
X433Y-9542D01*
X436Y-9541D01*
X439Y-9538D01*
X442Y-9533D01*
X443Y-9526D01*
X445Y-9517D01*
X446Y-9506D01*
X446Y-9478D01*
X445Y-9442D01*
X545Y-9438D01*
X546Y-9457D01*
D02*
G37*
G36*
X-5353Y-7965D02*
X-5308Y-7977D01*
X-5297Y-7979D01*
X-5287Y-7980D01*
X-5279Y-7979D01*
X-5272Y-7978D01*
X-5267Y-7976D01*
X-5263Y-7972D01*
X-5326Y-8068D01*
X-5319Y-8073D01*
X-5315Y-8077D01*
X-5313Y-8079D01*
X-5314Y-8080D01*
X-5318Y-8080D01*
X-5325Y-8079D01*
X-5334Y-8077D01*
X-5379Y-8062D01*
X-5371Y-7959D01*
X-5353Y-7965D01*
D02*
G37*
G36*
X-4810Y-7131D02*
X-4765Y-7141D01*
X-4753Y-7142D01*
X-4743Y-7143D01*
X-4734Y-7142D01*
X-4727Y-7140D01*
X-4722Y-7137D01*
X-4719Y-7134D01*
X-4781Y-7230D01*
X-4773Y-7235D01*
X-4769Y-7239D01*
X-4767Y-7242D01*
X-4768Y-7243D01*
X-4771Y-7244D01*
X-4778Y-7243D01*
X-4787Y-7241D01*
X-4814Y-7234D01*
X-4832Y-7229D01*
X-4828Y-7125D01*
X-4810Y-7131D01*
D02*
G37*
G36*
X3417Y-6865D02*
X3425Y-6860D01*
X3432Y-6858D01*
X3436Y-6858D01*
X3437Y-6859D01*
X3437Y-6863D01*
X3433Y-6868D01*
X3428Y-6875D01*
X3419Y-6885D01*
X3396Y-6909D01*
X3306Y-6858D01*
X3319Y-6844D01*
X3349Y-6809D01*
X3356Y-6799D01*
X3361Y-6790D01*
X3364Y-6782D01*
X3366Y-6775D01*
X3366Y-6768D01*
X3364Y-6763D01*
X3417Y-6865D01*
D02*
G37*
G36*
X-4266Y-6297D02*
X-4220Y-6305D01*
X-4208Y-6306D01*
X-4198Y-6306D01*
X-4189Y-6305D01*
X-4182Y-6303D01*
X-4176Y-6299D01*
X-4172Y-6295D01*
X-4236Y-6391D01*
X-4227Y-6396D01*
X-4222Y-6401D01*
X-4220Y-6405D01*
X-4220Y-6407D01*
X-4223Y-6408D01*
X-4230Y-6408D01*
X-4239Y-6407D01*
X-4251Y-6404D01*
X-4284Y-6396D01*
X-4284Y-6292D01*
X-4266Y-6297D01*
D02*
G37*
G36*
X441Y-7459D02*
X447Y-7504D01*
X449Y-7515D01*
X452Y-7524D01*
X455Y-7531D01*
X459Y-7536D01*
X462Y-7539D01*
X466Y-7539D01*
X327Y-7545D01*
X330Y-7544D01*
X333Y-7541D01*
X336Y-7536D01*
X338Y-7529D01*
X340Y-7520D01*
X341Y-7509D01*
X341Y-7496D01*
X341Y-7464D01*
X340Y-7445D01*
X440Y-7440D01*
X441Y-7459D01*
D02*
G37*
G36*
X476Y-7835D02*
X472Y-7838D01*
X470Y-7843D01*
X468Y-7850D01*
X466Y-7859D01*
X465Y-7870D01*
X465Y-7883D01*
X465Y-7915D01*
X466Y-7934D01*
X366Y-7939D01*
X365Y-7920D01*
X359Y-7875D01*
X357Y-7864D01*
X354Y-7855D01*
X351Y-7848D01*
X347Y-7843D01*
X344Y-7840D01*
X340Y-7840D01*
X479Y-7833D01*
X476Y-7835D01*
D02*
G37*
G36*
X3871Y-7756D02*
X3879Y-7752D01*
X3884Y-7750D01*
X3888Y-7750D01*
X3889Y-7751D01*
X3887Y-7755D01*
X3883Y-7760D01*
X3877Y-7767D01*
X3857Y-7787D01*
X3844Y-7799D01*
X3756Y-7744D01*
X3770Y-7731D01*
X3801Y-7697D01*
X3808Y-7688D01*
X3814Y-7679D01*
X3817Y-7672D01*
X3819Y-7665D01*
X3819Y-7659D01*
X3818Y-7654D01*
X3871Y-7756D01*
D02*
G37*
G36*
X-474Y-7653D02*
X-464Y-7654D01*
X-457Y-7655D01*
X-453Y-7657D01*
X-453Y-7659D01*
X-455Y-7662D01*
X-461Y-7665D01*
X-469Y-7668D01*
X-481Y-7672D01*
X-513Y-7681D01*
X-566Y-7592D01*
X-548Y-7587D01*
X-504Y-7571D01*
X-493Y-7566D01*
X-484Y-7561D01*
X-477Y-7555D01*
X-472Y-7550D01*
X-469Y-7544D01*
X-468Y-7539D01*
X-474Y-7653D01*
D02*
G37*
G36*
X1451Y6943D02*
X1455Y6935D01*
X1464Y6927D01*
X1477Y6919D01*
X1494Y6911D01*
X1515Y6904D01*
X1540Y6897D01*
X1603Y6885D01*
X1640Y6879D01*
X1606Y6682D01*
X1568Y6687D01*
X1477Y6691D01*
X1455Y6690D01*
X1436Y6687D01*
X1421Y6682D01*
X1410Y6675D01*
X1402Y6667D01*
X1398Y6658D01*
X1450Y6952D01*
X1451Y6943D01*
D02*
G37*
G36*
X4233Y6407D02*
X4242Y6405D01*
X4255Y6403D01*
X4287Y6395D01*
X4288Y6291D01*
X4270Y6296D01*
X4224Y6304D01*
X4212Y6305D01*
X4202Y6305D01*
X4193Y6304D01*
X4186Y6302D01*
X4181Y6299D01*
X4178Y6295D01*
X4238Y6392D01*
X4230Y6397D01*
X4225Y6401D01*
X4223Y6404D01*
X4223Y6406D01*
X4227Y6407D01*
X4233Y6407D01*
D02*
G37*
G36*
X-3306Y6857D02*
X-3320Y6843D01*
X-3350Y6808D01*
X-3357Y6798D01*
X-3362Y6789D01*
X-3365Y6781D01*
X-3367Y6774D01*
X-3367Y6767D01*
X-3365Y6762D01*
X-3416Y6864D01*
X-3426Y6860D01*
X-3432Y6857D01*
X-3436Y6857D01*
X-3438Y6859D01*
X-3437Y6862D01*
X-3434Y6867D01*
X-3428Y6875D01*
X-3420Y6884D01*
X-3397Y6908D01*
X-3306Y6857D01*
D02*
G37*
G36*
X4779Y7243D02*
X4788Y7241D01*
X4815Y7234D01*
X4833Y7228D01*
X4829Y7125D01*
X4810Y7130D01*
X4765Y7141D01*
X4754Y7142D01*
X4744Y7142D01*
X4735Y7142D01*
X4728Y7140D01*
X4723Y7137D01*
X4720Y7134D01*
X4781Y7230D01*
X4774Y7235D01*
X4769Y7239D01*
X4768Y7242D01*
X4768Y7243D01*
X4772Y7244D01*
X4779Y7243D01*
D02*
G37*
G36*
X-815Y7053D02*
X-915Y7039D01*
X-915Y7040D01*
X-915Y7042D01*
X-921Y7091D01*
X-822Y7103D01*
X-815Y7053D01*
D02*
G37*
G36*
X-6296Y4267D02*
X-6305Y4222D01*
X-6306Y4210D01*
X-6306Y4199D01*
X-6304Y4191D01*
X-6302Y4183D01*
X-6299Y4178D01*
X-6295Y4174D01*
X-6391Y4236D01*
X-6397Y4228D01*
X-6401Y4223D01*
X-6404Y4221D01*
X-6407Y4221D01*
X-6408Y4225D01*
X-6408Y4231D01*
X-6406Y4240D01*
X-6404Y4252D01*
X-6396Y4285D01*
X-6292Y4286D01*
X-6296Y4267D01*
D02*
G37*
G36*
X7755Y3887D02*
X7760Y3883D01*
X7767Y3877D01*
X7787Y3857D01*
X7800Y3843D01*
X7744Y3756D01*
X7731Y3769D01*
X7697Y3801D01*
X7688Y3808D01*
X7680Y3813D01*
X7672Y3817D01*
X7665Y3819D01*
X7659Y3819D01*
X7655Y3818D01*
X7756Y3871D01*
X7752Y3879D01*
X7750Y3884D01*
X7750Y3888D01*
X7751Y3888D01*
X7755Y3887D01*
D02*
G37*
G36*
X8646Y4339D02*
X8651Y4334D01*
X8658Y4328D01*
X8677Y4307D01*
X8689Y4293D01*
X8631Y4208D01*
X8618Y4222D01*
X8586Y4254D01*
X8577Y4262D01*
X8568Y4267D01*
X8561Y4271D01*
X8555Y4273D01*
X8549Y4274D01*
X8544Y4273D01*
X8646Y4324D01*
X8643Y4332D01*
X8641Y4337D01*
X8641Y4340D01*
X8642Y4341D01*
X8646Y4339D01*
D02*
G37*
G36*
X-7959Y5371D02*
X-7965Y5353D01*
X-7977Y5309D01*
X-7979Y5297D01*
X-7980Y5287D01*
X-7979Y5279D01*
X-7978Y5272D01*
X-7976Y5267D01*
X-7972Y5264D01*
X-8068Y5326D01*
X-8073Y5319D01*
X-8077Y5315D01*
X-8079Y5313D01*
X-8080Y5315D01*
X-8080Y5319D01*
X-8079Y5325D01*
X-8077Y5335D01*
X-8062Y5379D01*
X-7959Y5371D01*
D02*
G37*
G36*
X-7115Y4843D02*
X-7123Y4797D01*
X-7124Y4785D01*
X-7124Y4775D01*
X-7123Y4766D01*
X-7120Y4759D01*
X-7117Y4753D01*
X-7113Y4749D01*
X-7209Y4812D01*
X-7214Y4804D01*
X-7219Y4799D01*
X-7222Y4796D01*
X-7225Y4797D01*
X-7226Y4800D01*
X-7226Y4806D01*
X-7225Y4815D01*
X-7222Y4828D01*
X-7214Y4860D01*
X-7110Y4861D01*
X-7115Y4843D01*
D02*
G37*
G36*
X-4208Y8631D02*
X-4222Y8618D01*
X-4254Y8586D01*
X-4262Y8576D01*
X-4267Y8568D01*
X-4271Y8561D01*
X-4273Y8555D01*
X-4274Y8549D01*
X-4273Y8544D01*
X-4324Y8646D01*
X-4332Y8643D01*
X-4337Y8641D01*
X-4340Y8641D01*
X-4341Y8642D01*
X-4339Y8646D01*
X-4334Y8651D01*
X-4328Y8658D01*
X-4307Y8677D01*
X-4293Y8689D01*
X-4208Y8631D01*
D02*
G37*
G36*
X622Y8585D02*
X603Y8580D01*
X559Y8567D01*
X548Y8562D01*
X540Y8558D01*
X533Y8553D01*
X528Y8549D01*
X525Y8544D01*
X524Y8539D01*
X527Y8653D01*
X518Y8654D01*
X513Y8655D01*
X510Y8656D01*
X510Y8658D01*
X514Y8660D01*
X520Y8662D01*
X529Y8665D01*
X556Y8672D01*
X574Y8677D01*
X622Y8585D01*
D02*
G37*
G36*
X-408Y9043D02*
X-411Y9040D01*
X-414Y9035D01*
X-416Y9027D01*
X-418Y9018D01*
X-419Y9007D01*
X-420Y8994D01*
X-419Y8962D01*
X-419Y8943D01*
X-518Y8938D01*
X-520Y8957D01*
X-525Y9002D01*
X-527Y9013D01*
X-530Y9021D01*
X-533Y9028D01*
X-536Y9033D01*
X-540Y9036D01*
X-543Y9037D01*
X-404Y9044D01*
X-408Y9043D01*
D02*
G37*
G36*
X580Y9650D02*
X582Y9650D01*
X587Y9649D01*
X603Y9648D01*
X678Y9647D01*
X675Y9547D01*
X656Y9547D01*
X583Y9542D01*
X578Y9540D01*
X575Y9539D01*
X574Y9537D01*
X579Y9651D01*
X580Y9650D01*
D02*
G37*
G36*
X-443Y9418D02*
X-438Y9373D01*
X-436Y9362D01*
X-433Y9353D01*
X-430Y9346D01*
X-427Y9342D01*
X-423Y9339D01*
X-420Y9338D01*
X-559Y9331D01*
X-555Y9332D01*
X-552Y9335D01*
X-549Y9340D01*
X-547Y9347D01*
X-545Y9356D01*
X-544Y9368D01*
X-543Y9381D01*
X-544Y9413D01*
X-544Y9432D01*
X-444Y9437D01*
X-443Y9418D01*
D02*
G37*
G36*
X-3752Y7747D02*
X-3765Y7734D01*
X-3797Y7701D01*
X-3804Y7692D01*
X-3809Y7683D01*
X-3813Y7676D01*
X-3815Y7670D01*
X-3815Y7664D01*
X-3814Y7660D01*
X-3871Y7759D01*
X-3878Y7755D01*
X-3882Y7754D01*
X-3885Y7754D01*
X-3885Y7755D01*
X-3883Y7759D01*
X-3878Y7764D01*
X-3872Y7771D01*
X-3838Y7804D01*
X-3752Y7747D01*
D02*
G37*
G36*
X569Y7592D02*
X550Y7587D01*
X507Y7572D01*
X496Y7566D01*
X487Y7561D01*
X480Y7556D01*
X475Y7551D01*
X472Y7546D01*
X471Y7540D01*
X474Y7655D01*
X465Y7655D01*
X459Y7656D01*
X455Y7658D01*
X455Y7660D01*
X458Y7662D01*
X463Y7665D01*
X472Y7669D01*
X484Y7672D01*
X516Y7682D01*
X569Y7592D01*
D02*
G37*
G36*
X-356Y8044D02*
X-359Y8041D01*
X-361Y8036D01*
X-364Y8029D01*
X-365Y8020D01*
X-366Y8009D01*
X-367Y7996D01*
X-367Y7964D01*
X-366Y7945D01*
X-466Y7939D01*
X-467Y7958D01*
X-473Y8003D01*
X-475Y8014D01*
X-478Y8023D01*
X-481Y8030D01*
X-484Y8034D01*
X-487Y8037D01*
X-491Y8038D01*
X-352Y8045D01*
X-356Y8044D01*
D02*
G37*
G36*
X-391Y8419D02*
X-386Y8374D01*
X-383Y8364D01*
X-381Y8355D01*
X-378Y8348D01*
X-375Y8343D01*
X-371Y8340D01*
X-367Y8339D01*
X-506Y8332D01*
X-503Y8333D01*
X-500Y8336D01*
X-497Y8342D01*
X-495Y8349D01*
X-493Y8358D01*
X-492Y8369D01*
X-491Y8382D01*
X-491Y8414D01*
X-492Y8433D01*
X-392Y8438D01*
X-391Y8419D01*
D02*
G37*
G36*
X5324Y8079D02*
X5334Y8077D01*
X5361Y8069D01*
X5378Y8063D01*
X5370Y7960D01*
X5352Y7966D01*
X5308Y7977D01*
X5296Y7979D01*
X5286Y7980D01*
X5278Y7980D01*
X5271Y7978D01*
X5266Y7976D01*
X5263Y7972D01*
X5325Y8068D01*
X5318Y8073D01*
X5314Y8077D01*
X5313Y8079D01*
X5314Y8080D01*
X5318Y8080D01*
X5324Y8079D01*
D02*
G37*
G36*
X-8543Y-383D02*
X-8540Y-386D01*
X-8535Y-388D01*
X-8528Y-390D01*
X-8518Y-392D01*
X-8507Y-393D01*
X-8479Y-394D01*
X-8443Y-392D01*
X-8439Y-492D01*
X-8458Y-494D01*
X-8503Y-499D01*
X-8514Y-502D01*
X-8523Y-505D01*
X-8529Y-508D01*
X-8534Y-511D01*
X-8537Y-515D01*
X-8538Y-519D01*
X-8544Y-379D01*
X-8543Y-383D01*
D02*
G37*
G36*
X8659Y-510D02*
X8662Y-516D01*
X8665Y-525D01*
X8672Y-552D01*
X8676Y-570D01*
X8584Y-618D01*
X8580Y-600D01*
X8566Y-556D01*
X8562Y-545D01*
X8557Y-536D01*
X8552Y-529D01*
X8547Y-524D01*
X8542Y-521D01*
X8537Y-519D01*
X8651Y-526D01*
X8652Y-516D01*
X8653Y-510D01*
X8655Y-507D01*
X8657Y-507D01*
X8659Y-510D01*
D02*
G37*
G36*
X-7833Y-481D02*
X-7834Y-477D01*
X-7837Y-474D01*
X-7842Y-471D01*
X-7849Y-469D01*
X-7858Y-467D01*
X-7869Y-466D01*
X-7883Y-465D01*
X-7915Y-465D01*
X-7934Y-466D01*
X-7939Y-366D01*
X-7920Y-365D01*
X-7875Y-360D01*
X-7864Y-357D01*
X-7856Y-355D01*
X-7849Y-352D01*
X-7844Y-349D01*
X-7841Y-345D01*
X-7840Y-342D01*
X-7833Y-481D01*
D02*
G37*
G36*
X-7545Y-329D02*
X-7542Y-332D01*
X-7537Y-335D01*
X-7530Y-337D01*
X-7521Y-339D01*
X-7509Y-340D01*
X-7496Y-341D01*
X-7464Y-341D01*
X-7445Y-340D01*
X-7440Y-440D01*
X-7459Y-441D01*
X-7504Y-446D01*
X-7514Y-449D01*
X-7523Y-451D01*
X-7530Y-454D01*
X-7535Y-457D01*
X-7538Y-461D01*
X-7539Y-464D01*
X-7546Y-325D01*
X-7545Y-329D01*
D02*
G37*
G36*
X7661Y-454D02*
X7664Y-460D01*
X7668Y-468D01*
X7672Y-480D01*
X7681Y-512D01*
X7591Y-565D01*
X7586Y-547D01*
X7571Y-503D01*
X7566Y-492D01*
X7560Y-483D01*
X7555Y-476D01*
X7549Y-471D01*
X7544Y-468D01*
X7538Y-467D01*
X7653Y-473D01*
X7653Y-463D01*
X7655Y-456D01*
X7657Y-453D01*
X7659Y-452D01*
X7661Y-454D01*
D02*
G37*
G36*
X-9830Y-584D02*
X-9832Y-581D01*
X-9835Y-577D01*
X-9840Y-575D01*
X-9847Y-573D01*
X-9856Y-571D01*
X-9867Y-570D01*
X-9880Y-569D01*
X-9912Y-570D01*
X-9931Y-571D01*
X-9936Y-471D01*
X-9917Y-469D01*
X-9872Y-464D01*
X-9861Y-461D01*
X-9852Y-459D01*
X-9846Y-456D01*
X-9841Y-452D01*
X-9838Y-449D01*
X-9837Y-445D01*
X-9830Y-584D01*
D02*
G37*
G36*
X-6844Y-3319D02*
X-6808Y-3349D01*
X-6799Y-3356D01*
X-6790Y-3361D01*
X-6781Y-3364D01*
X-6774Y-3366D01*
X-6768Y-3366D01*
X-6763Y-3364D01*
X-6864Y-3417D01*
X-6860Y-3425D01*
X-6858Y-3432D01*
X-6857Y-3436D01*
X-6859Y-3438D01*
X-6862Y-3437D01*
X-6868Y-3434D01*
X-6875Y-3428D01*
X-6884Y-3420D01*
X-6909Y-3396D01*
X-6857Y-3306D01*
X-6844Y-3319D01*
D02*
G37*
G36*
X9655Y-563D02*
X9657Y-567D01*
X9659Y-574D01*
X9662Y-583D01*
X9672Y-629D01*
X9579Y-673D01*
X9575Y-654D01*
X9563Y-610D01*
X9559Y-599D01*
X9554Y-590D01*
X9550Y-583D01*
X9546Y-578D01*
X9541Y-575D01*
X9537Y-574D01*
X9651Y-578D01*
X9651Y-570D01*
X9652Y-565D01*
X9654Y-563D01*
X9655Y-563D01*
D02*
G37*
G36*
X-8832Y-531D02*
X-8833Y-528D01*
X-8836Y-525D01*
X-8842Y-522D01*
X-8849Y-520D01*
X-8858Y-519D01*
X-8869Y-518D01*
X-8897Y-517D01*
X-8933Y-518D01*
X-8937Y-418D01*
X-8918Y-417D01*
X-8873Y-411D01*
X-8862Y-409D01*
X-8854Y-406D01*
X-8847Y-403D01*
X-8842Y-400D01*
X-8839Y-396D01*
X-8838Y-392D01*
X-8832Y-531D01*
D02*
G37*
G36*
X-9542Y-435D02*
X-9539Y-438D01*
X-9533Y-440D01*
X-9526Y-443D01*
X-9517Y-444D01*
X-9506Y-445D01*
X-9493Y-446D01*
X-9461Y-446D01*
X-9442Y-445D01*
X-9438Y-545D01*
X-9456Y-546D01*
X-9501Y-551D01*
X-9512Y-554D01*
X-9521Y-557D01*
X-9528Y-560D01*
X-9533Y-563D01*
X-9536Y-567D01*
X-9536Y-570D01*
X-9543Y-431D01*
X-9542Y-435D01*
D02*
G37*
G36*
X-7586Y547D02*
X-7571Y503D01*
X-7566Y492D01*
X-7560Y483D01*
X-7555Y476D01*
X-7549Y471D01*
X-7544Y468D01*
X-7538Y467D01*
X-7653Y473D01*
X-7654Y463D01*
X-7655Y456D01*
X-7657Y453D01*
X-7659Y452D01*
X-7661Y454D01*
X-7664Y460D01*
X-7668Y468D01*
X-7672Y480D01*
X-7681Y513D01*
X-7591Y565D01*
X-7586Y547D01*
D02*
G37*
G36*
X9831Y581D02*
X9834Y578D01*
X9840Y575D01*
X9847Y573D01*
X9856Y572D01*
X9867Y570D01*
X9880Y570D01*
X9912Y570D01*
X9931Y571D01*
X9936Y471D01*
X9917Y469D01*
X9872Y464D01*
X9862Y462D01*
X9853Y459D01*
X9846Y456D01*
X9841Y453D01*
X9838Y450D01*
X9837Y446D01*
X9830Y585D01*
X9831Y581D01*
D02*
G37*
G36*
X-8580Y602D02*
X-8567Y558D01*
X-8562Y547D01*
X-8557Y538D01*
X-8553Y531D01*
X-8548Y526D01*
X-8543Y523D01*
X-8538Y522D01*
X-8652Y526D01*
X-8653Y517D01*
X-8654Y511D01*
X-8655Y509D01*
X-8657Y509D01*
X-8659Y512D01*
X-8662Y518D01*
X-8665Y527D01*
X-8672Y554D01*
X-8676Y572D01*
X-8585Y620D01*
X-8580Y602D01*
D02*
G37*
G36*
X6863Y3437D02*
X6868Y3433D01*
X6875Y3428D01*
X6885Y3419D01*
X6909Y3396D01*
X6858Y3306D01*
X6844Y3319D01*
X6809Y3349D01*
X6799Y3356D01*
X6790Y3361D01*
X6782Y3364D01*
X6775Y3366D01*
X6768Y3366D01*
X6763Y3364D01*
X6865Y3417D01*
X6860Y3425D01*
X6858Y3432D01*
X6858Y3436D01*
X6859Y3437D01*
X6863Y3437D01*
D02*
G37*
G36*
X-9577Y694D02*
X-9563Y650D01*
X-9558Y639D01*
X-9553Y630D01*
X-9549Y623D01*
X-9544Y618D01*
X-9538Y615D01*
X-9533Y614D01*
X-9648Y620D01*
X-9648Y611D01*
X-9650Y604D01*
X-9651Y601D01*
X-9653Y601D01*
X-9655Y604D01*
X-9658Y610D01*
X-9661Y618D01*
X-9669Y645D01*
X-9673Y663D01*
X-9582Y713D01*
X-9577Y694D01*
D02*
G37*
G36*
X7835Y476D02*
X7838Y474D01*
X7843Y472D01*
X7850Y470D01*
X7859Y469D01*
X7883Y467D01*
X7934Y466D01*
X7938Y366D01*
X7919Y366D01*
X7887Y364D01*
X7874Y362D01*
X7863Y359D01*
X7855Y356D01*
X7848Y353D01*
X7843Y349D01*
X7840Y344D01*
X7839Y339D01*
X7834Y478D01*
X7835Y476D01*
D02*
G37*
G36*
X7545Y328D02*
X7544Y330D01*
X7541Y332D01*
X7536Y334D01*
X7529Y336D01*
X7520Y337D01*
X7496Y339D01*
X7445Y340D01*
X7441Y440D01*
X7460Y440D01*
X7492Y442D01*
X7505Y444D01*
X7515Y447D01*
X7524Y450D01*
X7531Y453D01*
X7536Y457D01*
X7539Y462D01*
X7540Y467D01*
X7545Y328D01*
D02*
G37*
G36*
X8544Y379D02*
X8543Y383D01*
X8540Y386D01*
X8535Y388D01*
X8528Y391D01*
X8518Y392D01*
X8507Y393D01*
X8479Y394D01*
X8443Y392D01*
X8439Y492D01*
X8458Y494D01*
X8503Y499D01*
X8514Y502D01*
X8523Y505D01*
X8529Y508D01*
X8534Y511D01*
X8537Y515D01*
X8538Y519D01*
X8544Y379D01*
D02*
G37*
G36*
X9543Y430D02*
X9542Y434D01*
X9539Y437D01*
X9534Y440D01*
X9527Y442D01*
X9518Y444D01*
X9507Y445D01*
X9493Y446D01*
X9461Y446D01*
X9442Y445D01*
X9437Y545D01*
X9456Y546D01*
X9501Y551D01*
X9512Y553D01*
X9521Y556D01*
X9528Y559D01*
X9532Y562D01*
X9535Y566D01*
X9536Y570D01*
X9543Y430D01*
D02*
G37*
G36*
X8833Y528D02*
X8836Y525D01*
X8842Y522D01*
X8849Y520D01*
X8858Y519D01*
X8869Y518D01*
X8897Y517D01*
X8933Y518D01*
X8937Y418D01*
X8918Y417D01*
X8873Y411D01*
X8862Y409D01*
X8854Y406D01*
X8847Y403D01*
X8842Y400D01*
X8839Y396D01*
X8838Y392D01*
X8832Y531D01*
X8833Y528D01*
D02*
G37*
D116*
X-245Y7249D02*
X-95D01*
X0Y7344D02*
Y7700D01*
X-364Y6940D02*
Y7130D01*
X-245Y7249D01*
X-95D02*
X0Y7344D01*
X-4099Y8791D02*
X-3945Y8861D01*
X-4363Y8563D02*
X-4099Y8791D01*
X-3677Y7885D02*
X-3539Y7948D01*
X-3905Y7674D02*
X-3677Y7885D01*
X-3254Y6979D02*
X-3132Y7034D01*
X-3455Y6780D02*
X-3254Y6979D01*
X-7946Y5564D02*
X-7847Y5702D01*
X-8059Y5234D02*
X-7946Y5564D01*
X-7127Y4990D02*
X-7038Y5114D01*
X-7201Y4721D02*
X-7127Y4990D01*
X-6307Y4417D02*
X-6229Y4526D01*
X-6382Y4145D02*
X-6307Y4417D01*
X-7671Y671D02*
X-7658Y805D01*
X-7671Y671D02*
X-7600Y398D01*
X-8667Y758D02*
X-8652Y909D01*
X-8667Y758D02*
X-8598Y452D01*
X-9663Y845D02*
X-9647Y1014D01*
X-9663Y845D02*
X-9595Y545D01*
X-9936Y-521D02*
X-9782Y-512D01*
X-9592Y-503D02*
X-9437Y-495D01*
X-8938Y-468D02*
X-8783Y-459D01*
X-8593Y-451D02*
X-8438Y-442D01*
X-7939Y-416D02*
X-7784Y-408D01*
X-7595Y-398D02*
X-7440Y-390D01*
X-7034Y-3132D02*
X-6979Y-3254D01*
X-6781Y-3455D01*
X-7948Y-3539D02*
X-7885Y-3677D01*
X-7672Y-3909D01*
X-8861Y-3945D02*
X-8791Y-4099D01*
X-8563Y-4362D01*
X-4526Y-6229D02*
X-4417Y-6307D01*
X-4144Y-6383D01*
X-5114Y-7038D02*
X-4990Y-7127D01*
X-4689Y-7221D01*
X-5702Y-7847D02*
X-5564Y-7946D01*
X-5234Y-8060D01*
X-1014Y-9647D02*
X-845Y-9663D01*
X-504Y-9597D01*
X-909Y-8652D02*
X-758Y-8667D01*
X-451Y-8598D01*
X-805Y-7658D02*
X-671Y-7671D01*
X-399Y-7600D01*
X390Y-7440D02*
X399Y-7595D01*
X407Y-7784D02*
X416Y-7939D01*
X442Y-8438D02*
X452Y-8593D01*
X459Y-8783D02*
X468Y-8938D01*
X495Y-9437D02*
X504Y-9592D01*
X511Y-9782D02*
X521Y-9936D01*
X9782Y513D02*
X9936Y521D01*
X9437Y495D02*
X9592Y503D01*
X8783Y459D02*
X8938Y468D01*
X7794Y416D02*
X7939D01*
X7784Y407D02*
X7794Y416D01*
X7440Y390D02*
X7585D01*
X7595Y399D01*
X8438Y442D02*
X8593Y451D01*
X8791Y4099D02*
X8861Y3945D01*
X8563Y4363D02*
X8791Y4099D01*
X7885Y3677D02*
X7948Y3539D01*
X7672Y3908D02*
X7885Y3677D01*
X6979Y3254D02*
X7034Y3132D01*
X6781Y3454D02*
X6979Y3254D01*
X7658Y-805D02*
X7671Y-671D01*
X7600Y-398D02*
X7671Y-671D01*
X8652Y-909D02*
X8667Y-758D01*
X8598Y-450D02*
X8667Y-758D01*
X9647Y-1014D02*
X9663Y-845D01*
X9597Y-504D02*
X9663Y-845D01*
X6229Y-4526D02*
X6307Y-4417D01*
X6383Y-4144D01*
X7038Y-5114D02*
X7127Y-4990D01*
X7221Y-4689D01*
X7847Y-5702D02*
X7946Y-5564D01*
X8060Y-5234D01*
X3132Y-7034D02*
X3254Y-6979D01*
X3454Y-6781D01*
X3539Y-7948D02*
X3677Y-7885D01*
X3908Y-7672D01*
X3945Y-8861D02*
X4099Y-8791D01*
X4363Y-8562D01*
X5564Y7946D02*
X5702Y7847D01*
X5234Y8060D02*
X5564Y7946D01*
X4990Y7127D02*
X5114Y7038D01*
X4690Y7221D02*
X4990Y7127D01*
X4417Y6307D02*
X4526Y6229D01*
X4146Y6381D02*
X4417Y6307D01*
X-447Y8538D02*
X-434Y8284D01*
X-500Y9537D02*
X-486Y9282D01*
X-477Y9093D02*
X-463Y8838D01*
X-424Y8094D02*
X-411Y7839D01*
X453Y8598D02*
X758Y8667D01*
X895D01*
X504Y9597D02*
X964D01*
X1014Y9647D01*
X671Y7671D02*
X792D01*
X401Y7599D02*
X671Y7671D01*
X-871Y7097D02*
X-847Y6898D01*
X-871Y7097D02*
X-763Y7260D01*
X-972Y9249D02*
X-763Y7260D01*
X-972Y9249D02*
X-811Y9265D01*
X-663Y9477D01*
D118*
X9093Y-5250D02*
D03*
X5250Y-9093D02*
D03*
X-5250D02*
D03*
X-9093Y-5250D02*
D03*
Y5250D02*
D03*
X-5250Y9093D02*
D03*
X9093Y5250D02*
D03*
X5250Y9093D02*
D03*
D119*
X-159Y-9099D02*
D03*
X-176Y-10098D02*
D03*
X-2272Y-9841D02*
D03*
X-1231Y-10025D02*
D03*
X-1109Y-9032D02*
D03*
X-2047Y-8867D02*
D03*
X-2963Y-8604D02*
D03*
X-3288Y-9550D02*
D03*
X-4268Y-9154D02*
D03*
X-3846Y-8247D02*
D03*
X-5202Y-8657D02*
D03*
X-4687Y-7800D02*
D03*
X-5477Y-7268D02*
D03*
X-6078Y-8066D02*
D03*
X-6888Y-7387D02*
D03*
X-6206Y-6655D02*
D03*
X-6868Y-5970D02*
D03*
X-7623Y-6626D02*
D03*
X-8273Y-5793D02*
D03*
X-7454Y-5220D02*
D03*
X-8834Y-4897D02*
D03*
X-7959Y-4412D02*
D03*
X-8377Y-3556D02*
D03*
X-9297Y-3946D02*
D03*
X-9659Y-2953D02*
D03*
X-9914Y-1927D02*
D03*
X-8702Y-2661D02*
D03*
X-8933Y-1736D02*
D03*
X-10062Y-880D02*
D03*
X-9065Y-793D02*
D03*
X-9099Y159D02*
D03*
X-10098Y176D02*
D03*
X-10025Y1231D02*
D03*
X-9032Y1109D02*
D03*
X-8867Y2047D02*
D03*
X-9841Y2272D02*
D03*
X-9550Y3288D02*
D03*
X-8604Y2963D02*
D03*
X-8247Y3846D02*
D03*
X-6655Y6206D02*
D03*
X-7268Y5477D02*
D03*
X-7800Y4687D02*
D03*
X-9154Y4268D02*
D03*
X-8657Y5202D02*
D03*
X-8066Y6078D02*
D03*
X-7387Y6888D02*
D03*
X-6626Y7623D02*
D03*
X-5970Y6868D02*
D03*
X-5220Y7454D02*
D03*
X-5793Y8273D02*
D03*
X-4897Y8834D02*
D03*
X-4412Y7959D02*
D03*
X-3946Y9297D02*
D03*
X-2953Y9659D02*
D03*
X-1927Y9914D02*
D03*
X-880Y10062D02*
D03*
X-3556Y8377D02*
D03*
X-2661Y8702D02*
D03*
X-1736Y8933D02*
D03*
X-706Y8069D02*
D03*
X-1546Y7951D02*
D03*
X-2368Y7746D02*
D03*
X-3165Y7456D02*
D03*
X-3927Y7084D02*
D03*
X-4646Y6635D02*
D03*
X-5314Y6113D02*
D03*
X-5924Y5524D02*
D03*
X-6469Y4875D02*
D03*
X-6943Y4172D02*
D03*
X-7341Y3423D02*
D03*
X-7659Y2637D02*
D03*
X-7892Y1822D02*
D03*
X-8040Y987D02*
D03*
X-8099Y141D02*
D03*
X-8069Y-706D02*
D03*
X-7951Y-1546D02*
D03*
X-7746Y-2368D02*
D03*
X-7456Y-3165D02*
D03*
X-7084Y-3927D02*
D03*
X-6635Y-4646D02*
D03*
X-6113Y-5314D02*
D03*
X-5524Y-5924D02*
D03*
X-4875Y-6469D02*
D03*
X-4172Y-6943D02*
D03*
X-3423Y-7341D02*
D03*
X-2637Y-7659D02*
D03*
X-1822Y-7892D02*
D03*
X-987Y-8040D02*
D03*
X-141Y-8099D02*
D03*
X-3945Y8861D02*
D03*
X-3539Y7948D02*
D03*
X-3132Y7034D02*
D03*
X-7847Y5702D02*
D03*
X-7038Y5114D02*
D03*
X-6229Y4526D02*
D03*
X-7658Y805D02*
D03*
X-8652Y909D02*
D03*
X-9647Y1014D02*
D03*
X-9936Y-521D02*
D03*
X-9437Y-495D02*
D03*
X-8938Y-468D02*
D03*
X-8438Y-442D02*
D03*
X-7939Y-416D02*
D03*
X-7440Y-390D02*
D03*
X-7034Y-3132D02*
D03*
X-7948Y-3539D02*
D03*
X-8861Y-3945D02*
D03*
X-4526Y-6229D02*
D03*
X-5114Y-7038D02*
D03*
X-5702Y-7847D02*
D03*
X-1014Y-9647D02*
D03*
X-909Y-8652D02*
D03*
X-805Y-7658D02*
D03*
X390Y-7440D02*
D03*
X416Y-7939D02*
D03*
X442Y-8438D02*
D03*
X468Y-8938D02*
D03*
X495Y-9437D02*
D03*
X521Y-9936D02*
D03*
X9936Y521D02*
D03*
X9437Y495D02*
D03*
X8938Y468D02*
D03*
X7939Y416D02*
D03*
X7440Y390D02*
D03*
X8438Y442D02*
D03*
X8861Y3945D02*
D03*
X7948Y3539D02*
D03*
X7034Y3132D02*
D03*
X7658Y-805D02*
D03*
X8652Y-909D02*
D03*
X9647Y-1014D02*
D03*
X6229Y-4526D02*
D03*
X7038Y-5114D02*
D03*
X7847Y-5702D02*
D03*
X3132Y-7034D02*
D03*
X3539Y-7948D02*
D03*
X3945Y-8861D02*
D03*
X1736Y-8933D02*
D03*
X2661Y-8702D02*
D03*
X3556Y-8377D02*
D03*
X3946Y-9297D02*
D03*
X2953Y-9659D02*
D03*
X1927Y-9914D02*
D03*
X880Y-10062D02*
D03*
X793Y-9065D02*
D03*
X706Y-8069D02*
D03*
X1546Y-7951D02*
D03*
X2368Y-7746D02*
D03*
X3165Y-7456D02*
D03*
X3927Y-7084D02*
D03*
X4412Y-7959D02*
D03*
X4897Y-8834D02*
D03*
X5793Y-8273D02*
D03*
X5220Y-7454D02*
D03*
X4646Y-6635D02*
D03*
X5314Y-6113D02*
D03*
X5970Y-6868D02*
D03*
X6626Y-7623D02*
D03*
X7387Y-6888D02*
D03*
X6655Y-6206D02*
D03*
X5924Y-5524D02*
D03*
X6469Y-4875D02*
D03*
X7268Y-5477D02*
D03*
X8066Y-6078D02*
D03*
X8657Y-5202D02*
D03*
X7800Y-4687D02*
D03*
X6943Y-4172D02*
D03*
X7341Y-3423D02*
D03*
X8247Y-3846D02*
D03*
X9154Y-4268D02*
D03*
X9550Y-3288D02*
D03*
X8604Y-2963D02*
D03*
X7659Y-2637D02*
D03*
X7892Y-1822D02*
D03*
X8867Y-2047D02*
D03*
X9841Y-2272D02*
D03*
X10025Y-1231D02*
D03*
X9032Y-1109D02*
D03*
X8040Y-987D02*
D03*
X8099Y-141D02*
D03*
X9099Y-159D02*
D03*
X10098Y-176D02*
D03*
X10062Y880D02*
D03*
X9065Y793D02*
D03*
X8069Y706D02*
D03*
X7951Y1546D02*
D03*
X8933Y1736D02*
D03*
X9914Y1927D02*
D03*
X9659Y2953D02*
D03*
X8702Y2661D02*
D03*
X7746Y2368D02*
D03*
X9297Y3946D02*
D03*
X8377Y3556D02*
D03*
X7959Y4412D02*
D03*
X8834Y4897D02*
D03*
X7454Y5220D02*
D03*
X8273Y5793D02*
D03*
X7623Y6626D02*
D03*
X7456Y3165D02*
D03*
X7084Y3927D02*
D03*
X6635Y4646D02*
D03*
X6113Y5314D02*
D03*
X5524Y5924D02*
D03*
X6868Y5970D02*
D03*
X6206Y6655D02*
D03*
X6888Y7387D02*
D03*
X6078Y8066D02*
D03*
X5477Y7268D02*
D03*
X4875Y6469D02*
D03*
X5702Y7847D02*
D03*
X5114Y7038D02*
D03*
X4526Y6229D02*
D03*
X176Y10098D02*
D03*
X159Y9099D02*
D03*
X1231Y10025D02*
D03*
X2272Y9841D02*
D03*
X3288Y9550D02*
D03*
X4268Y9154D02*
D03*
X5202Y8657D02*
D03*
X4687Y7800D02*
D03*
X3846Y8247D02*
D03*
X2963Y8604D02*
D03*
X2047Y8867D02*
D03*
X1109Y9032D02*
D03*
X4172Y6943D02*
D03*
X3423Y7341D02*
D03*
X2637Y7659D02*
D03*
X1822Y7892D02*
D03*
X987Y8040D02*
D03*
X141Y8099D02*
D03*
X-663Y9477D02*
D03*
X-447Y8538D02*
D03*
X-500Y9537D02*
D03*
X-463Y8838D02*
D03*
X-411Y7839D02*
D03*
X-793Y9065D02*
D03*
X0Y7700D02*
D03*
X1014Y9647D02*
D03*
X895Y8667D02*
D03*
X792Y7671D02*
D03*
X1693Y6792D02*
D03*
D120*
X-9592Y-503D02*
D03*
X-9782Y-512D02*
D03*
X9592Y503D02*
D03*
X9782Y513D02*
D03*
D121*
X504Y-9592D02*
D03*
X511Y-9782D02*
D03*
D122*
X-486Y9282D02*
D03*
X-477Y9093D02*
D03*
D123*
X-8593Y-451D02*
D03*
X-8783Y-459D02*
D03*
X8593Y451D02*
D03*
X8783Y459D02*
D03*
X7595Y399D02*
D03*
X7784Y407D02*
D03*
D124*
X452Y-8593D02*
D03*
X459Y-8783D02*
D03*
D125*
X-434Y8284D02*
D03*
X-424Y8094D02*
D03*
D126*
X-7595Y-398D02*
D03*
X-7784Y-408D02*
D03*
D127*
X399Y-7595D02*
D03*
X407Y-7784D02*
D03*
D128*
X405Y7779D02*
D03*
X401Y7599D02*
D03*
D129*
X458Y8778D02*
D03*
X453Y8598D02*
D03*
D130*
X511Y9777D02*
D03*
X504Y9597D02*
D03*
D131*
X4241Y6534D02*
D03*
X4146Y6381D02*
D03*
D132*
X4787Y7372D02*
D03*
X4690Y7221D02*
D03*
X-4787Y-7372D02*
D03*
X-4689Y-7221D02*
D03*
X-5332Y-8211D02*
D03*
X-5234Y-8060D02*
D03*
D133*
X5332Y8210D02*
D03*
X5234Y8060D02*
D03*
D134*
X6941Y3537D02*
D03*
X6781Y3454D02*
D03*
X-6941Y-3537D02*
D03*
X-6781Y-3455D02*
D03*
X-7832Y-3991D02*
D03*
X-7672Y-3909D02*
D03*
X-8723Y-4445D02*
D03*
X-8563Y-4362D02*
D03*
D135*
X7832Y3991D02*
D03*
X7672Y3908D02*
D03*
D136*
X8723Y4445D02*
D03*
X8563Y4363D02*
D03*
D137*
X7779Y-408D02*
D03*
X7600Y-398D02*
D03*
X-7779Y408D02*
D03*
X-7600Y398D02*
D03*
X-9774Y555D02*
D03*
X-9595Y545D02*
D03*
D138*
X8778Y-460D02*
D03*
X8598Y-450D02*
D03*
D139*
X9777Y-511D02*
D03*
X9597Y-504D02*
D03*
X-8778Y459D02*
D03*
X-8598Y452D02*
D03*
D140*
X6533Y-4243D02*
D03*
X6383Y-4144D02*
D03*
D141*
X7372Y-4787D02*
D03*
X7221Y-4689D02*
D03*
X-6533Y4243D02*
D03*
X-6382Y4145D02*
D03*
X-7351Y4820D02*
D03*
X-7201Y4721D02*
D03*
X-8211Y5332D02*
D03*
X-8059Y5234D02*
D03*
D142*
X8210Y-5332D02*
D03*
X8060Y-5234D02*
D03*
D143*
X3537Y-6941D02*
D03*
X3454Y-6781D02*
D03*
X-3536Y6941D02*
D03*
X-3455Y6780D02*
D03*
X-4445Y8723D02*
D03*
X-4363Y8563D02*
D03*
D144*
X3991Y-7832D02*
D03*
X3908Y-7672D02*
D03*
D145*
X4444Y-8723D02*
D03*
X4363Y-8562D02*
D03*
D146*
X-407Y-7779D02*
D03*
X-399Y-7600D02*
D03*
D147*
X-460Y-8778D02*
D03*
X-451Y-8598D02*
D03*
D148*
X-512Y-9777D02*
D03*
X-504Y-9597D02*
D03*
D149*
X-4243Y-6533D02*
D03*
X-4144Y-6383D02*
D03*
D150*
X-3994Y7830D02*
D03*
X-3905Y7674D02*
D03*
D151*
X-847Y6898D02*
D03*
D152*
X-364Y6940D02*
D03*
D153*
X606Y6924D02*
D03*
D154*
X1326Y6822D02*
D03*
D155*
X1675Y6773D01*
X1693Y6792D01*
M02*
