G04 Layer_Color=32896*
%FSLAX42Y42*%
%MOMM*%
G71*
G01*
G75*
%ADD112C,0.10*%
%ADD113C,0.25*%
%ADD154C,0.20*%
%ADD292C,0.50*%
D112*
X6750Y0D02*
G03*
X6750Y0I-6750J0D01*
G01*
X-7435Y-530D02*
X-7383Y-1027D01*
X-7933Y-582D02*
X-7880Y-1080D01*
X-7933Y-582D02*
X-7435Y-530D01*
X-7880Y-1080D02*
X-7383Y-1027D01*
X-246Y7446D02*
X254Y7454D01*
X-254Y7946D02*
X246Y7954D01*
X254Y7454D01*
X-254Y7946D02*
X-246Y7446D01*
X528Y7438D02*
X1025Y7381D01*
X585Y7935D02*
X1082Y7878D01*
X1025Y7381D02*
X1082Y7878D01*
X528Y7438D02*
X585Y7935D01*
X1304Y7340D02*
X1792Y7235D01*
X1409Y7829D02*
X1898Y7723D01*
X1792Y7235D02*
X1898Y7723D01*
X1304Y7340D02*
X1409Y7829D01*
X2065Y7162D02*
X2541Y7009D01*
X2218Y7638D02*
X2694Y7484D01*
X2541Y7009D02*
X2694Y7484D01*
X2065Y7162D02*
X2218Y7638D01*
X2802Y6907D02*
X3259Y6705D01*
X3004Y7364D02*
X3462Y7162D01*
X3259Y6705D02*
X3462Y7162D01*
X2802Y6907D02*
X3004Y7364D01*
X4176Y6176D02*
X4579Y5880D01*
X4473Y6579D02*
X4875Y6283D01*
X4579Y5880D02*
X4875Y6283D01*
X4176Y6176D02*
X4473Y6579D01*
X4799Y5700D02*
X5175Y5369D01*
X5130Y6075D02*
X5505Y5745D01*
X5175Y5369D02*
X5505Y5745D01*
X4799Y5700D02*
X5130Y6075D01*
X5369Y5176D02*
X5698Y4800D01*
X5746Y5505D02*
X6075Y5128D01*
X5698Y4800D02*
X6075Y5128D01*
X5369Y5176D02*
X5746Y5505D01*
X5880Y4581D02*
X6175Y4177D01*
X6284Y4875D02*
X6579Y4471D01*
X6175Y4177D02*
X6579Y4471D01*
X5880Y4581D02*
X6284Y4875D01*
X6704Y3258D02*
X6908Y2802D01*
X7160Y3462D02*
X7365Y3006D01*
X6908Y2802D02*
X7365Y3006D01*
X6704Y3258D02*
X7160Y3462D01*
X7011Y2546D02*
X7157Y2067D01*
X7489Y2691D02*
X7635Y2213D01*
X7157Y2067D02*
X7635Y2213D01*
X7011Y2546D02*
X7489Y2691D01*
X7236Y1795D02*
X7338Y1305D01*
X7726Y1897D02*
X7827Y1407D01*
X7338Y1305D02*
X7827Y1407D01*
X7236Y1795D02*
X7726Y1897D01*
X7381Y1025D02*
X7438Y528D01*
X7878Y1082D02*
X7935Y585D01*
X7438Y528D02*
X7935Y585D01*
X7381Y1025D02*
X7878Y1082D01*
X-1025Y7381D02*
X-528Y7438D01*
X-1082Y7878D02*
X-585Y7935D01*
X-528Y7438D01*
X-1082Y7878D02*
X-1025Y7381D01*
X-246Y8446D02*
X254Y8454D01*
X-254Y8946D02*
X246Y8954D01*
X254Y8454D01*
X-254Y8946D02*
X-246Y8446D01*
X635Y8430D02*
X1132Y8378D01*
X687Y8927D02*
X1184Y8875D01*
X1132Y8378D02*
X1184Y8875D01*
X635Y8430D02*
X687Y8927D01*
X1512Y8317D02*
X2001Y8213D01*
X1616Y8806D02*
X2105Y8702D01*
X2001Y8213D02*
X2105Y8702D01*
X1512Y8317D02*
X1616Y8806D01*
X2376Y8108D02*
X2854Y7962D01*
X2522Y8586D02*
X3001Y8440D01*
X2854Y7962D02*
X3001Y8440D01*
X2376Y8108D02*
X2522Y8586D01*
X3211Y7815D02*
X3671Y7620D01*
X3406Y8276D02*
X3866Y8080D01*
X3671Y7620D02*
X3866Y8080D01*
X3211Y7815D02*
X3406Y8276D01*
X4765Y6983D02*
X5169Y6689D01*
X5058Y7388D02*
X5463Y7094D01*
X5169Y6689D02*
X5463Y7094D01*
X4765Y6983D02*
X5058Y7388D01*
X5468Y6447D02*
X5840Y6112D01*
X5803Y6818D02*
X6175Y6484D01*
X5840Y6112D02*
X6175Y6484D01*
X5468Y6447D02*
X5803Y6818D01*
X6112Y5834D02*
X6453Y5468D01*
X6478Y6175D02*
X6819Y5809D01*
X6453Y5468D02*
X6819Y5809D01*
X6112Y5834D02*
X6478Y6175D01*
X6689Y5166D02*
X6986Y4764D01*
X7091Y5463D02*
X7388Y5061D01*
X6986Y4764D02*
X7388Y5061D01*
X6689Y5166D02*
X7091Y5463D01*
X7193Y4442D02*
X7443Y4008D01*
X7626Y4692D02*
X7876Y4258D01*
X7443Y4008D02*
X7876Y4258D01*
X7193Y4442D02*
X7626Y4692D01*
X7617Y3662D02*
X7824Y3207D01*
X8072Y3870D02*
X8279Y3415D01*
X7824Y3207D02*
X8279Y3415D01*
X7617Y3662D02*
X8072Y3870D01*
X7958Y2846D02*
X8116Y2372D01*
X8432Y3005D02*
X8591Y2531D01*
X8116Y2372D02*
X8591Y2531D01*
X7958Y2846D02*
X8432Y3005D01*
X8217Y2007D02*
X8312Y1516D01*
X8708Y2102D02*
X8803Y1611D01*
X8312Y1516D02*
X8803Y1611D01*
X8217Y2007D02*
X8708Y2102D01*
X8378Y1132D02*
X8430Y635D01*
X8875Y1184D02*
X8927Y687D01*
X8430Y635D02*
X8927Y687D01*
X8378Y1132D02*
X8875Y1184D01*
X-1129Y8376D02*
X-633Y8432D01*
X-1186Y8872D02*
X-689Y8929D01*
X-633Y8432D01*
X-1186Y8872D02*
X-1129Y8376D01*
X-246Y9446D02*
X254Y9454D01*
X-254Y9946D02*
X246Y9954D01*
X254Y9454D01*
X-254Y9946D02*
X-246Y9446D01*
X739Y9424D02*
X1236Y9372D01*
X791Y9922D02*
X1289Y9869D01*
X1236Y9372D02*
X1289Y9869D01*
X739Y9424D02*
X791Y9922D01*
X1720Y9295D02*
X2209Y9192D01*
X1824Y9785D02*
X2313Y9681D01*
X2209Y9192D02*
X2313Y9681D01*
X1720Y9295D02*
X1824Y9785D01*
X3654Y8716D02*
X4112Y8515D01*
X3856Y9174D02*
X4313Y8972D01*
X4112Y8515D02*
X4313Y8972D01*
X3654Y8716D02*
X3856Y9174D01*
X5352Y7795D02*
X5754Y7498D01*
X5649Y8197D02*
X6051Y7900D01*
X5754Y7498D02*
X6051Y7900D01*
X5352Y7795D02*
X5649Y8197D01*
X6137Y7190D02*
X6509Y6855D01*
X6472Y7562D02*
X6844Y7227D01*
X6509Y6855D02*
X6844Y7227D01*
X6137Y7190D02*
X6472Y7562D01*
X6855Y6509D02*
X7190Y6137D01*
X7227Y6844D02*
X7562Y6472D01*
X7190Y6137D02*
X7562Y6472D01*
X6855Y6509D02*
X7227Y6844D01*
X7498Y5757D02*
X7792Y5352D01*
X7903Y6051D02*
X8197Y5646D01*
X7792Y5352D02*
X8197Y5646D01*
X7498Y5757D02*
X7903Y6051D01*
X8059Y4942D02*
X8309Y4508D01*
X8492Y5192D02*
X8742Y4758D01*
X8309Y4508D02*
X8742Y4758D01*
X8059Y4942D02*
X8492Y5192D01*
X8531Y4071D02*
X8735Y3615D01*
X8987Y4276D02*
X9192Y3819D01*
X8735Y3615D02*
X9192Y3819D01*
X8531Y4071D02*
X8987Y4276D01*
X8910Y3158D02*
X9065Y2682D01*
X9386Y3312D02*
X9540Y2837D01*
X9065Y2682D02*
X9540Y2837D01*
X8910Y3158D02*
X9386Y3312D01*
X9190Y2207D02*
X9298Y1719D01*
X9678Y2315D02*
X9786Y1827D01*
X9298Y1719D02*
X9786Y1827D01*
X9190Y2207D02*
X9678Y2315D01*
X9374Y1239D02*
X9422Y741D01*
X9872Y1287D02*
X9920Y789D01*
X9422Y741D02*
X9920Y789D01*
X9374Y1239D02*
X9872Y1287D01*
X-1234Y9370D02*
X-737Y9427D01*
X-1291Y9867D02*
X-794Y9924D01*
X-737Y9427D01*
X-1291Y9867D02*
X-1234Y9370D01*
X2684Y9062D02*
X3161Y8912D01*
X2834Y9539D02*
X3311Y9389D01*
X3161Y8912D02*
X3311Y9389D01*
X2684Y9062D02*
X2834Y9539D01*
X6328Y3945D02*
X6574Y3509D01*
X6763Y4191D02*
X7009Y3755D01*
X6574Y3509D02*
X7009Y3755D01*
X6328Y3945D02*
X6763Y4191D01*
X473Y7578D02*
X478Y7798D01*
X328Y7581D02*
X333Y7801D01*
X328Y7581D02*
X473Y7578D01*
X333Y7801D02*
X478Y7798D01*
X4197Y6326D02*
X4313Y6513D01*
X4074Y6402D02*
X4190Y6589D01*
X4074Y6402D02*
X4197Y6326D01*
X4190Y6589D02*
X4313Y6513D01*
X4740Y7165D02*
X4859Y7350D01*
X4618Y7243D02*
X4737Y7428D01*
X4618Y7243D02*
X4740Y7165D01*
X4737Y7428D02*
X4859Y7350D01*
X4509Y8306D02*
X4944Y8060D01*
X4756Y8741D02*
X5191Y8495D01*
X4944Y8060D02*
X5191Y8495D01*
X4509Y8306D02*
X4756Y8741D01*
X4010Y7437D02*
X4447Y7195D01*
X4253Y7874D02*
X4690Y7632D01*
X4447Y7195D02*
X4690Y7632D01*
X4010Y7437D02*
X4253Y7874D01*
X3509Y6574D02*
X3945Y6328D01*
X3755Y7009D02*
X4191Y6763D01*
X3945Y6328D02*
X4191Y6763D01*
X3509Y6574D02*
X3755Y7009D01*
X5283Y8003D02*
X5404Y8187D01*
X5162Y8083D02*
X5283Y8267D01*
X5162Y8083D02*
X5283Y8003D01*
X5283Y8267D02*
X5404Y8187D01*
X6796Y3381D02*
X6992Y3482D01*
X6730Y3510D02*
X6925Y3611D01*
X6730Y3510D02*
X6796Y3381D01*
X6925Y3611D02*
X6992Y3482D01*
X7688Y3835D02*
X7883Y3936D01*
X7621Y3963D02*
X7816Y4065D01*
X7621Y3963D02*
X7688Y3835D01*
X7816Y4065D02*
X7883Y3936D01*
X8578Y4289D02*
X8774Y4389D01*
X8512Y4418D02*
X8708Y4518D01*
X8512Y4418D02*
X8578Y4289D01*
X8708Y4518D02*
X8774Y4389D01*
X7575Y-469D02*
X7795Y-482D01*
X7584Y-324D02*
X7803Y-337D01*
X7575Y-469D02*
X7584Y-324D01*
X7795Y-482D02*
X7803Y-337D01*
X8574Y-522D02*
X8794Y-534D01*
X8582Y-377D02*
X8802Y-389D01*
X8574Y-522D02*
X8582Y-377D01*
X8794Y-534D02*
X8802Y-389D01*
X9574Y-575D02*
X9794Y-585D01*
X9580Y-431D02*
X9800Y-440D01*
X9574Y-575D02*
X9580Y-431D01*
X9794Y-585D02*
X9800Y-440D01*
X6326Y-4193D02*
X6509Y-4315D01*
X6406Y-4073D02*
X6590Y-4194D01*
X6326Y-4193D02*
X6406Y-4073D01*
X6509Y-4315D02*
X6590Y-4194D01*
X7165Y-4739D02*
X7349Y-4859D01*
X7244Y-4618D02*
X7428Y-4737D01*
X7165Y-4739D02*
X7244Y-4618D01*
X7349Y-4859D02*
X7428Y-4737D01*
X8003Y-5283D02*
X8187Y-5404D01*
X8083Y-5162D02*
X8267Y-5283D01*
X8003Y-5283D02*
X8083Y-5162D01*
X8187Y-5404D02*
X8267Y-5283D01*
X3381Y-6796D02*
X3482Y-6992D01*
X3510Y-6730D02*
X3611Y-6925D01*
X3381Y-6796D02*
X3510Y-6730D01*
X3482Y-6992D02*
X3611Y-6925D01*
X3835Y-7687D02*
X3936Y-7883D01*
X3964Y-7621D02*
X4065Y-7816D01*
X3835Y-7687D02*
X3964Y-7621D01*
X3936Y-7883D02*
X4065Y-7816D01*
X4289Y-8577D02*
X4389Y-8774D01*
X4419Y-8512D02*
X4518Y-8708D01*
X4289Y-8577D02*
X4419Y-8512D01*
X4389Y-8774D02*
X4518Y-8708D01*
X-481Y-7796D02*
X-470Y-7576D01*
X-336Y-7803D02*
X-325Y-7583D01*
X-470Y-7576D02*
X-325Y-7583D01*
X-481Y-7796D02*
X-336Y-7803D01*
X-533Y-8794D02*
X-522Y-8575D01*
X-388Y-8802D02*
X-377Y-8582D01*
X-522Y-8575D02*
X-377Y-8582D01*
X-533Y-8794D02*
X-388Y-8802D01*
X-585Y-9793D02*
X-575Y-9574D01*
X-440Y-9800D02*
X-430Y-9580D01*
X-575Y-9574D02*
X-430Y-9580D01*
X-585Y-9793D02*
X-440Y-9800D01*
X-4315Y-6509D02*
X-4193Y-6326D01*
X-4194Y-6590D02*
X-4072Y-6406D01*
X-4193Y-6326D02*
X-4072Y-6406D01*
X-4315Y-6509D02*
X-4194Y-6590D01*
X-4859Y-7349D02*
X-4739Y-7165D01*
X-4738Y-7428D02*
X-4618Y-7244D01*
X-4739Y-7165D02*
X-4618Y-7244D01*
X-4859Y-7349D02*
X-4738Y-7428D01*
X-5404Y-8188D02*
X-5284Y-8003D01*
X-5282Y-8267D02*
X-5162Y-8082D01*
X-5284Y-8003D02*
X-5162Y-8082D01*
X-5404Y-8188D02*
X-5282Y-8267D01*
X-6992Y-3481D02*
X-6796Y-3381D01*
X-6926Y-3610D02*
X-6730Y-3510D01*
X-6796Y-3381D02*
X-6730Y-3510D01*
X-6992Y-3481D02*
X-6926Y-3610D01*
X525Y8576D02*
X531Y8796D01*
X380Y8580D02*
X386Y8800D01*
X380Y8580D02*
X525Y8576D01*
X386Y8800D02*
X531Y8796D01*
X576Y9574D02*
X584Y9794D01*
X431Y9580D02*
X439Y9799D01*
X431Y9580D02*
X576Y9574D01*
X439Y9799D02*
X584Y9794D01*
X-3942Y7883D02*
X-3832Y7692D01*
X-4067Y7811D02*
X-3958Y7620D01*
X-3832Y7692D01*
X-4067Y7811D02*
X-3942Y7883D01*
X-9800Y-445D02*
X-9793Y-580D01*
X-9580Y-435D02*
X-9574Y-570D01*
X-9793Y-580D02*
X-9574Y-570D01*
X-9800Y-445D02*
X-9580Y-435D01*
X9793Y581D02*
X9800Y446D01*
X9573Y569D02*
X9580Y434D01*
X9573Y569D02*
X9793Y581D01*
X9580Y434D02*
X9800Y446D01*
X-543Y9074D02*
X-408Y9081D01*
X-555Y9294D02*
X-420Y9301D01*
X-408Y9081D01*
X-555Y9294D02*
X-543Y9074D01*
X-8801Y-393D02*
X-8795Y-528D01*
X-8581Y-383D02*
X-8575Y-518D01*
X-8795Y-528D02*
X-8575Y-518D01*
X-8801Y-393D02*
X-8581Y-383D01*
X8795Y527D02*
X8801Y393D01*
X8575Y518D02*
X8581Y383D01*
X8575Y518D02*
X8795Y527D01*
X8581Y383D02*
X8801Y393D01*
X-491Y8075D02*
X-356Y8082D01*
X-502Y8295D02*
X-368Y8302D01*
X-356Y8082D01*
X-502Y8295D02*
X-491Y8075D01*
X-7803Y-342D02*
X-7796Y-476D01*
X-7583Y-329D02*
X-7576Y-464D01*
X-7796Y-476D02*
X-7576Y-464D01*
X-7803Y-342D02*
X-7583Y-329D01*
X7797Y475D02*
X7802Y340D01*
X7577Y466D02*
X7582Y331D01*
X7577Y466D02*
X7797Y475D01*
X7582Y331D02*
X7802Y340D01*
X7448Y248D02*
X7452Y-252D01*
X7948Y252D02*
X7952Y-248D01*
X7452Y-252D02*
X7952Y-248D01*
X7448Y248D02*
X7948Y252D01*
X8448Y-248D02*
X8452Y252D01*
X8948Y-252D02*
X8952Y248D01*
X8448Y-248D02*
X8948Y-252D01*
X8452Y252D02*
X8952Y248D01*
X9450Y250D02*
X9450Y-250D01*
X9950Y250D02*
X9950Y-250D01*
X9450Y-250D02*
X9950Y-250D01*
X9450Y250D02*
X9950Y250D01*
X9370Y-1234D02*
X9427Y-737D01*
X9867Y-1291D02*
X9924Y-794D01*
X9370Y-1234D02*
X9867Y-1291D01*
X9427Y-737D02*
X9924Y-794D01*
X8374Y-1127D02*
X8435Y-631D01*
X8870Y-1188D02*
X8931Y-692D01*
X8374Y-1127D02*
X8870Y-1188D01*
X8435Y-631D02*
X8931Y-692D01*
X7381Y-1025D02*
X7438Y-528D01*
X7878Y-1082D02*
X7935Y-585D01*
X7381Y-1025D02*
X7878Y-1082D01*
X7438Y-528D02*
X7935Y-585D01*
X7235Y-1793D02*
X7339Y-1304D01*
X7724Y-1897D02*
X7828Y-1408D01*
X7235Y-1793D02*
X7724Y-1897D01*
X7339Y-1304D02*
X7828Y-1408D01*
X7008Y-2540D02*
X7163Y-2064D01*
X7484Y-2694D02*
X7638Y-2219D01*
X7008Y-2540D02*
X7484Y-2694D01*
X7163Y-2064D02*
X7638Y-2219D01*
X7959Y-2849D02*
X8114Y-2373D01*
X8435Y-3003D02*
X8589Y-2528D01*
X7959Y-2849D02*
X8435Y-3003D01*
X8114Y-2373D02*
X8589Y-2528D01*
X8910Y-3158D02*
X9065Y-2682D01*
X9386Y-3312D02*
X9540Y-2837D01*
X8910Y-3158D02*
X9386Y-3312D01*
X9065Y-2682D02*
X9540Y-2837D01*
X9192Y-2209D02*
X9295Y-1720D01*
X9681Y-2313D02*
X9785Y-1824D01*
X9192Y-2209D02*
X9681Y-2313D01*
X9295Y-1720D02*
X9785Y-1824D01*
X8213Y-2001D02*
X8317Y-1512D01*
X8702Y-2105D02*
X8806Y-1616D01*
X8213Y-2001D02*
X8702Y-2105D01*
X8317Y-1512D02*
X8806Y-1616D01*
X8531Y-4072D02*
X8735Y-3615D01*
X8988Y-4275D02*
X9191Y-3819D01*
X8531Y-4072D02*
X8988Y-4275D01*
X8735Y-3615D02*
X9191Y-3819D01*
X7617Y-3664D02*
X7823Y-3208D01*
X8073Y-3869D02*
X8278Y-3413D01*
X7617Y-3664D02*
X8073Y-3869D01*
X7823Y-3208D02*
X8278Y-3413D01*
X6702Y-3253D02*
X6913Y-2800D01*
X7155Y-3464D02*
X7367Y-3011D01*
X6702Y-3253D02*
X7155Y-3464D01*
X6913Y-2800D02*
X7367Y-3011D01*
X6325Y-3936D02*
X6583Y-3507D01*
X6754Y-4193D02*
X7011Y-3764D01*
X6325Y-3936D02*
X6754Y-4193D01*
X6583Y-3507D02*
X7011Y-3764D01*
X7192Y-4439D02*
X7446Y-4008D01*
X7623Y-4692D02*
X7877Y-4261D01*
X7192Y-4439D02*
X7623Y-4692D01*
X7446Y-4008D02*
X7877Y-4261D01*
X8058Y-4939D02*
X8312Y-4508D01*
X8489Y-5192D02*
X8743Y-4761D01*
X8058Y-4939D02*
X8489Y-5192D01*
X8312Y-4508D02*
X8743Y-4761D01*
X6688Y-5163D02*
X6989Y-4764D01*
X7088Y-5464D02*
X7389Y-5065D01*
X6688Y-5163D02*
X7088Y-5464D01*
X6989Y-4764D02*
X7389Y-5065D01*
X7498Y-5757D02*
X7792Y-5352D01*
X7903Y-6051D02*
X8197Y-5646D01*
X7498Y-5757D02*
X7903Y-6051D01*
X7792Y-5352D02*
X8197Y-5646D01*
X5880Y-4578D02*
X6177Y-4176D01*
X6282Y-4876D02*
X6579Y-4474D01*
X5880Y-4578D02*
X6282Y-4876D01*
X6177Y-4176D02*
X6579Y-4474D01*
X6855Y-6509D02*
X7190Y-6137D01*
X7227Y-6844D02*
X7562Y-6472D01*
X6855Y-6509D02*
X7227Y-6844D01*
X7190Y-6137D02*
X7562Y-6472D01*
X6112Y-5840D02*
X6447Y-5468D01*
X6484Y-6175D02*
X6818Y-5803D01*
X6112Y-5840D02*
X6484Y-6175D01*
X6447Y-5468D02*
X6818Y-5803D01*
X5369Y-5171D02*
X5704Y-4799D01*
X5741Y-5505D02*
X6075Y-5134D01*
X5369Y-5171D02*
X5741Y-5505D01*
X5704Y-4799D02*
X6075Y-5134D01*
X6138Y-7187D02*
X6512Y-6856D01*
X6469Y-7561D02*
X6843Y-7230D01*
X6138Y-7187D02*
X6469Y-7561D01*
X6512Y-6856D02*
X6843Y-7230D01*
X5469Y-6444D02*
X5843Y-6112D01*
X5800Y-6818D02*
X6174Y-6487D01*
X5469Y-6444D02*
X5800Y-6818D01*
X5843Y-6112D02*
X6174Y-6487D01*
X4799Y-5701D02*
X5174Y-5369D01*
X5131Y-6075D02*
X5505Y-5744D01*
X4799Y-5701D02*
X5131Y-6075D01*
X5174Y-5369D02*
X5505Y-5744D01*
X5352Y-7792D02*
X5757Y-7498D01*
X5646Y-8197D02*
X6051Y-7903D01*
X5352Y-7792D02*
X5646Y-8197D01*
X5757Y-7498D02*
X6051Y-7903D01*
X4766Y-6977D02*
X5175Y-6690D01*
X5052Y-7387D02*
X5462Y-7100D01*
X4766Y-6977D02*
X5052Y-7387D01*
X5175Y-6690D02*
X5462Y-7100D01*
X4178Y-6165D02*
X4590Y-5882D01*
X4462Y-6577D02*
X4874Y-6294D01*
X4178Y-6165D02*
X4462Y-6577D01*
X4590Y-5882D02*
X4874Y-6294D01*
X4508Y-8310D02*
X4940Y-8059D01*
X4760Y-8742D02*
X5192Y-8491D01*
X4508Y-8310D02*
X4760Y-8742D01*
X4940Y-8059D02*
X5192Y-8491D01*
X4009Y-7440D02*
X4445Y-7194D01*
X4255Y-7875D02*
X4691Y-7629D01*
X4009Y-7440D02*
X4255Y-7875D01*
X4445Y-7194D02*
X4691Y-7629D01*
X3510Y-6571D02*
X3947Y-6329D01*
X3753Y-7008D02*
X4190Y-6766D01*
X3510Y-6571D02*
X3753Y-7008D01*
X3947Y-6329D02*
X4190Y-6766D01*
X3616Y-8732D02*
X4075Y-8532D01*
X3816Y-9190D02*
X4274Y-8991D01*
X3616Y-8732D02*
X3816Y-9190D01*
X4075Y-8532D02*
X4274Y-8991D01*
X3211Y-7815D02*
X3671Y-7620D01*
X3406Y-8276D02*
X3866Y-8080D01*
X3211Y-7815D02*
X3406Y-8276D01*
X3671Y-7620D02*
X3866Y-8080D01*
X2802Y-6908D02*
X3259Y-6704D01*
X3005Y-7364D02*
X3462Y-7161D01*
X2802Y-6908D02*
X3005Y-7364D01*
X3259Y-6704D02*
X3462Y-7161D01*
X2685Y-9059D02*
X3163Y-8913D01*
X2831Y-9537D02*
X3310Y-9391D01*
X2685Y-9059D02*
X2831Y-9537D01*
X3163Y-8913D02*
X3310Y-9391D01*
X2373Y-8114D02*
X2849Y-7959D01*
X2528Y-8589D02*
X3003Y-8435D01*
X2373Y-8114D02*
X2528Y-8589D01*
X2849Y-7959D02*
X3003Y-8435D01*
X2066Y-7160D02*
X2543Y-7010D01*
X2216Y-7637D02*
X2693Y-7486D01*
X2066Y-7160D02*
X2216Y-7637D01*
X2543Y-7010D02*
X2693Y-7486D01*
X1722Y-9293D02*
X2212Y-9193D01*
X1822Y-9783D02*
X2312Y-9683D01*
X1722Y-9293D02*
X1822Y-9783D01*
X2212Y-9193D02*
X2312Y-9683D01*
X1517Y-8310D02*
X2009Y-8219D01*
X1609Y-8801D02*
X2100Y-8710D01*
X1517Y-8310D02*
X1609Y-8801D01*
X2009Y-8219D02*
X2100Y-8710D01*
X1306Y-7337D02*
X1796Y-7237D01*
X1406Y-7827D02*
X1896Y-7727D01*
X1306Y-7337D02*
X1406Y-7827D01*
X1796Y-7237D02*
X1896Y-7727D01*
X739Y-9424D02*
X1236Y-9372D01*
X791Y-9922D02*
X1289Y-9869D01*
X739Y-9424D02*
X791Y-9922D01*
X1236Y-9372D02*
X1289Y-9869D01*
X-250Y-9450D02*
X250Y-9450D01*
X-250Y-9950D02*
X250Y-9950D01*
X-250Y-9450D02*
X-250Y-9950D01*
X250Y-9450D02*
X250Y-9950D01*
X-1238Y-9373D02*
X-740Y-9423D01*
X-1288Y-9871D02*
X-790Y-9921D01*
X-1288Y-9871D02*
X-1238Y-9373D01*
X-790Y-9921D02*
X-740Y-9423D01*
X-2209Y-9192D02*
X-1720Y-9295D01*
X-2313Y-9681D02*
X-1824Y-9785D01*
X-2313Y-9681D02*
X-2209Y-9192D01*
X-1824Y-9785D02*
X-1720Y-9295D01*
X-3158Y-8910D02*
X-2682Y-9065D01*
X-3312Y-9386D02*
X-2837Y-9540D01*
X-3312Y-9386D02*
X-3158Y-8910D01*
X-2837Y-9540D02*
X-2682Y-9065D01*
X643Y-8420D02*
X1141Y-8386D01*
X677Y-8919D02*
X1176Y-8884D01*
X643Y-8420D02*
X677Y-8919D01*
X1141Y-8386D02*
X1176Y-8884D01*
X-250Y-8450D02*
X250Y-8450D01*
X-250Y-8950D02*
X250Y-8950D01*
X-250Y-8450D02*
X-250Y-8950D01*
X250Y-8950D02*
X250Y-8450D01*
X530Y-7435D02*
X1027Y-7383D01*
X582Y-7933D02*
X1080Y-7880D01*
X530Y-7435D02*
X582Y-7933D01*
X1027Y-7383D02*
X1080Y-7880D01*
X-248Y-7448D02*
X252Y-7452D01*
X-252Y-7948D02*
X248Y-7952D01*
X-252Y-7948D02*
X-248Y-7448D01*
X248Y-7952D02*
X252Y-7452D01*
X-1030Y-7385D02*
X-532Y-7433D01*
X-1078Y-7883D02*
X-580Y-7931D01*
X-1078Y-7883D02*
X-1030Y-7385D01*
X-580Y-7931D02*
X-532Y-7433D01*
X-1132Y-8378D02*
X-635Y-8430D01*
X-1184Y-8875D02*
X-687Y-8927D01*
X-1184Y-8875D02*
X-1132Y-8378D01*
X-687Y-8927D02*
X-635Y-8430D01*
X-2001Y-8213D02*
X-1512Y-8317D01*
X-2105Y-8702D02*
X-1616Y-8806D01*
X-2105Y-8702D02*
X-2001Y-8213D01*
X-1616Y-8806D02*
X-1512Y-8317D01*
X-1793Y-7235D02*
X-1304Y-7339D01*
X-1897Y-7724D02*
X-1408Y-7828D01*
X-1897Y-7724D02*
X-1793Y-7235D01*
X-1408Y-7828D02*
X-1304Y-7339D01*
X-2852Y-7961D02*
X-2375Y-8111D01*
X-3002Y-8437D02*
X-2525Y-8588D01*
X-3002Y-8437D02*
X-2852Y-7961D01*
X-2525Y-8588D02*
X-2375Y-8111D01*
X-2537Y-7007D02*
X-2063Y-7165D01*
X-2696Y-7481D02*
X-2222Y-7640D01*
X-2696Y-7481D02*
X-2537Y-7007D01*
X-2222Y-7640D02*
X-2063Y-7165D01*
X-4075Y-8532D02*
X-3616Y-8732D01*
X-4274Y-8991D02*
X-3816Y-9190D01*
X-4274Y-8991D02*
X-4075Y-8532D01*
X-3816Y-9190D02*
X-3616Y-8732D01*
X-3671Y-7620D02*
X-3211Y-7815D01*
X-3866Y-8080D02*
X-3406Y-8276D01*
X-3866Y-8080D02*
X-3671Y-7620D01*
X-3406Y-8276D02*
X-3211Y-7815D01*
X-3261Y-6705D02*
X-2803Y-6905D01*
X-3461Y-7164D02*
X-3002Y-7363D01*
X-3461Y-7164D02*
X-3261Y-6705D01*
X-3002Y-7363D02*
X-2803Y-6905D01*
X-3939Y-6326D02*
X-3508Y-6580D01*
X-4192Y-6757D02*
X-3761Y-7011D01*
X-4192Y-6757D02*
X-3939Y-6326D01*
X-3761Y-7011D02*
X-3508Y-6580D01*
X-4442Y-7193D02*
X-4008Y-7443D01*
X-4692Y-7626D02*
X-4258Y-7876D01*
X-4692Y-7626D02*
X-4442Y-7193D01*
X-4258Y-7876D02*
X-4008Y-7443D01*
X-4947Y-8061D02*
X-4510Y-8303D01*
X-5190Y-8498D02*
X-4753Y-8740D01*
X-5190Y-8498D02*
X-4947Y-8061D01*
X-4753Y-8740D02*
X-4510Y-8303D01*
X-5760Y-7499D02*
X-5353Y-7789D01*
X-6050Y-7906D02*
X-5643Y-8196D01*
X-6050Y-7906D02*
X-5760Y-7499D01*
X-5643Y-8196D02*
X-5353Y-7789D01*
X-5166Y-6689D02*
X-4764Y-6986D01*
X-5463Y-7091D02*
X-5061Y-7388D01*
X-5463Y-7091D02*
X-5166Y-6689D01*
X-5061Y-7388D02*
X-4764Y-6986D01*
X-4584Y-5881D02*
X-4177Y-6171D01*
X-4875Y-6288D02*
X-4468Y-6578D01*
X-4875Y-6288D02*
X-4584Y-5881D01*
X-4468Y-6578D02*
X-4177Y-6171D01*
X-5168Y-5369D02*
X-4799Y-5707D01*
X-5506Y-5738D02*
X-5137Y-6075D01*
X-5506Y-5738D02*
X-5168Y-5369D01*
X-5137Y-6075D02*
X-4799Y-5707D01*
X-5843Y-6112D02*
X-5469Y-6444D01*
X-6174Y-6487D02*
X-5800Y-6818D01*
X-6174Y-6487D02*
X-5843Y-6112D01*
X-5800Y-6818D02*
X-5469Y-6444D01*
X-6509Y-6855D02*
X-6137Y-7190D01*
X-6844Y-7227D02*
X-6472Y-7562D01*
X-6844Y-7227D02*
X-6509Y-6855D01*
X-6472Y-7562D02*
X-6137Y-7190D01*
X-7190Y-6137D02*
X-6855Y-6509D01*
X-7562Y-6472D02*
X-7227Y-6844D01*
X-7562Y-6472D02*
X-7190Y-6137D01*
X-7227Y-6844D02*
X-6855Y-6509D01*
X-6450Y-5468D02*
X-6112Y-5837D01*
X-6819Y-5806D02*
X-6481Y-6175D01*
X-6819Y-5806D02*
X-6450Y-5468D01*
X-6481Y-6175D02*
X-6112Y-5837D01*
X-5707Y-4799D02*
X-5369Y-5168D01*
X-6075Y-5137D02*
X-5738Y-5506D01*
X-6075Y-5137D02*
X-5707Y-4799D01*
X-5738Y-5506D02*
X-5369Y-5168D01*
X-7789Y-5353D02*
X-7499Y-5760D01*
X-8196Y-5643D02*
X-7906Y-6050D01*
X-8196Y-5643D02*
X-7789Y-5353D01*
X-7906Y-6050D02*
X-7499Y-5760D01*
X-6983Y-4765D02*
X-6689Y-5169D01*
X-7388Y-5058D02*
X-7094Y-5463D01*
X-7388Y-5058D02*
X-6983Y-4765D01*
X-7094Y-5463D02*
X-6689Y-5169D01*
X-6179Y-4176D02*
X-5880Y-4577D01*
X-6579Y-4475D02*
X-6280Y-4876D01*
X-6579Y-4475D02*
X-6179Y-4176D01*
X-6280Y-4876D02*
X-5880Y-4577D01*
X-8312Y-4508D02*
X-8058Y-4939D01*
X-8743Y-4761D02*
X-8489Y-5192D01*
X-8743Y-4761D02*
X-8312Y-4508D01*
X-8489Y-5192D02*
X-8058Y-4939D01*
X-7446Y-4008D02*
X-7192Y-4439D01*
X-7877Y-4261D02*
X-7623Y-4692D01*
X-7877Y-4261D02*
X-7446Y-4008D01*
X-7623Y-4692D02*
X-7192Y-4439D01*
X-6577Y-3508D02*
X-6327Y-3942D01*
X-7010Y-3758D02*
X-6760Y-4192D01*
X-7010Y-3758D02*
X-6577Y-3508D01*
X-6760Y-4192D02*
X-6327Y-3942D01*
X-6908Y-2802D02*
X-6704Y-3259D01*
X-7364Y-3005D02*
X-7161Y-3462D01*
X-7364Y-3005D02*
X-6908Y-2802D01*
X-7161Y-3462D02*
X-6704Y-3259D01*
X-7815Y-3211D02*
X-7620Y-3671D01*
X-8276Y-3406D02*
X-8080Y-3866D01*
X-8276Y-3406D02*
X-7815Y-3211D01*
X-8080Y-3866D02*
X-7620Y-3671D01*
X-8732Y-3616D02*
X-8532Y-4075D01*
X-9190Y-3816D02*
X-8991Y-4274D01*
X-9190Y-3816D02*
X-8732Y-3616D01*
X-8991Y-4274D02*
X-8532Y-4075D01*
X-9065Y-2682D02*
X-8910Y-3158D01*
X-9540Y-2837D02*
X-9386Y-3312D01*
X-9540Y-2837D02*
X-9065Y-2682D01*
X-9386Y-3312D02*
X-8910Y-3158D01*
X-8116Y-2372D02*
X-7958Y-2846D01*
X-8591Y-2531D02*
X-8432Y-3005D01*
X-8591Y-2531D02*
X-8116Y-2372D01*
X-8432Y-3005D02*
X-7958Y-2846D01*
X-7165Y-2063D02*
X-7007Y-2537D01*
X-7640Y-2222D02*
X-7481Y-2696D01*
X-7640Y-2222D02*
X-7165Y-2063D01*
X-7481Y-2696D02*
X-7007Y-2537D01*
X-7337Y-1306D02*
X-7237Y-1796D01*
X-7827Y-1406D02*
X-7727Y-1896D01*
X-7827Y-1406D02*
X-7337Y-1306D01*
X-7727Y-1896D02*
X-7237Y-1796D01*
X-8317Y-1512D02*
X-8213Y-2001D01*
X-8806Y-1616D02*
X-8702Y-2105D01*
X-8806Y-1616D02*
X-8317Y-1512D01*
X-8702Y-2105D02*
X-8213Y-2001D01*
X-9298Y-1719D02*
X-9190Y-2207D01*
X-9786Y-1827D02*
X-9678Y-2315D01*
X-9786Y-1827D02*
X-9298Y-1719D01*
X-9678Y-2315D02*
X-9190Y-2207D01*
X-9424Y-739D02*
X-9372Y-1236D01*
X-9922Y-791D02*
X-9869Y-1289D01*
X-9922Y-791D02*
X-9424Y-739D01*
X-9869Y-1289D02*
X-9372Y-1236D01*
X-8432Y-633D02*
X-8376Y-1129D01*
X-8929Y-689D02*
X-8872Y-1186D01*
X-8929Y-689D02*
X-8432Y-633D01*
X-8872Y-1186D02*
X-8376Y-1129D01*
X-7454Y-254D02*
X-7446Y246D01*
X-7954Y-246D02*
X-7946Y254D01*
X-7446Y246D01*
X-7954Y-246D02*
X-7454Y-254D01*
X-8450Y250D02*
X-8450Y-250D01*
X-8950Y250D02*
X-8950Y-250D01*
X-8950Y250D02*
X-8450Y250D01*
X-8950Y-250D02*
X-8450Y-250D01*
X-9450Y250D02*
X-9450Y-250D01*
X-9950Y250D02*
X-9950Y-250D01*
X-9950Y250D02*
X-9450Y250D01*
X-9950Y-250D02*
X-9450Y-250D01*
X-9432Y733D02*
X-9366Y1229D01*
X-9927Y799D02*
X-9862Y1294D01*
X-9366Y1229D01*
X-9927Y799D02*
X-9432Y733D01*
X-8430Y635D02*
X-8378Y1132D01*
X-8927Y687D02*
X-8875Y1184D01*
X-8378Y1132D01*
X-8927Y687D02*
X-8430Y635D01*
X-7438Y528D02*
X-7381Y1025D01*
X-7935Y585D02*
X-7878Y1082D01*
X-7381Y1025D01*
X-7935Y585D02*
X-7438Y528D01*
X-7344Y1301D02*
X-7232Y1788D01*
X-7832Y1414D02*
X-7719Y1901D01*
X-7232Y1788D01*
X-7832Y1414D02*
X-7344Y1301D01*
X-8317Y1512D02*
X-8213Y2001D01*
X-8806Y1616D02*
X-8702Y2105D01*
X-8213Y2001D01*
X-8806Y1616D02*
X-8317Y1512D01*
X-9295Y1720D02*
X-9192Y2209D01*
X-9785Y1824D02*
X-9681Y2313D01*
X-9192Y2209D01*
X-9785Y1824D02*
X-9295Y1720D01*
X-9065Y2682D02*
X-8910Y3158D01*
X-9540Y2837D02*
X-9386Y3312D01*
X-8910Y3158D01*
X-9540Y2837D02*
X-9065Y2682D01*
X-8119Y2371D02*
X-7956Y2843D01*
X-8592Y2533D02*
X-8429Y3006D01*
X-7956Y2843D01*
X-8592Y2533D02*
X-8119Y2371D01*
X-7171Y2060D02*
X-7004Y2532D01*
X-7642Y2227D02*
X-7475Y2699D01*
X-7004Y2532D01*
X-7642Y2227D02*
X-7171Y2060D01*
X-6916Y2799D02*
X-6701Y3250D01*
X-7368Y3014D02*
X-7152Y3465D01*
X-6701Y3250D01*
X-7368Y3014D02*
X-6916Y2799D01*
X-7821Y3209D02*
X-7618Y3665D01*
X-8278Y3412D02*
X-8075Y3869D01*
X-7618Y3665D01*
X-8278Y3412D02*
X-7821Y3209D01*
X-8738Y3614D02*
X-8530Y4069D01*
X-9193Y3822D02*
X-8985Y4277D01*
X-8530Y4069D01*
X-9193Y3822D02*
X-8738Y3614D01*
X-6586Y3506D02*
X-6325Y3933D01*
X-7012Y3767D02*
X-6751Y4194D01*
X-6325Y3933D01*
X-7012Y3767D02*
X-6586Y3506D01*
X-7469Y4061D02*
X-7215Y4492D01*
X-7899Y4315D02*
X-7646Y4745D01*
X-7215Y4492D01*
X-7899Y4315D02*
X-7469Y4061D01*
X-8309Y4508D02*
X-8059Y4942D01*
X-8742Y4758D02*
X-8492Y5192D01*
X-8059Y4942D01*
X-8742Y4758D02*
X-8309Y4508D01*
X-7792Y5352D02*
X-7498Y5757D01*
X-8197Y5646D02*
X-7903Y6051D01*
X-7498Y5757D01*
X-8197Y5646D02*
X-7792Y5352D01*
X-6983Y4765D02*
X-6689Y5169D01*
X-7388Y5058D02*
X-7094Y5463D01*
X-6689Y5169D01*
X-7388Y5058D02*
X-6983Y4765D01*
X-6174Y4177D02*
X-5880Y4581D01*
X-6579Y4471D02*
X-6285Y4875D01*
X-5880Y4581D01*
X-6579Y4471D02*
X-6174Y4177D01*
X-5710Y4799D02*
X-5369Y5165D01*
X-6076Y5140D02*
X-5735Y5506D01*
X-5369Y5165D01*
X-6076Y5140D02*
X-5710Y4799D01*
X-6450Y5468D02*
X-6112Y5837D01*
X-6819Y5806D02*
X-6481Y6175D01*
X-6112Y5837D01*
X-6819Y5806D02*
X-6450Y5468D01*
X-7190Y6137D02*
X-6855Y6509D01*
X-7562Y6472D02*
X-7227Y6844D01*
X-6855Y6509D01*
X-7562Y6472D02*
X-7190Y6137D01*
X-5155Y5369D02*
X-4799Y5719D01*
X-5506Y5725D02*
X-5149Y6076D01*
X-4799Y5719D01*
X-5506Y5725D02*
X-5155Y5369D01*
X-4581Y5880D02*
X-4177Y6174D01*
X-4875Y6285D02*
X-4471Y6579D01*
X-4177Y6174D01*
X-4875Y6285D02*
X-4581Y5880D01*
X-5831Y6112D02*
X-5468Y6456D01*
X-6175Y6475D02*
X-5812Y6819D01*
X-5468Y6456D01*
X-6175Y6475D02*
X-5831Y6112D01*
X-6500Y6855D02*
X-6137Y7199D01*
X-6844Y7218D02*
X-6481Y7562D01*
X-6137Y7199D01*
X-6844Y7218D02*
X-6500Y6855D01*
X-5757Y7498D02*
X-5352Y7792D01*
X-6051Y7903D02*
X-5646Y8197D01*
X-5352Y7792D01*
X-6051Y7903D02*
X-5757Y7498D01*
X-5163Y6688D02*
X-4764Y6989D01*
X-5464Y7088D02*
X-5065Y7389D01*
X-4764Y6989D01*
X-5464Y7088D02*
X-5163Y6688D01*
X-3933Y6325D02*
X-3506Y6586D01*
X-4194Y6751D02*
X-3767Y7012D01*
X-3506Y6586D01*
X-4194Y6751D02*
X-3933Y6325D01*
X-4436Y7191D02*
X-4007Y7449D01*
X-4693Y7620D02*
X-4264Y7877D01*
X-4007Y7449D01*
X-4693Y7620D02*
X-4436Y7191D01*
X-4936Y8057D02*
X-4507Y8315D01*
X-5193Y8486D02*
X-4764Y8743D01*
X-4507Y8315D01*
X-5193Y8486D02*
X-4936Y8057D01*
X-3662Y7617D02*
X-3207Y7824D01*
X-3870Y8072D02*
X-3415Y8279D01*
X-3207Y7824D01*
X-3870Y8072D02*
X-3662Y7617D01*
X-3256Y6703D02*
X-2801Y6910D01*
X-3463Y7158D02*
X-3008Y7365D01*
X-2801Y6910D01*
X-3463Y7158D02*
X-3256Y6703D01*
X-4063Y8528D02*
X-3612Y8743D01*
X-4279Y8979D02*
X-3827Y9195D01*
X-3612Y8743D01*
X-4279Y8979D02*
X-4063Y8528D01*
X-3152Y8907D02*
X-2680Y9070D01*
X-3315Y9380D02*
X-2842Y9543D01*
X-2680Y9070D01*
X-3315Y9380D02*
X-3152Y8907D01*
X-2843Y7956D02*
X-2371Y8119D01*
X-3006Y8429D02*
X-2533Y8592D01*
X-2371Y8119D01*
X-3006Y8429D02*
X-2843Y7956D01*
X-2537Y7007D02*
X-2063Y7165D01*
X-2696Y7481D02*
X-2222Y7640D01*
X-2063Y7165D01*
X-2696Y7481D02*
X-2537Y7007D01*
X-1791Y7234D02*
X-1303Y7342D01*
X-1899Y7722D02*
X-1411Y7830D01*
X-1303Y7342D01*
X-1899Y7722D02*
X-1791Y7234D01*
X-1999Y8212D02*
X-1511Y8320D01*
X-2107Y8700D02*
X-1619Y8808D01*
X-1511Y8320D01*
X-2107Y8700D02*
X-1999Y8212D01*
X-2207Y9190D02*
X-1719Y9298D01*
X-2315Y9678D02*
X-1827Y9786D01*
X-1719Y9298D01*
X-2315Y9678D02*
X-2207Y9190D01*
X-1367Y8196D02*
X-1234Y8219D01*
X-1331Y7979D02*
X-1198Y8002D01*
X-1367Y8196D02*
X-1331Y7979D01*
X-1234Y8219D02*
X-1198Y8002D01*
X-1523Y9185D02*
X-1390Y9206D01*
X-1489Y8968D02*
X-1355Y8989D01*
X-1523Y9185D02*
X-1489Y8968D01*
X-1390Y9206D02*
X-1355Y8989D01*
X-3481Y6992D02*
X-3381Y6795D01*
X-3610Y6926D02*
X-3511Y6730D01*
X-3381Y6795D01*
X-3610Y6926D02*
X-3481Y6992D01*
X-4389Y8774D02*
X-4289Y8578D01*
X-4518Y8708D02*
X-4418Y8512D01*
X-4289Y8578D01*
X-4518Y8708D02*
X-4389Y8774D01*
X-6511Y4314D02*
X-6326Y4195D01*
X-6590Y4193D02*
X-6405Y4073D01*
X-6326Y4195D01*
X-6590Y4193D02*
X-6511Y4314D01*
X-7328Y4891D02*
X-7144Y4770D01*
X-7407Y4770D02*
X-7224Y4649D01*
X-7144Y4770D01*
X-7407Y4770D02*
X-7328Y4891D01*
X-8188Y5404D02*
X-8003Y5284D01*
X-8267Y5282D02*
X-8082Y5162D01*
X-8003Y5284D01*
X-8267Y5282D02*
X-8188Y5404D01*
X-7795Y481D02*
X-7576Y469D01*
X-7803Y337D02*
X-7584Y324D01*
X-7576Y469D01*
X-7803Y337D02*
X-7795Y481D01*
X-8795Y532D02*
X-8575Y523D01*
X-8801Y387D02*
X-8581Y378D01*
X-8575Y523D01*
X-8801Y387D02*
X-8795Y532D01*
X-9790Y629D02*
X-9570Y616D01*
X-9798Y484D02*
X-9579Y471D01*
X-9570Y616D01*
X-9798Y484D02*
X-9790Y629D01*
X-7883Y-3935D02*
X-7687Y-3835D01*
X-7817Y-4064D02*
X-7621Y-3964D01*
X-7687Y-3835D02*
X-7621Y-3964D01*
X-7883Y-3935D02*
X-7817Y-4064D01*
X-8774Y-4390D02*
X-8579Y-4289D01*
X-8707Y-4519D02*
X-8512Y-4417D01*
X-8579Y-4289D02*
X-8512Y-4417D01*
X-8774Y-4390D02*
X-8707Y-4519D01*
X444Y-9799D02*
X579Y-9794D01*
X436Y-9579D02*
X571Y-9574D01*
X579Y-9794D01*
X436Y-9579D02*
X444Y-9799D01*
X392Y-8800D02*
X527Y-8796D01*
X384Y-8580D02*
X519Y-8576D01*
X527Y-8796D01*
X384Y-8580D02*
X392Y-8800D01*
X340Y-7802D02*
X475Y-7796D01*
X331Y-7583D02*
X466Y-7577D01*
X475Y-7796D01*
X331Y-7583D02*
X340Y-7802D01*
D113*
X396Y6828D02*
X456Y6829D01*
X456Y6891D02*
X456Y6829D01*
X449Y7419D02*
X449Y7356D01*
X386Y7418D02*
X449Y7419D01*
X-447Y6822D02*
X-387Y6822D01*
X-448Y6882D02*
X-447Y6822D01*
X-452Y7412D02*
X-451Y7349D01*
X-452Y7412D02*
X-387Y7412D01*
X-4685Y8490D02*
X-4677Y8525D01*
X-4633Y8551D01*
X-4598Y8543D01*
X-4545Y8456D01*
X-4554Y8421D01*
X-4597Y8395D01*
X-4632Y8403D01*
X-4728Y8463D02*
X-4763Y8472D01*
X-4806Y8445D01*
X-4815Y8410D01*
X-4802Y8388D01*
X-4767Y8380D01*
X-4745Y8393D01*
X-4767Y8380D01*
X-4775Y8345D01*
X-4762Y8324D01*
X-4727Y8315D01*
X-4684Y8342D01*
X-4675Y8377D01*
X-4958Y8352D02*
X-4901Y8357D01*
X-4832Y8340D01*
X-4805Y8297D01*
X-4813Y8262D01*
X-4857Y8236D01*
X-4892Y8244D01*
X-4905Y8266D01*
X-4897Y8300D01*
X-4832Y8340D01*
X-4211Y7611D02*
X-4202Y7646D01*
X-4158Y7672D01*
X-4123Y7663D01*
X-4072Y7576D01*
X-4081Y7541D01*
X-4124Y7515D01*
X-4159Y7524D01*
X-4254Y7586D02*
X-4289Y7595D01*
X-4333Y7569D01*
X-4342Y7534D01*
X-4329Y7512D01*
X-4294Y7503D01*
X-4272Y7516D01*
X-4294Y7503D01*
X-4303Y7469D01*
X-4290Y7447D01*
X-4256Y7438D01*
X-4212Y7463D01*
X-4203Y7498D01*
X-4486Y7479D02*
X-4399Y7530D01*
X-4360Y7465D01*
X-4417Y7461D01*
X-4438Y7448D01*
X-4447Y7413D01*
X-4422Y7369D01*
X-4387Y7360D01*
X-4343Y7386D01*
X-4334Y7421D01*
X-3736Y6735D02*
X-3726Y6769D01*
X-3681Y6794D01*
X-3647Y6784D01*
X-3598Y6695D01*
X-3608Y6660D01*
X-3652Y6636D01*
X-3687Y6646D01*
X-3780Y6710D02*
X-3815Y6720D01*
X-3859Y6695D01*
X-3869Y6661D01*
X-3857Y6638D01*
X-3822Y6629D01*
X-3800Y6641D01*
X-3822Y6629D01*
X-3832Y6594D01*
X-3820Y6572D01*
X-3785Y6562D01*
X-3741Y6587D01*
X-3731Y6621D01*
X-3919Y6488D02*
X-3992Y6621D01*
X-3889Y6592D01*
X-3978Y6542D01*
X-8326Y4985D02*
X-8333Y5021D01*
X-8306Y5063D01*
X-8271Y5071D01*
X-8185Y5017D01*
X-8178Y4982D01*
X-8205Y4939D01*
X-8240Y4931D01*
X-8353Y4943D02*
X-8388Y4935D01*
X-8415Y4892D01*
X-8408Y4857D01*
X-8386Y4843D01*
X-8351Y4851D01*
X-8337Y4873D01*
X-8351Y4851D01*
X-8343Y4816D01*
X-8322Y4802D01*
X-8287Y4810D01*
X-8260Y4853D01*
X-8267Y4888D01*
X-8435Y4814D02*
X-8470Y4806D01*
X-8497Y4764D01*
X-8489Y4728D01*
X-8468Y4715D01*
X-8433Y4723D01*
X-8419Y4744D01*
X-8433Y4723D01*
X-8425Y4688D01*
X-8404Y4674D01*
X-8369Y4682D01*
X-8341Y4725D01*
X-8349Y4760D01*
X-7434Y4525D02*
X-7442Y4560D01*
X-7415Y4603D01*
X-7380Y4611D01*
X-7294Y4558D01*
X-7285Y4523D01*
X-7312Y4479D01*
X-7347Y4471D01*
X-7460Y4482D02*
X-7495Y4474D01*
X-7522Y4431D01*
X-7514Y4396D01*
X-7493Y4383D01*
X-7458Y4391D01*
X-7444Y4412D01*
X-7458Y4391D01*
X-7450Y4356D01*
X-7428Y4342D01*
X-7393Y4350D01*
X-7366Y4393D01*
X-7374Y4428D01*
X-7487Y4200D02*
X-7433Y4286D01*
X-7573Y4253D01*
X-7595Y4267D01*
X-7603Y4302D01*
X-7576Y4345D01*
X-7541Y4353D01*
X-6584Y3988D02*
X-6594Y4023D01*
X-6569Y4067D01*
X-6534Y4077D01*
X-6446Y4027D01*
X-6436Y3992D01*
X-6461Y3948D01*
X-6496Y3938D01*
X-6609Y3944D02*
X-6644Y3934D01*
X-6669Y3890D01*
X-6659Y3856D01*
X-6637Y3843D01*
X-6603Y3853D01*
X-6590Y3875D01*
X-6603Y3853D01*
X-6593Y3818D01*
X-6571Y3806D01*
X-6536Y3815D01*
X-6511Y3859D01*
X-6521Y3894D01*
X-6574Y3749D02*
X-6599Y3705D01*
X-6587Y3727D01*
X-6719Y3802D01*
X-6685Y3811D01*
X-9696Y233D02*
X-9722Y258D01*
Y309D01*
X-9696Y334D01*
X-9595D01*
X-9569Y309D01*
Y258D01*
X-9595Y233D01*
X-9696Y182D02*
X-9722Y156D01*
Y106D01*
X-9696Y80D01*
X-9671D01*
X-9645Y106D01*
Y131D01*
Y106D01*
X-9620Y80D01*
X-9595D01*
X-9569Y106D01*
Y156D01*
X-9595Y182D01*
X-9696Y29D02*
X-9722Y4D01*
Y-47D01*
X-9696Y-72D01*
X-9595D01*
X-9569Y-47D01*
Y4D01*
X-9595Y29D01*
X-9696D01*
X-8698Y122D02*
X-8724Y147D01*
X-8724Y198D01*
X-8699Y223D01*
X-8597Y224D01*
X-8572Y199D01*
X-8571Y148D01*
X-8597Y123D01*
X-8570Y-29D02*
X-8571Y72D01*
X-8671Y-30D01*
X-8697Y-31D01*
X-8722Y-5D01*
X-8723Y45D01*
X-8698Y71D01*
X-8595Y-80D02*
X-8569Y-106D01*
X-8569Y-156D01*
X-8594Y-182D01*
X-8695Y-183D01*
X-8721Y-158D01*
X-8722Y-107D01*
X-8696Y-81D01*
X-8671Y-81D01*
X-8645Y-106D01*
X-8645Y-182D01*
X-7698Y95D02*
X-7723Y119D01*
X-7724Y170D01*
X-7699Y196D01*
X-7598Y198D01*
X-7572Y173D01*
X-7571Y122D01*
X-7596Y96D01*
X-7568Y-56D02*
X-7570Y46D01*
X-7670Y-57D01*
X-7695Y-58D01*
X-7721Y-33D01*
X-7722Y18D01*
X-7697Y44D01*
X-7694Y-109D02*
X-7719Y-134D01*
X-7718Y-185D01*
X-7692Y-210D01*
X-7667Y-210D01*
X-7642Y-184D01*
X-7616Y-209D01*
X-7591Y-208D01*
X-7566Y-183D01*
X-7567Y-132D01*
X-7592Y-107D01*
X-7618Y-107D01*
X-7643Y-133D01*
X-7669Y-108D01*
X-7694Y-109D01*
X-7643Y-133D02*
X-7642Y-184D01*
X-8543Y-4655D02*
X-8577Y-4644D01*
X-8601Y-4599D01*
X-8589Y-4565D01*
X-8499Y-4518D01*
X-8465Y-4530D01*
X-8442Y-4575D01*
X-8453Y-4609D01*
X-8361Y-4733D02*
X-8407Y-4643D01*
X-8452Y-4779D01*
X-8474Y-4791D01*
X-8508Y-4780D01*
X-8531Y-4734D01*
X-8520Y-4700D01*
X-8474Y-4848D02*
X-8428Y-4938D01*
X-8405Y-4927D01*
X-8361Y-4790D01*
X-8338Y-4778D01*
X-7602Y-4240D02*
X-7636Y-4230D01*
X-7659Y-4185D01*
X-7648Y-4150D01*
X-7558Y-4103D01*
X-7524Y-4114D01*
X-7501Y-4159D01*
X-7511Y-4193D01*
X-7419Y-4317D02*
X-7466Y-4227D01*
X-7509Y-4364D01*
X-7531Y-4375D01*
X-7565Y-4365D01*
X-7589Y-4320D01*
X-7578Y-4285D01*
X-7483Y-4522D02*
X-7484Y-4466D01*
X-7463Y-4397D01*
X-7418Y-4374D01*
X-7383Y-4384D01*
X-7360Y-4429D01*
X-7371Y-4464D01*
X-7393Y-4475D01*
X-7428Y-4465D01*
X-7463Y-4397D01*
X-6712Y-3767D02*
X-6747Y-3759D01*
X-6774Y-3716D01*
X-6765Y-3681D01*
X-6679Y-3628D01*
X-6644Y-3636D01*
X-6617Y-3679D01*
X-6626Y-3714D01*
X-6524Y-3831D02*
X-6577Y-3744D01*
X-6611Y-3884D01*
X-6633Y-3897D01*
X-6668Y-3889D01*
X-6694Y-3846D01*
X-6686Y-3811D01*
X-6575Y-4040D02*
X-6628Y-3954D01*
X-6563Y-3914D01*
X-6558Y-3971D01*
X-6545Y-3992D01*
X-6510Y-4001D01*
X-6466Y-3974D01*
X-6458Y-3939D01*
X-6485Y-3896D01*
X-6519Y-3888D01*
X-5018Y-8303D02*
X-5053Y-8312D01*
X-5096Y-8285D01*
X-5105Y-8250D01*
X-5052Y-8164D01*
X-5017Y-8155D01*
X-4974Y-8182D01*
X-4965Y-8217D01*
X-4822Y-8275D02*
X-4909Y-8222D01*
X-4875Y-8361D01*
X-4888Y-8383D01*
X-4923Y-8391D01*
X-4967Y-8365D01*
X-4975Y-8330D01*
X-4714Y-8341D02*
X-4793Y-8471D01*
X-4818Y-8366D01*
X-4732Y-8419D01*
X-4456Y-7472D02*
X-4491Y-7481D01*
X-4535Y-7456D01*
X-4544Y-7421D01*
X-4493Y-7333D01*
X-4458Y-7324D01*
X-4414Y-7349D01*
X-4405Y-7384D01*
X-4261Y-7438D02*
X-4348Y-7388D01*
X-4311Y-7526D01*
X-4324Y-7548D01*
X-4359Y-7558D01*
X-4403Y-7532D01*
X-4412Y-7498D01*
X-4280Y-7574D02*
X-4271Y-7608D01*
X-4227Y-7634D01*
X-4192Y-7624D01*
X-4179Y-7602D01*
X-4189Y-7568D01*
X-4211Y-7555D01*
X-4189Y-7568D01*
X-4154Y-7559D01*
X-4141Y-7537D01*
X-4151Y-7502D01*
X-4195Y-7476D01*
X-4229Y-7486D01*
X-3935Y-6620D02*
X-3970Y-6629D01*
X-4013Y-6603D01*
X-4022Y-6568D01*
X-3971Y-6481D01*
X-3936Y-6472D01*
X-3892Y-6497D01*
X-3883Y-6532D01*
X-3739Y-6588D02*
X-3827Y-6536D01*
X-3791Y-6675D01*
X-3804Y-6697D01*
X-3838Y-6706D01*
X-3882Y-6680D01*
X-3891Y-6645D01*
X-3608Y-6665D02*
X-3695Y-6613D01*
X-3659Y-6752D01*
X-3672Y-6774D01*
X-3707Y-6783D01*
X-3751Y-6758D01*
X-3760Y-6723D01*
X-192Y-9698D02*
X-218Y-9724D01*
X-268Y-9723D01*
X-294Y-9697D01*
X-293Y-9596D01*
X-267Y-9571D01*
X-216Y-9571D01*
X-191Y-9597D01*
X-38Y-9573D02*
X-140Y-9572D01*
X-39Y-9674D01*
X-40Y-9700D01*
X-65Y-9725D01*
X-116Y-9724D01*
X-141Y-9699D01*
X12Y-9573D02*
X63Y-9574D01*
X38Y-9573D01*
X36Y-9726D01*
X11Y-9700D01*
X-158Y-8721D02*
X-183Y-8746D01*
X-234Y-8747D01*
X-260Y-8722D01*
X-261Y-8620D01*
X-235Y-8595D01*
X-185Y-8594D01*
X-159Y-8619D01*
X-7Y-8593D02*
X-108Y-8593D01*
X-6Y-8694D01*
X-6Y-8720D01*
X-31Y-8745D01*
X-82Y-8746D01*
X-107Y-8720D01*
X45Y-8719D02*
X71Y-8744D01*
X121Y-8744D01*
X147Y-8718D01*
X146Y-8617D01*
X120Y-8591D01*
X69Y-8592D01*
X44Y-8618D01*
X45Y-8719D01*
X-126Y-7696D02*
X-151Y-7722D01*
X-202Y-7723D01*
X-228Y-7698D01*
X-231Y-7597D01*
X-206Y-7571D01*
X-155Y-7569D01*
X-129Y-7594D01*
X-79Y-7567D02*
X-28Y-7566D01*
X-54Y-7567D01*
X-50Y-7719D01*
X-76Y-7694D01*
X49Y-7590D02*
X73Y-7563D01*
X124Y-7562D01*
X150Y-7587D01*
X153Y-7688D01*
X128Y-7714D01*
X77Y-7716D01*
X51Y-7691D01*
X51Y-7666D01*
X75Y-7640D01*
X151Y-7638D01*
X4647Y-8512D02*
X4638Y-8547D01*
X4594Y-8573D01*
X4560Y-8564D01*
X4508Y-8476D01*
X4517Y-8441D01*
X4561Y-8416D01*
X4596Y-8425D01*
X4626Y-8377D02*
X4670Y-8351D01*
X4648Y-8364D01*
X4726Y-8495D01*
X4691Y-8486D01*
X4800Y-8422D02*
X4835Y-8431D01*
X4879Y-8405D01*
X4888Y-8370D01*
X4875Y-8348D01*
X4840Y-8339D01*
X4849Y-8305D01*
X4836Y-8283D01*
X4801Y-8274D01*
X4758Y-8300D01*
X4749Y-8334D01*
X4762Y-8356D01*
X4796Y-8365D01*
X4787Y-8400D01*
X4800Y-8422D01*
X4796Y-8365D02*
X4840Y-8339D01*
X4213Y-7606D02*
X4205Y-7641D01*
X4162Y-7668D01*
X4127Y-7661D01*
X4072Y-7575D01*
X4080Y-7540D01*
X4123Y-7513D01*
X4158Y-7520D01*
X4187Y-7472D02*
X4230Y-7444D01*
X4209Y-7458D01*
X4290Y-7587D01*
X4255Y-7579D01*
X4376Y-7532D02*
X4462Y-7477D01*
X4448Y-7456D01*
X4308Y-7425D01*
X4294Y-7404D01*
X3766Y-6715D02*
X3757Y-6750D01*
X3714Y-6775D01*
X3679Y-6766D01*
X3627Y-6679D01*
X3636Y-6644D01*
X3680Y-6618D01*
X3715Y-6627D01*
X3746Y-6580D02*
X3790Y-6554D01*
X3768Y-6567D01*
X3845Y-6698D01*
X3810Y-6689D01*
X4020Y-6595D02*
X3963Y-6599D01*
X3894Y-6581D01*
X3868Y-6537D01*
X3877Y-6502D01*
X3921Y-6477D01*
X3956Y-6486D01*
X3968Y-6507D01*
X3959Y-6542D01*
X3894Y-6581D01*
X8303Y-5018D02*
X8312Y-5053D01*
X8285Y-5096D01*
X8250Y-5105D01*
X8164Y-5052D01*
X8155Y-5017D01*
X8182Y-4974D01*
X8217Y-4965D01*
X8222Y-4909D02*
X8248Y-4865D01*
X8235Y-4887D01*
X8365Y-4967D01*
X8330Y-4975D01*
X8471Y-4793D02*
X8418Y-4880D01*
X8353Y-4840D01*
X8401Y-4810D01*
X8414Y-4788D01*
X8406Y-4754D01*
X8363Y-4727D01*
X8328Y-4735D01*
X8301Y-4779D01*
X8310Y-4814D01*
X7453Y-4489D02*
X7462Y-4524D01*
X7436Y-4568D01*
X7401Y-4577D01*
X7314Y-4525D01*
X7305Y-4490D01*
X7330Y-4447D01*
X7365Y-4438D01*
X7369Y-4381D02*
X7395Y-4337D01*
X7382Y-4359D01*
X7513Y-4436D01*
X7478Y-4445D01*
X7472Y-4206D02*
X7603Y-4283D01*
X7499Y-4310D01*
X7551Y-4223D01*
X6637Y-3907D02*
X6646Y-3941D01*
X6620Y-3985D01*
X6585Y-3994D01*
X6498Y-3943D01*
X6489Y-3908D01*
X6515Y-3864D01*
X6549Y-3855D01*
X6553Y-3798D02*
X6579Y-3755D01*
X6566Y-3777D01*
X6697Y-3854D01*
X6663Y-3863D01*
X6727Y-3753D02*
X6762Y-3744D01*
X6788Y-3701D01*
X6779Y-3666D01*
X6757Y-3653D01*
X6722Y-3662D01*
X6709Y-3684D01*
X6722Y-3662D01*
X6713Y-3627D01*
X6691Y-3614D01*
X6656Y-3623D01*
X6631Y-3667D01*
X6640Y-3702D01*
X9698Y-192D02*
X9724Y-218D01*
X9723Y-268D01*
X9697Y-294D01*
X9596Y-293D01*
X9571Y-267D01*
X9571Y-216D01*
X9597Y-191D01*
X9572Y-140D02*
X9572Y-89D01*
X9572Y-115D01*
X9724Y-116D01*
X9699Y-141D01*
X9574Y88D02*
X9573Y-13D01*
X9675Y88D01*
X9701Y87D01*
X9726Y62D01*
X9726Y11D01*
X9700Y-14D01*
X8699Y-161D02*
X8724Y-187D01*
X8724Y-238D01*
X8698Y-263D01*
X8596Y-262D01*
X8571Y-236D01*
X8572Y-186D01*
X8597Y-161D01*
X8572Y-110D02*
X8573Y-59D01*
X8573Y-84D01*
X8725Y-85D01*
X8699Y-111D01*
X8573Y17D02*
X8574Y68D01*
X8574Y43D01*
X8726Y41D01*
X8700Y16D01*
X7699Y-97D02*
X7725Y-122D01*
Y-173D01*
X7699Y-198D01*
X7598D01*
X7572Y-173D01*
Y-122D01*
X7598Y-97D01*
X7572Y-46D02*
Y5D01*
Y-21D01*
X7725D01*
X7699Y-46D01*
Y81D02*
X7725Y106D01*
Y157D01*
X7699Y183D01*
X7598D01*
X7572Y157D01*
Y106D01*
X7598Y81D01*
X7699D01*
X8515Y4646D02*
X8549Y4637D01*
X8574Y4592D01*
X8565Y4558D01*
X8476Y4508D01*
X8442Y4517D01*
X8417Y4561D01*
X8426Y4596D01*
X8401Y4640D02*
X8367Y4650D01*
X8342Y4694D01*
X8351Y4729D01*
X8440Y4779D01*
X8474Y4769D01*
X8499Y4725D01*
X8490Y4690D01*
X8468Y4678D01*
X8433Y4687D01*
X8395Y4754D01*
X7592Y4244D02*
X7627Y4235D01*
X7653Y4192D01*
X7645Y4157D01*
X7558Y4105D01*
X7523Y4113D01*
X7497Y4157D01*
X7505Y4192D01*
X7566Y4288D02*
X7575Y4322D01*
X7549Y4366D01*
X7514Y4375D01*
X7492Y4362D01*
X7483Y4327D01*
X7449Y4335D01*
X7427Y4322D01*
X7418Y4288D01*
X7444Y4244D01*
X7479Y4235D01*
X7501Y4248D01*
X7510Y4283D01*
X7544Y4275D01*
X7566Y4288D01*
X7510Y4283D02*
X7483Y4327D01*
X6719Y3765D02*
X6753Y3755D01*
X6778Y3711D01*
X6768Y3676D01*
X6679Y3627D01*
X6645Y3637D01*
X6620Y3681D01*
X6630Y3716D01*
X6716Y3822D02*
X6667Y3910D01*
X6645Y3898D01*
X6605Y3760D01*
X6583Y3748D01*
X5014Y8303D02*
X5049Y8312D01*
X5093Y8287D01*
X5102Y8252D01*
X5051Y8164D01*
X5017Y8155D01*
X4973Y8180D01*
X4963Y8215D01*
X4895Y8401D02*
X4926Y8354D01*
X4945Y8284D01*
X4919Y8240D01*
X4885Y8231D01*
X4841Y8256D01*
X4831Y8291D01*
X4844Y8313D01*
X4879Y8322D01*
X4945Y8284D01*
X4493Y7453D02*
X4528Y7461D01*
X4571Y7434D01*
X4580Y7399D01*
X4526Y7313D01*
X4491Y7305D01*
X4448Y7332D01*
X4440Y7367D01*
X4378Y7556D02*
X4464Y7502D01*
X4423Y7437D01*
X4394Y7486D01*
X4372Y7499D01*
X4337Y7491D01*
X4310Y7448D01*
X4318Y7413D01*
X4362Y7386D01*
X4397Y7394D01*
X3964Y6603D02*
X3999Y6611D01*
X4043Y6585D01*
X4051Y6550D01*
X3999Y6463D01*
X3964Y6454D01*
X3921Y6481D01*
X3912Y6515D01*
X3790Y6559D02*
X3869Y6690D01*
X3895Y6585D01*
X3808Y6637D01*
X199Y9703D02*
X226Y9727D01*
X276Y9724D01*
X300Y9697D01*
X294Y9596D01*
X267Y9572D01*
X216Y9575D01*
X193Y9602D01*
X148Y9707D02*
X124Y9733D01*
X74Y9737D01*
X47Y9713D01*
X45Y9687D01*
X69Y9661D01*
X94Y9659D01*
X69Y9661D01*
X42Y9637D01*
X41Y9611D01*
X64Y9584D01*
X115Y9581D01*
X142Y9605D01*
X167Y8703D02*
X194Y8727D01*
X244Y8724D01*
X269Y8698D01*
X263Y8596D01*
X237Y8572D01*
X186Y8575D01*
X162Y8602D01*
X8Y8584D02*
X110Y8579D01*
X14Y8686D01*
X15Y8711D01*
X42Y8735D01*
X92Y8732D01*
X116Y8706D01*
X130Y7698D02*
X155Y7724D01*
X206D01*
X231Y7698D01*
Y7597D01*
X206Y7571D01*
X155D01*
X130Y7597D01*
X79Y7571D02*
X28D01*
X54D01*
Y7724D01*
X79Y7698D01*
X7554Y561D02*
X7706Y571D01*
X7701Y647D01*
X7674Y671D01*
X7624Y668D01*
X7600Y641D01*
X7605Y565D01*
X7602Y615D02*
X7548Y663D01*
X7544Y713D02*
X7541Y764D01*
X7543Y739D01*
X7695Y749D01*
X7671Y722D01*
X594Y-7552D02*
X604Y-7704D01*
X680Y-7699D01*
X703Y-7672D01*
X700Y-7621D01*
X673Y-7598D01*
X597Y-7602D01*
X648Y-7599D02*
X696Y-7545D01*
X848Y-7536D02*
X746Y-7542D01*
X854Y-7638D01*
X856Y-7663D01*
X832Y-7690D01*
X781Y-7693D01*
X754Y-7669D01*
X-7552Y-594D02*
X-7704Y-604D01*
X-7699Y-680D01*
X-7672Y-704D01*
X-7621Y-701D01*
X-7597Y-674D01*
X-7602Y-598D01*
X-7599Y-648D02*
X-7545Y-696D01*
X-7669Y-754D02*
X-7692Y-781D01*
X-7689Y-832D01*
X-7662Y-856D01*
X-7637Y-854D01*
X-7613Y-827D01*
X-7615Y-802D01*
X-7613Y-827D01*
X-7586Y-851D01*
X-7561Y-849D01*
X-7537Y-822D01*
X-7540Y-772D01*
X-7567Y-748D01*
X-634Y8050D02*
X-642Y8202D01*
X-718Y8198D01*
X-742Y8172D01*
X-739Y8121D01*
X-712Y8097D01*
X-636Y8101D01*
X-687Y8098D02*
X-735Y8045D01*
X-862Y8038D02*
X-870Y8190D01*
X-790Y8118D01*
X-891Y8113D01*
X8551Y635D02*
X8704Y643D01*
X8700Y719D01*
X8673Y743D01*
X8622Y741D01*
X8598Y714D01*
X8602Y638D01*
X8600Y689D02*
X8546Y737D01*
X8690Y897D02*
X8696Y796D01*
X8620Y792D01*
X8642Y844D01*
X8641Y869D01*
X8614Y893D01*
X8564Y890D01*
X8540Y864D01*
X8542Y813D01*
X8569Y789D01*
X635Y-8551D02*
X647Y-8703D01*
X723Y-8697D01*
X747Y-8670D01*
X743Y-8619D01*
X715Y-8596D01*
X639Y-8602D01*
X690Y-8598D02*
X737Y-8543D01*
X901Y-8683D02*
X848Y-8662D01*
X793Y-8615D01*
X789Y-8565D01*
X813Y-8537D01*
X863Y-8533D01*
X891Y-8557D01*
X893Y-8582D01*
X869Y-8609D01*
X793Y-8615D01*
X-8549Y-673D02*
X-8700Y-686D01*
X-8694Y-762D01*
X-8666Y-785D01*
X-8616Y-781D01*
X-8593Y-753D01*
X-8599Y-677D01*
X-8595Y-728D02*
X-8540Y-774D01*
X-8687Y-838D02*
X-8678Y-939D01*
X-8653Y-937D01*
X-8561Y-827D01*
X-8535Y-825D01*
X-633Y9053D02*
X-640Y9205D01*
X-716Y9202D01*
X-740Y9175D01*
X-738Y9124D01*
X-711Y9100D01*
X-635Y9104D01*
X-686Y9101D02*
X-734Y9048D01*
X-791Y9173D02*
X-818Y9197D01*
X-868Y9194D01*
X-893Y9168D01*
X-891Y9143D01*
X-865Y9118D01*
X-889Y9092D01*
X-888Y9066D01*
X-861Y9042D01*
X-811Y9045D01*
X-786Y9071D01*
X-788Y9097D01*
X-814Y9121D01*
X-790Y9147D01*
X-791Y9173D01*
X-814Y9121D02*
X-865Y9118D01*
X9552Y668D02*
X9704Y673D01*
X9701Y749D01*
X9675Y774D01*
X9624Y772D01*
X9600Y746D01*
X9602Y670D01*
X9601Y720D02*
X9548Y769D01*
X9572Y821D02*
X9545Y846D01*
X9544Y896D01*
X9568Y923D01*
X9670Y926D01*
X9696Y902D01*
X9698Y851D01*
X9673Y825D01*
X9648Y824D01*
X9622Y848D01*
X9619Y924D01*
X668Y-9552D02*
X680Y-9704D01*
X756Y-9698D01*
X779Y-9670D01*
X775Y-9620D01*
X748Y-9596D01*
X672Y-9602D01*
X723Y-9598D02*
X769Y-9544D01*
X820Y-9540D02*
X870Y-9536D01*
X845Y-9538D01*
X857Y-9690D01*
X830Y-9666D01*
X956Y-9656D02*
X984Y-9680D01*
X1034Y-9676D01*
X1058Y-9648D01*
X1050Y-9547D01*
X1022Y-9524D01*
X972Y-9528D01*
X948Y-9555D01*
X956Y-9656D01*
X-9552Y-668D02*
X-9704Y-678D01*
X-9699Y-754D01*
X-9672Y-777D01*
X-9621Y-774D01*
X-9597Y-747D01*
X-9602Y-671D01*
X-9599Y-722D02*
X-9545Y-769D01*
X-9542Y-820D02*
X-9539Y-871D01*
X-9540Y-845D01*
X-9692Y-855D01*
X-9669Y-828D01*
X-9534Y-947D02*
X-9531Y-997D01*
X-9532Y-972D01*
X-9684Y-982D01*
X-9661Y-955D01*
X-617Y7048D02*
X-618Y7200D01*
X-694Y7200D01*
X-719Y7174D01*
X-719Y7123D01*
X-693Y7098D01*
X-617Y7099D01*
X-769Y7047D02*
X-820Y7047D01*
X-794Y7047D01*
X-796Y7199D01*
X-770Y7174D01*
X-1472Y7940D02*
X-1506Y8088D01*
X-1580Y8071D01*
X-1599Y8041D01*
X-1588Y7991D01*
X-1557Y7972D01*
X-1483Y7989D01*
X-1532Y7978D02*
X-1571Y7917D01*
X-1620Y7906D02*
X-1669Y7894D01*
X-1645Y7900D01*
X-1679Y8048D01*
X-1649Y8029D01*
X-1843Y7854D02*
X-1744Y7877D01*
X-1866Y7953D01*
X-1871Y7978D01*
X-1852Y8008D01*
X-1803Y8020D01*
X-1772Y8001D01*
X-1654Y8923D02*
X-1682Y9073D01*
X-1756Y9059D01*
X-1777Y9029D01*
X-1768Y8979D01*
X-1738Y8959D01*
X-1663Y8973D01*
X-1713Y8964D02*
X-1754Y8905D01*
X-1804Y8895D02*
X-1854Y8886D01*
X-1829Y8891D01*
X-1856Y9040D01*
X-1827Y9020D01*
X-1952Y8997D02*
X-1981Y9017D01*
X-2031Y9008D01*
X-2051Y8978D01*
X-2047Y8953D01*
X-2017Y8933D01*
X-1992Y8938D01*
X-2017Y8933D01*
X-2038Y8904D01*
X-2033Y8879D01*
X-2003Y8858D01*
X-1953Y8868D01*
X-1933Y8897D01*
X5550Y8913D02*
G03*
X4944Y9263I-300J180D01*
G01*
X-4949Y9271D02*
G03*
X-5556Y8924I-301J-178D01*
G01*
X-8924Y5556D02*
G03*
X-9263Y4944I-169J-306D01*
G01*
X-9263Y-4944D02*
G03*
X-8913Y-5550I170J-306D01*
G01*
X-5556Y-8924D02*
G03*
X-4944Y-9263I306J-169D01*
G01*
X4944D02*
G03*
X5548Y-8910I306J170D01*
G01*
X8910Y-5548D02*
G03*
X9260Y-4942I183J298D01*
G01*
X9263Y4944D02*
G03*
X8913Y5550I-170J306D01*
G01*
X-8913Y-5550D02*
G03*
X-5550Y-8913I8913J5550D01*
G01*
X-4944Y-9263D02*
G03*
X4944Y-9263I4944J9263D01*
G01*
X5550Y-8913D02*
G03*
X8905Y-5564I-5550J8913D01*
G01*
X9263Y-4944D02*
G03*
X9263Y4944I-9263J4944D01*
G01*
X8913Y5550D02*
G03*
X5550Y8913I-8913J-5550D01*
G01*
X4944Y9263D02*
G03*
X-4944Y9263I-4944J-9263D01*
G01*
X-9263Y4944D02*
G03*
X-9263Y-4944I9263J-4944D01*
G01*
X-5550Y8913D02*
G03*
X-8913Y5550I5550J-8913D01*
G01*
X-19735Y12816D02*
G03*
X-19477Y12387I123J-218D01*
G01*
X-19668Y23312D02*
G03*
X-19910Y22875I-127J-215D01*
G01*
X-15803Y27131D02*
G03*
X-16230Y26872I-217J-125D01*
G01*
X-5300Y27073D02*
G03*
X-5742Y27307I-221J117D01*
G01*
X-1480Y23201D02*
G03*
X-1744Y23626I-131J213D01*
G01*
D154*
X465Y7683D02*
X466Y7693D01*
X340Y7686D02*
X341Y7696D01*
X4244Y6421D02*
X4249Y6429D01*
X4138Y6486D02*
X4143Y6495D01*
X4788Y7259D02*
X4794Y7267D01*
X4683Y7326D02*
X4688Y7334D01*
X5333Y8097D02*
X5338Y8105D01*
X5228Y8165D02*
X5233Y8174D01*
X6885Y3438D02*
X6894Y3442D01*
X6828Y3549D02*
X6837Y3554D01*
X7776Y3892D02*
X7785Y3897D01*
X7718Y4003D02*
X7727Y4007D01*
X8667Y4346D02*
X8676Y4350D01*
X8610Y4457D02*
X8619Y4462D01*
X7681Y-465D02*
X7691Y-466D01*
X7688Y-340D02*
X7698Y-341D01*
X8680Y-517D02*
X8690Y-518D01*
X8687Y-393D02*
X8697Y-393D01*
X9679Y-570D02*
X9689Y-570D01*
X9684Y-445D02*
X9694Y-445D01*
X6419Y-4243D02*
X6427Y-4249D01*
X6488Y-4139D02*
X6496Y-4144D01*
X7258Y-4788D02*
X7267Y-4793D01*
X7326Y-4683D02*
X7335Y-4689D01*
X8097Y-5333D02*
X8105Y-5338D01*
X8165Y-5228D02*
X8174Y-5233D01*
X3438Y-6885D02*
X3442Y-6894D01*
X3549Y-6828D02*
X3554Y-6837D01*
X3892Y-7776D02*
X3896Y-7785D01*
X4003Y-7719D02*
X4008Y-7728D01*
X4346Y-8666D02*
X4350Y-8675D01*
X4457Y-8610D02*
X4462Y-8619D01*
X-466Y-7691D02*
X-465Y-7681D01*
X-341Y-7697D02*
X-340Y-7687D01*
X-518Y-8690D02*
X-517Y-8680D01*
X-393Y-8696D02*
X-393Y-8686D01*
X-570Y-9689D02*
X-570Y-9679D01*
X-445Y-9695D02*
X-445Y-9685D01*
X-4249Y-6427D02*
X-4243Y-6419D01*
X-4144Y-6496D02*
X-4139Y-6488D01*
X-4793Y-7267D02*
X-4788Y-7258D01*
X-4689Y-7335D02*
X-4683Y-7326D01*
X-5338Y-8105D02*
X-5333Y-8097D01*
X-5233Y-8173D02*
X-5228Y-8165D01*
X-6894Y-3442D02*
X-6885Y-3438D01*
X-6837Y-3554D02*
X-6828Y-3549D01*
X518Y8681D02*
X518Y8691D01*
X393Y8685D02*
X393Y8695D01*
X570Y9679D02*
X570Y9689D01*
X445Y9684D02*
X445Y9694D01*
X-3898Y7787D02*
X-3893Y7779D01*
X-4006Y7725D02*
X-4001Y7716D01*
X-9689Y-568D02*
X-9679Y-567D01*
X-9695Y-448D02*
X-9685Y-447D01*
X9679Y567D02*
X9689Y568D01*
X9685Y447D02*
X9695Y448D01*
X-422Y9196D02*
X-421Y9186D01*
X-542Y9189D02*
X-541Y9179D01*
X-8690Y-515D02*
X-8680Y-515D01*
X-8696Y-396D02*
X-8686Y-395D01*
X8681Y515D02*
X8690Y515D01*
X8686Y395D02*
X8696Y396D01*
X-369Y8197D02*
X-369Y8187D01*
X-489Y8191D02*
X-489Y8181D01*
X-7691Y-463D02*
X-7681Y-463D01*
X-7698Y-343D02*
X-7688Y-343D01*
X7682Y463D02*
X7692Y463D01*
X7687Y343D02*
X7697Y343D01*
X-1343Y8094D02*
X-1341Y8084D01*
X-1224Y8114D02*
X-1223Y8104D01*
X-1499Y9082D02*
X-1498Y9072D01*
X-1381Y9101D02*
X-1379Y9091D01*
X-3442Y6893D02*
X-3438Y6884D01*
X-3554Y6837D02*
X-3549Y6828D01*
X-4350Y8676D02*
X-4346Y8667D01*
X-4462Y8619D02*
X-4457Y8610D01*
X-6428Y4249D02*
X-6420Y4243D01*
X-6496Y4144D02*
X-6488Y4139D01*
X-7245Y4825D02*
X-7237Y4820D01*
X-7314Y4721D02*
X-7306Y4715D01*
X-8105Y5338D02*
X-8097Y5333D01*
X-8173Y5233D02*
X-8165Y5228D01*
X-7691Y466D02*
X-7681Y465D01*
X-7698Y341D02*
X-7688Y340D01*
X-8691Y518D02*
X-8681Y518D01*
X-8696Y393D02*
X-8686Y393D01*
X-9686Y613D02*
X-9676Y612D01*
X-9693Y488D02*
X-9683Y487D01*
X-7785Y-3896D02*
X-7776Y-3892D01*
X-7728Y-4008D02*
X-7719Y-4003D01*
X-8676Y-4351D02*
X-8667Y-4346D01*
X-8618Y-4461D02*
X-8609Y-4457D01*
X567Y-9680D02*
X568Y-9690D01*
X448Y-9684D02*
X448Y-9694D01*
X515Y-8681D02*
X515Y-8691D01*
X395Y-8685D02*
X396Y-8695D01*
X463Y-7682D02*
X463Y-7692D01*
X343Y-7687D02*
X343Y-7697D01*
D292*
X394Y7361D02*
D03*
M02*
