G04 Layer_Color=16711935*
%FSLAX42Y42*%
%MOMM*%
G71*
G01*
G75*
%ADD112C,0.10*%
%ADD113C,0.25*%
D112*
X-7435Y-530D02*
X-7383Y-1027D01*
X-7933Y-582D02*
X-7880Y-1080D01*
X-7933Y-582D02*
X-7435Y-530D01*
X-7880Y-1080D02*
X-7383Y-1027D01*
X-246Y7446D02*
X254Y7454D01*
X-254Y7946D02*
X246Y7954D01*
X254Y7454D01*
X-254Y7946D02*
X-246Y7446D01*
X528Y7438D02*
X1025Y7381D01*
X585Y7935D02*
X1082Y7878D01*
X1025Y7381D02*
X1082Y7878D01*
X528Y7438D02*
X585Y7935D01*
X1304Y7340D02*
X1792Y7235D01*
X1409Y7829D02*
X1898Y7723D01*
X1792Y7235D02*
X1898Y7723D01*
X1304Y7340D02*
X1409Y7829D01*
X2065Y7162D02*
X2541Y7009D01*
X2218Y7638D02*
X2694Y7484D01*
X2541Y7009D02*
X2694Y7484D01*
X2065Y7162D02*
X2218Y7638D01*
X2802Y6907D02*
X3259Y6705D01*
X3004Y7364D02*
X3462Y7162D01*
X3259Y6705D02*
X3462Y7162D01*
X2802Y6907D02*
X3004Y7364D01*
X4176Y6176D02*
X4579Y5880D01*
X4473Y6579D02*
X4875Y6283D01*
X4579Y5880D02*
X4875Y6283D01*
X4176Y6176D02*
X4473Y6579D01*
X4799Y5700D02*
X5175Y5369D01*
X5130Y6075D02*
X5505Y5745D01*
X5175Y5369D02*
X5505Y5745D01*
X4799Y5700D02*
X5130Y6075D01*
X5369Y5176D02*
X5698Y4800D01*
X5746Y5505D02*
X6075Y5128D01*
X5698Y4800D02*
X6075Y5128D01*
X5369Y5176D02*
X5746Y5505D01*
X5880Y4581D02*
X6175Y4177D01*
X6284Y4875D02*
X6579Y4471D01*
X6175Y4177D02*
X6579Y4471D01*
X5880Y4581D02*
X6284Y4875D01*
X6704Y3258D02*
X6908Y2802D01*
X7160Y3462D02*
X7365Y3006D01*
X6908Y2802D02*
X7365Y3006D01*
X6704Y3258D02*
X7160Y3462D01*
X7011Y2546D02*
X7157Y2067D01*
X7489Y2691D02*
X7635Y2213D01*
X7157Y2067D02*
X7635Y2213D01*
X7011Y2546D02*
X7489Y2691D01*
X7236Y1795D02*
X7338Y1305D01*
X7726Y1897D02*
X7827Y1407D01*
X7338Y1305D02*
X7827Y1407D01*
X7236Y1795D02*
X7726Y1897D01*
X7381Y1025D02*
X7438Y528D01*
X7878Y1082D02*
X7935Y585D01*
X7438Y528D02*
X7935Y585D01*
X7381Y1025D02*
X7878Y1082D01*
X-1025Y7381D02*
X-528Y7438D01*
X-1082Y7878D02*
X-585Y7935D01*
X-528Y7438D01*
X-1082Y7878D02*
X-1025Y7381D01*
X-246Y8446D02*
X254Y8454D01*
X-254Y8946D02*
X246Y8954D01*
X254Y8454D01*
X-254Y8946D02*
X-246Y8446D01*
X635Y8430D02*
X1132Y8378D01*
X687Y8927D02*
X1184Y8875D01*
X1132Y8378D02*
X1184Y8875D01*
X635Y8430D02*
X687Y8927D01*
X1512Y8317D02*
X2001Y8213D01*
X1616Y8806D02*
X2105Y8702D01*
X2001Y8213D02*
X2105Y8702D01*
X1512Y8317D02*
X1616Y8806D01*
X2376Y8108D02*
X2854Y7962D01*
X2522Y8586D02*
X3001Y8440D01*
X2854Y7962D02*
X3001Y8440D01*
X2376Y8108D02*
X2522Y8586D01*
X3211Y7815D02*
X3671Y7620D01*
X3406Y8276D02*
X3866Y8080D01*
X3671Y7620D02*
X3866Y8080D01*
X3211Y7815D02*
X3406Y8276D01*
X4765Y6983D02*
X5169Y6689D01*
X5058Y7388D02*
X5463Y7094D01*
X5169Y6689D02*
X5463Y7094D01*
X4765Y6983D02*
X5058Y7388D01*
X5468Y6447D02*
X5840Y6112D01*
X5803Y6818D02*
X6175Y6484D01*
X5840Y6112D02*
X6175Y6484D01*
X5468Y6447D02*
X5803Y6818D01*
X6112Y5834D02*
X6453Y5468D01*
X6478Y6175D02*
X6819Y5809D01*
X6453Y5468D02*
X6819Y5809D01*
X6112Y5834D02*
X6478Y6175D01*
X6689Y5166D02*
X6986Y4764D01*
X7091Y5463D02*
X7388Y5061D01*
X6986Y4764D02*
X7388Y5061D01*
X6689Y5166D02*
X7091Y5463D01*
X7193Y4442D02*
X7443Y4008D01*
X7626Y4692D02*
X7876Y4258D01*
X7443Y4008D02*
X7876Y4258D01*
X7193Y4442D02*
X7626Y4692D01*
X7617Y3662D02*
X7824Y3207D01*
X8072Y3870D02*
X8279Y3415D01*
X7824Y3207D02*
X8279Y3415D01*
X7617Y3662D02*
X8072Y3870D01*
X7958Y2846D02*
X8116Y2372D01*
X8432Y3005D02*
X8591Y2531D01*
X8116Y2372D02*
X8591Y2531D01*
X7958Y2846D02*
X8432Y3005D01*
X8217Y2007D02*
X8312Y1516D01*
X8708Y2102D02*
X8803Y1611D01*
X8312Y1516D02*
X8803Y1611D01*
X8217Y2007D02*
X8708Y2102D01*
X8378Y1132D02*
X8430Y635D01*
X8875Y1184D02*
X8927Y687D01*
X8430Y635D02*
X8927Y687D01*
X8378Y1132D02*
X8875Y1184D01*
X-1129Y8376D02*
X-633Y8432D01*
X-1186Y8872D02*
X-689Y8929D01*
X-633Y8432D01*
X-1186Y8872D02*
X-1129Y8376D01*
X-246Y9446D02*
X254Y9454D01*
X-254Y9946D02*
X246Y9954D01*
X254Y9454D01*
X-254Y9946D02*
X-246Y9446D01*
X739Y9424D02*
X1236Y9372D01*
X791Y9922D02*
X1289Y9869D01*
X1236Y9372D02*
X1289Y9869D01*
X739Y9424D02*
X791Y9922D01*
X1720Y9295D02*
X2209Y9192D01*
X1824Y9785D02*
X2313Y9681D01*
X2209Y9192D02*
X2313Y9681D01*
X1720Y9295D02*
X1824Y9785D01*
X3654Y8716D02*
X4112Y8515D01*
X3856Y9174D02*
X4313Y8972D01*
X4112Y8515D02*
X4313Y8972D01*
X3654Y8716D02*
X3856Y9174D01*
X5352Y7795D02*
X5754Y7498D01*
X5649Y8197D02*
X6051Y7900D01*
X5754Y7498D02*
X6051Y7900D01*
X5352Y7795D02*
X5649Y8197D01*
X6137Y7190D02*
X6509Y6855D01*
X6472Y7562D02*
X6844Y7227D01*
X6509Y6855D02*
X6844Y7227D01*
X6137Y7190D02*
X6472Y7562D01*
X6855Y6509D02*
X7190Y6137D01*
X7227Y6844D02*
X7562Y6472D01*
X7190Y6137D02*
X7562Y6472D01*
X6855Y6509D02*
X7227Y6844D01*
X7498Y5757D02*
X7792Y5352D01*
X7903Y6051D02*
X8197Y5646D01*
X7792Y5352D02*
X8197Y5646D01*
X7498Y5757D02*
X7903Y6051D01*
X8059Y4942D02*
X8309Y4508D01*
X8492Y5192D02*
X8742Y4758D01*
X8309Y4508D02*
X8742Y4758D01*
X8059Y4942D02*
X8492Y5192D01*
X8531Y4071D02*
X8735Y3615D01*
X8987Y4276D02*
X9192Y3819D01*
X8735Y3615D02*
X9192Y3819D01*
X8531Y4071D02*
X8987Y4276D01*
X8910Y3158D02*
X9065Y2682D01*
X9386Y3312D02*
X9540Y2837D01*
X9065Y2682D02*
X9540Y2837D01*
X8910Y3158D02*
X9386Y3312D01*
X9190Y2207D02*
X9298Y1719D01*
X9678Y2315D02*
X9786Y1827D01*
X9298Y1719D02*
X9786Y1827D01*
X9190Y2207D02*
X9678Y2315D01*
X9374Y1239D02*
X9422Y741D01*
X9872Y1287D02*
X9920Y789D01*
X9422Y741D02*
X9920Y789D01*
X9374Y1239D02*
X9872Y1287D01*
X-1234Y9370D02*
X-737Y9427D01*
X-1291Y9867D02*
X-794Y9924D01*
X-737Y9427D01*
X-1291Y9867D02*
X-1234Y9370D01*
X2684Y9062D02*
X3161Y8912D01*
X2834Y9539D02*
X3311Y9389D01*
X3161Y8912D02*
X3311Y9389D01*
X2684Y9062D02*
X2834Y9539D01*
X6328Y3945D02*
X6574Y3509D01*
X6763Y4191D02*
X7009Y3755D01*
X6574Y3509D02*
X7009Y3755D01*
X6328Y3945D02*
X6763Y4191D01*
X473Y7578D02*
X478Y7798D01*
X328Y7581D02*
X333Y7801D01*
X328Y7581D02*
X473Y7578D01*
X333Y7801D02*
X478Y7798D01*
X4197Y6326D02*
X4313Y6513D01*
X4074Y6402D02*
X4190Y6589D01*
X4074Y6402D02*
X4197Y6326D01*
X4190Y6589D02*
X4313Y6513D01*
X4740Y7165D02*
X4859Y7350D01*
X4618Y7243D02*
X4737Y7428D01*
X4618Y7243D02*
X4740Y7165D01*
X4737Y7428D02*
X4859Y7350D01*
X4509Y8306D02*
X4944Y8060D01*
X4756Y8741D02*
X5191Y8495D01*
X4944Y8060D02*
X5191Y8495D01*
X4509Y8306D02*
X4756Y8741D01*
X4010Y7437D02*
X4447Y7195D01*
X4253Y7874D02*
X4690Y7632D01*
X4447Y7195D02*
X4690Y7632D01*
X4010Y7437D02*
X4253Y7874D01*
X3509Y6574D02*
X3945Y6328D01*
X3755Y7009D02*
X4191Y6763D01*
X3945Y6328D02*
X4191Y6763D01*
X3509Y6574D02*
X3755Y7009D01*
X5283Y8003D02*
X5404Y8187D01*
X5162Y8083D02*
X5283Y8267D01*
X5162Y8083D02*
X5283Y8003D01*
X5283Y8267D02*
X5404Y8187D01*
X6796Y3381D02*
X6992Y3482D01*
X6730Y3510D02*
X6925Y3611D01*
X6730Y3510D02*
X6796Y3381D01*
X6925Y3611D02*
X6992Y3482D01*
X7688Y3835D02*
X7883Y3936D01*
X7621Y3963D02*
X7816Y4065D01*
X7621Y3963D02*
X7688Y3835D01*
X7816Y4065D02*
X7883Y3936D01*
X8578Y4289D02*
X8774Y4389D01*
X8512Y4418D02*
X8708Y4518D01*
X8512Y4418D02*
X8578Y4289D01*
X8708Y4518D02*
X8774Y4389D01*
X7575Y-469D02*
X7795Y-482D01*
X7584Y-324D02*
X7803Y-337D01*
X7575Y-469D02*
X7584Y-324D01*
X7795Y-482D02*
X7803Y-337D01*
X8574Y-522D02*
X8794Y-534D01*
X8582Y-377D02*
X8802Y-389D01*
X8574Y-522D02*
X8582Y-377D01*
X8794Y-534D02*
X8802Y-389D01*
X9574Y-575D02*
X9794Y-585D01*
X9580Y-431D02*
X9800Y-440D01*
X9574Y-575D02*
X9580Y-431D01*
X9794Y-585D02*
X9800Y-440D01*
X6326Y-4193D02*
X6509Y-4315D01*
X6406Y-4073D02*
X6590Y-4194D01*
X6326Y-4193D02*
X6406Y-4073D01*
X6509Y-4315D02*
X6590Y-4194D01*
X7165Y-4739D02*
X7349Y-4859D01*
X7244Y-4618D02*
X7428Y-4737D01*
X7165Y-4739D02*
X7244Y-4618D01*
X7349Y-4859D02*
X7428Y-4737D01*
X8003Y-5283D02*
X8187Y-5404D01*
X8083Y-5162D02*
X8267Y-5283D01*
X8003Y-5283D02*
X8083Y-5162D01*
X8187Y-5404D02*
X8267Y-5283D01*
X3381Y-6796D02*
X3482Y-6992D01*
X3510Y-6730D02*
X3611Y-6925D01*
X3381Y-6796D02*
X3510Y-6730D01*
X3482Y-6992D02*
X3611Y-6925D01*
X3835Y-7687D02*
X3936Y-7883D01*
X3964Y-7621D02*
X4065Y-7816D01*
X3835Y-7687D02*
X3964Y-7621D01*
X3936Y-7883D02*
X4065Y-7816D01*
X4289Y-8577D02*
X4389Y-8774D01*
X4419Y-8512D02*
X4518Y-8708D01*
X4289Y-8577D02*
X4419Y-8512D01*
X4389Y-8774D02*
X4518Y-8708D01*
X-481Y-7796D02*
X-470Y-7576D01*
X-336Y-7803D02*
X-325Y-7583D01*
X-470Y-7576D02*
X-325Y-7583D01*
X-481Y-7796D02*
X-336Y-7803D01*
X-533Y-8794D02*
X-522Y-8575D01*
X-388Y-8802D02*
X-377Y-8582D01*
X-522Y-8575D02*
X-377Y-8582D01*
X-533Y-8794D02*
X-388Y-8802D01*
X-585Y-9793D02*
X-575Y-9574D01*
X-440Y-9800D02*
X-430Y-9580D01*
X-575Y-9574D02*
X-430Y-9580D01*
X-585Y-9793D02*
X-440Y-9800D01*
X-4315Y-6509D02*
X-4193Y-6326D01*
X-4194Y-6590D02*
X-4072Y-6406D01*
X-4193Y-6326D02*
X-4072Y-6406D01*
X-4315Y-6509D02*
X-4194Y-6590D01*
X-4859Y-7349D02*
X-4739Y-7165D01*
X-4738Y-7428D02*
X-4618Y-7244D01*
X-4739Y-7165D02*
X-4618Y-7244D01*
X-4859Y-7349D02*
X-4738Y-7428D01*
X-5404Y-8188D02*
X-5284Y-8003D01*
X-5282Y-8267D02*
X-5162Y-8082D01*
X-5284Y-8003D02*
X-5162Y-8082D01*
X-5404Y-8188D02*
X-5282Y-8267D01*
X-6992Y-3481D02*
X-6796Y-3381D01*
X-6926Y-3610D02*
X-6730Y-3510D01*
X-6796Y-3381D02*
X-6730Y-3510D01*
X-6992Y-3481D02*
X-6926Y-3610D01*
X525Y8576D02*
X531Y8796D01*
X380Y8580D02*
X386Y8800D01*
X380Y8580D02*
X525Y8576D01*
X386Y8800D02*
X531Y8796D01*
X576Y9574D02*
X584Y9794D01*
X431Y9580D02*
X439Y9799D01*
X431Y9580D02*
X576Y9574D01*
X439Y9799D02*
X584Y9794D01*
X-3942Y7883D02*
X-3832Y7692D01*
X-4067Y7811D02*
X-3958Y7620D01*
X-3832Y7692D01*
X-4067Y7811D02*
X-3942Y7883D01*
X-9800Y-445D02*
X-9793Y-580D01*
X-9580Y-435D02*
X-9574Y-570D01*
X-9793Y-580D02*
X-9574Y-570D01*
X-9800Y-445D02*
X-9580Y-435D01*
X9793Y581D02*
X9800Y446D01*
X9573Y569D02*
X9580Y434D01*
X9573Y569D02*
X9793Y581D01*
X9580Y434D02*
X9800Y446D01*
X-543Y9074D02*
X-408Y9081D01*
X-555Y9294D02*
X-420Y9301D01*
X-408Y9081D01*
X-555Y9294D02*
X-543Y9074D01*
X-8801Y-393D02*
X-8795Y-528D01*
X-8581Y-383D02*
X-8575Y-518D01*
X-8795Y-528D02*
X-8575Y-518D01*
X-8801Y-393D02*
X-8581Y-383D01*
X8795Y527D02*
X8801Y393D01*
X8575Y518D02*
X8581Y383D01*
X8575Y518D02*
X8795Y527D01*
X8581Y383D02*
X8801Y393D01*
X-491Y8075D02*
X-356Y8082D01*
X-502Y8295D02*
X-368Y8302D01*
X-356Y8082D01*
X-502Y8295D02*
X-491Y8075D01*
X-7803Y-342D02*
X-7796Y-476D01*
X-7583Y-329D02*
X-7576Y-464D01*
X-7796Y-476D02*
X-7576Y-464D01*
X-7803Y-342D02*
X-7583Y-329D01*
X7797Y475D02*
X7802Y340D01*
X7577Y466D02*
X7582Y331D01*
X7577Y466D02*
X7797Y475D01*
X7582Y331D02*
X7802Y340D01*
X7448Y248D02*
X7452Y-252D01*
X7948Y252D02*
X7952Y-248D01*
X7452Y-252D02*
X7952Y-248D01*
X7448Y248D02*
X7948Y252D01*
X8448Y-248D02*
X8452Y252D01*
X8948Y-252D02*
X8952Y248D01*
X8448Y-248D02*
X8948Y-252D01*
X8452Y252D02*
X8952Y248D01*
X9450Y250D02*
X9450Y-250D01*
X9950Y250D02*
X9950Y-250D01*
X9450Y-250D02*
X9950Y-250D01*
X9450Y250D02*
X9950Y250D01*
X9370Y-1234D02*
X9427Y-737D01*
X9867Y-1291D02*
X9924Y-794D01*
X9370Y-1234D02*
X9867Y-1291D01*
X9427Y-737D02*
X9924Y-794D01*
X8374Y-1127D02*
X8435Y-631D01*
X8870Y-1188D02*
X8931Y-692D01*
X8374Y-1127D02*
X8870Y-1188D01*
X8435Y-631D02*
X8931Y-692D01*
X7381Y-1025D02*
X7438Y-528D01*
X7878Y-1082D02*
X7935Y-585D01*
X7381Y-1025D02*
X7878Y-1082D01*
X7438Y-528D02*
X7935Y-585D01*
X7235Y-1793D02*
X7339Y-1304D01*
X7724Y-1897D02*
X7828Y-1408D01*
X7235Y-1793D02*
X7724Y-1897D01*
X7339Y-1304D02*
X7828Y-1408D01*
X7008Y-2540D02*
X7163Y-2064D01*
X7484Y-2694D02*
X7638Y-2219D01*
X7008Y-2540D02*
X7484Y-2694D01*
X7163Y-2064D02*
X7638Y-2219D01*
X7959Y-2849D02*
X8114Y-2373D01*
X8435Y-3003D02*
X8589Y-2528D01*
X7959Y-2849D02*
X8435Y-3003D01*
X8114Y-2373D02*
X8589Y-2528D01*
X8910Y-3158D02*
X9065Y-2682D01*
X9386Y-3312D02*
X9540Y-2837D01*
X8910Y-3158D02*
X9386Y-3312D01*
X9065Y-2682D02*
X9540Y-2837D01*
X9192Y-2209D02*
X9295Y-1720D01*
X9681Y-2313D02*
X9785Y-1824D01*
X9192Y-2209D02*
X9681Y-2313D01*
X9295Y-1720D02*
X9785Y-1824D01*
X8213Y-2001D02*
X8317Y-1512D01*
X8702Y-2105D02*
X8806Y-1616D01*
X8213Y-2001D02*
X8702Y-2105D01*
X8317Y-1512D02*
X8806Y-1616D01*
X8531Y-4072D02*
X8735Y-3615D01*
X8988Y-4275D02*
X9191Y-3819D01*
X8531Y-4072D02*
X8988Y-4275D01*
X8735Y-3615D02*
X9191Y-3819D01*
X7617Y-3664D02*
X7823Y-3208D01*
X8073Y-3869D02*
X8278Y-3413D01*
X7617Y-3664D02*
X8073Y-3869D01*
X7823Y-3208D02*
X8278Y-3413D01*
X6702Y-3253D02*
X6913Y-2800D01*
X7155Y-3464D02*
X7367Y-3011D01*
X6702Y-3253D02*
X7155Y-3464D01*
X6913Y-2800D02*
X7367Y-3011D01*
X6325Y-3936D02*
X6583Y-3507D01*
X6754Y-4193D02*
X7011Y-3764D01*
X6325Y-3936D02*
X6754Y-4193D01*
X6583Y-3507D02*
X7011Y-3764D01*
X7192Y-4439D02*
X7446Y-4008D01*
X7623Y-4692D02*
X7877Y-4261D01*
X7192Y-4439D02*
X7623Y-4692D01*
X7446Y-4008D02*
X7877Y-4261D01*
X8058Y-4939D02*
X8312Y-4508D01*
X8489Y-5192D02*
X8743Y-4761D01*
X8058Y-4939D02*
X8489Y-5192D01*
X8312Y-4508D02*
X8743Y-4761D01*
X6688Y-5163D02*
X6989Y-4764D01*
X7088Y-5464D02*
X7389Y-5065D01*
X6688Y-5163D02*
X7088Y-5464D01*
X6989Y-4764D02*
X7389Y-5065D01*
X7498Y-5757D02*
X7792Y-5352D01*
X7903Y-6051D02*
X8197Y-5646D01*
X7498Y-5757D02*
X7903Y-6051D01*
X7792Y-5352D02*
X8197Y-5646D01*
X5880Y-4578D02*
X6177Y-4176D01*
X6282Y-4876D02*
X6579Y-4474D01*
X5880Y-4578D02*
X6282Y-4876D01*
X6177Y-4176D02*
X6579Y-4474D01*
X6855Y-6509D02*
X7190Y-6137D01*
X7227Y-6844D02*
X7562Y-6472D01*
X6855Y-6509D02*
X7227Y-6844D01*
X7190Y-6137D02*
X7562Y-6472D01*
X6112Y-5840D02*
X6447Y-5468D01*
X6484Y-6175D02*
X6818Y-5803D01*
X6112Y-5840D02*
X6484Y-6175D01*
X6447Y-5468D02*
X6818Y-5803D01*
X5369Y-5171D02*
X5704Y-4799D01*
X5741Y-5505D02*
X6075Y-5134D01*
X5369Y-5171D02*
X5741Y-5505D01*
X5704Y-4799D02*
X6075Y-5134D01*
X6138Y-7187D02*
X6512Y-6856D01*
X6469Y-7561D02*
X6843Y-7230D01*
X6138Y-7187D02*
X6469Y-7561D01*
X6512Y-6856D02*
X6843Y-7230D01*
X5469Y-6444D02*
X5843Y-6112D01*
X5800Y-6818D02*
X6174Y-6487D01*
X5469Y-6444D02*
X5800Y-6818D01*
X5843Y-6112D02*
X6174Y-6487D01*
X4799Y-5701D02*
X5174Y-5369D01*
X5131Y-6075D02*
X5505Y-5744D01*
X4799Y-5701D02*
X5131Y-6075D01*
X5174Y-5369D02*
X5505Y-5744D01*
X5352Y-7792D02*
X5757Y-7498D01*
X5646Y-8197D02*
X6051Y-7903D01*
X5352Y-7792D02*
X5646Y-8197D01*
X5757Y-7498D02*
X6051Y-7903D01*
X4766Y-6977D02*
X5175Y-6690D01*
X5052Y-7387D02*
X5462Y-7100D01*
X4766Y-6977D02*
X5052Y-7387D01*
X5175Y-6690D02*
X5462Y-7100D01*
X4178Y-6165D02*
X4590Y-5882D01*
X4462Y-6577D02*
X4874Y-6294D01*
X4178Y-6165D02*
X4462Y-6577D01*
X4590Y-5882D02*
X4874Y-6294D01*
X4508Y-8310D02*
X4940Y-8059D01*
X4760Y-8742D02*
X5192Y-8491D01*
X4508Y-8310D02*
X4760Y-8742D01*
X4940Y-8059D02*
X5192Y-8491D01*
X4009Y-7440D02*
X4445Y-7194D01*
X4255Y-7875D02*
X4691Y-7629D01*
X4009Y-7440D02*
X4255Y-7875D01*
X4445Y-7194D02*
X4691Y-7629D01*
X3510Y-6571D02*
X3947Y-6329D01*
X3753Y-7008D02*
X4190Y-6766D01*
X3510Y-6571D02*
X3753Y-7008D01*
X3947Y-6329D02*
X4190Y-6766D01*
X3616Y-8732D02*
X4075Y-8532D01*
X3816Y-9190D02*
X4274Y-8991D01*
X3616Y-8732D02*
X3816Y-9190D01*
X4075Y-8532D02*
X4274Y-8991D01*
X3211Y-7815D02*
X3671Y-7620D01*
X3406Y-8276D02*
X3866Y-8080D01*
X3211Y-7815D02*
X3406Y-8276D01*
X3671Y-7620D02*
X3866Y-8080D01*
X2802Y-6908D02*
X3259Y-6704D01*
X3005Y-7364D02*
X3462Y-7161D01*
X2802Y-6908D02*
X3005Y-7364D01*
X3259Y-6704D02*
X3462Y-7161D01*
X2685Y-9059D02*
X3163Y-8913D01*
X2831Y-9537D02*
X3310Y-9391D01*
X2685Y-9059D02*
X2831Y-9537D01*
X3163Y-8913D02*
X3310Y-9391D01*
X2373Y-8114D02*
X2849Y-7959D01*
X2528Y-8589D02*
X3003Y-8435D01*
X2373Y-8114D02*
X2528Y-8589D01*
X2849Y-7959D02*
X3003Y-8435D01*
X2066Y-7160D02*
X2543Y-7010D01*
X2216Y-7637D02*
X2693Y-7486D01*
X2066Y-7160D02*
X2216Y-7637D01*
X2543Y-7010D02*
X2693Y-7486D01*
X1722Y-9293D02*
X2212Y-9193D01*
X1822Y-9783D02*
X2312Y-9683D01*
X1722Y-9293D02*
X1822Y-9783D01*
X2212Y-9193D02*
X2312Y-9683D01*
X1517Y-8310D02*
X2009Y-8219D01*
X1609Y-8801D02*
X2100Y-8710D01*
X1517Y-8310D02*
X1609Y-8801D01*
X2009Y-8219D02*
X2100Y-8710D01*
X1306Y-7337D02*
X1796Y-7237D01*
X1406Y-7827D02*
X1896Y-7727D01*
X1306Y-7337D02*
X1406Y-7827D01*
X1796Y-7237D02*
X1896Y-7727D01*
X739Y-9424D02*
X1236Y-9372D01*
X791Y-9922D02*
X1289Y-9869D01*
X739Y-9424D02*
X791Y-9922D01*
X1236Y-9372D02*
X1289Y-9869D01*
X-250Y-9450D02*
X250Y-9450D01*
X-250Y-9950D02*
X250Y-9950D01*
X-250Y-9450D02*
X-250Y-9950D01*
X250Y-9450D02*
X250Y-9950D01*
X-1238Y-9373D02*
X-740Y-9423D01*
X-1288Y-9871D02*
X-790Y-9921D01*
X-1288Y-9871D02*
X-1238Y-9373D01*
X-790Y-9921D02*
X-740Y-9423D01*
X-2209Y-9192D02*
X-1720Y-9295D01*
X-2313Y-9681D02*
X-1824Y-9785D01*
X-2313Y-9681D02*
X-2209Y-9192D01*
X-1824Y-9785D02*
X-1720Y-9295D01*
X-3158Y-8910D02*
X-2682Y-9065D01*
X-3312Y-9386D02*
X-2837Y-9540D01*
X-3312Y-9386D02*
X-3158Y-8910D01*
X-2837Y-9540D02*
X-2682Y-9065D01*
X643Y-8420D02*
X1141Y-8386D01*
X677Y-8919D02*
X1176Y-8884D01*
X643Y-8420D02*
X677Y-8919D01*
X1141Y-8386D02*
X1176Y-8884D01*
X-250Y-8450D02*
X250Y-8450D01*
X-250Y-8950D02*
X250Y-8950D01*
X-250Y-8450D02*
X-250Y-8950D01*
X250Y-8950D02*
X250Y-8450D01*
X530Y-7435D02*
X1027Y-7383D01*
X582Y-7933D02*
X1080Y-7880D01*
X530Y-7435D02*
X582Y-7933D01*
X1027Y-7383D02*
X1080Y-7880D01*
X-248Y-7448D02*
X252Y-7452D01*
X-252Y-7948D02*
X248Y-7952D01*
X-252Y-7948D02*
X-248Y-7448D01*
X248Y-7952D02*
X252Y-7452D01*
X-1030Y-7385D02*
X-532Y-7433D01*
X-1078Y-7883D02*
X-580Y-7931D01*
X-1078Y-7883D02*
X-1030Y-7385D01*
X-580Y-7931D02*
X-532Y-7433D01*
X-1132Y-8378D02*
X-635Y-8430D01*
X-1184Y-8875D02*
X-687Y-8927D01*
X-1184Y-8875D02*
X-1132Y-8378D01*
X-687Y-8927D02*
X-635Y-8430D01*
X-2001Y-8213D02*
X-1512Y-8317D01*
X-2105Y-8702D02*
X-1616Y-8806D01*
X-2105Y-8702D02*
X-2001Y-8213D01*
X-1616Y-8806D02*
X-1512Y-8317D01*
X-1793Y-7235D02*
X-1304Y-7339D01*
X-1897Y-7724D02*
X-1408Y-7828D01*
X-1897Y-7724D02*
X-1793Y-7235D01*
X-1408Y-7828D02*
X-1304Y-7339D01*
X-2852Y-7961D02*
X-2375Y-8111D01*
X-3002Y-8437D02*
X-2525Y-8588D01*
X-3002Y-8437D02*
X-2852Y-7961D01*
X-2525Y-8588D02*
X-2375Y-8111D01*
X-2537Y-7007D02*
X-2063Y-7165D01*
X-2696Y-7481D02*
X-2222Y-7640D01*
X-2696Y-7481D02*
X-2537Y-7007D01*
X-2222Y-7640D02*
X-2063Y-7165D01*
X-4075Y-8532D02*
X-3616Y-8732D01*
X-4274Y-8991D02*
X-3816Y-9190D01*
X-4274Y-8991D02*
X-4075Y-8532D01*
X-3816Y-9190D02*
X-3616Y-8732D01*
X-3671Y-7620D02*
X-3211Y-7815D01*
X-3866Y-8080D02*
X-3406Y-8276D01*
X-3866Y-8080D02*
X-3671Y-7620D01*
X-3406Y-8276D02*
X-3211Y-7815D01*
X-3261Y-6705D02*
X-2803Y-6905D01*
X-3461Y-7164D02*
X-3002Y-7363D01*
X-3461Y-7164D02*
X-3261Y-6705D01*
X-3002Y-7363D02*
X-2803Y-6905D01*
X-3939Y-6326D02*
X-3508Y-6580D01*
X-4192Y-6757D02*
X-3761Y-7011D01*
X-4192Y-6757D02*
X-3939Y-6326D01*
X-3761Y-7011D02*
X-3508Y-6580D01*
X-4442Y-7193D02*
X-4008Y-7443D01*
X-4692Y-7626D02*
X-4258Y-7876D01*
X-4692Y-7626D02*
X-4442Y-7193D01*
X-4258Y-7876D02*
X-4008Y-7443D01*
X-4947Y-8061D02*
X-4510Y-8303D01*
X-5190Y-8498D02*
X-4753Y-8740D01*
X-5190Y-8498D02*
X-4947Y-8061D01*
X-4753Y-8740D02*
X-4510Y-8303D01*
X-5760Y-7499D02*
X-5353Y-7789D01*
X-6050Y-7906D02*
X-5643Y-8196D01*
X-6050Y-7906D02*
X-5760Y-7499D01*
X-5643Y-8196D02*
X-5353Y-7789D01*
X-5166Y-6689D02*
X-4764Y-6986D01*
X-5463Y-7091D02*
X-5061Y-7388D01*
X-5463Y-7091D02*
X-5166Y-6689D01*
X-5061Y-7388D02*
X-4764Y-6986D01*
X-4584Y-5881D02*
X-4177Y-6171D01*
X-4875Y-6288D02*
X-4468Y-6578D01*
X-4875Y-6288D02*
X-4584Y-5881D01*
X-4468Y-6578D02*
X-4177Y-6171D01*
X-5168Y-5369D02*
X-4799Y-5707D01*
X-5506Y-5738D02*
X-5137Y-6075D01*
X-5506Y-5738D02*
X-5168Y-5369D01*
X-5137Y-6075D02*
X-4799Y-5707D01*
X-5843Y-6112D02*
X-5469Y-6444D01*
X-6174Y-6487D02*
X-5800Y-6818D01*
X-6174Y-6487D02*
X-5843Y-6112D01*
X-5800Y-6818D02*
X-5469Y-6444D01*
X-6509Y-6855D02*
X-6137Y-7190D01*
X-6844Y-7227D02*
X-6472Y-7562D01*
X-6844Y-7227D02*
X-6509Y-6855D01*
X-6472Y-7562D02*
X-6137Y-7190D01*
X-7190Y-6137D02*
X-6855Y-6509D01*
X-7562Y-6472D02*
X-7227Y-6844D01*
X-7562Y-6472D02*
X-7190Y-6137D01*
X-7227Y-6844D02*
X-6855Y-6509D01*
X-6450Y-5468D02*
X-6112Y-5837D01*
X-6819Y-5806D02*
X-6481Y-6175D01*
X-6819Y-5806D02*
X-6450Y-5468D01*
X-6481Y-6175D02*
X-6112Y-5837D01*
X-5707Y-4799D02*
X-5369Y-5168D01*
X-6075Y-5137D02*
X-5738Y-5506D01*
X-6075Y-5137D02*
X-5707Y-4799D01*
X-5738Y-5506D02*
X-5369Y-5168D01*
X-7789Y-5353D02*
X-7499Y-5760D01*
X-8196Y-5643D02*
X-7906Y-6050D01*
X-8196Y-5643D02*
X-7789Y-5353D01*
X-7906Y-6050D02*
X-7499Y-5760D01*
X-6983Y-4765D02*
X-6689Y-5169D01*
X-7388Y-5058D02*
X-7094Y-5463D01*
X-7388Y-5058D02*
X-6983Y-4765D01*
X-7094Y-5463D02*
X-6689Y-5169D01*
X-6179Y-4176D02*
X-5880Y-4577D01*
X-6579Y-4475D02*
X-6280Y-4876D01*
X-6579Y-4475D02*
X-6179Y-4176D01*
X-6280Y-4876D02*
X-5880Y-4577D01*
X-8312Y-4508D02*
X-8058Y-4939D01*
X-8743Y-4761D02*
X-8489Y-5192D01*
X-8743Y-4761D02*
X-8312Y-4508D01*
X-8489Y-5192D02*
X-8058Y-4939D01*
X-7446Y-4008D02*
X-7192Y-4439D01*
X-7877Y-4261D02*
X-7623Y-4692D01*
X-7877Y-4261D02*
X-7446Y-4008D01*
X-7623Y-4692D02*
X-7192Y-4439D01*
X-6577Y-3508D02*
X-6327Y-3942D01*
X-7010Y-3758D02*
X-6760Y-4192D01*
X-7010Y-3758D02*
X-6577Y-3508D01*
X-6760Y-4192D02*
X-6327Y-3942D01*
X-6908Y-2802D02*
X-6704Y-3259D01*
X-7364Y-3005D02*
X-7161Y-3462D01*
X-7364Y-3005D02*
X-6908Y-2802D01*
X-7161Y-3462D02*
X-6704Y-3259D01*
X-7815Y-3211D02*
X-7620Y-3671D01*
X-8276Y-3406D02*
X-8080Y-3866D01*
X-8276Y-3406D02*
X-7815Y-3211D01*
X-8080Y-3866D02*
X-7620Y-3671D01*
X-8732Y-3616D02*
X-8532Y-4075D01*
X-9190Y-3816D02*
X-8991Y-4274D01*
X-9190Y-3816D02*
X-8732Y-3616D01*
X-8991Y-4274D02*
X-8532Y-4075D01*
X-9065Y-2682D02*
X-8910Y-3158D01*
X-9540Y-2837D02*
X-9386Y-3312D01*
X-9540Y-2837D02*
X-9065Y-2682D01*
X-9386Y-3312D02*
X-8910Y-3158D01*
X-8116Y-2372D02*
X-7958Y-2846D01*
X-8591Y-2531D02*
X-8432Y-3005D01*
X-8591Y-2531D02*
X-8116Y-2372D01*
X-8432Y-3005D02*
X-7958Y-2846D01*
X-7165Y-2063D02*
X-7007Y-2537D01*
X-7640Y-2222D02*
X-7481Y-2696D01*
X-7640Y-2222D02*
X-7165Y-2063D01*
X-7481Y-2696D02*
X-7007Y-2537D01*
X-7337Y-1306D02*
X-7237Y-1796D01*
X-7827Y-1406D02*
X-7727Y-1896D01*
X-7827Y-1406D02*
X-7337Y-1306D01*
X-7727Y-1896D02*
X-7237Y-1796D01*
X-8317Y-1512D02*
X-8213Y-2001D01*
X-8806Y-1616D02*
X-8702Y-2105D01*
X-8806Y-1616D02*
X-8317Y-1512D01*
X-8702Y-2105D02*
X-8213Y-2001D01*
X-9298Y-1719D02*
X-9190Y-2207D01*
X-9786Y-1827D02*
X-9678Y-2315D01*
X-9786Y-1827D02*
X-9298Y-1719D01*
X-9678Y-2315D02*
X-9190Y-2207D01*
X-9424Y-739D02*
X-9372Y-1236D01*
X-9922Y-791D02*
X-9869Y-1289D01*
X-9922Y-791D02*
X-9424Y-739D01*
X-9869Y-1289D02*
X-9372Y-1236D01*
X-8432Y-633D02*
X-8376Y-1129D01*
X-8929Y-689D02*
X-8872Y-1186D01*
X-8929Y-689D02*
X-8432Y-633D01*
X-8872Y-1186D02*
X-8376Y-1129D01*
X-7454Y-254D02*
X-7446Y246D01*
X-7954Y-246D02*
X-7946Y254D01*
X-7446Y246D01*
X-7954Y-246D02*
X-7454Y-254D01*
X-8450Y250D02*
X-8450Y-250D01*
X-8950Y250D02*
X-8950Y-250D01*
X-8950Y250D02*
X-8450Y250D01*
X-8950Y-250D02*
X-8450Y-250D01*
X-9450Y250D02*
X-9450Y-250D01*
X-9950Y250D02*
X-9950Y-250D01*
X-9950Y250D02*
X-9450Y250D01*
X-9950Y-250D02*
X-9450Y-250D01*
X-9432Y733D02*
X-9366Y1229D01*
X-9927Y799D02*
X-9862Y1294D01*
X-9366Y1229D01*
X-9927Y799D02*
X-9432Y733D01*
X-8430Y635D02*
X-8378Y1132D01*
X-8927Y687D02*
X-8875Y1184D01*
X-8378Y1132D01*
X-8927Y687D02*
X-8430Y635D01*
X-7438Y528D02*
X-7381Y1025D01*
X-7935Y585D02*
X-7878Y1082D01*
X-7381Y1025D01*
X-7935Y585D02*
X-7438Y528D01*
X-7344Y1301D02*
X-7232Y1788D01*
X-7832Y1414D02*
X-7719Y1901D01*
X-7232Y1788D01*
X-7832Y1414D02*
X-7344Y1301D01*
X-8317Y1512D02*
X-8213Y2001D01*
X-8806Y1616D02*
X-8702Y2105D01*
X-8213Y2001D01*
X-8806Y1616D02*
X-8317Y1512D01*
X-9295Y1720D02*
X-9192Y2209D01*
X-9785Y1824D02*
X-9681Y2313D01*
X-9192Y2209D01*
X-9785Y1824D02*
X-9295Y1720D01*
X-9065Y2682D02*
X-8910Y3158D01*
X-9540Y2837D02*
X-9386Y3312D01*
X-8910Y3158D01*
X-9540Y2837D02*
X-9065Y2682D01*
X-8119Y2371D02*
X-7956Y2843D01*
X-8592Y2533D02*
X-8429Y3006D01*
X-7956Y2843D01*
X-8592Y2533D02*
X-8119Y2371D01*
X-7171Y2060D02*
X-7004Y2532D01*
X-7642Y2227D02*
X-7475Y2699D01*
X-7004Y2532D01*
X-7642Y2227D02*
X-7171Y2060D01*
X-6916Y2799D02*
X-6701Y3250D01*
X-7368Y3014D02*
X-7152Y3465D01*
X-6701Y3250D01*
X-7368Y3014D02*
X-6916Y2799D01*
X-7821Y3209D02*
X-7618Y3665D01*
X-8278Y3412D02*
X-8075Y3869D01*
X-7618Y3665D01*
X-8278Y3412D02*
X-7821Y3209D01*
X-8738Y3614D02*
X-8530Y4069D01*
X-9193Y3822D02*
X-8985Y4277D01*
X-8530Y4069D01*
X-9193Y3822D02*
X-8738Y3614D01*
X-6586Y3506D02*
X-6325Y3933D01*
X-7012Y3767D02*
X-6751Y4194D01*
X-6325Y3933D01*
X-7012Y3767D02*
X-6586Y3506D01*
X-7469Y4061D02*
X-7215Y4492D01*
X-7899Y4315D02*
X-7646Y4745D01*
X-7215Y4492D01*
X-7899Y4315D02*
X-7469Y4061D01*
X-8309Y4508D02*
X-8059Y4942D01*
X-8742Y4758D02*
X-8492Y5192D01*
X-8059Y4942D01*
X-8742Y4758D02*
X-8309Y4508D01*
X-7792Y5352D02*
X-7498Y5757D01*
X-8197Y5646D02*
X-7903Y6051D01*
X-7498Y5757D01*
X-8197Y5646D02*
X-7792Y5352D01*
X-6983Y4765D02*
X-6689Y5169D01*
X-7388Y5058D02*
X-7094Y5463D01*
X-6689Y5169D01*
X-7388Y5058D02*
X-6983Y4765D01*
X-6174Y4177D02*
X-5880Y4581D01*
X-6579Y4471D02*
X-6285Y4875D01*
X-5880Y4581D01*
X-6579Y4471D02*
X-6174Y4177D01*
X-5710Y4799D02*
X-5369Y5165D01*
X-6076Y5140D02*
X-5735Y5506D01*
X-5369Y5165D01*
X-6076Y5140D02*
X-5710Y4799D01*
X-6450Y5468D02*
X-6112Y5837D01*
X-6819Y5806D02*
X-6481Y6175D01*
X-6112Y5837D01*
X-6819Y5806D02*
X-6450Y5468D01*
X-7190Y6137D02*
X-6855Y6509D01*
X-7562Y6472D02*
X-7227Y6844D01*
X-6855Y6509D01*
X-7562Y6472D02*
X-7190Y6137D01*
X-5155Y5369D02*
X-4799Y5719D01*
X-5506Y5725D02*
X-5149Y6076D01*
X-4799Y5719D01*
X-5506Y5725D02*
X-5155Y5369D01*
X-4581Y5880D02*
X-4177Y6174D01*
X-4875Y6285D02*
X-4471Y6579D01*
X-4177Y6174D01*
X-4875Y6285D02*
X-4581Y5880D01*
X-5831Y6112D02*
X-5468Y6456D01*
X-6175Y6475D02*
X-5812Y6819D01*
X-5468Y6456D01*
X-6175Y6475D02*
X-5831Y6112D01*
X-6500Y6855D02*
X-6137Y7199D01*
X-6844Y7218D02*
X-6481Y7562D01*
X-6137Y7199D01*
X-6844Y7218D02*
X-6500Y6855D01*
X-5757Y7498D02*
X-5352Y7792D01*
X-6051Y7903D02*
X-5646Y8197D01*
X-5352Y7792D01*
X-6051Y7903D02*
X-5757Y7498D01*
X-5163Y6688D02*
X-4764Y6989D01*
X-5464Y7088D02*
X-5065Y7389D01*
X-4764Y6989D01*
X-5464Y7088D02*
X-5163Y6688D01*
X-3933Y6325D02*
X-3506Y6586D01*
X-4194Y6751D02*
X-3767Y7012D01*
X-3506Y6586D01*
X-4194Y6751D02*
X-3933Y6325D01*
X-4436Y7191D02*
X-4007Y7449D01*
X-4693Y7620D02*
X-4264Y7877D01*
X-4007Y7449D01*
X-4693Y7620D02*
X-4436Y7191D01*
X-4936Y8057D02*
X-4507Y8315D01*
X-5193Y8486D02*
X-4764Y8743D01*
X-4507Y8315D01*
X-5193Y8486D02*
X-4936Y8057D01*
X-3662Y7617D02*
X-3207Y7824D01*
X-3870Y8072D02*
X-3415Y8279D01*
X-3207Y7824D01*
X-3870Y8072D02*
X-3662Y7617D01*
X-3256Y6703D02*
X-2801Y6910D01*
X-3463Y7158D02*
X-3008Y7365D01*
X-2801Y6910D01*
X-3463Y7158D02*
X-3256Y6703D01*
X-4063Y8528D02*
X-3612Y8743D01*
X-4279Y8979D02*
X-3827Y9195D01*
X-3612Y8743D01*
X-4279Y8979D02*
X-4063Y8528D01*
X-3152Y8907D02*
X-2680Y9070D01*
X-3315Y9380D02*
X-2842Y9543D01*
X-2680Y9070D01*
X-3315Y9380D02*
X-3152Y8907D01*
X-2843Y7956D02*
X-2371Y8119D01*
X-3006Y8429D02*
X-2533Y8592D01*
X-2371Y8119D01*
X-3006Y8429D02*
X-2843Y7956D01*
X-2537Y7007D02*
X-2063Y7165D01*
X-2696Y7481D02*
X-2222Y7640D01*
X-2063Y7165D01*
X-2696Y7481D02*
X-2537Y7007D01*
X-1791Y7234D02*
X-1303Y7342D01*
X-1899Y7722D02*
X-1411Y7830D01*
X-1303Y7342D01*
X-1899Y7722D02*
X-1791Y7234D01*
X-1999Y8212D02*
X-1511Y8320D01*
X-2107Y8700D02*
X-1619Y8808D01*
X-1511Y8320D01*
X-2107Y8700D02*
X-1999Y8212D01*
X-2207Y9190D02*
X-1719Y9298D01*
X-2315Y9678D02*
X-1827Y9786D01*
X-1719Y9298D01*
X-2315Y9678D02*
X-2207Y9190D01*
X-1367Y8196D02*
X-1234Y8219D01*
X-1331Y7979D02*
X-1198Y8002D01*
X-1367Y8196D02*
X-1331Y7979D01*
X-1234Y8219D02*
X-1198Y8002D01*
X-1523Y9185D02*
X-1390Y9206D01*
X-1489Y8968D02*
X-1355Y8989D01*
X-1523Y9185D02*
X-1489Y8968D01*
X-1390Y9206D02*
X-1355Y8989D01*
X-3481Y6992D02*
X-3381Y6795D01*
X-3610Y6926D02*
X-3511Y6730D01*
X-3381Y6795D01*
X-3610Y6926D02*
X-3481Y6992D01*
X-4389Y8774D02*
X-4289Y8578D01*
X-4518Y8708D02*
X-4418Y8512D01*
X-4289Y8578D01*
X-4518Y8708D02*
X-4389Y8774D01*
X-6511Y4314D02*
X-6326Y4195D01*
X-6590Y4193D02*
X-6405Y4073D01*
X-6326Y4195D01*
X-6590Y4193D02*
X-6511Y4314D01*
X-7328Y4891D02*
X-7144Y4770D01*
X-7407Y4770D02*
X-7224Y4649D01*
X-7144Y4770D01*
X-7407Y4770D02*
X-7328Y4891D01*
X-8188Y5404D02*
X-8003Y5284D01*
X-8267Y5282D02*
X-8082Y5162D01*
X-8003Y5284D01*
X-8267Y5282D02*
X-8188Y5404D01*
X-7795Y481D02*
X-7576Y469D01*
X-7803Y337D02*
X-7584Y324D01*
X-7576Y469D01*
X-7803Y337D02*
X-7795Y481D01*
X-8795Y532D02*
X-8575Y523D01*
X-8801Y387D02*
X-8581Y378D01*
X-8575Y523D01*
X-8801Y387D02*
X-8795Y532D01*
X-9790Y629D02*
X-9570Y616D01*
X-9798Y484D02*
X-9579Y471D01*
X-9570Y616D01*
X-9798Y484D02*
X-9790Y629D01*
X-7883Y-3935D02*
X-7687Y-3835D01*
X-7817Y-4064D02*
X-7621Y-3964D01*
X-7687Y-3835D02*
X-7621Y-3964D01*
X-7883Y-3935D02*
X-7817Y-4064D01*
X-8774Y-4390D02*
X-8579Y-4289D01*
X-8707Y-4519D02*
X-8512Y-4417D01*
X-8579Y-4289D02*
X-8512Y-4417D01*
X-8774Y-4390D02*
X-8707Y-4519D01*
X444Y-9799D02*
X579Y-9794D01*
X436Y-9579D02*
X571Y-9574D01*
X579Y-9794D01*
X436Y-9579D02*
X444Y-9799D01*
X392Y-8800D02*
X527Y-8796D01*
X384Y-8580D02*
X519Y-8576D01*
X527Y-8796D01*
X384Y-8580D02*
X392Y-8800D01*
X340Y-7802D02*
X475Y-7796D01*
X331Y-7583D02*
X466Y-7577D01*
X475Y-7796D01*
X331Y-7583D02*
X340Y-7802D01*
X6750Y0D02*
G03*
X6750Y0I-6750J0D01*
G01*
X-7435Y-530D02*
X-7383Y-1027D01*
X-7933Y-582D02*
X-7880Y-1080D01*
X-7933Y-582D02*
X-7435Y-530D01*
X-7880Y-1080D02*
X-7383Y-1027D01*
X-246Y7446D02*
X254Y7454D01*
X-254Y7946D02*
X246Y7954D01*
X254Y7454D01*
X-254Y7946D02*
X-246Y7446D01*
X528Y7438D02*
X1025Y7381D01*
X585Y7935D02*
X1082Y7878D01*
X1025Y7381D02*
X1082Y7878D01*
X528Y7438D02*
X585Y7935D01*
X1304Y7340D02*
X1792Y7235D01*
X1409Y7829D02*
X1898Y7723D01*
X1792Y7235D02*
X1898Y7723D01*
X1304Y7340D02*
X1409Y7829D01*
X2065Y7162D02*
X2541Y7009D01*
X2218Y7638D02*
X2694Y7484D01*
X2541Y7009D02*
X2694Y7484D01*
X2065Y7162D02*
X2218Y7638D01*
X2802Y6907D02*
X3259Y6705D01*
X3004Y7364D02*
X3462Y7162D01*
X3259Y6705D02*
X3462Y7162D01*
X2802Y6907D02*
X3004Y7364D01*
X4176Y6176D02*
X4579Y5880D01*
X4473Y6579D02*
X4875Y6283D01*
X4579Y5880D02*
X4875Y6283D01*
X4176Y6176D02*
X4473Y6579D01*
X4799Y5700D02*
X5175Y5369D01*
X5130Y6075D02*
X5505Y5745D01*
X5175Y5369D02*
X5505Y5745D01*
X4799Y5700D02*
X5130Y6075D01*
X5369Y5176D02*
X5698Y4800D01*
X5746Y5505D02*
X6075Y5128D01*
X5698Y4800D02*
X6075Y5128D01*
X5369Y5176D02*
X5746Y5505D01*
X5880Y4581D02*
X6175Y4177D01*
X6284Y4875D02*
X6579Y4471D01*
X6175Y4177D02*
X6579Y4471D01*
X5880Y4581D02*
X6284Y4875D01*
X6704Y3258D02*
X6908Y2802D01*
X7160Y3462D02*
X7365Y3006D01*
X6908Y2802D02*
X7365Y3006D01*
X6704Y3258D02*
X7160Y3462D01*
X7011Y2546D02*
X7157Y2067D01*
X7489Y2691D02*
X7635Y2213D01*
X7157Y2067D02*
X7635Y2213D01*
X7011Y2546D02*
X7489Y2691D01*
X7236Y1795D02*
X7338Y1305D01*
X7726Y1897D02*
X7827Y1407D01*
X7338Y1305D02*
X7827Y1407D01*
X7236Y1795D02*
X7726Y1897D01*
X7381Y1025D02*
X7438Y528D01*
X7878Y1082D02*
X7935Y585D01*
X7438Y528D02*
X7935Y585D01*
X7381Y1025D02*
X7878Y1082D01*
X-1025Y7381D02*
X-528Y7438D01*
X-1082Y7878D02*
X-585Y7935D01*
X-528Y7438D01*
X-1082Y7878D02*
X-1025Y7381D01*
X-246Y8446D02*
X254Y8454D01*
X-254Y8946D02*
X246Y8954D01*
X254Y8454D01*
X-254Y8946D02*
X-246Y8446D01*
X635Y8430D02*
X1132Y8378D01*
X687Y8927D02*
X1184Y8875D01*
X1132Y8378D02*
X1184Y8875D01*
X635Y8430D02*
X687Y8927D01*
X1512Y8317D02*
X2001Y8213D01*
X1616Y8806D02*
X2105Y8702D01*
X2001Y8213D02*
X2105Y8702D01*
X1512Y8317D02*
X1616Y8806D01*
X2376Y8108D02*
X2854Y7962D01*
X2522Y8586D02*
X3001Y8440D01*
X2854Y7962D02*
X3001Y8440D01*
X2376Y8108D02*
X2522Y8586D01*
X3211Y7815D02*
X3671Y7620D01*
X3406Y8276D02*
X3866Y8080D01*
X3671Y7620D02*
X3866Y8080D01*
X3211Y7815D02*
X3406Y8276D01*
X4765Y6983D02*
X5169Y6689D01*
X5058Y7388D02*
X5463Y7094D01*
X5169Y6689D02*
X5463Y7094D01*
X4765Y6983D02*
X5058Y7388D01*
X5468Y6447D02*
X5840Y6112D01*
X5803Y6818D02*
X6175Y6484D01*
X5840Y6112D02*
X6175Y6484D01*
X5468Y6447D02*
X5803Y6818D01*
X6112Y5834D02*
X6453Y5468D01*
X6478Y6175D02*
X6819Y5809D01*
X6453Y5468D02*
X6819Y5809D01*
X6112Y5834D02*
X6478Y6175D01*
X6689Y5166D02*
X6986Y4764D01*
X7091Y5463D02*
X7388Y5061D01*
X6986Y4764D02*
X7388Y5061D01*
X6689Y5166D02*
X7091Y5463D01*
X7193Y4442D02*
X7443Y4008D01*
X7626Y4692D02*
X7876Y4258D01*
X7443Y4008D02*
X7876Y4258D01*
X7193Y4442D02*
X7626Y4692D01*
X7617Y3662D02*
X7824Y3207D01*
X8072Y3870D02*
X8279Y3415D01*
X7824Y3207D02*
X8279Y3415D01*
X7617Y3662D02*
X8072Y3870D01*
X7958Y2846D02*
X8116Y2372D01*
X8432Y3005D02*
X8591Y2531D01*
X8116Y2372D02*
X8591Y2531D01*
X7958Y2846D02*
X8432Y3005D01*
X8217Y2007D02*
X8312Y1516D01*
X8708Y2102D02*
X8803Y1611D01*
X8312Y1516D02*
X8803Y1611D01*
X8217Y2007D02*
X8708Y2102D01*
X8378Y1132D02*
X8430Y635D01*
X8875Y1184D02*
X8927Y687D01*
X8430Y635D02*
X8927Y687D01*
X8378Y1132D02*
X8875Y1184D01*
X-1129Y8376D02*
X-633Y8432D01*
X-1186Y8872D02*
X-689Y8929D01*
X-633Y8432D01*
X-1186Y8872D02*
X-1129Y8376D01*
X-246Y9446D02*
X254Y9454D01*
X-254Y9946D02*
X246Y9954D01*
X254Y9454D01*
X-254Y9946D02*
X-246Y9446D01*
X739Y9424D02*
X1236Y9372D01*
X791Y9922D02*
X1289Y9869D01*
X1236Y9372D02*
X1289Y9869D01*
X739Y9424D02*
X791Y9922D01*
X1720Y9295D02*
X2209Y9192D01*
X1824Y9785D02*
X2313Y9681D01*
X2209Y9192D02*
X2313Y9681D01*
X1720Y9295D02*
X1824Y9785D01*
X3654Y8716D02*
X4112Y8515D01*
X3856Y9174D02*
X4313Y8972D01*
X4112Y8515D02*
X4313Y8972D01*
X3654Y8716D02*
X3856Y9174D01*
X5352Y7795D02*
X5754Y7498D01*
X5649Y8197D02*
X6051Y7900D01*
X5754Y7498D02*
X6051Y7900D01*
X5352Y7795D02*
X5649Y8197D01*
X6137Y7190D02*
X6509Y6855D01*
X6472Y7562D02*
X6844Y7227D01*
X6509Y6855D02*
X6844Y7227D01*
X6137Y7190D02*
X6472Y7562D01*
X6855Y6509D02*
X7190Y6137D01*
X7227Y6844D02*
X7562Y6472D01*
X7190Y6137D02*
X7562Y6472D01*
X6855Y6509D02*
X7227Y6844D01*
X7498Y5757D02*
X7792Y5352D01*
X7903Y6051D02*
X8197Y5646D01*
X7792Y5352D02*
X8197Y5646D01*
X7498Y5757D02*
X7903Y6051D01*
X8059Y4942D02*
X8309Y4508D01*
X8492Y5192D02*
X8742Y4758D01*
X8309Y4508D02*
X8742Y4758D01*
X8059Y4942D02*
X8492Y5192D01*
X8531Y4071D02*
X8735Y3615D01*
X8987Y4276D02*
X9192Y3819D01*
X8735Y3615D02*
X9192Y3819D01*
X8531Y4071D02*
X8987Y4276D01*
X8910Y3158D02*
X9065Y2682D01*
X9386Y3312D02*
X9540Y2837D01*
X9065Y2682D02*
X9540Y2837D01*
X8910Y3158D02*
X9386Y3312D01*
X9190Y2207D02*
X9298Y1719D01*
X9678Y2315D02*
X9786Y1827D01*
X9298Y1719D02*
X9786Y1827D01*
X9190Y2207D02*
X9678Y2315D01*
X9374Y1239D02*
X9422Y741D01*
X9872Y1287D02*
X9920Y789D01*
X9422Y741D02*
X9920Y789D01*
X9374Y1239D02*
X9872Y1287D01*
X-1234Y9370D02*
X-737Y9427D01*
X-1291Y9867D02*
X-794Y9924D01*
X-737Y9427D01*
X-1291Y9867D02*
X-1234Y9370D01*
X2684Y9062D02*
X3161Y8912D01*
X2834Y9539D02*
X3311Y9389D01*
X3161Y8912D02*
X3311Y9389D01*
X2684Y9062D02*
X2834Y9539D01*
X6328Y3945D02*
X6574Y3509D01*
X6763Y4191D02*
X7009Y3755D01*
X6574Y3509D02*
X7009Y3755D01*
X6328Y3945D02*
X6763Y4191D01*
X473Y7578D02*
X478Y7798D01*
X328Y7581D02*
X333Y7801D01*
X328Y7581D02*
X473Y7578D01*
X333Y7801D02*
X478Y7798D01*
X4197Y6326D02*
X4313Y6513D01*
X4074Y6402D02*
X4190Y6589D01*
X4074Y6402D02*
X4197Y6326D01*
X4190Y6589D02*
X4313Y6513D01*
X4740Y7165D02*
X4859Y7350D01*
X4618Y7243D02*
X4737Y7428D01*
X4618Y7243D02*
X4740Y7165D01*
X4737Y7428D02*
X4859Y7350D01*
X4509Y8306D02*
X4944Y8060D01*
X4756Y8741D02*
X5191Y8495D01*
X4944Y8060D02*
X5191Y8495D01*
X4509Y8306D02*
X4756Y8741D01*
X4010Y7437D02*
X4447Y7195D01*
X4253Y7874D02*
X4690Y7632D01*
X4447Y7195D02*
X4690Y7632D01*
X4010Y7437D02*
X4253Y7874D01*
X3509Y6574D02*
X3945Y6328D01*
X3755Y7009D02*
X4191Y6763D01*
X3945Y6328D02*
X4191Y6763D01*
X3509Y6574D02*
X3755Y7009D01*
X5283Y8003D02*
X5404Y8187D01*
X5162Y8083D02*
X5283Y8267D01*
X5162Y8083D02*
X5283Y8003D01*
X5283Y8267D02*
X5404Y8187D01*
X6796Y3381D02*
X6992Y3482D01*
X6730Y3510D02*
X6925Y3611D01*
X6730Y3510D02*
X6796Y3381D01*
X6925Y3611D02*
X6992Y3482D01*
X7688Y3835D02*
X7883Y3936D01*
X7621Y3963D02*
X7816Y4065D01*
X7621Y3963D02*
X7688Y3835D01*
X7816Y4065D02*
X7883Y3936D01*
X8578Y4289D02*
X8774Y4389D01*
X8512Y4418D02*
X8708Y4518D01*
X8512Y4418D02*
X8578Y4289D01*
X8708Y4518D02*
X8774Y4389D01*
X7575Y-469D02*
X7795Y-482D01*
X7584Y-324D02*
X7803Y-337D01*
X7575Y-469D02*
X7584Y-324D01*
X7795Y-482D02*
X7803Y-337D01*
X8574Y-522D02*
X8794Y-534D01*
X8582Y-377D02*
X8802Y-389D01*
X8574Y-522D02*
X8582Y-377D01*
X8794Y-534D02*
X8802Y-389D01*
X9574Y-575D02*
X9794Y-585D01*
X9580Y-431D02*
X9800Y-440D01*
X9574Y-575D02*
X9580Y-431D01*
X9794Y-585D02*
X9800Y-440D01*
X6326Y-4193D02*
X6509Y-4315D01*
X6406Y-4073D02*
X6590Y-4194D01*
X6326Y-4193D02*
X6406Y-4073D01*
X6509Y-4315D02*
X6590Y-4194D01*
X7165Y-4739D02*
X7349Y-4859D01*
X7244Y-4618D02*
X7428Y-4737D01*
X7165Y-4739D02*
X7244Y-4618D01*
X7349Y-4859D02*
X7428Y-4737D01*
X8003Y-5283D02*
X8187Y-5404D01*
X8083Y-5162D02*
X8267Y-5283D01*
X8003Y-5283D02*
X8083Y-5162D01*
X8187Y-5404D02*
X8267Y-5283D01*
X3381Y-6796D02*
X3482Y-6992D01*
X3510Y-6730D02*
X3611Y-6925D01*
X3381Y-6796D02*
X3510Y-6730D01*
X3482Y-6992D02*
X3611Y-6925D01*
X3835Y-7687D02*
X3936Y-7883D01*
X3964Y-7621D02*
X4065Y-7816D01*
X3835Y-7687D02*
X3964Y-7621D01*
X3936Y-7883D02*
X4065Y-7816D01*
X4289Y-8577D02*
X4389Y-8774D01*
X4419Y-8512D02*
X4518Y-8708D01*
X4289Y-8577D02*
X4419Y-8512D01*
X4389Y-8774D02*
X4518Y-8708D01*
X-481Y-7796D02*
X-470Y-7576D01*
X-336Y-7803D02*
X-325Y-7583D01*
X-470Y-7576D02*
X-325Y-7583D01*
X-481Y-7796D02*
X-336Y-7803D01*
X-533Y-8794D02*
X-522Y-8575D01*
X-388Y-8802D02*
X-377Y-8582D01*
X-522Y-8575D02*
X-377Y-8582D01*
X-533Y-8794D02*
X-388Y-8802D01*
X-585Y-9793D02*
X-575Y-9574D01*
X-440Y-9800D02*
X-430Y-9580D01*
X-575Y-9574D02*
X-430Y-9580D01*
X-585Y-9793D02*
X-440Y-9800D01*
X-4315Y-6509D02*
X-4193Y-6326D01*
X-4194Y-6590D02*
X-4072Y-6406D01*
X-4193Y-6326D02*
X-4072Y-6406D01*
X-4315Y-6509D02*
X-4194Y-6590D01*
X-4859Y-7349D02*
X-4739Y-7165D01*
X-4738Y-7428D02*
X-4618Y-7244D01*
X-4739Y-7165D02*
X-4618Y-7244D01*
X-4859Y-7349D02*
X-4738Y-7428D01*
X-5404Y-8188D02*
X-5284Y-8003D01*
X-5282Y-8267D02*
X-5162Y-8082D01*
X-5284Y-8003D02*
X-5162Y-8082D01*
X-5404Y-8188D02*
X-5282Y-8267D01*
X-6992Y-3481D02*
X-6796Y-3381D01*
X-6926Y-3610D02*
X-6730Y-3510D01*
X-6796Y-3381D02*
X-6730Y-3510D01*
X-6992Y-3481D02*
X-6926Y-3610D01*
X525Y8576D02*
X531Y8796D01*
X380Y8580D02*
X386Y8800D01*
X380Y8580D02*
X525Y8576D01*
X386Y8800D02*
X531Y8796D01*
X576Y9574D02*
X584Y9794D01*
X431Y9580D02*
X439Y9799D01*
X431Y9580D02*
X576Y9574D01*
X439Y9799D02*
X584Y9794D01*
X-3942Y7883D02*
X-3832Y7692D01*
X-4067Y7811D02*
X-3958Y7620D01*
X-3832Y7692D01*
X-4067Y7811D02*
X-3942Y7883D01*
X-9800Y-445D02*
X-9793Y-580D01*
X-9580Y-435D02*
X-9574Y-570D01*
X-9793Y-580D02*
X-9574Y-570D01*
X-9800Y-445D02*
X-9580Y-435D01*
X9793Y581D02*
X9800Y446D01*
X9573Y569D02*
X9580Y434D01*
X9573Y569D02*
X9793Y581D01*
X9580Y434D02*
X9800Y446D01*
X-543Y9074D02*
X-408Y9081D01*
X-555Y9294D02*
X-420Y9301D01*
X-408Y9081D01*
X-555Y9294D02*
X-543Y9074D01*
X-8801Y-393D02*
X-8795Y-528D01*
X-8581Y-383D02*
X-8575Y-518D01*
X-8795Y-528D02*
X-8575Y-518D01*
X-8801Y-393D02*
X-8581Y-383D01*
X8795Y527D02*
X8801Y393D01*
X8575Y518D02*
X8581Y383D01*
X8575Y518D02*
X8795Y527D01*
X8581Y383D02*
X8801Y393D01*
X-491Y8075D02*
X-356Y8082D01*
X-502Y8295D02*
X-368Y8302D01*
X-356Y8082D01*
X-502Y8295D02*
X-491Y8075D01*
X-7803Y-342D02*
X-7796Y-476D01*
X-7583Y-329D02*
X-7576Y-464D01*
X-7796Y-476D02*
X-7576Y-464D01*
X-7803Y-342D02*
X-7583Y-329D01*
X7797Y475D02*
X7802Y340D01*
X7577Y466D02*
X7582Y331D01*
X7577Y466D02*
X7797Y475D01*
X7582Y331D02*
X7802Y340D01*
X7448Y248D02*
X7452Y-252D01*
X7948Y252D02*
X7952Y-248D01*
X7452Y-252D02*
X7952Y-248D01*
X7448Y248D02*
X7948Y252D01*
X8448Y-248D02*
X8452Y252D01*
X8948Y-252D02*
X8952Y248D01*
X8448Y-248D02*
X8948Y-252D01*
X8452Y252D02*
X8952Y248D01*
X9450Y250D02*
X9450Y-250D01*
X9950Y250D02*
X9950Y-250D01*
X9450Y-250D02*
X9950Y-250D01*
X9450Y250D02*
X9950Y250D01*
X9370Y-1234D02*
X9427Y-737D01*
X9867Y-1291D02*
X9924Y-794D01*
X9370Y-1234D02*
X9867Y-1291D01*
X9427Y-737D02*
X9924Y-794D01*
X8374Y-1127D02*
X8435Y-631D01*
X8870Y-1188D02*
X8931Y-692D01*
X8374Y-1127D02*
X8870Y-1188D01*
X8435Y-631D02*
X8931Y-692D01*
X7381Y-1025D02*
X7438Y-528D01*
X7878Y-1082D02*
X7935Y-585D01*
X7381Y-1025D02*
X7878Y-1082D01*
X7438Y-528D02*
X7935Y-585D01*
X7235Y-1793D02*
X7339Y-1304D01*
X7724Y-1897D02*
X7828Y-1408D01*
X7235Y-1793D02*
X7724Y-1897D01*
X7339Y-1304D02*
X7828Y-1408D01*
X7008Y-2540D02*
X7163Y-2064D01*
X7484Y-2694D02*
X7638Y-2219D01*
X7008Y-2540D02*
X7484Y-2694D01*
X7163Y-2064D02*
X7638Y-2219D01*
X7959Y-2849D02*
X8114Y-2373D01*
X8435Y-3003D02*
X8589Y-2528D01*
X7959Y-2849D02*
X8435Y-3003D01*
X8114Y-2373D02*
X8589Y-2528D01*
X8910Y-3158D02*
X9065Y-2682D01*
X9386Y-3312D02*
X9540Y-2837D01*
X8910Y-3158D02*
X9386Y-3312D01*
X9065Y-2682D02*
X9540Y-2837D01*
X9192Y-2209D02*
X9295Y-1720D01*
X9681Y-2313D02*
X9785Y-1824D01*
X9192Y-2209D02*
X9681Y-2313D01*
X9295Y-1720D02*
X9785Y-1824D01*
X8213Y-2001D02*
X8317Y-1512D01*
X8702Y-2105D02*
X8806Y-1616D01*
X8213Y-2001D02*
X8702Y-2105D01*
X8317Y-1512D02*
X8806Y-1616D01*
X8531Y-4072D02*
X8735Y-3615D01*
X8988Y-4275D02*
X9191Y-3819D01*
X8531Y-4072D02*
X8988Y-4275D01*
X8735Y-3615D02*
X9191Y-3819D01*
X7617Y-3664D02*
X7823Y-3208D01*
X8073Y-3869D02*
X8278Y-3413D01*
X7617Y-3664D02*
X8073Y-3869D01*
X7823Y-3208D02*
X8278Y-3413D01*
X6702Y-3253D02*
X6913Y-2800D01*
X7155Y-3464D02*
X7367Y-3011D01*
X6702Y-3253D02*
X7155Y-3464D01*
X6913Y-2800D02*
X7367Y-3011D01*
X6325Y-3936D02*
X6583Y-3507D01*
X6754Y-4193D02*
X7011Y-3764D01*
X6325Y-3936D02*
X6754Y-4193D01*
X6583Y-3507D02*
X7011Y-3764D01*
X7192Y-4439D02*
X7446Y-4008D01*
X7623Y-4692D02*
X7877Y-4261D01*
X7192Y-4439D02*
X7623Y-4692D01*
X7446Y-4008D02*
X7877Y-4261D01*
X8058Y-4939D02*
X8312Y-4508D01*
X8489Y-5192D02*
X8743Y-4761D01*
X8058Y-4939D02*
X8489Y-5192D01*
X8312Y-4508D02*
X8743Y-4761D01*
X6688Y-5163D02*
X6989Y-4764D01*
X7088Y-5464D02*
X7389Y-5065D01*
X6688Y-5163D02*
X7088Y-5464D01*
X6989Y-4764D02*
X7389Y-5065D01*
X7498Y-5757D02*
X7792Y-5352D01*
X7903Y-6051D02*
X8197Y-5646D01*
X7498Y-5757D02*
X7903Y-6051D01*
X7792Y-5352D02*
X8197Y-5646D01*
X5880Y-4578D02*
X6177Y-4176D01*
X6282Y-4876D02*
X6579Y-4474D01*
X5880Y-4578D02*
X6282Y-4876D01*
X6177Y-4176D02*
X6579Y-4474D01*
X6855Y-6509D02*
X7190Y-6137D01*
X7227Y-6844D02*
X7562Y-6472D01*
X6855Y-6509D02*
X7227Y-6844D01*
X7190Y-6137D02*
X7562Y-6472D01*
X6112Y-5840D02*
X6447Y-5468D01*
X6484Y-6175D02*
X6818Y-5803D01*
X6112Y-5840D02*
X6484Y-6175D01*
X6447Y-5468D02*
X6818Y-5803D01*
X5369Y-5171D02*
X5704Y-4799D01*
X5741Y-5505D02*
X6075Y-5134D01*
X5369Y-5171D02*
X5741Y-5505D01*
X5704Y-4799D02*
X6075Y-5134D01*
X6138Y-7187D02*
X6512Y-6856D01*
X6469Y-7561D02*
X6843Y-7230D01*
X6138Y-7187D02*
X6469Y-7561D01*
X6512Y-6856D02*
X6843Y-7230D01*
X5469Y-6444D02*
X5843Y-6112D01*
X5800Y-6818D02*
X6174Y-6487D01*
X5469Y-6444D02*
X5800Y-6818D01*
X5843Y-6112D02*
X6174Y-6487D01*
X4799Y-5701D02*
X5174Y-5369D01*
X5131Y-6075D02*
X5505Y-5744D01*
X4799Y-5701D02*
X5131Y-6075D01*
X5174Y-5369D02*
X5505Y-5744D01*
X5352Y-7792D02*
X5757Y-7498D01*
X5646Y-8197D02*
X6051Y-7903D01*
X5352Y-7792D02*
X5646Y-8197D01*
X5757Y-7498D02*
X6051Y-7903D01*
X4766Y-6977D02*
X5175Y-6690D01*
X5052Y-7387D02*
X5462Y-7100D01*
X4766Y-6977D02*
X5052Y-7387D01*
X5175Y-6690D02*
X5462Y-7100D01*
X4178Y-6165D02*
X4590Y-5882D01*
X4462Y-6577D02*
X4874Y-6294D01*
X4178Y-6165D02*
X4462Y-6577D01*
X4590Y-5882D02*
X4874Y-6294D01*
X4508Y-8310D02*
X4940Y-8059D01*
X4760Y-8742D02*
X5192Y-8491D01*
X4508Y-8310D02*
X4760Y-8742D01*
X4940Y-8059D02*
X5192Y-8491D01*
X4009Y-7440D02*
X4445Y-7194D01*
X4255Y-7875D02*
X4691Y-7629D01*
X4009Y-7440D02*
X4255Y-7875D01*
X4445Y-7194D02*
X4691Y-7629D01*
X3510Y-6571D02*
X3947Y-6329D01*
X3753Y-7008D02*
X4190Y-6766D01*
X3510Y-6571D02*
X3753Y-7008D01*
X3947Y-6329D02*
X4190Y-6766D01*
X3616Y-8732D02*
X4075Y-8532D01*
X3816Y-9190D02*
X4274Y-8991D01*
X3616Y-8732D02*
X3816Y-9190D01*
X4075Y-8532D02*
X4274Y-8991D01*
X3211Y-7815D02*
X3671Y-7620D01*
X3406Y-8276D02*
X3866Y-8080D01*
X3211Y-7815D02*
X3406Y-8276D01*
X3671Y-7620D02*
X3866Y-8080D01*
X2802Y-6908D02*
X3259Y-6704D01*
X3005Y-7364D02*
X3462Y-7161D01*
X2802Y-6908D02*
X3005Y-7364D01*
X3259Y-6704D02*
X3462Y-7161D01*
X2685Y-9059D02*
X3163Y-8913D01*
X2831Y-9537D02*
X3310Y-9391D01*
X2685Y-9059D02*
X2831Y-9537D01*
X3163Y-8913D02*
X3310Y-9391D01*
X2373Y-8114D02*
X2849Y-7959D01*
X2528Y-8589D02*
X3003Y-8435D01*
X2373Y-8114D02*
X2528Y-8589D01*
X2849Y-7959D02*
X3003Y-8435D01*
X2066Y-7160D02*
X2543Y-7010D01*
X2216Y-7637D02*
X2693Y-7486D01*
X2066Y-7160D02*
X2216Y-7637D01*
X2543Y-7010D02*
X2693Y-7486D01*
X1722Y-9293D02*
X2212Y-9193D01*
X1822Y-9783D02*
X2312Y-9683D01*
X1722Y-9293D02*
X1822Y-9783D01*
X2212Y-9193D02*
X2312Y-9683D01*
X1517Y-8310D02*
X2009Y-8219D01*
X1609Y-8801D02*
X2100Y-8710D01*
X1517Y-8310D02*
X1609Y-8801D01*
X2009Y-8219D02*
X2100Y-8710D01*
X1306Y-7337D02*
X1796Y-7237D01*
X1406Y-7827D02*
X1896Y-7727D01*
X1306Y-7337D02*
X1406Y-7827D01*
X1796Y-7237D02*
X1896Y-7727D01*
X739Y-9424D02*
X1236Y-9372D01*
X791Y-9922D02*
X1289Y-9869D01*
X739Y-9424D02*
X791Y-9922D01*
X1236Y-9372D02*
X1289Y-9869D01*
X-250Y-9450D02*
X250Y-9450D01*
X-250Y-9950D02*
X250Y-9950D01*
X-250Y-9450D02*
X-250Y-9950D01*
X250Y-9450D02*
X250Y-9950D01*
X-1238Y-9373D02*
X-740Y-9423D01*
X-1288Y-9871D02*
X-790Y-9921D01*
X-1288Y-9871D02*
X-1238Y-9373D01*
X-790Y-9921D02*
X-740Y-9423D01*
X-2209Y-9192D02*
X-1720Y-9295D01*
X-2313Y-9681D02*
X-1824Y-9785D01*
X-2313Y-9681D02*
X-2209Y-9192D01*
X-1824Y-9785D02*
X-1720Y-9295D01*
X-3158Y-8910D02*
X-2682Y-9065D01*
X-3312Y-9386D02*
X-2837Y-9540D01*
X-3312Y-9386D02*
X-3158Y-8910D01*
X-2837Y-9540D02*
X-2682Y-9065D01*
X643Y-8420D02*
X1141Y-8386D01*
X677Y-8919D02*
X1176Y-8884D01*
X643Y-8420D02*
X677Y-8919D01*
X1141Y-8386D02*
X1176Y-8884D01*
X-250Y-8450D02*
X250Y-8450D01*
X-250Y-8950D02*
X250Y-8950D01*
X-250Y-8450D02*
X-250Y-8950D01*
X250Y-8950D02*
X250Y-8450D01*
X530Y-7435D02*
X1027Y-7383D01*
X582Y-7933D02*
X1080Y-7880D01*
X530Y-7435D02*
X582Y-7933D01*
X1027Y-7383D02*
X1080Y-7880D01*
X-248Y-7448D02*
X252Y-7452D01*
X-252Y-7948D02*
X248Y-7952D01*
X-252Y-7948D02*
X-248Y-7448D01*
X248Y-7952D02*
X252Y-7452D01*
X-1030Y-7385D02*
X-532Y-7433D01*
X-1078Y-7883D02*
X-580Y-7931D01*
X-1078Y-7883D02*
X-1030Y-7385D01*
X-580Y-7931D02*
X-532Y-7433D01*
X-1132Y-8378D02*
X-635Y-8430D01*
X-1184Y-8875D02*
X-687Y-8927D01*
X-1184Y-8875D02*
X-1132Y-8378D01*
X-687Y-8927D02*
X-635Y-8430D01*
X-2001Y-8213D02*
X-1512Y-8317D01*
X-2105Y-8702D02*
X-1616Y-8806D01*
X-2105Y-8702D02*
X-2001Y-8213D01*
X-1616Y-8806D02*
X-1512Y-8317D01*
X-1793Y-7235D02*
X-1304Y-7339D01*
X-1897Y-7724D02*
X-1408Y-7828D01*
X-1897Y-7724D02*
X-1793Y-7235D01*
X-1408Y-7828D02*
X-1304Y-7339D01*
X-2852Y-7961D02*
X-2375Y-8111D01*
X-3002Y-8437D02*
X-2525Y-8588D01*
X-3002Y-8437D02*
X-2852Y-7961D01*
X-2525Y-8588D02*
X-2375Y-8111D01*
X-2537Y-7007D02*
X-2063Y-7165D01*
X-2696Y-7481D02*
X-2222Y-7640D01*
X-2696Y-7481D02*
X-2537Y-7007D01*
X-2222Y-7640D02*
X-2063Y-7165D01*
X-4075Y-8532D02*
X-3616Y-8732D01*
X-4274Y-8991D02*
X-3816Y-9190D01*
X-4274Y-8991D02*
X-4075Y-8532D01*
X-3816Y-9190D02*
X-3616Y-8732D01*
X-3671Y-7620D02*
X-3211Y-7815D01*
X-3866Y-8080D02*
X-3406Y-8276D01*
X-3866Y-8080D02*
X-3671Y-7620D01*
X-3406Y-8276D02*
X-3211Y-7815D01*
X-3261Y-6705D02*
X-2803Y-6905D01*
X-3461Y-7164D02*
X-3002Y-7363D01*
X-3461Y-7164D02*
X-3261Y-6705D01*
X-3002Y-7363D02*
X-2803Y-6905D01*
X-3939Y-6326D02*
X-3508Y-6580D01*
X-4192Y-6757D02*
X-3761Y-7011D01*
X-4192Y-6757D02*
X-3939Y-6326D01*
X-3761Y-7011D02*
X-3508Y-6580D01*
X-4442Y-7193D02*
X-4008Y-7443D01*
X-4692Y-7626D02*
X-4258Y-7876D01*
X-4692Y-7626D02*
X-4442Y-7193D01*
X-4258Y-7876D02*
X-4008Y-7443D01*
X-4947Y-8061D02*
X-4510Y-8303D01*
X-5190Y-8498D02*
X-4753Y-8740D01*
X-5190Y-8498D02*
X-4947Y-8061D01*
X-4753Y-8740D02*
X-4510Y-8303D01*
X-5760Y-7499D02*
X-5353Y-7789D01*
X-6050Y-7906D02*
X-5643Y-8196D01*
X-6050Y-7906D02*
X-5760Y-7499D01*
X-5643Y-8196D02*
X-5353Y-7789D01*
X-5166Y-6689D02*
X-4764Y-6986D01*
X-5463Y-7091D02*
X-5061Y-7388D01*
X-5463Y-7091D02*
X-5166Y-6689D01*
X-5061Y-7388D02*
X-4764Y-6986D01*
X-4584Y-5881D02*
X-4177Y-6171D01*
X-4875Y-6288D02*
X-4468Y-6578D01*
X-4875Y-6288D02*
X-4584Y-5881D01*
X-4468Y-6578D02*
X-4177Y-6171D01*
X-5168Y-5369D02*
X-4799Y-5707D01*
X-5506Y-5738D02*
X-5137Y-6075D01*
X-5506Y-5738D02*
X-5168Y-5369D01*
X-5137Y-6075D02*
X-4799Y-5707D01*
X-5843Y-6112D02*
X-5469Y-6444D01*
X-6174Y-6487D02*
X-5800Y-6818D01*
X-6174Y-6487D02*
X-5843Y-6112D01*
X-5800Y-6818D02*
X-5469Y-6444D01*
X-6509Y-6855D02*
X-6137Y-7190D01*
X-6844Y-7227D02*
X-6472Y-7562D01*
X-6844Y-7227D02*
X-6509Y-6855D01*
X-6472Y-7562D02*
X-6137Y-7190D01*
X-7190Y-6137D02*
X-6855Y-6509D01*
X-7562Y-6472D02*
X-7227Y-6844D01*
X-7562Y-6472D02*
X-7190Y-6137D01*
X-7227Y-6844D02*
X-6855Y-6509D01*
X-6450Y-5468D02*
X-6112Y-5837D01*
X-6819Y-5806D02*
X-6481Y-6175D01*
X-6819Y-5806D02*
X-6450Y-5468D01*
X-6481Y-6175D02*
X-6112Y-5837D01*
X-5707Y-4799D02*
X-5369Y-5168D01*
X-6075Y-5137D02*
X-5738Y-5506D01*
X-6075Y-5137D02*
X-5707Y-4799D01*
X-5738Y-5506D02*
X-5369Y-5168D01*
X-7789Y-5353D02*
X-7499Y-5760D01*
X-8196Y-5643D02*
X-7906Y-6050D01*
X-8196Y-5643D02*
X-7789Y-5353D01*
X-7906Y-6050D02*
X-7499Y-5760D01*
X-6983Y-4765D02*
X-6689Y-5169D01*
X-7388Y-5058D02*
X-7094Y-5463D01*
X-7388Y-5058D02*
X-6983Y-4765D01*
X-7094Y-5463D02*
X-6689Y-5169D01*
X-6179Y-4176D02*
X-5880Y-4577D01*
X-6579Y-4475D02*
X-6280Y-4876D01*
X-6579Y-4475D02*
X-6179Y-4176D01*
X-6280Y-4876D02*
X-5880Y-4577D01*
X-8312Y-4508D02*
X-8058Y-4939D01*
X-8743Y-4761D02*
X-8489Y-5192D01*
X-8743Y-4761D02*
X-8312Y-4508D01*
X-8489Y-5192D02*
X-8058Y-4939D01*
X-7446Y-4008D02*
X-7192Y-4439D01*
X-7877Y-4261D02*
X-7623Y-4692D01*
X-7877Y-4261D02*
X-7446Y-4008D01*
X-7623Y-4692D02*
X-7192Y-4439D01*
X-6577Y-3508D02*
X-6327Y-3942D01*
X-7010Y-3758D02*
X-6760Y-4192D01*
X-7010Y-3758D02*
X-6577Y-3508D01*
X-6760Y-4192D02*
X-6327Y-3942D01*
X-6908Y-2802D02*
X-6704Y-3259D01*
X-7364Y-3005D02*
X-7161Y-3462D01*
X-7364Y-3005D02*
X-6908Y-2802D01*
X-7161Y-3462D02*
X-6704Y-3259D01*
X-7815Y-3211D02*
X-7620Y-3671D01*
X-8276Y-3406D02*
X-8080Y-3866D01*
X-8276Y-3406D02*
X-7815Y-3211D01*
X-8080Y-3866D02*
X-7620Y-3671D01*
X-8732Y-3616D02*
X-8532Y-4075D01*
X-9190Y-3816D02*
X-8991Y-4274D01*
X-9190Y-3816D02*
X-8732Y-3616D01*
X-8991Y-4274D02*
X-8532Y-4075D01*
X-9065Y-2682D02*
X-8910Y-3158D01*
X-9540Y-2837D02*
X-9386Y-3312D01*
X-9540Y-2837D02*
X-9065Y-2682D01*
X-9386Y-3312D02*
X-8910Y-3158D01*
X-8116Y-2372D02*
X-7958Y-2846D01*
X-8591Y-2531D02*
X-8432Y-3005D01*
X-8591Y-2531D02*
X-8116Y-2372D01*
X-8432Y-3005D02*
X-7958Y-2846D01*
X-7165Y-2063D02*
X-7007Y-2537D01*
X-7640Y-2222D02*
X-7481Y-2696D01*
X-7640Y-2222D02*
X-7165Y-2063D01*
X-7481Y-2696D02*
X-7007Y-2537D01*
X-7337Y-1306D02*
X-7237Y-1796D01*
X-7827Y-1406D02*
X-7727Y-1896D01*
X-7827Y-1406D02*
X-7337Y-1306D01*
X-7727Y-1896D02*
X-7237Y-1796D01*
X-8317Y-1512D02*
X-8213Y-2001D01*
X-8806Y-1616D02*
X-8702Y-2105D01*
X-8806Y-1616D02*
X-8317Y-1512D01*
X-8702Y-2105D02*
X-8213Y-2001D01*
X-9298Y-1719D02*
X-9190Y-2207D01*
X-9786Y-1827D02*
X-9678Y-2315D01*
X-9786Y-1827D02*
X-9298Y-1719D01*
X-9678Y-2315D02*
X-9190Y-2207D01*
X-9424Y-739D02*
X-9372Y-1236D01*
X-9922Y-791D02*
X-9869Y-1289D01*
X-9922Y-791D02*
X-9424Y-739D01*
X-9869Y-1289D02*
X-9372Y-1236D01*
X-8432Y-633D02*
X-8376Y-1129D01*
X-8929Y-689D02*
X-8872Y-1186D01*
X-8929Y-689D02*
X-8432Y-633D01*
X-8872Y-1186D02*
X-8376Y-1129D01*
X-7454Y-254D02*
X-7446Y246D01*
X-7954Y-246D02*
X-7946Y254D01*
X-7446Y246D01*
X-7954Y-246D02*
X-7454Y-254D01*
X-8450Y250D02*
X-8450Y-250D01*
X-8950Y250D02*
X-8950Y-250D01*
X-8950Y250D02*
X-8450Y250D01*
X-8950Y-250D02*
X-8450Y-250D01*
X-9450Y250D02*
X-9450Y-250D01*
X-9950Y250D02*
X-9950Y-250D01*
X-9950Y250D02*
X-9450Y250D01*
X-9950Y-250D02*
X-9450Y-250D01*
X-9432Y733D02*
X-9366Y1229D01*
X-9927Y799D02*
X-9862Y1294D01*
X-9366Y1229D01*
X-9927Y799D02*
X-9432Y733D01*
X-8430Y635D02*
X-8378Y1132D01*
X-8927Y687D02*
X-8875Y1184D01*
X-8378Y1132D01*
X-8927Y687D02*
X-8430Y635D01*
X-7438Y528D02*
X-7381Y1025D01*
X-7935Y585D02*
X-7878Y1082D01*
X-7381Y1025D01*
X-7935Y585D02*
X-7438Y528D01*
X-7344Y1301D02*
X-7232Y1788D01*
X-7832Y1414D02*
X-7719Y1901D01*
X-7232Y1788D01*
X-7832Y1414D02*
X-7344Y1301D01*
X-8317Y1512D02*
X-8213Y2001D01*
X-8806Y1616D02*
X-8702Y2105D01*
X-8213Y2001D01*
X-8806Y1616D02*
X-8317Y1512D01*
X-9295Y1720D02*
X-9192Y2209D01*
X-9785Y1824D02*
X-9681Y2313D01*
X-9192Y2209D01*
X-9785Y1824D02*
X-9295Y1720D01*
X-9065Y2682D02*
X-8910Y3158D01*
X-9540Y2837D02*
X-9386Y3312D01*
X-8910Y3158D01*
X-9540Y2837D02*
X-9065Y2682D01*
X-8119Y2371D02*
X-7956Y2843D01*
X-8592Y2533D02*
X-8429Y3006D01*
X-7956Y2843D01*
X-8592Y2533D02*
X-8119Y2371D01*
X-7171Y2060D02*
X-7004Y2532D01*
X-7642Y2227D02*
X-7475Y2699D01*
X-7004Y2532D01*
X-7642Y2227D02*
X-7171Y2060D01*
X-6916Y2799D02*
X-6701Y3250D01*
X-7368Y3014D02*
X-7152Y3465D01*
X-6701Y3250D01*
X-7368Y3014D02*
X-6916Y2799D01*
X-7821Y3209D02*
X-7618Y3665D01*
X-8278Y3412D02*
X-8075Y3869D01*
X-7618Y3665D01*
X-8278Y3412D02*
X-7821Y3209D01*
X-8738Y3614D02*
X-8530Y4069D01*
X-9193Y3822D02*
X-8985Y4277D01*
X-8530Y4069D01*
X-9193Y3822D02*
X-8738Y3614D01*
X-6586Y3506D02*
X-6325Y3933D01*
X-7012Y3767D02*
X-6751Y4194D01*
X-6325Y3933D01*
X-7012Y3767D02*
X-6586Y3506D01*
X-7469Y4061D02*
X-7215Y4492D01*
X-7899Y4315D02*
X-7646Y4745D01*
X-7215Y4492D01*
X-7899Y4315D02*
X-7469Y4061D01*
X-8309Y4508D02*
X-8059Y4942D01*
X-8742Y4758D02*
X-8492Y5192D01*
X-8059Y4942D01*
X-8742Y4758D02*
X-8309Y4508D01*
X-7792Y5352D02*
X-7498Y5757D01*
X-8197Y5646D02*
X-7903Y6051D01*
X-7498Y5757D01*
X-8197Y5646D02*
X-7792Y5352D01*
X-6983Y4765D02*
X-6689Y5169D01*
X-7388Y5058D02*
X-7094Y5463D01*
X-6689Y5169D01*
X-7388Y5058D02*
X-6983Y4765D01*
X-6174Y4177D02*
X-5880Y4581D01*
X-6579Y4471D02*
X-6285Y4875D01*
X-5880Y4581D01*
X-6579Y4471D02*
X-6174Y4177D01*
X-5710Y4799D02*
X-5369Y5165D01*
X-6076Y5140D02*
X-5735Y5506D01*
X-5369Y5165D01*
X-6076Y5140D02*
X-5710Y4799D01*
X-6450Y5468D02*
X-6112Y5837D01*
X-6819Y5806D02*
X-6481Y6175D01*
X-6112Y5837D01*
X-6819Y5806D02*
X-6450Y5468D01*
X-7190Y6137D02*
X-6855Y6509D01*
X-7562Y6472D02*
X-7227Y6844D01*
X-6855Y6509D01*
X-7562Y6472D02*
X-7190Y6137D01*
X-5155Y5369D02*
X-4799Y5719D01*
X-5506Y5725D02*
X-5149Y6076D01*
X-4799Y5719D01*
X-5506Y5725D02*
X-5155Y5369D01*
X-4581Y5880D02*
X-4177Y6174D01*
X-4875Y6285D02*
X-4471Y6579D01*
X-4177Y6174D01*
X-4875Y6285D02*
X-4581Y5880D01*
X-5831Y6112D02*
X-5468Y6456D01*
X-6175Y6475D02*
X-5812Y6819D01*
X-5468Y6456D01*
X-6175Y6475D02*
X-5831Y6112D01*
X-6500Y6855D02*
X-6137Y7199D01*
X-6844Y7218D02*
X-6481Y7562D01*
X-6137Y7199D01*
X-6844Y7218D02*
X-6500Y6855D01*
X-5757Y7498D02*
X-5352Y7792D01*
X-6051Y7903D02*
X-5646Y8197D01*
X-5352Y7792D01*
X-6051Y7903D02*
X-5757Y7498D01*
X-5163Y6688D02*
X-4764Y6989D01*
X-5464Y7088D02*
X-5065Y7389D01*
X-4764Y6989D01*
X-5464Y7088D02*
X-5163Y6688D01*
X-3933Y6325D02*
X-3506Y6586D01*
X-4194Y6751D02*
X-3767Y7012D01*
X-3506Y6586D01*
X-4194Y6751D02*
X-3933Y6325D01*
X-4436Y7191D02*
X-4007Y7449D01*
X-4693Y7620D02*
X-4264Y7877D01*
X-4007Y7449D01*
X-4693Y7620D02*
X-4436Y7191D01*
X-4936Y8057D02*
X-4507Y8315D01*
X-5193Y8486D02*
X-4764Y8743D01*
X-4507Y8315D01*
X-5193Y8486D02*
X-4936Y8057D01*
X-3662Y7617D02*
X-3207Y7824D01*
X-3870Y8072D02*
X-3415Y8279D01*
X-3207Y7824D01*
X-3870Y8072D02*
X-3662Y7617D01*
X-3256Y6703D02*
X-2801Y6910D01*
X-3463Y7158D02*
X-3008Y7365D01*
X-2801Y6910D01*
X-3463Y7158D02*
X-3256Y6703D01*
X-4063Y8528D02*
X-3612Y8743D01*
X-4279Y8979D02*
X-3827Y9195D01*
X-3612Y8743D01*
X-4279Y8979D02*
X-4063Y8528D01*
X-3152Y8907D02*
X-2680Y9070D01*
X-3315Y9380D02*
X-2842Y9543D01*
X-2680Y9070D01*
X-3315Y9380D02*
X-3152Y8907D01*
X-2843Y7956D02*
X-2371Y8119D01*
X-3006Y8429D02*
X-2533Y8592D01*
X-2371Y8119D01*
X-3006Y8429D02*
X-2843Y7956D01*
X-2537Y7007D02*
X-2063Y7165D01*
X-2696Y7481D02*
X-2222Y7640D01*
X-2063Y7165D01*
X-2696Y7481D02*
X-2537Y7007D01*
X-1791Y7234D02*
X-1303Y7342D01*
X-1899Y7722D02*
X-1411Y7830D01*
X-1303Y7342D01*
X-1899Y7722D02*
X-1791Y7234D01*
X-1999Y8212D02*
X-1511Y8320D01*
X-2107Y8700D02*
X-1619Y8808D01*
X-1511Y8320D01*
X-2107Y8700D02*
X-1999Y8212D01*
X-2207Y9190D02*
X-1719Y9298D01*
X-2315Y9678D02*
X-1827Y9786D01*
X-1719Y9298D01*
X-2315Y9678D02*
X-2207Y9190D01*
X-1367Y8196D02*
X-1234Y8219D01*
X-1331Y7979D02*
X-1198Y8002D01*
X-1367Y8196D02*
X-1331Y7979D01*
X-1234Y8219D02*
X-1198Y8002D01*
X-1523Y9185D02*
X-1390Y9206D01*
X-1489Y8968D02*
X-1355Y8989D01*
X-1523Y9185D02*
X-1489Y8968D01*
X-1390Y9206D02*
X-1355Y8989D01*
X-3481Y6992D02*
X-3381Y6795D01*
X-3610Y6926D02*
X-3511Y6730D01*
X-3381Y6795D01*
X-3610Y6926D02*
X-3481Y6992D01*
X-4389Y8774D02*
X-4289Y8578D01*
X-4518Y8708D02*
X-4418Y8512D01*
X-4289Y8578D01*
X-4518Y8708D02*
X-4389Y8774D01*
X-6511Y4314D02*
X-6326Y4195D01*
X-6590Y4193D02*
X-6405Y4073D01*
X-6326Y4195D01*
X-6590Y4193D02*
X-6511Y4314D01*
X-7328Y4891D02*
X-7144Y4770D01*
X-7407Y4770D02*
X-7224Y4649D01*
X-7144Y4770D01*
X-7407Y4770D02*
X-7328Y4891D01*
X-8188Y5404D02*
X-8003Y5284D01*
X-8267Y5282D02*
X-8082Y5162D01*
X-8003Y5284D01*
X-8267Y5282D02*
X-8188Y5404D01*
X-7795Y481D02*
X-7576Y469D01*
X-7803Y337D02*
X-7584Y324D01*
X-7576Y469D01*
X-7803Y337D02*
X-7795Y481D01*
X-8795Y532D02*
X-8575Y523D01*
X-8801Y387D02*
X-8581Y378D01*
X-8575Y523D01*
X-8801Y387D02*
X-8795Y532D01*
X-9790Y629D02*
X-9570Y616D01*
X-9798Y484D02*
X-9579Y471D01*
X-9570Y616D01*
X-9798Y484D02*
X-9790Y629D01*
X-7883Y-3935D02*
X-7687Y-3835D01*
X-7817Y-4064D02*
X-7621Y-3964D01*
X-7687Y-3835D02*
X-7621Y-3964D01*
X-7883Y-3935D02*
X-7817Y-4064D01*
X-8774Y-4390D02*
X-8579Y-4289D01*
X-8707Y-4519D02*
X-8512Y-4417D01*
X-8579Y-4289D02*
X-8512Y-4417D01*
X-8774Y-4390D02*
X-8707Y-4519D01*
X444Y-9799D02*
X579Y-9794D01*
X436Y-9579D02*
X571Y-9574D01*
X579Y-9794D01*
X436Y-9579D02*
X444Y-9799D01*
X392Y-8800D02*
X527Y-8796D01*
X384Y-8580D02*
X519Y-8576D01*
X527Y-8796D01*
X384Y-8580D02*
X392Y-8800D01*
X340Y-7802D02*
X475Y-7796D01*
X331Y-7583D02*
X466Y-7577D01*
X475Y-7796D01*
X331Y-7583D02*
X340Y-7802D01*
D113*
X5550Y8913D02*
G03*
X4944Y9263I-300J180D01*
G01*
X-4949Y9271D02*
G03*
X-5556Y8924I-301J-178D01*
G01*
X-8924Y5556D02*
G03*
X-9263Y4944I-169J-306D01*
G01*
X-9263Y-4944D02*
G03*
X-8913Y-5550I170J-306D01*
G01*
X-5556Y-8924D02*
G03*
X-4944Y-9263I306J-169D01*
G01*
X4944D02*
G03*
X5548Y-8910I306J170D01*
G01*
X8910Y-5548D02*
G03*
X9260Y-4942I183J298D01*
G01*
X9263Y4944D02*
G03*
X8913Y5550I-170J306D01*
G01*
X-8913Y-5550D02*
G03*
X-5550Y-8913I8913J5550D01*
G01*
X-4944Y-9263D02*
G03*
X4944Y-9263I4944J9263D01*
G01*
X5550Y-8913D02*
G03*
X8905Y-5564I-5550J8913D01*
G01*
X9263Y-4944D02*
G03*
X9263Y4944I-9263J4944D01*
G01*
X8913Y5550D02*
G03*
X5550Y8913I-8913J-5550D01*
G01*
X4944Y9263D02*
G03*
X-4944Y9263I-4944J-9263D01*
G01*
X-9263Y4944D02*
G03*
X-9263Y-4944I9263J-4944D01*
G01*
X-5550Y8913D02*
G03*
X-8913Y5550I5550J-8913D01*
G01*
X-19735Y12816D02*
G03*
X-19477Y12387I123J-218D01*
G01*
X-19668Y23312D02*
G03*
X-19910Y22875I-127J-215D01*
G01*
X-15803Y27131D02*
G03*
X-16230Y26872I-217J-125D01*
G01*
X-5300Y27073D02*
G03*
X-5742Y27307I-221J117D01*
G01*
X-1480Y23201D02*
G03*
X-1744Y23626I-131J213D01*
G01*
M02*
