G04 Layer_Physical_Order=1*
G04 Layer_Color=255*
%FSLAX42Y42*%
%MOMM*%
G71*
G01*
G75*
%ADD10C,0.25*%
%ADD11C,0.50*%
%ADD12C,3.50*%
%ADD13C,1.00*%
%ADD14C,1.27*%
G36*
X5877Y3237D02*
X5873Y3236D01*
X5838Y3217D01*
X5808Y3192D01*
X5783Y3162D01*
X5764Y3127D01*
X5753Y3089D01*
X5749Y3050D01*
X5753Y3011D01*
X5764Y2973D01*
X5783Y2938D01*
X5808Y2908D01*
X5838Y2883D01*
X5873Y2864D01*
X5911Y2852D01*
X5950Y2849D01*
X5989Y2852D01*
X6027Y2864D01*
X6062Y2883D01*
X6092Y2908D01*
X6098Y2914D01*
X6110Y2910D01*
Y2800D01*
X9300D01*
Y375D01*
X9287Y373D01*
X9286Y377D01*
X9267Y412D01*
X9242Y442D01*
X9212Y467D01*
X9177Y486D01*
X9139Y498D01*
X9100Y501D01*
X9061Y498D01*
X9023Y486D01*
X8988Y467D01*
X8958Y442D01*
X8933Y412D01*
X8914Y377D01*
X8903Y339D01*
X8899Y300D01*
X8903Y261D01*
X8914Y223D01*
X8933Y188D01*
X8958Y158D01*
X8988Y133D01*
X9023Y114D01*
X9027Y113D01*
X9025Y100D01*
X375D01*
X373Y113D01*
X377Y114D01*
X412Y133D01*
X442Y158D01*
X467Y188D01*
X486Y223D01*
X498Y261D01*
X501Y300D01*
X498Y339D01*
X486Y377D01*
X467Y412D01*
X442Y442D01*
X412Y467D01*
X377Y486D01*
X339Y498D01*
X300Y501D01*
X261Y498D01*
X223Y486D01*
X188Y467D01*
X158Y442D01*
X133Y412D01*
X114Y377D01*
X113Y373D01*
X100Y375D01*
Y2800D01*
X3300D01*
Y2897D01*
X3313Y2903D01*
X3338Y2883D01*
X3373Y2864D01*
X3411Y2852D01*
X3450Y2849D01*
X3489Y2852D01*
X3527Y2864D01*
X3562Y2883D01*
X3592Y2908D01*
X3617Y2938D01*
X3636Y2973D01*
X3647Y3011D01*
X3651Y3050D01*
X3647Y3089D01*
X3636Y3127D01*
X3617Y3162D01*
X3592Y3192D01*
X3562Y3217D01*
X3527Y3236D01*
X3523Y3237D01*
X3525Y3250D01*
X5875D01*
X5877Y3237D01*
D02*
G37*
%LPC*%
G36*
X3320Y2016D02*
X3300Y2013D01*
X3282Y2006D01*
X3274Y2000D01*
X3272Y1999D01*
X3267Y1995D01*
X3262Y1992D01*
X3256Y1989D01*
X3250Y1986D01*
X3244Y1984D01*
X3236Y1982D01*
X3229Y1981D01*
X3211Y1979D01*
X1339D01*
X1330Y1979D01*
X1321Y1981D01*
X1314Y1982D01*
X1306Y1984D01*
X1300Y1986D01*
X1294Y1989D01*
X1288Y1992D01*
X1283Y1995D01*
X1278Y1999D01*
X1276Y2000D01*
X1268Y2006D01*
X1250Y2013D01*
X1230Y2016D01*
X1210Y2013D01*
X1192Y2006D01*
X1176Y1994D01*
X1164Y1978D01*
X1157Y1960D01*
X1154Y1940D01*
X1157Y1920D01*
X1164Y1902D01*
X1176Y1886D01*
X1192Y1874D01*
X1210Y1867D01*
X1230Y1864D01*
X1250Y1867D01*
X1268Y1874D01*
X1276Y1880D01*
X1278Y1881D01*
X1283Y1885D01*
X1288Y1888D01*
X1294Y1891D01*
X1300Y1894D01*
X1306Y1896D01*
X1314Y1898D01*
X1321Y1899D01*
X1339Y1901D01*
X3211D01*
X3220Y1900D01*
X3229Y1899D01*
X3236Y1898D01*
X3244Y1896D01*
X3250Y1894D01*
X3256Y1891D01*
X3262Y1888D01*
X3267Y1885D01*
X3272Y1881D01*
X3274Y1880D01*
X3282Y1874D01*
X3300Y1867D01*
X3320Y1864D01*
X3340Y1867D01*
X3358Y1874D01*
X3366Y1880D01*
X3368Y1881D01*
X3373Y1885D01*
X3378Y1888D01*
X3384Y1891D01*
X3390Y1894D01*
X3396Y1896D01*
X3404Y1898D01*
X3411Y1899D01*
X3429Y1901D01*
X4919D01*
X4919Y1901D01*
X4928Y1900D01*
X4936Y1899D01*
X4943Y1897D01*
X4949Y1895D01*
X4955Y1893D01*
X4960Y1890D01*
X4965Y1887D01*
X4969Y1883D01*
X4974Y1879D01*
X4975Y1878D01*
X4976Y1876D01*
X4992Y1864D01*
X5010Y1857D01*
X5030Y1854D01*
X5050Y1857D01*
X5068Y1864D01*
X5084Y1876D01*
X5096Y1892D01*
X5103Y1910D01*
X5106Y1930D01*
X5103Y1950D01*
X5096Y1968D01*
X5084Y1984D01*
X5068Y1996D01*
X5050Y2003D01*
X5030Y2006D01*
X5010Y2003D01*
X4992Y1996D01*
X4989Y1993D01*
X4988Y1993D01*
X4983Y1990D01*
X4979Y1988D01*
X4974Y1986D01*
X4968Y1984D01*
X4953Y1981D01*
X4946Y1980D01*
X4927Y1979D01*
X3429D01*
X3420Y1979D01*
X3411Y1981D01*
X3404Y1982D01*
X3396Y1984D01*
X3390Y1986D01*
X3384Y1989D01*
X3378Y1992D01*
X3373Y1995D01*
X3368Y1999D01*
X3366Y2000D01*
X3358Y2006D01*
X3340Y2013D01*
X3320Y2016D01*
D02*
G37*
G36*
X1700Y714D02*
X1680Y711D01*
X1662Y704D01*
X1646Y692D01*
X1634Y676D01*
X1627Y658D01*
X1624Y638D01*
X1627Y618D01*
X1634Y600D01*
X1646Y584D01*
X1662Y572D01*
X1680Y565D01*
X1700Y562D01*
X1720Y565D01*
X1738Y572D01*
X1754Y584D01*
X1766Y600D01*
X1773Y618D01*
X1776Y638D01*
X1773Y658D01*
X1766Y676D01*
X1754Y692D01*
X1738Y704D01*
X1720Y711D01*
X1700Y714D01*
D02*
G37*
G36*
X6938D02*
X6918Y711D01*
X6900Y704D01*
X6884Y692D01*
X6872Y676D01*
X6865Y658D01*
X6862Y638D01*
X6865Y618D01*
X6872Y600D01*
X6884Y584D01*
X6900Y572D01*
X6918Y565D01*
X6938Y562D01*
X6958Y565D01*
X6976Y572D01*
X6992Y584D01*
X7004Y600D01*
X7011Y618D01*
X7014Y638D01*
X7011Y658D01*
X7004Y676D01*
X6992Y692D01*
X6976Y704D01*
X6958Y711D01*
X6938Y714D01*
D02*
G37*
G36*
X1954Y2238D02*
X1934Y2235D01*
X1916Y2228D01*
X1900Y2216D01*
X1888Y2200D01*
X1881Y2182D01*
X1878Y2162D01*
X1881Y2142D01*
X1888Y2124D01*
X1900Y2108D01*
X1916Y2096D01*
X1934Y2089D01*
X1954Y2086D01*
X1974Y2089D01*
X1992Y2096D01*
X2008Y2108D01*
X2020Y2124D01*
X2027Y2142D01*
X2030Y2162D01*
X2027Y2182D01*
X2020Y2200D01*
X2008Y2216D01*
X1992Y2228D01*
X1974Y2235D01*
X1954Y2238D01*
D02*
G37*
G36*
X1700D02*
X1680Y2235D01*
X1662Y2228D01*
X1646Y2216D01*
X1634Y2200D01*
X1627Y2182D01*
X1624Y2162D01*
X1627Y2142D01*
X1634Y2124D01*
X1646Y2108D01*
X1662Y2096D01*
X1680Y2089D01*
X1700Y2086D01*
X1720Y2089D01*
X1738Y2096D01*
X1754Y2108D01*
X1766Y2124D01*
X1773Y2142D01*
X1776Y2162D01*
X1773Y2182D01*
X1766Y2200D01*
X1754Y2216D01*
X1738Y2228D01*
X1720Y2235D01*
X1700Y2238D01*
D02*
G37*
G36*
X938D02*
X918Y2235D01*
X900Y2228D01*
X884Y2216D01*
X872Y2200D01*
X865Y2182D01*
X862Y2162D01*
X865Y2142D01*
X872Y2124D01*
X884Y2108D01*
X900Y2096D01*
X918Y2089D01*
X938Y2086D01*
X958Y2089D01*
X976Y2096D01*
X992Y2108D01*
X1004Y2124D01*
X1011Y2142D01*
X1014Y2162D01*
X1011Y2182D01*
X1004Y2200D01*
X992Y2216D01*
X976Y2228D01*
X958Y2235D01*
X938Y2238D01*
D02*
G37*
G36*
X7954Y714D02*
X7934Y711D01*
X7916Y704D01*
X7900Y692D01*
X7888Y676D01*
X7881Y658D01*
X7878Y638D01*
X7881Y618D01*
X7888Y600D01*
X7900Y584D01*
X7916Y572D01*
X7934Y565D01*
X7954Y562D01*
X7974Y565D01*
X7992Y572D01*
X8008Y584D01*
X8020Y600D01*
X8027Y618D01*
X8030Y638D01*
X8027Y658D01*
X8020Y676D01*
X8008Y692D01*
X7992Y704D01*
X7974Y711D01*
X7954Y714D01*
D02*
G37*
G36*
X8462D02*
X8442Y711D01*
X8424Y704D01*
X8408Y692D01*
X8396Y676D01*
X8389Y658D01*
X8386Y638D01*
X8389Y618D01*
X8396Y600D01*
X8408Y584D01*
X8424Y572D01*
X8442Y565D01*
X8462Y562D01*
X8482Y565D01*
X8500Y572D01*
X8516Y584D01*
X8528Y600D01*
X8535Y618D01*
X8538Y638D01*
X8535Y658D01*
X8528Y676D01*
X8516Y692D01*
X8500Y704D01*
X8482Y711D01*
X8462Y714D01*
D02*
G37*
G36*
X4310Y986D02*
X4290Y983D01*
X4272Y976D01*
X4256Y964D01*
X4244Y948D01*
X4237Y930D01*
X4234Y910D01*
X4235Y901D01*
X4225Y889D01*
X3941D01*
X3940Y889D01*
X3931Y890D01*
X3924Y891D01*
X3917Y893D01*
X3912Y895D01*
X3907Y897D01*
X3903Y899D01*
X3901Y902D01*
X3898Y904D01*
X3896Y907D01*
X3896Y908D01*
X3884Y924D01*
X3868Y936D01*
X3850Y943D01*
X3830Y946D01*
X3810Y943D01*
X3792Y936D01*
X3776Y924D01*
X3764Y908D01*
X3757Y890D01*
X3754Y870D01*
X3754Y866D01*
X3742Y860D01*
X3685Y917D01*
X3669Y928D01*
X3649Y932D01*
X3411D01*
X3409Y932D01*
X3400Y933D01*
X3383Y935D01*
X3377Y936D01*
X3373Y937D01*
X3369Y939D01*
X3368Y939D01*
X3366Y941D01*
X3364Y941D01*
X3357Y947D01*
X3339Y954D01*
X3319Y957D01*
X3299Y954D01*
X3281Y947D01*
X3274Y941D01*
X3272Y941D01*
X3270Y939D01*
X3269Y939D01*
X3266Y937D01*
X3254Y935D01*
X3247Y934D01*
X3223Y932D01*
X2013D01*
X2011Y932D01*
X2002Y933D01*
X1985Y935D01*
X1979Y936D01*
X1975Y937D01*
X1971Y939D01*
X1970Y939D01*
X1968Y941D01*
X1966Y941D01*
X1959Y947D01*
X1941Y954D01*
X1921Y957D01*
X1901Y954D01*
X1883Y947D01*
X1876Y941D01*
X1874Y941D01*
X1872Y939D01*
X1871Y939D01*
X1868Y937D01*
X1856Y935D01*
X1849Y934D01*
X1825Y932D01*
X811D01*
X809Y932D01*
X800Y933D01*
X783Y935D01*
X777Y936D01*
X773Y937D01*
X769Y939D01*
X768Y939D01*
X766Y941D01*
X764Y941D01*
X757Y947D01*
X739Y954D01*
X719Y957D01*
X699Y954D01*
X681Y947D01*
X665Y935D01*
X653Y919D01*
X646Y901D01*
X643Y881D01*
X646Y861D01*
X653Y843D01*
X665Y827D01*
X681Y815D01*
X699Y808D01*
X719Y805D01*
X739Y808D01*
X757Y815D01*
X764Y821D01*
X766Y821D01*
X768Y823D01*
X769Y823D01*
X772Y825D01*
X784Y827D01*
X791Y828D01*
X815Y830D01*
X1829D01*
X1831Y830D01*
X1840Y829D01*
X1857Y827D01*
X1863Y826D01*
X1867Y825D01*
X1871Y823D01*
X1872Y823D01*
X1874Y821D01*
X1876Y821D01*
X1883Y815D01*
X1901Y808D01*
X1921Y805D01*
X1941Y808D01*
X1959Y815D01*
X1966Y821D01*
X1968Y821D01*
X1970Y823D01*
X1971Y823D01*
X1974Y825D01*
X1986Y827D01*
X1993Y828D01*
X2017Y830D01*
X2312D01*
X2315Y817D01*
X2312Y816D01*
X2296Y804D01*
X2284Y788D01*
X2277Y770D01*
X2274Y750D01*
X2277Y730D01*
X2284Y712D01*
X2296Y696D01*
X2312Y684D01*
X2330Y677D01*
X2350Y674D01*
X2370Y677D01*
X2386Y683D01*
X2391Y679D01*
X2395Y674D01*
X2389Y658D01*
X2386Y638D01*
X2389Y618D01*
X2396Y600D01*
X2408Y584D01*
X2424Y572D01*
X2442Y565D01*
X2462Y562D01*
X2482Y565D01*
X2500Y572D01*
X2516Y584D01*
X2528Y600D01*
X2535Y618D01*
X2538Y638D01*
X2535Y658D01*
X2528Y676D01*
X2518Y688D01*
X2523Y701D01*
X2741D01*
X2750Y700D01*
X2759Y699D01*
X2766Y698D01*
X2774Y696D01*
X2780Y694D01*
X2786Y691D01*
X2792Y688D01*
X2797Y685D01*
X2802Y681D01*
X2804Y680D01*
X2812Y674D01*
X2830Y667D01*
X2850Y664D01*
X2870Y667D01*
X2888Y674D01*
X2904Y686D01*
X2916Y702D01*
X2923Y720D01*
X2926Y740D01*
X2923Y760D01*
X2916Y778D01*
X2904Y794D01*
X2888Y806D01*
X2870Y813D01*
X2850Y816D01*
X2830Y813D01*
X2812Y806D01*
X2804Y800D01*
X2802Y799D01*
X2797Y795D01*
X2792Y792D01*
X2786Y789D01*
X2780Y786D01*
X2774Y784D01*
X2766Y782D01*
X2759Y781D01*
X2741Y779D01*
X2461D01*
X2461Y779D01*
X2452Y780D01*
X2444Y781D01*
X2437Y783D01*
X2431Y785D01*
X2425Y787D01*
X2420Y790D01*
X2415Y793D01*
X2411Y797D01*
X2406Y801D01*
X2405Y802D01*
X2404Y804D01*
X2388Y816D01*
X2385Y817D01*
X2388Y830D01*
X3227D01*
X3229Y830D01*
X3238Y829D01*
X3255Y827D01*
X3261Y826D01*
X3265Y825D01*
X3269Y823D01*
X3270Y823D01*
X3272Y821D01*
X3274Y821D01*
X3281Y815D01*
X3299Y808D01*
X3319Y805D01*
X3339Y808D01*
X3357Y815D01*
X3364Y821D01*
X3366Y821D01*
X3368Y823D01*
X3369Y823D01*
X3372Y825D01*
X3384Y827D01*
X3391Y828D01*
X3415Y830D01*
X3628D01*
X3734Y724D01*
X3748Y714D01*
X3749Y704D01*
X3749Y700D01*
X3738Y692D01*
X3726Y676D01*
X3719Y658D01*
X3716Y638D01*
X3719Y618D01*
X3726Y600D01*
X3738Y584D01*
X3741Y582D01*
X3736Y570D01*
X3594D01*
X3589Y582D01*
X3592Y584D01*
X3604Y600D01*
X3611Y618D01*
X3614Y638D01*
X3611Y658D01*
X3604Y676D01*
X3592Y692D01*
X3576Y704D01*
X3558Y711D01*
X3538Y714D01*
X3518Y711D01*
X3500Y704D01*
X3484Y692D01*
X3472Y676D01*
X3465Y658D01*
X3462Y638D01*
X3465Y618D01*
X3472Y600D01*
X3484Y584D01*
X3487Y582D01*
X3482Y570D01*
X3461D01*
X3446Y567D01*
X3433Y558D01*
X3314Y439D01*
X2266D01*
X2247Y458D01*
Y529D01*
X2248Y538D01*
X2249Y547D01*
X2250Y554D01*
X2252Y562D01*
X2254Y568D01*
X2257Y574D01*
X2260Y580D01*
X2263Y585D01*
X2267Y590D01*
X2268Y592D01*
X2274Y600D01*
X2281Y618D01*
X2284Y638D01*
X2281Y658D01*
X2274Y676D01*
X2262Y692D01*
X2246Y704D01*
X2228Y711D01*
X2208Y714D01*
X2188Y711D01*
X2170Y704D01*
X2154Y692D01*
X2142Y676D01*
X2135Y658D01*
X2132Y638D01*
X2135Y618D01*
X2142Y600D01*
X2148Y592D01*
X2149Y590D01*
X2153Y585D01*
X2156Y580D01*
X2159Y574D01*
X2162Y568D01*
X2164Y562D01*
X2166Y554D01*
X2167Y547D01*
X2169Y529D01*
Y442D01*
X2172Y427D01*
X2181Y415D01*
X2195Y400D01*
X2190Y388D01*
X1997D01*
X1993Y392D01*
Y529D01*
X1994Y538D01*
X1995Y547D01*
X1996Y554D01*
X1998Y562D01*
X2000Y568D01*
X2003Y574D01*
X2006Y580D01*
X2009Y585D01*
X2013Y590D01*
X2014Y592D01*
X2020Y600D01*
X2027Y618D01*
X2030Y638D01*
X2027Y658D01*
X2020Y676D01*
X2008Y692D01*
X1992Y704D01*
X1974Y711D01*
X1954Y714D01*
X1934Y711D01*
X1916Y704D01*
X1900Y692D01*
X1888Y676D01*
X1881Y658D01*
X1878Y638D01*
X1881Y618D01*
X1888Y600D01*
X1894Y592D01*
X1895Y590D01*
X1899Y585D01*
X1902Y580D01*
X1905Y574D01*
X1908Y568D01*
X1910Y562D01*
X1912Y554D01*
X1913Y547D01*
X1915Y529D01*
Y376D01*
X1918Y361D01*
X1927Y349D01*
X1934Y341D01*
X1929Y330D01*
X1485D01*
X1485Y330D01*
Y529D01*
X1486Y538D01*
X1487Y547D01*
X1488Y554D01*
X1490Y562D01*
X1492Y568D01*
X1495Y574D01*
X1498Y580D01*
X1501Y585D01*
X1505Y590D01*
X1506Y592D01*
X1512Y600D01*
X1519Y618D01*
X1522Y638D01*
X1519Y658D01*
X1512Y676D01*
X1500Y692D01*
X1484Y704D01*
X1466Y711D01*
X1446Y714D01*
X1426Y711D01*
X1408Y704D01*
X1392Y692D01*
X1380Y676D01*
X1373Y658D01*
X1370Y638D01*
X1373Y618D01*
X1380Y600D01*
X1386Y592D01*
X1387Y590D01*
X1391Y585D01*
X1394Y580D01*
X1397Y574D01*
X1400Y568D01*
X1402Y562D01*
X1404Y554D01*
X1405Y547D01*
X1407Y529D01*
Y314D01*
X1410Y299D01*
X1415Y292D01*
X1409Y279D01*
X1236D01*
X1231Y284D01*
Y529D01*
X1232Y538D01*
X1233Y547D01*
X1234Y554D01*
X1236Y562D01*
X1238Y568D01*
X1241Y574D01*
X1244Y580D01*
X1247Y585D01*
X1251Y590D01*
X1252Y592D01*
X1258Y600D01*
X1265Y618D01*
X1268Y638D01*
X1265Y658D01*
X1258Y676D01*
X1246Y692D01*
X1230Y704D01*
X1212Y711D01*
X1192Y714D01*
X1172Y711D01*
X1154Y704D01*
X1138Y692D01*
X1126Y676D01*
X1119Y658D01*
X1116Y638D01*
X1119Y618D01*
X1126Y600D01*
X1132Y592D01*
X1133Y590D01*
X1137Y585D01*
X1140Y580D01*
X1143Y574D01*
X1146Y568D01*
X1148Y562D01*
X1150Y554D01*
X1151Y547D01*
X1153Y529D01*
Y268D01*
X1156Y253D01*
X1165Y241D01*
X1166Y239D01*
X1161Y227D01*
X979D01*
Y525D01*
X979Y540D01*
X981Y548D01*
X982Y556D01*
X984Y563D01*
X986Y570D01*
X988Y576D01*
X991Y581D01*
X994Y586D01*
X998Y591D01*
X999Y593D01*
X1004Y600D01*
X1011Y618D01*
X1014Y638D01*
X1011Y658D01*
X1004Y676D01*
X992Y692D01*
X976Y704D01*
X958Y711D01*
X938Y714D01*
X918Y711D01*
X900Y704D01*
X884Y692D01*
X872Y676D01*
X865Y658D01*
X862Y638D01*
X865Y618D01*
X872Y600D01*
X879Y591D01*
X880Y589D01*
X884Y584D01*
X888Y578D01*
X891Y573D01*
X893Y567D01*
X896Y560D01*
X898Y553D01*
X899Y546D01*
X900Y537D01*
X901Y529D01*
Y210D01*
X904Y195D01*
X913Y183D01*
X934Y161D01*
X947Y153D01*
X962Y150D01*
X3458D01*
X3473Y153D01*
X3486Y161D01*
X3493Y168D01*
X3499Y173D01*
X3506Y178D01*
X3512Y182D01*
X3518Y186D01*
X3524Y189D01*
X3529Y191D01*
X3534Y193D01*
X3539Y194D01*
X3545Y192D01*
X3551Y190D01*
X3557Y188D01*
X3563Y185D01*
X3569Y181D01*
X3576Y177D01*
X3590Y166D01*
X3599Y156D01*
X3612Y147D01*
X3627Y144D01*
X6763D01*
X6778Y147D01*
X6791Y156D01*
X6858Y223D01*
X6859Y224D01*
X6865Y229D01*
X6871Y234D01*
X6876Y237D01*
X6880Y238D01*
X6883Y239D01*
X6884Y239D01*
X6884Y239D01*
X6887Y238D01*
X6887Y238D01*
X6887Y238D01*
X6888Y237D01*
X6892Y234D01*
X6910Y227D01*
X6930Y224D01*
X6950Y227D01*
X6968Y234D01*
X6984Y246D01*
X6996Y262D01*
X7003Y280D01*
X7006Y300D01*
X7003Y320D01*
X6996Y337D01*
X7001Y348D01*
X7001Y349D01*
X7125D01*
X7127Y340D01*
X7134Y322D01*
X7146Y306D01*
X7162Y294D01*
X7180Y287D01*
X7200Y284D01*
X7220Y287D01*
X7238Y294D01*
X7254Y306D01*
X7266Y322D01*
X7273Y340D01*
X7276Y360D01*
X7273Y380D01*
X7266Y397D01*
X7271Y408D01*
X7271Y409D01*
X7359D01*
X7367Y400D01*
X7367Y398D01*
X7370Y378D01*
X7377Y360D01*
X7389Y344D01*
X7405Y332D01*
X7423Y324D01*
X7443Y321D01*
X7463Y324D01*
X7481Y332D01*
X7497Y344D01*
X7509Y360D01*
X7517Y378D01*
X7519Y398D01*
X7517Y417D01*
X7509Y436D01*
X7500Y448D01*
X7505Y460D01*
X7884D01*
X7884Y460D01*
X7887Y440D01*
X7894Y422D01*
X7906Y406D01*
X7922Y394D01*
X7940Y387D01*
X7960Y384D01*
X7980Y387D01*
X7998Y394D01*
X8014Y406D01*
X8026Y422D01*
X8033Y440D01*
X8036Y460D01*
X8033Y480D01*
X8026Y498D01*
X8014Y514D01*
X7998Y526D01*
X7980Y533D01*
X7960Y536D01*
X7940Y533D01*
X7939Y533D01*
X7936Y535D01*
X7921Y538D01*
X7138D01*
X7134Y539D01*
X7134Y539D01*
X7134Y539D01*
X7129Y538D01*
X6861D01*
X6846Y535D01*
X6833Y527D01*
X6736Y429D01*
X4669D01*
X4660Y430D01*
X4651Y431D01*
X4644Y432D01*
X4636Y434D01*
X4630Y436D01*
X4624Y439D01*
X4618Y442D01*
X4613Y445D01*
X4608Y449D01*
X4606Y450D01*
X4598Y456D01*
X4580Y463D01*
X4570Y465D01*
X4568Y465D01*
X4561Y466D01*
X4555Y468D01*
X4549Y470D01*
X4543Y472D01*
X4537Y475D01*
X4531Y479D01*
X4530Y479D01*
X4534Y492D01*
X6581D01*
X6596Y495D01*
X6608Y503D01*
X6856Y751D01*
X8144D01*
X8169Y726D01*
X8169Y725D01*
X8168Y719D01*
X8167Y713D01*
X8166Y708D01*
X8165Y704D01*
X8163Y701D01*
X8162Y699D01*
X8161Y698D01*
X8160Y696D01*
X8159Y696D01*
X8159Y696D01*
X8158Y695D01*
X8154Y692D01*
X8142Y676D01*
X8135Y658D01*
X8132Y638D01*
X8135Y618D01*
X8142Y600D01*
X8154Y584D01*
X8170Y572D01*
X8188Y565D01*
X8208Y562D01*
X8228Y565D01*
X8246Y572D01*
X8262Y584D01*
X8274Y600D01*
X8281Y618D01*
X8284Y638D01*
X8281Y658D01*
X8274Y676D01*
X8262Y692D01*
X8258Y695D01*
X8257Y696D01*
X8257Y696D01*
X8256Y696D01*
X8255Y698D01*
X8254Y699D01*
X8253Y701D01*
X8251Y704D01*
X8250Y708D01*
X8249Y713D01*
X8248Y718D01*
X8247Y733D01*
Y742D01*
X8244Y757D01*
X8235Y769D01*
X8187Y817D01*
X8175Y826D01*
X8160Y829D01*
X6840D01*
X6825Y826D01*
X6813Y817D01*
X6565Y570D01*
X5118D01*
X5113Y582D01*
X5116Y584D01*
X5128Y600D01*
X5135Y618D01*
X5138Y638D01*
X5135Y658D01*
X5128Y676D01*
X5116Y692D01*
X5100Y704D01*
X5082Y711D01*
X5062Y714D01*
X5042Y711D01*
X5024Y704D01*
X5008Y692D01*
X4996Y676D01*
X4989Y658D01*
X4986Y638D01*
X4989Y618D01*
X4996Y600D01*
X5008Y584D01*
X5011Y582D01*
X5006Y570D01*
X4865D01*
X4864Y571D01*
X4863Y571D01*
X4861Y584D01*
X4862Y584D01*
X4874Y600D01*
X4881Y618D01*
X4884Y638D01*
X4881Y658D01*
X4874Y676D01*
X4862Y692D01*
X4846Y704D01*
X4828Y711D01*
X4808Y714D01*
X4788Y711D01*
X4770Y704D01*
X4754Y692D01*
X4742Y676D01*
X4735Y658D01*
X4732Y638D01*
X4735Y618D01*
X4742Y600D01*
X4754Y584D01*
X4755Y584D01*
X4753Y571D01*
X4752Y571D01*
X4751Y570D01*
X4610D01*
X4605Y582D01*
X4608Y584D01*
X4620Y600D01*
X4627Y618D01*
X4630Y638D01*
X4627Y658D01*
X4620Y676D01*
X4608Y692D01*
X4592Y704D01*
X4574Y711D01*
X4554Y714D01*
X4534Y711D01*
X4516Y704D01*
X4500Y692D01*
X4488Y676D01*
X4481Y658D01*
X4478Y638D01*
X4481Y618D01*
X4488Y600D01*
X4500Y584D01*
X4503Y582D01*
X4498Y570D01*
X4356D01*
X4351Y582D01*
X4354Y584D01*
X4366Y600D01*
X4373Y618D01*
X4376Y638D01*
X4373Y658D01*
X4366Y676D01*
X4354Y692D01*
X4348Y696D01*
X4353Y709D01*
X4420D01*
X4440Y713D01*
X4456Y724D01*
X4492Y759D01*
X4493Y760D01*
X4500Y766D01*
X4513Y776D01*
X4518Y780D01*
X4522Y782D01*
X4525Y784D01*
X4527Y784D01*
X4529Y785D01*
X4531Y785D01*
X4540Y787D01*
X4558Y794D01*
X4565Y800D01*
X4567Y800D01*
X4569Y802D01*
X4570Y802D01*
X4573Y804D01*
X4585Y806D01*
X4592Y807D01*
X4616Y809D01*
X5828D01*
X5830Y809D01*
X5839Y808D01*
X5856Y806D01*
X5862Y805D01*
X5866Y804D01*
X5870Y802D01*
X5871Y802D01*
X5873Y800D01*
X5875Y800D01*
X5882Y794D01*
X5900Y787D01*
X5920Y784D01*
X5940Y787D01*
X5958Y794D01*
X5974Y806D01*
X5986Y822D01*
X5993Y840D01*
X5996Y860D01*
X5993Y880D01*
X5986Y898D01*
X5974Y914D01*
X5958Y926D01*
X5940Y933D01*
X5920Y936D01*
X5900Y933D01*
X5882Y926D01*
X5875Y920D01*
X5873Y920D01*
X5871Y918D01*
X5870Y918D01*
X5867Y916D01*
X5855Y914D01*
X5848Y913D01*
X5824Y911D01*
X4612D01*
X4610Y911D01*
X4601Y912D01*
X4584Y914D01*
X4578Y915D01*
X4574Y916D01*
X4570Y918D01*
X4569Y918D01*
X4567Y920D01*
X4565Y920D01*
X4558Y926D01*
X4540Y933D01*
X4520Y936D01*
X4500Y933D01*
X4482Y926D01*
X4466Y914D01*
X4454Y898D01*
X4447Y880D01*
X4445Y871D01*
X4445Y869D01*
X4444Y867D01*
X4444Y865D01*
X4442Y862D01*
X4436Y852D01*
X4432Y847D01*
X4416Y828D01*
X4399Y811D01*
X4284D01*
X4280Y818D01*
X4279Y824D01*
X4285Y830D01*
X4286Y831D01*
X4292Y836D01*
X4310Y834D01*
X4330Y837D01*
X4348Y844D01*
X4364Y856D01*
X4376Y872D01*
X4383Y890D01*
X4386Y910D01*
X4383Y930D01*
X4376Y948D01*
X4364Y964D01*
X4348Y976D01*
X4330Y983D01*
X4310Y986D01*
D02*
G37*
G36*
X7192Y714D02*
X7172Y711D01*
X7154Y704D01*
X7138Y692D01*
X7126Y676D01*
X7119Y658D01*
X7116Y638D01*
X7119Y618D01*
X7126Y600D01*
X7138Y584D01*
X7154Y572D01*
X7172Y565D01*
X7192Y562D01*
X7212Y565D01*
X7230Y572D01*
X7246Y584D01*
X7258Y600D01*
X7265Y618D01*
X7268Y638D01*
X7265Y658D01*
X7258Y676D01*
X7246Y692D01*
X7230Y704D01*
X7212Y711D01*
X7192Y714D01*
D02*
G37*
G36*
X7446D02*
X7426Y711D01*
X7408Y704D01*
X7392Y692D01*
X7380Y676D01*
X7373Y658D01*
X7370Y638D01*
X7373Y618D01*
X7380Y600D01*
X7392Y584D01*
X7408Y572D01*
X7426Y565D01*
X7446Y562D01*
X7466Y565D01*
X7484Y572D01*
X7500Y584D01*
X7512Y600D01*
X7519Y618D01*
X7522Y638D01*
X7519Y658D01*
X7512Y676D01*
X7500Y692D01*
X7484Y704D01*
X7466Y711D01*
X7446Y714D01*
D02*
G37*
G36*
X7700D02*
X7680Y711D01*
X7662Y704D01*
X7646Y692D01*
X7634Y676D01*
X7627Y658D01*
X7624Y638D01*
X7627Y618D01*
X7634Y600D01*
X7646Y584D01*
X7662Y572D01*
X7680Y565D01*
X7700Y562D01*
X7720Y565D01*
X7738Y572D01*
X7754Y584D01*
X7766Y600D01*
X7773Y618D01*
X7776Y638D01*
X7773Y658D01*
X7766Y676D01*
X7754Y692D01*
X7738Y704D01*
X7720Y711D01*
X7700Y714D01*
D02*
G37*
G36*
X4687Y2637D02*
X4612D01*
X4613Y2627D01*
X4622Y2605D01*
X4637Y2587D01*
X4655Y2572D01*
X4677Y2563D01*
X4687Y2562D01*
Y2637D01*
D02*
G37*
G36*
X4788D02*
X4713D01*
Y2562D01*
X4723Y2563D01*
X4745Y2572D01*
X4763Y2587D01*
X4778Y2605D01*
X4787Y2627D01*
X4788Y2637D01*
D02*
G37*
G36*
X4687Y2738D02*
X4677Y2737D01*
X4655Y2728D01*
X4637Y2713D01*
X4622Y2695D01*
X4613Y2673D01*
X4612Y2663D01*
X4687D01*
Y2738D01*
D02*
G37*
G36*
X4713D02*
Y2663D01*
X4788D01*
X4787Y2673D01*
X4778Y2695D01*
X4763Y2713D01*
X4745Y2728D01*
X4723Y2737D01*
X4713Y2738D01*
D02*
G37*
G36*
X8920Y2686D02*
X8900Y2683D01*
X8882Y2676D01*
X8866Y2664D01*
X8854Y2648D01*
X8847Y2630D01*
X8844Y2610D01*
X8847Y2590D01*
X8854Y2572D01*
X8860Y2565D01*
X8860Y2563D01*
X8862Y2561D01*
X8862Y2560D01*
X8864Y2557D01*
X8866Y2545D01*
X8867Y2538D01*
X8869Y2514D01*
Y2475D01*
X8857Y2470D01*
X8809Y2517D01*
X8797Y2526D01*
X8782Y2529D01*
X7250D01*
X7235Y2526D01*
X7223Y2517D01*
X7219Y2514D01*
X7200Y2516D01*
X7180Y2513D01*
X7162Y2506D01*
X7146Y2494D01*
X7134Y2478D01*
X7127Y2460D01*
X7124Y2440D01*
X7124Y2436D01*
X7116Y2427D01*
X3418D01*
X3403Y2424D01*
X3391Y2416D01*
X3329Y2354D01*
X3323Y2349D01*
X3316Y2343D01*
X3309Y2339D01*
X3303Y2335D01*
X3297Y2332D01*
X3291Y2330D01*
X3285Y2328D01*
X3280Y2327D01*
X3275Y2328D01*
X3269Y2330D01*
X3263Y2332D01*
X3257Y2335D01*
X3251Y2339D01*
X3244Y2343D01*
X3231Y2355D01*
X3188Y2397D01*
X3175Y2406D01*
X3160Y2409D01*
X1220D01*
X1205Y2406D01*
X1193Y2397D01*
X1165Y2369D01*
X1156Y2357D01*
X1153Y2342D01*
Y2271D01*
X1152Y2262D01*
X1151Y2253D01*
X1150Y2246D01*
X1148Y2238D01*
X1146Y2232D01*
X1143Y2226D01*
X1140Y2220D01*
X1137Y2215D01*
X1133Y2210D01*
X1132Y2208D01*
X1126Y2200D01*
X1119Y2182D01*
X1116Y2162D01*
X1119Y2142D01*
X1126Y2124D01*
X1138Y2108D01*
X1154Y2096D01*
X1172Y2089D01*
X1192Y2086D01*
X1212Y2089D01*
X1230Y2096D01*
X1246Y2108D01*
X1258Y2124D01*
X1265Y2142D01*
X1268Y2162D01*
X1265Y2182D01*
X1258Y2200D01*
X1252Y2208D01*
X1251Y2210D01*
X1247Y2215D01*
X1244Y2220D01*
X1241Y2226D01*
X1238Y2232D01*
X1236Y2238D01*
X1234Y2246D01*
X1233Y2253D01*
X1231Y2271D01*
Y2326D01*
X1236Y2331D01*
X1420D01*
X1424Y2319D01*
X1419Y2313D01*
X1410Y2301D01*
X1407Y2286D01*
Y2271D01*
X1406Y2262D01*
X1405Y2253D01*
X1404Y2246D01*
X1402Y2238D01*
X1400Y2232D01*
X1397Y2226D01*
X1394Y2220D01*
X1391Y2215D01*
X1387Y2210D01*
X1386Y2208D01*
X1380Y2200D01*
X1373Y2182D01*
X1370Y2162D01*
X1373Y2142D01*
X1380Y2124D01*
X1392Y2108D01*
X1408Y2096D01*
X1426Y2089D01*
X1446Y2086D01*
X1466Y2089D01*
X1484Y2096D01*
X1500Y2108D01*
X1512Y2124D01*
X1519Y2142D01*
X1522Y2162D01*
X1519Y2182D01*
X1512Y2200D01*
X1506Y2208D01*
X1505Y2210D01*
X1501Y2215D01*
X1498Y2220D01*
X1495Y2226D01*
X1492Y2232D01*
X1490Y2238D01*
X1488Y2246D01*
X1487Y2253D01*
X1486Y2258D01*
X1498Y2271D01*
X2178D01*
X2182Y2259D01*
X2181Y2257D01*
X2172Y2245D01*
X2169Y2230D01*
Y2227D01*
X2154Y2216D01*
X2142Y2200D01*
X2135Y2182D01*
X2132Y2162D01*
X2135Y2142D01*
X2142Y2124D01*
X2154Y2108D01*
X2170Y2096D01*
X2188Y2089D01*
X2208Y2086D01*
X2228Y2089D01*
X2246Y2096D01*
X2262Y2108D01*
X2274Y2124D01*
X2281Y2142D01*
X2284Y2162D01*
X2281Y2182D01*
X2274Y2199D01*
X2279Y2210D01*
X2279Y2211D01*
X2391D01*
X2391Y2210D01*
X2396Y2199D01*
X2389Y2182D01*
X2386Y2162D01*
X2389Y2142D01*
X2396Y2124D01*
X2408Y2108D01*
X2424Y2096D01*
X2442Y2089D01*
X2462Y2086D01*
X2482Y2089D01*
X2500Y2096D01*
X2516Y2108D01*
X2528Y2124D01*
X2535Y2142D01*
X2538Y2162D01*
X2535Y2182D01*
X2528Y2199D01*
X2533Y2210D01*
X2533Y2211D01*
X3068D01*
X3195Y2084D01*
X3208Y2075D01*
X3223Y2072D01*
X3363D01*
X3377Y2075D01*
X3390Y2084D01*
X3453Y2146D01*
X3454Y2146D01*
X3465Y2141D01*
X3472Y2124D01*
X3484Y2108D01*
X3500Y2096D01*
X3518Y2089D01*
X3538Y2086D01*
X3558Y2089D01*
X3576Y2096D01*
X3592Y2108D01*
X3604Y2124D01*
X3611Y2142D01*
X3614Y2162D01*
X3611Y2182D01*
X3604Y2200D01*
X3603Y2201D01*
X3609Y2212D01*
X3721D01*
X3727Y2201D01*
X3726Y2200D01*
X3719Y2182D01*
X3716Y2162D01*
X3719Y2142D01*
X3726Y2124D01*
X3738Y2108D01*
X3754Y2096D01*
X3772Y2089D01*
X3792Y2086D01*
X3812Y2089D01*
X3830Y2096D01*
X3846Y2108D01*
X3858Y2124D01*
X3865Y2142D01*
X3868Y2162D01*
X3865Y2182D01*
X3858Y2200D01*
X3857Y2201D01*
X3863Y2212D01*
X3975D01*
X3981Y2201D01*
X3980Y2200D01*
X3973Y2182D01*
X3970Y2162D01*
X3973Y2142D01*
X3980Y2124D01*
X3992Y2108D01*
X4008Y2096D01*
X4026Y2089D01*
X4046Y2086D01*
X4066Y2089D01*
X4084Y2096D01*
X4100Y2108D01*
X4112Y2124D01*
X4119Y2142D01*
X4120Y2146D01*
X4132Y2150D01*
X4236Y2046D01*
X4249Y2038D01*
X4264Y2035D01*
X4720D01*
X4735Y2038D01*
X4747Y2046D01*
X4759Y2058D01*
X4765Y2064D01*
X4772Y2069D01*
X4779Y2073D01*
X4785Y2077D01*
X4791Y2080D01*
X4797Y2082D01*
X4803Y2084D01*
X4809Y2086D01*
X4816Y2087D01*
X4818Y2087D01*
X4828Y2089D01*
X4846Y2096D01*
X4862Y2108D01*
X4874Y2124D01*
X4881Y2142D01*
X4884Y2162D01*
X4883Y2168D01*
X4884Y2169D01*
X4883Y2176D01*
X4883Y2181D01*
X4884Y2186D01*
X4886Y2191D01*
X4888Y2197D01*
X4891Y2203D01*
X4895Y2209D01*
X4899Y2215D01*
X4905Y2222D01*
X4905Y2222D01*
X4922Y2239D01*
X5019D01*
X5022Y2233D01*
X5022Y2227D01*
X5008Y2216D01*
X4996Y2200D01*
X4989Y2182D01*
X4986Y2162D01*
X4989Y2142D01*
X4996Y2124D01*
X5008Y2108D01*
X5024Y2096D01*
X5042Y2089D01*
X5062Y2086D01*
X5082Y2089D01*
X5100Y2096D01*
X5116Y2108D01*
X5128Y2124D01*
X5135Y2142D01*
X5138Y2162D01*
X5135Y2182D01*
X5128Y2200D01*
X5116Y2216D01*
X5102Y2227D01*
X5102Y2233D01*
X5105Y2239D01*
X5659D01*
X5659Y2238D01*
X5664Y2227D01*
X5657Y2210D01*
X5654Y2190D01*
X5657Y2170D01*
X5664Y2152D01*
X5670Y2144D01*
X5671Y2142D01*
X5675Y2137D01*
X5678Y2132D01*
X5681Y2126D01*
X5684Y2120D01*
X5686Y2114D01*
X5688Y2106D01*
X5689Y2099D01*
X5691Y2081D01*
Y2019D01*
X5690Y2010D01*
X5689Y2001D01*
X5688Y1994D01*
X5686Y1986D01*
X5684Y1980D01*
X5681Y1974D01*
X5678Y1968D01*
X5675Y1963D01*
X5671Y1958D01*
X5670Y1956D01*
X5664Y1948D01*
X5657Y1930D01*
X5654Y1910D01*
X5657Y1890D01*
X5664Y1872D01*
X5676Y1856D01*
X5692Y1844D01*
X5710Y1837D01*
X5730Y1834D01*
X5750Y1837D01*
X5768Y1844D01*
X5784Y1856D01*
X5796Y1872D01*
X5803Y1890D01*
X5806Y1910D01*
X5803Y1930D01*
X5796Y1948D01*
X5790Y1956D01*
X5789Y1958D01*
X5785Y1963D01*
X5782Y1968D01*
X5779Y1974D01*
X5776Y1980D01*
X5774Y1986D01*
X5772Y1994D01*
X5771Y2001D01*
X5769Y2019D01*
Y2081D01*
X5770Y2090D01*
X5771Y2099D01*
X5772Y2106D01*
X5774Y2114D01*
X5776Y2120D01*
X5779Y2126D01*
X5782Y2132D01*
X5785Y2137D01*
X5789Y2142D01*
X5790Y2144D01*
X5796Y2152D01*
X5803Y2170D01*
X5806Y2190D01*
X5803Y2210D01*
X5796Y2227D01*
X5801Y2238D01*
X5801Y2239D01*
X6524D01*
X6531Y2227D01*
X6524Y2218D01*
X6517Y2200D01*
X6514Y2180D01*
X6517Y2160D01*
X6524Y2142D01*
X6536Y2126D01*
X6552Y2114D01*
X6570Y2107D01*
X6590Y2104D01*
X6610Y2107D01*
X6628Y2114D01*
X6636Y2120D01*
X6638Y2121D01*
X6643Y2125D01*
X6648Y2128D01*
X6654Y2131D01*
X6660Y2134D01*
X6666Y2136D01*
X6674Y2138D01*
X6681Y2139D01*
X6699Y2141D01*
X6744D01*
X6761Y2124D01*
Y1910D01*
X6764Y1895D01*
X6773Y1883D01*
X6808Y1848D01*
X6820Y1839D01*
X6835Y1836D01*
X6976D01*
X6985Y1835D01*
X6994Y1834D01*
X7001Y1833D01*
X7009Y1831D01*
X7015Y1829D01*
X7021Y1826D01*
X7027Y1823D01*
X7032Y1820D01*
X7037Y1816D01*
X7039Y1815D01*
X7047Y1809D01*
X7065Y1802D01*
X7085Y1799D01*
X7105Y1802D01*
X7123Y1809D01*
X7139Y1821D01*
X7151Y1837D01*
X7158Y1855D01*
X7161Y1875D01*
X7158Y1895D01*
X7151Y1913D01*
X7139Y1929D01*
X7123Y1941D01*
X7105Y1948D01*
X7085Y1951D01*
X7065Y1948D01*
X7047Y1941D01*
X7039Y1935D01*
X7037Y1934D01*
X7032Y1930D01*
X7027Y1927D01*
X7021Y1924D01*
X7015Y1921D01*
X7009Y1919D01*
X7001Y1917D01*
X6994Y1916D01*
X6976Y1914D01*
X6851D01*
X6839Y1926D01*
Y2140D01*
X6836Y2155D01*
X6827Y2167D01*
X6787Y2207D01*
X6775Y2216D01*
X6760Y2219D01*
X6699D01*
X6690Y2220D01*
X6681Y2221D01*
X6674Y2222D01*
X6666Y2224D01*
X6660Y2226D01*
X6659Y2227D01*
X6662Y2239D01*
X6895D01*
X6898Y2233D01*
X6898Y2227D01*
X6884Y2216D01*
X6872Y2200D01*
X6865Y2182D01*
X6862Y2162D01*
X6865Y2142D01*
X6872Y2124D01*
X6884Y2108D01*
X6900Y2096D01*
X6918Y2089D01*
X6938Y2086D01*
X6958Y2089D01*
X6976Y2096D01*
X6992Y2108D01*
X7004Y2124D01*
X7011Y2142D01*
X7014Y2162D01*
X7011Y2182D01*
X7004Y2200D01*
X6992Y2216D01*
X6978Y2227D01*
X6978Y2233D01*
X6981Y2239D01*
X7149D01*
X7152Y2233D01*
X7152Y2227D01*
X7138Y2216D01*
X7126Y2200D01*
X7119Y2182D01*
X7116Y2162D01*
X7119Y2142D01*
X7126Y2124D01*
X7138Y2108D01*
X7154Y2096D01*
X7172Y2089D01*
X7192Y2086D01*
X7212Y2089D01*
X7230Y2096D01*
X7246Y2108D01*
X7258Y2124D01*
X7265Y2142D01*
X7268Y2162D01*
X7265Y2182D01*
X7258Y2200D01*
X7246Y2216D01*
X7232Y2227D01*
X7232Y2233D01*
X7235Y2239D01*
X7403D01*
X7406Y2233D01*
X7406Y2227D01*
X7392Y2216D01*
X7380Y2200D01*
X7373Y2182D01*
X7370Y2162D01*
X7373Y2142D01*
X7380Y2124D01*
X7392Y2108D01*
X7408Y2096D01*
X7426Y2089D01*
X7446Y2086D01*
X7466Y2089D01*
X7484Y2096D01*
X7500Y2108D01*
X7512Y2124D01*
X7519Y2142D01*
X7522Y2162D01*
X7519Y2182D01*
X7512Y2200D01*
X7500Y2216D01*
X7486Y2227D01*
X7486Y2233D01*
X7489Y2239D01*
X7657D01*
X7660Y2233D01*
X7660Y2227D01*
X7646Y2216D01*
X7634Y2200D01*
X7627Y2182D01*
X7624Y2162D01*
X7627Y2142D01*
X7634Y2124D01*
X7646Y2108D01*
X7662Y2096D01*
X7680Y2089D01*
X7700Y2086D01*
X7720Y2089D01*
X7738Y2096D01*
X7754Y2108D01*
X7766Y2124D01*
X7773Y2142D01*
X7776Y2162D01*
X7773Y2182D01*
X7766Y2200D01*
X7754Y2216D01*
X7740Y2227D01*
X7740Y2233D01*
X7743Y2239D01*
X7911D01*
X7914Y2233D01*
X7914Y2227D01*
X7900Y2216D01*
X7888Y2200D01*
X7881Y2182D01*
X7878Y2162D01*
X7881Y2142D01*
X7888Y2124D01*
X7900Y2108D01*
X7916Y2096D01*
X7934Y2089D01*
X7954Y2086D01*
X7974Y2089D01*
X7992Y2096D01*
X8008Y2108D01*
X8020Y2124D01*
X8027Y2142D01*
X8030Y2162D01*
X8027Y2182D01*
X8020Y2200D01*
X8008Y2216D01*
X7994Y2227D01*
X7994Y2233D01*
X7997Y2239D01*
X8146D01*
X8154Y2231D01*
X8154Y2216D01*
X8142Y2200D01*
X8135Y2182D01*
X8132Y2162D01*
X8135Y2142D01*
X8142Y2124D01*
X8154Y2108D01*
X8170Y2096D01*
X8188Y2089D01*
X8208Y2086D01*
X8228Y2089D01*
X8246Y2096D01*
X8262Y2108D01*
X8274Y2124D01*
X8281Y2142D01*
X8284Y2162D01*
X8281Y2182D01*
X8274Y2200D01*
X8262Y2216D01*
X8262Y2231D01*
X8272Y2241D01*
X8423D01*
X8425Y2228D01*
X8424Y2228D01*
X8408Y2216D01*
X8396Y2200D01*
X8389Y2182D01*
X8386Y2162D01*
X8389Y2142D01*
X8396Y2124D01*
X8408Y2108D01*
X8424Y2096D01*
X8442Y2089D01*
X8462Y2086D01*
X8482Y2089D01*
X8500Y2096D01*
X8516Y2108D01*
X8528Y2124D01*
X8535Y2142D01*
X8538Y2162D01*
X8535Y2182D01*
X8528Y2200D01*
X8516Y2216D01*
X8500Y2228D01*
X8499Y2228D01*
X8501Y2241D01*
X8666D01*
X8721Y2186D01*
Y1346D01*
X8704Y1329D01*
X8430D01*
X8415Y1326D01*
X8403Y1317D01*
X8396Y1311D01*
X8388Y1313D01*
X8384Y1316D01*
X8384Y1323D01*
X8385Y1331D01*
X8386Y1338D01*
X8388Y1345D01*
X8390Y1351D01*
X8393Y1357D01*
X8396Y1362D01*
X8399Y1367D01*
X8403Y1372D01*
X8404Y1374D01*
X8410Y1383D01*
X8418Y1401D01*
X8421Y1421D01*
X8418Y1440D01*
X8410Y1459D01*
X8398Y1474D01*
X8383Y1486D01*
X8364Y1494D01*
X8344Y1497D01*
X8325Y1494D01*
X8306Y1486D01*
X8291Y1474D01*
X8279Y1459D01*
X8271Y1440D01*
X8268Y1421D01*
X8271Y1401D01*
X8279Y1383D01*
X8285Y1374D01*
X8286Y1372D01*
X8290Y1367D01*
X8293Y1362D01*
X8296Y1357D01*
X8299Y1351D01*
X8301Y1345D01*
X8303Y1338D01*
X8304Y1331D01*
X8305Y1320D01*
X8285Y1300D01*
X8160D01*
X8145Y1297D01*
X8132Y1289D01*
X8108Y1265D01*
X7938D01*
X7935Y1270D01*
X7934Y1278D01*
X7938Y1281D01*
X7943Y1285D01*
X7949Y1288D01*
X7954Y1290D01*
X7958Y1292D01*
X7963Y1293D01*
X7966Y1294D01*
X7969Y1294D01*
X7970Y1294D01*
X7990Y1297D01*
X8008Y1304D01*
X8024Y1316D01*
X8036Y1332D01*
X8043Y1350D01*
X8046Y1370D01*
X8043Y1390D01*
X8036Y1408D01*
X8024Y1424D01*
X8008Y1436D01*
X7990Y1443D01*
X7970Y1446D01*
X7950Y1443D01*
X7932Y1436D01*
X7916Y1424D01*
X7904Y1408D01*
X7897Y1390D01*
X7894Y1370D01*
X7894Y1369D01*
X7894Y1366D01*
X7893Y1363D01*
X7892Y1358D01*
X7890Y1354D01*
X7888Y1349D01*
X7885Y1343D01*
X7881Y1338D01*
X7874Y1330D01*
X7686D01*
X7681Y1342D01*
X7911Y1571D01*
X8368D01*
X8376Y1571D01*
X8394Y1569D01*
X8401Y1567D01*
X8408Y1566D01*
X8414Y1564D01*
X8419Y1562D01*
X8423Y1560D01*
X8428Y1557D01*
X8429Y1557D01*
X8432Y1554D01*
X8450Y1547D01*
X8470Y1544D01*
X8490Y1547D01*
X8508Y1554D01*
X8524Y1566D01*
X8536Y1582D01*
X8543Y1600D01*
X8546Y1620D01*
X8543Y1640D01*
X8536Y1658D01*
X8524Y1674D01*
X8508Y1686D01*
X8490Y1693D01*
X8470Y1696D01*
X8450Y1693D01*
X8432Y1686D01*
X8416Y1674D01*
X8415Y1672D01*
X8414Y1671D01*
X8409Y1667D01*
X8405Y1663D01*
X8400Y1660D01*
X8395Y1657D01*
X8389Y1655D01*
X8383Y1653D01*
X8376Y1651D01*
X8368Y1650D01*
X8359Y1649D01*
X8359Y1649D01*
X7920D01*
X7914Y1657D01*
X7914Y1662D01*
X7916Y1680D01*
X7913Y1700D01*
X7906Y1718D01*
X7894Y1734D01*
X7878Y1746D01*
X7860Y1753D01*
X7840Y1756D01*
X7820Y1753D01*
X7802Y1746D01*
X7786Y1734D01*
X7775Y1719D01*
X7770D01*
X7755Y1716D01*
X7743Y1707D01*
X7592Y1557D01*
X7458D01*
X7454Y1569D01*
X7487Y1603D01*
X7491Y1608D01*
X7497Y1614D01*
X7498Y1614D01*
X7514Y1626D01*
X7526Y1642D01*
X7533Y1660D01*
X7536Y1680D01*
X7533Y1700D01*
X7526Y1718D01*
X7514Y1734D01*
X7498Y1746D01*
X7480Y1753D01*
X7460Y1756D01*
X7440Y1753D01*
X7422Y1746D01*
X7406Y1734D01*
X7394Y1718D01*
X7387Y1700D01*
X7384Y1680D01*
X7387Y1660D01*
X7394Y1642D01*
X7397Y1638D01*
X7398Y1637D01*
X7398Y1637D01*
X7398Y1637D01*
X7399Y1634D01*
X7399Y1634D01*
X7399Y1634D01*
X7399Y1633D01*
X7399Y1630D01*
X7397Y1627D01*
X7395Y1622D01*
X7391Y1617D01*
X7389Y1615D01*
X6155D01*
X6146Y1616D01*
X6137Y1617D01*
X6130Y1618D01*
X6122Y1620D01*
X6116Y1622D01*
X6110Y1625D01*
X6104Y1628D01*
X6099Y1631D01*
X6094Y1635D01*
X6092Y1636D01*
X6084Y1642D01*
X6066Y1649D01*
X6046Y1652D01*
X6026Y1649D01*
X6008Y1642D01*
X6000Y1636D01*
X5998Y1635D01*
X5993Y1631D01*
X5988Y1628D01*
X5982Y1625D01*
X5976Y1622D01*
X5970Y1620D01*
X5962Y1618D01*
X5955Y1617D01*
X5937Y1615D01*
X5263D01*
X5254Y1616D01*
X5245Y1617D01*
X5238Y1618D01*
X5230Y1620D01*
X5224Y1622D01*
X5218Y1625D01*
X5212Y1628D01*
X5207Y1631D01*
X5202Y1635D01*
X5200Y1636D01*
X5192Y1642D01*
X5174Y1649D01*
X5154Y1652D01*
X5134Y1649D01*
X5116Y1642D01*
X5108Y1636D01*
X5106Y1635D01*
X5101Y1631D01*
X5096Y1628D01*
X5090Y1625D01*
X5084Y1622D01*
X5078Y1620D01*
X5070Y1618D01*
X5063Y1617D01*
X5045Y1615D01*
X4755D01*
X4746Y1616D01*
X4737Y1617D01*
X4730Y1618D01*
X4722Y1620D01*
X4716Y1622D01*
X4710Y1625D01*
X4704Y1628D01*
X4699Y1631D01*
X4694Y1635D01*
X4692Y1636D01*
X4684Y1642D01*
X4666Y1649D01*
X4646Y1652D01*
X4626Y1649D01*
X4608Y1642D01*
X4592Y1630D01*
X4580Y1614D01*
X4573Y1597D01*
X4562Y1592D01*
X4561Y1592D01*
X4551Y1601D01*
X4538Y1610D01*
X4523Y1613D01*
X4063D01*
X4054Y1614D01*
X4045Y1615D01*
X4038Y1616D01*
X4030Y1618D01*
X4024Y1620D01*
X4018Y1623D01*
X4012Y1626D01*
X4007Y1629D01*
X4002Y1633D01*
X4000Y1634D01*
X3992Y1640D01*
X3974Y1647D01*
X3954Y1650D01*
X3934Y1647D01*
X3916Y1640D01*
X3908Y1634D01*
X3906Y1633D01*
X3901Y1629D01*
X3896Y1626D01*
X3890Y1623D01*
X3884Y1620D01*
X3878Y1618D01*
X3870Y1616D01*
X3863Y1615D01*
X3845Y1613D01*
X3555D01*
X3546Y1614D01*
X3537Y1615D01*
X3530Y1616D01*
X3522Y1618D01*
X3516Y1620D01*
X3510Y1623D01*
X3504Y1626D01*
X3499Y1629D01*
X3494Y1633D01*
X3492Y1634D01*
X3484Y1640D01*
X3466Y1647D01*
X3446Y1650D01*
X3426Y1647D01*
X3408Y1640D01*
X3400Y1634D01*
X3398Y1633D01*
X3393Y1629D01*
X3388Y1626D01*
X3382Y1623D01*
X3376Y1620D01*
X3370Y1618D01*
X3362Y1616D01*
X3355Y1615D01*
X3337Y1613D01*
X2663D01*
X2654Y1614D01*
X2645Y1615D01*
X2638Y1616D01*
X2630Y1618D01*
X2624Y1620D01*
X2618Y1623D01*
X2612Y1626D01*
X2607Y1629D01*
X2602Y1633D01*
X2600Y1634D01*
X2592Y1640D01*
X2574Y1647D01*
X2554Y1650D01*
X2534Y1647D01*
X2516Y1640D01*
X2500Y1628D01*
X2488Y1612D01*
X2481Y1595D01*
X2470Y1590D01*
X2469Y1590D01*
X2455Y1603D01*
X2442Y1612D01*
X2427Y1615D01*
X2155D01*
X2146Y1616D01*
X2137Y1617D01*
X2130Y1618D01*
X2122Y1620D01*
X2116Y1622D01*
X2110Y1625D01*
X2104Y1628D01*
X2099Y1631D01*
X2094Y1635D01*
X2092Y1636D01*
X2084Y1642D01*
X2066Y1649D01*
X2046Y1652D01*
X2026Y1649D01*
X2008Y1642D01*
X2000Y1636D01*
X1998Y1635D01*
X1993Y1631D01*
X1988Y1628D01*
X1982Y1625D01*
X1976Y1622D01*
X1970Y1620D01*
X1962Y1618D01*
X1955Y1617D01*
X1937Y1615D01*
X1463D01*
X1454Y1616D01*
X1445Y1617D01*
X1438Y1618D01*
X1430Y1620D01*
X1424Y1622D01*
X1418Y1625D01*
X1412Y1628D01*
X1407Y1631D01*
X1402Y1635D01*
X1400Y1636D01*
X1392Y1642D01*
X1374Y1649D01*
X1354Y1652D01*
X1334Y1649D01*
X1316Y1642D01*
X1308Y1636D01*
X1306Y1635D01*
X1301Y1631D01*
X1296Y1628D01*
X1290Y1625D01*
X1284Y1622D01*
X1278Y1620D01*
X1270Y1618D01*
X1263Y1617D01*
X1245Y1615D01*
X955D01*
X946Y1616D01*
X937Y1617D01*
X930Y1618D01*
X922Y1620D01*
X916Y1622D01*
X910Y1625D01*
X904Y1628D01*
X899Y1631D01*
X894Y1635D01*
X892Y1636D01*
X884Y1642D01*
X866Y1649D01*
X846Y1652D01*
X826Y1649D01*
X808Y1642D01*
X792Y1630D01*
X780Y1614D01*
X773Y1596D01*
X770Y1576D01*
X773Y1556D01*
X780Y1538D01*
X792Y1522D01*
X808Y1510D01*
X826Y1503D01*
X846Y1500D01*
X866Y1503D01*
X884Y1510D01*
X892Y1516D01*
X894Y1517D01*
X899Y1521D01*
X904Y1524D01*
X910Y1527D01*
X916Y1530D01*
X922Y1532D01*
X930Y1534D01*
X937Y1535D01*
X955Y1537D01*
X1245D01*
X1254Y1536D01*
X1263Y1535D01*
X1270Y1534D01*
X1278Y1532D01*
X1284Y1530D01*
X1290Y1527D01*
X1296Y1524D01*
X1301Y1521D01*
X1306Y1517D01*
X1308Y1516D01*
X1316Y1510D01*
X1334Y1503D01*
X1354Y1500D01*
X1374Y1503D01*
X1392Y1510D01*
X1400Y1516D01*
X1402Y1517D01*
X1407Y1521D01*
X1412Y1524D01*
X1418Y1527D01*
X1424Y1530D01*
X1430Y1532D01*
X1438Y1534D01*
X1445Y1535D01*
X1463Y1537D01*
X1937D01*
X1946Y1536D01*
X1955Y1535D01*
X1962Y1534D01*
X1970Y1532D01*
X1976Y1530D01*
X1982Y1527D01*
X1988Y1524D01*
X1993Y1521D01*
X1998Y1517D01*
X2000Y1516D01*
X2008Y1510D01*
X2026Y1503D01*
X2046Y1500D01*
X2066Y1503D01*
X2084Y1510D01*
X2092Y1516D01*
X2094Y1517D01*
X2099Y1521D01*
X2104Y1524D01*
X2110Y1527D01*
X2116Y1530D01*
X2122Y1532D01*
X2130Y1534D01*
X2137Y1535D01*
X2155Y1537D01*
X2411D01*
X2487Y1462D01*
X2483Y1449D01*
X2482Y1449D01*
X1149D01*
X1140Y1450D01*
X1131Y1451D01*
X1124Y1452D01*
X1116Y1454D01*
X1110Y1456D01*
X1104Y1459D01*
X1098Y1462D01*
X1093Y1465D01*
X1088Y1469D01*
X1086Y1470D01*
X1078Y1476D01*
X1060Y1483D01*
X1040Y1486D01*
X1020Y1483D01*
X1002Y1476D01*
X986Y1464D01*
X974Y1448D01*
X967Y1430D01*
X964Y1410D01*
X967Y1390D01*
X974Y1372D01*
X986Y1356D01*
X1002Y1344D01*
X1020Y1337D01*
X1040Y1334D01*
X1060Y1337D01*
X1078Y1344D01*
X1086Y1350D01*
X1088Y1351D01*
X1093Y1355D01*
X1098Y1358D01*
X1104Y1361D01*
X1110Y1364D01*
X1116Y1366D01*
X1124Y1368D01*
X1131Y1369D01*
X1149Y1371D01*
X2651D01*
X2660Y1370D01*
X2669Y1369D01*
X2676Y1368D01*
X2684Y1366D01*
X2685Y1366D01*
X2683Y1353D01*
X2518D01*
X2503Y1350D01*
X2490Y1342D01*
X2417Y1269D01*
X2149D01*
X2140Y1270D01*
X2131Y1271D01*
X2124Y1272D01*
X2116Y1274D01*
X2110Y1276D01*
X2104Y1279D01*
X2098Y1282D01*
X2093Y1285D01*
X2088Y1289D01*
X2086Y1290D01*
X2078Y1296D01*
X2060Y1303D01*
X2040Y1306D01*
X2020Y1303D01*
X2002Y1296D01*
X1994Y1290D01*
X1992Y1289D01*
X1987Y1285D01*
X1982Y1282D01*
X1976Y1279D01*
X1970Y1276D01*
X1964Y1274D01*
X1956Y1272D01*
X1949Y1271D01*
X1931Y1269D01*
X1459D01*
X1450Y1270D01*
X1441Y1271D01*
X1434Y1272D01*
X1426Y1274D01*
X1420Y1276D01*
X1414Y1279D01*
X1408Y1282D01*
X1403Y1285D01*
X1398Y1289D01*
X1396Y1290D01*
X1388Y1296D01*
X1370Y1303D01*
X1350Y1306D01*
X1330Y1303D01*
X1312Y1296D01*
X1304Y1290D01*
X1302Y1289D01*
X1297Y1285D01*
X1292Y1282D01*
X1286Y1279D01*
X1280Y1276D01*
X1274Y1274D01*
X1266Y1272D01*
X1259Y1271D01*
X1241Y1269D01*
X958D01*
X943Y1269D01*
X935Y1270D01*
X927Y1272D01*
X920Y1273D01*
X913Y1275D01*
X907Y1278D01*
X902Y1280D01*
X897Y1283D01*
X892Y1287D01*
X890Y1287D01*
X884Y1292D01*
X866Y1299D01*
X846Y1302D01*
X826Y1299D01*
X808Y1292D01*
X792Y1280D01*
X780Y1264D01*
X773Y1246D01*
X770Y1226D01*
X773Y1206D01*
X780Y1188D01*
X792Y1172D01*
X808Y1160D01*
X826Y1153D01*
X846Y1150D01*
X866Y1153D01*
X884Y1160D01*
X894Y1168D01*
X896Y1169D01*
X901Y1173D01*
X907Y1177D01*
X912Y1180D01*
X919Y1183D01*
X925Y1186D01*
X932Y1188D01*
X940Y1189D01*
X948Y1190D01*
X956Y1191D01*
X956Y1191D01*
X1241D01*
X1250Y1190D01*
X1259Y1189D01*
X1266Y1188D01*
X1274Y1186D01*
X1280Y1184D01*
X1286Y1181D01*
X1292Y1178D01*
X1297Y1175D01*
X1302Y1171D01*
X1304Y1170D01*
X1312Y1164D01*
X1330Y1157D01*
X1350Y1154D01*
X1370Y1157D01*
X1388Y1164D01*
X1396Y1170D01*
X1398Y1171D01*
X1403Y1175D01*
X1408Y1178D01*
X1414Y1181D01*
X1420Y1184D01*
X1426Y1186D01*
X1434Y1188D01*
X1441Y1189D01*
X1459Y1191D01*
X1931D01*
X1940Y1190D01*
X1949Y1189D01*
X1956Y1188D01*
X1964Y1186D01*
X1970Y1184D01*
X1976Y1181D01*
X1982Y1178D01*
X1987Y1175D01*
X1992Y1171D01*
X1994Y1170D01*
X2002Y1164D01*
X2020Y1157D01*
X2040Y1154D01*
X2060Y1157D01*
X2078Y1164D01*
X2086Y1170D01*
X2088Y1171D01*
X2093Y1175D01*
X2098Y1178D01*
X2104Y1181D01*
X2110Y1184D01*
X2116Y1186D01*
X2124Y1188D01*
X2131Y1189D01*
X2149Y1191D01*
X2433D01*
X2448Y1194D01*
X2461Y1203D01*
X2469Y1210D01*
X2470Y1210D01*
X2481Y1205D01*
X2488Y1188D01*
X2500Y1172D01*
X2516Y1160D01*
X2534Y1153D01*
X2554Y1150D01*
X2574Y1153D01*
X2592Y1160D01*
X2600Y1166D01*
X2602Y1167D01*
X2607Y1171D01*
X2612Y1174D01*
X2618Y1177D01*
X2624Y1180D01*
X2630Y1182D01*
X2638Y1184D01*
X2645Y1185D01*
X2663Y1187D01*
X3337D01*
X3346Y1186D01*
X3355Y1185D01*
X3362Y1184D01*
X3370Y1182D01*
X3376Y1180D01*
X3382Y1177D01*
X3388Y1174D01*
X3393Y1171D01*
X3398Y1167D01*
X3400Y1166D01*
X3408Y1160D01*
X3426Y1153D01*
X3446Y1150D01*
X3466Y1153D01*
X3484Y1160D01*
X3492Y1166D01*
X3494Y1167D01*
X3499Y1171D01*
X3504Y1174D01*
X3510Y1177D01*
X3516Y1180D01*
X3522Y1182D01*
X3530Y1184D01*
X3537Y1185D01*
X3555Y1187D01*
X3845D01*
X3854Y1186D01*
X3863Y1185D01*
X3870Y1184D01*
X3878Y1182D01*
X3884Y1180D01*
X3890Y1177D01*
X3896Y1174D01*
X3901Y1171D01*
X3906Y1167D01*
X3908Y1166D01*
X3916Y1160D01*
X3934Y1153D01*
X3954Y1150D01*
X3974Y1153D01*
X3992Y1160D01*
X4000Y1166D01*
X4002Y1167D01*
X4007Y1171D01*
X4012Y1174D01*
X4018Y1177D01*
X4024Y1180D01*
X4030Y1182D01*
X4038Y1184D01*
X4045Y1185D01*
X4063Y1187D01*
X4521D01*
X4536Y1190D01*
X4549Y1199D01*
X4561Y1210D01*
X4562Y1210D01*
X4573Y1205D01*
X4580Y1188D01*
X4592Y1172D01*
X4608Y1160D01*
X4626Y1153D01*
X4646Y1150D01*
X4666Y1153D01*
X4684Y1160D01*
X4692Y1166D01*
X4694Y1167D01*
X4699Y1171D01*
X4704Y1174D01*
X4710Y1177D01*
X4716Y1180D01*
X4722Y1182D01*
X4730Y1184D01*
X4737Y1185D01*
X4755Y1187D01*
X5045D01*
X5054Y1186D01*
X5063Y1185D01*
X5070Y1184D01*
X5078Y1182D01*
X5084Y1180D01*
X5090Y1177D01*
X5096Y1174D01*
X5101Y1171D01*
X5106Y1167D01*
X5108Y1166D01*
X5116Y1160D01*
X5134Y1153D01*
X5154Y1150D01*
X5174Y1153D01*
X5192Y1160D01*
X5200Y1166D01*
X5202Y1167D01*
X5207Y1171D01*
X5212Y1174D01*
X5218Y1177D01*
X5224Y1180D01*
X5230Y1182D01*
X5238Y1184D01*
X5245Y1185D01*
X5263Y1187D01*
X5937D01*
X5946Y1186D01*
X5955Y1185D01*
X5962Y1184D01*
X5970Y1182D01*
X5976Y1180D01*
X5982Y1177D01*
X5988Y1174D01*
X5993Y1171D01*
X5998Y1167D01*
X6000Y1166D01*
X6008Y1160D01*
X6026Y1153D01*
X6046Y1150D01*
X6066Y1153D01*
X6084Y1160D01*
X6092Y1166D01*
X6094Y1167D01*
X6099Y1171D01*
X6104Y1174D01*
X6110Y1177D01*
X6116Y1180D01*
X6122Y1182D01*
X6130Y1184D01*
X6137Y1185D01*
X6155Y1187D01*
X7652D01*
X7656Y1174D01*
X7656Y1174D01*
X7644Y1159D01*
X7636Y1140D01*
X7633Y1120D01*
X7636Y1101D01*
X7644Y1082D01*
X7656Y1067D01*
X7671Y1055D01*
X7690Y1047D01*
X7710Y1044D01*
X7729Y1047D01*
X7748Y1055D01*
X7755Y1060D01*
X7757Y1061D01*
X7763Y1066D01*
X7768Y1069D01*
X7773Y1072D01*
X7779Y1074D01*
X7786Y1077D01*
X7793Y1078D01*
X7801Y1080D01*
X7818Y1082D01*
X8091D01*
X8106Y1085D01*
X8118Y1093D01*
X8132Y1107D01*
X8134Y1106D01*
X8145Y1101D01*
X8152Y1084D01*
X8164Y1069D01*
X8179Y1057D01*
X8198Y1049D01*
X8218Y1046D01*
X8237Y1049D01*
X8256Y1057D01*
X8263Y1062D01*
X8265Y1063D01*
X8271Y1068D01*
X8276Y1071D01*
X8281Y1074D01*
X8287Y1076D01*
X8294Y1079D01*
X8301Y1080D01*
X8309Y1082D01*
X8326Y1084D01*
X8351D01*
X8366Y1087D01*
X8378Y1095D01*
X8386Y1103D01*
X8388Y1102D01*
X8399Y1097D01*
X8406Y1080D01*
X8418Y1065D01*
X8433Y1053D01*
X8452Y1045D01*
X8471Y1042D01*
X8491Y1045D01*
X8510Y1053D01*
X8517Y1058D01*
X8519Y1059D01*
X8525Y1064D01*
X8530Y1067D01*
X8535Y1070D01*
X8541Y1072D01*
X8548Y1074D01*
X8555Y1076D01*
X8562Y1078D01*
X8580Y1080D01*
X8738D01*
X8753Y1083D01*
X8766Y1091D01*
X8857Y1182D01*
X8869Y1177D01*
Y1152D01*
X8869Y1150D01*
X8868Y1141D01*
X8866Y1124D01*
X8865Y1118D01*
X8864Y1114D01*
X8862Y1110D01*
X8862Y1109D01*
X8860Y1107D01*
X8860Y1105D01*
X8854Y1098D01*
X8847Y1080D01*
X8844Y1060D01*
X8847Y1040D01*
X8854Y1022D01*
X8866Y1006D01*
X8882Y994D01*
X8900Y987D01*
X8920Y984D01*
X8940Y987D01*
X8958Y994D01*
X8974Y1006D01*
X8986Y1022D01*
X8993Y1040D01*
X8996Y1060D01*
X8993Y1080D01*
X8986Y1098D01*
X8980Y1105D01*
X8980Y1107D01*
X8978Y1109D01*
X8978Y1110D01*
X8976Y1113D01*
X8974Y1125D01*
X8973Y1132D01*
X8971Y1156D01*
Y2518D01*
X8971Y2520D01*
X8972Y2529D01*
X8974Y2546D01*
X8975Y2552D01*
X8976Y2556D01*
X8978Y2560D01*
X8978Y2561D01*
X8980Y2563D01*
X8980Y2565D01*
X8986Y2572D01*
X8993Y2590D01*
X8996Y2610D01*
X8993Y2630D01*
X8986Y2648D01*
X8974Y2664D01*
X8958Y2676D01*
X8940Y2683D01*
X8920Y2686D01*
D02*
G37*
%LPD*%
G36*
X4292Y863D02*
X4290Y864D01*
X4288Y864D01*
X4286Y863D01*
X4283Y861D01*
X4280Y859D01*
X4276Y857D01*
X4268Y850D01*
X4259Y841D01*
X4241Y859D01*
X4246Y864D01*
X4257Y876D01*
X4259Y880D01*
X4261Y883D01*
X4263Y886D01*
X4264Y888D01*
X4264Y890D01*
X4263Y892D01*
X4292Y863D01*
D02*
G37*
G36*
X1889Y843D02*
X1885Y845D01*
X1881Y847D01*
X1875Y849D01*
X1868Y851D01*
X1861Y853D01*
X1842Y855D01*
X1832Y855D01*
X1808Y856D01*
Y906D01*
X1820Y906D01*
X1852Y908D01*
X1861Y909D01*
X1875Y913D01*
X1881Y915D01*
X1885Y917D01*
X1889Y919D01*
Y843D01*
D02*
G37*
G36*
X755Y917D02*
X759Y915D01*
X765Y913D01*
X772Y911D01*
X779Y909D01*
X798Y907D01*
X808Y907D01*
X832Y906D01*
Y856D01*
X820Y856D01*
X788Y854D01*
X779Y853D01*
X765Y849D01*
X759Y847D01*
X755Y845D01*
X751Y843D01*
Y919D01*
X755Y917D01*
D02*
G37*
G36*
X3878Y889D02*
X3882Y883D01*
X3888Y878D01*
X3894Y874D01*
X3902Y871D01*
X3910Y868D01*
X3918Y866D01*
X3928Y864D01*
X3938Y863D01*
X3949Y863D01*
X3938Y837D01*
X3925Y837D01*
X3885Y835D01*
X3877Y833D01*
X3864Y830D01*
X3859Y829D01*
X3855Y827D01*
X3873Y895D01*
X3878Y889D01*
D02*
G37*
G36*
X3355Y917D02*
X3359Y915D01*
X3365Y913D01*
X3372Y911D01*
X3379Y909D01*
X3398Y907D01*
X3408Y907D01*
X3432Y906D01*
Y856D01*
X3420Y856D01*
X3388Y854D01*
X3379Y853D01*
X3365Y849D01*
X3359Y847D01*
X3355Y845D01*
X3351Y843D01*
Y919D01*
X3355Y917D01*
D02*
G37*
G36*
X3287Y843D02*
X3283Y845D01*
X3279Y847D01*
X3273Y849D01*
X3266Y851D01*
X3259Y853D01*
X3240Y855D01*
X3230Y855D01*
X3206Y856D01*
Y906D01*
X3218Y906D01*
X3250Y908D01*
X3259Y909D01*
X3273Y913D01*
X3279Y915D01*
X3283Y917D01*
X3287Y919D01*
Y843D01*
D02*
G37*
G36*
X1957Y917D02*
X1961Y915D01*
X1967Y913D01*
X1974Y911D01*
X1981Y909D01*
X2000Y907D01*
X2010Y907D01*
X2034Y906D01*
Y856D01*
X2022Y856D01*
X1990Y854D01*
X1981Y853D01*
X1967Y849D01*
X1961Y847D01*
X1957Y845D01*
X1953Y843D01*
Y919D01*
X1957Y917D01*
D02*
G37*
G36*
X8510Y1152D02*
X8517Y1148D01*
X8524Y1144D01*
X8532Y1140D01*
X8541Y1138D01*
X8549Y1135D01*
X8559Y1133D01*
X8569Y1132D01*
X8579Y1131D01*
X8590Y1131D01*
X8590Y1106D01*
X8579Y1105D01*
X8559Y1103D01*
X8549Y1102D01*
X8540Y1099D01*
X8532Y1096D01*
X8524Y1093D01*
X8517Y1089D01*
X8510Y1085D01*
X8503Y1080D01*
X8504Y1157D01*
X8510Y1152D01*
D02*
G37*
G36*
X2592Y1260D02*
X2599Y1255D01*
X2607Y1251D01*
X2615Y1248D01*
X2623Y1245D01*
X2632Y1243D01*
X2641Y1241D01*
X2651Y1240D01*
X2662Y1239D01*
X2672Y1239D01*
Y1213D01*
X2662Y1213D01*
X2641Y1211D01*
X2632Y1209D01*
X2623Y1207D01*
X2615Y1204D01*
X2607Y1201D01*
X2599Y1197D01*
X2592Y1192D01*
X2586Y1188D01*
Y1264D01*
X2592Y1260D01*
D02*
G37*
G36*
X6084Y1260D02*
X6091Y1255D01*
X6099Y1251D01*
X6107Y1248D01*
X6115Y1245D01*
X6124Y1243D01*
X6133Y1241D01*
X6143Y1240D01*
X6154Y1239D01*
X6164Y1239D01*
Y1213D01*
X6154Y1213D01*
X6133Y1211D01*
X6124Y1209D01*
X6115Y1207D01*
X6107Y1204D01*
X6099Y1201D01*
X6091Y1197D01*
X6084Y1192D01*
X6078Y1188D01*
Y1264D01*
X6084Y1260D01*
D02*
G37*
G36*
X6014Y1188D02*
X6008Y1192D01*
X6001Y1197D01*
X5993Y1201D01*
X5985Y1204D01*
X5977Y1207D01*
X5968Y1209D01*
X5959Y1211D01*
X5949Y1212D01*
X5938Y1213D01*
X5928Y1213D01*
Y1239D01*
X5938Y1239D01*
X5959Y1241D01*
X5968Y1243D01*
X5977Y1245D01*
X5985Y1248D01*
X5993Y1251D01*
X6001Y1255D01*
X6008Y1260D01*
X6014Y1264D01*
Y1188D01*
D02*
G37*
G36*
X3922Y1188D02*
X3916Y1192D01*
X3909Y1197D01*
X3901Y1201D01*
X3893Y1204D01*
X3885Y1207D01*
X3876Y1209D01*
X3867Y1211D01*
X3857Y1212D01*
X3846Y1213D01*
X3836Y1213D01*
Y1239D01*
X3846Y1239D01*
X3867Y1241D01*
X3876Y1243D01*
X3885Y1245D01*
X3893Y1248D01*
X3901Y1251D01*
X3909Y1255D01*
X3916Y1260D01*
X3922Y1264D01*
Y1188D01*
D02*
G37*
G36*
X3484Y1260D02*
X3491Y1255D01*
X3499Y1251D01*
X3507Y1248D01*
X3515Y1245D01*
X3524Y1243D01*
X3533Y1241D01*
X3543Y1240D01*
X3554Y1239D01*
X3564Y1239D01*
Y1213D01*
X3554Y1213D01*
X3533Y1211D01*
X3524Y1209D01*
X3515Y1207D01*
X3507Y1204D01*
X3499Y1201D01*
X3491Y1197D01*
X3484Y1192D01*
X3478Y1188D01*
Y1264D01*
X3484Y1260D01*
D02*
G37*
G36*
X3414Y1188D02*
X3408Y1192D01*
X3401Y1197D01*
X3393Y1201D01*
X3385Y1204D01*
X3377Y1207D01*
X3368Y1209D01*
X3359Y1211D01*
X3349Y1212D01*
X3338Y1213D01*
X3328Y1213D01*
Y1239D01*
X3338Y1239D01*
X3359Y1241D01*
X3368Y1243D01*
X3377Y1245D01*
X3385Y1248D01*
X3393Y1251D01*
X3401Y1255D01*
X3408Y1260D01*
X3414Y1264D01*
Y1188D01*
D02*
G37*
G36*
X8945Y1161D02*
X8947Y1129D01*
X8948Y1120D01*
X8952Y1106D01*
X8954Y1100D01*
X8956Y1096D01*
X8958Y1092D01*
X8882D01*
X8884Y1096D01*
X8886Y1100D01*
X8888Y1106D01*
X8890Y1113D01*
X8892Y1120D01*
X8894Y1139D01*
X8894Y1149D01*
X8895Y1173D01*
X8945D01*
X8945Y1161D01*
D02*
G37*
G36*
X8256Y1156D02*
X8263Y1152D01*
X8270Y1148D01*
X8278Y1144D01*
X8287Y1142D01*
X8295Y1139D01*
X8305Y1138D01*
X8315Y1136D01*
X8325Y1135D01*
X8336Y1135D01*
Y1110D01*
X8325Y1110D01*
X8305Y1107D01*
X8295Y1106D01*
X8287Y1103D01*
X8278Y1101D01*
X8270Y1097D01*
X8263Y1093D01*
X8256Y1089D01*
X8250Y1084D01*
Y1161D01*
X8256Y1156D01*
D02*
G37*
G36*
X7748Y1154D02*
X7755Y1150D01*
X7762Y1146D01*
X7770Y1142D01*
X7779Y1140D01*
X7787Y1137D01*
X7797Y1136D01*
X7807Y1134D01*
X7817Y1133D01*
X7828Y1133D01*
Y1108D01*
X7817Y1108D01*
X7797Y1105D01*
X7787Y1104D01*
X7779Y1101D01*
X7770Y1099D01*
X7762Y1095D01*
X7755Y1091D01*
X7748Y1087D01*
X7742Y1082D01*
Y1159D01*
X7748Y1154D01*
D02*
G37*
G36*
X5192Y1260D02*
X5199Y1255D01*
X5207Y1251D01*
X5215Y1248D01*
X5223Y1245D01*
X5232Y1243D01*
X5241Y1241D01*
X5251Y1240D01*
X5262Y1239D01*
X5272Y1239D01*
Y1213D01*
X5262Y1213D01*
X5241Y1211D01*
X5232Y1209D01*
X5223Y1207D01*
X5215Y1204D01*
X5207Y1201D01*
X5199Y1197D01*
X5192Y1192D01*
X5186Y1188D01*
Y1264D01*
X5192Y1260D01*
D02*
G37*
G36*
X5122Y1188D02*
X5116Y1192D01*
X5109Y1197D01*
X5101Y1201D01*
X5093Y1204D01*
X5085Y1207D01*
X5076Y1209D01*
X5067Y1211D01*
X5057Y1212D01*
X5046Y1213D01*
X5036Y1213D01*
Y1239D01*
X5046Y1239D01*
X5067Y1241D01*
X5076Y1243D01*
X5085Y1245D01*
X5093Y1248D01*
X5101Y1251D01*
X5109Y1255D01*
X5116Y1260D01*
X5122Y1264D01*
Y1188D01*
D02*
G37*
G36*
X4684Y1260D02*
X4691Y1255D01*
X4699Y1251D01*
X4707Y1248D01*
X4715Y1245D01*
X4724Y1243D01*
X4733Y1241D01*
X4743Y1240D01*
X4754Y1239D01*
X4764Y1239D01*
Y1213D01*
X4754Y1213D01*
X4733Y1211D01*
X4724Y1209D01*
X4715Y1207D01*
X4707Y1204D01*
X4699Y1201D01*
X4691Y1197D01*
X4684Y1192D01*
X4678Y1188D01*
Y1264D01*
X4684Y1260D01*
D02*
G37*
G36*
X3744Y360D02*
X3767Y340D01*
X3772Y336D01*
X3776Y334D01*
X3780Y332D01*
X3784Y330D01*
X3787Y330D01*
X3739Y309D01*
X3741Y311D01*
X3741Y314D01*
X3741Y318D01*
X3740Y321D01*
X3738Y325D01*
X3736Y329D01*
X3733Y334D01*
X3729Y338D01*
X3724Y344D01*
X3719Y349D01*
X3737Y367D01*
X3744Y360D01*
D02*
G37*
G36*
X4598Y424D02*
X4605Y419D01*
X4613Y415D01*
X4621Y412D01*
X4629Y409D01*
X4638Y407D01*
X4647Y405D01*
X4657Y404D01*
X4668Y403D01*
X4678Y403D01*
Y377D01*
X4668Y377D01*
X4647Y375D01*
X4638Y373D01*
X4629Y371D01*
X4621Y368D01*
X4613Y365D01*
X4605Y361D01*
X4598Y356D01*
X4592Y352D01*
Y428D01*
X4598Y424D01*
D02*
G37*
G36*
X1226Y600D02*
X1221Y593D01*
X1217Y585D01*
X1214Y577D01*
X1211Y569D01*
X1209Y560D01*
X1207Y551D01*
X1206Y541D01*
X1205Y530D01*
X1205Y520D01*
X1179D01*
X1179Y530D01*
X1177Y551D01*
X1175Y560D01*
X1173Y569D01*
X1170Y577D01*
X1167Y585D01*
X1163Y593D01*
X1158Y600D01*
X1154Y606D01*
X1230D01*
X1226Y600D01*
D02*
G37*
G36*
X4099Y327D02*
X4099Y325D01*
X4100Y322D01*
X4102Y319D01*
X4104Y316D01*
X4107Y312D01*
X4114Y304D01*
X4124Y294D01*
X4106Y276D01*
X4102Y280D01*
X4089Y291D01*
X4086Y293D01*
X4083Y295D01*
X4080Y296D01*
X4078Y297D01*
X4076Y297D01*
X4074Y296D01*
X4099Y329D01*
X4099Y327D01*
D02*
G37*
G36*
X1480Y600D02*
X1475Y593D01*
X1471Y585D01*
X1468Y577D01*
X1465Y569D01*
X1463Y560D01*
X1461Y551D01*
X1460Y541D01*
X1459Y530D01*
X1459Y520D01*
X1433D01*
X1433Y530D01*
X1431Y551D01*
X1429Y560D01*
X1427Y569D01*
X1424Y577D01*
X1421Y585D01*
X1417Y593D01*
X1412Y600D01*
X1408Y606D01*
X1484D01*
X1480Y600D01*
D02*
G37*
G36*
X7398Y453D02*
X7413Y441D01*
X7414Y440D01*
X7415Y439D01*
X7416Y440D01*
X7397Y416D01*
X7397Y417D01*
X7396Y418D01*
X7395Y419D01*
X7394Y421D01*
X7390Y425D01*
X7377Y439D01*
X7395Y457D01*
X7398Y453D01*
D02*
G37*
G36*
X4493Y475D02*
X4509Y462D01*
X4517Y457D01*
X4525Y452D01*
X4533Y448D01*
X4541Y445D01*
X4549Y443D01*
X4557Y441D01*
X4565Y440D01*
X4510Y385D01*
X4509Y393D01*
X4507Y401D01*
X4505Y409D01*
X4502Y417D01*
X4498Y425D01*
X4493Y433D01*
X4488Y441D01*
X4482Y449D01*
X4475Y457D01*
X4467Y465D01*
X4485Y483D01*
X4493Y475D01*
D02*
G37*
G36*
X4837Y596D02*
X4833Y592D01*
X4830Y587D01*
X4828Y581D01*
X4826Y574D01*
X4824Y567D01*
X4822Y559D01*
X4822Y558D01*
X4823Y556D01*
X4825Y553D01*
X4827Y550D01*
X4830Y548D01*
X4833Y546D01*
X4837Y545D01*
X4841Y544D01*
X4846Y543D01*
X4808Y518D01*
X4770Y543D01*
X4775Y544D01*
X4779Y545D01*
X4783Y546D01*
X4786Y548D01*
X4789Y550D01*
X4791Y553D01*
X4793Y556D01*
X4794Y558D01*
X4794Y559D01*
X4792Y567D01*
X4790Y574D01*
X4788Y581D01*
X4786Y587D01*
X4783Y592D01*
X4779Y596D01*
X4775Y600D01*
X4841D01*
X4837Y596D01*
D02*
G37*
G36*
X4009Y429D02*
X4038Y404D01*
X4044Y399D01*
X4056Y392D01*
X4061Y389D01*
X4066Y387D01*
X4006Y364D01*
X4008Y368D01*
X4009Y373D01*
X4009Y378D01*
X4008Y383D01*
X4006Y388D01*
X4003Y394D01*
X3999Y400D01*
X3995Y406D01*
X3989Y413D01*
X3983Y419D01*
X4001Y437D01*
X4009Y429D01*
D02*
G37*
G36*
X972Y600D02*
X968Y594D01*
X965Y586D01*
X961Y578D01*
X959Y570D01*
X957Y561D01*
X955Y552D01*
X954Y542D01*
X953Y520D01*
X927Y519D01*
X927Y530D01*
X926Y540D01*
X925Y550D01*
X923Y559D01*
X921Y568D01*
X918Y576D01*
X914Y584D01*
X910Y592D01*
X905Y599D01*
X900Y605D01*
X977Y607D01*
X972Y600D01*
D02*
G37*
G36*
X1988Y600D02*
X1983Y593D01*
X1979Y585D01*
X1976Y577D01*
X1973Y569D01*
X1971Y560D01*
X1969Y551D01*
X1968Y541D01*
X1967Y530D01*
X1967Y520D01*
X1941D01*
X1941Y530D01*
X1939Y551D01*
X1937Y560D01*
X1935Y569D01*
X1932Y577D01*
X1929Y585D01*
X1925Y593D01*
X1920Y600D01*
X1916Y606D01*
X1992D01*
X1988Y600D01*
D02*
G37*
G36*
X2393Y777D02*
X2399Y772D01*
X2406Y768D01*
X2414Y764D01*
X2422Y760D01*
X2430Y758D01*
X2439Y755D01*
X2449Y754D01*
X2459Y753D01*
X2470Y753D01*
X2465Y727D01*
X2453Y727D01*
X2432Y726D01*
X2422Y724D01*
X2405Y721D01*
X2397Y718D01*
X2390Y716D01*
X2384Y712D01*
X2379Y709D01*
X2387Y783D01*
X2393Y777D01*
D02*
G37*
G36*
X2818Y702D02*
X2812Y706D01*
X2805Y711D01*
X2797Y715D01*
X2789Y718D01*
X2781Y721D01*
X2772Y723D01*
X2763Y725D01*
X2753Y726D01*
X2742Y727D01*
X2732Y727D01*
Y753D01*
X2742Y753D01*
X2763Y755D01*
X2772Y757D01*
X2781Y759D01*
X2789Y762D01*
X2797Y765D01*
X2805Y769D01*
X2812Y774D01*
X2818Y778D01*
Y702D01*
D02*
G37*
G36*
X4525Y810D02*
X4520Y809D01*
X4515Y808D01*
X4510Y805D01*
X4504Y802D01*
X4497Y797D01*
X4483Y786D01*
X4475Y779D01*
X4458Y762D01*
X4422Y798D01*
X4431Y807D01*
X4452Y830D01*
X4457Y837D01*
X4465Y850D01*
X4468Y855D01*
X4469Y860D01*
X4470Y865D01*
X4525Y810D01*
D02*
G37*
G36*
X5888Y822D02*
X5884Y824D01*
X5880Y826D01*
X5874Y828D01*
X5867Y830D01*
X5860Y832D01*
X5841Y834D01*
X5831Y834D01*
X5807Y835D01*
Y885D01*
X5819Y885D01*
X5851Y887D01*
X5860Y888D01*
X5874Y892D01*
X5880Y894D01*
X5884Y896D01*
X5888Y898D01*
Y822D01*
D02*
G37*
G36*
X4556Y896D02*
X4560Y894D01*
X4566Y892D01*
X4573Y890D01*
X4580Y888D01*
X4599Y886D01*
X4609Y886D01*
X4633Y885D01*
Y835D01*
X4621Y835D01*
X4589Y833D01*
X4580Y832D01*
X4566Y828D01*
X4560Y826D01*
X4556Y824D01*
X4552Y822D01*
Y898D01*
X4556Y896D01*
D02*
G37*
G36*
X6900Y260D02*
X6895Y263D01*
X6890Y265D01*
X6884Y265D01*
X6878Y265D01*
X6871Y263D01*
X6864Y260D01*
X6857Y255D01*
X6849Y250D01*
X6841Y243D01*
X6833Y235D01*
X6822Y259D01*
X6885Y321D01*
X6900Y260D01*
D02*
G37*
G36*
X2242Y600D02*
X2237Y593D01*
X2233Y585D01*
X2230Y577D01*
X2227Y569D01*
X2225Y560D01*
X2223Y551D01*
X2222Y541D01*
X2221Y530D01*
X2221Y520D01*
X2195D01*
X2195Y530D01*
X2193Y551D01*
X2191Y560D01*
X2189Y569D01*
X2186Y577D01*
X2183Y585D01*
X2179Y593D01*
X2174Y600D01*
X2170Y606D01*
X2246D01*
X2242Y600D01*
D02*
G37*
G36*
X3818Y314D02*
X3825Y309D01*
X3833Y305D01*
X3841Y302D01*
X3849Y299D01*
X3858Y297D01*
X3867Y295D01*
X3877Y294D01*
X3888Y293D01*
X3898Y293D01*
Y267D01*
X3888Y267D01*
X3867Y265D01*
X3858Y263D01*
X3849Y261D01*
X3841Y258D01*
X3833Y255D01*
X3825Y251D01*
X3818Y246D01*
X3812Y242D01*
Y318D01*
X3818Y314D01*
D02*
G37*
G36*
X8221Y732D02*
X8222Y715D01*
X8224Y707D01*
X8225Y701D01*
X8227Y695D01*
X8230Y689D01*
X8232Y684D01*
X8235Y681D01*
X8239Y677D01*
X8177D01*
X8181Y681D01*
X8184Y684D01*
X8186Y689D01*
X8189Y695D01*
X8191Y701D01*
X8192Y707D01*
X8194Y715D01*
X8195Y723D01*
X8195Y742D01*
X8221D01*
X8221Y732D01*
D02*
G37*
G36*
X3591Y267D02*
X3593Y259D01*
X3595Y251D01*
X3598Y243D01*
X3602Y235D01*
X3607Y227D01*
X3612Y219D01*
X3618Y211D01*
X3625Y203D01*
X3633Y195D01*
X3615Y177D01*
X3607Y185D01*
X3591Y198D01*
X3583Y203D01*
X3575Y208D01*
X3567Y212D01*
X3559Y215D01*
X3551Y217D01*
X3543Y219D01*
X3539Y220D01*
X3536Y219D01*
X3528Y218D01*
X3521Y216D01*
X3513Y213D01*
X3506Y209D01*
X3498Y204D01*
X3490Y199D01*
X3483Y193D01*
X3475Y187D01*
X3467Y179D01*
X3449Y197D01*
X3457Y205D01*
X3469Y220D01*
X3474Y228D01*
X3479Y236D01*
X3483Y243D01*
X3486Y251D01*
X3488Y258D01*
X3489Y266D01*
X3490Y273D01*
X3539Y224D01*
X3590Y275D01*
X3591Y267D01*
D02*
G37*
G36*
X3288Y1902D02*
X3282Y1906D01*
X3275Y1911D01*
X3267Y1915D01*
X3259Y1918D01*
X3251Y1921D01*
X3242Y1923D01*
X3233Y1925D01*
X3223Y1926D01*
X3213Y1927D01*
X3202Y1927D01*
Y1953D01*
X3213Y1953D01*
X3233Y1955D01*
X3242Y1957D01*
X3251Y1959D01*
X3259Y1962D01*
X3267Y1965D01*
X3275Y1969D01*
X3282Y1974D01*
X3288Y1978D01*
Y1902D01*
D02*
G37*
G36*
X1268Y1974D02*
X1275Y1969D01*
X1283Y1965D01*
X1291Y1962D01*
X1299Y1959D01*
X1308Y1957D01*
X1317Y1955D01*
X1327Y1954D01*
X1338Y1953D01*
X1348Y1953D01*
Y1927D01*
X1338Y1927D01*
X1317Y1925D01*
X1308Y1923D01*
X1299Y1921D01*
X1291Y1918D01*
X1283Y1915D01*
X1275Y1911D01*
X1268Y1906D01*
X1262Y1902D01*
Y1978D01*
X1268Y1974D01*
D02*
G37*
G36*
X4993Y1897D02*
X4987Y1903D01*
X4981Y1908D01*
X4974Y1912D01*
X4966Y1916D01*
X4958Y1920D01*
X4950Y1922D01*
X4941Y1925D01*
X4931Y1926D01*
X4921Y1927D01*
X4910Y1927D01*
X4915Y1953D01*
X4927Y1953D01*
X4948Y1954D01*
X4958Y1956D01*
X4975Y1959D01*
X4983Y1962D01*
X4990Y1964D01*
X4996Y1968D01*
X5001Y1971D01*
X4993Y1897D01*
D02*
G37*
G36*
X4813Y2112D02*
X4805Y2111D01*
X4797Y2109D01*
X4789Y2107D01*
X4781Y2104D01*
X4773Y2100D01*
X4765Y2095D01*
X4757Y2090D01*
X4749Y2084D01*
X4741Y2077D01*
X4733Y2069D01*
X4715Y2087D01*
X4723Y2095D01*
X4736Y2111D01*
X4741Y2119D01*
X4746Y2127D01*
X4750Y2135D01*
X4753Y2143D01*
X4755Y2151D01*
X4757Y2159D01*
X4758Y2167D01*
X4813Y2112D01*
D02*
G37*
G36*
X5743Y2018D02*
X5745Y1997D01*
X5747Y1988D01*
X5749Y1979D01*
X5752Y1971D01*
X5755Y1963D01*
X5759Y1955D01*
X5764Y1948D01*
X5768Y1942D01*
X5692D01*
X5696Y1948D01*
X5701Y1955D01*
X5705Y1963D01*
X5708Y1971D01*
X5711Y1979D01*
X5713Y1988D01*
X5715Y1997D01*
X5716Y2007D01*
X5717Y2018D01*
X5717Y2028D01*
X5743D01*
X5743Y2018D01*
D02*
G37*
G36*
X3358Y1974D02*
X3365Y1969D01*
X3373Y1965D01*
X3381Y1962D01*
X3389Y1959D01*
X3398Y1957D01*
X3407Y1955D01*
X3417Y1954D01*
X3428Y1953D01*
X3438Y1953D01*
Y1927D01*
X3428Y1927D01*
X3407Y1925D01*
X3398Y1923D01*
X3389Y1921D01*
X3381Y1918D01*
X3373Y1915D01*
X3365Y1911D01*
X3358Y1906D01*
X3352Y1902D01*
Y1978D01*
X3358Y1974D01*
D02*
G37*
G36*
X2084Y1610D02*
X2091Y1605D01*
X2099Y1601D01*
X2107Y1598D01*
X2115Y1595D01*
X2124Y1593D01*
X2133Y1591D01*
X2143Y1590D01*
X2154Y1589D01*
X2164Y1589D01*
Y1563D01*
X2154Y1563D01*
X2133Y1561D01*
X2124Y1559D01*
X2115Y1557D01*
X2107Y1554D01*
X2099Y1551D01*
X2091Y1547D01*
X2084Y1542D01*
X2078Y1538D01*
Y1614D01*
X2084Y1610D01*
D02*
G37*
G36*
X2014Y1538D02*
X2008Y1542D01*
X2001Y1547D01*
X1993Y1551D01*
X1985Y1554D01*
X1977Y1557D01*
X1968Y1559D01*
X1959Y1561D01*
X1949Y1562D01*
X1938Y1563D01*
X1928Y1563D01*
Y1589D01*
X1938Y1589D01*
X1959Y1591D01*
X1968Y1593D01*
X1977Y1595D01*
X1985Y1598D01*
X1993Y1601D01*
X2001Y1605D01*
X2008Y1610D01*
X2014Y1614D01*
Y1538D01*
D02*
G37*
G36*
X1392Y1610D02*
X1399Y1605D01*
X1407Y1601D01*
X1415Y1598D01*
X1423Y1595D01*
X1432Y1593D01*
X1441Y1591D01*
X1451Y1590D01*
X1462Y1589D01*
X1472Y1589D01*
Y1563D01*
X1462Y1563D01*
X1441Y1561D01*
X1432Y1559D01*
X1423Y1557D01*
X1415Y1554D01*
X1407Y1551D01*
X1399Y1547D01*
X1392Y1542D01*
X1386Y1538D01*
Y1614D01*
X1392Y1610D01*
D02*
G37*
G36*
X7053Y1837D02*
X7047Y1841D01*
X7040Y1846D01*
X7032Y1850D01*
X7024Y1853D01*
X7016Y1856D01*
X7007Y1858D01*
X6998Y1860D01*
X6988Y1861D01*
X6977Y1862D01*
X6967Y1862D01*
Y1888D01*
X6977Y1888D01*
X6998Y1890D01*
X7007Y1892D01*
X7016Y1894D01*
X7024Y1897D01*
X7032Y1900D01*
X7040Y1904D01*
X7047Y1909D01*
X7053Y1913D01*
Y1837D01*
D02*
G37*
G36*
X8441Y1579D02*
X8436Y1582D01*
X8430Y1586D01*
X8423Y1588D01*
X8415Y1591D01*
X8407Y1593D01*
X8398Y1594D01*
X8378Y1597D01*
X8367Y1597D01*
X8355Y1597D01*
X8350Y1623D01*
X8361Y1623D01*
X8371Y1624D01*
X8381Y1625D01*
X8390Y1628D01*
X8398Y1630D01*
X8406Y1634D01*
X8414Y1638D01*
X8421Y1642D01*
X8427Y1647D01*
X8433Y1653D01*
X8441Y1579D01*
D02*
G37*
G36*
X7481Y1635D02*
X7419Y1572D01*
X7397Y1585D01*
X7405Y1593D01*
X7411Y1601D01*
X7416Y1608D01*
X7420Y1615D01*
X7423Y1622D01*
X7425Y1628D01*
X7425Y1634D01*
X7425Y1640D01*
X7423Y1645D01*
X7420Y1650D01*
X7481Y1635D01*
D02*
G37*
G36*
X3373Y2325D02*
X3365Y2317D01*
X3352Y2301D01*
X3347Y2293D01*
X3342Y2285D01*
X3338Y2277D01*
X3335Y2270D01*
X3333Y2262D01*
X3331Y2254D01*
X3330Y2246D01*
X3280Y2295D01*
X3230Y2246D01*
X3229Y2254D01*
X3227Y2262D01*
X3225Y2270D01*
X3222Y2277D01*
X3218Y2285D01*
X3213Y2293D01*
X3208Y2301D01*
X3202Y2309D01*
X3195Y2317D01*
X3187Y2325D01*
X3205Y2343D01*
X3213Y2335D01*
X3229Y2322D01*
X3237Y2317D01*
X3245Y2312D01*
X3253Y2308D01*
X3261Y2305D01*
X3269Y2303D01*
X3277Y2301D01*
X3280Y2301D01*
X3284Y2301D01*
X3292Y2303D01*
X3300Y2305D01*
X3307Y2308D01*
X3315Y2312D01*
X3323Y2317D01*
X3331Y2322D01*
X3339Y2328D01*
X3347Y2335D01*
X3355Y2343D01*
X3373Y2325D01*
D02*
G37*
G36*
X4142Y2285D02*
X4140Y2291D01*
X4136Y2296D01*
X4132Y2301D01*
X4126Y2305D01*
X4120Y2309D01*
X4113Y2311D01*
X4104Y2314D01*
X4095Y2315D01*
X4084Y2316D01*
X4073Y2317D01*
X4079Y2342D01*
X4169Y2346D01*
X4142Y2285D01*
D02*
G37*
G36*
X4213Y2345D02*
X4217Y2344D01*
X4222Y2344D01*
X4247Y2342D01*
X4301Y2342D01*
X4307Y2316D01*
X4296Y2316D01*
X4285Y2315D01*
X4276Y2313D01*
X4268Y2311D01*
X4260Y2308D01*
X4254Y2305D01*
X4248Y2301D01*
X4244Y2296D01*
X4240Y2291D01*
X4238Y2285D01*
X4211Y2346D01*
X4213Y2345D01*
D02*
G37*
G36*
X8956Y2574D02*
X8954Y2570D01*
X8952Y2564D01*
X8950Y2557D01*
X8948Y2550D01*
X8946Y2531D01*
X8946Y2521D01*
X8945Y2497D01*
X8895D01*
X8895Y2509D01*
X8893Y2541D01*
X8892Y2550D01*
X8888Y2564D01*
X8886Y2570D01*
X8884Y2574D01*
X8882Y2578D01*
X8958D01*
X8956Y2574D01*
D02*
G37*
G36*
X7175Y2396D02*
X7175Y2396D01*
X7174Y2396D01*
X7173Y2395D01*
X7163Y2385D01*
X7157Y2379D01*
X7139Y2397D01*
X7156Y2415D01*
X7175Y2396D01*
D02*
G37*
G36*
X7422Y2343D02*
X7420Y2344D01*
X7418Y2344D01*
X7416Y2343D01*
X7413Y2341D01*
X7410Y2339D01*
X7406Y2337D01*
X7398Y2330D01*
X7389Y2321D01*
X7371Y2339D01*
X7376Y2344D01*
X7387Y2356D01*
X7389Y2360D01*
X7391Y2363D01*
X7393Y2366D01*
X7394Y2368D01*
X7394Y2370D01*
X7393Y2372D01*
X7422Y2343D01*
D02*
G37*
G36*
X4893Y2247D02*
X4885Y2239D01*
X4879Y2231D01*
X4873Y2223D01*
X4868Y2215D01*
X4864Y2207D01*
X4861Y2199D01*
X4859Y2191D01*
X4858Y2184D01*
X4857Y2176D01*
X4858Y2168D01*
X4798Y2211D01*
X4804Y2213D01*
X4810Y2215D01*
X4817Y2218D01*
X4823Y2222D01*
X4830Y2226D01*
X4838Y2231D01*
X4853Y2244D01*
X4861Y2252D01*
X4870Y2260D01*
X4893Y2247D01*
D02*
G37*
G36*
X6628Y2214D02*
X6635Y2209D01*
X6643Y2205D01*
X6651Y2202D01*
X6659Y2199D01*
X6668Y2197D01*
X6677Y2195D01*
X6687Y2194D01*
X6698Y2193D01*
X6708Y2193D01*
Y2167D01*
X6698Y2167D01*
X6677Y2165D01*
X6668Y2163D01*
X6659Y2161D01*
X6651Y2158D01*
X6643Y2155D01*
X6635Y2151D01*
X6628Y2146D01*
X6622Y2142D01*
Y2218D01*
X6628Y2214D01*
D02*
G37*
G36*
X5764Y2152D02*
X5759Y2145D01*
X5755Y2137D01*
X5752Y2129D01*
X5749Y2121D01*
X5747Y2112D01*
X5745Y2103D01*
X5744Y2093D01*
X5743Y2082D01*
X5743Y2072D01*
X5717D01*
X5717Y2082D01*
X5715Y2103D01*
X5713Y2112D01*
X5711Y2121D01*
X5708Y2129D01*
X5705Y2137D01*
X5701Y2145D01*
X5696Y2152D01*
X5692Y2158D01*
X5768D01*
X5764Y2152D01*
D02*
G37*
G36*
X8239Y2245D02*
X8235Y2241D01*
X8232Y2237D01*
X8229Y2233D01*
X8227Y2229D01*
X8225Y2225D01*
X8224Y2220D01*
X8222Y2216D01*
X8221Y2211D01*
X8221Y2206D01*
X8221Y2201D01*
X8195D01*
X8195Y2206D01*
X8195Y2211D01*
X8194Y2216D01*
X8192Y2220D01*
X8191Y2225D01*
X8189Y2229D01*
X8186Y2233D01*
X8184Y2237D01*
X8181Y2241D01*
X8177Y2245D01*
X8190Y2268D01*
X8194Y2265D01*
X8197Y2262D01*
X8201Y2260D01*
X8204Y2259D01*
X8208Y2259D01*
X8212Y2259D01*
X8215Y2260D01*
X8219Y2262D01*
X8222Y2265D01*
X8226Y2268D01*
X8239Y2245D01*
D02*
G37*
G36*
X1459Y2270D02*
X1461Y2249D01*
X1463Y2240D01*
X1465Y2231D01*
X1468Y2223D01*
X1471Y2215D01*
X1475Y2207D01*
X1480Y2200D01*
X1484Y2194D01*
X1408D01*
X1412Y2200D01*
X1417Y2207D01*
X1421Y2215D01*
X1424Y2223D01*
X1427Y2231D01*
X1429Y2240D01*
X1431Y2249D01*
X1432Y2259D01*
X1433Y2270D01*
X1433Y2280D01*
X1459D01*
X1459Y2270D01*
D02*
G37*
G36*
X1205D02*
X1207Y2249D01*
X1209Y2240D01*
X1211Y2231D01*
X1214Y2223D01*
X1217Y2215D01*
X1221Y2207D01*
X1226Y2200D01*
X1230Y2194D01*
X1154D01*
X1158Y2200D01*
X1163Y2207D01*
X1167Y2215D01*
X1170Y2223D01*
X1173Y2231D01*
X1175Y2240D01*
X1177Y2249D01*
X1178Y2259D01*
X1179Y2270D01*
X1179Y2280D01*
X1205D01*
X1205Y2270D01*
D02*
G37*
G36*
X1322Y1538D02*
X1316Y1542D01*
X1309Y1547D01*
X1301Y1551D01*
X1293Y1554D01*
X1285Y1557D01*
X1276Y1559D01*
X1267Y1561D01*
X1257Y1562D01*
X1246Y1563D01*
X1236Y1563D01*
Y1589D01*
X1246Y1589D01*
X1267Y1591D01*
X1276Y1593D01*
X1285Y1595D01*
X1293Y1598D01*
X1301Y1601D01*
X1309Y1605D01*
X1316Y1610D01*
X1322Y1614D01*
Y1538D01*
D02*
G37*
G36*
X1078Y1444D02*
X1085Y1439D01*
X1093Y1435D01*
X1101Y1432D01*
X1109Y1429D01*
X1118Y1427D01*
X1127Y1425D01*
X1137Y1424D01*
X1148Y1423D01*
X1158Y1423D01*
Y1397D01*
X1148Y1397D01*
X1127Y1395D01*
X1118Y1393D01*
X1109Y1391D01*
X1101Y1388D01*
X1093Y1385D01*
X1085Y1381D01*
X1078Y1376D01*
X1072Y1372D01*
Y1448D01*
X1078Y1444D01*
D02*
G37*
G36*
X8377Y1382D02*
X8373Y1375D01*
X8369Y1368D01*
X8366Y1361D01*
X8363Y1353D01*
X8361Y1344D01*
X8359Y1335D01*
X8358Y1325D01*
X8357Y1315D01*
X8357Y1305D01*
X8332D01*
X8332Y1315D01*
X8330Y1335D01*
X8328Y1344D01*
X8326Y1353D01*
X8323Y1361D01*
X8320Y1368D01*
X8316Y1375D01*
X8312Y1382D01*
X8307Y1388D01*
X8382D01*
X8377Y1382D01*
D02*
G37*
G36*
X7970Y1320D02*
X7963Y1320D01*
X7957Y1319D01*
X7950Y1317D01*
X7943Y1314D01*
X7937Y1311D01*
X7929Y1306D01*
X7922Y1302D01*
X7915Y1296D01*
X7908Y1289D01*
X7900Y1282D01*
X7882Y1300D01*
X7889Y1308D01*
X7902Y1322D01*
X7906Y1329D01*
X7911Y1337D01*
X7914Y1343D01*
X7917Y1350D01*
X7919Y1357D01*
X7920Y1363D01*
X7920Y1370D01*
X7970Y1320D01*
D02*
G37*
G36*
X4388Y1372D02*
X4382Y1376D01*
X4375Y1381D01*
X4367Y1385D01*
X4359Y1388D01*
X4351Y1391D01*
X4342Y1393D01*
X4333Y1395D01*
X4323Y1396D01*
X4312Y1397D01*
X4302Y1397D01*
Y1423D01*
X4312Y1423D01*
X4333Y1425D01*
X4342Y1427D01*
X4351Y1429D01*
X4359Y1432D01*
X4367Y1435D01*
X4375Y1439D01*
X4382Y1444D01*
X4388Y1448D01*
Y1372D01*
D02*
G37*
G36*
X2798Y1444D02*
X2805Y1439D01*
X2813Y1435D01*
X2821Y1432D01*
X2829Y1429D01*
X2838Y1427D01*
X2847Y1425D01*
X2857Y1424D01*
X2868Y1423D01*
X2878Y1423D01*
Y1397D01*
X2868Y1397D01*
X2847Y1395D01*
X2838Y1393D01*
X2829Y1391D01*
X2821Y1388D01*
X2813Y1385D01*
X2805Y1381D01*
X2798Y1376D01*
X2792Y1372D01*
Y1448D01*
X2798Y1444D01*
D02*
G37*
G36*
X2728Y1372D02*
X2722Y1376D01*
X2715Y1381D01*
X2707Y1385D01*
X2699Y1388D01*
X2691Y1391D01*
X2682Y1393D01*
X2673Y1395D01*
X2663Y1396D01*
X2652Y1397D01*
X2642Y1397D01*
Y1423D01*
X2652Y1423D01*
X2673Y1425D01*
X2682Y1427D01*
X2691Y1429D01*
X2699Y1432D01*
X2707Y1435D01*
X2715Y1439D01*
X2722Y1444D01*
X2728Y1448D01*
Y1372D01*
D02*
G37*
G36*
X1318Y1192D02*
X1312Y1196D01*
X1305Y1201D01*
X1297Y1205D01*
X1289Y1208D01*
X1281Y1211D01*
X1272Y1213D01*
X1263Y1215D01*
X1253Y1216D01*
X1242Y1217D01*
X1232Y1217D01*
Y1243D01*
X1242Y1243D01*
X1263Y1245D01*
X1272Y1247D01*
X1281Y1249D01*
X1289Y1252D01*
X1297Y1255D01*
X1305Y1259D01*
X1312Y1264D01*
X1318Y1268D01*
Y1192D01*
D02*
G37*
G36*
X883Y1261D02*
X890Y1257D01*
X897Y1254D01*
X905Y1251D01*
X913Y1248D01*
X922Y1246D01*
X931Y1245D01*
X941Y1244D01*
X963Y1243D01*
X965Y1217D01*
X955Y1217D01*
X945Y1216D01*
X935Y1215D01*
X926Y1213D01*
X917Y1210D01*
X908Y1207D01*
X900Y1203D01*
X893Y1199D01*
X886Y1194D01*
X879Y1189D01*
X877Y1265D01*
X883Y1261D01*
D02*
G37*
G36*
X3992Y1260D02*
X3999Y1255D01*
X4007Y1251D01*
X4015Y1248D01*
X4023Y1245D01*
X4032Y1243D01*
X4041Y1241D01*
X4051Y1240D01*
X4062Y1239D01*
X4072Y1239D01*
Y1213D01*
X4062Y1213D01*
X4041Y1211D01*
X4032Y1209D01*
X4023Y1207D01*
X4015Y1204D01*
X4007Y1201D01*
X3999Y1197D01*
X3992Y1192D01*
X3986Y1188D01*
Y1264D01*
X3992Y1260D01*
D02*
G37*
G36*
X2078Y1264D02*
X2085Y1259D01*
X2093Y1255D01*
X2101Y1252D01*
X2109Y1249D01*
X2118Y1247D01*
X2127Y1245D01*
X2137Y1244D01*
X2148Y1243D01*
X2158Y1243D01*
Y1217D01*
X2148Y1217D01*
X2127Y1215D01*
X2118Y1213D01*
X2109Y1211D01*
X2101Y1208D01*
X2093Y1205D01*
X2085Y1201D01*
X2078Y1196D01*
X2072Y1192D01*
Y1268D01*
X2078Y1264D01*
D02*
G37*
G36*
X2008Y1192D02*
X2002Y1196D01*
X1995Y1201D01*
X1987Y1205D01*
X1979Y1208D01*
X1971Y1211D01*
X1962Y1213D01*
X1953Y1215D01*
X1943Y1216D01*
X1932Y1217D01*
X1922Y1217D01*
Y1243D01*
X1932Y1243D01*
X1953Y1245D01*
X1962Y1247D01*
X1971Y1249D01*
X1979Y1252D01*
X1987Y1255D01*
X1995Y1259D01*
X2002Y1264D01*
X2008Y1268D01*
Y1192D01*
D02*
G37*
G36*
X1388Y1264D02*
X1395Y1259D01*
X1403Y1255D01*
X1411Y1252D01*
X1419Y1249D01*
X1428Y1247D01*
X1437Y1245D01*
X1447Y1244D01*
X1458Y1243D01*
X1468Y1243D01*
Y1217D01*
X1458Y1217D01*
X1437Y1215D01*
X1428Y1213D01*
X1419Y1211D01*
X1411Y1208D01*
X1403Y1205D01*
X1395Y1201D01*
X1388Y1196D01*
X1382Y1192D01*
Y1268D01*
X1388Y1264D01*
D02*
G37*
G36*
X5192Y1610D02*
X5199Y1605D01*
X5207Y1601D01*
X5215Y1598D01*
X5223Y1595D01*
X5232Y1593D01*
X5241Y1591D01*
X5251Y1590D01*
X5262Y1589D01*
X5272Y1589D01*
Y1563D01*
X5262Y1563D01*
X5241Y1561D01*
X5232Y1559D01*
X5223Y1557D01*
X5215Y1554D01*
X5207Y1551D01*
X5199Y1547D01*
X5192Y1542D01*
X5186Y1538D01*
Y1614D01*
X5192Y1610D01*
D02*
G37*
G36*
X5122Y1538D02*
X5116Y1542D01*
X5109Y1547D01*
X5101Y1551D01*
X5093Y1554D01*
X5085Y1557D01*
X5076Y1559D01*
X5067Y1561D01*
X5057Y1562D01*
X5046Y1563D01*
X5036Y1563D01*
Y1589D01*
X5046Y1589D01*
X5067Y1591D01*
X5076Y1593D01*
X5085Y1595D01*
X5093Y1598D01*
X5101Y1601D01*
X5109Y1605D01*
X5116Y1610D01*
X5122Y1614D01*
Y1538D01*
D02*
G37*
G36*
X4684Y1610D02*
X4691Y1605D01*
X4699Y1601D01*
X4707Y1598D01*
X4715Y1595D01*
X4724Y1593D01*
X4733Y1591D01*
X4743Y1590D01*
X4754Y1589D01*
X4764Y1589D01*
Y1563D01*
X4754Y1563D01*
X4733Y1561D01*
X4724Y1559D01*
X4715Y1557D01*
X4707Y1554D01*
X4699Y1551D01*
X4691Y1547D01*
X4684Y1542D01*
X4678Y1538D01*
Y1614D01*
X4684Y1610D01*
D02*
G37*
G36*
X884Y1610D02*
X891Y1605D01*
X899Y1601D01*
X907Y1598D01*
X915Y1595D01*
X924Y1593D01*
X933Y1591D01*
X943Y1590D01*
X954Y1589D01*
X964Y1589D01*
Y1563D01*
X954Y1563D01*
X933Y1561D01*
X924Y1559D01*
X915Y1557D01*
X907Y1554D01*
X899Y1551D01*
X891Y1547D01*
X884Y1542D01*
X878Y1538D01*
Y1614D01*
X884Y1610D01*
D02*
G37*
G36*
X6084Y1610D02*
X6091Y1605D01*
X6099Y1601D01*
X6107Y1598D01*
X6115Y1595D01*
X6124Y1593D01*
X6133Y1591D01*
X6143Y1590D01*
X6154Y1589D01*
X6164Y1589D01*
Y1563D01*
X6154Y1563D01*
X6133Y1561D01*
X6124Y1559D01*
X6115Y1557D01*
X6107Y1554D01*
X6099Y1551D01*
X6091Y1547D01*
X6084Y1542D01*
X6078Y1538D01*
Y1614D01*
X6084Y1610D01*
D02*
G37*
G36*
X6014Y1538D02*
X6008Y1542D01*
X6001Y1547D01*
X5993Y1551D01*
X5985Y1554D01*
X5977Y1557D01*
X5968Y1559D01*
X5959Y1561D01*
X5949Y1562D01*
X5938Y1563D01*
X5928Y1563D01*
Y1589D01*
X5938Y1589D01*
X5959Y1591D01*
X5968Y1593D01*
X5977Y1595D01*
X5985Y1598D01*
X5993Y1601D01*
X6001Y1605D01*
X6008Y1610D01*
X6014Y1614D01*
Y1538D01*
D02*
G37*
G36*
X3414Y1536D02*
X3408Y1540D01*
X3401Y1545D01*
X3393Y1549D01*
X3385Y1552D01*
X3377Y1555D01*
X3368Y1557D01*
X3359Y1559D01*
X3349Y1560D01*
X3338Y1561D01*
X3328Y1561D01*
Y1587D01*
X3338Y1587D01*
X3359Y1589D01*
X3368Y1591D01*
X3377Y1593D01*
X3385Y1596D01*
X3393Y1599D01*
X3401Y1603D01*
X3408Y1608D01*
X3414Y1612D01*
Y1536D01*
D02*
G37*
G36*
X2592Y1608D02*
X2599Y1603D01*
X2607Y1599D01*
X2615Y1596D01*
X2623Y1593D01*
X2632Y1591D01*
X2641Y1589D01*
X2651Y1588D01*
X2662Y1587D01*
X2672Y1587D01*
Y1561D01*
X2662Y1561D01*
X2641Y1559D01*
X2632Y1557D01*
X2623Y1555D01*
X2615Y1552D01*
X2607Y1549D01*
X2599Y1545D01*
X2592Y1540D01*
X2586Y1536D01*
Y1612D01*
X2592Y1608D01*
D02*
G37*
G36*
X7298Y1392D02*
X7292Y1396D01*
X7285Y1401D01*
X7277Y1405D01*
X7269Y1408D01*
X7261Y1411D01*
X7252Y1413D01*
X7243Y1415D01*
X7233Y1416D01*
X7222Y1417D01*
X7212Y1417D01*
Y1443D01*
X7222Y1443D01*
X7243Y1445D01*
X7252Y1447D01*
X7261Y1449D01*
X7269Y1452D01*
X7277Y1455D01*
X7285Y1459D01*
X7292Y1464D01*
X7298Y1468D01*
Y1392D01*
D02*
G37*
G36*
X3992Y1608D02*
X3999Y1603D01*
X4007Y1599D01*
X4015Y1596D01*
X4023Y1593D01*
X4032Y1591D01*
X4041Y1589D01*
X4051Y1588D01*
X4062Y1587D01*
X4072Y1587D01*
Y1561D01*
X4062Y1561D01*
X4041Y1559D01*
X4032Y1557D01*
X4023Y1555D01*
X4015Y1552D01*
X4007Y1549D01*
X3999Y1545D01*
X3992Y1540D01*
X3986Y1536D01*
Y1612D01*
X3992Y1608D01*
D02*
G37*
G36*
X3922Y1536D02*
X3916Y1540D01*
X3909Y1545D01*
X3901Y1549D01*
X3893Y1552D01*
X3885Y1555D01*
X3876Y1557D01*
X3867Y1559D01*
X3857Y1560D01*
X3846Y1561D01*
X3836Y1561D01*
Y1587D01*
X3846Y1587D01*
X3867Y1589D01*
X3876Y1591D01*
X3885Y1593D01*
X3893Y1596D01*
X3901Y1599D01*
X3909Y1603D01*
X3916Y1608D01*
X3922Y1612D01*
Y1536D01*
D02*
G37*
G36*
X3484Y1608D02*
X3491Y1603D01*
X3499Y1599D01*
X3507Y1596D01*
X3515Y1593D01*
X3524Y1591D01*
X3533Y1589D01*
X3543Y1588D01*
X3554Y1587D01*
X3564Y1587D01*
Y1561D01*
X3554Y1561D01*
X3533Y1559D01*
X3524Y1557D01*
X3515Y1555D01*
X3507Y1552D01*
X3499Y1549D01*
X3491Y1545D01*
X3484Y1540D01*
X3478Y1536D01*
Y1612D01*
X3484Y1608D01*
D02*
G37*
D10*
X8256Y2280D02*
X8682D01*
X8760Y2202D01*
Y1330D02*
Y2202D01*
X8811Y1291D02*
Y2319D01*
X8740Y2390D02*
X8811Y2319D01*
X7440Y2390D02*
X8740D01*
X3320Y1940D02*
X5030D01*
X3830Y850D02*
X4250D01*
X8738Y1118D02*
X8862Y1242D01*
Y2410D01*
X8782Y2490D02*
X8862Y2410D01*
X7250Y2490D02*
X8782D01*
X1040Y1410D02*
X2760D01*
X7148Y2388D02*
X7200Y2440D01*
X3418Y2388D02*
X7148D01*
X7142Y2330D02*
X7380D01*
X7440Y2390D01*
X4906Y2278D02*
X8162D01*
X4219Y2329D02*
X7141D01*
X3509Y2329D02*
X4161D01*
X4190Y2300D01*
X3342Y2162D02*
X3509Y2329D01*
X3584Y2251D02*
X4086D01*
X3583Y2250D02*
X3584Y2251D01*
X3502Y2250D02*
X3583D01*
X3363Y2111D02*
X3502Y2250D01*
X3223Y2111D02*
X3363D01*
X3244Y2162D02*
X3342D01*
X4086Y2251D02*
X4264Y2074D01*
X4190Y2300D02*
X4219Y2329D01*
X4264Y2074D02*
X4720D01*
X4808Y2180D02*
X4906Y2278D01*
X7200Y2440D02*
X7250Y2490D01*
X7141Y2329D02*
X7142Y2330D01*
X1220Y2370D02*
X3160D01*
X1192Y2342D02*
X1220Y2370D01*
X1192Y2162D02*
Y2342D01*
X3160Y2370D02*
X3280Y2250D01*
X3096Y2310D02*
X3244Y2162D01*
X1470Y2310D02*
X3096D01*
X3084Y2250D02*
X3223Y2111D01*
X2228Y2250D02*
X3084D01*
X2208Y2230D02*
X2228Y2250D01*
X2208Y2162D02*
Y2230D01*
X1446Y2286D02*
X1470Y2310D01*
X1446Y2162D02*
Y2286D01*
X8208Y2232D02*
X8256Y2280D01*
X8162Y2278D02*
X8208Y2232D01*
X4808Y2162D02*
Y2180D01*
X6590D02*
X6760D01*
X6800Y2140D01*
X8208Y2162D02*
Y2232D01*
X4720Y2074D02*
X4808Y2162D01*
X6880Y300D02*
X6930D01*
X7172Y360D02*
X7200D01*
X6893Y388D02*
X7144D01*
X6739Y234D02*
X6893Y388D01*
X6763Y183D02*
X6880Y300D01*
X3627Y183D02*
X6763D01*
X4115Y285D02*
X6718D01*
X7144Y388D02*
X7172Y360D01*
X7443Y391D02*
Y398D01*
X7134Y500D02*
Y500D01*
X3458Y188D02*
X3540Y270D01*
X3627Y183D01*
X3385Y240D02*
X3504Y358D01*
X2250Y400D02*
X3330D01*
X1981Y349D02*
X3351D01*
X2360Y740D02*
X2850D01*
X2350Y750D02*
X2360Y740D01*
X8472Y1118D02*
X8738D01*
X6800Y1910D02*
Y2140D01*
Y1910D02*
X6835Y1875D01*
X7085D01*
X2554Y1574D02*
X3446D01*
X2554Y1226D02*
X3446D01*
X2760Y1410D02*
X4420D01*
X4521Y1226D02*
X4610Y1314D01*
X4646Y1576D02*
X5154D01*
X4646Y1226D02*
X5154D01*
X3954Y1226D02*
X4521D01*
X1230Y1940D02*
X3320D01*
X5030Y1930D02*
Y1940D01*
X5730Y1910D02*
Y2190D01*
X3830Y850D02*
Y870D01*
X8460Y1610D02*
X8470Y1620D01*
X7895Y1610D02*
X8460D01*
X6046Y1226D02*
X8125D01*
X8160Y1261D01*
X5154Y1226D02*
X6046D01*
X8091Y1120D02*
X8181Y1211D01*
X8218Y1123D02*
X8351D01*
X8435Y1207D01*
X2433Y1230D02*
X2518Y1314D01*
X2040Y1230D02*
X2433D01*
X7460Y1630D02*
Y1680D01*
X3954Y1574D02*
X4523D01*
X3446D02*
X3954D01*
X2046Y1576D02*
X2427D01*
X7840Y1680D02*
X7840Y1680D01*
X5154Y1576D02*
X6046D01*
X7710Y1120D02*
X8091D01*
X846Y1576D02*
X1354D01*
X2046D01*
X1350Y1230D02*
X2040D01*
X850D02*
X1350D01*
X846Y1226D02*
X850Y1230D01*
X8471Y1119D02*
X8472Y1118D01*
X1954Y376D02*
X1981Y349D01*
X2208Y442D02*
X2250Y400D01*
X2208Y442D02*
Y638D01*
X4050Y340D02*
Y350D01*
X962Y188D02*
X3458D01*
X940Y210D02*
X962Y188D01*
X940Y210D02*
Y636D01*
X1446Y314D02*
Y638D01*
Y314D02*
X1469Y291D01*
X3364D01*
X1192Y268D02*
Y638D01*
Y268D02*
X1220Y240D01*
X3385D01*
X1954Y376D02*
Y638D01*
X938D02*
X940Y636D01*
X4250Y850D02*
X4310Y910D01*
X2591Y1487D02*
X2712D01*
X2724Y1498D01*
X3446Y1226D02*
X3954D01*
X2518Y1314D02*
X4538D01*
X8160Y1261D02*
X8301D01*
X8344Y1305D01*
Y1421D01*
X8181Y1211D02*
X8351D01*
X8430Y1290D01*
X8720D01*
X8760Y1330D01*
X8435Y1207D02*
X8727D01*
X8811Y1291D01*
X7891Y1291D02*
X7970Y1370D01*
X7626Y1342D02*
X7895Y1610D01*
X6046Y1576D02*
X7406D01*
X7460Y1630D01*
X4372Y1487D02*
X4395Y1510D01*
X4516D01*
X7770Y1680D02*
X7840D01*
X7608Y1518D02*
X7770Y1680D01*
X6840Y790D02*
X8160D01*
X8208Y742D01*
Y638D02*
Y742D01*
X7386Y448D02*
X7443Y391D01*
X6882Y448D02*
X7386D01*
X6718Y285D02*
X6882Y448D01*
X3351Y349D02*
X3481Y479D01*
X4471D01*
X4560Y390D01*
X6581Y531D02*
X6840Y790D01*
X3330Y400D02*
X3461Y531D01*
X3364Y291D02*
X3502Y428D01*
X3992D01*
X4050Y370D01*
Y350D02*
X4115Y285D01*
X3728Y358D02*
X3780Y306D01*
X3504Y358D02*
X3728D01*
X7133Y499D02*
X7134Y500D01*
X6861Y499D02*
X7133D01*
X7921D02*
X7960Y460D01*
X7134Y500D02*
X7134Y499D01*
X7921D01*
X3280Y2250D02*
X3418Y2388D01*
X4610Y1314D02*
X7242D01*
X7292Y1518D02*
X7608D01*
X7242Y1314D02*
X7265Y1291D01*
X7286Y1342D02*
X7626D01*
X7265Y1291D02*
X7891D01*
X7261Y1493D02*
X7265Y1497D01*
X7269D01*
X7273Y1502D01*
X7276D01*
X7292Y1518D01*
X7257Y1493D02*
X7261D01*
X4523Y1574D02*
X4610Y1488D01*
X7246D01*
X7248Y1490D01*
X7254D01*
X7257Y1493D01*
X4516Y1510D02*
X4596Y1430D01*
X7330D01*
X4538Y1314D02*
X4594Y1370D01*
X7248D01*
X7261Y1367D02*
X7286Y1342D01*
X7248Y1370D02*
X7251Y1367D01*
X7261D01*
X2724Y1498D02*
X3396D01*
X3397Y1497D01*
X3398D01*
X3410Y1486D01*
X3482D01*
X3483Y1487D01*
X3917D01*
X3918Y1486D01*
X3990D01*
X3991Y1487D01*
X4372D01*
X2518Y1486D02*
X2590D01*
X2591Y1487D01*
X2427Y1576D02*
X2518Y1486D01*
X4560Y390D02*
X6752D01*
X6861Y499D01*
X4808Y531D02*
X6581D01*
X3461D02*
X4808D01*
Y638D01*
X3780Y280D02*
X3900D01*
X3946Y234D01*
X6739D01*
D11*
X8920Y1060D02*
Y2610D01*
X4520Y860D02*
X5920D01*
X4420Y760D02*
X4520Y860D01*
X3770Y760D02*
X4420D01*
X3649Y881D02*
X3770Y760D01*
X3319Y881D02*
X3649D01*
X1921D02*
X3319D01*
X719D02*
X1921D01*
D12*
X3450Y3050D02*
D03*
X5950D02*
D03*
X300Y300D02*
D03*
X9100D02*
D03*
D13*
X8462Y2162D02*
D03*
X8208D02*
D03*
X7954D02*
D03*
X7700D02*
D03*
X7446D02*
D03*
X7192D02*
D03*
X6938D02*
D03*
X8462Y638D02*
D03*
X8208D02*
D03*
X7954D02*
D03*
X7700D02*
D03*
X7446D02*
D03*
X7192D02*
D03*
X6938D02*
D03*
X5062Y2162D02*
D03*
X4808D02*
D03*
X4554D02*
D03*
X4300D02*
D03*
X4046D02*
D03*
X3792D02*
D03*
X3538D02*
D03*
X5062Y638D02*
D03*
X4808D02*
D03*
X4554D02*
D03*
X4300D02*
D03*
X4046D02*
D03*
X3792D02*
D03*
X3538D02*
D03*
X2462Y2162D02*
D03*
X2208D02*
D03*
X1954D02*
D03*
X1700D02*
D03*
X1446D02*
D03*
X1192D02*
D03*
X938D02*
D03*
X2462Y638D02*
D03*
X2208D02*
D03*
X1954D02*
D03*
X1700D02*
D03*
X1446D02*
D03*
X1192D02*
D03*
X938D02*
D03*
X8920Y2610D02*
D03*
Y1060D02*
D03*
X1040Y1410D02*
D03*
X4190Y2300D02*
D03*
X6930Y300D02*
D03*
X7200Y360D02*
D03*
X7960Y460D02*
D03*
X7443Y398D02*
D03*
X3540Y270D02*
D03*
X2850Y740D02*
D03*
X6590Y2180D02*
D03*
X7085Y1875D02*
D03*
X2760Y1410D02*
D03*
X2554Y1226D02*
D03*
X4646Y1576D02*
D03*
Y1226D02*
D03*
X4420Y1410D02*
D03*
X1230Y1940D02*
D03*
X3320D02*
D03*
X5030Y1930D02*
D03*
X5730Y1910D02*
D03*
Y2190D02*
D03*
X3280Y2250D02*
D03*
X7200Y2440D02*
D03*
X7440Y2390D02*
D03*
X5920Y860D02*
D03*
X4520D02*
D03*
X3830Y870D02*
D03*
X3319Y881D02*
D03*
X2350Y750D02*
D03*
X1921Y881D02*
D03*
X719D02*
D03*
X8470Y1620D02*
D03*
X7970Y1370D02*
D03*
X8218Y1123D02*
D03*
X8344Y1421D02*
D03*
X7330Y1430D02*
D03*
X7460Y1680D02*
D03*
X7840D02*
D03*
X5154Y1226D02*
D03*
X6046D02*
D03*
Y1576D02*
D03*
X5154D02*
D03*
X2554Y1574D02*
D03*
X3446D02*
D03*
X3954D02*
D03*
Y1226D02*
D03*
X3446D02*
D03*
X846Y1576D02*
D03*
X1354D02*
D03*
X2046D02*
D03*
X2040Y1230D02*
D03*
X1350D02*
D03*
X846Y1226D02*
D03*
X8471Y1119D02*
D03*
X7710Y1120D02*
D03*
X4560Y390D02*
D03*
X4050Y340D02*
D03*
X3780Y280D02*
D03*
X4310Y910D02*
D03*
D14*
X4700Y2650D02*
D03*
M02*
