G04 Layer_Color=128*
%FSLAX42Y42*%
%MOMM*%
G71*
G01*
G75*
%ADD10C,0.25*%
%ADD12C,0.25*%
%ADD13C,0.10*%
%ADD16R,0.60X1.50*%
%ADD17R,1.20X1.80*%
%ADD18O,0.60X1.90*%
G04:AMPARAMS|DCode=19|XSize=0.6mm|YSize=1.65mm|CornerRadius=0.05mm|HoleSize=0mm|Usage=FLASHONLY|Rotation=180.000|XOffset=0mm|YOffset=0mm|HoleType=Round|Shape=RoundedRectangle|*
%AMROUNDEDRECTD19*
21,1,0.60,1.55,0,0,180.0*
21,1,0.50,1.65,0,0,180.0*
1,1,0.10,-0.25,0.77*
1,1,0.10,0.25,0.77*
1,1,0.10,0.25,-0.77*
1,1,0.10,-0.25,-0.77*
%
%ADD19ROUNDEDRECTD19*%
%ADD20R,1.50X1.25*%
D10*
X100Y2900D02*
G03*
X0Y2800I0J-100D01*
G01*
Y100D02*
G03*
X100Y0I100J0D01*
G01*
X9300D02*
G03*
X9400Y100I0J100D01*
G01*
Y2800D02*
G03*
X9300Y2900I-100J0D01*
G01*
X6200Y3200D02*
G03*
X6100Y3300I-100J0D01*
G01*
X3310D02*
G03*
X3190Y3180I0J-120D01*
G01*
D12*
X0Y100D02*
Y2800D01*
X100Y2900D02*
X3190Y2900D01*
X100Y0D02*
X9300D01*
X9400Y100D02*
Y2800D01*
X6200Y2900D02*
X9300D01*
X6200D02*
Y3200D01*
X3190Y2900D02*
Y3180D01*
X3310Y3300D02*
X6100D01*
D13*
X7260Y1690D02*
G03*
X7260Y1690I-50J0D01*
G01*
X5915Y1590D02*
G03*
X5915Y1590I-50J0D01*
G01*
X4515D02*
G03*
X4515Y1590I-50J0D01*
G01*
X3315D02*
G03*
X3315Y1590I-50J0D01*
G01*
X1915D02*
G03*
X1915Y1590I-50J0D01*
G01*
X715D02*
G03*
X715Y1590I-50J0D01*
G01*
X7120Y1780D02*
X8680D01*
X7120Y1020D02*
X8680D01*
X7120D02*
Y1780D01*
X8680Y1020D02*
Y1780D01*
X6825Y1120D02*
Y1680D01*
X5775Y1120D02*
Y1680D01*
Y1120D02*
X6825D01*
X5775Y1680D02*
X6825D01*
X5425Y1120D02*
Y1680D01*
X4375Y1120D02*
Y1680D01*
Y1120D02*
X5425D01*
X4375Y1680D02*
X5425D01*
X4225Y1120D02*
Y1680D01*
X3175Y1120D02*
Y1680D01*
Y1120D02*
X4225D01*
X3175Y1680D02*
X4225D01*
X2825Y1120D02*
Y1680D01*
X1775Y1120D02*
Y1680D01*
Y1120D02*
X2825D01*
X1775Y1680D02*
X2825D01*
X1625Y1120D02*
Y1680D01*
X575Y1120D02*
Y1680D01*
Y1120D02*
X1625D01*
X575Y1680D02*
X1625D01*
X9047Y1295D02*
Y1515D01*
X8912Y1295D02*
Y1515D01*
Y1295D02*
X9047D01*
X8912Y1515D02*
X9047D01*
D16*
X3975Y2605D02*
D03*
X4075D02*
D03*
X4175D02*
D03*
X4275D02*
D03*
X4375D02*
D03*
X5025D02*
D03*
X5125D02*
D03*
X5225D02*
D03*
X5325D02*
D03*
X5425D02*
D03*
D17*
X3815Y2995D02*
D03*
X4535D02*
D03*
X4865D02*
D03*
X5585D02*
D03*
D18*
X7201Y1875D02*
D03*
X7329D02*
D03*
X7456D02*
D03*
X7582D02*
D03*
X7710D02*
D03*
X7836D02*
D03*
X7964D02*
D03*
X8090D02*
D03*
X8218D02*
D03*
X8344D02*
D03*
X8471D02*
D03*
X8599D02*
D03*
X7201Y925D02*
D03*
X7329D02*
D03*
X7456D02*
D03*
X7582D02*
D03*
X7710D02*
D03*
X7836D02*
D03*
X7964D02*
D03*
X8090D02*
D03*
X8218D02*
D03*
X8344D02*
D03*
X8471D02*
D03*
X8599D02*
D03*
D19*
X6681Y1038D02*
D03*
X6554D02*
D03*
X6427D02*
D03*
X6300D02*
D03*
X6173D02*
D03*
X6046D02*
D03*
X5919D02*
D03*
X6681Y1762D02*
D03*
X6554D02*
D03*
X6427D02*
D03*
X6300D02*
D03*
X6173D02*
D03*
X6046D02*
D03*
X5919D02*
D03*
X5281Y1038D02*
D03*
X5154D02*
D03*
X5027D02*
D03*
X4900D02*
D03*
X4773D02*
D03*
X4646D02*
D03*
X4519D02*
D03*
X5281Y1762D02*
D03*
X5154D02*
D03*
X5027D02*
D03*
X4900D02*
D03*
X4773D02*
D03*
X4646D02*
D03*
X4519D02*
D03*
X4081Y1038D02*
D03*
X3954D02*
D03*
X3827D02*
D03*
X3700D02*
D03*
X3573D02*
D03*
X3446D02*
D03*
X3319D02*
D03*
X4081Y1762D02*
D03*
X3954D02*
D03*
X3827D02*
D03*
X3700D02*
D03*
X3573D02*
D03*
X3446D02*
D03*
X3319D02*
D03*
X2681Y1038D02*
D03*
X2554D02*
D03*
X2427D02*
D03*
X2300D02*
D03*
X2173D02*
D03*
X2046D02*
D03*
X1919D02*
D03*
X2681Y1762D02*
D03*
X2554D02*
D03*
X2427D02*
D03*
X2300D02*
D03*
X2173D02*
D03*
X2046D02*
D03*
X1919D02*
D03*
X1481Y1038D02*
D03*
X1354D02*
D03*
X1227D02*
D03*
X1100D02*
D03*
X973D02*
D03*
X846D02*
D03*
X719D02*
D03*
X1481Y1762D02*
D03*
X1354D02*
D03*
X1227D02*
D03*
X1100D02*
D03*
X973D02*
D03*
X846D02*
D03*
X719D02*
D03*
D20*
X8980Y1300D02*
D03*
Y1510D02*
D03*
M02*
