M48
;Layer_Color=9474304
;FILE_FORMAT=4:2
METRIC,LZ
;TYPE=PLATED
T1F00S00C0.50
T2F00S00C0.50
T3F00S00C2.00
%
T01
X006938Y000638
X007192
X007446
X0077
X007954
X008208
X008462
Y002162
X008208
X007954
X0077
X007446
X007192
X006938
X005062
X004808
X004554
X0043
X004046
X003792
X003538
X002462
Y000638
X003538
X003792
X004046
X0043
X004554
X004808
X005062
X002208
X001954
X0017
X001446
X001192
X000938
Y002162
X001192
X001446
X0017
X001954
X002208
T02
X00693Y0003
X0072Y00036
X007443Y000398
X00796Y00046
X00771Y00112
X00797Y00137
X008344Y001344
X008218Y001123
X008471Y001119
X00847Y00162
X00784Y00168
X00746
X00733Y00143
X007085Y001875
X0072Y00244
X00744Y00239
X00659Y00218
X00892Y00261
Y00106
X006046Y001226
Y001576
X00573Y00191
Y00219
X00503Y00193
X005154Y001576
Y001226
X004646
Y001576
X00442Y00141
X00431Y00091
X00452Y00086
X00456Y00039
X00405Y00034
X00378Y00028
X00354Y00027
X003319Y000881
X003446Y001226
Y001574
X00332Y00194
X00328Y00225
X00419Y0023
X003954Y001574
Y001226
X00383Y00087
X00285Y00074
X00235Y00075
X002554Y001226
Y001574
X00276Y00141
X00592Y00086
X001921Y000881
X00204Y00123
X002046Y001576
X001354
X00135Y00123
X00104Y00141
X000846Y001576
X000846Y001226
X000719Y000881
X00123Y00194
T03
X0091Y0003
X0059Y003
X0035
X0003Y0003
M30
