G04 Layer_Color=32896*
%FSLAX42Y42*%
%MOMM*%
G71*
G01*
G75*
%ADD10C,0.25*%
%ADD12C,0.25*%
%ADD13C,0.10*%
%ADD28C,0.60*%
%ADD29C,0.50*%
%ADD30C,0.13*%
%ADD31C,0.20*%
D10*
X4810Y2670D02*
Y2822D01*
X4734D01*
X4708Y2797D01*
Y2746D01*
X4734Y2721D01*
X4810D01*
X4658Y2670D02*
X4607D01*
X4632D01*
Y2822D01*
X4658Y2797D01*
X5950Y2600D02*
Y2752D01*
X5874D01*
X5848Y2727D01*
Y2676D01*
X5874Y2651D01*
X5950D01*
X5696Y2600D02*
X5798D01*
X5696Y2702D01*
Y2727D01*
X5721Y2752D01*
X5772D01*
X5798Y2727D01*
X8690Y2112D02*
Y1985D01*
X8665Y1960D01*
X8614D01*
X8588Y1985D01*
Y2112D01*
X9082Y1704D02*
Y1857D01*
X9005D01*
X8980Y1831D01*
Y1781D01*
X9005Y1755D01*
X9082D01*
X9031D02*
X8980Y1704D01*
X8929D02*
X8878D01*
X8904D01*
Y1857D01*
X8929Y1831D01*
X1630Y2072D02*
Y1945D01*
X1605Y1920D01*
X1554D01*
X1528Y1945D01*
Y2072D01*
X1478Y1920D02*
X1427D01*
X1452D01*
Y2072D01*
X1478Y2047D01*
X2826Y2101D02*
Y1974D01*
X2801Y1948D01*
X2750D01*
X2725Y1974D01*
Y2101D01*
X2572Y1948D02*
X2674D01*
X2572Y2050D01*
Y2075D01*
X2598Y2101D01*
X2648D01*
X2674Y2075D01*
X4226Y2100D02*
Y1973D01*
X4201Y1948D01*
X4150D01*
X4125Y1973D01*
Y2100D01*
X4074Y2075D02*
X4049Y2100D01*
X3998D01*
X3972Y2075D01*
Y2049D01*
X3998Y2024D01*
X4023D01*
X3998D01*
X3972Y1999D01*
Y1973D01*
X3998Y1948D01*
X4049D01*
X4074Y1973D01*
X5427Y2101D02*
Y1974D01*
X5402Y1948D01*
X5351D01*
X5325Y1974D01*
Y2101D01*
X5199Y1948D02*
Y2101D01*
X5275Y2024D01*
X5173D01*
X6827Y2101D02*
Y1974D01*
X6801Y1948D01*
X6750D01*
X6725Y1974D01*
Y2101D01*
X6573D02*
X6674D01*
Y2024D01*
X6623Y2050D01*
X6598D01*
X6573Y2024D01*
Y1974D01*
X6598Y1948D01*
X6649D01*
X6674Y1974D01*
X100Y2900D02*
G03*
X0Y2800I0J-100D01*
G01*
Y100D02*
G03*
X100Y0I100J0D01*
G01*
X9300D02*
G03*
X9400Y100I0J100D01*
G01*
Y2800D02*
G03*
X9300Y2900I-100J0D01*
G01*
X6200Y3200D02*
G03*
X6100Y3300I-100J0D01*
G01*
X3310D02*
G03*
X3190Y3180I0J-120D01*
G01*
D12*
X7129Y1875D02*
G03*
X7129Y1875I-12J0D01*
G01*
X5847Y1762D02*
G03*
X5847Y1762I-12J0D01*
G01*
X4447D02*
G03*
X4447Y1762I-12J0D01*
G01*
X3247D02*
G03*
X3247Y1762I-12J0D01*
G01*
X1847D02*
G03*
X1847Y1762I-12J0D01*
G01*
X647D02*
G03*
X647Y1762I-12J0D01*
G01*
X0Y100D02*
Y2800D01*
X100Y2900D02*
X3190Y2900D01*
X100Y0D02*
X9300D01*
X9400Y100D02*
Y2800D01*
X6200Y2900D02*
X9300D01*
X6200D02*
Y3200D01*
X3190Y2900D02*
Y3180D01*
X3310Y3300D02*
X6100D01*
D13*
X7260Y1690D02*
G03*
X7260Y1690I-50J0D01*
G01*
X5915Y1590D02*
G03*
X5915Y1590I-50J0D01*
G01*
X4515D02*
G03*
X4515Y1590I-50J0D01*
G01*
X3315D02*
G03*
X3315Y1590I-50J0D01*
G01*
X1915D02*
G03*
X1915Y1590I-50J0D01*
G01*
X715D02*
G03*
X715Y1590I-50J0D01*
G01*
X7120Y1780D02*
X8680D01*
X7120Y1020D02*
X8680D01*
X7120D02*
Y1780D01*
X8680Y1020D02*
Y1780D01*
X6825Y1120D02*
Y1680D01*
X5775Y1120D02*
Y1680D01*
Y1120D02*
X6825D01*
X5775Y1680D02*
X6825D01*
X5425Y1120D02*
Y1680D01*
X4375Y1120D02*
Y1680D01*
Y1120D02*
X5425D01*
X4375Y1680D02*
X5425D01*
X4225Y1120D02*
Y1680D01*
X3175Y1120D02*
Y1680D01*
Y1120D02*
X4225D01*
X3175Y1680D02*
X4225D01*
X2825Y1120D02*
Y1680D01*
X1775Y1120D02*
Y1680D01*
Y1120D02*
X2825D01*
X1775Y1680D02*
X2825D01*
X1625Y1120D02*
Y1680D01*
X575Y1120D02*
Y1680D01*
Y1120D02*
X1625D01*
X575Y1680D02*
X1625D01*
X9047Y1295D02*
Y1515D01*
X8912Y1295D02*
Y1515D01*
Y1295D02*
X9047D01*
X8912Y1515D02*
X9047D01*
D28*
X7250Y1640D02*
G03*
X7250Y1640I-30J0D01*
G01*
X5905Y1540D02*
G03*
X5905Y1540I-30J0D01*
G01*
X4505D02*
G03*
X4505Y1540I-30J0D01*
G01*
X3305D02*
G03*
X3305Y1540I-30J0D01*
G01*
X1905D02*
G03*
X1905Y1540I-30J0D01*
G01*
X705D02*
G03*
X705Y1540I-30J0D01*
G01*
D29*
X3872Y2635D02*
D03*
X4922D02*
D03*
D30*
X4175Y2760D02*
Y2840D01*
X4135Y2800D02*
X4215D01*
X3825Y3120D02*
Y3170D01*
X3875D01*
X4475D02*
X4525D01*
Y3120D02*
Y3170D01*
X3825Y2580D02*
Y2640D01*
Y2580D02*
X3885D01*
X4465D02*
X4525D01*
Y2640D01*
X5225Y2760D02*
Y2840D01*
X5185Y2800D02*
X5265D01*
X4875Y3120D02*
Y3170D01*
X4925D01*
X5525D02*
X5575D01*
Y3120D02*
Y3170D01*
X4875Y2580D02*
Y2640D01*
Y2580D02*
X4935D01*
X5515D02*
X5575D01*
Y2640D01*
X3992Y2290D02*
X4000Y2298D01*
Y2315D01*
X3992Y2323D01*
X3983D01*
X3975Y2315D01*
Y2307D01*
Y2315D01*
X3967Y2323D01*
X3958D01*
X3950Y2315D01*
Y2298D01*
X3958Y2290D01*
X3950Y2340D02*
X3958D01*
Y2348D01*
X3950D01*
Y2340D01*
X3992Y2382D02*
X4000Y2390D01*
Y2407D01*
X3992Y2415D01*
X3983D01*
X3975Y2407D01*
Y2398D01*
Y2407D01*
X3967Y2415D01*
X3958D01*
X3950Y2407D01*
Y2390D01*
X3958Y2382D01*
X4000Y2432D02*
X3967D01*
X3950Y2448D01*
X3967Y2465D01*
X4000D01*
X4092Y2363D02*
X4100Y2355D01*
Y2338D01*
X4092Y2330D01*
X4058D01*
X4050Y2338D01*
Y2355D01*
X4058Y2363D01*
X4075D01*
Y2347D01*
X4050Y2380D02*
X4100D01*
X4050Y2413D01*
X4100D01*
Y2430D02*
X4050D01*
Y2455D01*
X4058Y2463D01*
X4092D01*
X4100Y2455D01*
Y2430D01*
X4140Y2413D02*
X4173Y2380D01*
X4140Y2430D02*
X4190D01*
Y2455D01*
X4182Y2463D01*
X4165D01*
X4157Y2455D01*
Y2430D01*
Y2447D02*
X4140Y2463D01*
X4240Y2413D02*
X4273Y2380D01*
X4282Y2463D02*
X4290Y2455D01*
Y2438D01*
X4282Y2430D01*
X4248D01*
X4240Y2438D01*
Y2455D01*
X4248Y2463D01*
X4265D01*
Y2447D01*
X4350Y2413D02*
X4383Y2380D01*
X4400Y2430D02*
X4350D01*
Y2455D01*
X4358Y2463D01*
X4367D01*
X4375Y2455D01*
Y2430D01*
Y2455D01*
X4383Y2463D01*
X4392D01*
X4400Y2455D01*
Y2430D01*
X5152Y2363D02*
X5160Y2355D01*
Y2338D01*
X5152Y2330D01*
X5118D01*
X5110Y2338D01*
Y2355D01*
X5118Y2363D01*
X5135D01*
Y2347D01*
X5110Y2380D02*
X5160D01*
X5110Y2413D01*
X5160D01*
Y2430D02*
X5110D01*
Y2455D01*
X5118Y2463D01*
X5152D01*
X5160Y2455D01*
Y2430D01*
X5060Y2403D02*
Y2370D01*
X5035D01*
X5043Y2387D01*
Y2395D01*
X5035Y2403D01*
X5018D01*
X5010Y2395D01*
Y2378D01*
X5018Y2370D01*
X5060Y2420D02*
X5027D01*
X5010Y2437D01*
X5027Y2453D01*
X5060D01*
X5260Y2330D02*
X5210D01*
Y2355D01*
X5218Y2363D01*
X5252D01*
X5260Y2355D01*
Y2330D01*
Y2380D02*
Y2397D01*
Y2388D01*
X5210D01*
Y2380D01*
Y2397D01*
Y2422D02*
X5260D01*
X5210Y2455D01*
X5260D01*
X5300Y2363D02*
X5333Y2330D01*
X5342Y2413D02*
X5350Y2405D01*
Y2388D01*
X5342Y2380D01*
X5308D01*
X5300Y2388D01*
Y2405D01*
X5308Y2413D01*
X5342Y2463D02*
X5350Y2455D01*
Y2438D01*
X5342Y2430D01*
X5333D01*
X5325Y2438D01*
Y2455D01*
X5317Y2463D01*
X5308D01*
X5300Y2455D01*
Y2438D01*
X5308Y2430D01*
X5452Y2363D02*
X5460Y2355D01*
Y2338D01*
X5452Y2330D01*
X5418D01*
X5410Y2338D01*
Y2355D01*
X5418Y2363D01*
X5460Y2380D02*
X5410D01*
Y2413D01*
X5460Y2430D02*
X5410D01*
X5427D01*
X5460Y2463D01*
X5435Y2438D01*
X5410Y2463D01*
D31*
X7120Y1740D02*
X8680D01*
X7120Y1060D02*
X8680D01*
X7120D02*
Y1740D01*
X8680Y1060D02*
Y1740D01*
X6825Y1160D02*
Y1640D01*
X5775Y1160D02*
Y1640D01*
Y1160D02*
X6825D01*
X5775Y1640D02*
X6825D01*
X5425Y1160D02*
Y1640D01*
X4375Y1160D02*
Y1640D01*
Y1160D02*
X5425D01*
X4375Y1640D02*
X5425D01*
X4225Y1160D02*
Y1640D01*
X3175Y1160D02*
Y1640D01*
Y1160D02*
X4225D01*
X3175Y1640D02*
X4225D01*
X2825Y1160D02*
Y1640D01*
X1775Y1160D02*
Y1640D01*
Y1160D02*
X2825D01*
X1775Y1640D02*
X2825D01*
X1625Y1160D02*
Y1640D01*
X575Y1160D02*
Y1640D01*
Y1160D02*
X1625D01*
X575Y1640D02*
X1625D01*
X9045Y1400D02*
Y1410D01*
X8915Y1400D02*
Y1410D01*
M02*
