G04 Layer_Color=128*
%FSLAX42Y42*%
%MOMM*%
G71*
G01*
G75*
%ADD10C,0.25*%
%ADD12C,0.25*%
%ADD13C,0.10*%
%ADD31C,0.05*%
D10*
X100Y2900D02*
G03*
X0Y2800I0J-100D01*
G01*
Y100D02*
G03*
X100Y0I100J0D01*
G01*
X9300D02*
G03*
X9400Y100I0J100D01*
G01*
Y2800D02*
G03*
X9300Y2900I-100J0D01*
G01*
X6200Y3200D02*
G03*
X6100Y3300I-100J0D01*
G01*
X3310D02*
G03*
X3190Y3180I0J-120D01*
G01*
D12*
X0Y100D02*
Y2800D01*
X100Y2900D02*
X3190Y2900D01*
X100Y0D02*
X9300D01*
X9400Y100D02*
Y2800D01*
X6200Y2900D02*
X9300D01*
X6200D02*
Y3200D01*
X3190Y2900D02*
Y3180D01*
X3310Y3300D02*
X6100D01*
D13*
X7260Y1690D02*
G03*
X7260Y1690I-50J0D01*
G01*
X5915Y1590D02*
G03*
X5915Y1590I-50J0D01*
G01*
X4515D02*
G03*
X4515Y1590I-50J0D01*
G01*
X3315D02*
G03*
X3315Y1590I-50J0D01*
G01*
X1915D02*
G03*
X1915Y1590I-50J0D01*
G01*
X715D02*
G03*
X715Y1590I-50J0D01*
G01*
X9047Y1295D02*
Y1515D01*
X8912Y1295D02*
Y1515D01*
Y1295D02*
X9047D01*
X8912Y1515D02*
X9047D01*
X8912Y1950D02*
X9047D01*
X8912Y1730D02*
X9047D01*
X8912D02*
Y1950D01*
X9047Y1730D02*
Y1950D01*
X7120Y1780D02*
X8680D01*
X7120Y1020D02*
X8680D01*
X7120D02*
Y1780D01*
X8680Y1020D02*
Y1780D01*
X6825Y1120D02*
Y1680D01*
X5775Y1120D02*
Y1680D01*
Y1120D02*
X6825D01*
X5775Y1680D02*
X6825D01*
X5425Y1120D02*
Y1680D01*
X4375Y1120D02*
Y1680D01*
Y1120D02*
X5425D01*
X4375Y1680D02*
X5425D01*
X4225Y1120D02*
Y1680D01*
X3175Y1120D02*
Y1680D01*
Y1120D02*
X4225D01*
X3175Y1680D02*
X4225D01*
X2825Y1120D02*
Y1680D01*
X1775Y1120D02*
Y1680D01*
Y1120D02*
X2825D01*
X1775Y1680D02*
X2825D01*
X1625Y1120D02*
Y1680D01*
X575Y1120D02*
Y1680D01*
Y1120D02*
X1625D01*
X575Y1680D02*
X1625D01*
D31*
X3350Y3050D02*
X3550D01*
X3450Y2950D02*
Y3150D01*
X5850Y3050D02*
X6050D01*
X5950Y2950D02*
Y3150D01*
X200Y300D02*
X400D01*
X300Y200D02*
Y400D01*
X9000Y300D02*
X9200D01*
X9100Y200D02*
Y400D01*
X8437Y2162D02*
X8487D01*
X8462Y2137D02*
Y2187D01*
X8183Y2162D02*
X8233D01*
X8208Y2137D02*
Y2187D01*
X7929Y2162D02*
X7979D01*
X7954Y2137D02*
Y2187D01*
X7675Y2162D02*
X7725D01*
X7700Y2137D02*
Y2187D01*
X7421Y2162D02*
X7471D01*
X7446Y2137D02*
Y2187D01*
X7167Y2162D02*
X7217D01*
X7192Y2137D02*
Y2187D01*
X6913Y2162D02*
X6963D01*
X6938Y2137D02*
Y2187D01*
X8437Y638D02*
X8487D01*
X8462Y613D02*
Y663D01*
X8183Y638D02*
X8233D01*
X8208Y613D02*
Y663D01*
X7929Y638D02*
X7979D01*
X7954Y613D02*
Y663D01*
X7675Y638D02*
X7725D01*
X7700Y613D02*
Y663D01*
X7421Y638D02*
X7471D01*
X7446Y613D02*
Y663D01*
X7167Y638D02*
X7217D01*
X7192Y613D02*
Y663D01*
X6913Y638D02*
X6963D01*
X6938Y613D02*
Y663D01*
X5037Y2162D02*
X5087D01*
X5062Y2137D02*
Y2187D01*
X4783Y2162D02*
X4833D01*
X4808Y2137D02*
Y2187D01*
X4529Y2162D02*
X4579D01*
X4554Y2137D02*
Y2187D01*
X4275Y2162D02*
X4325D01*
X4300Y2137D02*
Y2187D01*
X4021Y2162D02*
X4071D01*
X4046Y2137D02*
Y2187D01*
X3767Y2162D02*
X3817D01*
X3792Y2137D02*
Y2187D01*
X3513Y2162D02*
X3563D01*
X3538Y2137D02*
Y2187D01*
X5037Y638D02*
X5087D01*
X5062Y613D02*
Y663D01*
X4783Y638D02*
X4833D01*
X4808Y613D02*
Y663D01*
X4529Y638D02*
X4579D01*
X4554Y613D02*
Y663D01*
X4275Y638D02*
X4325D01*
X4300Y613D02*
Y663D01*
X4021Y638D02*
X4071D01*
X4046Y613D02*
Y663D01*
X3767Y638D02*
X3817D01*
X3792Y613D02*
Y663D01*
X3513Y638D02*
X3563D01*
X3538Y613D02*
Y663D01*
X2437Y2162D02*
X2487D01*
X2462Y2137D02*
Y2187D01*
X2183Y2162D02*
X2233D01*
X2208Y2137D02*
Y2187D01*
X1929Y2162D02*
X1979D01*
X1954Y2137D02*
Y2187D01*
X1675Y2162D02*
X1725D01*
X1700Y2137D02*
Y2187D01*
X1421Y2162D02*
X1471D01*
X1446Y2137D02*
Y2187D01*
X1167Y2162D02*
X1217D01*
X1192Y2137D02*
Y2187D01*
X913Y2162D02*
X963D01*
X938Y2137D02*
Y2187D01*
X2437Y638D02*
X2487D01*
X2462Y613D02*
Y663D01*
X2183Y638D02*
X2233D01*
X2208Y613D02*
Y663D01*
X1929Y638D02*
X1979D01*
X1954Y613D02*
Y663D01*
X1675Y638D02*
X1725D01*
X1700Y613D02*
Y663D01*
X1421Y638D02*
X1471D01*
X1446Y613D02*
Y663D01*
X1167Y638D02*
X1217D01*
X1192Y613D02*
Y663D01*
X913Y638D02*
X963D01*
X938Y613D02*
Y663D01*
X8895Y2610D02*
X8945D01*
X8920Y2585D02*
Y2635D01*
X8895Y1060D02*
X8945D01*
X8920Y1035D02*
Y1085D01*
X1015Y1410D02*
X1065D01*
X1040Y1385D02*
Y1435D01*
X4165Y2300D02*
X4215D01*
X4190Y2275D02*
Y2325D01*
X6905Y300D02*
X6955D01*
X6930Y275D02*
Y325D01*
X7175Y360D02*
X7225D01*
X7200Y335D02*
Y385D01*
X7935Y460D02*
X7985D01*
X7960Y435D02*
Y485D01*
X7418Y398D02*
X7468D01*
X7443Y373D02*
Y423D01*
X3515Y270D02*
X3565D01*
X3540Y245D02*
Y295D01*
X2825Y740D02*
X2875D01*
X2850Y715D02*
Y765D01*
X6565Y2180D02*
X6615D01*
X6590Y2155D02*
Y2205D01*
X7060Y1875D02*
X7110D01*
X7085Y1850D02*
Y1900D01*
X2735Y1410D02*
X2785D01*
X2760Y1385D02*
Y1435D01*
X2529Y1226D02*
X2579D01*
X2554Y1201D02*
Y1251D01*
X4621Y1576D02*
X4671D01*
X4646Y1551D02*
Y1601D01*
X4621Y1226D02*
X4671D01*
X4646Y1201D02*
Y1251D01*
X4395Y1410D02*
X4445D01*
X4420Y1385D02*
Y1435D01*
X1205Y1940D02*
X1255D01*
X1230Y1915D02*
Y1965D01*
X3295Y1940D02*
X3345D01*
X3320Y1915D02*
Y1965D01*
X5005Y1930D02*
X5055D01*
X5030Y1905D02*
Y1955D01*
X5705Y1910D02*
X5755D01*
X5730Y1885D02*
Y1935D01*
X5705Y2190D02*
X5755D01*
X5730Y2165D02*
Y2215D01*
X3255Y2250D02*
X3305D01*
X3280Y2225D02*
Y2275D01*
X7175Y2440D02*
X7225D01*
X7200Y2415D02*
Y2465D01*
X7415Y2390D02*
X7465D01*
X7440Y2365D02*
Y2415D01*
X5895Y860D02*
X5945D01*
X5920Y835D02*
Y885D01*
X4495Y860D02*
X4545D01*
X4520Y835D02*
Y885D01*
X3805Y870D02*
X3855D01*
X3830Y845D02*
Y895D01*
X3294Y881D02*
X3344D01*
X3319Y856D02*
Y906D01*
X2325Y750D02*
X2375D01*
X2350Y725D02*
Y775D01*
X1896Y881D02*
X1946D01*
X1921Y856D02*
Y906D01*
X694Y881D02*
X744D01*
X719Y856D02*
Y906D01*
X8445Y1620D02*
X8495D01*
X8470Y1595D02*
Y1645D01*
X7945Y1370D02*
X7995D01*
X7970Y1345D02*
Y1395D01*
X8193Y1123D02*
X8243D01*
X8218Y1098D02*
Y1148D01*
X8319Y1421D02*
X8369D01*
X8344Y1396D02*
Y1446D01*
X7305Y1430D02*
X7355D01*
X7330Y1405D02*
Y1455D01*
X7435Y1680D02*
X7485D01*
X7460Y1655D02*
Y1705D01*
X7815Y1680D02*
X7865D01*
X7840Y1655D02*
Y1705D01*
X5129Y1226D02*
X5179D01*
X5154Y1201D02*
Y1251D01*
X6021Y1226D02*
X6071D01*
X6046Y1201D02*
Y1251D01*
X6021Y1576D02*
X6071D01*
X6046Y1551D02*
Y1601D01*
X5129Y1576D02*
X5179D01*
X5154Y1551D02*
Y1601D01*
X2529Y1574D02*
X2579D01*
X2554Y1549D02*
Y1599D01*
X3421Y1574D02*
X3471D01*
X3446Y1549D02*
Y1599D01*
X3929Y1574D02*
X3979D01*
X3954Y1549D02*
Y1599D01*
X3929Y1226D02*
X3979D01*
X3954Y1201D02*
Y1251D01*
X3421Y1226D02*
X3471D01*
X3446Y1201D02*
Y1251D01*
X821Y1576D02*
X871D01*
X846Y1551D02*
Y1601D01*
X1329Y1576D02*
X1379D01*
X1354Y1551D02*
Y1601D01*
X2021Y1576D02*
X2071D01*
X2046Y1551D02*
Y1601D01*
X2015Y1230D02*
X2065D01*
X2040Y1205D02*
Y1255D01*
X1325Y1230D02*
X1375D01*
X1350Y1205D02*
Y1255D01*
X821Y1226D02*
X871D01*
X846Y1201D02*
Y1251D01*
X8446Y1119D02*
X8496D01*
X8471Y1094D02*
Y1144D01*
X7685Y1120D02*
X7735D01*
X7710Y1095D02*
Y1145D01*
X4535Y390D02*
X4585D01*
X4560Y365D02*
Y415D01*
X4025Y340D02*
X4075D01*
X4050Y315D02*
Y365D01*
X3755Y280D02*
X3805D01*
X3780Y255D02*
Y305D01*
X4285Y910D02*
X4335D01*
X4310Y885D02*
Y935D01*
M02*
