G04 Layer_Color=2752767*
%FSLAX42Y42*%
%MOMM*%
G71*
G01*
G75*
%ADD10C,0.25*%
%ADD12C,0.25*%
%ADD13C,0.10*%
%ADD32C,0.05*%
%ADD33C,0.07*%
D10*
X100Y2900D02*
G03*
X0Y2800I0J-100D01*
G01*
Y100D02*
G03*
X100Y0I100J0D01*
G01*
X9300D02*
G03*
X9400Y100I0J100D01*
G01*
Y2800D02*
G03*
X9300Y2900I-100J0D01*
G01*
X6200Y3200D02*
G03*
X6100Y3300I-100J0D01*
G01*
X3310D02*
G03*
X3190Y3180I0J-120D01*
G01*
D12*
X0Y100D02*
Y2800D01*
X100Y2900D02*
X3190Y2900D01*
X100Y0D02*
X9300D01*
X9400Y100D02*
Y2800D01*
X6200Y2900D02*
X9300D01*
X6200D02*
Y3200D01*
X3190Y2900D02*
Y3180D01*
X3310Y3300D02*
X6100D01*
D13*
X7260Y1690D02*
G03*
X7260Y1690I-50J0D01*
G01*
X5915Y1590D02*
G03*
X5915Y1590I-50J0D01*
G01*
X4515D02*
G03*
X4515Y1590I-50J0D01*
G01*
X3315D02*
G03*
X3315Y1590I-50J0D01*
G01*
X1915D02*
G03*
X1915Y1590I-50J0D01*
G01*
X715D02*
G03*
X715Y1590I-50J0D01*
G01*
X7120Y1780D02*
X8680D01*
X7120Y1020D02*
X8680D01*
X7120D02*
Y1780D01*
X8680Y1020D02*
Y1780D01*
X6825Y1120D02*
Y1680D01*
X5775Y1120D02*
Y1680D01*
Y1120D02*
X6825D01*
X5775Y1680D02*
X6825D01*
X5425Y1120D02*
Y1680D01*
X4375Y1120D02*
Y1680D01*
Y1120D02*
X5425D01*
X4375Y1680D02*
X5425D01*
X4225Y1120D02*
Y1680D01*
X3175Y1120D02*
Y1680D01*
Y1120D02*
X4225D01*
X3175Y1680D02*
X4225D01*
X2825Y1120D02*
Y1680D01*
X1775Y1120D02*
Y1680D01*
Y1120D02*
X2825D01*
X1775Y1680D02*
X2825D01*
X1625Y1120D02*
Y1680D01*
X575Y1120D02*
Y1680D01*
Y1120D02*
X1625D01*
X575Y1680D02*
X1625D01*
X9047Y1295D02*
Y1515D01*
X8912Y1295D02*
Y1515D01*
Y1295D02*
X9047D01*
X8912Y1515D02*
X9047D01*
D32*
X3480Y2980D02*
Y3020D01*
X3520D01*
Y2980D01*
X3480D01*
X5880D02*
Y3020D01*
X5920D01*
Y2980D01*
X5880D01*
X280Y280D02*
Y320D01*
X320D01*
Y280D01*
X280D01*
X9080D02*
Y320D01*
X9120D01*
Y280D01*
X9080D01*
D33*
X8482Y2162D02*
G03*
X8482Y2162I-20J0D01*
G01*
X8228D02*
G03*
X8228Y2162I-20J0D01*
G01*
X7974D02*
G03*
X7974Y2162I-20J0D01*
G01*
X7720D02*
G03*
X7720Y2162I-20J0D01*
G01*
X7466D02*
G03*
X7466Y2162I-20J0D01*
G01*
X7212D02*
G03*
X7212Y2162I-20J0D01*
G01*
X6958D02*
G03*
X6958Y2162I-20J0D01*
G01*
X8482Y638D02*
G03*
X8482Y638I-20J0D01*
G01*
X8228D02*
G03*
X8228Y638I-20J0D01*
G01*
X7974D02*
G03*
X7974Y638I-20J0D01*
G01*
X7720D02*
G03*
X7720Y638I-20J0D01*
G01*
X7466D02*
G03*
X7466Y638I-20J0D01*
G01*
X7212D02*
G03*
X7212Y638I-20J0D01*
G01*
X6958D02*
G03*
X6958Y638I-20J0D01*
G01*
X5082Y2162D02*
G03*
X5082Y2162I-20J0D01*
G01*
X4828D02*
G03*
X4828Y2162I-20J0D01*
G01*
X4574D02*
G03*
X4574Y2162I-20J0D01*
G01*
X4320D02*
G03*
X4320Y2162I-20J0D01*
G01*
X4066D02*
G03*
X4066Y2162I-20J0D01*
G01*
X3812D02*
G03*
X3812Y2162I-20J0D01*
G01*
X3558D02*
G03*
X3558Y2162I-20J0D01*
G01*
X5082Y638D02*
G03*
X5082Y638I-20J0D01*
G01*
X4828D02*
G03*
X4828Y638I-20J0D01*
G01*
X4574D02*
G03*
X4574Y638I-20J0D01*
G01*
X4320D02*
G03*
X4320Y638I-20J0D01*
G01*
X4066D02*
G03*
X4066Y638I-20J0D01*
G01*
X3812D02*
G03*
X3812Y638I-20J0D01*
G01*
X3558D02*
G03*
X3558Y638I-20J0D01*
G01*
X2482Y2162D02*
G03*
X2482Y2162I-20J0D01*
G01*
X2228D02*
G03*
X2228Y2162I-20J0D01*
G01*
X1974D02*
G03*
X1974Y2162I-20J0D01*
G01*
X1720D02*
G03*
X1720Y2162I-20J0D01*
G01*
X1466D02*
G03*
X1466Y2162I-20J0D01*
G01*
X1212D02*
G03*
X1212Y2162I-20J0D01*
G01*
X958D02*
G03*
X958Y2162I-20J0D01*
G01*
X2482Y638D02*
G03*
X2482Y638I-20J0D01*
G01*
X2228D02*
G03*
X2228Y638I-20J0D01*
G01*
X1974D02*
G03*
X1974Y638I-20J0D01*
G01*
X1720D02*
G03*
X1720Y638I-20J0D01*
G01*
X1466D02*
G03*
X1466Y638I-20J0D01*
G01*
X1212D02*
G03*
X1212Y638I-20J0D01*
G01*
X958D02*
G03*
X958Y638I-20J0D01*
G01*
X8940Y2610D02*
G03*
X8940Y2610I-20J0D01*
G01*
Y1060D02*
G03*
X8940Y1060I-20J0D01*
G01*
X1060Y1410D02*
G03*
X1060Y1410I-20J0D01*
G01*
X4210Y2300D02*
G03*
X4210Y2300I-20J0D01*
G01*
X6950Y300D02*
G03*
X6950Y300I-20J0D01*
G01*
X7220Y360D02*
G03*
X7220Y360I-20J0D01*
G01*
X7980Y460D02*
G03*
X7980Y460I-20J0D01*
G01*
X7463Y398D02*
G03*
X7463Y398I-20J0D01*
G01*
X3560Y270D02*
G03*
X3560Y270I-20J0D01*
G01*
X2870Y740D02*
G03*
X2870Y740I-20J0D01*
G01*
X6610Y2180D02*
G03*
X6610Y2180I-20J0D01*
G01*
X7105Y1875D02*
G03*
X7105Y1875I-20J0D01*
G01*
X2780Y1410D02*
G03*
X2780Y1410I-20J0D01*
G01*
X2574Y1226D02*
G03*
X2574Y1226I-20J0D01*
G01*
X4666Y1576D02*
G03*
X4666Y1576I-20J0D01*
G01*
Y1226D02*
G03*
X4666Y1226I-20J0D01*
G01*
X4440Y1410D02*
G03*
X4440Y1410I-20J0D01*
G01*
X1250Y1940D02*
G03*
X1250Y1940I-20J0D01*
G01*
X3340D02*
G03*
X3340Y1940I-20J0D01*
G01*
X5050Y1930D02*
G03*
X5050Y1930I-20J0D01*
G01*
X5750Y1910D02*
G03*
X5750Y1910I-20J0D01*
G01*
Y2190D02*
G03*
X5750Y2190I-20J0D01*
G01*
X3300Y2250D02*
G03*
X3300Y2250I-20J0D01*
G01*
X7220Y2440D02*
G03*
X7220Y2440I-20J0D01*
G01*
X7460Y2390D02*
G03*
X7460Y2390I-20J0D01*
G01*
X5940Y860D02*
G03*
X5940Y860I-20J0D01*
G01*
X4540D02*
G03*
X4540Y860I-20J0D01*
G01*
X3850Y870D02*
G03*
X3850Y870I-20J0D01*
G01*
X3339Y881D02*
G03*
X3339Y881I-20J0D01*
G01*
X2370Y750D02*
G03*
X2370Y750I-20J0D01*
G01*
X1941Y881D02*
G03*
X1941Y881I-20J0D01*
G01*
X739D02*
G03*
X739Y881I-20J0D01*
G01*
X8490Y1620D02*
G03*
X8490Y1620I-20J0D01*
G01*
X7990Y1370D02*
G03*
X7990Y1370I-20J0D01*
G01*
X8238Y1123D02*
G03*
X8238Y1123I-20J0D01*
G01*
X8365Y1344D02*
G03*
X8365Y1344I-20J0D01*
G01*
X7350Y1430D02*
G03*
X7350Y1430I-20J0D01*
G01*
X7480Y1680D02*
G03*
X7480Y1680I-20J0D01*
G01*
X7860D02*
G03*
X7860Y1680I-20J0D01*
G01*
X5174Y1226D02*
G03*
X5174Y1226I-20J0D01*
G01*
X6066D02*
G03*
X6066Y1226I-20J0D01*
G01*
Y1576D02*
G03*
X6066Y1576I-20J0D01*
G01*
X5174D02*
G03*
X5174Y1576I-20J0D01*
G01*
X2574Y1574D02*
G03*
X2574Y1574I-20J0D01*
G01*
X3466D02*
G03*
X3466Y1574I-20J0D01*
G01*
X3974D02*
G03*
X3974Y1574I-20J0D01*
G01*
Y1226D02*
G03*
X3974Y1226I-20J0D01*
G01*
X3466D02*
G03*
X3466Y1226I-20J0D01*
G01*
X866Y1576D02*
G03*
X866Y1576I-20J0D01*
G01*
X1374D02*
G03*
X1374Y1576I-20J0D01*
G01*
X2066D02*
G03*
X2066Y1576I-20J0D01*
G01*
X2060Y1230D02*
G03*
X2060Y1230I-20J0D01*
G01*
X1370D02*
G03*
X1370Y1230I-20J0D01*
G01*
X866Y1226D02*
G03*
X866Y1226I-20J0D01*
G01*
X8492Y1119D02*
G03*
X8492Y1119I-20J0D01*
G01*
X7730Y1120D02*
G03*
X7730Y1120I-20J0D01*
G01*
X4580Y390D02*
G03*
X4580Y390I-20J0D01*
G01*
X4070Y340D02*
G03*
X4070Y340I-20J0D01*
G01*
X3800Y280D02*
G03*
X3800Y280I-20J0D01*
G01*
X4330Y910D02*
G03*
X4330Y910I-20J0D01*
G01*
M02*
