G04 Layer_Physical_Order=2*
G04 Layer_Color=16711680*
%FSLAX42Y42*%
%MOMM*%
G71*
G01*
G75*
%ADD10C,0.71*%
%ADD11C,0.90*%
%ADD12C,3.50*%
%ADD13C,1.27*%
%ADD14R,1.50X1.25*%
%ADD15R,3.00X1.50*%
%ADD16C,1.00*%
%ADD17C,0.75*%
G36*
X375Y725D02*
X376Y725D01*
X425Y725D01*
Y625D01*
X374Y625D01*
Y725D01*
X375Y725D01*
D02*
G37*
G36*
X650Y558D02*
X650Y560D01*
X647Y562D01*
X644Y564D01*
X639Y566D01*
X633Y567D01*
X625Y568D01*
X605Y570D01*
X580Y570D01*
Y670D01*
X593Y670D01*
X633Y673D01*
X639Y674D01*
X644Y676D01*
X647Y678D01*
X650Y680D01*
X650Y682D01*
Y558D01*
D02*
G37*
G36*
X870Y900D02*
X857Y886D01*
X834Y859D01*
X825Y845D01*
X817Y832D01*
X811Y819D01*
X806Y806D01*
X803Y793D01*
X800Y780D01*
X800Y768D01*
X650Y892D01*
X664Y893D01*
X678Y895D01*
X693Y899D01*
X707Y904D01*
X721Y910D01*
X735Y918D01*
X749Y927D01*
X763Y937D01*
X777Y949D01*
X791Y963D01*
X870Y900D01*
D02*
G37*
G36*
X1870Y1047D02*
X1886Y1036D01*
X1897Y1020D01*
X1901Y1001D01*
X1900Y1000D01*
X1900D01*
Y710D01*
X1887Y704D01*
X1862Y725D01*
X1827Y744D01*
X1789Y755D01*
X1750Y759D01*
X1711Y755D01*
X1673Y744D01*
X1638Y725D01*
X1608Y700D01*
X1583Y669D01*
X1564Y635D01*
X1552Y597D01*
X1549Y557D01*
X1552Y518D01*
X1564Y480D01*
X1583Y446D01*
X1608Y415D01*
X1638Y390D01*
X1673Y371D01*
X1711Y360D01*
X1750Y356D01*
X1789Y360D01*
X1827Y371D01*
X1862Y390D01*
X1887Y411D01*
X1900Y405D01*
Y100D01*
X1900D01*
X1901Y99D01*
X1897Y80D01*
X1886Y64D01*
X1870Y53D01*
X1862Y51D01*
X1850Y50D01*
X1837Y50D01*
X100Y49D01*
X80Y53D01*
X67Y62D01*
X71Y75D01*
X400D01*
Y149D01*
X401Y150D01*
X406Y159D01*
X413Y169D01*
X430Y190D01*
X652Y411D01*
X778D01*
X780Y398D01*
X762Y391D01*
X746Y379D01*
X734Y363D01*
X727Y345D01*
X724Y325D01*
Y225D01*
X727Y205D01*
X734Y187D01*
X746Y171D01*
X796Y121D01*
X812Y109D01*
X820Y106D01*
X830Y102D01*
X850Y99D01*
X1325D01*
X1345Y102D01*
X1363Y109D01*
X1379Y121D01*
X1504Y246D01*
X1516Y262D01*
X1519Y270D01*
X1523Y280D01*
X1526Y300D01*
Y850D01*
X1523Y870D01*
X1516Y888D01*
X1504Y904D01*
X1378Y1029D01*
X1367Y1038D01*
X1371Y1051D01*
X1850Y1051D01*
X1870Y1047D01*
D02*
G37*
G36*
X477Y837D02*
X455Y828D01*
X437Y813D01*
X422Y795D01*
X413Y773D01*
X401Y774D01*
X400Y775D01*
Y775D01*
X238D01*
Y675D01*
Y575D01*
X399D01*
X407Y565D01*
X368Y525D01*
X50D01*
X50Y525D01*
X50Y537D01*
X49Y562D01*
X62Y575D01*
X212D01*
Y675D01*
Y775D01*
X50D01*
X49Y788D01*
X49Y812D01*
X62Y825D01*
X374D01*
X375Y824D01*
X376Y825D01*
X400D01*
Y842D01*
X406Y844D01*
X414Y845D01*
X457Y849D01*
X463Y849D01*
X475D01*
X477Y837D01*
D02*
G37*
G36*
X428Y225D02*
X414Y210D01*
X392Y184D01*
X384Y172D01*
X378Y161D01*
X373Y151D01*
X371Y142D01*
X370Y133D01*
X371Y126D01*
X374Y119D01*
X294Y249D01*
X298Y244D01*
X304Y241D01*
X312Y240D01*
X320Y242D01*
X330Y246D01*
X341Y253D01*
X354Y262D01*
X368Y273D01*
X400Y303D01*
X428Y225D01*
D02*
G37*
G36*
X1374Y818D02*
Y332D01*
X1293Y251D01*
X1093D01*
X1090Y263D01*
X1090Y264D01*
X1104Y275D01*
X1115Y289D01*
X1123Y307D01*
X1123Y312D01*
X1054D01*
Y325D01*
X1041D01*
Y394D01*
X1036Y394D01*
X1018Y386D01*
X1004Y375D01*
X991Y380D01*
Y423D01*
X986Y448D01*
X972Y468D01*
X929Y511D01*
X935Y524D01*
X950D01*
X970Y527D01*
X988Y534D01*
X1004Y546D01*
X1016Y562D01*
X1023Y580D01*
X1026Y600D01*
X1023Y620D01*
X1016Y638D01*
X1004Y654D01*
X988Y666D01*
X970Y673D01*
X950Y676D01*
X882D01*
X879Y679D01*
X863Y691D01*
X845Y698D01*
X825Y701D01*
Y708D01*
X651D01*
X650Y708D01*
X649Y708D01*
X648D01*
X648Y708D01*
X648Y708D01*
X625D01*
Y698D01*
X599Y697D01*
X595Y698D01*
X588Y699D01*
X581Y713D01*
X587Y727D01*
X588Y737D01*
X500D01*
Y763D01*
X588D01*
X587Y773D01*
X578Y795D01*
X563Y813D01*
X545Y828D01*
X523Y837D01*
X525Y849D01*
X598D01*
X625Y823D01*
Y742D01*
X798D01*
X798Y742D01*
X799Y742D01*
X801D01*
X802Y742D01*
X802Y742D01*
X825D01*
Y766D01*
X826Y766D01*
X826Y777D01*
X828Y787D01*
X831Y798D01*
X835Y809D01*
X840Y820D01*
X847Y832D01*
X855Y843D01*
X876Y869D01*
X879Y872D01*
X891Y866D01*
X890Y863D01*
X1010D01*
X1007Y874D01*
X999Y887D01*
X1006Y899D01*
X1293D01*
X1374Y818D01*
D02*
G37*
G36*
X376Y995D02*
X379Y991D01*
X384Y987D01*
X391Y984D01*
X400Y981D01*
X411Y979D01*
X424Y977D01*
X456Y975D01*
X475Y975D01*
Y875D01*
X456Y875D01*
X411Y871D01*
X400Y869D01*
X391Y866D01*
X384Y863D01*
X379Y859D01*
X376Y855D01*
X375Y850D01*
Y1000D01*
X376Y995D01*
D02*
G37*
%LPC*%
G36*
X1067Y394D02*
Y338D01*
X1123D01*
X1123Y343D01*
X1115Y361D01*
X1104Y375D01*
X1090Y386D01*
X1072Y394D01*
X1067Y394D01*
D02*
G37*
G36*
X1010Y837D02*
X963D01*
Y790D01*
X974Y793D01*
X994Y806D01*
X1007Y826D01*
X1010Y837D01*
D02*
G37*
G36*
X1637Y963D02*
X1627Y962D01*
X1605Y953D01*
X1587Y938D01*
X1572Y920D01*
X1563Y898D01*
X1562Y888D01*
X1637D01*
Y963D01*
D02*
G37*
G36*
X1663D02*
Y888D01*
X1738D01*
X1737Y898D01*
X1728Y920D01*
X1713Y938D01*
X1695Y953D01*
X1673Y962D01*
X1663Y963D01*
D02*
G37*
G36*
X1637Y862D02*
X1562D01*
X1563Y852D01*
X1572Y830D01*
X1587Y812D01*
X1605Y797D01*
X1627Y788D01*
X1637Y787D01*
Y862D01*
D02*
G37*
G36*
X1738D02*
X1663D01*
Y787D01*
X1673Y788D01*
X1695Y797D01*
X1713Y812D01*
X1728Y830D01*
X1737Y852D01*
X1738Y862D01*
D02*
G37*
G36*
X937Y837D02*
X890D01*
X893Y826D01*
X906Y806D01*
X926Y793D01*
X937Y790D01*
Y837D01*
D02*
G37*
%LPD*%
D10*
X950Y600D02*
D03*
D03*
Y850D02*
D03*
D11*
X1054Y325D02*
D03*
X927D02*
D03*
X800D02*
D03*
D12*
X1750Y557D02*
D03*
D13*
X500Y750D02*
D03*
X1650Y875D02*
D03*
D14*
X725Y620D02*
D03*
Y830D02*
D03*
D15*
X225Y925D02*
D03*
Y675D02*
D03*
Y425D02*
D03*
Y175D02*
D03*
D16*
X1450Y300D02*
Y850D01*
X1325Y175D02*
X1450Y300D01*
X850Y175D02*
X1325D01*
X1325Y975D02*
X1450Y850D01*
X875Y975D02*
X1325D01*
X729Y830D02*
X875Y975D01*
X800Y225D02*
X850Y175D01*
X800Y225D02*
Y325D01*
X725Y620D02*
X730Y625D01*
X825D01*
X850Y600D01*
X950D01*
X375Y425D02*
X575Y625D01*
X580Y620D01*
X725D01*
X425Y675D02*
X500Y750D01*
X225Y675D02*
X425D01*
X630Y925D02*
X725Y830D01*
X225Y925D02*
X630D01*
D17*
X927Y325D02*
Y423D01*
X875Y475D02*
X927Y423D01*
X625Y475D02*
X875D01*
X325Y175D02*
X625Y475D01*
X225Y175D02*
X325D01*
M02*
