G04 Layer_Color=128*
%FSLAX42Y42*%
%MOMM*%
G71*
G01*
G75*
%ADD28C,0.05*%
D28*
X200Y300D02*
X400D01*
X300Y200D02*
Y400D01*
X200Y3300D02*
X400D01*
X300Y3200D02*
Y3400D01*
X11950Y300D02*
X12150D01*
X12050Y200D02*
Y400D01*
X11950Y3300D02*
X12150D01*
X12050Y3200D02*
Y3400D01*
X996Y1815D02*
X1067D01*
X1031Y1780D02*
Y1851D01*
X864Y2300D02*
X936D01*
X900Y2264D02*
Y2336D01*
X1076Y2413D02*
X1147D01*
X1112Y2377D02*
Y2448D01*
X11464Y1800D02*
X11536D01*
X11500Y1764D02*
Y1836D01*
X11813Y2551D02*
X11884D01*
X11849Y2516D02*
Y2587D01*
X7285Y2398D02*
X7356D01*
X7320Y2363D02*
Y2434D01*
X6521Y2354D02*
X6592D01*
X6557Y2319D02*
Y2390D01*
X11604Y2953D02*
X11675D01*
X11639Y2917D02*
Y2988D01*
X10364Y900D02*
X10436D01*
X10400Y864D02*
Y936D01*
X11148Y1502D02*
X11219D01*
X11183Y1467D02*
Y1538D01*
X11124Y2414D02*
X11195D01*
X11160Y2379D02*
Y2450D01*
X9178Y2940D02*
X9250D01*
X9214Y2905D02*
Y2976D01*
X8699Y2402D02*
X8770D01*
X8734Y2366D02*
Y2437D01*
X8722Y1490D02*
X8793D01*
X8758Y1454D02*
Y1525D01*
X4264Y900D02*
X4336D01*
X4300Y864D02*
Y936D01*
X5038Y1502D02*
X5109D01*
X5074Y1467D02*
Y1538D01*
X5015Y2414D02*
X5086D01*
X5050Y2379D02*
Y2450D01*
X5494Y2953D02*
X5566D01*
X5530Y2917D02*
Y2989D01*
X1929Y576D02*
X2000D01*
X1964Y541D02*
Y612D01*
X1723Y908D02*
X1794D01*
X1759Y872D02*
Y943D01*
X2514Y1504D02*
X2585D01*
X2549Y1468D02*
Y1539D01*
X2490Y2416D02*
X2562D01*
X2526Y2380D02*
Y2451D01*
X2970Y2954D02*
X3041D01*
X3006Y2919D02*
Y2990D01*
X1556Y2951D02*
X1627D01*
X1591Y2916D02*
Y2987D01*
X1472Y2357D02*
X1543D01*
X1508Y2321D02*
Y2392D01*
X1305Y1169D02*
X1376D01*
X1341Y1133D02*
Y1204D01*
X1222Y574D02*
X1293D01*
X1257Y539D02*
Y610D01*
X4080Y2950D02*
X4151D01*
X4116Y2914D02*
Y2985D01*
X3830Y1167D02*
X3901D01*
X3865Y1132D02*
Y1203D01*
X3764Y600D02*
X3836D01*
X3800Y564D02*
Y636D01*
X7764Y2937D02*
X7835D01*
X7800Y2901D02*
Y2972D01*
X7681Y2343D02*
X7752D01*
X7716Y2307D02*
Y2378D01*
X7597Y1749D02*
X7668D01*
X7633Y1713D02*
Y1784D01*
X7514Y1154D02*
X7585D01*
X7549Y1119D02*
Y1190D01*
X7430Y560D02*
X7501D01*
X7466Y525D02*
Y596D01*
X9856Y573D02*
X9927D01*
X9891Y537D02*
Y608D01*
X9939Y1167D02*
X10010D01*
X9975Y1131D02*
Y1203D01*
X10190Y2949D02*
X10261D01*
X10225Y2914D02*
Y2985D01*
X10106Y2355D02*
X10177D01*
X10142Y2320D02*
Y2391D01*
X2636Y578D02*
X2707D01*
X2672Y542D02*
Y613D01*
X1160Y3007D02*
X1231D01*
X1195Y2971D02*
Y3042D01*
X909Y1224D02*
X980D01*
X945Y1189D02*
Y1260D01*
X826Y630D02*
X897D01*
X861Y595D02*
Y666D01*
X1700Y1820D02*
X1771D01*
X1735Y1784D02*
Y1856D01*
X3684Y3005D02*
X3755D01*
X3720Y2970D02*
Y3041D01*
X3601Y2411D02*
X3672D01*
X3636Y2376D02*
Y2447D01*
X3517Y1817D02*
X3588D01*
X3553Y1782D02*
Y1853D01*
X3434Y1223D02*
X3505D01*
X3469Y1187D02*
Y1258D01*
X3364Y600D02*
X3436D01*
X3400Y564D02*
Y636D01*
X4453Y575D02*
X4524D01*
X4489Y539D02*
Y610D01*
X4224Y1819D02*
X4295D01*
X4260Y1783D02*
Y1854D01*
X5098Y3009D02*
X5169D01*
X5134Y2973D02*
Y3044D01*
X5164Y600D02*
X5236D01*
X5200Y564D02*
Y636D01*
X5958Y1222D02*
X6029D01*
X5994Y1186D02*
Y1257D01*
X7034Y616D02*
X7105D01*
X7070Y580D02*
Y651D01*
X7118Y1210D02*
X7189D01*
X7153Y1175D02*
Y1246D01*
X7201Y1804D02*
X7272D01*
X7237Y1769D02*
Y1840D01*
X7368Y2993D02*
X7439D01*
X7404Y2957D02*
Y3028D01*
X8471Y2939D02*
X8542D01*
X8507Y2903D02*
Y2974D01*
X8844Y563D02*
X8916D01*
X8880Y528D02*
Y599D01*
X8928Y1158D02*
X8999D01*
X8964Y1122D02*
Y1193D01*
X9095Y2346D02*
X9166D01*
X9131Y2310D02*
Y2382D01*
X8764Y3000D02*
X8836D01*
X8800Y2964D02*
Y3036D01*
X11208Y3008D02*
X11279D01*
X11243Y2973D02*
Y3044D01*
X11520Y2359D02*
X11591D01*
X11556Y2323D02*
Y2394D01*
X11264Y600D02*
X11336D01*
X11300Y564D02*
Y636D01*
X10563Y574D02*
X10634D01*
X10598Y539D02*
Y610D01*
X10334Y1818D02*
X10405D01*
X10369Y1783D02*
Y1854D01*
X10897Y2951D02*
X10968D01*
X10932Y2916D02*
Y2987D01*
X9794Y3005D02*
X9865D01*
X9829Y2970D02*
Y3041D01*
X9710Y2411D02*
X9781D01*
X9746Y2375D02*
Y2447D01*
X9627Y1817D02*
X9698D01*
X9662Y1781D02*
Y1852D01*
X9543Y1223D02*
X9614D01*
X9579Y1187D02*
Y1258D01*
X9460Y629D02*
X9531D01*
X9495Y593D02*
Y664D01*
X1389Y1763D02*
X1460D01*
X1424Y1727D02*
Y1798D01*
X2407Y1822D02*
X2478D01*
X2442Y1786D02*
Y1857D01*
X2574Y3010D02*
X2645D01*
X2609Y2974D02*
Y3046D01*
X2263Y2953D02*
X2334D01*
X2298Y2917D02*
Y2988D01*
X3997Y2356D02*
X4068D01*
X4032Y2320D02*
Y2391D01*
X3913Y1761D02*
X3984D01*
X3949Y1726D02*
Y1797D01*
X10023Y1761D02*
X10094D01*
X10058Y1726D02*
Y1797D01*
X4787Y2951D02*
X4858D01*
X4823Y2916D02*
Y2987D01*
X4931Y1820D02*
X5002D01*
X4967Y1785D02*
Y1856D01*
X5244Y1170D02*
X5315D01*
X5279Y1135D02*
Y1206D01*
X6354Y1166D02*
X6425D01*
X6390Y1130D02*
Y1201D01*
X7908Y1806D02*
X7979D01*
X7944Y1770D02*
Y1841D01*
X11353Y1170D02*
X11424D01*
X11389Y1135D02*
Y1206D01*
X8615Y1807D02*
X8686D01*
X8651Y1772D02*
Y1843D01*
X2720Y1172D02*
X2791D01*
X2755Y1136D02*
Y1207D01*
X2887Y2360D02*
X2958D01*
X2922Y2325D02*
Y2396D01*
X5411Y2359D02*
X5482D01*
X5446Y2323D02*
Y2394D01*
X7932Y894D02*
X8003D01*
X7967Y858D02*
Y929D01*
X3282Y2362D02*
X3353D01*
X3317Y2326D02*
Y2397D01*
X3282Y3011D02*
X3353D01*
X3317Y2975D02*
Y3046D01*
X5750Y2318D02*
X5821D01*
X5785Y2282D02*
Y2353D01*
X5750Y2967D02*
X5821D01*
X5785Y2931D02*
Y3002D01*
X6806Y1506D02*
X6877D01*
X6841Y1471D02*
Y1542D01*
X9398Y2411D02*
X9469D01*
X9434Y2375D02*
Y2447D01*
X9398Y3060D02*
X9469D01*
X9434Y3024D02*
Y3096D01*
X8137Y562D02*
X8208D01*
X8173Y526D02*
Y597D01*
X6125Y2410D02*
X6196D01*
X6161Y2374D02*
Y2445D01*
X6916Y3006D02*
X6987D01*
X6951Y2970D02*
Y3041D01*
X504Y2550D02*
X576D01*
X540Y2514D02*
Y2586D01*
X489Y2325D02*
X561D01*
X525Y2289D02*
Y2361D01*
X614Y1150D02*
X686D01*
X650Y1114D02*
Y1186D01*
X614Y1380D02*
X685D01*
X650Y1344D02*
Y1416D01*
X224Y1000D02*
X296D01*
X260Y964D02*
Y1036D01*
M02*
