G04 Layer_Color=65535*
%FSLAX42Y42*%
%MOMM*%
G71*
G01*
G75*
%ADD18C,0.25*%
%ADD19C,0.20*%
%ADD20C,0.13*%
D18*
X11745Y2221D02*
G03*
X11745Y2221I-12J0D01*
G01*
X11079Y3146D02*
G03*
X11079Y3146I-12J0D01*
G01*
X11122Y2814D02*
G03*
X11122Y2814I-12J0D01*
G01*
X10205Y1956D02*
G03*
X10205Y1956I-12J0D01*
G01*
X10912Y1957D02*
G03*
X10912Y1957I-12J0D01*
G01*
X11578Y1033D02*
G03*
X11578Y1033I-12J0D01*
G01*
X11488Y435D02*
G03*
X11488Y435I-12J0D01*
G01*
X10788D02*
G03*
X10788Y435I-12J0D01*
G01*
X9338Y765D02*
G03*
X9338Y765I-12J0D01*
G01*
X9414Y1360D02*
G03*
X9414Y1360I-12J0D01*
G01*
X9498Y1954D02*
G03*
X9498Y1954I-12J0D01*
G01*
X9581Y2548D02*
G03*
X9581Y2548I-12J0D01*
G01*
X9665Y3142D02*
G03*
X9665Y3142I-12J0D01*
G01*
X9320Y2209D02*
G03*
X9320Y2209I-12J0D01*
G01*
X8653Y3133D02*
G03*
X8653Y3133I-12J0D01*
G01*
X8696Y2801D02*
G03*
X8696Y2801I-12J0D01*
G01*
X7779Y1943D02*
G03*
X7779Y1943I-12J0D01*
G01*
X8486Y1945D02*
G03*
X8486Y1945I-12J0D01*
G01*
X9153Y1020D02*
G03*
X9153Y1020I-12J0D01*
G01*
X9069Y426D02*
G03*
X9069Y426I-12J0D01*
G01*
X8362Y425D02*
G03*
X8362Y425I-12J0D01*
G01*
X6905Y753D02*
G03*
X6905Y753I-12J0D01*
G01*
X6989Y1347D02*
G03*
X6989Y1347I-12J0D01*
G01*
X7072Y1941D02*
G03*
X7072Y1941I-12J0D01*
G01*
X7156Y2536D02*
G03*
X7156Y2536I-12J0D01*
G01*
X7239Y3130D02*
G03*
X7239Y3130I-12J0D01*
G01*
X6579Y1029D02*
G03*
X6579Y1029I-12J0D01*
G01*
X5996Y2547D02*
G03*
X5996Y2547I-12J0D01*
G01*
X5636Y2222D02*
G03*
X5636Y2222I-12J0D01*
G01*
X4969Y3146D02*
G03*
X4969Y3146I-12J0D01*
G01*
X5012Y2814D02*
G03*
X5012Y2814I-12J0D01*
G01*
X4095Y1956D02*
G03*
X4095Y1956I-12J0D01*
G01*
X4802Y1957D02*
G03*
X4802Y1957I-12J0D01*
G01*
X5469Y1033D02*
G03*
X5469Y1033I-12J0D01*
G01*
X5388Y435D02*
G03*
X5388Y435I-12J0D01*
G01*
X4678Y438D02*
G03*
X4678Y438I-12J0D01*
G01*
X3221Y766D02*
G03*
X3221Y766I-12J0D01*
G01*
X3305Y1360D02*
G03*
X3305Y1360I-12J0D01*
G01*
X3388Y1954D02*
G03*
X3388Y1954I-12J0D01*
G01*
X3472Y2548D02*
G03*
X3472Y2548I-12J0D01*
G01*
X3555Y3143D02*
G03*
X3555Y3143I-12J0D01*
G01*
X3112Y2223D02*
G03*
X3112Y2223I-12J0D01*
G01*
X2445Y3147D02*
G03*
X2445Y3147I-12J0D01*
G01*
X2488Y2816D02*
G03*
X2488Y2816I-12J0D01*
G01*
X1571Y1957D02*
G03*
X1571Y1957I-12J0D01*
G01*
X2278Y1959D02*
G03*
X2278Y1959I-12J0D01*
G01*
X2945Y1035D02*
G03*
X2945Y1035I-12J0D01*
G01*
X2861Y440D02*
G03*
X2861Y440I-12J0D01*
G01*
X2154Y439D02*
G03*
X2154Y439I-12J0D01*
G01*
X697Y767D02*
G03*
X697Y767I-12J0D01*
G01*
X780Y1361D02*
G03*
X780Y1361I-12J0D01*
G01*
X864Y1956D02*
G03*
X864Y1956I-12J0D01*
G01*
X947Y2550D02*
G03*
X947Y2550I-12J0D01*
G01*
X1031Y3144D02*
G03*
X1031Y3144I-12J0D01*
G01*
D19*
X11108Y2136D02*
X11608D01*
X11108Y2306D02*
Y2466D01*
Y2636D02*
X11608D01*
Y2306D02*
Y2466D01*
X11191Y3231D02*
X11691D01*
Y2901D02*
Y3061D01*
X11191Y2731D02*
X11691D01*
X11191Y2901D02*
Y3061D01*
X10484Y2729D02*
X10984D01*
X10484Y2899D02*
Y3059D01*
Y3229D02*
X10984D01*
Y2899D02*
Y3059D01*
X10317Y2041D02*
X10817D01*
Y1711D02*
Y1871D01*
X10317Y1541D02*
X10817D01*
X10317Y1711D02*
Y1871D01*
X11024Y2042D02*
X11524D01*
Y1712D02*
Y1872D01*
X11024Y1542D02*
X11524D01*
X11024Y1712D02*
Y1872D01*
X10941Y948D02*
X11441D01*
X10941Y1118D02*
Y1278D01*
Y1448D02*
X11441D01*
Y1118D02*
Y1278D01*
X10850Y350D02*
X11350D01*
X10850Y520D02*
Y680D01*
Y850D02*
X11350D01*
Y520D02*
Y680D01*
X10150Y350D02*
X10650D01*
X10150Y520D02*
Y680D01*
Y850D02*
X10650D01*
Y520D02*
Y680D01*
X9450Y850D02*
X9950D01*
Y520D02*
Y680D01*
X9450Y350D02*
X9950D01*
X9450Y520D02*
Y680D01*
X9527Y1445D02*
X10027D01*
Y1115D02*
Y1275D01*
X9527Y945D02*
X10027D01*
X9527Y1115D02*
Y1275D01*
X9610Y2039D02*
X10110D01*
Y1709D02*
Y1869D01*
X9610Y1539D02*
X10110D01*
X9610Y1709D02*
Y1869D01*
X9694Y2633D02*
X10194D01*
Y2303D02*
Y2463D01*
X9694Y2133D02*
X10194D01*
X9694Y2303D02*
Y2463D01*
X9777Y3227D02*
X10277D01*
Y2897D02*
Y3057D01*
X9777Y2727D02*
X10277D01*
X9777Y2897D02*
Y3057D01*
X8682Y2124D02*
X9182D01*
X8682Y2294D02*
Y2454D01*
Y2624D02*
X9182D01*
Y2294D02*
Y2454D01*
X8766Y3218D02*
X9266D01*
Y2888D02*
Y3048D01*
X8766Y2718D02*
X9266D01*
X8766Y2888D02*
Y3048D01*
X8059Y2716D02*
X8559D01*
X8059Y2886D02*
Y3046D01*
Y3216D02*
X8559D01*
Y2886D02*
Y3046D01*
X7892Y2028D02*
X8392D01*
Y1698D02*
Y1858D01*
X7892Y1528D02*
X8392D01*
X7892Y1698D02*
Y1858D01*
X8599Y2030D02*
X9099D01*
Y1700D02*
Y1860D01*
X8599Y1530D02*
X9099D01*
X8599Y1700D02*
Y1860D01*
X8515Y935D02*
X9015D01*
X8515Y1105D02*
Y1265D01*
Y1435D02*
X9015D01*
Y1105D02*
Y1265D01*
X8432Y341D02*
X8932D01*
X8432Y511D02*
Y671D01*
Y841D02*
X8932D01*
Y511D02*
Y671D01*
X7725Y340D02*
X8225D01*
X7725Y510D02*
Y670D01*
Y840D02*
X8225D01*
Y510D02*
Y670D01*
X7018Y838D02*
X7518D01*
Y508D02*
Y668D01*
X7018Y338D02*
X7518D01*
X7018Y508D02*
Y668D01*
X7101Y1432D02*
X7601D01*
Y1102D02*
Y1262D01*
X7101Y932D02*
X7601D01*
X7101Y1102D02*
Y1262D01*
X7185Y2026D02*
X7685D01*
Y1696D02*
Y1856D01*
X7185Y1526D02*
X7685D01*
X7185Y1696D02*
Y1856D01*
X7268Y2621D02*
X7768D01*
Y2291D02*
Y2451D01*
X7268Y2121D02*
X7768D01*
X7268Y2291D02*
Y2451D01*
X7352Y3215D02*
X7852D01*
Y2885D02*
Y3045D01*
X7352Y2715D02*
X7852D01*
X7352Y2885D02*
Y3045D01*
X5942Y944D02*
X6442D01*
X5942Y1114D02*
Y1274D01*
Y1444D02*
X6442D01*
Y1114D02*
Y1274D01*
X6109Y2632D02*
X6609D01*
Y2302D02*
Y2462D01*
X6109Y2132D02*
X6609D01*
X6109Y2302D02*
Y2462D01*
X4998Y2137D02*
X5498D01*
X4998Y2307D02*
Y2467D01*
Y2637D02*
X5498D01*
Y2307D02*
Y2467D01*
X5082Y3231D02*
X5582D01*
Y2901D02*
Y3061D01*
X5082Y2731D02*
X5582D01*
X5082Y2901D02*
Y3061D01*
X4375Y2729D02*
X4875D01*
X4375Y2899D02*
Y3059D01*
Y3229D02*
X4875D01*
Y2899D02*
Y3059D01*
X4208Y2041D02*
X4708D01*
Y1711D02*
Y1871D01*
X4208Y1541D02*
X4708D01*
X4208Y1711D02*
Y1871D01*
X4915Y2042D02*
X5415D01*
Y1712D02*
Y1872D01*
X4915Y1542D02*
X5415D01*
X4915Y1712D02*
Y1872D01*
X4831Y948D02*
X5331D01*
X4831Y1118D02*
Y1278D01*
Y1448D02*
X5331D01*
Y1118D02*
Y1278D01*
X4750Y350D02*
X5250D01*
X4750Y520D02*
Y680D01*
Y850D02*
X5250D01*
Y520D02*
Y680D01*
X4041Y353D02*
X4541D01*
X4041Y523D02*
Y683D01*
Y853D02*
X4541D01*
Y523D02*
Y683D01*
X3334Y851D02*
X3834D01*
Y521D02*
Y681D01*
X3334Y351D02*
X3834D01*
X3334Y521D02*
Y681D01*
X3417Y1445D02*
X3917D01*
Y1115D02*
Y1275D01*
X3417Y945D02*
X3917D01*
X3417Y1115D02*
Y1275D01*
X3501Y2039D02*
X4001D01*
Y1709D02*
Y1869D01*
X3501Y1539D02*
X4001D01*
X3501Y1709D02*
Y1869D01*
X3584Y2633D02*
X4084D01*
Y2303D02*
Y2463D01*
X3584Y2133D02*
X4084D01*
X3584Y2303D02*
Y2463D01*
X3668Y3228D02*
X4168D01*
Y2898D02*
Y3058D01*
X3668Y2728D02*
X4168D01*
X3668Y2898D02*
Y3058D01*
X2474Y2138D02*
X2974D01*
X2474Y2308D02*
Y2468D01*
Y2638D02*
X2974D01*
Y2308D02*
Y2468D01*
X2558Y3232D02*
X3058D01*
Y2902D02*
Y3062D01*
X2558Y2732D02*
X3058D01*
X2558Y2902D02*
Y3062D01*
X1850Y2731D02*
X2350D01*
X1850Y2901D02*
Y3061D01*
Y3231D02*
X2350D01*
Y2901D02*
Y3061D01*
X1683Y2042D02*
X2183D01*
Y1712D02*
Y1872D01*
X1683Y1542D02*
X2183D01*
X1683Y1712D02*
Y1872D01*
X2391Y2044D02*
X2891D01*
Y1714D02*
Y1874D01*
X2391Y1544D02*
X2891D01*
X2391Y1714D02*
Y1874D01*
X2307Y950D02*
X2807D01*
X2307Y1120D02*
Y1280D01*
Y1450D02*
X2807D01*
Y1120D02*
Y1280D01*
X2224Y355D02*
X2724D01*
X2224Y525D02*
Y685D01*
Y855D02*
X2724D01*
Y525D02*
Y685D01*
X1516Y354D02*
X2016D01*
X1516Y524D02*
Y684D01*
Y854D02*
X2016D01*
Y524D02*
Y684D01*
X809Y852D02*
X1309D01*
Y522D02*
Y682D01*
X809Y352D02*
X1309D01*
X809Y522D02*
Y682D01*
X893Y1446D02*
X1393D01*
Y1116D02*
Y1276D01*
X893Y946D02*
X1393D01*
X893Y1116D02*
Y1276D01*
X976Y2041D02*
X1476D01*
Y1711D02*
Y1871D01*
X976Y1541D02*
X1476D01*
X976Y1711D02*
Y1871D01*
X1060Y2635D02*
X1560D01*
Y2305D02*
Y2465D01*
X1060Y2135D02*
X1560D01*
X1060Y2305D02*
Y2465D01*
X1143Y3229D02*
X1643D01*
Y2899D02*
Y3059D01*
X1143Y2729D02*
X1643D01*
X1143Y2899D02*
Y3059D01*
D20*
X1342Y3026D02*
Y2984D01*
X1351Y2976D01*
X1367D01*
X1376Y2984D01*
Y3026D01*
X1392Y2976D02*
X1409D01*
X1401D01*
Y3026D01*
X1392Y3018D01*
X1266Y2411D02*
Y2369D01*
X1274Y2361D01*
X1291D01*
X1299Y2369D01*
Y2411D01*
X1349Y2361D02*
X1316D01*
X1349Y2394D01*
Y2402D01*
X1341Y2411D01*
X1324D01*
X1316Y2402D01*
X1191Y1805D02*
Y1764D01*
X1199Y1755D01*
X1216D01*
X1224Y1764D01*
Y1805D01*
X1241Y1797D02*
X1249Y1805D01*
X1266D01*
X1274Y1797D01*
Y1788D01*
X1266Y1780D01*
X1258D01*
X1266D01*
X1274Y1772D01*
Y1764D01*
X1266Y1755D01*
X1249D01*
X1241Y1764D01*
X1108Y1211D02*
Y1169D01*
X1116Y1161D01*
X1133D01*
X1141Y1169D01*
Y1211D01*
X1183Y1161D02*
Y1211D01*
X1158Y1186D01*
X1191D01*
X1021Y597D02*
Y555D01*
X1030Y547D01*
X1046D01*
X1055Y555D01*
Y597D01*
X1105D02*
X1071D01*
Y572D01*
X1088Y580D01*
X1096D01*
X1105Y572D01*
Y555D01*
X1096Y547D01*
X1080D01*
X1071Y555D01*
X1709Y601D02*
Y560D01*
X1717Y551D01*
X1734D01*
X1742Y560D01*
Y601D01*
X1792D02*
X1775Y593D01*
X1759Y576D01*
Y560D01*
X1767Y551D01*
X1784D01*
X1792Y560D01*
Y568D01*
X1784Y576D01*
X1759D01*
X2437Y610D02*
Y568D01*
X2445Y560D01*
X2462D01*
X2470Y568D01*
Y610D01*
X2487D02*
X2520D01*
Y602D01*
X2487Y568D01*
Y560D01*
X2510Y1206D02*
Y1164D01*
X2519Y1156D01*
X2535D01*
X2544Y1164D01*
Y1206D01*
X2560Y1197D02*
X2569Y1206D01*
X2585D01*
X2594Y1197D01*
Y1189D01*
X2585Y1181D01*
X2594Y1172D01*
Y1164D01*
X2585Y1156D01*
X2569D01*
X2560Y1164D01*
Y1172D01*
X2569Y1181D01*
X2560Y1189D01*
Y1197D01*
X2569Y1181D02*
X2585D01*
X2585Y1811D02*
Y1769D01*
X2594Y1761D01*
X2610D01*
X2619Y1769D01*
Y1811D01*
X2635Y1769D02*
X2644Y1761D01*
X2660D01*
X2669Y1769D01*
Y1803D01*
X2660Y1811D01*
X2644D01*
X2635Y1803D01*
Y1794D01*
X2644Y1786D01*
X2669D01*
X1868Y1811D02*
Y1769D01*
X1877Y1761D01*
X1893D01*
X1902Y1769D01*
Y1811D01*
X1918Y1761D02*
X1935D01*
X1927D01*
Y1811D01*
X1918Y1803D01*
X1960D02*
X1968Y1811D01*
X1985D01*
X1993Y1803D01*
Y1769D01*
X1985Y1761D01*
X1968D01*
X1960Y1769D01*
Y1803D01*
X2050Y3028D02*
Y2986D01*
X2058Y2978D01*
X2075D01*
X2083Y2986D01*
Y3028D01*
X2100Y2978D02*
X2116D01*
X2108D01*
Y3028D01*
X2100Y3019D01*
X2141Y2978D02*
X2158D01*
X2150D01*
Y3028D01*
X2141Y3019D01*
X2726Y3023D02*
Y2982D01*
X2734Y2973D01*
X2751D01*
X2759Y2982D01*
Y3023D01*
X2776Y2973D02*
X2792D01*
X2784D01*
Y3023D01*
X2776Y3015D01*
X2850Y2973D02*
X2817D01*
X2850Y3007D01*
Y3015D01*
X2842Y3023D01*
X2826D01*
X2817Y3015D01*
X2631Y2421D02*
Y2379D01*
X2639Y2371D01*
X2656D01*
X2664Y2379D01*
Y2421D01*
X2681Y2371D02*
X2697D01*
X2689D01*
Y2421D01*
X2681Y2412D01*
X2722D02*
X2731Y2421D01*
X2747D01*
X2756Y2412D01*
Y2404D01*
X2747Y2396D01*
X2739D01*
X2747D01*
X2756Y2387D01*
Y2379D01*
X2747Y2371D01*
X2731D01*
X2722Y2379D01*
X3851Y2986D02*
Y2945D01*
X3860Y2936D01*
X3876D01*
X3885Y2945D01*
Y2986D01*
X3901Y2936D02*
X3918D01*
X3910D01*
Y2986D01*
X3901Y2978D01*
X3968Y2936D02*
Y2986D01*
X3943Y2961D01*
X3976D01*
X3758Y2394D02*
Y2352D01*
X3766Y2344D01*
X3783D01*
X3791Y2352D01*
Y2394D01*
X3808Y2344D02*
X3825D01*
X3816D01*
Y2394D01*
X3808Y2385D01*
X3883Y2394D02*
X3850D01*
Y2369D01*
X3866Y2377D01*
X3875D01*
X3883Y2369D01*
Y2352D01*
X3875Y2344D01*
X3858D01*
X3850Y2352D01*
X3707Y1815D02*
Y1773D01*
X3715Y1765D01*
X3732D01*
X3740Y1773D01*
Y1815D01*
X3757Y1765D02*
X3774D01*
X3765D01*
Y1815D01*
X3757Y1807D01*
X3832Y1815D02*
X3815Y1807D01*
X3799Y1790D01*
Y1773D01*
X3807Y1765D01*
X3824D01*
X3832Y1773D01*
Y1782D01*
X3824Y1790D01*
X3799D01*
X3611Y1203D02*
Y1161D01*
X3619Y1153D01*
X3636D01*
X3644Y1161D01*
Y1203D01*
X3661Y1153D02*
X3677D01*
X3669D01*
Y1203D01*
X3661Y1194D01*
X3702Y1203D02*
X3736D01*
Y1194D01*
X3702Y1161D01*
Y1153D01*
X3506Y601D02*
Y560D01*
X3514Y551D01*
X3531D01*
X3539Y560D01*
Y601D01*
X3556Y551D02*
X3573D01*
X3564D01*
Y601D01*
X3556Y593D01*
X3598D02*
X3606Y601D01*
X3623D01*
X3631Y593D01*
Y585D01*
X3623Y576D01*
X3631Y568D01*
Y560D01*
X3623Y551D01*
X3606D01*
X3598Y560D01*
Y568D01*
X3606Y576D01*
X3598Y585D01*
Y593D01*
X3606Y576D02*
X3623D01*
X4227Y631D02*
Y590D01*
X4236Y581D01*
X4252D01*
X4261Y590D01*
Y631D01*
X4277Y581D02*
X4294D01*
X4286D01*
Y631D01*
X4277Y623D01*
X4319Y590D02*
X4327Y581D01*
X4344D01*
X4352Y590D01*
Y623D01*
X4344Y631D01*
X4327D01*
X4319Y623D01*
Y615D01*
X4327Y606D01*
X4352D01*
X4924Y634D02*
Y593D01*
X4933Y584D01*
X4949D01*
X4958Y593D01*
Y634D01*
X5008Y584D02*
X4974D01*
X5008Y618D01*
Y626D01*
X4999Y634D01*
X4983D01*
X4974Y626D01*
X5024D02*
X5033Y634D01*
X5049D01*
X5058Y626D01*
Y593D01*
X5049Y584D01*
X5033D01*
X5024Y593D01*
Y626D01*
X5029Y1235D02*
Y1194D01*
X5037Y1185D01*
X5054D01*
X5062Y1194D01*
Y1235D01*
X5112Y1185D02*
X5079D01*
X5112Y1219D01*
Y1227D01*
X5104Y1235D01*
X5087D01*
X5079Y1227D01*
X5129Y1185D02*
X5146D01*
X5137D01*
Y1235D01*
X5129Y1227D01*
X5108Y1800D02*
Y1758D01*
X5117Y1750D01*
X5133D01*
X5142Y1758D01*
Y1800D01*
X5192Y1750D02*
X5158D01*
X5192Y1783D01*
Y1792D01*
X5183Y1800D01*
X5167D01*
X5158Y1792D01*
X5242Y1750D02*
X5208D01*
X5242Y1783D01*
Y1792D01*
X5233Y1800D01*
X5217D01*
X5208Y1792D01*
X4393Y1810D02*
Y1768D01*
X4401Y1760D01*
X4418D01*
X4426Y1768D01*
Y1810D01*
X4476Y1760D02*
X4443D01*
X4476Y1793D01*
Y1801D01*
X4468Y1810D01*
X4451D01*
X4443Y1801D01*
X4493D02*
X4501Y1810D01*
X4518D01*
X4526Y1801D01*
Y1793D01*
X4518Y1785D01*
X4509D01*
X4518D01*
X4526Y1776D01*
Y1768D01*
X4518Y1760D01*
X4501D01*
X4493Y1768D01*
X4573Y3016D02*
Y2975D01*
X4581Y2966D01*
X4598D01*
X4606Y2975D01*
Y3016D01*
X4656Y2966D02*
X4623D01*
X4656Y3000D01*
Y3008D01*
X4647Y3016D01*
X4631D01*
X4623Y3008D01*
X4697Y2966D02*
Y3016D01*
X4672Y2991D01*
X4706D01*
X5268Y3009D02*
Y2968D01*
X5277Y2959D01*
X5293D01*
X5302Y2968D01*
Y3009D01*
X5352Y2959D02*
X5318D01*
X5352Y2993D01*
Y3001D01*
X5343Y3009D01*
X5327D01*
X5318Y3001D01*
X5402Y3009D02*
X5368D01*
Y2984D01*
X5385Y2993D01*
X5393D01*
X5402Y2984D01*
Y2968D01*
X5393Y2959D01*
X5377D01*
X5368Y2968D01*
X5195Y2414D02*
Y2372D01*
X5203Y2364D01*
X5220D01*
X5228Y2372D01*
Y2414D01*
X5278Y2364D02*
X5245D01*
X5278Y2397D01*
Y2406D01*
X5270Y2414D01*
X5253D01*
X5245Y2406D01*
X5328Y2414D02*
X5311Y2406D01*
X5295Y2389D01*
Y2372D01*
X5303Y2364D01*
X5320D01*
X5328Y2372D01*
Y2381D01*
X5320Y2389D01*
X5295D01*
X6316Y2418D02*
Y2376D01*
X6325Y2368D01*
X6341D01*
X6350Y2376D01*
Y2418D01*
X6400Y2368D02*
X6366D01*
X6400Y2401D01*
Y2410D01*
X6391Y2418D01*
X6375D01*
X6366Y2410D01*
X6416Y2418D02*
X6449D01*
Y2410D01*
X6416Y2376D01*
Y2368D01*
X6105Y1205D02*
Y1164D01*
X6114Y1155D01*
X6130D01*
X6139Y1164D01*
Y1205D01*
X6189Y1155D02*
X6155D01*
X6189Y1189D01*
Y1197D01*
X6180Y1205D01*
X6164D01*
X6155Y1197D01*
X6205D02*
X6214Y1205D01*
X6230D01*
X6239Y1197D01*
Y1189D01*
X6230Y1180D01*
X6239Y1172D01*
Y1164D01*
X6230Y1155D01*
X6214D01*
X6205Y1164D01*
Y1172D01*
X6214Y1180D01*
X6205Y1189D01*
Y1197D01*
X6214Y1180D02*
X6230D01*
X7551Y2941D02*
Y2899D01*
X7559Y2891D01*
X7576D01*
X7584Y2899D01*
Y2941D01*
X7634Y2891D02*
X7601D01*
X7634Y2924D01*
Y2933D01*
X7626Y2941D01*
X7609D01*
X7601Y2933D01*
X7651Y2899D02*
X7659Y2891D01*
X7676D01*
X7684Y2899D01*
Y2933D01*
X7676Y2941D01*
X7659D01*
X7651Y2933D01*
Y2924D01*
X7659Y2916D01*
X7684D01*
X7459Y2358D02*
Y2317D01*
X7467Y2308D01*
X7484D01*
X7492Y2317D01*
Y2358D01*
X7509Y2350D02*
X7517Y2358D01*
X7534D01*
X7542Y2350D01*
Y2342D01*
X7534Y2333D01*
X7526D01*
X7534D01*
X7542Y2325D01*
Y2317D01*
X7534Y2308D01*
X7517D01*
X7509Y2317D01*
X7559Y2350D02*
X7567Y2358D01*
X7584D01*
X7592Y2350D01*
Y2317D01*
X7584Y2308D01*
X7567D01*
X7559Y2317D01*
Y2350D01*
X7368Y1785D02*
Y1744D01*
X7377Y1735D01*
X7393D01*
X7402Y1744D01*
Y1785D01*
X7418Y1777D02*
X7427Y1785D01*
X7443D01*
X7452Y1777D01*
Y1769D01*
X7443Y1760D01*
X7435D01*
X7443D01*
X7452Y1752D01*
Y1744D01*
X7443Y1735D01*
X7427D01*
X7418Y1744D01*
X7468Y1735D02*
X7485D01*
X7477D01*
Y1785D01*
X7468Y1777D01*
X7285Y1191D02*
Y1149D01*
X7293Y1141D01*
X7310D01*
X7318Y1149D01*
Y1191D01*
X7335Y1183D02*
X7343Y1191D01*
X7360D01*
X7368Y1183D01*
Y1174D01*
X7360Y1166D01*
X7352D01*
X7360D01*
X7368Y1158D01*
Y1149D01*
X7360Y1141D01*
X7343D01*
X7335Y1149D01*
X7418Y1141D02*
X7385D01*
X7418Y1174D01*
Y1183D01*
X7410Y1191D01*
X7393D01*
X7385Y1183D01*
X7204Y617D02*
Y575D01*
X7213Y567D01*
X7229D01*
X7237Y575D01*
Y617D01*
X7254Y608D02*
X7262Y617D01*
X7279D01*
X7287Y608D01*
Y600D01*
X7279Y592D01*
X7271D01*
X7279D01*
X7287Y583D01*
Y575D01*
X7279Y567D01*
X7262D01*
X7254Y575D01*
X7304Y608D02*
X7312Y617D01*
X7329D01*
X7337Y608D01*
Y600D01*
X7329Y592D01*
X7321D01*
X7329D01*
X7337Y583D01*
Y575D01*
X7329Y567D01*
X7312D01*
X7304Y575D01*
X7901Y620D02*
Y578D01*
X7910Y570D01*
X7926D01*
X7935Y578D01*
Y620D01*
X7951Y611D02*
X7960Y620D01*
X7976D01*
X7985Y611D01*
Y603D01*
X7976Y595D01*
X7968D01*
X7976D01*
X7985Y586D01*
Y578D01*
X7976Y570D01*
X7960D01*
X7951Y578D01*
X8026Y570D02*
Y620D01*
X8001Y595D01*
X8035D01*
X8616Y600D02*
Y558D01*
X8624Y550D01*
X8641D01*
X8649Y558D01*
Y600D01*
X8666Y592D02*
X8674Y600D01*
X8691D01*
X8699Y592D01*
Y583D01*
X8691Y575D01*
X8682D01*
X8691D01*
X8699Y567D01*
Y558D01*
X8691Y550D01*
X8674D01*
X8666Y558D01*
X8749Y600D02*
X8716D01*
Y575D01*
X8732Y583D01*
X8741D01*
X8749Y575D01*
Y558D01*
X8741Y550D01*
X8724D01*
X8716Y558D01*
X8681Y1207D02*
Y1165D01*
X8689Y1157D01*
X8706D01*
X8714Y1165D01*
Y1207D01*
X8731Y1199D02*
X8739Y1207D01*
X8756D01*
X8764Y1199D01*
Y1190D01*
X8756Y1182D01*
X8747D01*
X8756D01*
X8764Y1174D01*
Y1165D01*
X8756Y1157D01*
X8739D01*
X8731Y1165D01*
X8814Y1207D02*
X8797Y1199D01*
X8781Y1182D01*
Y1165D01*
X8789Y1157D01*
X8806D01*
X8814Y1165D01*
Y1174D01*
X8806Y1182D01*
X8781D01*
X8793Y1787D02*
Y1745D01*
X8801Y1737D01*
X8818D01*
X8826Y1745D01*
Y1787D01*
X8842Y1779D02*
X8851Y1787D01*
X8867D01*
X8876Y1779D01*
Y1770D01*
X8867Y1762D01*
X8859D01*
X8867D01*
X8876Y1754D01*
Y1745D01*
X8867Y1737D01*
X8851D01*
X8842Y1745D01*
X8892Y1787D02*
X8926D01*
Y1779D01*
X8892Y1745D01*
Y1737D01*
X8085Y1785D02*
Y1744D01*
X8094Y1735D01*
X8110D01*
X8119Y1744D01*
Y1785D01*
X8135Y1777D02*
X8144Y1785D01*
X8160D01*
X8169Y1777D01*
Y1769D01*
X8160Y1760D01*
X8152D01*
X8160D01*
X8169Y1752D01*
Y1744D01*
X8160Y1735D01*
X8144D01*
X8135Y1744D01*
X8185Y1777D02*
X8194Y1785D01*
X8210D01*
X8219Y1777D01*
Y1769D01*
X8210Y1760D01*
X8219Y1752D01*
Y1744D01*
X8210Y1735D01*
X8194D01*
X8185Y1744D01*
Y1752D01*
X8194Y1760D01*
X8185Y1769D01*
Y1777D01*
X8194Y1760D02*
X8210D01*
X8224Y2988D02*
Y2946D01*
X8232Y2938D01*
X8249D01*
X8257Y2946D01*
Y2988D01*
X8274Y2980D02*
X8282Y2988D01*
X8299D01*
X8307Y2980D01*
Y2971D01*
X8299Y2963D01*
X8291D01*
X8299D01*
X8307Y2955D01*
Y2946D01*
X8299Y2938D01*
X8282D01*
X8274Y2946D01*
X8324D02*
X8332Y2938D01*
X8349D01*
X8357Y2946D01*
Y2980D01*
X8349Y2988D01*
X8332D01*
X8324Y2980D01*
Y2971D01*
X8332Y2963D01*
X8357D01*
X8940Y2978D02*
Y2937D01*
X8948Y2928D01*
X8965D01*
X8973Y2937D01*
Y2978D01*
X9015Y2928D02*
Y2978D01*
X8990Y2953D01*
X9023D01*
X9040Y2970D02*
X9048Y2978D01*
X9065D01*
X9073Y2970D01*
Y2937D01*
X9065Y2928D01*
X9048D01*
X9040Y2937D01*
Y2970D01*
X8862Y2353D02*
Y2311D01*
X8870Y2303D01*
X8887D01*
X8895Y2311D01*
Y2353D01*
X8937Y2303D02*
Y2353D01*
X8912Y2328D01*
X8945D01*
X8962Y2303D02*
X8979D01*
X8970D01*
Y2353D01*
X8962Y2345D01*
X9962Y2996D02*
Y2954D01*
X9970Y2946D01*
X9987D01*
X9995Y2954D01*
Y2996D01*
X10037Y2946D02*
Y2996D01*
X10012Y2971D01*
X10045D01*
X10095Y2946D02*
X10062D01*
X10095Y2979D01*
Y2988D01*
X10087Y2996D01*
X10070D01*
X10062Y2988D01*
X9881Y2422D02*
Y2380D01*
X9890Y2372D01*
X9906D01*
X9915Y2380D01*
Y2422D01*
X9956Y2372D02*
Y2422D01*
X9931Y2397D01*
X9965D01*
X9981Y2413D02*
X9990Y2422D01*
X10006D01*
X10015Y2413D01*
Y2405D01*
X10006Y2397D01*
X9998D01*
X10006D01*
X10015Y2388D01*
Y2380D01*
X10006Y2372D01*
X9990D01*
X9981Y2380D01*
X9797Y1818D02*
Y1776D01*
X9805Y1768D01*
X9822D01*
X9830Y1776D01*
Y1818D01*
X9872Y1768D02*
Y1818D01*
X9847Y1793D01*
X9880D01*
X9921Y1768D02*
Y1818D01*
X9897Y1793D01*
X9930D01*
X9743Y1219D02*
Y1178D01*
X9751Y1169D01*
X9768D01*
X9776Y1178D01*
Y1219D01*
X9818Y1169D02*
Y1219D01*
X9793Y1194D01*
X9826D01*
X9876Y1219D02*
X9843D01*
Y1194D01*
X9859Y1203D01*
X9868D01*
X9876Y1194D01*
Y1178D01*
X9868Y1169D01*
X9851D01*
X9843Y1178D01*
X9645Y597D02*
Y555D01*
X9653Y547D01*
X9670D01*
X9678Y555D01*
Y597D01*
X9720Y547D02*
Y597D01*
X9695Y572D01*
X9728D01*
X9778Y597D02*
X9762Y588D01*
X9745Y572D01*
Y555D01*
X9753Y547D01*
X9770D01*
X9778Y555D01*
Y563D01*
X9770Y572D01*
X9745D01*
X10327Y632D02*
Y591D01*
X10335Y582D01*
X10352D01*
X10360Y591D01*
Y632D01*
X10402Y582D02*
Y632D01*
X10377Y607D01*
X10410D01*
X10427Y632D02*
X10460D01*
Y624D01*
X10427Y591D01*
Y582D01*
X11020Y620D02*
Y578D01*
X11028Y570D01*
X11045D01*
X11053Y578D01*
Y620D01*
X11095Y570D02*
Y620D01*
X11070Y595D01*
X11103D01*
X11120Y612D02*
X11128Y620D01*
X11145D01*
X11153Y612D01*
Y603D01*
X11145Y595D01*
X11153Y587D01*
Y578D01*
X11145Y570D01*
X11128D01*
X11120Y578D01*
Y587D01*
X11128Y595D01*
X11120Y603D01*
Y612D01*
X11128Y595D02*
X11145D01*
X11090Y1220D02*
Y1178D01*
X11098Y1170D01*
X11115D01*
X11123Y1178D01*
Y1220D01*
X11165Y1170D02*
Y1220D01*
X11140Y1195D01*
X11173D01*
X11190Y1178D02*
X11198Y1170D01*
X11215D01*
X11223Y1178D01*
Y1212D01*
X11215Y1220D01*
X11198D01*
X11190Y1212D01*
Y1203D01*
X11198Y1195D01*
X11223D01*
X11220Y1800D02*
Y1758D01*
X11228Y1750D01*
X11245D01*
X11253Y1758D01*
Y1800D01*
X11303D02*
X11270D01*
Y1775D01*
X11287Y1783D01*
X11295D01*
X11303Y1775D01*
Y1758D01*
X11295Y1750D01*
X11278D01*
X11270Y1758D01*
X11320Y1792D02*
X11328Y1800D01*
X11345D01*
X11353Y1792D01*
Y1758D01*
X11345Y1750D01*
X11328D01*
X11320Y1758D01*
Y1792D01*
X10538Y1845D02*
Y1803D01*
X10546Y1795D01*
X10563D01*
X10571Y1803D01*
Y1845D01*
X10621D02*
X10588D01*
Y1820D01*
X10604Y1828D01*
X10612D01*
X10621Y1820D01*
Y1803D01*
X10612Y1795D01*
X10596D01*
X10588Y1803D01*
X10637Y1795D02*
X10654D01*
X10646D01*
Y1845D01*
X10637Y1836D01*
X10651Y3010D02*
Y2969D01*
X10659Y2960D01*
X10676D01*
X10684Y2969D01*
Y3010D01*
X10734D02*
X10701D01*
Y2985D01*
X10717Y2994D01*
X10726D01*
X10734Y2985D01*
Y2969D01*
X10726Y2960D01*
X10709D01*
X10701Y2969D01*
X10784Y2960D02*
X10751D01*
X10784Y2994D01*
Y3002D01*
X10776Y3010D01*
X10759D01*
X10751Y3002D01*
X11380Y2990D02*
Y2948D01*
X11388Y2940D01*
X11405D01*
X11413Y2948D01*
Y2990D01*
X11463D02*
X11430D01*
Y2965D01*
X11447Y2973D01*
X11455D01*
X11463Y2965D01*
Y2948D01*
X11455Y2940D01*
X11438D01*
X11430Y2948D01*
X11480Y2982D02*
X11488Y2990D01*
X11505D01*
X11513Y2982D01*
Y2973D01*
X11505Y2965D01*
X11497D01*
X11505D01*
X11513Y2957D01*
Y2948D01*
X11505Y2940D01*
X11488D01*
X11480Y2948D01*
X11290Y2420D02*
Y2378D01*
X11298Y2370D01*
X11315D01*
X11323Y2378D01*
Y2420D01*
X11373D02*
X11340D01*
Y2395D01*
X11357Y2403D01*
X11365D01*
X11373Y2395D01*
Y2378D01*
X11365Y2370D01*
X11348D01*
X11340Y2378D01*
X11415Y2370D02*
Y2420D01*
X11390Y2395D01*
X11423D01*
M02*
