M48
;Layer_Color=9474304
;FILE_FORMAT=4:2
METRIC,LZ
;TYPE=PLATED
T1F00S00C0.71
T2F00S00C2.00
%
T01
X00026Y001
X00065Y00115
X00065Y00138
X000945Y001224
X001341Y001169
X001257Y000574
X000861Y00063
X001964Y000576
X001759Y000908
X001735Y00182
X001424Y001763
X001031Y001815
X002442Y001822
X002549Y001504
X002755Y001172
X002672Y000578
X0034Y0006
X0038
X003865Y001167
X003469Y001223
X003553Y001817
X003949Y001761
X00426Y001819
X004967Y00182
X005074Y001502
X005279Y00117
X0052Y0006
X004489Y000575
X0043Y0009
X005994Y001222
X00639Y001166
X006841Y001506
X007153Y00121
X007549Y001154
X007633Y001749
X007944Y001806
X007237Y001804
X00707Y000616
X007466Y00056
X008173Y000562
X007967Y000894
X00888Y000563
X008964Y001158
X008758Y00149
X008651Y001807
X009662Y001817
X010058Y001761
X010369Y001818
X0104Y0009
X010598Y000574
X009891Y000573
X009495Y000629
X009579Y001223
X009975Y001167
X011389Y00117
X011183Y001502
X0115Y0018
X0113Y0006
X01116Y002414
X011556Y002359
X011849Y002551
X011639Y002953
X011243Y003008
X010932Y002951
X010225Y002949
X009829Y003005
X009434Y00306
X009214Y00294
X0088Y003
X008507Y002939
X008734Y002402
X009131Y002346
X009434Y002411
X009746Y002411
X010142Y002355
X007716Y002343
X00732Y002398
X007404Y002993
X0078Y002937
X006951Y003006
X006557Y002354
X006161Y00241
X005785Y002318
X005446Y002359
X00505Y002414
X005134Y003009
X004823Y002951
X00553Y002953
X005785Y002967
X004116Y00295
X00372Y003005
X003317Y003011
X003006Y002954
X002609Y00301
X002298Y002953
X001591Y002951
X001195Y003007
X001112Y002413
X0009Y0023
X000525Y002325
X00054Y00255
X001508Y002357
X002526Y002416
X002922Y00236
X003317Y002362
X003636Y002411
X004032Y002356
T02
X0003Y0003
X01205
Y0033
X0003
M30
