G04 Layer_Color=32896*
%FSLAX42Y42*%
%MOMM*%
G71*
G01*
G75*
%ADD19C,0.20*%
%ADD20C,0.13*%
%ADD26C,0.05*%
D19*
X9494Y2702D02*
Y2712D01*
X9374Y2702D02*
Y2712D01*
X7005Y2598D02*
Y2608D01*
X6885Y2598D02*
Y2608D01*
X5725Y2609D02*
Y2619D01*
X5845Y2609D02*
Y2619D01*
X3257Y2653D02*
Y2663D01*
X3377Y2653D02*
Y2663D01*
X1336Y2974D02*
Y2984D01*
X1451Y2974D02*
Y2984D01*
X1252Y2380D02*
Y2390D01*
X1367Y2380D02*
Y2390D01*
X1169Y1786D02*
Y1796D01*
X1284Y1786D02*
Y1796D01*
X1085Y1191D02*
Y1201D01*
X1200Y1191D02*
Y1201D01*
X1002Y597D02*
Y607D01*
X1117Y597D02*
Y607D01*
X1824Y599D02*
Y609D01*
X1709Y599D02*
Y609D01*
X2531Y600D02*
Y610D01*
X2416Y600D02*
Y610D01*
X2500Y1195D02*
Y1205D01*
X2615Y1195D02*
Y1205D01*
X2583Y1789D02*
Y1799D01*
X2698Y1789D02*
Y1799D01*
X1991Y1787D02*
Y1797D01*
X1876Y1787D02*
Y1797D01*
X2158Y2976D02*
Y2986D01*
X2043Y2976D02*
Y2986D01*
X2750Y2977D02*
Y2987D01*
X2865Y2977D02*
Y2987D01*
X2667Y2383D02*
Y2393D01*
X2782Y2383D02*
Y2393D01*
X3860Y2973D02*
Y2983D01*
X3975Y2973D02*
Y2983D01*
X3777Y2378D02*
Y2388D01*
X3892Y2378D02*
Y2388D01*
X3693Y1784D02*
Y1794D01*
X3808Y1784D02*
Y1794D01*
X3610Y1190D02*
Y1200D01*
X3725Y1190D02*
Y1200D01*
X3526Y596D02*
Y606D01*
X3641Y596D02*
Y606D01*
X4348Y598D02*
Y608D01*
X4233Y598D02*
Y608D01*
X5055Y599D02*
Y609D01*
X4940Y599D02*
Y609D01*
X5024Y1193D02*
Y1203D01*
X5139Y1193D02*
Y1203D01*
X5107Y1787D02*
Y1797D01*
X5222Y1787D02*
Y1797D01*
X4515Y1786D02*
Y1796D01*
X4400Y1786D02*
Y1796D01*
X4682Y2974D02*
Y2984D01*
X4567Y2974D02*
Y2984D01*
X5274Y2976D02*
Y2986D01*
X5389Y2976D02*
Y2986D01*
X5191Y2382D02*
Y2392D01*
X5306Y2382D02*
Y2392D01*
X6294Y2408D02*
Y2418D01*
X6409Y2408D02*
Y2418D01*
X6249Y1189D02*
Y1199D01*
X6134Y1189D02*
Y1199D01*
X7544Y2960D02*
Y2970D01*
X7659Y2960D02*
Y2970D01*
X7461Y2366D02*
Y2376D01*
X7576Y2366D02*
Y2376D01*
X7377Y1771D02*
Y1781D01*
X7492Y1771D02*
Y1781D01*
X7294Y1177D02*
Y1187D01*
X7409Y1177D02*
Y1187D01*
X7210Y583D02*
Y593D01*
X7325Y583D02*
Y593D01*
X8032Y585D02*
Y595D01*
X7917Y585D02*
Y595D01*
X8739Y586D02*
Y596D01*
X8624Y586D02*
Y596D01*
X8708Y1180D02*
Y1190D01*
X8823Y1180D02*
Y1190D01*
X8791Y1775D02*
Y1785D01*
X8906Y1775D02*
Y1785D01*
X8199Y1773D02*
Y1783D01*
X8084Y1773D02*
Y1783D01*
X8366Y2961D02*
Y2971D01*
X8251Y2961D02*
Y2971D01*
X8958Y2963D02*
Y2973D01*
X9073Y2963D02*
Y2973D01*
X8990Y2369D02*
Y2379D01*
X8875Y2369D02*
Y2379D01*
X9970Y2972D02*
Y2982D01*
X10085Y2972D02*
Y2982D01*
X9886Y2378D02*
Y2388D01*
X10001Y2378D02*
Y2388D01*
X9803Y1784D02*
Y1794D01*
X9918Y1784D02*
Y1794D01*
X9719Y1190D02*
Y1200D01*
X9834Y1190D02*
Y1200D01*
X9636Y596D02*
Y606D01*
X9751Y596D02*
Y606D01*
X10458Y597D02*
Y607D01*
X10343Y597D02*
Y607D01*
X11165Y599D02*
Y609D01*
X11050Y599D02*
Y609D01*
X11248Y1193D02*
Y1203D01*
X11133Y1193D02*
Y1203D01*
X11217Y1787D02*
Y1797D01*
X11332Y1787D02*
Y1797D01*
X10625Y1786D02*
Y1796D01*
X10510Y1786D02*
Y1796D01*
X10792Y2974D02*
Y2984D01*
X10677Y2974D02*
Y2984D01*
X11384Y2976D02*
Y2986D01*
X11499Y2976D02*
Y2986D01*
X11415Y2381D02*
Y2391D01*
X11300Y2381D02*
Y2391D01*
D20*
X9518Y2947D02*
Y2997D01*
X9493D01*
X9485Y2989D01*
Y2972D01*
X9493Y2964D01*
X9518D01*
X9501D02*
X9485Y2947D01*
X9443D02*
Y2997D01*
X9468Y2972D01*
X9435D01*
X7029Y2843D02*
Y2893D01*
X7004D01*
X6995Y2885D01*
Y2868D01*
X7004Y2860D01*
X7029D01*
X7012D02*
X6995Y2843D01*
X6979Y2885D02*
X6970Y2893D01*
X6954D01*
X6945Y2885D01*
Y2877D01*
X6954Y2868D01*
X6962D01*
X6954D01*
X6945Y2860D01*
Y2852D01*
X6954Y2843D01*
X6970D01*
X6979Y2852D01*
X5871Y2856D02*
Y2906D01*
X5846D01*
X5837Y2898D01*
Y2881D01*
X5846Y2873D01*
X5871D01*
X5854D02*
X5837Y2856D01*
X5787D02*
X5821D01*
X5787Y2889D01*
Y2898D01*
X5796Y2906D01*
X5812D01*
X5821Y2898D01*
X3402Y2899D02*
Y2949D01*
X3377D01*
X3368Y2941D01*
Y2924D01*
X3377Y2916D01*
X3402D01*
X3385D02*
X3368Y2899D01*
X3352D02*
X3335D01*
X3343D01*
Y2949D01*
X3352Y2941D01*
X1430Y3225D02*
X1439Y3234D01*
X1455D01*
X1464Y3225D01*
Y3192D01*
X1455Y3184D01*
X1439D01*
X1430Y3192D01*
X1414Y3184D02*
X1397D01*
X1405D01*
Y3234D01*
X1414Y3225D01*
X1346Y2633D02*
X1355Y2642D01*
X1371D01*
X1380Y2633D01*
Y2600D01*
X1371Y2592D01*
X1355D01*
X1346Y2600D01*
X1296Y2592D02*
X1330D01*
X1296Y2625D01*
Y2633D01*
X1305Y2642D01*
X1321D01*
X1330Y2633D01*
X1263Y2039D02*
X1271Y2047D01*
X1288D01*
X1296Y2039D01*
Y2006D01*
X1288Y1997D01*
X1271D01*
X1263Y2006D01*
X1246Y2039D02*
X1238Y2047D01*
X1221D01*
X1213Y2039D01*
Y2031D01*
X1221Y2022D01*
X1229D01*
X1221D01*
X1213Y2014D01*
Y2006D01*
X1221Y1997D01*
X1238D01*
X1246Y2006D01*
X1179Y1445D02*
X1187Y1453D01*
X1204D01*
X1212Y1445D01*
Y1411D01*
X1204Y1403D01*
X1187D01*
X1179Y1411D01*
X1137Y1403D02*
Y1453D01*
X1162Y1428D01*
X1129D01*
X1095Y850D02*
X1103Y859D01*
X1120D01*
X1128Y850D01*
Y817D01*
X1120Y809D01*
X1103D01*
X1095Y817D01*
X1045Y859D02*
X1078D01*
Y834D01*
X1062Y842D01*
X1053D01*
X1045Y834D01*
Y817D01*
X1053Y809D01*
X1070D01*
X1078Y817D01*
X1804Y850D02*
X1812Y859D01*
X1829D01*
X1837Y850D01*
Y817D01*
X1829Y809D01*
X1812D01*
X1804Y817D01*
X1754Y859D02*
X1770Y850D01*
X1787Y834D01*
Y817D01*
X1779Y809D01*
X1762D01*
X1754Y817D01*
Y825D01*
X1762Y834D01*
X1787D01*
X2510Y853D02*
X2518Y861D01*
X2535D01*
X2543Y853D01*
Y820D01*
X2535Y811D01*
X2518D01*
X2510Y820D01*
X2493Y861D02*
X2460D01*
Y853D01*
X2493Y820D01*
Y811D01*
X2594Y1447D02*
X2602Y1456D01*
X2619D01*
X2627Y1447D01*
Y1414D01*
X2619Y1406D01*
X2602D01*
X2594Y1414D01*
X2577Y1447D02*
X2569Y1456D01*
X2552D01*
X2544Y1447D01*
Y1439D01*
X2552Y1431D01*
X2544Y1422D01*
Y1414D01*
X2552Y1406D01*
X2569D01*
X2577Y1414D01*
Y1422D01*
X2569Y1431D01*
X2577Y1439D01*
Y1447D01*
X2569Y1431D02*
X2552D01*
X2677Y2042D02*
X2686Y2050D01*
X2702D01*
X2711Y2042D01*
Y2008D01*
X2702Y2000D01*
X2686D01*
X2677Y2008D01*
X2661D02*
X2652Y2000D01*
X2636D01*
X2627Y2008D01*
Y2042D01*
X2636Y2050D01*
X2652D01*
X2661Y2042D01*
Y2033D01*
X2652Y2025D01*
X2627D01*
X1971Y2039D02*
X1980Y2047D01*
X1996D01*
X2005Y2039D01*
Y2006D01*
X1996Y1997D01*
X1980D01*
X1971Y2006D01*
X1955Y1997D02*
X1938D01*
X1946D01*
Y2047D01*
X1955Y2039D01*
X1913D02*
X1905Y2047D01*
X1888D01*
X1880Y2039D01*
Y2006D01*
X1888Y1997D01*
X1905D01*
X1913Y2006D01*
Y2039D01*
X2136Y3228D02*
X2145Y3236D01*
X2161D01*
X2170Y3228D01*
Y3194D01*
X2161Y3186D01*
X2145D01*
X2136Y3194D01*
X2120Y3186D02*
X2103D01*
X2111D01*
Y3236D01*
X2120Y3228D01*
X2078Y3186D02*
X2061D01*
X2070D01*
Y3236D01*
X2078Y3228D01*
X2845Y3230D02*
X2853Y3239D01*
X2870D01*
X2878Y3230D01*
Y3197D01*
X2870Y3189D01*
X2853D01*
X2845Y3197D01*
X2828Y3189D02*
X2812D01*
X2820D01*
Y3239D01*
X2828Y3230D01*
X2753Y3189D02*
X2787D01*
X2753Y3222D01*
Y3230D01*
X2762Y3239D01*
X2778D01*
X2787Y3230D01*
X2748Y2649D02*
X2756Y2658D01*
X2773D01*
X2781Y2649D01*
Y2616D01*
X2773Y2608D01*
X2756D01*
X2748Y2616D01*
X2731Y2608D02*
X2715D01*
X2723D01*
Y2658D01*
X2731Y2649D01*
X2690D02*
X2681Y2658D01*
X2665D01*
X2656Y2649D01*
Y2641D01*
X2665Y2633D01*
X2673D01*
X2665D01*
X2656Y2624D01*
Y2616D01*
X2665Y2608D01*
X2681D01*
X2690Y2616D01*
X3942Y3239D02*
X3950Y3247D01*
X3967D01*
X3975Y3239D01*
Y3206D01*
X3967Y3197D01*
X3950D01*
X3942Y3206D01*
X3925Y3197D02*
X3908D01*
X3917D01*
Y3247D01*
X3925Y3239D01*
X3858Y3197D02*
Y3247D01*
X3883Y3222D01*
X3850D01*
X3871Y2631D02*
X3880Y2639D01*
X3896D01*
X3905Y2631D01*
Y2598D01*
X3896Y2589D01*
X3880D01*
X3871Y2598D01*
X3855Y2589D02*
X3838D01*
X3846D01*
Y2639D01*
X3855Y2631D01*
X3780Y2639D02*
X3813D01*
Y2614D01*
X3796Y2623D01*
X3788D01*
X3780Y2614D01*
Y2598D01*
X3788Y2589D01*
X3805D01*
X3813Y2598D01*
X3787Y2037D02*
X3796Y2045D01*
X3812D01*
X3821Y2037D01*
Y2003D01*
X3812Y1995D01*
X3796D01*
X3787Y2003D01*
X3771Y1995D02*
X3754D01*
X3762D01*
Y2045D01*
X3771Y2037D01*
X3696Y2045D02*
X3712Y2037D01*
X3729Y2020D01*
Y2003D01*
X3721Y1995D01*
X3704D01*
X3696Y2003D01*
Y2012D01*
X3704Y2020D01*
X3729D01*
X3691Y1456D02*
X3699Y1465D01*
X3716D01*
X3724Y1456D01*
Y1423D01*
X3716Y1415D01*
X3699D01*
X3691Y1423D01*
X3674Y1415D02*
X3658D01*
X3666D01*
Y1465D01*
X3674Y1456D01*
X3633Y1465D02*
X3599D01*
Y1456D01*
X3633Y1423D01*
Y1415D01*
X3620Y848D02*
X3628Y856D01*
X3645D01*
X3653Y848D01*
Y814D01*
X3645Y806D01*
X3628D01*
X3620Y814D01*
X3603Y806D02*
X3586D01*
X3595D01*
Y856D01*
X3603Y848D01*
X3561D02*
X3553Y856D01*
X3536D01*
X3528Y848D01*
Y839D01*
X3536Y831D01*
X3528Y823D01*
Y814D01*
X3536Y806D01*
X3553D01*
X3561Y814D01*
Y823D01*
X3553Y831D01*
X3561Y839D01*
Y848D01*
X3553Y831D02*
X3536D01*
X4328Y850D02*
X4337Y859D01*
X4353D01*
X4362Y850D01*
Y817D01*
X4353Y809D01*
X4337D01*
X4328Y817D01*
X4312Y809D02*
X4295D01*
X4303D01*
Y859D01*
X4312Y850D01*
X4270Y817D02*
X4262Y809D01*
X4245D01*
X4237Y817D01*
Y850D01*
X4245Y859D01*
X4262D01*
X4270Y850D01*
Y842D01*
X4262Y834D01*
X4237D01*
X5035Y850D02*
X5043Y859D01*
X5060D01*
X5068Y850D01*
Y817D01*
X5060Y809D01*
X5043D01*
X5035Y817D01*
X4985Y809D02*
X5018D01*
X4985Y842D01*
Y850D01*
X4993Y859D01*
X5010D01*
X5018Y850D01*
X4968D02*
X4960Y859D01*
X4943D01*
X4935Y850D01*
Y817D01*
X4943Y809D01*
X4960D01*
X4968Y817D01*
Y850D01*
X5118Y1445D02*
X5127Y1453D01*
X5143D01*
X5152Y1445D01*
Y1411D01*
X5143Y1403D01*
X5127D01*
X5118Y1411D01*
X5068Y1403D02*
X5102D01*
X5068Y1436D01*
Y1445D01*
X5077Y1453D01*
X5093D01*
X5102Y1445D01*
X5052Y1403D02*
X5035D01*
X5043D01*
Y1453D01*
X5052Y1445D01*
X5166Y2082D02*
X5175Y2090D01*
X5191D01*
X5200Y2082D01*
Y2048D01*
X5191Y2040D01*
X5175D01*
X5166Y2048D01*
X5116Y2040D02*
X5150D01*
X5116Y2073D01*
Y2082D01*
X5125Y2090D01*
X5141D01*
X5150Y2082D01*
X5066Y2040D02*
X5100D01*
X5066Y2073D01*
Y2082D01*
X5075Y2090D01*
X5091D01*
X5100Y2082D01*
X4509Y2073D02*
X4517Y2081D01*
X4534D01*
X4542Y2073D01*
Y2040D01*
X4534Y2031D01*
X4517D01*
X4509Y2040D01*
X4459Y2031D02*
X4492D01*
X4459Y2065D01*
Y2073D01*
X4467Y2081D01*
X4484D01*
X4492Y2073D01*
X4442D02*
X4434Y2081D01*
X4417D01*
X4409Y2073D01*
Y2065D01*
X4417Y2056D01*
X4425D01*
X4417D01*
X4409Y2048D01*
Y2040D01*
X4417Y2031D01*
X4434D01*
X4442Y2040D01*
X4626Y3268D02*
X4635Y3277D01*
X4651D01*
X4660Y3268D01*
Y3235D01*
X4651Y3227D01*
X4635D01*
X4626Y3235D01*
X4576Y3227D02*
X4610D01*
X4576Y3260D01*
Y3268D01*
X4585Y3277D01*
X4601D01*
X4610Y3268D01*
X4535Y3227D02*
Y3277D01*
X4560Y3252D01*
X4526D01*
X5284Y3277D02*
X5292Y3285D01*
X5309D01*
X5317Y3277D01*
Y3244D01*
X5309Y3235D01*
X5292D01*
X5284Y3244D01*
X5234Y3235D02*
X5267D01*
X5234Y3269D01*
Y3277D01*
X5242Y3285D01*
X5259D01*
X5267Y3277D01*
X5184Y3285D02*
X5217D01*
Y3260D01*
X5201Y3269D01*
X5192D01*
X5184Y3260D01*
Y3244D01*
X5192Y3235D01*
X5209D01*
X5217Y3244D01*
X5272Y2648D02*
X5281Y2656D01*
X5297D01*
X5306Y2648D01*
Y2615D01*
X5297Y2606D01*
X5281D01*
X5272Y2615D01*
X5222Y2606D02*
X5256D01*
X5222Y2640D01*
Y2648D01*
X5231Y2656D01*
X5247D01*
X5256Y2648D01*
X5172Y2656D02*
X5189Y2648D01*
X5206Y2631D01*
Y2615D01*
X5197Y2606D01*
X5181D01*
X5172Y2615D01*
Y2623D01*
X5181Y2631D01*
X5206D01*
X6388Y2659D02*
X6397Y2667D01*
X6413D01*
X6422Y2659D01*
Y2626D01*
X6413Y2617D01*
X6397D01*
X6388Y2626D01*
X6338Y2617D02*
X6372D01*
X6338Y2651D01*
Y2659D01*
X6347Y2667D01*
X6363D01*
X6372Y2659D01*
X6322Y2667D02*
X6288D01*
Y2659D01*
X6322Y2626D01*
Y2617D01*
X6228Y1442D02*
X6237Y1451D01*
X6253D01*
X6262Y1442D01*
Y1409D01*
X6253Y1401D01*
X6237D01*
X6228Y1409D01*
X6178Y1401D02*
X6212D01*
X6178Y1434D01*
Y1442D01*
X6187Y1451D01*
X6203D01*
X6212Y1442D01*
X6162D02*
X6153Y1451D01*
X6137D01*
X6128Y1442D01*
Y1434D01*
X6137Y1426D01*
X6128Y1417D01*
Y1409D01*
X6137Y1401D01*
X6153D01*
X6162Y1409D01*
Y1417D01*
X6153Y1426D01*
X6162Y1434D01*
Y1442D01*
X6153Y1426D02*
X6137D01*
X7626Y3226D02*
X7634Y3234D01*
X7651D01*
X7659Y3226D01*
Y3193D01*
X7651Y3184D01*
X7634D01*
X7626Y3193D01*
X7576Y3184D02*
X7609D01*
X7576Y3218D01*
Y3226D01*
X7584Y3234D01*
X7601D01*
X7609Y3226D01*
X7559Y3193D02*
X7551Y3184D01*
X7534D01*
X7526Y3193D01*
Y3226D01*
X7534Y3234D01*
X7551D01*
X7559Y3226D01*
Y3218D01*
X7551Y3209D01*
X7526D01*
X7542Y2632D02*
X7550Y2640D01*
X7567D01*
X7575Y2632D01*
Y2599D01*
X7567Y2590D01*
X7550D01*
X7542Y2599D01*
X7525Y2632D02*
X7517Y2640D01*
X7500D01*
X7492Y2632D01*
Y2624D01*
X7500Y2615D01*
X7509D01*
X7500D01*
X7492Y2607D01*
Y2599D01*
X7500Y2590D01*
X7517D01*
X7525Y2599D01*
X7475Y2632D02*
X7467Y2640D01*
X7450D01*
X7442Y2632D01*
Y2599D01*
X7450Y2590D01*
X7467D01*
X7475Y2599D01*
Y2632D01*
X7470Y2024D02*
X7479Y2032D01*
X7495D01*
X7504Y2024D01*
Y1991D01*
X7495Y1982D01*
X7479D01*
X7470Y1991D01*
X7454Y2024D02*
X7445Y2032D01*
X7429D01*
X7420Y2024D01*
Y2016D01*
X7429Y2007D01*
X7437D01*
X7429D01*
X7420Y1999D01*
Y1991D01*
X7429Y1982D01*
X7445D01*
X7454Y1991D01*
X7404Y1982D02*
X7387D01*
X7395D01*
Y2032D01*
X7404Y2024D01*
X7389Y1429D02*
X7397Y1438D01*
X7414D01*
X7422Y1429D01*
Y1396D01*
X7414Y1388D01*
X7397D01*
X7389Y1396D01*
X7372Y1429D02*
X7364Y1438D01*
X7347D01*
X7339Y1429D01*
Y1421D01*
X7347Y1413D01*
X7356D01*
X7347D01*
X7339Y1404D01*
Y1396D01*
X7347Y1388D01*
X7364D01*
X7372Y1396D01*
X7289Y1388D02*
X7322D01*
X7289Y1421D01*
Y1429D01*
X7298Y1438D01*
X7314D01*
X7322Y1429D01*
X7305Y835D02*
X7314Y843D01*
X7330D01*
X7339Y835D01*
Y802D01*
X7330Y793D01*
X7314D01*
X7305Y802D01*
X7289Y835D02*
X7280Y843D01*
X7264D01*
X7255Y835D01*
Y827D01*
X7264Y818D01*
X7272D01*
X7264D01*
X7255Y810D01*
Y802D01*
X7264Y793D01*
X7280D01*
X7289Y802D01*
X7239Y835D02*
X7230Y843D01*
X7214D01*
X7205Y835D01*
Y827D01*
X7214Y818D01*
X7222D01*
X7214D01*
X7205Y810D01*
Y802D01*
X7214Y793D01*
X7230D01*
X7239Y802D01*
X8011Y838D02*
X8020Y846D01*
X8036D01*
X8045Y838D01*
Y804D01*
X8036Y796D01*
X8020D01*
X8011Y804D01*
X7995Y838D02*
X7986Y846D01*
X7970D01*
X7961Y838D01*
Y829D01*
X7970Y821D01*
X7978D01*
X7970D01*
X7961Y813D01*
Y804D01*
X7970Y796D01*
X7986D01*
X7995Y804D01*
X7920Y796D02*
Y846D01*
X7945Y821D01*
X7911D01*
X8718Y838D02*
X8726Y846D01*
X8743D01*
X8751Y838D01*
Y804D01*
X8743Y796D01*
X8726D01*
X8718Y804D01*
X8701Y838D02*
X8693Y846D01*
X8676D01*
X8668Y838D01*
Y829D01*
X8676Y821D01*
X8684D01*
X8676D01*
X8668Y813D01*
Y804D01*
X8676Y796D01*
X8693D01*
X8701Y804D01*
X8618Y846D02*
X8651D01*
Y821D01*
X8634Y829D01*
X8626D01*
X8618Y821D01*
Y804D01*
X8626Y796D01*
X8643D01*
X8651Y804D01*
X8789Y1447D02*
X8798Y1455D01*
X8814D01*
X8823Y1447D01*
Y1414D01*
X8814Y1405D01*
X8798D01*
X8789Y1414D01*
X8773Y1447D02*
X8764Y1455D01*
X8748D01*
X8739Y1447D01*
Y1439D01*
X8748Y1430D01*
X8756D01*
X8748D01*
X8739Y1422D01*
Y1414D01*
X8748Y1405D01*
X8764D01*
X8773Y1414D01*
X8689Y1455D02*
X8706Y1447D01*
X8723Y1430D01*
Y1414D01*
X8714Y1405D01*
X8698D01*
X8689Y1414D01*
Y1422D01*
X8698Y1430D01*
X8723D01*
X8843Y2019D02*
X8852Y2028D01*
X8868D01*
X8877Y2019D01*
Y1986D01*
X8868Y1978D01*
X8852D01*
X8843Y1986D01*
X8827Y2019D02*
X8819Y2028D01*
X8802D01*
X8794Y2019D01*
Y2011D01*
X8802Y2003D01*
X8810D01*
X8802D01*
X8794Y1994D01*
Y1986D01*
X8802Y1978D01*
X8819D01*
X8827Y1986D01*
X8777Y2028D02*
X8744D01*
Y2019D01*
X8777Y1986D01*
Y1978D01*
X8179Y2026D02*
X8187Y2035D01*
X8204D01*
X8212Y2026D01*
Y1993D01*
X8204Y1985D01*
X8187D01*
X8179Y1993D01*
X8162Y2026D02*
X8154Y2035D01*
X8137D01*
X8129Y2026D01*
Y2018D01*
X8137Y2010D01*
X8146D01*
X8137D01*
X8129Y2001D01*
Y1993D01*
X8137Y1985D01*
X8154D01*
X8162Y1993D01*
X8112Y2026D02*
X8104Y2035D01*
X8087D01*
X8079Y2026D01*
Y2018D01*
X8087Y2010D01*
X8079Y2001D01*
Y1993D01*
X8087Y1985D01*
X8104D01*
X8112Y1993D01*
Y2001D01*
X8104Y2010D01*
X8112Y2018D01*
Y2026D01*
X8104Y2010D02*
X8087D01*
X8347Y3213D02*
X8355Y3221D01*
X8372D01*
X8380Y3213D01*
Y3179D01*
X8372Y3171D01*
X8355D01*
X8347Y3179D01*
X8330Y3213D02*
X8322Y3221D01*
X8305D01*
X8297Y3213D01*
Y3204D01*
X8305Y3196D01*
X8313D01*
X8305D01*
X8297Y3188D01*
Y3179D01*
X8305Y3171D01*
X8322D01*
X8330Y3179D01*
X8280D02*
X8272Y3171D01*
X8255D01*
X8247Y3179D01*
Y3213D01*
X8255Y3221D01*
X8272D01*
X8280Y3213D01*
Y3204D01*
X8272Y3196D01*
X8247D01*
X9040Y3229D02*
X9048Y3238D01*
X9065D01*
X9073Y3229D01*
Y3196D01*
X9065Y3188D01*
X9048D01*
X9040Y3196D01*
X8998Y3188D02*
Y3238D01*
X9023Y3213D01*
X8990D01*
X8973Y3229D02*
X8965Y3238D01*
X8948D01*
X8940Y3229D01*
Y3196D01*
X8948Y3188D01*
X8965D01*
X8973Y3196D01*
Y3229D01*
X8969Y2621D02*
X8977Y2629D01*
X8994D01*
X9002Y2621D01*
Y2587D01*
X8994Y2579D01*
X8977D01*
X8969Y2587D01*
X8927Y2579D02*
Y2629D01*
X8952Y2604D01*
X8919D01*
X8902Y2579D02*
X8886D01*
X8894D01*
Y2629D01*
X8902Y2621D01*
X10064Y3225D02*
X10072Y3234D01*
X10089D01*
X10097Y3225D01*
Y3192D01*
X10089Y3184D01*
X10072D01*
X10064Y3192D01*
X10022Y3184D02*
Y3234D01*
X10047Y3209D01*
X10014D01*
X9964Y3184D02*
X9997D01*
X9964Y3217D01*
Y3225D01*
X9972Y3234D01*
X9989D01*
X9997Y3225D01*
X9967Y2645D02*
X9976Y2653D01*
X9992D01*
X10001Y2645D01*
Y2611D01*
X9992Y2603D01*
X9976D01*
X9967Y2611D01*
X9926Y2603D02*
Y2653D01*
X9951Y2628D01*
X9917D01*
X9901Y2645D02*
X9892Y2653D01*
X9876D01*
X9867Y2645D01*
Y2636D01*
X9876Y2628D01*
X9884D01*
X9876D01*
X9867Y2620D01*
Y2611D01*
X9876Y2603D01*
X9892D01*
X9901Y2611D01*
X9896Y2037D02*
X9904Y2045D01*
X9921D01*
X9929Y2037D01*
Y2003D01*
X9921Y1995D01*
X9904D01*
X9896Y2003D01*
X9854Y1995D02*
Y2045D01*
X9879Y2020D01*
X9846D01*
X9804Y1995D02*
Y2045D01*
X9829Y2020D01*
X9796D01*
X9812Y1442D02*
X9821Y1451D01*
X9837D01*
X9846Y1442D01*
Y1409D01*
X9837Y1401D01*
X9821D01*
X9812Y1409D01*
X9771Y1401D02*
Y1451D01*
X9796Y1426D01*
X9762D01*
X9712Y1451D02*
X9746D01*
Y1426D01*
X9729Y1434D01*
X9721D01*
X9712Y1426D01*
Y1409D01*
X9721Y1401D01*
X9737D01*
X9746Y1409D01*
X9731Y848D02*
X9739Y856D01*
X9756D01*
X9764Y848D01*
Y814D01*
X9756Y806D01*
X9739D01*
X9731Y814D01*
X9689Y806D02*
Y856D01*
X9714Y831D01*
X9681D01*
X9631Y856D02*
X9648Y848D01*
X9664Y831D01*
Y814D01*
X9656Y806D01*
X9639D01*
X9631Y814D01*
Y823D01*
X9639Y831D01*
X9664D01*
X10437Y850D02*
X10445Y859D01*
X10462D01*
X10470Y850D01*
Y817D01*
X10462Y809D01*
X10445D01*
X10437Y817D01*
X10395Y809D02*
Y859D01*
X10420Y834D01*
X10387D01*
X10370Y859D02*
X10337D01*
Y850D01*
X10370Y817D01*
Y809D01*
X11201Y830D02*
X11209Y838D01*
X11226D01*
X11234Y830D01*
Y796D01*
X11226Y788D01*
X11209D01*
X11201Y796D01*
X11159Y788D02*
Y838D01*
X11184Y813D01*
X11151D01*
X11134Y830D02*
X11126Y838D01*
X11109D01*
X11101Y830D01*
Y821D01*
X11109Y813D01*
X11101Y805D01*
Y796D01*
X11109Y788D01*
X11126D01*
X11134Y796D01*
Y805D01*
X11126Y813D01*
X11134Y821D01*
Y830D01*
X11126Y813D02*
X11109D01*
X11227Y1445D02*
X11235Y1453D01*
X11252D01*
X11260Y1445D01*
Y1411D01*
X11252Y1403D01*
X11235D01*
X11227Y1411D01*
X11185Y1403D02*
Y1453D01*
X11210Y1428D01*
X11177D01*
X11160Y1411D02*
X11152Y1403D01*
X11135D01*
X11127Y1411D01*
Y1445D01*
X11135Y1453D01*
X11152D01*
X11160Y1445D01*
Y1436D01*
X11152Y1428D01*
X11127D01*
X11311Y2039D02*
X11319Y2047D01*
X11336D01*
X11344Y2039D01*
Y2006D01*
X11336Y1997D01*
X11319D01*
X11311Y2006D01*
X11261Y2047D02*
X11294D01*
Y2022D01*
X11278Y2031D01*
X11269D01*
X11261Y2022D01*
Y2006D01*
X11269Y1997D01*
X11286D01*
X11294Y2006D01*
X11244Y2039D02*
X11236Y2047D01*
X11219D01*
X11211Y2039D01*
Y2006D01*
X11219Y1997D01*
X11236D01*
X11244Y2006D01*
Y2039D01*
X10605D02*
X10613Y2047D01*
X10630D01*
X10638Y2039D01*
Y2006D01*
X10630Y1997D01*
X10613D01*
X10605Y2006D01*
X10555Y2047D02*
X10588D01*
Y2022D01*
X10571Y2031D01*
X10563D01*
X10555Y2022D01*
Y2006D01*
X10563Y1997D01*
X10580D01*
X10588Y2006D01*
X10538Y1997D02*
X10521D01*
X10530D01*
Y2047D01*
X10538Y2039D01*
X10736Y3268D02*
X10744Y3276D01*
X10761D01*
X10769Y3268D01*
Y3235D01*
X10761Y3226D01*
X10744D01*
X10736Y3235D01*
X10686Y3276D02*
X10719D01*
Y3251D01*
X10702Y3260D01*
X10694D01*
X10686Y3251D01*
Y3235D01*
X10694Y3226D01*
X10711D01*
X10719Y3235D01*
X10636Y3226D02*
X10669D01*
X10636Y3260D01*
Y3268D01*
X10644Y3276D01*
X10661D01*
X10669Y3268D01*
X11465Y3242D02*
X11474Y3250D01*
X11490D01*
X11498Y3242D01*
Y3209D01*
X11490Y3200D01*
X11474D01*
X11465Y3209D01*
X11415Y3250D02*
X11449D01*
Y3225D01*
X11432Y3234D01*
X11424D01*
X11415Y3225D01*
Y3209D01*
X11424Y3200D01*
X11440D01*
X11449Y3209D01*
X11399Y3242D02*
X11390Y3250D01*
X11374D01*
X11365Y3242D01*
Y3234D01*
X11374Y3225D01*
X11382D01*
X11374D01*
X11365Y3217D01*
Y3209D01*
X11374Y3200D01*
X11390D01*
X11399Y3209D01*
X11395Y2633D02*
X11403Y2642D01*
X11420D01*
X11428Y2633D01*
Y2600D01*
X11420Y2592D01*
X11403D01*
X11395Y2600D01*
X11345Y2642D02*
X11378D01*
Y2617D01*
X11361Y2625D01*
X11353D01*
X11345Y2617D01*
Y2600D01*
X11353Y2592D01*
X11370D01*
X11378Y2600D01*
X11303Y2592D02*
Y2642D01*
X11328Y2617D01*
X11295D01*
X11605Y180D02*
X11622D01*
X11630Y172D01*
Y138D01*
X11622Y130D01*
X11605D01*
X11597Y138D01*
Y172D01*
X11605Y180D01*
X11572Y172D02*
Y163D01*
X11580D01*
X11563D01*
X11572D01*
Y138D01*
X11563Y130D01*
X11538Y180D02*
Y130D01*
Y155D01*
X11530Y163D01*
X11513D01*
X11505Y155D01*
Y130D01*
X11488D02*
Y163D01*
X11463D01*
X11455Y155D01*
Y130D01*
X11438D02*
X11422D01*
X11430D01*
Y163D01*
X11438D01*
X11372Y130D02*
X11388D01*
X11397Y138D01*
Y155D01*
X11388Y163D01*
X11372D01*
X11363Y155D01*
Y147D01*
X11397D01*
X11347Y130D02*
X11330D01*
X11338D01*
Y180D01*
X11347D01*
X11255D02*
Y130D01*
Y147D01*
X11222Y180D01*
X11247Y155D01*
X11222Y130D01*
X11197D02*
X11180D01*
X11172Y138D01*
Y155D01*
X11180Y163D01*
X11197D01*
X11205Y155D01*
Y138D01*
X11197Y130D01*
X11155D02*
Y163D01*
X11130D01*
X11122Y155D01*
Y130D01*
X11097Y163D02*
X11080D01*
X11072Y155D01*
Y130D01*
X11097D01*
X11105Y138D01*
X11097Y147D01*
X11072D01*
X11055Y130D02*
Y163D01*
X11030D01*
X11022Y155D01*
Y130D01*
X10922Y180D02*
X10955D01*
Y130D01*
X10922D01*
X10955Y155D02*
X10939D01*
X10872Y172D02*
X10880Y180D01*
X10897D01*
X10905Y172D01*
Y138D01*
X10897Y130D01*
X10880D01*
X10872Y138D01*
X10822Y180D02*
X10855D01*
Y130D01*
X10822D01*
X10855Y155D02*
X10839D01*
X10722Y130D02*
X10755D01*
X10722Y163D01*
Y172D01*
X10730Y180D01*
X10747D01*
X10755Y172D01*
X10705D02*
X10697Y180D01*
X10680D01*
X10672Y172D01*
Y138D01*
X10680Y130D01*
X10697D01*
X10705Y138D01*
Y172D01*
X10655Y130D02*
X10639D01*
X10647D01*
Y180D01*
X10655Y172D01*
X10614Y180D02*
X10580D01*
Y172D01*
X10614Y138D01*
Y130D01*
X11500Y250D02*
Y300D01*
X11467Y250D01*
Y300D01*
X11450Y250D02*
Y300D01*
X11425D01*
X11417Y292D01*
Y275D01*
X11425Y267D01*
X11450D01*
X11367Y292D02*
X11375Y300D01*
X11392D01*
X11400Y292D01*
Y283D01*
X11392Y275D01*
X11375D01*
X11367Y267D01*
Y258D01*
X11375Y250D01*
X11392D01*
X11400Y258D01*
X11317Y292D02*
X11325Y300D01*
X11342D01*
X11350Y292D01*
Y258D01*
X11342Y250D01*
X11325D01*
X11317Y258D01*
X11242Y292D02*
Y283D01*
X11250D01*
X11233D01*
X11242D01*
Y258D01*
X11233Y250D01*
X11208D02*
X11192D01*
X11200D01*
Y283D01*
X11208D01*
X11167Y250D02*
Y283D01*
X11158D01*
X11150Y275D01*
Y250D01*
Y275D01*
X11142Y283D01*
X11133Y275D01*
Y250D01*
X11092D02*
X11108D01*
X11117Y258D01*
Y275D01*
X11108Y283D01*
X11092D01*
X11083Y275D01*
Y267D01*
X11117D01*
X11017Y250D02*
Y283D01*
X11008D01*
X11000Y275D01*
Y250D01*
Y275D01*
X10992Y283D01*
X10984Y275D01*
Y250D01*
X10959D02*
X10942D01*
X10934Y258D01*
Y275D01*
X10942Y283D01*
X10959D01*
X10967Y275D01*
Y258D01*
X10959Y250D01*
X10884Y300D02*
Y250D01*
X10909D01*
X10917Y258D01*
Y275D01*
X10909Y283D01*
X10884D01*
X10867D02*
Y258D01*
X10859Y250D01*
X10834D01*
Y283D01*
X10817Y250D02*
X10800D01*
X10809D01*
Y300D01*
X10817D01*
X10750Y250D02*
X10767D01*
X10775Y258D01*
Y275D01*
X10767Y283D01*
X10750D01*
X10742Y275D01*
Y267D01*
X10775D01*
D26*
X425Y1203D02*
Y1220D01*
X437D01*
X433Y1212D01*
Y1207D01*
X437Y1203D01*
X446D01*
X450Y1207D01*
Y1216D01*
X446Y1220D01*
X425Y1195D02*
X442D01*
X450Y1186D01*
X442Y1178D01*
X425D01*
X429Y1433D02*
X425Y1437D01*
Y1446D01*
X429Y1450D01*
X446D01*
X450Y1446D01*
Y1437D01*
X446Y1433D01*
X437D01*
Y1442D01*
X450Y1425D02*
X425D01*
X450Y1408D01*
X425D01*
Y1399D02*
X450D01*
Y1387D01*
X446Y1382D01*
X429D01*
X425Y1387D01*
Y1399D01*
Y1650D02*
X450D01*
Y1637D01*
X446Y1633D01*
X429D01*
X425Y1637D01*
Y1650D01*
Y1625D02*
Y1616D01*
Y1620D01*
X450D01*
Y1625D01*
Y1616D01*
Y1603D02*
X425D01*
X450Y1587D01*
X425D01*
X450Y1578D02*
Y1570D01*
Y1574D01*
X425D01*
X429Y1578D01*
X425Y1890D02*
X450D01*
Y1877D01*
X446Y1873D01*
X429D01*
X425Y1877D01*
Y1890D01*
Y1865D02*
Y1856D01*
Y1860D01*
X450D01*
Y1865D01*
Y1856D01*
Y1843D02*
X425D01*
X450Y1827D01*
X425D01*
X450Y1801D02*
Y1818D01*
X433Y1801D01*
X429D01*
X425Y1805D01*
Y1814D01*
X429Y1818D01*
X425Y2120D02*
X450D01*
Y2107D01*
X446Y2103D01*
X429D01*
X425Y2107D01*
Y2120D01*
Y2095D02*
Y2086D01*
Y2090D01*
X450D01*
Y2095D01*
Y2086D01*
Y2073D02*
X425D01*
X450Y2057D01*
X425D01*
X429Y2048D02*
X425Y2044D01*
Y2035D01*
X429Y2031D01*
X433D01*
X437Y2035D01*
Y2040D01*
Y2035D01*
X442Y2031D01*
X446D01*
X450Y2035D01*
Y2044D01*
X446Y2048D01*
X425Y2340D02*
X450D01*
Y2327D01*
X446Y2323D01*
X429D01*
X425Y2327D01*
Y2340D01*
Y2315D02*
Y2306D01*
Y2310D01*
X450D01*
Y2315D01*
Y2306D01*
Y2293D02*
X425D01*
X450Y2277D01*
X425D01*
X450Y2255D02*
X425D01*
X437Y2268D01*
Y2251D01*
X11825Y1557D02*
Y1540D01*
X11813D01*
X11817Y1548D01*
Y1553D01*
X11813Y1557D01*
X11804D01*
X11800Y1553D01*
Y1544D01*
X11804Y1540D01*
X11825Y1565D02*
X11808D01*
X11800Y1574D01*
X11808Y1582D01*
X11825D01*
X11821Y1777D02*
X11825Y1773D01*
Y1764D01*
X11821Y1760D01*
X11804D01*
X11800Y1764D01*
Y1773D01*
X11804Y1777D01*
X11813D01*
Y1768D01*
X11800Y1785D02*
X11825D01*
X11800Y1802D01*
X11825D01*
Y1811D02*
X11800D01*
Y1823D01*
X11804Y1828D01*
X11821D01*
X11825Y1823D01*
Y1811D01*
Y2020D02*
X11800D01*
Y2033D01*
X11804Y2037D01*
X11821D01*
X11825Y2033D01*
Y2020D01*
X11800Y2050D02*
Y2058D01*
X11804Y2062D01*
X11813D01*
X11817Y2058D01*
Y2050D01*
X11813Y2045D01*
X11804D01*
X11800Y2050D01*
X11817Y2071D02*
X11804D01*
X11800Y2075D01*
Y2088D01*
X11817D01*
X11821Y2100D02*
X11817D01*
Y2096D01*
Y2105D01*
Y2100D01*
X11804D01*
X11800Y2105D01*
X425Y2570D02*
X450D01*
Y2557D01*
X446Y2553D01*
X429D01*
X425Y2557D01*
Y2570D01*
Y2545D02*
Y2536D01*
Y2540D01*
X450D01*
Y2545D01*
Y2536D01*
Y2523D02*
X425D01*
X450Y2507D01*
X425D01*
Y2481D02*
Y2498D01*
X437D01*
X433Y2490D01*
Y2485D01*
X437Y2481D01*
X446D01*
X450Y2485D01*
Y2494D01*
X446Y2498D01*
M02*
