G04 Layer_Color=8388736*
%FSLAX42Y42*%
%MOMM*%
G71*
G01*
G75*
%ADD21R,1.70X1.10*%
%ADD22C,3.70*%
D21*
X11603Y2221D02*
D03*
Y2551D02*
D03*
X11113D02*
D03*
Y2221D02*
D03*
X11196Y3146D02*
D03*
Y2816D02*
D03*
X11686D02*
D03*
Y3146D02*
D03*
X10979Y2814D02*
D03*
Y3144D02*
D03*
X10489D02*
D03*
Y2814D02*
D03*
X10322Y1956D02*
D03*
Y1626D02*
D03*
X10812D02*
D03*
Y1956D02*
D03*
X11029Y1957D02*
D03*
Y1627D02*
D03*
X11519D02*
D03*
Y1957D02*
D03*
X11436Y1033D02*
D03*
Y1363D02*
D03*
X10946D02*
D03*
Y1033D02*
D03*
X11345Y435D02*
D03*
Y765D02*
D03*
X10855D02*
D03*
Y435D02*
D03*
X10645D02*
D03*
Y765D02*
D03*
X10155D02*
D03*
Y435D02*
D03*
X9455Y765D02*
D03*
Y435D02*
D03*
X9945D02*
D03*
Y765D02*
D03*
X9532Y1360D02*
D03*
Y1030D02*
D03*
X10022D02*
D03*
Y1360D02*
D03*
X9615Y1954D02*
D03*
Y1624D02*
D03*
X10105D02*
D03*
Y1954D02*
D03*
X9699Y2548D02*
D03*
Y2218D02*
D03*
X10189D02*
D03*
Y2548D02*
D03*
X9782Y3142D02*
D03*
Y2812D02*
D03*
X10272D02*
D03*
Y3142D02*
D03*
X9177Y2209D02*
D03*
Y2539D02*
D03*
X8687D02*
D03*
Y2209D02*
D03*
X8771Y3133D02*
D03*
Y2803D02*
D03*
X9261D02*
D03*
Y3133D02*
D03*
X8554Y2801D02*
D03*
Y3131D02*
D03*
X8064D02*
D03*
Y2801D02*
D03*
X7897Y1943D02*
D03*
Y1613D02*
D03*
X8387D02*
D03*
Y1943D02*
D03*
X8604Y1945D02*
D03*
Y1615D02*
D03*
X9094D02*
D03*
Y1945D02*
D03*
X9010Y1020D02*
D03*
Y1350D02*
D03*
X8520D02*
D03*
Y1020D02*
D03*
X8927Y426D02*
D03*
Y756D02*
D03*
X8437D02*
D03*
Y426D02*
D03*
X8220Y425D02*
D03*
Y755D02*
D03*
X7730D02*
D03*
Y425D02*
D03*
X7023Y753D02*
D03*
Y423D02*
D03*
X7513D02*
D03*
Y753D02*
D03*
X7106Y1347D02*
D03*
Y1017D02*
D03*
X7596D02*
D03*
Y1347D02*
D03*
X7190Y1941D02*
D03*
Y1611D02*
D03*
X7680D02*
D03*
Y1941D02*
D03*
X7273Y2536D02*
D03*
Y2206D02*
D03*
X7763D02*
D03*
Y2536D02*
D03*
X7357Y3130D02*
D03*
Y2800D02*
D03*
X7847D02*
D03*
Y3130D02*
D03*
X6437Y1029D02*
D03*
Y1359D02*
D03*
X5947D02*
D03*
Y1029D02*
D03*
X6114Y2547D02*
D03*
Y2217D02*
D03*
X6604D02*
D03*
Y2547D02*
D03*
X5493Y2222D02*
D03*
Y2552D02*
D03*
X5003D02*
D03*
Y2222D02*
D03*
X5087Y3146D02*
D03*
Y2816D02*
D03*
X5577D02*
D03*
Y3146D02*
D03*
X4870Y2814D02*
D03*
Y3144D02*
D03*
X4380D02*
D03*
Y2814D02*
D03*
X4213Y1956D02*
D03*
Y1626D02*
D03*
X4703D02*
D03*
Y1956D02*
D03*
X4920Y1957D02*
D03*
Y1627D02*
D03*
X5410D02*
D03*
Y1957D02*
D03*
X5326Y1033D02*
D03*
Y1363D02*
D03*
X4836D02*
D03*
Y1033D02*
D03*
X5245Y435D02*
D03*
Y765D02*
D03*
X4755D02*
D03*
Y435D02*
D03*
X4536Y438D02*
D03*
Y768D02*
D03*
X4046D02*
D03*
Y438D02*
D03*
X3339Y766D02*
D03*
Y436D02*
D03*
X3829D02*
D03*
Y766D02*
D03*
X3422Y1360D02*
D03*
Y1030D02*
D03*
X3912D02*
D03*
Y1360D02*
D03*
X3506Y1954D02*
D03*
Y1624D02*
D03*
X3996D02*
D03*
Y1954D02*
D03*
X3589Y2548D02*
D03*
Y2218D02*
D03*
X4079D02*
D03*
Y2548D02*
D03*
X3673Y3143D02*
D03*
Y2813D02*
D03*
X4163D02*
D03*
Y3143D02*
D03*
X2969Y2223D02*
D03*
Y2553D02*
D03*
X2479D02*
D03*
Y2223D02*
D03*
X2563Y3147D02*
D03*
Y2817D02*
D03*
X3053D02*
D03*
Y3147D02*
D03*
X2345Y2816D02*
D03*
Y3146D02*
D03*
X1855D02*
D03*
Y2816D02*
D03*
X1688Y1957D02*
D03*
Y1627D02*
D03*
X2178D02*
D03*
Y1957D02*
D03*
X2396Y1959D02*
D03*
Y1629D02*
D03*
X2886D02*
D03*
Y1959D02*
D03*
X2802Y1035D02*
D03*
Y1365D02*
D03*
X2312D02*
D03*
Y1035D02*
D03*
X2719Y440D02*
D03*
Y770D02*
D03*
X2229D02*
D03*
Y440D02*
D03*
X2011Y439D02*
D03*
Y769D02*
D03*
X1521D02*
D03*
Y439D02*
D03*
X814Y767D02*
D03*
Y437D02*
D03*
X1304D02*
D03*
Y767D02*
D03*
X898Y1361D02*
D03*
Y1031D02*
D03*
X1388D02*
D03*
Y1361D02*
D03*
X981Y1956D02*
D03*
Y1626D02*
D03*
X1471D02*
D03*
Y1956D02*
D03*
X1065Y2550D02*
D03*
Y2220D02*
D03*
X1555D02*
D03*
Y2550D02*
D03*
X1148Y3144D02*
D03*
Y2814D02*
D03*
X1638D02*
D03*
Y3144D02*
D03*
D22*
X300Y300D02*
D03*
Y3300D02*
D03*
X12050Y300D02*
D03*
Y3300D02*
D03*
M02*
