G04 Layer_Color=32896*
%FSLAX42Y42*%
%MOMM*%
G71*
G01*
G75*
%ADD19C,0.20*%
D19*
X11300Y2381D02*
Y2391D01*
X11415Y2381D02*
Y2391D01*
X11499Y2976D02*
Y2986D01*
X11384Y2976D02*
Y2986D01*
X10677Y2974D02*
Y2984D01*
X10792Y2974D02*
Y2984D01*
X10510Y1786D02*
Y1796D01*
X10625Y1786D02*
Y1796D01*
X11332Y1787D02*
Y1797D01*
X11217Y1787D02*
Y1797D01*
X11133Y1193D02*
Y1203D01*
X11248Y1193D02*
Y1203D01*
X11050Y599D02*
Y609D01*
X11165Y599D02*
Y609D01*
X10343Y597D02*
Y607D01*
X10458Y597D02*
Y607D01*
X9751Y596D02*
Y606D01*
X9636Y596D02*
Y606D01*
X9834Y1190D02*
Y1200D01*
X9719Y1190D02*
Y1200D01*
X9918Y1784D02*
Y1794D01*
X9803Y1784D02*
Y1794D01*
X10001Y2378D02*
Y2388D01*
X9886Y2378D02*
Y2388D01*
X10085Y2972D02*
Y2982D01*
X9970Y2972D02*
Y2982D01*
X8875Y2369D02*
Y2379D01*
X8990Y2369D02*
Y2379D01*
X9073Y2963D02*
Y2973D01*
X8958Y2963D02*
Y2973D01*
X8251Y2961D02*
Y2971D01*
X8366Y2961D02*
Y2971D01*
X8084Y1773D02*
Y1783D01*
X8199Y1773D02*
Y1783D01*
X8906Y1775D02*
Y1785D01*
X8791Y1775D02*
Y1785D01*
X8823Y1180D02*
Y1190D01*
X8708Y1180D02*
Y1190D01*
X8624Y586D02*
Y596D01*
X8739Y586D02*
Y596D01*
X7917Y585D02*
Y595D01*
X8032Y585D02*
Y595D01*
X7325Y583D02*
Y593D01*
X7210Y583D02*
Y593D01*
X7409Y1177D02*
Y1187D01*
X7294Y1177D02*
Y1187D01*
X7492Y1771D02*
Y1781D01*
X7377Y1771D02*
Y1781D01*
X7576Y2366D02*
Y2376D01*
X7461Y2366D02*
Y2376D01*
X7659Y2960D02*
Y2970D01*
X7544Y2960D02*
Y2970D01*
X6134Y1189D02*
Y1199D01*
X6249Y1189D02*
Y1199D01*
X6409Y2408D02*
Y2418D01*
X6294Y2408D02*
Y2418D01*
X5306Y2382D02*
Y2392D01*
X5191Y2382D02*
Y2392D01*
X5389Y2976D02*
Y2986D01*
X5274Y2976D02*
Y2986D01*
X4567Y2974D02*
Y2984D01*
X4682Y2974D02*
Y2984D01*
X4400Y1786D02*
Y1796D01*
X4515Y1786D02*
Y1796D01*
X5222Y1787D02*
Y1797D01*
X5107Y1787D02*
Y1797D01*
X5139Y1193D02*
Y1203D01*
X5024Y1193D02*
Y1203D01*
X4940Y599D02*
Y609D01*
X5055Y599D02*
Y609D01*
X4233Y598D02*
Y608D01*
X4348Y598D02*
Y608D01*
X3641Y596D02*
Y606D01*
X3526Y596D02*
Y606D01*
X3725Y1190D02*
Y1200D01*
X3610Y1190D02*
Y1200D01*
X3808Y1784D02*
Y1794D01*
X3693Y1784D02*
Y1794D01*
X3892Y2378D02*
Y2388D01*
X3777Y2378D02*
Y2388D01*
X3975Y2973D02*
Y2983D01*
X3860Y2973D02*
Y2983D01*
X2782Y2383D02*
Y2393D01*
X2667Y2383D02*
Y2393D01*
X2865Y2977D02*
Y2987D01*
X2750Y2977D02*
Y2987D01*
X2043Y2976D02*
Y2986D01*
X2158Y2976D02*
Y2986D01*
X1876Y1787D02*
Y1797D01*
X1991Y1787D02*
Y1797D01*
X2698Y1789D02*
Y1799D01*
X2583Y1789D02*
Y1799D01*
X2615Y1195D02*
Y1205D01*
X2500Y1195D02*
Y1205D01*
X2416Y600D02*
Y610D01*
X2531Y600D02*
Y610D01*
X1709Y599D02*
Y609D01*
X1824Y599D02*
Y609D01*
X1117Y597D02*
Y607D01*
X1002Y597D02*
Y607D01*
X1200Y1191D02*
Y1201D01*
X1085Y1191D02*
Y1201D01*
X1284Y1786D02*
Y1796D01*
X1169Y1786D02*
Y1796D01*
X1367Y2380D02*
Y2390D01*
X1252Y2380D02*
Y2390D01*
X1451Y2974D02*
Y2984D01*
X1336Y2974D02*
Y2984D01*
X3377Y2653D02*
Y2663D01*
X3257Y2653D02*
Y2663D01*
X5845Y2609D02*
Y2619D01*
X5725Y2609D02*
Y2619D01*
X6885Y2598D02*
Y2608D01*
X7005Y2598D02*
Y2608D01*
X9374Y2702D02*
Y2712D01*
X9494Y2702D02*
Y2712D01*
X11354Y2683D02*
X11370Y2699D01*
X11404D01*
X11420Y2683D01*
Y2616D01*
X11404Y2599D01*
X11370D01*
X11354Y2616D01*
X11254Y2699D02*
X11320D01*
Y2649D01*
X11287Y2666D01*
X11270D01*
X11254Y2649D01*
Y2616D01*
X11270Y2599D01*
X11304D01*
X11320Y2616D01*
X11171Y2599D02*
Y2699D01*
X11220Y2649D01*
X11154D01*
X11432Y3284D02*
X11449Y3300D01*
X11482D01*
X11498Y3284D01*
Y3217D01*
X11482Y3200D01*
X11449D01*
X11432Y3217D01*
X11332Y3300D02*
X11399D01*
Y3250D01*
X11365Y3267D01*
X11349D01*
X11332Y3250D01*
Y3217D01*
X11349Y3200D01*
X11382D01*
X11399Y3217D01*
X11299Y3284D02*
X11282Y3300D01*
X11249D01*
X11232Y3284D01*
Y3267D01*
X11249Y3250D01*
X11265D01*
X11249D01*
X11232Y3234D01*
Y3217D01*
X11249Y3200D01*
X11282D01*
X11299Y3217D01*
X10702Y3310D02*
X10719Y3326D01*
X10752D01*
X10769Y3310D01*
Y3243D01*
X10752Y3226D01*
X10719D01*
X10702Y3243D01*
X10602Y3326D02*
X10669D01*
Y3276D01*
X10636Y3293D01*
X10619D01*
X10602Y3276D01*
Y3243D01*
X10619Y3226D01*
X10652D01*
X10669Y3243D01*
X10502Y3226D02*
X10569D01*
X10502Y3293D01*
Y3310D01*
X10519Y3326D01*
X10552D01*
X10569Y3310D01*
X10564Y2088D02*
X10580Y2105D01*
X10614D01*
X10630Y2088D01*
Y2022D01*
X10614Y2005D01*
X10580D01*
X10564Y2022D01*
X10464Y2105D02*
X10531D01*
Y2055D01*
X10497Y2072D01*
X10481D01*
X10464Y2055D01*
Y2022D01*
X10481Y2005D01*
X10514D01*
X10531Y2022D01*
X10431Y2005D02*
X10397D01*
X10414D01*
Y2105D01*
X10431Y2088D01*
X11270D02*
X11287Y2105D01*
X11320D01*
X11337Y2088D01*
Y2022D01*
X11320Y2005D01*
X11287D01*
X11270Y2022D01*
X11170Y2105D02*
X11237D01*
Y2055D01*
X11203Y2072D01*
X11187D01*
X11170Y2055D01*
Y2022D01*
X11187Y2005D01*
X11220D01*
X11237Y2022D01*
X11137Y2088D02*
X11120Y2105D01*
X11087D01*
X11070Y2088D01*
Y2022D01*
X11087Y2005D01*
X11120D01*
X11137Y2022D01*
Y2088D01*
X11186Y1494D02*
X11203Y1511D01*
X11236D01*
X11253Y1494D01*
Y1427D01*
X11236Y1411D01*
X11203D01*
X11186Y1427D01*
X11103Y1411D02*
Y1511D01*
X11153Y1461D01*
X11086D01*
X11053Y1427D02*
X11036Y1411D01*
X11003D01*
X10986Y1427D01*
Y1494D01*
X11003Y1511D01*
X11036D01*
X11053Y1494D01*
Y1477D01*
X11036Y1461D01*
X10986D01*
X11168Y871D02*
X11184Y888D01*
X11218D01*
X11234Y871D01*
Y805D01*
X11218Y788D01*
X11184D01*
X11168Y805D01*
X11084Y788D02*
Y888D01*
X11134Y838D01*
X11068D01*
X11034Y871D02*
X11018Y888D01*
X10984D01*
X10968Y871D01*
Y855D01*
X10984Y838D01*
X10968Y821D01*
Y805D01*
X10984Y788D01*
X11018D01*
X11034Y805D01*
Y821D01*
X11018Y838D01*
X11034Y855D01*
Y871D01*
X11018Y838D02*
X10984D01*
X10396Y900D02*
X10413Y916D01*
X10446D01*
X10463Y900D01*
Y833D01*
X10446Y816D01*
X10413D01*
X10396Y833D01*
X10313Y816D02*
Y916D01*
X10363Y866D01*
X10296D01*
X10263Y916D02*
X10196D01*
Y900D01*
X10263Y833D01*
Y816D01*
X9690Y897D02*
X9707Y914D01*
X9740D01*
X9757Y897D01*
Y830D01*
X9740Y814D01*
X9707D01*
X9690Y830D01*
X9607Y814D02*
Y914D01*
X9657Y864D01*
X9590D01*
X9490Y914D02*
X9523Y897D01*
X9557Y864D01*
Y830D01*
X9540Y814D01*
X9507D01*
X9490Y830D01*
Y847D01*
X9507Y864D01*
X9557D01*
X9771Y1491D02*
X9788Y1508D01*
X9821D01*
X9838Y1491D01*
Y1425D01*
X9821Y1408D01*
X9788D01*
X9771Y1425D01*
X9688Y1408D02*
Y1508D01*
X9738Y1458D01*
X9671D01*
X9571Y1508D02*
X9638D01*
Y1458D01*
X9605Y1475D01*
X9588D01*
X9571Y1458D01*
Y1425D01*
X9588Y1408D01*
X9621D01*
X9638Y1425D01*
X9855Y2086D02*
X9872Y2102D01*
X9905D01*
X9922Y2086D01*
Y2019D01*
X9905Y2002D01*
X9872D01*
X9855Y2019D01*
X9772Y2002D02*
Y2102D01*
X9822Y2052D01*
X9755D01*
X9672Y2002D02*
Y2102D01*
X9722Y2052D01*
X9655D01*
X9934Y2686D02*
X9951Y2703D01*
X9984D01*
X10001Y2686D01*
Y2620D01*
X9984Y2603D01*
X9951D01*
X9934Y2620D01*
X9851Y2603D02*
Y2703D01*
X9901Y2653D01*
X9834D01*
X9801Y2686D02*
X9784Y2703D01*
X9751D01*
X9734Y2686D01*
Y2670D01*
X9751Y2653D01*
X9768D01*
X9751D01*
X9734Y2636D01*
Y2620D01*
X9751Y2603D01*
X9784D01*
X9801Y2620D01*
X10023Y3275D02*
X10039Y3291D01*
X10073D01*
X10089Y3275D01*
Y3208D01*
X10073Y3191D01*
X10039D01*
X10023Y3208D01*
X9940Y3191D02*
Y3291D01*
X9989Y3241D01*
X9923D01*
X9823Y3191D02*
X9890D01*
X9823Y3258D01*
Y3275D01*
X9840Y3291D01*
X9873D01*
X9890Y3275D01*
X8928Y2670D02*
X8945Y2687D01*
X8978D01*
X8995Y2670D01*
Y2603D01*
X8978Y2587D01*
X8945D01*
X8928Y2603D01*
X8845Y2587D02*
Y2687D01*
X8895Y2637D01*
X8828D01*
X8795Y2587D02*
X8761D01*
X8778D01*
Y2687D01*
X8795Y2670D01*
X9006Y3271D02*
X9023Y3288D01*
X9056D01*
X9073Y3271D01*
Y3204D01*
X9056Y3188D01*
X9023D01*
X9006Y3204D01*
X8923Y3188D02*
Y3288D01*
X8973Y3238D01*
X8907D01*
X8873Y3271D02*
X8857Y3288D01*
X8823D01*
X8807Y3271D01*
Y3204D01*
X8823Y3188D01*
X8857D01*
X8873Y3204D01*
Y3271D01*
X8306Y3262D02*
X8322Y3278D01*
X8356D01*
X8372Y3262D01*
Y3195D01*
X8356Y3179D01*
X8322D01*
X8306Y3195D01*
X8272Y3262D02*
X8256Y3278D01*
X8222D01*
X8206Y3262D01*
Y3245D01*
X8222Y3229D01*
X8239D01*
X8222D01*
X8206Y3212D01*
Y3195D01*
X8222Y3179D01*
X8256D01*
X8272Y3195D01*
X8172D02*
X8156Y3179D01*
X8122D01*
X8106Y3195D01*
Y3262D01*
X8122Y3278D01*
X8156D01*
X8172Y3262D01*
Y3245D01*
X8156Y3229D01*
X8106D01*
X8138Y2076D02*
X8155Y2092D01*
X8188D01*
X8205Y2076D01*
Y2009D01*
X8188Y1992D01*
X8155D01*
X8138Y2009D01*
X8105Y2076D02*
X8088Y2092D01*
X8055D01*
X8038Y2076D01*
Y2059D01*
X8055Y2042D01*
X8071D01*
X8055D01*
X8038Y2026D01*
Y2009D01*
X8055Y1992D01*
X8088D01*
X8105Y2009D01*
X8005Y2076D02*
X7988Y2092D01*
X7955D01*
X7938Y2076D01*
Y2059D01*
X7955Y2042D01*
X7938Y2026D01*
Y2009D01*
X7955Y1992D01*
X7988D01*
X8005Y2009D01*
Y2026D01*
X7988Y2042D01*
X8005Y2059D01*
Y2076D01*
X7988Y2042D02*
X7955D01*
X8810Y2061D02*
X8827Y2078D01*
X8860D01*
X8877Y2061D01*
Y1994D01*
X8860Y1978D01*
X8827D01*
X8810Y1994D01*
X8777Y2061D02*
X8760Y2078D01*
X8727D01*
X8710Y2061D01*
Y2044D01*
X8727Y2028D01*
X8744D01*
X8727D01*
X8710Y2011D01*
Y1994D01*
X8727Y1978D01*
X8760D01*
X8777Y1994D01*
X8677Y2078D02*
X8610D01*
Y2061D01*
X8677Y1994D01*
Y1978D01*
X8756Y1488D02*
X8773Y1505D01*
X8806D01*
X8823Y1488D01*
Y1422D01*
X8806Y1405D01*
X8773D01*
X8756Y1422D01*
X8723Y1488D02*
X8706Y1505D01*
X8673D01*
X8656Y1488D01*
Y1472D01*
X8673Y1455D01*
X8689D01*
X8673D01*
X8656Y1439D01*
Y1422D01*
X8673Y1405D01*
X8706D01*
X8723Y1422D01*
X8556Y1505D02*
X8589Y1488D01*
X8623Y1455D01*
Y1422D01*
X8606Y1405D01*
X8573D01*
X8556Y1422D01*
Y1439D01*
X8573Y1455D01*
X8623D01*
X8677Y887D02*
X8693Y904D01*
X8727D01*
X8743Y887D01*
Y820D01*
X8727Y804D01*
X8693D01*
X8677Y820D01*
X8643Y887D02*
X8627Y904D01*
X8593D01*
X8577Y887D01*
Y870D01*
X8593Y854D01*
X8610D01*
X8593D01*
X8577Y837D01*
Y820D01*
X8593Y804D01*
X8627D01*
X8643Y820D01*
X8477Y904D02*
X8543D01*
Y854D01*
X8510Y870D01*
X8493D01*
X8477Y854D01*
Y820D01*
X8493Y804D01*
X8527D01*
X8543Y820D01*
X7970Y887D02*
X7987Y904D01*
X8020D01*
X8037Y887D01*
Y820D01*
X8020Y804D01*
X7987D01*
X7970Y820D01*
X7937Y887D02*
X7921Y904D01*
X7887D01*
X7871Y887D01*
Y870D01*
X7887Y854D01*
X7904D01*
X7887D01*
X7871Y837D01*
Y820D01*
X7887Y804D01*
X7921D01*
X7937Y820D01*
X7787Y804D02*
Y904D01*
X7837Y854D01*
X7771D01*
X7264Y884D02*
X7281Y901D01*
X7314D01*
X7331Y884D01*
Y818D01*
X7314Y801D01*
X7281D01*
X7264Y818D01*
X7231Y884D02*
X7214Y901D01*
X7181D01*
X7164Y884D01*
Y868D01*
X7181Y851D01*
X7198D01*
X7181D01*
X7164Y834D01*
Y818D01*
X7181Y801D01*
X7214D01*
X7231Y818D01*
X7131Y884D02*
X7114Y901D01*
X7081D01*
X7064Y884D01*
Y868D01*
X7081Y851D01*
X7098D01*
X7081D01*
X7064Y834D01*
Y818D01*
X7081Y801D01*
X7114D01*
X7131Y818D01*
X7348Y1479D02*
X7365Y1495D01*
X7398D01*
X7415Y1479D01*
Y1412D01*
X7398Y1395D01*
X7365D01*
X7348Y1412D01*
X7315Y1479D02*
X7298Y1495D01*
X7265D01*
X7248Y1479D01*
Y1462D01*
X7265Y1445D01*
X7282D01*
X7265D01*
X7248Y1429D01*
Y1412D01*
X7265Y1395D01*
X7298D01*
X7315Y1412D01*
X7148Y1395D02*
X7215D01*
X7148Y1462D01*
Y1479D01*
X7165Y1495D01*
X7198D01*
X7215Y1479D01*
X7429Y2073D02*
X7446Y2090D01*
X7479D01*
X7496Y2073D01*
Y2006D01*
X7479Y1990D01*
X7446D01*
X7429Y2006D01*
X7396Y2073D02*
X7379Y2090D01*
X7346D01*
X7330Y2073D01*
Y2056D01*
X7346Y2040D01*
X7363D01*
X7346D01*
X7330Y2023D01*
Y2006D01*
X7346Y1990D01*
X7379D01*
X7396Y2006D01*
X7296Y1990D02*
X7263D01*
X7280D01*
Y2090D01*
X7296Y2073D01*
X7509Y2674D02*
X7525Y2690D01*
X7559D01*
X7575Y2674D01*
Y2607D01*
X7559Y2590D01*
X7525D01*
X7509Y2607D01*
X7475Y2674D02*
X7459Y2690D01*
X7425D01*
X7409Y2674D01*
Y2657D01*
X7425Y2640D01*
X7442D01*
X7425D01*
X7409Y2624D01*
Y2607D01*
X7425Y2590D01*
X7459D01*
X7475Y2607D01*
X7375Y2674D02*
X7359Y2690D01*
X7326D01*
X7309Y2674D01*
Y2607D01*
X7326Y2590D01*
X7359D01*
X7375Y2607D01*
Y2674D01*
X7592Y3268D02*
X7609Y3284D01*
X7642D01*
X7659Y3268D01*
Y3201D01*
X7642Y3184D01*
X7609D01*
X7592Y3201D01*
X7492Y3184D02*
X7559D01*
X7492Y3251D01*
Y3268D01*
X7509Y3284D01*
X7542D01*
X7559Y3268D01*
X7459Y3201D02*
X7442Y3184D01*
X7409D01*
X7392Y3201D01*
Y3268D01*
X7409Y3284D01*
X7442D01*
X7459Y3268D01*
Y3251D01*
X7442Y3234D01*
X7392D01*
X6187Y1491D02*
X6204Y1508D01*
X6237D01*
X6254Y1491D01*
Y1425D01*
X6237Y1408D01*
X6204D01*
X6187Y1425D01*
X6087Y1408D02*
X6154D01*
X6087Y1475D01*
Y1491D01*
X6104Y1508D01*
X6137D01*
X6154Y1491D01*
X6054D02*
X6037Y1508D01*
X6004D01*
X5987Y1491D01*
Y1475D01*
X6004Y1458D01*
X5987Y1441D01*
Y1425D01*
X6004Y1408D01*
X6037D01*
X6054Y1425D01*
Y1441D01*
X6037Y1458D01*
X6054Y1475D01*
Y1491D01*
X6037Y1458D02*
X6004D01*
X6347Y2708D02*
X6364Y2725D01*
X6397D01*
X6414Y2708D01*
Y2641D01*
X6397Y2625D01*
X6364D01*
X6347Y2641D01*
X6247Y2625D02*
X6314D01*
X6247Y2691D01*
Y2708D01*
X6264Y2725D01*
X6297D01*
X6314Y2708D01*
X6214Y2725D02*
X6147D01*
Y2708D01*
X6214Y2641D01*
Y2625D01*
X5239Y2690D02*
X5256Y2706D01*
X5289D01*
X5306Y2690D01*
Y2623D01*
X5289Y2606D01*
X5256D01*
X5239Y2623D01*
X5139Y2606D02*
X5206D01*
X5139Y2673D01*
Y2690D01*
X5156Y2706D01*
X5189D01*
X5206Y2690D01*
X5039Y2706D02*
X5072Y2690D01*
X5106Y2656D01*
Y2623D01*
X5089Y2606D01*
X5056D01*
X5039Y2623D01*
Y2640D01*
X5056Y2656D01*
X5106D01*
X5251Y3319D02*
X5267Y3335D01*
X5301D01*
X5317Y3319D01*
Y3252D01*
X5301Y3235D01*
X5267D01*
X5251Y3252D01*
X5151Y3235D02*
X5217D01*
X5151Y3302D01*
Y3319D01*
X5167Y3335D01*
X5201D01*
X5217Y3319D01*
X5051Y3335D02*
X5117D01*
Y3285D01*
X5084Y3302D01*
X5067D01*
X5051Y3285D01*
Y3252D01*
X5067Y3235D01*
X5101D01*
X5117Y3252D01*
X4593Y3310D02*
X4610Y3327D01*
X4643D01*
X4660Y3310D01*
Y3243D01*
X4643Y3227D01*
X4610D01*
X4593Y3243D01*
X4493Y3227D02*
X4560D01*
X4493Y3293D01*
Y3310D01*
X4510Y3327D01*
X4543D01*
X4560Y3310D01*
X4410Y3227D02*
Y3327D01*
X4460Y3277D01*
X4393D01*
X4475Y2115D02*
X4492Y2131D01*
X4525D01*
X4542Y2115D01*
Y2048D01*
X4525Y2031D01*
X4492D01*
X4475Y2048D01*
X4376Y2031D02*
X4442D01*
X4376Y2098D01*
Y2115D01*
X4392Y2131D01*
X4425D01*
X4442Y2115D01*
X4342D02*
X4326Y2131D01*
X4292D01*
X4276Y2115D01*
Y2098D01*
X4292Y2081D01*
X4309D01*
X4292D01*
X4276Y2065D01*
Y2048D01*
X4292Y2031D01*
X4326D01*
X4342Y2048D01*
X5133Y2123D02*
X5150Y2140D01*
X5183D01*
X5200Y2123D01*
Y2057D01*
X5183Y2040D01*
X5150D01*
X5133Y2057D01*
X5033Y2040D02*
X5100D01*
X5033Y2107D01*
Y2123D01*
X5050Y2140D01*
X5083D01*
X5100Y2123D01*
X4933Y2040D02*
X5000D01*
X4933Y2107D01*
Y2123D01*
X4950Y2140D01*
X4983D01*
X5000Y2123D01*
X5077Y1494D02*
X5094Y1511D01*
X5127D01*
X5144Y1494D01*
Y1427D01*
X5127Y1411D01*
X5094D01*
X5077Y1427D01*
X4977Y1411D02*
X5044D01*
X4977Y1477D01*
Y1494D01*
X4994Y1511D01*
X5027D01*
X5044Y1494D01*
X4944Y1411D02*
X4911D01*
X4927D01*
Y1511D01*
X4944Y1494D01*
X4994Y900D02*
X5010Y916D01*
X5044D01*
X5060Y900D01*
Y833D01*
X5044Y816D01*
X5010D01*
X4994Y833D01*
X4894Y816D02*
X4960D01*
X4894Y883D01*
Y900D01*
X4910Y916D01*
X4944D01*
X4960Y900D01*
X4860D02*
X4844Y916D01*
X4810D01*
X4794Y900D01*
Y833D01*
X4810Y816D01*
X4844D01*
X4860Y833D01*
Y900D01*
X4287D02*
X4304Y916D01*
X4337D01*
X4354Y900D01*
Y833D01*
X4337Y816D01*
X4304D01*
X4287Y833D01*
X4254Y816D02*
X4221D01*
X4238D01*
Y916D01*
X4254Y900D01*
X4171Y833D02*
X4154Y816D01*
X4121D01*
X4104Y833D01*
Y900D01*
X4121Y916D01*
X4154D01*
X4171Y900D01*
Y883D01*
X4154Y866D01*
X4104D01*
X3579Y897D02*
X3595Y914D01*
X3629D01*
X3645Y897D01*
Y830D01*
X3629Y814D01*
X3595D01*
X3579Y830D01*
X3546Y814D02*
X3512D01*
X3529D01*
Y914D01*
X3546Y897D01*
X3462D02*
X3446Y914D01*
X3412D01*
X3396Y897D01*
Y880D01*
X3412Y864D01*
X3396Y847D01*
Y830D01*
X3412Y814D01*
X3446D01*
X3462Y830D01*
Y847D01*
X3446Y864D01*
X3462Y880D01*
Y897D01*
X3446Y864D02*
X3412D01*
X3658Y1498D02*
X3674Y1515D01*
X3708D01*
X3724Y1498D01*
Y1431D01*
X3708Y1415D01*
X3674D01*
X3658Y1431D01*
X3624Y1415D02*
X3591D01*
X3608D01*
Y1515D01*
X3624Y1498D01*
X3541Y1515D02*
X3474D01*
Y1498D01*
X3541Y1431D01*
Y1415D01*
X3746Y2086D02*
X3763Y2102D01*
X3796D01*
X3813Y2086D01*
Y2019D01*
X3796Y2002D01*
X3763D01*
X3746Y2019D01*
X3713Y2002D02*
X3680D01*
X3696D01*
Y2102D01*
X3713Y2086D01*
X3563Y2102D02*
X3597Y2086D01*
X3630Y2052D01*
Y2019D01*
X3613Y2002D01*
X3580D01*
X3563Y2019D01*
Y2036D01*
X3580Y2052D01*
X3630D01*
X3830Y2680D02*
X3847Y2697D01*
X3880D01*
X3897Y2680D01*
Y2614D01*
X3880Y2597D01*
X3847D01*
X3830Y2614D01*
X3797Y2597D02*
X3764D01*
X3780D01*
Y2697D01*
X3797Y2680D01*
X3647Y2697D02*
X3714D01*
Y2647D01*
X3680Y2664D01*
X3664D01*
X3647Y2647D01*
Y2614D01*
X3664Y2597D01*
X3697D01*
X3714Y2614D01*
X3908Y3281D02*
X3925Y3297D01*
X3958D01*
X3975Y3281D01*
Y3214D01*
X3958Y3197D01*
X3925D01*
X3908Y3214D01*
X3875Y3197D02*
X3842D01*
X3858D01*
Y3297D01*
X3875Y3281D01*
X3742Y3197D02*
Y3297D01*
X3792Y3247D01*
X3725D01*
X2715Y2691D02*
X2731Y2708D01*
X2765D01*
X2781Y2691D01*
Y2624D01*
X2765Y2608D01*
X2731D01*
X2715Y2624D01*
X2681Y2608D02*
X2648D01*
X2665D01*
Y2708D01*
X2681Y2691D01*
X2598D02*
X2581Y2708D01*
X2548D01*
X2531Y2691D01*
Y2674D01*
X2548Y2658D01*
X2565D01*
X2548D01*
X2531Y2641D01*
Y2624D01*
X2548Y2608D01*
X2581D01*
X2598Y2624D01*
X2804Y3280D02*
X2821Y3296D01*
X2854D01*
X2871Y3280D01*
Y3213D01*
X2854Y3196D01*
X2821D01*
X2804Y3213D01*
X2771Y3196D02*
X2737D01*
X2754D01*
Y3296D01*
X2771Y3280D01*
X2621Y3196D02*
X2688D01*
X2621Y3263D01*
Y3280D01*
X2638Y3296D01*
X2671D01*
X2688Y3280D01*
X2095Y3277D02*
X2112Y3294D01*
X2145D01*
X2162Y3277D01*
Y3210D01*
X2145Y3194D01*
X2112D01*
X2095Y3210D01*
X2062Y3194D02*
X2029D01*
X2045D01*
Y3294D01*
X2062Y3277D01*
X1979Y3194D02*
X1946D01*
X1962D01*
Y3294D01*
X1979Y3277D01*
X1930Y2088D02*
X1947Y2105D01*
X1980D01*
X1997Y2088D01*
Y2022D01*
X1980Y2005D01*
X1947D01*
X1930Y2022D01*
X1897Y2005D02*
X1864D01*
X1880D01*
Y2105D01*
X1897Y2088D01*
X1814D02*
X1797Y2105D01*
X1764D01*
X1747Y2088D01*
Y2022D01*
X1764Y2005D01*
X1797D01*
X1814Y2022D01*
Y2088D01*
X2636Y2091D02*
X2653Y2108D01*
X2686D01*
X2703Y2091D01*
Y2024D01*
X2686Y2008D01*
X2653D01*
X2636Y2024D01*
X2603D02*
X2587Y2008D01*
X2553D01*
X2537Y2024D01*
Y2091D01*
X2553Y2108D01*
X2587D01*
X2603Y2091D01*
Y2074D01*
X2587Y2058D01*
X2537D01*
X2553Y1497D02*
X2569Y1513D01*
X2603D01*
X2619Y1497D01*
Y1430D01*
X2603Y1413D01*
X2569D01*
X2553Y1430D01*
X2519Y1497D02*
X2503Y1513D01*
X2469D01*
X2453Y1497D01*
Y1480D01*
X2469Y1463D01*
X2453Y1447D01*
Y1430D01*
X2469Y1413D01*
X2503D01*
X2519Y1430D01*
Y1447D01*
X2503Y1463D01*
X2519Y1480D01*
Y1497D01*
X2503Y1463D02*
X2469D01*
X2469Y902D02*
X2486Y919D01*
X2519D01*
X2535Y902D01*
Y836D01*
X2519Y819D01*
X2486D01*
X2469Y836D01*
X2436Y919D02*
X2369D01*
Y902D01*
X2436Y836D01*
Y819D01*
X1763Y900D02*
X1779Y916D01*
X1813D01*
X1829Y900D01*
Y833D01*
X1813Y816D01*
X1779D01*
X1763Y833D01*
X1663Y916D02*
X1696Y900D01*
X1729Y866D01*
Y833D01*
X1713Y816D01*
X1679D01*
X1663Y833D01*
Y850D01*
X1679Y866D01*
X1729D01*
X1054Y900D02*
X1071Y916D01*
X1104D01*
X1121Y900D01*
Y833D01*
X1104Y816D01*
X1071D01*
X1054Y833D01*
X954Y916D02*
X1021D01*
Y866D01*
X987Y883D01*
X971D01*
X954Y866D01*
Y833D01*
X971Y816D01*
X1004D01*
X1021Y833D01*
X1138Y1494D02*
X1155Y1511D01*
X1188D01*
X1205Y1494D01*
Y1427D01*
X1188Y1411D01*
X1155D01*
X1138Y1427D01*
X1055Y1411D02*
Y1511D01*
X1105Y1461D01*
X1038D01*
X1222Y2088D02*
X1238Y2105D01*
X1272D01*
X1288Y2088D01*
Y2022D01*
X1272Y2005D01*
X1238D01*
X1222Y2022D01*
X1188Y2088D02*
X1172Y2105D01*
X1138D01*
X1122Y2088D01*
Y2072D01*
X1138Y2055D01*
X1155D01*
X1138D01*
X1122Y2038D01*
Y2022D01*
X1138Y2005D01*
X1172D01*
X1188Y2022D01*
X1306Y2680D02*
X1322Y2697D01*
X1356D01*
X1372Y2680D01*
Y2614D01*
X1356Y2597D01*
X1322D01*
X1306Y2614D01*
X1206Y2597D02*
X1272D01*
X1206Y2664D01*
Y2680D01*
X1222Y2697D01*
X1256D01*
X1272Y2680D01*
X1389Y3275D02*
X1406Y3291D01*
X1439D01*
X1456Y3275D01*
Y3208D01*
X1439Y3191D01*
X1406D01*
X1389Y3208D01*
X1356Y3191D02*
X1323D01*
X1339D01*
Y3291D01*
X1356Y3275D01*
X3394Y2907D02*
Y3007D01*
X3344D01*
X3327Y2990D01*
Y2957D01*
X3344Y2940D01*
X3394D01*
X3361D02*
X3327Y2907D01*
X3294D02*
X3261D01*
X3277D01*
Y3007D01*
X3294Y2990D01*
X5863Y2864D02*
Y2964D01*
X5813D01*
X5796Y2947D01*
Y2914D01*
X5813Y2897D01*
X5863D01*
X5830D02*
X5796Y2864D01*
X5696D02*
X5763D01*
X5696Y2930D01*
Y2947D01*
X5713Y2964D01*
X5746D01*
X5763Y2947D01*
X7024Y2851D02*
Y2951D01*
X6974D01*
X6957Y2934D01*
Y2901D01*
X6974Y2884D01*
X7024D01*
X6990D02*
X6957Y2851D01*
X6924Y2934D02*
X6907Y2951D01*
X6874D01*
X6857Y2934D01*
Y2918D01*
X6874Y2901D01*
X6890D01*
X6874D01*
X6857Y2884D01*
Y2868D01*
X6874Y2851D01*
X6907D01*
X6924Y2868D01*
X9510Y2955D02*
Y3055D01*
X9460D01*
X9444Y3038D01*
Y3005D01*
X9460Y2988D01*
X9510D01*
X9477D02*
X9444Y2955D01*
X9360D02*
Y3055D01*
X9410Y3005D01*
X9344D01*
X11370Y310D02*
Y410D01*
X11303Y310D01*
Y410D01*
X11270Y310D02*
Y410D01*
X11220D01*
X11203Y393D01*
Y360D01*
X11220Y343D01*
X11270D01*
X11103Y393D02*
X11120Y410D01*
X11153D01*
X11170Y393D01*
Y377D01*
X11153Y360D01*
X11120D01*
X11103Y343D01*
Y327D01*
X11120Y310D01*
X11153D01*
X11170Y327D01*
X11003Y393D02*
X11020Y410D01*
X11053D01*
X11070Y393D01*
Y327D01*
X11053Y310D01*
X11020D01*
X11003Y327D01*
X10970Y293D02*
X10903D01*
X10854Y393D02*
Y377D01*
X10870D01*
X10837D01*
X10854D01*
Y327D01*
X10837Y310D01*
X10787D02*
X10754D01*
X10770D01*
Y377D01*
X10787D01*
X10704Y310D02*
Y377D01*
X10687D01*
X10670Y360D01*
Y310D01*
Y360D01*
X10654Y377D01*
X10637Y360D01*
Y310D01*
X10554D02*
X10587D01*
X10604Y327D01*
Y360D01*
X10587Y377D01*
X10554D01*
X10537Y360D01*
Y343D01*
X10604D01*
X10404Y377D02*
X10370Y310D01*
X10337Y377D01*
X10304Y310D02*
X10270D01*
X10287D01*
Y410D01*
X10304Y393D01*
X10220Y310D02*
Y327D01*
X10204D01*
Y310D01*
X10220D01*
X10137Y393D02*
X10120Y410D01*
X10087D01*
X10070Y393D01*
Y327D01*
X10087Y310D01*
X10120D01*
X10137Y327D01*
Y393D01*
X11640Y230D02*
X11673D01*
X11690Y213D01*
Y147D01*
X11673Y130D01*
X11640D01*
X11623Y147D01*
Y213D01*
X11640Y230D01*
X11573Y213D02*
Y197D01*
X11590D01*
X11557D01*
X11573D01*
Y147D01*
X11557Y130D01*
X11507Y230D02*
Y130D01*
Y180D01*
X11490Y197D01*
X11457D01*
X11440Y180D01*
Y130D01*
X11407D02*
Y197D01*
X11357D01*
X11340Y180D01*
Y130D01*
X11307D02*
X11273D01*
X11290D01*
Y197D01*
X11307D01*
X11174Y130D02*
X11207D01*
X11223Y147D01*
Y180D01*
X11207Y197D01*
X11174D01*
X11157Y180D01*
Y163D01*
X11223D01*
X11124Y130D02*
X11090D01*
X11107D01*
Y230D01*
X11124D01*
X10940D02*
Y130D01*
Y163D01*
X10874Y230D01*
X10924Y180D01*
X10874Y130D01*
X10824D02*
X10790D01*
X10774Y147D01*
Y180D01*
X10790Y197D01*
X10824D01*
X10840Y180D01*
Y147D01*
X10824Y130D01*
X10740D02*
Y197D01*
X10690D01*
X10674Y180D01*
Y130D01*
X10624Y197D02*
X10590D01*
X10574Y180D01*
Y130D01*
X10624D01*
X10640Y147D01*
X10624Y163D01*
X10574D01*
X10540Y130D02*
Y197D01*
X10490D01*
X10474Y180D01*
Y130D01*
X10274Y230D02*
X10340D01*
Y130D01*
X10274D01*
X10340Y180D02*
X10307D01*
X10174Y213D02*
X10190Y230D01*
X10224D01*
X10240Y213D01*
Y147D01*
X10224Y130D01*
X10190D01*
X10174Y147D01*
X10074Y230D02*
X10140D01*
Y130D01*
X10074D01*
X10140Y180D02*
X10107D01*
X9874Y130D02*
X9941D01*
X9874Y197D01*
Y213D01*
X9891Y230D01*
X9924D01*
X9941Y213D01*
X9841D02*
X9824Y230D01*
X9791D01*
X9774Y213D01*
Y147D01*
X9791Y130D01*
X9824D01*
X9841Y147D01*
Y213D01*
X9741Y130D02*
X9707D01*
X9724D01*
Y230D01*
X9741Y213D01*
X9657Y230D02*
X9591D01*
Y213D01*
X9657Y147D01*
Y130D01*
X820Y2600D02*
Y2500D01*
X770D01*
X753Y2517D01*
Y2583D01*
X770Y2600D01*
X820D01*
X720D02*
X687D01*
X703D01*
Y2500D01*
X720D01*
X687D01*
X637D02*
Y2600D01*
X570Y2500D01*
Y2600D01*
X470D02*
X537D01*
Y2550D01*
X503Y2567D01*
X487D01*
X470Y2550D01*
Y2517D01*
X487Y2500D01*
X520D01*
X537Y2517D01*
X11880Y2120D02*
Y2020D01*
X11830D01*
X11813Y2037D01*
Y2103D01*
X11830Y2120D01*
X11880D01*
X11763Y2020D02*
X11730D01*
X11713Y2037D01*
Y2070D01*
X11730Y2087D01*
X11763D01*
X11780Y2070D01*
Y2037D01*
X11763Y2020D01*
X11680Y2087D02*
Y2037D01*
X11663Y2020D01*
X11613D01*
Y2087D01*
X11563Y2103D02*
Y2087D01*
X11580D01*
X11547D01*
X11563D01*
Y2037D01*
X11547Y2020D01*
X11803Y1843D02*
X11820Y1860D01*
X11853D01*
X11870Y1843D01*
Y1777D01*
X11853Y1760D01*
X11820D01*
X11803Y1777D01*
Y1810D01*
X11837D01*
X11770Y1760D02*
Y1860D01*
X11703Y1760D01*
Y1860D01*
X11670D02*
Y1760D01*
X11620D01*
X11603Y1777D01*
Y1843D01*
X11620Y1860D01*
X11670D01*
X11793Y1590D02*
X11860D01*
Y1540D01*
X11827Y1557D01*
X11810D01*
X11793Y1540D01*
Y1507D01*
X11810Y1490D01*
X11843D01*
X11860Y1507D01*
X11760Y1590D02*
Y1523D01*
X11727Y1490D01*
X11693Y1523D01*
Y1590D01*
X820Y2370D02*
Y2270D01*
X770D01*
X753Y2287D01*
Y2353D01*
X770Y2370D01*
X820D01*
X720D02*
X687D01*
X703D01*
Y2270D01*
X720D01*
X687D01*
X637D02*
Y2370D01*
X570Y2270D01*
Y2370D01*
X487Y2270D02*
Y2370D01*
X537Y2320D01*
X470D01*
X820Y2140D02*
Y2040D01*
X770D01*
X753Y2057D01*
Y2123D01*
X770Y2140D01*
X820D01*
X720D02*
X687D01*
X703D01*
Y2040D01*
X720D01*
X687D01*
X637D02*
Y2140D01*
X570Y2040D01*
Y2140D01*
X537Y2123D02*
X520Y2140D01*
X487D01*
X470Y2123D01*
Y2107D01*
X487Y2090D01*
X503D01*
X487D01*
X470Y2073D01*
Y2057D01*
X487Y2040D01*
X520D01*
X537Y2057D01*
X830Y1920D02*
Y1820D01*
X780D01*
X763Y1837D01*
Y1903D01*
X780Y1920D01*
X830D01*
X730D02*
X697D01*
X713D01*
Y1820D01*
X730D01*
X697D01*
X647D02*
Y1920D01*
X580Y1820D01*
Y1920D01*
X480Y1820D02*
X547D01*
X480Y1887D01*
Y1903D01*
X497Y1920D01*
X530D01*
X547Y1903D01*
X800Y1700D02*
Y1600D01*
X750D01*
X733Y1617D01*
Y1683D01*
X750Y1700D01*
X800D01*
X700D02*
X667D01*
X683D01*
Y1600D01*
X700D01*
X667D01*
X617D02*
Y1700D01*
X550Y1600D01*
Y1700D01*
X517Y1600D02*
X483D01*
X500D01*
Y1700D01*
X517Y1683D01*
X693Y1443D02*
X710Y1460D01*
X743D01*
X760Y1443D01*
Y1377D01*
X743Y1360D01*
X710D01*
X693Y1377D01*
Y1410D01*
X727D01*
X660Y1360D02*
Y1460D01*
X593Y1360D01*
Y1460D01*
X560D02*
Y1360D01*
X510D01*
X493Y1377D01*
Y1443D01*
X510Y1460D01*
X560D01*
X593Y1230D02*
X660D01*
Y1180D01*
X627Y1197D01*
X610D01*
X593Y1180D01*
Y1147D01*
X610Y1130D01*
X643D01*
X660Y1147D01*
X560Y1230D02*
Y1163D01*
X527Y1130D01*
X493Y1163D01*
Y1230D01*
M02*
