G04 Layer_Color=16711935*
%FSLAX42Y42*%
%MOMM*%
G71*
G01*
G75*
%ADD266C,3.70*%
G04:AMPARAMS|DCode=267|XSize=1.6mm|YSize=1.25mm|CornerRadius=0mm|HoleSize=0mm|Usage=FLASHONLY|Rotation=272.678|XOffset=0mm|YOffset=0mm|HoleType=Round|Shape=Rectangle|*
%AMROTATEDRECTD267*
4,1,4,-0.66,0.77,0.59,0.83,0.66,-0.77,-0.59,-0.83,-0.66,0.77,0.0*
%
%ADD267ROTATEDRECTD267*%

G04:AMPARAMS|DCode=268|XSize=1.6mm|YSize=1.25mm|CornerRadius=0mm|HoleSize=0mm|Usage=FLASHONLY|Rotation=2.023|XOffset=0mm|YOffset=0mm|HoleType=Round|Shape=Rectangle|*
%AMROTATEDRECTD268*
4,1,4,-0.78,-0.65,-0.82,0.60,0.78,0.65,0.82,-0.60,-0.78,-0.65,0.0*
%
%ADD268ROTATEDRECTD268*%

G04:AMPARAMS|DCode=269|XSize=1.6mm|YSize=1.25mm|CornerRadius=0mm|HoleSize=0mm|Usage=FLASHONLY|Rotation=3.004|XOffset=0mm|YOffset=0mm|HoleType=Round|Shape=Rectangle|*
%AMROTATEDRECTD269*
4,1,4,-0.77,-0.67,-0.83,0.58,0.77,0.67,0.83,-0.58,-0.77,-0.67,0.0*
%
%ADD269ROTATEDRECTD269*%

G04:AMPARAMS|DCode=270|XSize=1.6mm|YSize=1.25mm|CornerRadius=0mm|HoleSize=0mm|Usage=FLASHONLY|Rotation=272.498|XOffset=0mm|YOffset=0mm|HoleType=Round|Shape=Rectangle|*
%AMROTATEDRECTD270*
4,1,4,-0.66,0.77,0.59,0.83,0.66,-0.77,-0.59,-0.83,-0.66,0.77,0.0*
%
%ADD270ROTATEDRECTD270*%

G04:AMPARAMS|DCode=271|XSize=1.6mm|YSize=1.25mm|CornerRadius=0mm|HoleSize=0mm|Usage=FLASHONLY|Rotation=1.976|XOffset=0mm|YOffset=0mm|HoleType=Round|Shape=Rectangle|*
%AMROTATEDRECTD271*
4,1,4,-0.78,-0.65,-0.82,0.60,0.78,0.65,0.82,-0.60,-0.78,-0.65,0.0*
%
%ADD271ROTATEDRECTD271*%

G04:AMPARAMS|DCode=272|XSize=1.6mm|YSize=1.25mm|CornerRadius=0mm|HoleSize=0mm|Usage=FLASHONLY|Rotation=3.000|XOffset=0mm|YOffset=0mm|HoleType=Round|Shape=Rectangle|*
%AMROTATEDRECTD272*
4,1,4,-0.77,-0.67,-0.83,0.58,0.77,0.67,0.83,-0.58,-0.77,-0.67,0.0*
%
%ADD272ROTATEDRECTD272*%

G04:AMPARAMS|DCode=273|XSize=1.6mm|YSize=1.25mm|CornerRadius=0mm|HoleSize=0mm|Usage=FLASHONLY|Rotation=273.177|XOffset=0mm|YOffset=0mm|HoleType=Round|Shape=Rectangle|*
%AMROTATEDRECTD273*
4,1,4,-0.67,0.77,0.58,0.84,0.67,-0.77,-0.58,-0.84,-0.67,0.77,0.0*
%
%ADD273ROTATEDRECTD273*%

G04:AMPARAMS|DCode=274|XSize=1.6mm|YSize=1.25mm|CornerRadius=0mm|HoleSize=0mm|Usage=FLASHONLY|Rotation=2.523|XOffset=0mm|YOffset=0mm|HoleType=Round|Shape=Rectangle|*
%AMROTATEDRECTD274*
4,1,4,-0.77,-0.66,-0.83,0.59,0.77,0.66,0.83,-0.59,-0.77,-0.66,0.0*
%
%ADD274ROTATEDRECTD274*%

G04:AMPARAMS|DCode=275|XSize=1.65mm|YSize=1.35mm|CornerRadius=0mm|HoleSize=0mm|Usage=FLASHONLY|Rotation=178.525|XOffset=0mm|YOffset=0mm|HoleType=Round|Shape=Rectangle|*
%AMROTATEDRECTD275*
4,1,4,0.84,0.66,0.81,-0.70,-0.84,-0.66,-0.81,0.70,0.84,0.66,0.0*
%
%ADD275ROTATEDRECTD275*%

G04:AMPARAMS|DCode=276|XSize=1.65mm|YSize=1.35mm|CornerRadius=0mm|HoleSize=0mm|Usage=FLASHONLY|Rotation=178.500|XOffset=0mm|YOffset=0mm|HoleType=Round|Shape=Rectangle|*
%AMROTATEDRECTD276*
4,1,4,0.84,0.65,0.81,-0.70,-0.84,-0.65,-0.81,0.70,0.84,0.65,0.0*
%
%ADD276ROTATEDRECTD276*%

G04:AMPARAMS|DCode=277|XSize=1.65mm|YSize=1.35mm|CornerRadius=0mm|HoleSize=0mm|Usage=FLASHONLY|Rotation=177.821|XOffset=0mm|YOffset=0mm|HoleType=Round|Shape=Rectangle|*
%AMROTATEDRECTD277*
4,1,4,0.85,0.64,0.80,-0.71,-0.85,-0.64,-0.80,0.71,0.85,0.64,0.0*
%
%ADD277ROTATEDRECTD277*%

G04:AMPARAMS|DCode=278|XSize=1.65mm|YSize=1.35mm|CornerRadius=0mm|HoleSize=0mm|Usage=FLASHONLY|Rotation=148.237|XOffset=0mm|YOffset=0mm|HoleType=Round|Shape=Rectangle|*
%AMROTATEDRECTD278*
4,1,4,1.06,0.14,0.35,-1.01,-1.06,-0.14,-0.35,1.01,1.06,0.14,0.0*
%
%ADD278ROTATEDRECTD278*%

G04:AMPARAMS|DCode=279|XSize=1.65mm|YSize=1.35mm|CornerRadius=0mm|HoleSize=0mm|Usage=FLASHONLY|Rotation=147.368|XOffset=0mm|YOffset=0mm|HoleType=Round|Shape=Rectangle|*
%AMROTATEDRECTD279*
4,1,4,1.06,0.12,0.33,-1.02,-1.06,-0.12,-0.33,1.02,1.06,0.12,0.0*
%
%ADD279ROTATEDRECTD279*%

G04:AMPARAMS|DCode=280|XSize=1.65mm|YSize=1.35mm|CornerRadius=0mm|HoleSize=0mm|Usage=FLASHONLY|Rotation=146.785|XOffset=0mm|YOffset=0mm|HoleType=Round|Shape=Rectangle|*
%AMROTATEDRECTD280*
4,1,4,1.06,0.11,0.32,-1.02,-1.06,-0.11,-0.32,1.02,1.06,0.11,0.0*
%
%ADD280ROTATEDRECTD280*%

G04:AMPARAMS|DCode=281|XSize=1.65mm|YSize=1.35mm|CornerRadius=0mm|HoleSize=0mm|Usage=FLASHONLY|Rotation=117.269|XOffset=0mm|YOffset=0mm|HoleType=Round|Shape=Rectangle|*
%AMROTATEDRECTD281*
4,1,4,0.98,-0.42,-0.22,-1.04,-0.98,0.42,0.22,1.04,0.98,-0.42,0.0*
%
%ADD281ROTATEDRECTD281*%

G04:AMPARAMS|DCode=282|XSize=1.65mm|YSize=1.35mm|CornerRadius=0mm|HoleSize=0mm|Usage=FLASHONLY|Rotation=117.500|XOffset=0mm|YOffset=0mm|HoleType=Round|Shape=Rectangle|*
%AMROTATEDRECTD282*
4,1,4,0.98,-0.42,-0.22,-1.05,-0.98,0.42,0.22,1.05,0.98,-0.42,0.0*
%
%ADD282ROTATEDRECTD282*%

G04:AMPARAMS|DCode=283|XSize=1.65mm|YSize=1.35mm|CornerRadius=0mm|HoleSize=0mm|Usage=FLASHONLY|Rotation=116.986|XOffset=0mm|YOffset=0mm|HoleType=Round|Shape=Rectangle|*
%AMROTATEDRECTD283*
4,1,4,0.98,-0.43,-0.23,-1.04,-0.98,0.43,0.23,1.04,0.98,-0.43,0.0*
%
%ADD283ROTATEDRECTD283*%

G04:AMPARAMS|DCode=284|XSize=1.65mm|YSize=1.35mm|CornerRadius=0mm|HoleSize=0mm|Usage=FLASHONLY|Rotation=86.739|XOffset=0mm|YOffset=0mm|HoleType=Round|Shape=Rectangle|*
%AMROTATEDRECTD284*
4,1,4,0.63,-0.86,-0.72,-0.79,-0.63,0.86,0.72,0.79,0.63,-0.86,0.0*
%
%ADD284ROTATEDRECTD284*%

G04:AMPARAMS|DCode=285|XSize=1.65mm|YSize=1.35mm|CornerRadius=0mm|HoleSize=0mm|Usage=FLASHONLY|Rotation=86.848|XOffset=0mm|YOffset=0mm|HoleType=Round|Shape=Rectangle|*
%AMROTATEDRECTD285*
4,1,4,0.63,-0.86,-0.72,-0.79,-0.63,0.86,0.72,0.79,0.63,-0.86,0.0*
%
%ADD285ROTATEDRECTD285*%

G04:AMPARAMS|DCode=286|XSize=1.65mm|YSize=1.35mm|CornerRadius=0mm|HoleSize=0mm|Usage=FLASHONLY|Rotation=87.572|XOffset=0mm|YOffset=0mm|HoleType=Round|Shape=Rectangle|*
%AMROTATEDRECTD286*
4,1,4,0.64,-0.85,-0.71,-0.80,-0.64,0.85,0.71,0.80,0.64,-0.85,0.0*
%
%ADD286ROTATEDRECTD286*%

G04:AMPARAMS|DCode=287|XSize=1.65mm|YSize=1.35mm|CornerRadius=0mm|HoleSize=0mm|Usage=FLASHONLY|Rotation=56.445|XOffset=0mm|YOffset=0mm|HoleType=Round|Shape=Rectangle|*
%AMROTATEDRECTD287*
4,1,4,0.11,-1.06,-1.02,-0.31,-0.11,1.06,1.02,0.31,0.11,-1.06,0.0*
%
%ADD287ROTATEDRECTD287*%

G04:AMPARAMS|DCode=288|XSize=1.65mm|YSize=1.35mm|CornerRadius=0mm|HoleSize=0mm|Usage=FLASHONLY|Rotation=56.992|XOffset=0mm|YOffset=0mm|HoleType=Round|Shape=Rectangle|*
%AMROTATEDRECTD288*
4,1,4,0.12,-1.06,-1.02,-0.32,-0.12,1.06,1.02,0.32,0.12,-1.06,0.0*
%
%ADD288ROTATEDRECTD288*%

G04:AMPARAMS|DCode=289|XSize=1.65mm|YSize=1.35mm|CornerRadius=0mm|HoleSize=0mm|Usage=FLASHONLY|Rotation=56.772|XOffset=0mm|YOffset=0mm|HoleType=Round|Shape=Rectangle|*
%AMROTATEDRECTD289*
4,1,4,0.11,-1.06,-1.02,-0.32,-0.11,1.06,1.02,0.32,0.11,-1.06,0.0*
%
%ADD289ROTATEDRECTD289*%

G04:AMPARAMS|DCode=290|XSize=1.65mm|YSize=1.35mm|CornerRadius=0mm|HoleSize=0mm|Usage=FLASHONLY|Rotation=27.272|XOffset=0mm|YOffset=0mm|HoleType=Round|Shape=Rectangle|*
%AMROTATEDRECTD290*
4,1,4,-0.42,-0.98,-1.04,0.22,0.42,0.98,1.04,-0.22,-0.42,-0.98,0.0*
%
%ADD290ROTATEDRECTD290*%

G04:AMPARAMS|DCode=291|XSize=1.65mm|YSize=1.35mm|CornerRadius=0mm|HoleSize=0mm|Usage=FLASHONLY|Rotation=27.304|XOffset=0mm|YOffset=0mm|HoleType=Round|Shape=Rectangle|*
%AMROTATEDRECTD291*
4,1,4,-0.42,-0.98,-1.04,0.22,0.42,0.98,1.04,-0.22,-0.42,-0.98,0.0*
%
%ADD291ROTATEDRECTD291*%

G04:AMPARAMS|DCode=292|XSize=1.65mm|YSize=1.35mm|CornerRadius=0mm|HoleSize=0mm|Usage=FLASHONLY|Rotation=26.794|XOffset=0mm|YOffset=0mm|HoleType=Round|Shape=Rectangle|*
%AMROTATEDRECTD292*
4,1,4,-0.43,-0.98,-1.04,0.23,0.43,0.98,1.04,-0.23,-0.43,-0.98,0.0*
%
%ADD292ROTATEDRECTD292*%

G04:AMPARAMS|DCode=293|XSize=1.65mm|YSize=1.35mm|CornerRadius=0mm|HoleSize=0mm|Usage=FLASHONLY|Rotation=357.220|XOffset=0mm|YOffset=0mm|HoleType=Round|Shape=Rectangle|*
%AMROTATEDRECTD293*
4,1,4,-0.86,-0.64,-0.79,0.72,0.86,0.64,0.79,-0.72,-0.86,-0.64,0.0*
%
%ADD293ROTATEDRECTD293*%

G04:AMPARAMS|DCode=294|XSize=1.65mm|YSize=1.35mm|CornerRadius=0mm|HoleSize=0mm|Usage=FLASHONLY|Rotation=357.169|XOffset=0mm|YOffset=0mm|HoleType=Round|Shape=Rectangle|*
%AMROTATEDRECTD294*
4,1,4,-0.86,-0.63,-0.79,0.72,0.86,0.63,0.79,-0.72,-0.86,-0.63,0.0*
%
%ADD294ROTATEDRECTD294*%

G04:AMPARAMS|DCode=295|XSize=1.65mm|YSize=1.35mm|CornerRadius=0mm|HoleSize=0mm|Usage=FLASHONLY|Rotation=357.386|XOffset=0mm|YOffset=0mm|HoleType=Round|Shape=Rectangle|*
%AMROTATEDRECTD295*
4,1,4,-0.86,-0.64,-0.79,0.71,0.86,0.64,0.79,-0.71,-0.86,-0.64,0.0*
%
%ADD295ROTATEDRECTD295*%

G04:AMPARAMS|DCode=296|XSize=1.65mm|YSize=1.35mm|CornerRadius=0mm|HoleSize=0mm|Usage=FLASHONLY|Rotation=326.426|XOffset=0mm|YOffset=0mm|HoleType=Round|Shape=Rectangle|*
%AMROTATEDRECTD296*
4,1,4,-1.06,-0.11,-0.31,1.02,1.06,0.11,0.31,-1.02,-1.06,-0.11,0.0*
%
%ADD296ROTATEDRECTD296*%

G04:AMPARAMS|DCode=297|XSize=1.65mm|YSize=1.35mm|CornerRadius=0mm|HoleSize=0mm|Usage=FLASHONLY|Rotation=209.832|XOffset=0mm|YOffset=0mm|HoleType=Round|Shape=Rectangle|*
%AMROTATEDRECTD297*
4,1,4,0.38,1.00,1.05,-0.18,-0.38,-1.00,-1.05,0.18,0.38,1.00,0.0*
%
%ADD297ROTATEDRECTD297*%

G04:AMPARAMS|DCode=298|XSize=3.2mm|YSize=1.7mm|CornerRadius=0mm|HoleSize=0mm|Usage=FLASHONLY|Rotation=98.000|XOffset=0mm|YOffset=0mm|HoleType=Round|Shape=Rectangle|*
%AMROTATEDRECTD298*
4,1,4,1.07,-1.47,-0.62,-1.70,-1.07,1.47,0.62,1.70,1.07,-1.47,0.0*
%
%ADD298ROTATEDRECTD298*%

G04:AMPARAMS|DCode=299|XSize=3.2mm|YSize=1.7mm|CornerRadius=0mm|HoleSize=0mm|Usage=FLASHONLY|Rotation=272.000|XOffset=0mm|YOffset=0mm|HoleType=Round|Shape=Rectangle|*
%AMROTATEDRECTD299*
4,1,4,-0.91,1.57,0.80,1.63,0.91,-1.57,-0.80,-1.63,-0.91,1.57,0.0*
%
%ADD299ROTATEDRECTD299*%

G04:AMPARAMS|DCode=300|XSize=3.2mm|YSize=2.2mm|CornerRadius=0mm|HoleSize=0mm|Usage=FLASHONLY|Rotation=84.000|XOffset=0mm|YOffset=0mm|HoleType=Round|Shape=Rectangle|*
%AMROTATEDRECTD300*
4,1,4,0.93,-1.71,-1.26,-1.48,-0.93,1.71,1.26,1.48,0.93,-1.71,0.0*
%
%ADD300ROTATEDRECTD300*%

G04:AMPARAMS|DCode=301|XSize=3.2mm|YSize=2.2mm|CornerRadius=0mm|HoleSize=0mm|Usage=FLASHONLY|Rotation=80.000|XOffset=0mm|YOffset=0mm|HoleType=Round|Shape=Rectangle|*
%AMROTATEDRECTD301*
4,1,4,0.81,-1.77,-1.36,-1.39,-0.81,1.77,1.36,1.39,0.81,-1.77,0.0*
%
%ADD301ROTATEDRECTD301*%

%ADD302C,1.47*%
D266*
X9093Y-5250D02*
D03*
X5250Y-9093D02*
D03*
X-5250D02*
D03*
X-9093Y-5250D02*
D03*
Y5250D02*
D03*
X-5250Y9093D02*
D03*
X9093Y5250D02*
D03*
X5250Y9093D02*
D03*
D267*
X-9592Y-503D02*
D03*
X-9782Y-512D02*
D03*
X9592Y503D02*
D03*
X9782Y513D02*
D03*
D268*
X504Y-9592D02*
D03*
X511Y-9782D02*
D03*
D269*
X-486Y9282D02*
D03*
X-477Y9093D02*
D03*
D270*
X-8593Y-451D02*
D03*
X-8783Y-459D02*
D03*
X8593Y451D02*
D03*
X8783Y459D02*
D03*
X7595Y399D02*
D03*
X7784Y407D02*
D03*
D271*
X452Y-8593D02*
D03*
X459Y-8783D02*
D03*
D272*
X-434Y8284D02*
D03*
X-424Y8094D02*
D03*
D273*
X-7595Y-398D02*
D03*
X-7784Y-408D02*
D03*
D274*
X399Y-7595D02*
D03*
X407Y-7784D02*
D03*
D275*
X405Y7779D02*
D03*
X401Y7599D02*
D03*
D276*
X458Y8778D02*
D03*
X453Y8598D02*
D03*
D277*
X511Y9777D02*
D03*
X504Y9597D02*
D03*
D278*
X4241Y6534D02*
D03*
X4146Y6381D02*
D03*
D279*
X4787Y7372D02*
D03*
X4690Y7221D02*
D03*
X-4787Y-7372D02*
D03*
X-4689Y-7221D02*
D03*
X-5332Y-8211D02*
D03*
X-5234Y-8060D02*
D03*
D280*
X5332Y8210D02*
D03*
X5234Y8060D02*
D03*
D281*
X6941Y3537D02*
D03*
X6781Y3454D02*
D03*
X-6941Y-3537D02*
D03*
X-6781Y-3455D02*
D03*
X-7832Y-3991D02*
D03*
X-7672Y-3909D02*
D03*
X-8723Y-4445D02*
D03*
X-8563Y-4362D02*
D03*
D282*
X7832Y3991D02*
D03*
X7672Y3908D02*
D03*
D283*
X8723Y4445D02*
D03*
X8563Y4363D02*
D03*
D284*
X7779Y-408D02*
D03*
X7600Y-398D02*
D03*
X-7779Y408D02*
D03*
X-7600Y398D02*
D03*
X-9774Y555D02*
D03*
X-9595Y545D02*
D03*
D285*
X8778Y-460D02*
D03*
X8598Y-450D02*
D03*
D286*
X9777Y-511D02*
D03*
X9597Y-504D02*
D03*
X-8778Y459D02*
D03*
X-8598Y452D02*
D03*
D287*
X6533Y-4243D02*
D03*
X6383Y-4144D02*
D03*
D288*
X7372Y-4787D02*
D03*
X7221Y-4689D02*
D03*
X-6533Y4243D02*
D03*
X-6382Y4145D02*
D03*
X-7351Y4820D02*
D03*
X-7201Y4721D02*
D03*
X-8211Y5332D02*
D03*
X-8059Y5234D02*
D03*
D289*
X8210Y-5332D02*
D03*
X8060Y-5234D02*
D03*
D290*
X3537Y-6941D02*
D03*
X3454Y-6781D02*
D03*
X-3536Y6941D02*
D03*
X-3455Y6780D02*
D03*
X-4445Y8723D02*
D03*
X-4363Y8563D02*
D03*
D291*
X3991Y-7832D02*
D03*
X3908Y-7672D02*
D03*
D292*
X4444Y-8723D02*
D03*
X4363Y-8562D02*
D03*
D293*
X-407Y-7779D02*
D03*
X-399Y-7600D02*
D03*
D294*
X-460Y-8778D02*
D03*
X-451Y-8598D02*
D03*
D295*
X-512Y-9777D02*
D03*
X-504Y-9597D02*
D03*
D296*
X-4243Y-6533D02*
D03*
X-4144Y-6383D02*
D03*
D297*
X-3994Y7830D02*
D03*
X-3905Y7674D02*
D03*
D298*
X-847Y6898D02*
D03*
D299*
X-364Y6940D02*
D03*
D300*
X606Y6924D02*
D03*
D301*
X1326Y6822D02*
D03*
D302*
X1693Y6792D02*
D03*
M02*
