G04 Layer_Color=2752767*
%FSLAX42Y42*%
%MOMM*%
G71*
G01*
G75*
%ADD305C,0.05*%
%ADD306C,0.07*%
D305*
X9073Y-5270D02*
Y-5230D01*
X9114D01*
Y-5270D01*
X9073D01*
X5230Y-9114D02*
Y-9073D01*
X5270D01*
Y-9114D01*
X5230D01*
X-5270D02*
Y-9073D01*
X-5230D01*
Y-9114D01*
X-5270D01*
X-9114Y-5270D02*
Y-5230D01*
X-9073D01*
Y-5270D01*
X-9114D01*
Y5230D02*
Y5270D01*
X-9073D01*
Y5230D01*
X-9114D01*
X-5270Y9073D02*
Y9114D01*
X-5230D01*
Y9073D01*
X-5270D01*
X9073Y5230D02*
Y5270D01*
X9114D01*
Y5230D01*
X9073D01*
X5230Y9073D02*
Y9114D01*
X5270D01*
Y9073D01*
X5230D01*
D306*
X-138Y-9099D02*
G03*
X-138Y-9099I-20J0D01*
G01*
X-156Y-10098D02*
G03*
X-156Y-10098I-20J0D01*
G01*
X-2252Y-9841D02*
G03*
X-2252Y-9841I-20J0D01*
G01*
X-1211Y-10025D02*
G03*
X-1211Y-10025I-20J0D01*
G01*
X-1089Y-9032D02*
G03*
X-1089Y-9032I-20J0D01*
G01*
X-2027Y-8867D02*
G03*
X-2027Y-8867I-20J0D01*
G01*
X-2942Y-8604D02*
G03*
X-2942Y-8604I-20J0D01*
G01*
X-3268Y-9550D02*
G03*
X-3268Y-9550I-20J0D01*
G01*
X-4248Y-9154D02*
G03*
X-4248Y-9154I-20J0D01*
G01*
X-3826Y-8247D02*
G03*
X-3826Y-8247I-20J0D01*
G01*
X-5182Y-8657D02*
G03*
X-5182Y-8657I-20J0D01*
G01*
X-4667Y-7800D02*
G03*
X-4667Y-7800I-20J0D01*
G01*
X-5456Y-7268D02*
G03*
X-5456Y-7268I-20J0D01*
G01*
X-6058Y-8066D02*
G03*
X-6058Y-8066I-20J0D01*
G01*
X-6868Y-7387D02*
G03*
X-6868Y-7387I-20J0D01*
G01*
X-6186Y-6655D02*
G03*
X-6186Y-6655I-20J0D01*
G01*
X-6848Y-5970D02*
G03*
X-6848Y-5970I-20J0D01*
G01*
X-7602Y-6626D02*
G03*
X-7602Y-6626I-20J0D01*
G01*
X-8253Y-5793D02*
G03*
X-8253Y-5793I-20J0D01*
G01*
X-7434Y-5220D02*
G03*
X-7434Y-5220I-20J0D01*
G01*
X-8813Y-4897D02*
G03*
X-8813Y-4897I-20J0D01*
G01*
X-7939Y-4412D02*
G03*
X-7939Y-4412I-20J0D01*
G01*
X-8356Y-3556D02*
G03*
X-8356Y-3556I-20J0D01*
G01*
X-9277Y-3946D02*
G03*
X-9277Y-3946I-20J0D01*
G01*
X-9638Y-2953D02*
G03*
X-9638Y-2953I-20J0D01*
G01*
X-9894Y-1927D02*
G03*
X-9894Y-1927I-20J0D01*
G01*
X-8682Y-2661D02*
G03*
X-8682Y-2661I-20J0D01*
G01*
X-8912Y-1736D02*
G03*
X-8912Y-1736I-20J0D01*
G01*
X-10041Y-880D02*
G03*
X-10041Y-880I-20J0D01*
G01*
X-9045Y-793D02*
G03*
X-9045Y-793I-20J0D01*
G01*
X-9078Y159D02*
G03*
X-9078Y159I-20J0D01*
G01*
X-10078Y176D02*
G03*
X-10078Y176I-20J0D01*
G01*
X-10004Y1231D02*
G03*
X-10004Y1231I-20J0D01*
G01*
X-9012Y1109D02*
G03*
X-9012Y1109I-20J0D01*
G01*
X-8846Y2047D02*
G03*
X-8846Y2047I-20J0D01*
G01*
X-9821Y2272D02*
G03*
X-9821Y2272I-20J0D01*
G01*
X-9529Y3288D02*
G03*
X-9529Y3288I-20J0D01*
G01*
X-8584Y2963D02*
G03*
X-8584Y2963I-20J0D01*
G01*
X-8227Y3846D02*
G03*
X-8227Y3846I-20J0D01*
G01*
X-6635Y6206D02*
G03*
X-6635Y6206I-20J0D01*
G01*
X-7247Y5477D02*
G03*
X-7247Y5477I-20J0D01*
G01*
X-7780Y4687D02*
G03*
X-7780Y4687I-20J0D01*
G01*
X-9133Y4268D02*
G03*
X-9133Y4268I-20J0D01*
G01*
X-8637Y5202D02*
G03*
X-8637Y5202I-20J0D01*
G01*
X-8046Y6078D02*
G03*
X-8046Y6078I-20J0D01*
G01*
X-7366Y6888D02*
G03*
X-7366Y6888I-20J0D01*
G01*
X-6606Y7623D02*
G03*
X-6606Y7623I-20J0D01*
G01*
X-5950Y6868D02*
G03*
X-5950Y6868I-20J0D01*
G01*
X-5199Y7454D02*
G03*
X-5199Y7454I-20J0D01*
G01*
X-5773Y8273D02*
G03*
X-5773Y8273I-20J0D01*
G01*
X-4876Y8834D02*
G03*
X-4876Y8834I-20J0D01*
G01*
X-4391Y7959D02*
G03*
X-4391Y7959I-20J0D01*
G01*
X-3926Y9297D02*
G03*
X-3926Y9297I-20J0D01*
G01*
X-2933Y9659D02*
G03*
X-2933Y9659I-20J0D01*
G01*
X-1907Y9914D02*
G03*
X-1907Y9914I-20J0D01*
G01*
X-860Y10062D02*
G03*
X-860Y10062I-20J0D01*
G01*
X-3535Y8377D02*
G03*
X-3535Y8377I-20J0D01*
G01*
X-2640Y8702D02*
G03*
X-2640Y8702I-20J0D01*
G01*
X-1716Y8933D02*
G03*
X-1716Y8933I-20J0D01*
G01*
X-686Y8069D02*
G03*
X-686Y8069I-20J0D01*
G01*
X-1525Y7951D02*
G03*
X-1525Y7951I-20J0D01*
G01*
X-2348Y7746D02*
G03*
X-2348Y7746I-20J0D01*
G01*
X-3145Y7456D02*
G03*
X-3145Y7456I-20J0D01*
G01*
X-3907Y7084D02*
G03*
X-3907Y7084I-20J0D01*
G01*
X-4626Y6635D02*
G03*
X-4626Y6635I-20J0D01*
G01*
X-5294Y6113D02*
G03*
X-5294Y6113I-20J0D01*
G01*
X-5904Y5524D02*
G03*
X-5904Y5524I-20J0D01*
G01*
X-6449Y4875D02*
G03*
X-6449Y4875I-20J0D01*
G01*
X-6923Y4172D02*
G03*
X-6923Y4172I-20J0D01*
G01*
X-7321Y3423D02*
G03*
X-7321Y3423I-20J0D01*
G01*
X-7638Y2637D02*
G03*
X-7638Y2637I-20J0D01*
G01*
X-7872Y1822D02*
G03*
X-7872Y1822I-20J0D01*
G01*
X-8019Y987D02*
G03*
X-8019Y987I-20J0D01*
G01*
X-8078Y141D02*
G03*
X-8078Y141I-20J0D01*
G01*
X-8049Y-706D02*
G03*
X-8049Y-706I-20J0D01*
G01*
X-7931Y-1546D02*
G03*
X-7931Y-1546I-20J0D01*
G01*
X-7726Y-2368D02*
G03*
X-7726Y-2368I-20J0D01*
G01*
X-7436Y-3165D02*
G03*
X-7436Y-3165I-20J0D01*
G01*
X-7064Y-3927D02*
G03*
X-7064Y-3927I-20J0D01*
G01*
X-6615Y-4646D02*
G03*
X-6615Y-4646I-20J0D01*
G01*
X-6093Y-5314D02*
G03*
X-6093Y-5314I-20J0D01*
G01*
X-5504Y-5924D02*
G03*
X-5504Y-5924I-20J0D01*
G01*
X-4854Y-6469D02*
G03*
X-4854Y-6469I-20J0D01*
G01*
X-4151Y-6943D02*
G03*
X-4151Y-6943I-20J0D01*
G01*
X-3403Y-7341D02*
G03*
X-3403Y-7341I-20J0D01*
G01*
X-2617Y-7659D02*
G03*
X-2617Y-7659I-20J0D01*
G01*
X-1802Y-7892D02*
G03*
X-1802Y-7892I-20J0D01*
G01*
X-967Y-8040D02*
G03*
X-967Y-8040I-20J0D01*
G01*
X-121Y-8099D02*
G03*
X-121Y-8099I-20J0D01*
G01*
X-3925Y8861D02*
G03*
X-3925Y8861I-20J0D01*
G01*
X-3518Y7948D02*
G03*
X-3518Y7948I-20J0D01*
G01*
X-3112Y7034D02*
G03*
X-3112Y7034I-20J0D01*
G01*
X-7827Y5702D02*
G03*
X-7827Y5702I-20J0D01*
G01*
X-7018Y5114D02*
G03*
X-7018Y5114I-20J0D01*
G01*
X-6209Y4526D02*
G03*
X-6209Y4526I-20J0D01*
G01*
X-7637Y805D02*
G03*
X-7637Y805I-20J0D01*
G01*
X-8632Y909D02*
G03*
X-8632Y909I-20J0D01*
G01*
X-9627Y1014D02*
G03*
X-9627Y1014I-20J0D01*
G01*
X-9916Y-521D02*
G03*
X-9916Y-521I-20J0D01*
G01*
X-9417Y-495D02*
G03*
X-9417Y-495I-20J0D01*
G01*
X-8917Y-468D02*
G03*
X-8917Y-468I-20J0D01*
G01*
X-8418Y-442D02*
G03*
X-8418Y-442I-20J0D01*
G01*
X-7919Y-416D02*
G03*
X-7919Y-416I-20J0D01*
G01*
X-7419Y-390D02*
G03*
X-7419Y-390I-20J0D01*
G01*
X-7014Y-3132D02*
G03*
X-7014Y-3132I-20J0D01*
G01*
X-7928Y-3539D02*
G03*
X-7928Y-3539I-20J0D01*
G01*
X-8841Y-3945D02*
G03*
X-8841Y-3945I-20J0D01*
G01*
X-4506Y-6229D02*
G03*
X-4506Y-6229I-20J0D01*
G01*
X-5093Y-7038D02*
G03*
X-5093Y-7038I-20J0D01*
G01*
X-5681Y-7847D02*
G03*
X-5681Y-7847I-20J0D01*
G01*
X-994Y-9647D02*
G03*
X-994Y-9647I-20J0D01*
G01*
X-889Y-8652D02*
G03*
X-889Y-8652I-20J0D01*
G01*
X-785Y-7658D02*
G03*
X-785Y-7658I-20J0D01*
G01*
X410Y-7440D02*
G03*
X410Y-7440I-20J0D01*
G01*
X436Y-7939D02*
G03*
X436Y-7939I-20J0D01*
G01*
X463Y-8438D02*
G03*
X463Y-8438I-20J0D01*
G01*
X489Y-8938D02*
G03*
X489Y-8938I-20J0D01*
G01*
X515Y-9437D02*
G03*
X515Y-9437I-20J0D01*
G01*
X541Y-9936D02*
G03*
X541Y-9936I-20J0D01*
G01*
X9957Y521D02*
G03*
X9957Y521I-20J0D01*
G01*
X9457Y495D02*
G03*
X9457Y495I-20J0D01*
G01*
X8958Y468D02*
G03*
X8958Y468I-20J0D01*
G01*
X7959Y416D02*
G03*
X7959Y416I-20J0D01*
G01*
X7460Y390D02*
G03*
X7460Y390I-20J0D01*
G01*
X8459Y442D02*
G03*
X8459Y442I-20J0D01*
G01*
X8882Y3945D02*
G03*
X8882Y3945I-20J0D01*
G01*
X7968Y3539D02*
G03*
X7968Y3539I-20J0D01*
G01*
X7055Y3132D02*
G03*
X7055Y3132I-20J0D01*
G01*
X7678Y-805D02*
G03*
X7678Y-805I-20J0D01*
G01*
X8673Y-909D02*
G03*
X8673Y-909I-20J0D01*
G01*
X9667Y-1014D02*
G03*
X9667Y-1014I-20J0D01*
G01*
X6250Y-4526D02*
G03*
X6250Y-4526I-20J0D01*
G01*
X7059Y-5114D02*
G03*
X7059Y-5114I-20J0D01*
G01*
X7868Y-5702D02*
G03*
X7868Y-5702I-20J0D01*
G01*
X3152Y-7034D02*
G03*
X3152Y-7034I-20J0D01*
G01*
X3559Y-7948D02*
G03*
X3559Y-7948I-20J0D01*
G01*
X3966Y-8861D02*
G03*
X3966Y-8861I-20J0D01*
G01*
X1757Y-8933D02*
G03*
X1757Y-8933I-20J0D01*
G01*
X2681Y-8702D02*
G03*
X2681Y-8702I-20J0D01*
G01*
X3576Y-8377D02*
G03*
X3576Y-8377I-20J0D01*
G01*
X3967Y-9297D02*
G03*
X3967Y-9297I-20J0D01*
G01*
X2973Y-9659D02*
G03*
X2973Y-9659I-20J0D01*
G01*
X1947Y-9914D02*
G03*
X1947Y-9914I-20J0D01*
G01*
X901Y-10062D02*
G03*
X901Y-10062I-20J0D01*
G01*
X813Y-9065D02*
G03*
X813Y-9065I-20J0D01*
G01*
X726Y-8069D02*
G03*
X726Y-8069I-20J0D01*
G01*
X1566Y-7951D02*
G03*
X1566Y-7951I-20J0D01*
G01*
X2389Y-7746D02*
G03*
X2389Y-7746I-20J0D01*
G01*
X3185Y-7456D02*
G03*
X3185Y-7456I-20J0D01*
G01*
X3947Y-7084D02*
G03*
X3947Y-7084I-20J0D01*
G01*
X4432Y-7959D02*
G03*
X4432Y-7959I-20J0D01*
G01*
X4917Y-8834D02*
G03*
X4917Y-8834I-20J0D01*
G01*
X5813Y-8273D02*
G03*
X5813Y-8273I-20J0D01*
G01*
X5240Y-7454D02*
G03*
X5240Y-7454I-20J0D01*
G01*
X4666Y-6635D02*
G03*
X4666Y-6635I-20J0D01*
G01*
X5334Y-6113D02*
G03*
X5334Y-6113I-20J0D01*
G01*
X5990Y-6868D02*
G03*
X5990Y-6868I-20J0D01*
G01*
X6647Y-7623D02*
G03*
X6647Y-7623I-20J0D01*
G01*
X7407Y-6888D02*
G03*
X7407Y-6888I-20J0D01*
G01*
X6676Y-6206D02*
G03*
X6676Y-6206I-20J0D01*
G01*
X5944Y-5524D02*
G03*
X5944Y-5524I-20J0D01*
G01*
X6489Y-4875D02*
G03*
X6489Y-4875I-20J0D01*
G01*
X7288Y-5477D02*
G03*
X7288Y-5477I-20J0D01*
G01*
X8087Y-6078D02*
G03*
X8087Y-6078I-20J0D01*
G01*
X8678Y-5202D02*
G03*
X8678Y-5202I-20J0D01*
G01*
X7821Y-4687D02*
G03*
X7821Y-4687I-20J0D01*
G01*
X6963Y-4172D02*
G03*
X6963Y-4172I-20J0D01*
G01*
X7361Y-3423D02*
G03*
X7361Y-3423I-20J0D01*
G01*
X8268Y-3846D02*
G03*
X8268Y-3846I-20J0D01*
G01*
X9174Y-4268D02*
G03*
X9174Y-4268I-20J0D01*
G01*
X9570Y-3288D02*
G03*
X9570Y-3288I-20J0D01*
G01*
X8625Y-2963D02*
G03*
X8625Y-2963I-20J0D01*
G01*
X7679Y-2637D02*
G03*
X7679Y-2637I-20J0D01*
G01*
X7913Y-1822D02*
G03*
X7913Y-1822I-20J0D01*
G01*
X8887Y-2047D02*
G03*
X8887Y-2047I-20J0D01*
G01*
X9861Y-2272D02*
G03*
X9861Y-2272I-20J0D01*
G01*
X10045Y-1231D02*
G03*
X10045Y-1231I-20J0D01*
G01*
X9052Y-1109D02*
G03*
X9052Y-1109I-20J0D01*
G01*
X8060Y-987D02*
G03*
X8060Y-987I-20J0D01*
G01*
X8119Y-141D02*
G03*
X8119Y-141I-20J0D01*
G01*
X9119Y-159D02*
G03*
X9119Y-159I-20J0D01*
G01*
X10119Y-176D02*
G03*
X10119Y-176I-20J0D01*
G01*
X10082Y880D02*
G03*
X10082Y880I-20J0D01*
G01*
X9086Y793D02*
G03*
X9086Y793I-20J0D01*
G01*
X8089Y706D02*
G03*
X8089Y706I-20J0D01*
G01*
X7971Y1546D02*
G03*
X7971Y1546I-20J0D01*
G01*
X8953Y1736D02*
G03*
X8953Y1736I-20J0D01*
G01*
X9935Y1927D02*
G03*
X9935Y1927I-20J0D01*
G01*
X9679Y2953D02*
G03*
X9679Y2953I-20J0D01*
G01*
X8723Y2661D02*
G03*
X8723Y2661I-20J0D01*
G01*
X7766Y2368D02*
G03*
X7766Y2368I-20J0D01*
G01*
X9317Y3946D02*
G03*
X9317Y3946I-20J0D01*
G01*
X8397Y3556D02*
G03*
X8397Y3556I-20J0D01*
G01*
X7979Y4412D02*
G03*
X7979Y4412I-20J0D01*
G01*
X8854Y4897D02*
G03*
X8854Y4897I-20J0D01*
G01*
X7475Y5220D02*
G03*
X7475Y5220I-20J0D01*
G01*
X8294Y5793D02*
G03*
X8294Y5793I-20J0D01*
G01*
X7643Y6626D02*
G03*
X7643Y6626I-20J0D01*
G01*
X7476Y3165D02*
G03*
X7476Y3165I-20J0D01*
G01*
X7105Y3927D02*
G03*
X7105Y3927I-20J0D01*
G01*
X6655Y4646D02*
G03*
X6655Y4646I-20J0D01*
G01*
X6133Y5314D02*
G03*
X6133Y5314I-20J0D01*
G01*
X5545Y5924D02*
G03*
X5545Y5924I-20J0D01*
G01*
X6888Y5970D02*
G03*
X6888Y5970I-20J0D01*
G01*
X6227Y6655D02*
G03*
X6227Y6655I-20J0D01*
G01*
X6908Y7387D02*
G03*
X6908Y7387I-20J0D01*
G01*
X6099Y8066D02*
G03*
X6099Y8066I-20J0D01*
G01*
X5497Y7268D02*
G03*
X5497Y7268I-20J0D01*
G01*
X4895Y6469D02*
G03*
X4895Y6469I-20J0D01*
G01*
X5722Y7847D02*
G03*
X5722Y7847I-20J0D01*
G01*
X5134Y7038D02*
G03*
X5134Y7038I-20J0D01*
G01*
X4546Y6229D02*
G03*
X4546Y6229I-20J0D01*
G01*
X197Y10098D02*
G03*
X197Y10098I-20J0D01*
G01*
X179Y9099D02*
G03*
X179Y9099I-20J0D01*
G01*
X1251Y10025D02*
G03*
X1251Y10025I-20J0D01*
G01*
X2292Y9841D02*
G03*
X2292Y9841I-20J0D01*
G01*
X3309Y9550D02*
G03*
X3309Y9550I-20J0D01*
G01*
X4289Y9154D02*
G03*
X4289Y9154I-20J0D01*
G01*
X5222Y8657D02*
G03*
X5222Y8657I-20J0D01*
G01*
X4707Y7800D02*
G03*
X4707Y7800I-20J0D01*
G01*
X3866Y8247D02*
G03*
X3866Y8247I-20J0D01*
G01*
X2983Y8604D02*
G03*
X2983Y8604I-20J0D01*
G01*
X2067Y8867D02*
G03*
X2067Y8867I-20J0D01*
G01*
X1129Y9032D02*
G03*
X1129Y9032I-20J0D01*
G01*
X4192Y6943D02*
G03*
X4192Y6943I-20J0D01*
G01*
X3444Y7341D02*
G03*
X3444Y7341I-20J0D01*
G01*
X2657Y7659D02*
G03*
X2657Y7659I-20J0D01*
G01*
X1842Y7892D02*
G03*
X1842Y7892I-20J0D01*
G01*
X1007Y8040D02*
G03*
X1007Y8040I-20J0D01*
G01*
X162Y8099D02*
G03*
X162Y8099I-20J0D01*
G01*
X-642Y9477D02*
G03*
X-642Y9477I-20J0D01*
G01*
X-427Y8538D02*
G03*
X-427Y8538I-20J0D01*
G01*
X-479Y9537D02*
G03*
X-479Y9537I-20J0D01*
G01*
X-443Y8838D02*
G03*
X-443Y8838I-20J0D01*
G01*
X-391Y7839D02*
G03*
X-391Y7839I-20J0D01*
G01*
X-773Y9065D02*
G03*
X-773Y9065I-20J0D01*
G01*
X20Y7700D02*
G03*
X20Y7700I-20J0D01*
G01*
X1034Y9647D02*
G03*
X1034Y9647I-20J0D01*
G01*
X915Y8667D02*
G03*
X915Y8667I-20J0D01*
G01*
X812Y7671D02*
G03*
X812Y7671I-20J0D01*
G01*
X1714Y6792D02*
G03*
X1714Y6792I-20J0D01*
G01*
M02*
