G04 Layer_Color=32896*
%FSLAX42Y42*%
%MOMM*%
G71*
G01*
G75*
%ADD158C,0.20*%
%ADD159C,0.10*%
D158*
X-9695Y-448D02*
X-9685Y-447D01*
X-9689Y-568D02*
X-9679Y-567D01*
X448Y-9684D02*
X448Y-9694D01*
X567Y-9680D02*
X568Y-9690D01*
X9685Y447D02*
X9695Y448D01*
X9679Y567D02*
X9689Y568D01*
X-542Y9189D02*
X-541Y9179D01*
X-422Y9196D02*
X-421Y9186D01*
X-8696Y-396D02*
X-8686Y-395D01*
X-8690Y-515D02*
X-8680Y-515D01*
X395Y-8685D02*
X396Y-8695D01*
X515Y-8681D02*
X515Y-8691D01*
X8686Y395D02*
X8696Y396D01*
X8681Y515D02*
X8690Y515D01*
X-489Y8191D02*
X-489Y8181D01*
X-369Y8197D02*
X-369Y8187D01*
X-7698Y-343D02*
X-7688Y-343D01*
X-7691Y-463D02*
X-7681Y-463D01*
X343Y-7687D02*
X343Y-7697D01*
X463Y-7682D02*
X463Y-7692D01*
X7687Y343D02*
X7697Y343D01*
X7682Y463D02*
X7692Y463D01*
X340Y7686D02*
X341Y7696D01*
X465Y7683D02*
X466Y7693D01*
X393Y8685D02*
X393Y8695D01*
X518Y8681D02*
X518Y8691D01*
X445Y9684D02*
X445Y9694D01*
X570Y9679D02*
X570Y9689D01*
X4138Y6486D02*
X4143Y6495D01*
X4244Y6421D02*
X4249Y6429D01*
X4683Y7326D02*
X4688Y7334D01*
X4788Y7259D02*
X4794Y7267D01*
X5228Y8165D02*
X5233Y8174D01*
X5333Y8097D02*
X5338Y8105D01*
X6828Y3549D02*
X6837Y3554D01*
X6885Y3438D02*
X6894Y3442D01*
X7718Y4003D02*
X7727Y4007D01*
X7776Y3892D02*
X7785Y3897D01*
X8610Y4457D02*
X8619Y4462D01*
X8667Y4346D02*
X8676Y4350D01*
X7688Y-340D02*
X7698Y-341D01*
X7681Y-465D02*
X7691Y-466D01*
X8687Y-393D02*
X8697Y-393D01*
X8680Y-517D02*
X8690Y-518D01*
X9684Y-445D02*
X9694Y-445D01*
X9679Y-570D02*
X9689Y-570D01*
X6488Y-4139D02*
X6496Y-4144D01*
X6419Y-4243D02*
X6427Y-4249D01*
X7326Y-4683D02*
X7335Y-4689D01*
X7258Y-4788D02*
X7267Y-4793D01*
X8165Y-5228D02*
X8174Y-5233D01*
X8097Y-5333D02*
X8105Y-5338D01*
X3549Y-6828D02*
X3554Y-6837D01*
X3438Y-6885D02*
X3442Y-6894D01*
X4003Y-7719D02*
X4008Y-7728D01*
X3892Y-7776D02*
X3896Y-7785D01*
X4457Y-8610D02*
X4462Y-8619D01*
X4346Y-8666D02*
X4350Y-8675D01*
X-341Y-7697D02*
X-340Y-7687D01*
X-466Y-7691D02*
X-465Y-7681D01*
X-393Y-8696D02*
X-393Y-8686D01*
X-518Y-8690D02*
X-517Y-8680D01*
X-445Y-9695D02*
X-445Y-9685D01*
X-570Y-9689D02*
X-570Y-9679D01*
X-4144Y-6496D02*
X-4139Y-6488D01*
X-4249Y-6427D02*
X-4243Y-6419D01*
X-4689Y-7335D02*
X-4683Y-7326D01*
X-4793Y-7267D02*
X-4788Y-7258D01*
X-5233Y-8173D02*
X-5228Y-8165D01*
X-5338Y-8105D02*
X-5333Y-8097D01*
X-6837Y-3554D02*
X-6828Y-3549D01*
X-6894Y-3442D02*
X-6885Y-3438D01*
X-7728Y-4008D02*
X-7719Y-4003D01*
X-7785Y-3896D02*
X-7776Y-3892D01*
X-8618Y-4461D02*
X-8609Y-4457D01*
X-8676Y-4351D02*
X-8667Y-4346D01*
X-7698Y341D02*
X-7688Y340D01*
X-7691Y466D02*
X-7681Y465D01*
X-8696Y393D02*
X-8686Y393D01*
X-8691Y518D02*
X-8681Y518D01*
X-9693Y488D02*
X-9683Y487D01*
X-9686Y613D02*
X-9676Y612D01*
X-6496Y4144D02*
X-6488Y4139D01*
X-6428Y4249D02*
X-6420Y4243D01*
X-7314Y4721D02*
X-7306Y4715D01*
X-7245Y4825D02*
X-7237Y4820D01*
X-8173Y5233D02*
X-8165Y5228D01*
X-8105Y5338D02*
X-8097Y5333D01*
X-3554Y6837D02*
X-3549Y6828D01*
X-3442Y6893D02*
X-3438Y6884D01*
X-4006Y7725D02*
X-4001Y7716D01*
X-3898Y7787D02*
X-3893Y7779D01*
X-4462Y8619D02*
X-4457Y8610D01*
X-4350Y8676D02*
X-4346Y8667D01*
X-763Y7260D02*
X-753Y7161D01*
X-802Y7155D01*
X-821Y7170D01*
X-828Y7236D01*
X-813Y7255D01*
X-763Y7260D01*
X-912Y7244D02*
X-879Y7248D01*
X-861Y7233D01*
X-854Y7167D01*
X-869Y7148D01*
X-902Y7145D01*
X-920Y7160D01*
X-927Y7226D01*
X-912Y7244D01*
X-962Y7239D02*
X-953Y7156D01*
X-968Y7138D01*
X-1001Y7134D01*
X-1019Y7149D01*
X-1028Y7232D01*
X-1061Y7229D02*
X-1128Y7222D01*
X-1094Y7225D01*
X-1084Y7126D01*
X-251Y7296D02*
Y7196D01*
X-301D01*
X-318Y7212D01*
Y7279D01*
X-301Y7296D01*
X-251D01*
X-351D02*
X-385D01*
X-368D01*
Y7196D01*
X-351D01*
X-385D01*
X-435D02*
Y7296D01*
X-501Y7196D01*
Y7296D01*
X692Y7248D02*
X710Y7264D01*
X743Y7261D01*
X758Y7244D01*
X754Y7177D01*
X736Y7162D01*
X703Y7164D01*
X687Y7182D01*
X690Y7215D01*
X723Y7213D01*
X653Y7168D02*
X660Y7267D01*
X586Y7172D01*
X593Y7272D01*
X560Y7274D02*
X553Y7175D01*
X503Y7178D01*
X488Y7196D01*
X492Y7262D01*
X510Y7278D01*
X560Y7274D01*
X1571Y7125D02*
X1637Y7114D01*
X1628Y7065D01*
X1598Y7087D01*
X1582Y7090D01*
X1563Y7076D01*
X1557Y7043D01*
X1570Y7024D01*
X1603Y7018D01*
X1623Y7032D01*
X1539Y7131D02*
X1527Y7066D01*
X1488Y7039D01*
X1461Y7077D01*
X1473Y7143D01*
X1420Y7034D02*
X1354Y7045D01*
X1324Y7068D02*
X1291Y7073D01*
X1308Y7070D01*
X1325Y7169D01*
X1339Y7150D01*
X1257Y7164D02*
X1243Y7183D01*
X1210Y7189D01*
X1191Y7176D01*
X1180Y7110D01*
X1193Y7091D01*
X1226Y7085D01*
X1245Y7098D01*
X1257Y7164D01*
X1144Y7099D02*
X1155Y7165D01*
X1128Y7204D01*
X1090Y7177D01*
X1078Y7111D01*
X1087Y7160D01*
X1152Y7149D01*
X853Y-6948D02*
Y-6848D01*
X786Y-6948D01*
Y-6848D01*
X753Y-6948D02*
Y-6848D01*
X703D01*
X686Y-6865D01*
Y-6898D01*
X703Y-6914D01*
X753D01*
X587Y-6865D02*
X603Y-6848D01*
X636D01*
X653Y-6865D01*
Y-6881D01*
X636Y-6898D01*
X603D01*
X587Y-6914D01*
Y-6931D01*
X603Y-6948D01*
X636D01*
X653Y-6931D01*
X487Y-6865D02*
X503Y-6848D01*
X537D01*
X553Y-6865D01*
Y-6931D01*
X537Y-6948D01*
X503D01*
X487Y-6931D01*
X453Y-6964D02*
X387D01*
X353Y-6881D02*
Y-6948D01*
Y-6914D01*
X337Y-6898D01*
X320Y-6881D01*
X303D01*
X253Y-6948D02*
X220D01*
X237D01*
Y-6881D01*
X253D01*
X170Y-6948D02*
Y-6881D01*
X120D01*
X103Y-6898D01*
Y-6948D01*
X37Y-6981D02*
X20D01*
X3Y-6964D01*
Y-6881D01*
X53D01*
X70Y-6898D01*
Y-6931D01*
X53Y-6948D01*
X3D01*
X-30D02*
X-80D01*
X-97Y-6931D01*
X-80Y-6914D01*
X-47D01*
X-30Y-6898D01*
X-47Y-6881D01*
X-97D01*
X-230D02*
X-263Y-6948D01*
X-297Y-6881D01*
X-330Y-6948D02*
X-363D01*
X-347D01*
Y-6848D01*
X-330Y-6865D01*
X-413Y-6948D02*
Y-6931D01*
X-430D01*
Y-6948D01*
X-413D01*
X-496Y-6865D02*
X-513Y-6848D01*
X-546D01*
X-563Y-6865D01*
Y-6931D01*
X-546Y-6948D01*
X-513D01*
X-496Y-6931D01*
Y-6865D01*
X1092Y-7110D02*
X1125D01*
X1142Y-7127D01*
Y-7193D01*
X1125Y-7210D01*
X1092D01*
X1075Y-7193D01*
Y-7127D01*
X1092Y-7110D01*
X1025Y-7127D02*
Y-7143D01*
X1042D01*
X1009D01*
X1025D01*
Y-7193D01*
X1009Y-7210D01*
X959Y-7110D02*
Y-7210D01*
Y-7160D01*
X942Y-7143D01*
X909D01*
X892Y-7160D01*
Y-7210D01*
X859D02*
Y-7143D01*
X809D01*
X792Y-7160D01*
Y-7210D01*
X759D02*
X725D01*
X742D01*
Y-7143D01*
X759D01*
X625Y-7210D02*
X659D01*
X675Y-7193D01*
Y-7160D01*
X659Y-7143D01*
X625D01*
X609Y-7160D01*
Y-7177D01*
X675D01*
X575Y-7210D02*
X542D01*
X559D01*
Y-7110D01*
X575D01*
X392D02*
Y-7210D01*
Y-7177D01*
X326Y-7110D01*
X376Y-7160D01*
X326Y-7210D01*
X276D02*
X242D01*
X226Y-7193D01*
Y-7160D01*
X242Y-7143D01*
X276D01*
X292Y-7160D01*
Y-7193D01*
X276Y-7210D01*
X192D02*
Y-7143D01*
X142D01*
X126Y-7160D01*
Y-7210D01*
X76Y-7143D02*
X42D01*
X26Y-7160D01*
Y-7210D01*
X76D01*
X92Y-7193D01*
X76Y-7177D01*
X26D01*
X-8Y-7210D02*
Y-7143D01*
X-58D01*
X-74Y-7160D01*
Y-7210D01*
X-274Y-7110D02*
X-208D01*
Y-7210D01*
X-274D01*
X-208Y-7160D02*
X-241D01*
X-374Y-7127D02*
X-358Y-7110D01*
X-324D01*
X-308Y-7127D01*
Y-7193D01*
X-324Y-7210D01*
X-358D01*
X-374Y-7193D01*
X-474Y-7110D02*
X-408D01*
Y-7210D01*
X-474D01*
X-408Y-7160D02*
X-441D01*
X-674Y-7210D02*
X-607D01*
X-674Y-7143D01*
Y-7127D01*
X-657Y-7110D01*
X-624D01*
X-607Y-7127D01*
X-707D02*
X-724Y-7110D01*
X-757D01*
X-774Y-7127D01*
Y-7193D01*
X-757Y-7210D01*
X-724D01*
X-707Y-7193D01*
Y-7127D01*
X-807Y-7210D02*
X-841D01*
X-824D01*
Y-7110D01*
X-807Y-7127D01*
X-891Y-7110D02*
X-957D01*
Y-7127D01*
X-891Y-7193D01*
Y-7210D01*
D159*
X-9676Y-677D02*
X-9751Y-681D01*
X-9749Y-719D01*
X-9736Y-731D01*
X-9711Y-729D01*
X-9699Y-716D01*
X-9701Y-678D01*
X-9700Y-703D02*
X-9673Y-727D01*
X-9672Y-751D02*
X-9670Y-776D01*
X-9671Y-764D01*
X-9746Y-769D01*
X-9734Y-755D01*
X-9668Y-814D02*
X-9666Y-839D01*
X-9667Y-826D01*
X-9742Y-831D01*
X-9730Y-818D01*
X673Y-9626D02*
X679Y-9701D01*
X716Y-9698D01*
X728Y-9685D01*
X726Y-9660D01*
X712Y-9648D01*
X675Y-9651D01*
X700Y-9649D02*
X723Y-9623D01*
X748Y-9621D02*
X773Y-9619D01*
X760Y-9620D01*
X766Y-9694D01*
X753Y-9683D01*
X815Y-9678D02*
X829Y-9689D01*
X853Y-9688D01*
X865Y-9674D01*
X861Y-9624D01*
X848Y-9613D01*
X823Y-9615D01*
X811Y-9628D01*
X815Y-9678D01*
X9626Y673D02*
X9701Y676D01*
X9700Y713D01*
X9687Y725D01*
X9662Y724D01*
X9650Y711D01*
X9651Y674D01*
X9651Y699D02*
X9625Y723D01*
X9636Y749D02*
X9623Y761D01*
X9623Y786D01*
X9635Y798D01*
X9685Y800D01*
X9697Y788D01*
X9698Y763D01*
X9686Y750D01*
X9674Y750D01*
X9661Y762D01*
X9660Y799D01*
X-642Y9178D02*
X-647Y9252D01*
X-684Y9250D01*
X-696Y9237D01*
X-694Y9212D01*
X-681Y9200D01*
X-643Y9203D01*
X-668Y9201D02*
X-692Y9174D01*
X-721Y9235D02*
X-734Y9247D01*
X-759Y9245D01*
X-770Y9232D01*
X-770Y9219D01*
X-756Y9208D01*
X-768Y9195D01*
X-767Y9182D01*
X-754Y9170D01*
X-729Y9172D01*
X-717Y9185D01*
X-718Y9198D01*
X-731Y9209D01*
X-720Y9223D01*
X-721Y9235D01*
X-731Y9209D02*
X-756Y9208D01*
X-8679Y-607D02*
X-8753Y-613D01*
X-8750Y-651D01*
X-8737Y-662D01*
X-8712Y-660D01*
X-8700Y-646D01*
X-8704Y-609D01*
X-8702Y-634D02*
X-8674Y-657D01*
X-8747Y-688D02*
X-8743Y-738D01*
X-8730Y-737D01*
X-8685Y-683D01*
X-8672Y-682D01*
X603Y-8629D02*
X609Y-8704D01*
X647Y-8701D01*
X658Y-8687D01*
X656Y-8662D01*
X643Y-8651D01*
X605Y-8654D01*
X630Y-8652D02*
X653Y-8625D01*
X734Y-8694D02*
X708Y-8683D01*
X681Y-8660D01*
X679Y-8636D01*
X691Y-8622D01*
X716Y-8620D01*
X729Y-8632D01*
X730Y-8644D01*
X718Y-8657D01*
X681Y-8660D01*
X8629Y603D02*
X8704Y607D01*
X8702Y645D01*
X8689Y657D01*
X8664Y655D01*
X8652Y642D01*
X8654Y605D01*
X8653Y630D02*
X8626Y653D01*
X8697Y732D02*
X8700Y682D01*
X8662Y680D01*
X8674Y706D01*
X8673Y718D01*
X8660Y730D01*
X8635Y729D01*
X8623Y716D01*
X8624Y691D01*
X8638Y679D01*
X-572Y8180D02*
X-575Y8255D01*
X-612Y8254D01*
X-624Y8241D01*
X-623Y8216D01*
X-610Y8204D01*
X-573Y8205D01*
X-598Y8204D02*
X-622Y8178D01*
X-684Y8176D02*
X-687Y8251D01*
X-648Y8215D01*
X-698Y8213D01*
X-7631Y-534D02*
X-7706Y-540D01*
X-7703Y-577D01*
X-7690Y-589D01*
X-7665Y-587D01*
X-7653Y-573D01*
X-7656Y-536D01*
X-7654Y-561D02*
X-7627Y-583D01*
X-7688Y-613D02*
X-7699Y-627D01*
X-7697Y-652D01*
X-7683Y-663D01*
X-7671Y-662D01*
X-7660Y-649D01*
X-7661Y-636D01*
X-7660Y-649D01*
X-7646Y-660D01*
X-7634Y-659D01*
X-7622Y-646D01*
X-7624Y-621D01*
X-7638Y-609D01*
X534Y-7631D02*
X538Y-7706D01*
X576Y-7704D01*
X587Y-7691D01*
X586Y-7666D01*
X573Y-7654D01*
X535Y-7656D01*
X560Y-7655D02*
X584Y-7628D01*
X658Y-7624D02*
X608Y-7627D01*
X661Y-7674D01*
X662Y-7686D01*
X650Y-7699D01*
X626Y-7701D01*
X612Y-7689D01*
X7631Y534D02*
X7706Y538D01*
X7704Y576D01*
X7690Y588D01*
X7666Y586D01*
X7654Y573D01*
X7656Y535D01*
X7655Y560D02*
X7628Y584D01*
X7627Y608D02*
X7625Y633D01*
X7626Y621D01*
X7701Y626D01*
X7689Y612D01*
X217Y7708D02*
X229Y7720D01*
X254D01*
X267Y7708D01*
Y7658D01*
X254Y7645D01*
X229D01*
X217Y7658D01*
X192Y7645D02*
X167D01*
X180D01*
Y7720D01*
X192Y7708D01*
X255Y8710D02*
X268Y8722D01*
X293Y8720D01*
X305Y8707D01*
X303Y8657D01*
X289Y8645D01*
X264Y8647D01*
X253Y8660D01*
X177Y8651D02*
X227Y8649D01*
X180Y8701D01*
X180Y8714D01*
X193Y8725D01*
X218Y8724D01*
X230Y8711D01*
X291Y9710D02*
X304Y9721D01*
X329Y9720D01*
X341Y9706D01*
X338Y9657D01*
X324Y9645D01*
X299Y9646D01*
X288Y9660D01*
X266Y9711D02*
X254Y9724D01*
X229Y9726D01*
X216Y9714D01*
X215Y9702D01*
X227Y9688D01*
X239Y9688D01*
X227Y9688D01*
X214Y9677D01*
X213Y9664D01*
X225Y9651D01*
X249Y9649D01*
X263Y9661D01*
X4043Y6567D02*
X4060Y6571D01*
X4082Y6558D01*
X4086Y6541D01*
X4060Y6498D01*
X4043Y6494D01*
X4022Y6507D01*
X4017Y6524D01*
X3957Y6545D02*
X3996Y6610D01*
X4009Y6558D01*
X3966Y6584D01*
X4575Y7415D02*
X4592Y7419D01*
X4613Y7406D01*
X4617Y7389D01*
X4590Y7346D01*
X4573Y7342D01*
X4552Y7355D01*
X4548Y7373D01*
X4518Y7465D02*
X4560Y7439D01*
X4540Y7407D01*
X4526Y7431D01*
X4515Y7438D01*
X4498Y7434D01*
X4484Y7412D01*
X4488Y7395D01*
X4510Y7382D01*
X4527Y7386D01*
X5102Y8263D02*
X5119Y8267D01*
X5140Y8255D01*
X5145Y8238D01*
X5120Y8194D01*
X5103Y8190D01*
X5081Y8202D01*
X5077Y8219D01*
X5043Y8311D02*
X5058Y8288D01*
X5068Y8254D01*
X5055Y8232D01*
X5038Y8227D01*
X5016Y8240D01*
X5012Y8257D01*
X5018Y8268D01*
X5035Y8272D01*
X5068Y8254D01*
X6785Y3665D02*
X6802Y3661D01*
X6814Y3639D01*
X6809Y3622D01*
X6765Y3598D01*
X6748Y3602D01*
X6736Y3624D01*
X6741Y3641D01*
X6784Y3693D02*
X6760Y3737D01*
X6749Y3731D01*
X6729Y3663D01*
X6718Y3657D01*
X7665Y4136D02*
X7682Y4132D01*
X7695Y4110D01*
X7691Y4093D01*
X7648Y4067D01*
X7631Y4072D01*
X7618Y4093D01*
X7622Y4110D01*
X7652Y4157D02*
X7657Y4175D01*
X7644Y4196D01*
X7627Y4200D01*
X7616Y4194D01*
X7612Y4177D01*
X7595Y4181D01*
X7584Y4174D01*
X7580Y4157D01*
X7592Y4136D01*
X7610Y4132D01*
X7620Y4138D01*
X7625Y4155D01*
X7642Y4151D01*
X7652Y4157D01*
X7625Y4155D02*
X7612Y4177D01*
X8550Y4605D02*
X8567Y4600D01*
X8580Y4578D01*
X8575Y4561D01*
X8531Y4537D01*
X8514Y4541D01*
X8502Y4563D01*
X8507Y4580D01*
X8494Y4602D02*
X8477Y4607D01*
X8465Y4628D01*
X8470Y4645D01*
X8513Y4670D01*
X8530Y4665D01*
X8543Y4643D01*
X8538Y4626D01*
X8527Y4620D01*
X8510Y4625D01*
X8492Y4658D01*
X7708Y-217D02*
X7720Y-229D01*
Y-254D01*
X7708Y-267D01*
X7658D01*
X7645Y-254D01*
Y-229D01*
X7658Y-217D01*
X7645Y-192D02*
Y-167D01*
Y-180D01*
X7720D01*
X7708Y-192D01*
Y-130D02*
X7720Y-117D01*
Y-92D01*
X7708Y-80D01*
X7658D01*
X7645Y-92D01*
Y-117D01*
X7658Y-130D01*
X7708D01*
X8758Y-254D02*
X8770Y-267D01*
X8770Y-292D01*
X8757Y-304D01*
X8707Y-304D01*
X8695Y-291D01*
X8695Y-266D01*
X8708Y-254D01*
X8695Y-229D02*
X8696Y-204D01*
X8695Y-216D01*
X8770Y-217D01*
X8758Y-229D01*
X8696Y-166D02*
X8696Y-141D01*
X8696Y-154D01*
X8771Y-154D01*
X8758Y-167D01*
X9707Y-287D02*
X9719Y-300D01*
X9719Y-325D01*
X9707Y-337D01*
X9657Y-337D01*
X9644Y-324D01*
X9644Y-299D01*
X9657Y-287D01*
X9645Y-262D02*
X9645Y-237D01*
X9645Y-249D01*
X9720Y-250D01*
X9707Y-262D01*
X9646Y-149D02*
X9645Y-199D01*
X9696Y-150D01*
X9708Y-150D01*
X9721Y-162D01*
X9720Y-187D01*
X9708Y-200D01*
X6609Y-4069D02*
X6614Y-4086D01*
X6601Y-4108D01*
X6584Y-4112D01*
X6541Y-4087D01*
X6536Y-4070D01*
X6549Y-4048D01*
X6566Y-4044D01*
X6568Y-4016D02*
X6581Y-3994D01*
X6574Y-4005D01*
X6639Y-4043D01*
X6622Y-4047D01*
X6654Y-3994D02*
X6671Y-3989D01*
X6683Y-3968D01*
X6679Y-3951D01*
X6668Y-3944D01*
X6651Y-3949D01*
X6645Y-3959D01*
X6651Y-3949D01*
X6647Y-3932D01*
X6636Y-3925D01*
X6619Y-3930D01*
X6606Y-3951D01*
X6611Y-3968D01*
X7415Y-4572D02*
X7419Y-4590D01*
X7407Y-4611D01*
X7389Y-4616D01*
X7346Y-4590D01*
X7342Y-4573D01*
X7355Y-4551D01*
X7372Y-4547D01*
X7374Y-4519D02*
X7386Y-4498D01*
X7380Y-4508D01*
X7445Y-4546D01*
X7428Y-4551D01*
X7424Y-4433D02*
X7489Y-4471D01*
X7438Y-4484D01*
X7463Y-4441D01*
X8263Y-5104D02*
X8267Y-5121D01*
X8254Y-5142D01*
X8237Y-5146D01*
X8194Y-5120D01*
X8190Y-5103D01*
X8203Y-5082D01*
X8220Y-5078D01*
X8223Y-5050D02*
X8236Y-5028D01*
X8229Y-5039D01*
X8293Y-5078D01*
X8276Y-5082D01*
X8346Y-4993D02*
X8319Y-5036D01*
X8287Y-5016D01*
X8311Y-5001D01*
X8318Y-4991D01*
X8314Y-4973D01*
X8292Y-4960D01*
X8275Y-4965D01*
X8262Y-4986D01*
X8266Y-5003D01*
X3666Y-6783D02*
X3662Y-6800D01*
X3640Y-6813D01*
X3623Y-6808D01*
X3598Y-6765D01*
X3602Y-6748D01*
X3624Y-6736D01*
X3641Y-6740D01*
X3656Y-6716D02*
X3678Y-6704D01*
X3667Y-6710D01*
X3705Y-6775D01*
X3688Y-6770D01*
X3791Y-6724D02*
X3763Y-6726D01*
X3729Y-6717D01*
X3716Y-6696D01*
X3721Y-6678D01*
X3742Y-6666D01*
X3759Y-6670D01*
X3766Y-6681D01*
X3761Y-6698D01*
X3729Y-6717D01*
X4137Y-7663D02*
X4133Y-7681D01*
X4112Y-7694D01*
X4094Y-7690D01*
X4068Y-7648D01*
X4071Y-7631D01*
X4093Y-7617D01*
X4110Y-7621D01*
X4124Y-7597D02*
X4145Y-7584D01*
X4135Y-7590D01*
X4175Y-7654D01*
X4158Y-7650D01*
X4217Y-7627D02*
X4259Y-7600D01*
X4253Y-7589D01*
X4184Y-7574D01*
X4177Y-7564D01*
X4605Y-8549D02*
X4601Y-8566D01*
X4579Y-8579D01*
X4562Y-8574D01*
X4537Y-8531D01*
X4541Y-8514D01*
X4563Y-8501D01*
X4580Y-8506D01*
X4595Y-8482D02*
X4617Y-8470D01*
X4606Y-8476D01*
X4644Y-8541D01*
X4627Y-8536D01*
X4681Y-8505D02*
X4698Y-8509D01*
X4719Y-8496D01*
X4724Y-8479D01*
X4717Y-8468D01*
X4700Y-8464D01*
X4705Y-8447D01*
X4698Y-8436D01*
X4681Y-8432D01*
X4660Y-8444D01*
X4655Y-8461D01*
X4662Y-8472D01*
X4679Y-8477D01*
X4674Y-8494D01*
X4681Y-8505D01*
X4679Y-8477D02*
X4700Y-8464D01*
X-215Y-7706D02*
X-228Y-7719D01*
X-253Y-7720D01*
X-265Y-7708D01*
X-267Y-7658D01*
X-254Y-7645D01*
X-230Y-7644D01*
X-217Y-7657D01*
X-192Y-7643D02*
X-167Y-7643D01*
X-180Y-7643D01*
X-178Y-7718D01*
X-190Y-7706D01*
X-129Y-7654D02*
X-117Y-7641D01*
X-92Y-7641D01*
X-79Y-7653D01*
X-78Y-7703D01*
X-90Y-7716D01*
X-115Y-7716D01*
X-128Y-7704D01*
X-128Y-7692D01*
X-116Y-7679D01*
X-79Y-7678D01*
X-251Y-8707D02*
X-264Y-8719D01*
X-289Y-8720D01*
X-301Y-8707D01*
X-302Y-8657D01*
X-289Y-8645D01*
X-264Y-8644D01*
X-252Y-8657D01*
X-177Y-8644D02*
X-227Y-8644D01*
X-176Y-8694D01*
X-176Y-8706D01*
X-189Y-8719D01*
X-214Y-8719D01*
X-226Y-8707D01*
X-151Y-8706D02*
X-139Y-8718D01*
X-114Y-8718D01*
X-101Y-8705D01*
X-102Y-8655D01*
X-114Y-8643D01*
X-139Y-8643D01*
X-152Y-8656D01*
X-151Y-8706D01*
X-287Y-9707D02*
X-300Y-9719D01*
X-325Y-9719D01*
X-337Y-9707D01*
X-337Y-9657D01*
X-324Y-9644D01*
X-299Y-9644D01*
X-287Y-9657D01*
X-212Y-9645D02*
X-262Y-9645D01*
X-212Y-9695D01*
X-212Y-9708D01*
X-225Y-9720D01*
X-250Y-9720D01*
X-262Y-9707D01*
X-187Y-9645D02*
X-162Y-9646D01*
X-174Y-9646D01*
X-175Y-9721D01*
X-187Y-9708D01*
X-4043Y-6567D02*
X-4060Y-6571D01*
X-4081Y-6559D01*
X-4086Y-6541D01*
X-4060Y-6498D01*
X-4043Y-6494D01*
X-4022Y-6507D01*
X-4017Y-6524D01*
X-3946Y-6551D02*
X-3989Y-6526D01*
X-3972Y-6594D01*
X-3978Y-6605D01*
X-3995Y-6609D01*
X-4017Y-6597D01*
X-4021Y-6579D01*
X-3882Y-6589D02*
X-3925Y-6564D01*
X-3907Y-6632D01*
X-3913Y-6643D01*
X-3930Y-6647D01*
X-3952Y-6635D01*
X-3956Y-6618D01*
X-4572Y-7415D02*
X-4589Y-7419D01*
X-4610Y-7407D01*
X-4615Y-7390D01*
X-4590Y-7346D01*
X-4573Y-7342D01*
X-4551Y-7354D01*
X-4547Y-7371D01*
X-4476Y-7398D02*
X-4519Y-7373D01*
X-4501Y-7441D01*
X-4507Y-7452D01*
X-4524Y-7457D01*
X-4546Y-7444D01*
X-4550Y-7427D01*
X-4485Y-7465D02*
X-4481Y-7482D01*
X-4459Y-7494D01*
X-4442Y-7490D01*
X-4436Y-7479D01*
X-4440Y-7462D01*
X-4451Y-7456D01*
X-4440Y-7462D01*
X-4423Y-7457D01*
X-4417Y-7446D01*
X-4421Y-7429D01*
X-4443Y-7417D01*
X-4460Y-7421D01*
X-5104Y-8263D02*
X-5121Y-8267D01*
X-5142Y-8254D01*
X-5146Y-8237D01*
X-5120Y-8194D01*
X-5103Y-8190D01*
X-5082Y-8203D01*
X-5078Y-8220D01*
X-5007Y-8249D02*
X-5050Y-8223D01*
X-5033Y-8292D01*
X-5040Y-8302D01*
X-5057Y-8306D01*
X-5078Y-8293D01*
X-5082Y-8276D01*
X-4954Y-8282D02*
X-4993Y-8346D01*
X-5005Y-8294D01*
X-4963Y-8320D01*
X-6782Y-3667D02*
X-6799Y-3663D01*
X-6812Y-3641D01*
X-6808Y-3624D01*
X-6765Y-3598D01*
X-6748Y-3602D01*
X-6735Y-3623D01*
X-6739Y-3641D01*
X-6689Y-3698D02*
X-6715Y-3655D01*
X-6732Y-3724D01*
X-6743Y-3731D01*
X-6760Y-3727D01*
X-6773Y-3705D01*
X-6769Y-3688D01*
X-6714Y-3801D02*
X-6740Y-3758D01*
X-6708Y-3739D01*
X-6706Y-3767D01*
X-6699Y-3777D01*
X-6682Y-3782D01*
X-6661Y-3768D01*
X-6657Y-3751D01*
X-6670Y-3730D01*
X-6687Y-3726D01*
X-7670Y-4134D02*
X-7687Y-4129D01*
X-7698Y-4107D01*
X-7693Y-4090D01*
X-7649Y-4067D01*
X-7632Y-4072D01*
X-7620Y-4094D01*
X-7625Y-4111D01*
X-7580Y-4172D02*
X-7603Y-4127D01*
X-7624Y-4195D01*
X-7635Y-4201D01*
X-7652Y-4195D01*
X-7664Y-4173D01*
X-7658Y-4156D01*
X-7612Y-4273D02*
X-7612Y-4245D01*
X-7602Y-4211D01*
X-7579Y-4200D01*
X-7562Y-4205D01*
X-7551Y-4227D01*
X-7556Y-4244D01*
X-7567Y-4250D01*
X-7584Y-4244D01*
X-7602Y-4211D01*
X-8553Y-4603D02*
X-8570Y-4598D01*
X-8582Y-4576D01*
X-8576Y-4559D01*
X-8532Y-4536D01*
X-8515Y-4542D01*
X-8503Y-4564D01*
X-8509Y-4581D01*
X-8464Y-4642D02*
X-8486Y-4597D01*
X-8508Y-4664D01*
X-8519Y-4670D01*
X-8536Y-4665D01*
X-8548Y-4642D01*
X-8542Y-4626D01*
X-8519Y-4698D02*
X-8496Y-4743D01*
X-8485Y-4737D01*
X-8463Y-4670D01*
X-8452Y-4664D01*
X-7707Y216D02*
X-7720Y228D01*
X-7720Y253D01*
X-7708Y266D01*
X-7658Y267D01*
X-7645Y254D01*
X-7645Y229D01*
X-7657Y217D01*
X-7643Y142D02*
X-7644Y192D01*
X-7693Y141D01*
X-7706Y141D01*
X-7718Y153D01*
X-7719Y178D01*
X-7707Y191D01*
X-7705Y116D02*
X-7717Y103D01*
X-7717Y78D01*
X-7704Y66D01*
X-7692Y66D01*
X-7680Y79D01*
X-7667Y67D01*
X-7654Y67D01*
X-7642Y80D01*
X-7643Y105D01*
X-7655Y117D01*
X-7668Y117D01*
X-7680Y104D01*
X-7693Y116D01*
X-7705Y116D01*
X-7680Y104D02*
X-7680Y79D01*
X-8707Y251D02*
X-8719Y264D01*
X-8720Y289D01*
X-8707Y301D01*
X-8657Y302D01*
X-8645Y289D01*
X-8644Y264D01*
X-8657Y252D01*
X-8644Y177D02*
X-8644Y227D01*
X-8694Y176D01*
X-8706Y176D01*
X-8719Y189D01*
X-8719Y214D01*
X-8707Y226D01*
X-8656Y152D02*
X-8643Y139D01*
X-8643Y114D01*
X-8655Y102D01*
X-8705Y101D01*
X-8718Y114D01*
X-8718Y139D01*
X-8706Y151D01*
X-8693Y151D01*
X-8681Y139D01*
X-8680Y102D01*
X-9707Y287D02*
X-9719Y299D01*
Y324D01*
X-9707Y337D01*
X-9657D01*
X-9644Y324D01*
Y299D01*
X-9657Y287D01*
X-9707Y262D02*
X-9719Y249D01*
Y224D01*
X-9707Y212D01*
X-9694D01*
X-9682Y224D01*
Y237D01*
Y224D01*
X-9669Y212D01*
X-9657D01*
X-9644Y224D01*
Y249D01*
X-9657Y262D01*
X-9707Y187D02*
X-9719Y174D01*
Y149D01*
X-9707Y137D01*
X-9657D01*
X-9644Y149D01*
Y174D01*
X-9657Y187D01*
X-9707D01*
X-6567Y4041D02*
X-6571Y4058D01*
X-6559Y4080D01*
X-6542Y4085D01*
X-6498Y4060D01*
X-6494Y4043D01*
X-6506Y4021D01*
X-6523Y4017D01*
X-6579Y4019D02*
X-6596Y4015D01*
X-6608Y3993D01*
X-6603Y3976D01*
X-6593Y3970D01*
X-6576Y3974D01*
X-6569Y3985D01*
X-6576Y3974D01*
X-6571Y3957D01*
X-6560Y3951D01*
X-6543Y3956D01*
X-6531Y3978D01*
X-6535Y3995D01*
X-6561Y3923D02*
X-6574Y3902D01*
X-6568Y3912D01*
X-6633Y3949D01*
X-6616Y3954D01*
X-7415Y4575D02*
X-7419Y4592D01*
X-7406Y4613D01*
X-7389Y4617D01*
X-7346Y4590D01*
X-7342Y4573D01*
X-7355Y4552D01*
X-7373Y4548D01*
X-7428Y4553D02*
X-7446Y4549D01*
X-7459Y4528D01*
X-7455Y4511D01*
X-7444Y4504D01*
X-7427Y4508D01*
X-7420Y4519D01*
X-7427Y4508D01*
X-7423Y4491D01*
X-7412Y4484D01*
X-7395Y4488D01*
X-7382Y4510D01*
X-7386Y4527D01*
X-7442Y4414D02*
X-7415Y4457D01*
X-7484Y4441D01*
X-7495Y4447D01*
X-7499Y4465D01*
X-7485Y4486D01*
X-7468Y4490D01*
X-8263Y5105D02*
X-8267Y5122D01*
X-8254Y5143D01*
X-8236Y5147D01*
X-8194Y5120D01*
X-8190Y5103D01*
X-8204Y5082D01*
X-8221Y5078D01*
X-8277Y5084D02*
X-8294Y5080D01*
X-8307Y5059D01*
X-8303Y5042D01*
X-8293Y5035D01*
X-8276Y5039D01*
X-8269Y5050D01*
X-8276Y5039D01*
X-8272Y5022D01*
X-8261Y5015D01*
X-8244Y5019D01*
X-8231Y5040D01*
X-8234Y5057D01*
X-8317Y5021D02*
X-8334Y5017D01*
X-8348Y4996D01*
X-8344Y4979D01*
X-8333Y4972D01*
X-8316Y4976D01*
X-8309Y4986D01*
X-8316Y4976D01*
X-8312Y4959D01*
X-8302Y4952D01*
X-8284Y4956D01*
X-8271Y4977D01*
X-8275Y4994D01*
X-3665Y6785D02*
X-3661Y6802D01*
X-3639Y6814D01*
X-3622Y6809D01*
X-3598Y6765D01*
X-3602Y6748D01*
X-3624Y6736D01*
X-3641Y6741D01*
X-3687Y6773D02*
X-3704Y6778D01*
X-3726Y6766D01*
X-3731Y6749D01*
X-3725Y6738D01*
X-3708Y6733D01*
X-3697Y6739D01*
X-3708Y6733D01*
X-3713Y6716D01*
X-3707Y6705D01*
X-3690Y6700D01*
X-3668Y6712D01*
X-3663Y6729D01*
X-3755Y6664D02*
X-3792Y6729D01*
X-3741Y6715D01*
X-3784Y6690D01*
X-4136Y7666D02*
X-4131Y7683D01*
X-4110Y7696D01*
X-4093Y7691D01*
X-4067Y7648D01*
X-4072Y7631D01*
X-4093Y7618D01*
X-4110Y7623D01*
X-4157Y7653D02*
X-4174Y7658D01*
X-4196Y7645D01*
X-4200Y7628D01*
X-4194Y7617D01*
X-4177Y7613D01*
X-4166Y7619D01*
X-4177Y7613D01*
X-4181Y7596D01*
X-4175Y7585D01*
X-4158Y7580D01*
X-4136Y7593D01*
X-4132Y7610D01*
X-4271Y7601D02*
X-4228Y7626D01*
X-4209Y7594D01*
X-4237Y7592D01*
X-4248Y7585D01*
X-4252Y7568D01*
X-4240Y7547D01*
X-4222Y7542D01*
X-4201Y7555D01*
X-4196Y7572D01*
X-4606Y8548D02*
X-4602Y8565D01*
X-4580Y8578D01*
X-4563Y8574D01*
X-4537Y8531D01*
X-4541Y8514D01*
X-4562Y8501D01*
X-4580Y8505D01*
X-4627Y8535D02*
X-4644Y8539D01*
X-4665Y8526D01*
X-4670Y8508D01*
X-4663Y8498D01*
X-4646Y8494D01*
X-4635Y8500D01*
X-4646Y8494D01*
X-4650Y8476D01*
X-4643Y8466D01*
X-4626Y8462D01*
X-4605Y8475D01*
X-4601Y8492D01*
X-4740Y8480D02*
X-4712Y8482D01*
X-4678Y8474D01*
X-4665Y8453D01*
X-4669Y8436D01*
X-4690Y8423D01*
X-4707Y8427D01*
X-4714Y8437D01*
X-4710Y8454D01*
X-4678Y8474D01*
M02*
