M48
;Layer_Color=9474304
;FILE_FORMAT=4:2
METRIC,LZ
;TYPE=PLATED
T1F00S00C0.71
T2F00S00C2.00
%
T01
X002953Y-009659
X003946Y-009297
X003945Y-008861
X004897Y-008834
X001736Y-008933
X000793Y-009065
X000468Y-008938
X000495Y-009437
X000521Y-009936
X00088Y-010062
X-000176Y-010098
X-000159Y-009099
X-001014Y-009647
X001927Y-009914
X-001231Y-010025
X-001109Y-009032
X-002047Y-008867
X-002272Y-009841
X-003288Y-00955
X-004268Y-009154
X-005202Y-008657
X-005702Y-007847
X-006078Y-008066
X-005477Y-007268
X-005114Y-007038
X-006206Y-006655
X-006868Y-00597
X-007454Y-00522
X-008273Y-005793
X-008834Y-004897
X-007623Y-006626
X-006888Y-007387
X-005524Y-005924
X-006113Y-005314
X-004875Y-006469
X-004526Y-006229
X-004172Y-006943
X-003423Y-007341
X-002637Y-007659
X-001822Y-007892
X-002963Y-008604
X-003846Y-008247
X-004687Y-0078
X-000987Y-00804
X-000805Y-007658
X-000909Y-008652
X-000141Y-008099
X000416Y-007939
X000706Y-008069
X000442Y-008438
X00039Y-00744
X001546Y-007951
X002368Y-007746
X002661Y-008702
X003556Y-008377
X003539Y-007948
X003165Y-007456
X003132Y-007034
X003927Y-007084
X004646Y-006635
X005314Y-006113
X005924Y-005524
X006469Y-004875
X006655Y-006206
X00597Y-006868
X00522Y-007454
X004412Y-007959
X005793Y-008273
X006626Y-007623
X007387Y-006888
X008066Y-006078
X007847Y-005702
X007268Y-005477
X007038Y-005114
X008657Y-005202
X0078Y-004687
X008247Y-003846
X008604Y-002963
X008867Y-002047
X009032Y-001109
X008652Y-000909
X00804Y-000987
X007892Y-001822
X007659Y-002637
X007341Y-003423
X006943Y-004172
X009154Y-004268
X00955Y-003288
X009841Y-002272
X010025Y-001231
X009647Y-001014
X006229Y-004526
X-006635Y-004646
X-007084Y-003927
X-007034Y-003132
X-007456Y-003165
X-007948Y-003539
X-008377Y-003556
X-008861Y-003945
X-007959Y-004412
X-007746Y-002368
X-007951Y-001546
X-008933Y-001736
X-008702Y-002661
X-009659Y-002953
X-009914Y-001927
X-010062Y-00088
X-009297Y-003946
X-009065Y-000793
X-009437Y-000495
X-009936Y-000521
X-010098Y000176
X-009099Y000159
X-009032Y001109
X-009647Y001014
X-010025Y001231
X-009841Y002272
X-008867Y002047
X-008604Y002963
X-007659Y002637
X-007892Y001822
X-00804Y000987
X-007658Y000805
X-008652Y000909
X-008099Y000141
X-007939Y-000416
X-008069Y-000706
X-008438Y-000442
X-008938Y-000468
X-00744Y-00039
X007658Y-000805
X008099Y-000141
X007939Y000416
X008069Y000706
X008438Y000442
X008938Y000468
X009065Y000793
X009437Y000495
X009936Y000521
X010062Y00088
X010098Y-000176
X009099Y-000159
X008933Y001736
X008702Y002661
X009659Y002953
X009914Y001927
X007951Y001546
X007746Y002368
X007034Y003132
X00744Y00039
X007456Y003165
X007948Y003539
X008377Y003556
X008861Y003945
X009297Y003946
X008834Y004897
X007959Y004412
X007454Y00522
X008273Y005793
X007623Y006626
X007084Y003927
X006635Y004646
X006113Y005314
X005524Y005924
X004875Y006469
X004526Y006229
X004172Y006943
X005114Y007038
X006206Y006655
X006868Y00597
X001693Y006792
X-003132Y007034
X-003927Y007084
X-004646Y006635
X-005314Y006113
X-005924Y005524
X-006469Y004875
X-006229Y004526
X-006943Y004172
X-007038Y005114
X-007268Y005477
X-007847Y005702
X-008066Y006078
X-008657Y005202
X-0078Y004687
X-008247Y003846
X-007341Y003423
X-006655Y006206
X-00597Y006868
X-007387Y006888
X-009154Y004268
X-00955Y003288
X-006626Y007623
X-005793Y008273
X-00522Y007454
X-004412Y007959
X-003539Y007948
X-003556Y008377
X-003945Y008861
X-003946Y009297
X-002953Y009659
X-002661Y008702
X-001736Y008933
X-001927Y009914
X-001546Y007951
X-002368Y007746
X-003165Y007456
X-004897Y008834
X-000793Y009065
X-000663Y009477
X-0005Y009537
X-000463Y008838
X-000447Y008538
X-000706Y008069
X-000411Y007839
X0Y0077
X000141Y008099
X000987Y00804
X000792Y007671
X000895Y008667
X001109Y009032
X001014Y009647
X001231Y010025
X000176Y010098
X000159Y009099
X-00088Y010062
X002272Y009841
X002047Y008867
X001822Y007892
X002637Y007659
X003423Y007341
X003846Y008247
X002963Y008604
X003288Y00955
X004268Y009154
X005202Y008657
X005702Y007847
X006078Y008066
X005477Y007268
X004687Y0078
X006888Y007387
T02
X00525Y-009093
X-00525
X-009093Y-00525
X009093
Y00525
X-009093
X-00525Y009093
X00525
M30
