G04 Layer_Color=128*
%FSLAX42Y42*%
%MOMM*%
G71*
G01*
G75*
%ADD305C,0.05*%
D305*
X8993Y-5250D02*
X9193D01*
X9093Y-5350D02*
Y-5150D01*
X5150Y-9093D02*
X5350D01*
X5250Y-9193D02*
Y-8993D01*
X-5350Y-9093D02*
X-5150D01*
X-5250Y-9193D02*
Y-8993D01*
X-9193Y-5250D02*
X-8993D01*
X-9093Y-5350D02*
Y-5150D01*
X-9193Y5250D02*
X-8993D01*
X-9093Y5150D02*
Y5350D01*
X-5350Y9093D02*
X-5150D01*
X-5250Y8993D02*
Y9193D01*
X8993Y5250D02*
X9193D01*
X9093Y5150D02*
Y5350D01*
X5150Y9093D02*
X5350D01*
X5250Y8993D02*
Y9193D01*
X-194Y-9099D02*
X-123D01*
X-159Y-9134D02*
Y-9063D01*
X-212Y-10098D02*
X-141D01*
X-176Y-10134D02*
Y-10063D01*
X-2308Y-9841D02*
X-2236D01*
X-2272Y-9877D02*
Y-9806D01*
X-1266Y-10025D02*
X-1195D01*
X-1231Y-10060D02*
Y-9989D01*
X-1145Y-9032D02*
X-1073D01*
X-1109Y-9068D02*
Y-8997D01*
X-2083Y-8867D02*
X-2011D01*
X-2047Y-8902D02*
Y-8831D01*
X-2998Y-8604D02*
X-2927D01*
X-2963Y-8640D02*
Y-8569D01*
X-3324Y-9550D02*
X-3253D01*
X-3288Y-9585D02*
Y-9514D01*
X-4304Y-9154D02*
X-4233D01*
X-4268Y-9189D02*
Y-9118D01*
X-3881Y-8247D02*
X-3810D01*
X-3846Y-8283D02*
Y-8212D01*
X-5237Y-8657D02*
X-5166D01*
X-5202Y-8693D02*
Y-8622D01*
X-4722Y-7800D02*
X-4651D01*
X-4687Y-7836D02*
Y-7765D01*
X-5512Y-7268D02*
X-5441D01*
X-5477Y-7303D02*
Y-7232D01*
X-6114Y-8066D02*
X-6043D01*
X-6078Y-8102D02*
Y-8031D01*
X-6924Y-7387D02*
X-6853D01*
X-6888Y-7422D02*
Y-7351D01*
X-6242Y-6655D02*
X-6171D01*
X-6206Y-6691D02*
Y-6620D01*
X-6903Y-5970D02*
X-6832D01*
X-6868Y-6006D02*
Y-5935D01*
X-7658Y-6626D02*
X-7587D01*
X-7623Y-6662D02*
Y-6591D01*
X-8309Y-5793D02*
X-8238D01*
X-8273Y-5829D02*
Y-5758D01*
X-7490Y-5220D02*
X-7419D01*
X-7454Y-5255D02*
Y-5184D01*
X-8869Y-4897D02*
X-8798D01*
X-8834Y-4932D02*
Y-4861D01*
X-7995Y-4412D02*
X-7923D01*
X-7959Y-4447D02*
Y-4376D01*
X-8412Y-3556D02*
X-8341D01*
X-8377Y-3591D02*
Y-3520D01*
X-9333Y-3946D02*
X-9262D01*
X-9297Y-3982D02*
Y-3911D01*
X-9694Y-2953D02*
X-9623D01*
X-9659Y-2989D02*
Y-2917D01*
X-9950Y-1927D02*
X-9879D01*
X-9914Y-1963D02*
Y-1892D01*
X-8738Y-2661D02*
X-8667D01*
X-8702Y-2696D02*
Y-2625D01*
X-8968Y-1736D02*
X-8897D01*
X-8933Y-1772D02*
Y-1701D01*
X-10097Y-880D02*
X-10026D01*
X-10062Y-916D02*
Y-845D01*
X-9101Y-793D02*
X-9030D01*
X-9065Y-829D02*
Y-758D01*
X-9134Y159D02*
X-9063D01*
X-9099Y123D02*
Y194D01*
X-10134Y176D02*
X-10063D01*
X-10098Y141D02*
Y212D01*
X-10060Y1231D02*
X-9989D01*
X-10025Y1195D02*
Y1266D01*
X-9068Y1109D02*
X-8997D01*
X-9032Y1073D02*
Y1145D01*
X-8902Y2047D02*
X-8831D01*
X-8867Y2011D02*
Y2083D01*
X-9877Y2272D02*
X-9806D01*
X-9841Y2236D02*
Y2308D01*
X-9585Y3288D02*
X-9514D01*
X-9550Y3253D02*
Y3324D01*
X-8640Y2963D02*
X-8569D01*
X-8604Y2927D02*
Y2998D01*
X-8283Y3846D02*
X-8212D01*
X-8247Y3810D02*
Y3881D01*
X-6691Y6206D02*
X-6620D01*
X-6655Y6171D02*
Y6242D01*
X-7303Y5477D02*
X-7232D01*
X-7268Y5441D02*
Y5512D01*
X-7836Y4687D02*
X-7765D01*
X-7800Y4651D02*
Y4722D01*
X-9189Y4268D02*
X-9118D01*
X-9154Y4233D02*
Y4304D01*
X-8693Y5202D02*
X-8622D01*
X-8657Y5166D02*
Y5237D01*
X-8102Y6078D02*
X-8031D01*
X-8066Y6043D02*
Y6114D01*
X-7422Y6888D02*
X-7351D01*
X-7387Y6853D02*
Y6924D01*
X-6662Y7623D02*
X-6591D01*
X-6626Y7587D02*
Y7658D01*
X-6006Y6868D02*
X-5935D01*
X-5970Y6832D02*
Y6903D01*
X-5255Y7454D02*
X-5184D01*
X-5220Y7419D02*
Y7490D01*
X-5829Y8273D02*
X-5758D01*
X-5793Y8238D02*
Y8309D01*
X-4932Y8834D02*
X-4861D01*
X-4897Y8798D02*
Y8869D01*
X-4447Y7959D02*
X-4376D01*
X-4412Y7923D02*
Y7995D01*
X-3982Y9297D02*
X-3911D01*
X-3946Y9262D02*
Y9333D01*
X-2989Y9659D02*
X-2917D01*
X-2953Y9623D02*
Y9694D01*
X-1963Y9914D02*
X-1892D01*
X-1927Y9879D02*
Y9950D01*
X-916Y10062D02*
X-845D01*
X-880Y10026D02*
Y10097D01*
X-3591Y8377D02*
X-3520D01*
X-3556Y8341D02*
Y8412D01*
X-2696Y8702D02*
X-2625D01*
X-2661Y8667D02*
Y8738D01*
X-1772Y8933D02*
X-1701D01*
X-1736Y8897D02*
Y8968D01*
X-742Y8069D02*
X-670D01*
X-706Y8034D02*
Y8105D01*
X-1581Y7951D02*
X-1510D01*
X-1546Y7916D02*
Y7987D01*
X-2404Y7746D02*
X-2333D01*
X-2368Y7711D02*
Y7782D01*
X-3200Y7456D02*
X-3129D01*
X-3165Y7421D02*
Y7492D01*
X-3963Y7084D02*
X-3891D01*
X-3927Y7049D02*
Y7120D01*
X-4682Y6635D02*
X-4610D01*
X-4646Y6600D02*
Y6671D01*
X-5350Y6113D02*
X-5279D01*
X-5314Y6078D02*
Y6149D01*
X-5960Y5524D02*
X-5888D01*
X-5924Y5489D02*
Y5560D01*
X-6505Y4875D02*
X-6433D01*
X-6469Y4839D02*
Y4910D01*
X-6979Y4172D02*
X-6907D01*
X-6943Y4136D02*
Y4207D01*
X-7377Y3423D02*
X-7306D01*
X-7341Y3388D02*
Y3459D01*
X-7694Y2637D02*
X-7623D01*
X-7659Y2602D02*
Y2673D01*
X-7928Y1822D02*
X-7857D01*
X-7892Y1787D02*
Y1858D01*
X-8075Y987D02*
X-8004D01*
X-8040Y952D02*
Y1023D01*
X-8134Y141D02*
X-8063D01*
X-8099Y106D02*
Y177D01*
X-8105Y-706D02*
X-8034D01*
X-8069Y-742D02*
Y-670D01*
X-7987Y-1546D02*
X-7916D01*
X-7951Y-1581D02*
Y-1510D01*
X-7782Y-2368D02*
X-7711D01*
X-7746Y-2404D02*
Y-2333D01*
X-7492Y-3165D02*
X-7421D01*
X-7456Y-3200D02*
Y-3129D01*
X-7120Y-3927D02*
X-7049D01*
X-7084Y-3963D02*
Y-3891D01*
X-6671Y-4646D02*
X-6600D01*
X-6635Y-4682D02*
Y-4610D01*
X-6149Y-5314D02*
X-6078D01*
X-6113Y-5350D02*
Y-5279D01*
X-5560Y-5924D02*
X-5489D01*
X-5524Y-5960D02*
Y-5888D01*
X-4910Y-6469D02*
X-4839D01*
X-4875Y-6505D02*
Y-6433D01*
X-4207Y-6943D02*
X-4136D01*
X-4172Y-6979D02*
Y-6907D01*
X-3459Y-7341D02*
X-3388D01*
X-3423Y-7377D02*
Y-7306D01*
X-2673Y-7659D02*
X-2602D01*
X-2637Y-7694D02*
Y-7623D01*
X-1858Y-7892D02*
X-1787D01*
X-1822Y-7928D02*
Y-7857D01*
X-1023Y-8040D02*
X-952D01*
X-987Y-8075D02*
Y-8004D01*
X-177Y-8099D02*
X-106D01*
X-141Y-8134D02*
Y-8063D01*
X-3981Y8861D02*
X-3910D01*
X-3945Y8826D02*
Y8897D01*
X-3574Y7948D02*
X-3503D01*
X-3539Y7912D02*
Y7983D01*
X-3167Y7034D02*
X-3096D01*
X-3132Y6999D02*
Y7070D01*
X-7883Y5702D02*
X-7812D01*
X-7847Y5666D02*
Y5737D01*
X-7074Y5114D02*
X-7003D01*
X-7038Y5078D02*
Y5149D01*
X-6265Y4526D02*
X-6194D01*
X-6229Y4490D02*
Y4562D01*
X-7693Y805D02*
X-7622D01*
X-7658Y769D02*
Y840D01*
X-8688Y909D02*
X-8617D01*
X-8652Y874D02*
Y945D01*
X-9682Y1014D02*
X-9611D01*
X-9647Y978D02*
Y1049D01*
X-9972Y-521D02*
X-9901D01*
X-9936Y-556D02*
Y-485D01*
X-9473Y-495D02*
X-9401D01*
X-9437Y-530D02*
Y-459D01*
X-8973Y-468D02*
X-8902D01*
X-8938Y-504D02*
Y-433D01*
X-8474Y-442D02*
X-8403D01*
X-8438Y-478D02*
Y-407D01*
X-7975Y-416D02*
X-7904D01*
X-7939Y-452D02*
Y-381D01*
X-7475Y-390D02*
X-7404D01*
X-7440Y-425D02*
Y-354D01*
X-7070Y-3132D02*
X-6999D01*
X-7034Y-3167D02*
Y-3096D01*
X-7983Y-3539D02*
X-7912D01*
X-7948Y-3574D02*
Y-3503D01*
X-8897Y-3945D02*
X-8826D01*
X-8861Y-3981D02*
Y-3910D01*
X-4562Y-6229D02*
X-4490D01*
X-4526Y-6265D02*
Y-6194D01*
X-5149Y-7038D02*
X-5078D01*
X-5114Y-7074D02*
Y-7003D01*
X-5737Y-7847D02*
X-5666D01*
X-5702Y-7883D02*
Y-7812D01*
X-1049Y-9647D02*
X-978D01*
X-1014Y-9682D02*
Y-9611D01*
X-945Y-8652D02*
X-874D01*
X-909Y-8688D02*
Y-8617D01*
X-840Y-7658D02*
X-769D01*
X-805Y-7693D02*
Y-7622D01*
X354Y-7440D02*
X425D01*
X390Y-7475D02*
Y-7404D01*
X381Y-7939D02*
X452D01*
X416Y-7975D02*
Y-7904D01*
X407Y-8438D02*
X478D01*
X442Y-8474D02*
Y-8403D01*
X433Y-8938D02*
X504D01*
X468Y-8973D02*
Y-8902D01*
X459Y-9437D02*
X530D01*
X495Y-9473D02*
Y-9401D01*
X485Y-9936D02*
X556D01*
X521Y-9972D02*
Y-9901D01*
X9901Y521D02*
X9972D01*
X9936Y485D02*
Y556D01*
X9401Y495D02*
X9473D01*
X9437Y459D02*
Y530D01*
X8902Y468D02*
X8973D01*
X8938Y433D02*
Y504D01*
X7904Y416D02*
X7975D01*
X7939Y381D02*
Y452D01*
X7404Y390D02*
X7475D01*
X7440Y354D02*
Y425D01*
X8403Y442D02*
X8474D01*
X8438Y407D02*
Y478D01*
X8826Y3945D02*
X8897D01*
X8861Y3910D02*
Y3981D01*
X7912Y3539D02*
X7983D01*
X7948Y3503D02*
Y3574D01*
X6999Y3132D02*
X7070D01*
X7034Y3096D02*
Y3167D01*
X7622Y-805D02*
X7693D01*
X7658Y-840D02*
Y-769D01*
X8617Y-909D02*
X8688D01*
X8652Y-945D02*
Y-874D01*
X9611Y-1014D02*
X9682D01*
X9647Y-1049D02*
Y-978D01*
X6194Y-4526D02*
X6265D01*
X6229Y-4562D02*
Y-4490D01*
X7003Y-5114D02*
X7074D01*
X7038Y-5149D02*
Y-5078D01*
X7812Y-5702D02*
X7883D01*
X7847Y-5737D02*
Y-5666D01*
X3096Y-7034D02*
X3167D01*
X3132Y-7070D02*
Y-6999D01*
X3503Y-7948D02*
X3574D01*
X3539Y-7983D02*
Y-7912D01*
X3910Y-8861D02*
X3981D01*
X3945Y-8897D02*
Y-8826D01*
X1701Y-8933D02*
X1772D01*
X1736Y-8968D02*
Y-8897D01*
X2625Y-8702D02*
X2696D01*
X2661Y-8738D02*
Y-8667D01*
X3520Y-8377D02*
X3591D01*
X3556Y-8412D02*
Y-8341D01*
X3911Y-9297D02*
X3982D01*
X3946Y-9333D02*
Y-9262D01*
X2917Y-9659D02*
X2989D01*
X2953Y-9694D02*
Y-9623D01*
X1892Y-9914D02*
X1963D01*
X1927Y-9950D02*
Y-9879D01*
X845Y-10062D02*
X916D01*
X880Y-10097D02*
Y-10026D01*
X758Y-9065D02*
X829D01*
X793Y-9101D02*
Y-9030D01*
X670Y-8069D02*
X742D01*
X706Y-8105D02*
Y-8034D01*
X1510Y-7951D02*
X1581D01*
X1546Y-7987D02*
Y-7916D01*
X2333Y-7746D02*
X2404D01*
X2368Y-7782D02*
Y-7711D01*
X3129Y-7456D02*
X3200D01*
X3165Y-7492D02*
Y-7421D01*
X3891Y-7084D02*
X3963D01*
X3927Y-7120D02*
Y-7049D01*
X4376Y-7959D02*
X4447D01*
X4412Y-7995D02*
Y-7923D01*
X4861Y-8834D02*
X4932D01*
X4897Y-8869D02*
Y-8798D01*
X5758Y-8273D02*
X5829D01*
X5793Y-8309D02*
Y-8238D01*
X5184Y-7454D02*
X5255D01*
X5220Y-7490D02*
Y-7419D01*
X4610Y-6635D02*
X4682D01*
X4646Y-6671D02*
Y-6600D01*
X5279Y-6113D02*
X5350D01*
X5314Y-6149D02*
Y-6078D01*
X5935Y-6868D02*
X6006D01*
X5970Y-6903D02*
Y-6832D01*
X6591Y-7623D02*
X6662D01*
X6626Y-7658D02*
Y-7587D01*
X7351Y-6888D02*
X7422D01*
X7387Y-6924D02*
Y-6853D01*
X6620Y-6206D02*
X6691D01*
X6655Y-6242D02*
Y-6171D01*
X5888Y-5524D02*
X5960D01*
X5924Y-5560D02*
Y-5489D01*
X6433Y-4875D02*
X6505D01*
X6469Y-4910D02*
Y-4839D01*
X7232Y-5477D02*
X7303D01*
X7268Y-5512D02*
Y-5441D01*
X8031Y-6078D02*
X8102D01*
X8066Y-6114D02*
Y-6043D01*
X8622Y-5202D02*
X8693D01*
X8657Y-5237D02*
Y-5166D01*
X7765Y-4687D02*
X7836D01*
X7800Y-4722D02*
Y-4651D01*
X6907Y-4172D02*
X6979D01*
X6943Y-4207D02*
Y-4136D01*
X7306Y-3423D02*
X7377D01*
X7341Y-3459D02*
Y-3388D01*
X8212Y-3846D02*
X8283D01*
X8247Y-3881D02*
Y-3810D01*
X9118Y-4268D02*
X9189D01*
X9154Y-4304D02*
Y-4233D01*
X9514Y-3288D02*
X9585D01*
X9550Y-3324D02*
Y-3253D01*
X8569Y-2963D02*
X8640D01*
X8604Y-2998D02*
Y-2927D01*
X7623Y-2637D02*
X7694D01*
X7659Y-2673D02*
Y-2602D01*
X7857Y-1822D02*
X7928D01*
X7892Y-1858D02*
Y-1787D01*
X8831Y-2047D02*
X8902D01*
X8867Y-2083D02*
Y-2011D01*
X9806Y-2272D02*
X9877D01*
X9841Y-2308D02*
Y-2236D01*
X9989Y-1231D02*
X10060D01*
X10025Y-1266D02*
Y-1195D01*
X8997Y-1109D02*
X9068D01*
X9032Y-1145D02*
Y-1073D01*
X8004Y-987D02*
X8075D01*
X8040Y-1023D02*
Y-952D01*
X8063Y-141D02*
X8134D01*
X8099Y-177D02*
Y-106D01*
X9063Y-159D02*
X9134D01*
X9099Y-194D02*
Y-123D01*
X10063Y-176D02*
X10134D01*
X10098Y-212D02*
Y-141D01*
X10026Y880D02*
X10097D01*
X10062Y845D02*
Y916D01*
X9030Y793D02*
X9101D01*
X9065Y758D02*
Y829D01*
X8034Y706D02*
X8105D01*
X8069Y670D02*
Y742D01*
X7916Y1546D02*
X7987D01*
X7951Y1510D02*
Y1581D01*
X8897Y1736D02*
X8968D01*
X8933Y1701D02*
Y1772D01*
X9879Y1927D02*
X9950D01*
X9914Y1892D02*
Y1963D01*
X9623Y2953D02*
X9694D01*
X9659Y2917D02*
Y2989D01*
X8667Y2661D02*
X8738D01*
X8702Y2625D02*
Y2696D01*
X7711Y2368D02*
X7782D01*
X7746Y2333D02*
Y2404D01*
X9262Y3946D02*
X9333D01*
X9297Y3911D02*
Y3982D01*
X8341Y3556D02*
X8412D01*
X8377Y3520D02*
Y3591D01*
X7923Y4412D02*
X7995D01*
X7959Y4376D02*
Y4447D01*
X8798Y4897D02*
X8869D01*
X8834Y4861D02*
Y4932D01*
X7419Y5220D02*
X7490D01*
X7454Y5184D02*
Y5255D01*
X8238Y5793D02*
X8309D01*
X8273Y5758D02*
Y5829D01*
X7587Y6626D02*
X7658D01*
X7623Y6591D02*
Y6662D01*
X7421Y3165D02*
X7492D01*
X7456Y3129D02*
Y3200D01*
X7049Y3927D02*
X7120D01*
X7084Y3891D02*
Y3963D01*
X6600Y4646D02*
X6671D01*
X6635Y4610D02*
Y4682D01*
X6078Y5314D02*
X6149D01*
X6113Y5279D02*
Y5350D01*
X5489Y5924D02*
X5560D01*
X5524Y5888D02*
Y5960D01*
X6832Y5970D02*
X6903D01*
X6868Y5935D02*
Y6006D01*
X6171Y6655D02*
X6242D01*
X6206Y6620D02*
Y6691D01*
X6853Y7387D02*
X6924D01*
X6888Y7351D02*
Y7422D01*
X6043Y8066D02*
X6114D01*
X6078Y8031D02*
Y8102D01*
X5441Y7268D02*
X5512D01*
X5477Y7232D02*
Y7303D01*
X4839Y6469D02*
X4910D01*
X4875Y6433D02*
Y6505D01*
X5666Y7847D02*
X5737D01*
X5702Y7812D02*
Y7883D01*
X5078Y7038D02*
X5149D01*
X5114Y7003D02*
Y7074D01*
X4490Y6229D02*
X4562D01*
X4526Y6194D02*
Y6265D01*
X141Y10098D02*
X212D01*
X176Y10063D02*
Y10134D01*
X123Y9099D02*
X194D01*
X159Y9063D02*
Y9134D01*
X1195Y10025D02*
X1266D01*
X1231Y9989D02*
Y10060D01*
X2236Y9841D02*
X2308D01*
X2272Y9806D02*
Y9877D01*
X3253Y9550D02*
X3324D01*
X3288Y9514D02*
Y9585D01*
X4233Y9154D02*
X4304D01*
X4268Y9118D02*
Y9189D01*
X5166Y8657D02*
X5237D01*
X5202Y8622D02*
Y8693D01*
X4651Y7800D02*
X4722D01*
X4687Y7765D02*
Y7836D01*
X3810Y8247D02*
X3881D01*
X3846Y8212D02*
Y8283D01*
X2927Y8604D02*
X2998D01*
X2963Y8569D02*
Y8640D01*
X2011Y8867D02*
X2083D01*
X2047Y8831D02*
Y8902D01*
X1073Y9032D02*
X1145D01*
X1109Y8997D02*
Y9068D01*
X4136Y6943D02*
X4207D01*
X4172Y6907D02*
Y6979D01*
X3388Y7341D02*
X3459D01*
X3423Y7306D02*
Y7377D01*
X2602Y7659D02*
X2673D01*
X2637Y7623D02*
Y7694D01*
X1787Y7892D02*
X1858D01*
X1822Y7857D02*
Y7928D01*
X952Y8040D02*
X1023D01*
X987Y8004D02*
Y8075D01*
X106Y8099D02*
X177D01*
X141Y8063D02*
Y8134D01*
X-698Y9477D02*
X-627D01*
X-663Y9441D02*
Y9512D01*
X-483Y8538D02*
X-412D01*
X-447Y8503D02*
Y8574D01*
X-535Y9537D02*
X-464D01*
X-500Y9501D02*
Y9572D01*
X-499Y8838D02*
X-428D01*
X-463Y8802D02*
Y8873D01*
X-446Y7839D02*
X-375D01*
X-411Y7804D02*
Y7875D01*
X-829Y9065D02*
X-758D01*
X-793Y9030D02*
Y9101D01*
X-36Y7700D02*
X36D01*
X0Y7664D02*
Y7736D01*
X978Y9647D02*
X1049D01*
X1014Y9611D02*
Y9682D01*
X859Y8667D02*
X930D01*
X895Y8631D02*
Y8702D01*
X756Y7671D02*
X828D01*
X792Y7635D02*
Y7706D01*
X1658Y6792D02*
X1729D01*
X1693Y6757D02*
Y6828D01*
M02*
