G04 Layer_Physical_Order=1*
G04 Layer_Color=255*
%FSLAX42Y42*%
%MOMM*%
G71*
G01*
G75*
%ADD10R,1.50X0.90*%
%ADD11C,1.00*%
%ADD12C,0.25*%
%ADD13C,0.10*%
%ADD14C,3.50*%
%ADD15O,3.50X3.54*%
%ADD16C,1.27*%
G36*
X9351Y426D02*
X9338Y419D01*
X9308Y394D01*
X9283Y364D01*
X9264Y329D01*
X9252Y291D01*
X9249Y252D01*
Y248D01*
X9252Y209D01*
X9264Y171D01*
X9283Y136D01*
X9302Y113D01*
X9296Y100D01*
X1853D01*
X1847Y113D01*
X1867Y138D01*
X1886Y173D01*
X1898Y211D01*
X1901Y250D01*
X1898Y289D01*
X1886Y327D01*
X1867Y362D01*
X1842Y392D01*
X1813Y416D01*
X1814Y426D01*
X1815Y429D01*
X2700D01*
X2702Y428D01*
X2725Y425D01*
X2748Y428D01*
X2770Y437D01*
X2772Y439D01*
X4178D01*
X4180Y437D01*
X4202Y428D01*
X4225Y425D01*
X4248Y428D01*
X4270Y437D01*
X4272Y439D01*
X5678D01*
X5680Y437D01*
X5702Y428D01*
X5725Y425D01*
X5748Y428D01*
X5770Y437D01*
X5772Y439D01*
X7178D01*
X7180Y437D01*
X7202Y428D01*
X7225Y425D01*
X7248Y428D01*
X7250Y429D01*
X8678D01*
X8680Y427D01*
X8702Y418D01*
X8725Y415D01*
X8748Y418D01*
X8770Y427D01*
X8785Y439D01*
X9348D01*
X9351Y426D01*
D02*
G37*
G36*
X10329Y1196D02*
X10347Y1189D01*
X10364Y1178D01*
X10378Y1164D01*
X10389Y1147D01*
X10396Y1129D01*
X10400Y1110D01*
Y1100D01*
Y200D01*
Y190D01*
X10396Y171D01*
X10389Y153D01*
X10378Y136D01*
X10364Y122D01*
X10347Y111D01*
X10329Y104D01*
X10310Y100D01*
X9604D01*
X9598Y113D01*
X9617Y136D01*
X9636Y171D01*
X9647Y209D01*
X9651Y248D01*
Y252D01*
X9647Y291D01*
X9636Y329D01*
X9617Y364D01*
X9592Y394D01*
X9562Y419D01*
X9549Y426D01*
X9552Y439D01*
X10178D01*
X10180Y437D01*
X10202Y428D01*
X10225Y425D01*
X10248Y428D01*
X10270Y437D01*
X10288Y452D01*
X10303Y470D01*
X10312Y492D01*
X10315Y515D01*
X10312Y538D01*
X10303Y560D01*
X10301Y562D01*
Y624D01*
X10310Y626D01*
X10318Y632D01*
X10324Y640D01*
X10326Y650D01*
Y740D01*
X10324Y750D01*
X10318Y758D01*
X10310Y764D01*
X10300Y766D01*
X10251D01*
X10245Y768D01*
X10225Y771D01*
X10205Y768D01*
X10199Y766D01*
X10150D01*
X10140Y764D01*
X10132Y758D01*
X10126Y750D01*
X10124Y740D01*
Y650D01*
X10126Y640D01*
X10132Y632D01*
X10140Y626D01*
X10149Y624D01*
Y591D01*
X8801D01*
Y624D01*
X8810Y626D01*
X8818Y632D01*
X8824Y640D01*
X8826Y650D01*
Y740D01*
X8824Y750D01*
X8818Y758D01*
X8810Y764D01*
X8800Y766D01*
X8751D01*
X8745Y768D01*
X8725Y771D01*
X8705Y768D01*
X8699Y766D01*
X8650D01*
X8640Y764D01*
X8632Y758D01*
X8626Y750D01*
X8624Y740D01*
Y650D01*
X8626Y640D01*
X8632Y632D01*
X8640Y626D01*
X8649Y624D01*
Y581D01*
X7301D01*
Y624D01*
X7310Y626D01*
X7318Y632D01*
X7324Y640D01*
X7326Y650D01*
Y740D01*
X7324Y750D01*
X7318Y758D01*
X7310Y764D01*
X7300Y766D01*
X7251D01*
X7245Y768D01*
X7225Y771D01*
X7205Y768D01*
X7199Y766D01*
X7150D01*
X7140Y764D01*
X7132Y758D01*
X7126Y750D01*
X7124Y740D01*
Y650D01*
X7126Y640D01*
X7132Y632D01*
X7140Y626D01*
X7149Y624D01*
Y591D01*
X5801D01*
Y624D01*
X5810Y626D01*
X5818Y632D01*
X5824Y640D01*
X5826Y650D01*
Y740D01*
X5824Y750D01*
X5818Y758D01*
X5810Y764D01*
X5800Y766D01*
X5751D01*
X5745Y768D01*
X5725Y771D01*
X5705Y768D01*
X5699Y766D01*
X5650D01*
X5640Y764D01*
X5632Y758D01*
X5626Y750D01*
X5624Y740D01*
Y650D01*
X5626Y640D01*
X5632Y632D01*
X5640Y626D01*
X5649Y624D01*
Y591D01*
X4301D01*
Y624D01*
X4310Y626D01*
X4318Y632D01*
X4324Y640D01*
X4326Y650D01*
Y740D01*
X4324Y750D01*
X4318Y758D01*
X4310Y764D01*
X4300Y766D01*
X4251D01*
X4245Y768D01*
X4225Y771D01*
X4205Y768D01*
X4199Y766D01*
X4150D01*
X4140Y764D01*
X4132Y758D01*
X4126Y750D01*
X4124Y740D01*
Y650D01*
X4126Y640D01*
X4132Y632D01*
X4140Y626D01*
X4149Y624D01*
Y591D01*
X2801D01*
Y624D01*
X2810Y626D01*
X2818Y632D01*
X2824Y640D01*
X2826Y650D01*
Y740D01*
X2824Y750D01*
X2818Y758D01*
X2810Y764D01*
X2800Y766D01*
X2751D01*
X2745Y768D01*
X2725Y771D01*
X2705Y768D01*
X2699Y766D01*
X2650D01*
X2640Y764D01*
X2632Y758D01*
X2626Y750D01*
X2624Y740D01*
Y650D01*
X2626Y640D01*
X2632Y632D01*
X2640Y626D01*
X2649Y624D01*
Y581D01*
X1301D01*
Y624D01*
X1310Y626D01*
X1318Y632D01*
X1324Y640D01*
X1326Y650D01*
Y740D01*
X1324Y750D01*
X1318Y758D01*
X1310Y764D01*
X1300Y766D01*
X1251D01*
X1245Y768D01*
X1225Y771D01*
X1205Y768D01*
X1199Y766D01*
X1150D01*
X1140Y764D01*
X1132Y758D01*
X1126Y750D01*
X1124Y740D01*
Y650D01*
X1126Y640D01*
X1132Y632D01*
X1140Y626D01*
X1149Y624D01*
Y552D01*
X1147Y550D01*
X1138Y528D01*
X1135Y505D01*
X1138Y482D01*
X1147Y460D01*
X1162Y442D01*
X1180Y427D01*
X1202Y418D01*
X1225Y415D01*
X1248Y418D01*
X1270Y427D01*
X1272Y429D01*
X1585D01*
X1586Y426D01*
X1587Y416D01*
X1558Y392D01*
X1533Y362D01*
X1514Y327D01*
X1502Y289D01*
X1499Y250D01*
X1502Y211D01*
X1514Y173D01*
X1533Y138D01*
X1553Y113D01*
X1547Y100D01*
X190D01*
X171Y104D01*
X153Y111D01*
X136Y122D01*
X122Y136D01*
X111Y153D01*
X104Y171D01*
X100Y190D01*
Y200D01*
Y1100D01*
X100Y1110D01*
X104Y1129D01*
X111Y1147D01*
X122Y1164D01*
X136Y1178D01*
X153Y1189D01*
X171Y1196D01*
X190Y1200D01*
X200Y1200D01*
Y1200D01*
X1981D01*
X1982Y1187D01*
X1977Y1187D01*
X1955Y1178D01*
X1937Y1163D01*
X1922Y1145D01*
X1913Y1123D01*
X1912Y1113D01*
X2088D01*
X2087Y1123D01*
X2078Y1145D01*
X2063Y1163D01*
X2045Y1178D01*
X2023Y1187D01*
X2018Y1187D01*
X2019Y1200D01*
X3481D01*
X3482Y1187D01*
X3477Y1187D01*
X3455Y1178D01*
X3437Y1163D01*
X3422Y1145D01*
X3413Y1123D01*
X3412Y1113D01*
X3588D01*
X3587Y1123D01*
X3578Y1145D01*
X3563Y1163D01*
X3545Y1178D01*
X3523Y1187D01*
X3518Y1187D01*
X3519Y1200D01*
X4981D01*
X4982Y1187D01*
X4977Y1187D01*
X4955Y1178D01*
X4937Y1163D01*
X4922Y1145D01*
X4913Y1123D01*
X4912Y1113D01*
X5088D01*
X5087Y1123D01*
X5078Y1145D01*
X5063Y1163D01*
X5045Y1178D01*
X5023Y1187D01*
X5018Y1187D01*
X5019Y1200D01*
X6481Y1200D01*
X6482Y1187D01*
X6477Y1187D01*
X6455Y1178D01*
X6437Y1163D01*
X6422Y1145D01*
X6413Y1123D01*
X6412Y1113D01*
X6588D01*
X6587Y1123D01*
X6578Y1145D01*
X6563Y1163D01*
X6545Y1178D01*
X6523Y1187D01*
X6518Y1187D01*
X6519Y1200D01*
X7981D01*
X7982Y1187D01*
X7977Y1187D01*
X7955Y1178D01*
X7937Y1163D01*
X7922Y1145D01*
X7913Y1123D01*
X7912Y1113D01*
X8088D01*
X8087Y1123D01*
X8078Y1145D01*
X8063Y1163D01*
X8045Y1178D01*
X8023Y1187D01*
X8018Y1187D01*
X8019Y1200D01*
X9481D01*
X9482Y1187D01*
X9477Y1187D01*
X9455Y1178D01*
X9437Y1163D01*
X9422Y1145D01*
X9413Y1123D01*
X9412Y1113D01*
X9588D01*
X9587Y1123D01*
X9578Y1145D01*
X9563Y1163D01*
X9545Y1178D01*
X9523Y1187D01*
X9518Y1187D01*
X9519Y1200D01*
X10300D01*
X10310Y1200D01*
X10329Y1196D01*
D02*
G37*
%LPC*%
G36*
X6722Y1012D02*
X6634D01*
Y980D01*
X6636Y970D01*
X6642Y962D01*
X6650Y956D01*
X6660Y954D01*
X6722D01*
Y1012D01*
D02*
G37*
G36*
X6836D02*
X6748D01*
Y954D01*
X6810D01*
X6820Y956D01*
X6828Y962D01*
X6834Y970D01*
X6836Y980D01*
Y1012D01*
D02*
G37*
G36*
X5336D02*
X5248D01*
Y954D01*
X5310D01*
X5320Y956D01*
X5328Y962D01*
X5334Y970D01*
X5336Y980D01*
Y1012D01*
D02*
G37*
G36*
X3836D02*
X3748D01*
Y954D01*
X3810D01*
X3820Y956D01*
X3828Y962D01*
X3834Y970D01*
X3836Y980D01*
Y1012D01*
D02*
G37*
G36*
X5222D02*
X5134D01*
Y980D01*
X5136Y970D01*
X5142Y962D01*
X5150Y956D01*
X5160Y954D01*
X5222D01*
Y1012D01*
D02*
G37*
G36*
X8222D02*
X8134D01*
Y980D01*
X8136Y970D01*
X8142Y962D01*
X8150Y956D01*
X8160Y954D01*
X8222D01*
Y1012D01*
D02*
G37*
G36*
X10300Y1096D02*
X10150D01*
X10140Y1094D01*
X10132Y1088D01*
X10126Y1080D01*
X10124Y1070D01*
Y980D01*
X10126Y970D01*
X10132Y962D01*
X10140Y956D01*
X10150Y954D01*
X10300D01*
X10310Y956D01*
X10318Y962D01*
X10324Y970D01*
X10326Y980D01*
Y1070D01*
X10324Y1080D01*
X10318Y1088D01*
X10310Y1094D01*
X10300Y1096D01*
D02*
G37*
G36*
X1987Y1087D02*
X1912D01*
X1913Y1077D01*
X1922Y1055D01*
X1937Y1037D01*
X1955Y1022D01*
X1977Y1013D01*
X1987Y1012D01*
Y1087D01*
D02*
G37*
G36*
X9836Y1012D02*
X9748D01*
Y954D01*
X9810D01*
X9820Y956D01*
X9828Y962D01*
X9834Y970D01*
X9836Y980D01*
Y1012D01*
D02*
G37*
G36*
X8336D02*
X8248D01*
Y954D01*
X8310D01*
X8320Y956D01*
X8328Y962D01*
X8334Y970D01*
X8336Y980D01*
Y1012D01*
D02*
G37*
G36*
X9722D02*
X9634D01*
Y980D01*
X9636Y970D01*
X9642Y962D01*
X9650Y956D01*
X9660Y954D01*
X9722D01*
Y1012D01*
D02*
G37*
G36*
X3722D02*
X3634D01*
Y980D01*
X3636Y970D01*
X3642Y962D01*
X3650Y956D01*
X3660Y954D01*
X3722D01*
Y1012D01*
D02*
G37*
G36*
X4515Y1101D02*
X4225D01*
X4205Y1098D01*
X4199Y1096D01*
X4150D01*
X4140Y1094D01*
X4132Y1088D01*
X4126Y1080D01*
X4124Y1070D01*
Y980D01*
X4126Y970D01*
X4132Y962D01*
X4140Y956D01*
X4150Y954D01*
X4199D01*
X4205Y952D01*
X4225Y949D01*
X4483D01*
X4791Y641D01*
X4807Y629D01*
X4815Y626D01*
X4825Y622D01*
X4845Y619D01*
X5235D01*
X5255Y622D01*
X5261Y624D01*
X5310D01*
X5320Y626D01*
X5328Y632D01*
X5334Y640D01*
X5336Y650D01*
Y740D01*
X5334Y750D01*
X5328Y758D01*
X5320Y764D01*
X5310Y766D01*
X5261D01*
X5255Y768D01*
X5235Y771D01*
X4877D01*
X4569Y1079D01*
X4553Y1091D01*
X4535Y1098D01*
X4515Y1101D01*
D02*
G37*
G36*
X6015D02*
X5725D01*
X5705Y1098D01*
X5699Y1096D01*
X5650D01*
X5640Y1094D01*
X5632Y1088D01*
X5626Y1080D01*
X5624Y1070D01*
Y980D01*
X5626Y970D01*
X5632Y962D01*
X5640Y956D01*
X5650Y954D01*
X5699D01*
X5705Y952D01*
X5725Y949D01*
X5983D01*
X6291Y641D01*
X6307Y629D01*
X6315Y626D01*
X6325Y622D01*
X6345Y619D01*
X6735D01*
X6755Y622D01*
X6761Y624D01*
X6810D01*
X6820Y626D01*
X6828Y632D01*
X6834Y640D01*
X6836Y650D01*
Y740D01*
X6834Y750D01*
X6828Y758D01*
X6820Y764D01*
X6810Y766D01*
X6761D01*
X6755Y768D01*
X6735Y771D01*
X6377D01*
X6069Y1079D01*
X6053Y1091D01*
X6035Y1098D01*
X6015Y1101D01*
D02*
G37*
G36*
X3015D02*
X2725D01*
X2705Y1098D01*
X2699Y1096D01*
X2650D01*
X2640Y1094D01*
X2632Y1088D01*
X2626Y1080D01*
X2624Y1070D01*
Y980D01*
X2626Y970D01*
X2632Y962D01*
X2640Y956D01*
X2650Y954D01*
X2699D01*
X2705Y952D01*
X2725Y949D01*
X2983D01*
X3291Y641D01*
X3307Y629D01*
X3315Y626D01*
X3325Y622D01*
X3345Y619D01*
X3735D01*
X3755Y622D01*
X3761Y624D01*
X3810D01*
X3820Y626D01*
X3828Y632D01*
X3834Y640D01*
X3836Y650D01*
Y740D01*
X3834Y750D01*
X3828Y758D01*
X3820Y764D01*
X3810Y766D01*
X3761D01*
X3755Y768D01*
X3735Y771D01*
X3377D01*
X3069Y1079D01*
X3053Y1091D01*
X3035Y1098D01*
X3015Y1101D01*
D02*
G37*
G36*
X735Y771D02*
X695D01*
X675Y768D01*
X669Y766D01*
X660D01*
X650Y764D01*
X642Y758D01*
X636Y750D01*
X635Y742D01*
X546Y654D01*
X534Y638D01*
X527Y620D01*
X524Y600D01*
Y400D01*
X527Y380D01*
X534Y362D01*
X546Y346D01*
X646Y246D01*
X662Y234D01*
X670Y231D01*
X680Y227D01*
X700Y224D01*
X753D01*
X755Y222D01*
X777Y213D01*
X800Y210D01*
X823Y213D01*
X845Y222D01*
X863Y237D01*
X878Y255D01*
X887Y277D01*
X890Y300D01*
X887Y323D01*
X878Y345D01*
X863Y363D01*
X845Y378D01*
X823Y387D01*
X800Y390D01*
X777Y387D01*
X755Y378D01*
X753Y376D01*
X732D01*
X676Y432D01*
Y568D01*
X727Y619D01*
X735D01*
X755Y622D01*
X761Y624D01*
X810D01*
X820Y626D01*
X828Y632D01*
X834Y640D01*
X836Y650D01*
Y740D01*
X834Y750D01*
X828Y758D01*
X820Y764D01*
X810Y766D01*
X761D01*
X755Y768D01*
X735Y771D01*
D02*
G37*
G36*
X1515Y1101D02*
X1225D01*
X1205Y1098D01*
X1199Y1096D01*
X1150D01*
X1140Y1094D01*
X1132Y1088D01*
X1126Y1080D01*
X1124Y1070D01*
Y980D01*
X1126Y970D01*
X1132Y962D01*
X1140Y956D01*
X1150Y954D01*
X1199D01*
X1205Y952D01*
X1225Y949D01*
X1483D01*
X1791Y641D01*
X1807Y629D01*
X1815Y626D01*
X1825Y622D01*
X1845Y619D01*
X2235D01*
X2255Y622D01*
X2261Y624D01*
X2310D01*
X2320Y626D01*
X2328Y632D01*
X2334Y640D01*
X2336Y650D01*
Y740D01*
X2334Y750D01*
X2328Y758D01*
X2320Y764D01*
X2310Y766D01*
X2261D01*
X2255Y768D01*
X2235Y771D01*
X1877D01*
X1569Y1079D01*
X1553Y1091D01*
X1535Y1098D01*
X1515Y1101D01*
D02*
G37*
G36*
X7515D02*
X7225D01*
X7205Y1098D01*
X7199Y1096D01*
X7150D01*
X7140Y1094D01*
X7132Y1088D01*
X7126Y1080D01*
X7124Y1070D01*
Y980D01*
X7126Y970D01*
X7132Y962D01*
X7140Y956D01*
X7150Y954D01*
X7199D01*
X7205Y952D01*
X7225Y949D01*
X7483D01*
X7791Y641D01*
X7807Y629D01*
X7815Y626D01*
X7825Y622D01*
X7845Y619D01*
X8235D01*
X8255Y622D01*
X8261Y624D01*
X8310D01*
X8320Y626D01*
X8328Y632D01*
X8334Y640D01*
X8336Y650D01*
Y740D01*
X8334Y750D01*
X8328Y758D01*
X8320Y764D01*
X8310Y766D01*
X8261D01*
X8255Y768D01*
X8235Y771D01*
X7877D01*
X7569Y1079D01*
X7553Y1091D01*
X7535Y1098D01*
X7515Y1101D01*
D02*
G37*
G36*
X2222Y1012D02*
X2134D01*
Y980D01*
X2136Y970D01*
X2142Y962D01*
X2150Y956D01*
X2160Y954D01*
X2222D01*
Y1012D01*
D02*
G37*
G36*
X2336D02*
X2248D01*
Y954D01*
X2310D01*
X2320Y956D01*
X2328Y962D01*
X2334Y970D01*
X2336Y980D01*
Y1012D01*
D02*
G37*
G36*
X836D02*
X748D01*
Y954D01*
X810D01*
X820Y956D01*
X828Y962D01*
X834Y970D01*
X836Y980D01*
Y1012D01*
D02*
G37*
G36*
X9015Y1101D02*
X8725D01*
X8705Y1098D01*
X8699Y1096D01*
X8650D01*
X8640Y1094D01*
X8632Y1088D01*
X8626Y1080D01*
X8624Y1070D01*
Y980D01*
X8626Y970D01*
X8632Y962D01*
X8640Y956D01*
X8650Y954D01*
X8699D01*
X8705Y952D01*
X8725Y949D01*
X8983D01*
X9291Y641D01*
X9307Y629D01*
X9315Y626D01*
X9325Y622D01*
X9345Y619D01*
X9735D01*
X9755Y622D01*
X9761Y624D01*
X9810D01*
X9820Y626D01*
X9828Y632D01*
X9834Y640D01*
X9836Y650D01*
Y740D01*
X9834Y750D01*
X9828Y758D01*
X9820Y764D01*
X9810Y766D01*
X9761D01*
X9755Y768D01*
X9735Y771D01*
X9377D01*
X9069Y1079D01*
X9053Y1091D01*
X9035Y1098D01*
X9015Y1101D01*
D02*
G37*
G36*
X722Y1012D02*
X634D01*
Y980D01*
X636Y970D01*
X642Y962D01*
X650Y956D01*
X660Y954D01*
X722D01*
Y1012D01*
D02*
G37*
G36*
X2088Y1087D02*
X2013D01*
Y1012D01*
X2023Y1013D01*
X2045Y1022D01*
X2063Y1037D01*
X2078Y1055D01*
X2087Y1077D01*
X2088Y1087D01*
D02*
G37*
G36*
X2222Y1096D02*
X2160D01*
X2150Y1094D01*
X2142Y1088D01*
X2136Y1080D01*
X2134Y1070D01*
Y1038D01*
X2222D01*
Y1096D01*
D02*
G37*
G36*
X3722D02*
X3660D01*
X3650Y1094D01*
X3642Y1088D01*
X3636Y1080D01*
X3634Y1070D01*
Y1038D01*
X3722D01*
Y1096D01*
D02*
G37*
G36*
X3810D02*
X3748D01*
Y1038D01*
X3836D01*
Y1070D01*
X3834Y1080D01*
X3828Y1088D01*
X3820Y1094D01*
X3810Y1096D01*
D02*
G37*
G36*
X5222D02*
X5160D01*
X5150Y1094D01*
X5142Y1088D01*
X5136Y1080D01*
X5134Y1070D01*
Y1038D01*
X5222D01*
Y1096D01*
D02*
G37*
G36*
X6722D02*
X6660D01*
X6650Y1094D01*
X6642Y1088D01*
X6636Y1080D01*
X6634Y1070D01*
Y1038D01*
X6722D01*
Y1096D01*
D02*
G37*
G36*
X722D02*
X660D01*
X650Y1094D01*
X642Y1088D01*
X636Y1080D01*
X634Y1070D01*
Y1038D01*
X722D01*
Y1096D01*
D02*
G37*
G36*
X2310D02*
X2248D01*
Y1038D01*
X2336D01*
Y1070D01*
X2334Y1080D01*
X2328Y1088D01*
X2320Y1094D01*
X2310Y1096D01*
D02*
G37*
G36*
X8310D02*
X8248D01*
Y1038D01*
X8336D01*
Y1070D01*
X8334Y1080D01*
X8328Y1088D01*
X8320Y1094D01*
X8310Y1096D01*
D02*
G37*
G36*
X9810D02*
X9748D01*
Y1038D01*
X9836D01*
Y1070D01*
X9834Y1080D01*
X9828Y1088D01*
X9820Y1094D01*
X9810Y1096D01*
D02*
G37*
G36*
X5310D02*
X5248D01*
Y1038D01*
X5336D01*
Y1070D01*
X5334Y1080D01*
X5328Y1088D01*
X5320Y1094D01*
X5310Y1096D01*
D02*
G37*
G36*
X6810D02*
X6748D01*
Y1038D01*
X6836D01*
Y1070D01*
X6834Y1080D01*
X6828Y1088D01*
X6820Y1094D01*
X6810Y1096D01*
D02*
G37*
G36*
X810D02*
X748D01*
Y1038D01*
X836D01*
Y1070D01*
X834Y1080D01*
X828Y1088D01*
X820Y1094D01*
X810Y1096D01*
D02*
G37*
G36*
X5088Y1087D02*
X5013D01*
Y1012D01*
X5023Y1013D01*
X5045Y1022D01*
X5063Y1037D01*
X5078Y1055D01*
X5087Y1077D01*
X5088Y1087D01*
D02*
G37*
G36*
X6487D02*
X6412D01*
X6413Y1077D01*
X6422Y1055D01*
X6437Y1037D01*
X6455Y1022D01*
X6477Y1013D01*
X6487Y1012D01*
Y1087D01*
D02*
G37*
G36*
X6588D02*
X6513D01*
Y1012D01*
X6523Y1013D01*
X6545Y1022D01*
X6563Y1037D01*
X6578Y1055D01*
X6587Y1077D01*
X6588Y1087D01*
D02*
G37*
G36*
X3487D02*
X3412D01*
X3413Y1077D01*
X3422Y1055D01*
X3437Y1037D01*
X3455Y1022D01*
X3477Y1013D01*
X3487Y1012D01*
Y1087D01*
D02*
G37*
G36*
X3588D02*
X3513D01*
Y1012D01*
X3523Y1013D01*
X3545Y1022D01*
X3563Y1037D01*
X3578Y1055D01*
X3587Y1077D01*
X3588Y1087D01*
D02*
G37*
G36*
X4987D02*
X4912D01*
X4913Y1077D01*
X4922Y1055D01*
X4937Y1037D01*
X4955Y1022D01*
X4977Y1013D01*
X4987Y1012D01*
Y1087D01*
D02*
G37*
G36*
X9588D02*
X9513D01*
Y1012D01*
X9523Y1013D01*
X9545Y1022D01*
X9563Y1037D01*
X9578Y1055D01*
X9587Y1077D01*
X9588Y1087D01*
D02*
G37*
G36*
X8222Y1096D02*
X8160D01*
X8150Y1094D01*
X8142Y1088D01*
X8136Y1080D01*
X8134Y1070D01*
Y1038D01*
X8222D01*
Y1096D01*
D02*
G37*
G36*
X9722D02*
X9660D01*
X9650Y1094D01*
X9642Y1088D01*
X9636Y1080D01*
X9634Y1070D01*
Y1038D01*
X9722D01*
Y1096D01*
D02*
G37*
G36*
X7987Y1087D02*
X7912D01*
X7913Y1077D01*
X7922Y1055D01*
X7937Y1037D01*
X7955Y1022D01*
X7977Y1013D01*
X7987Y1012D01*
Y1087D01*
D02*
G37*
G36*
X8088D02*
X8013D01*
Y1012D01*
X8023Y1013D01*
X8045Y1022D01*
X8063Y1037D01*
X8078Y1055D01*
X8087Y1077D01*
X8088Y1087D01*
D02*
G37*
G36*
X9487D02*
X9412D01*
X9413Y1077D01*
X9422Y1055D01*
X9437Y1037D01*
X9455Y1022D01*
X9477Y1013D01*
X9487Y1012D01*
Y1087D01*
D02*
G37*
%LPD*%
D10*
X9735Y695D02*
D03*
Y1025D02*
D03*
X10225D02*
D03*
Y695D02*
D03*
X8235D02*
D03*
Y1025D02*
D03*
X8725D02*
D03*
Y695D02*
D03*
X6735D02*
D03*
Y1025D02*
D03*
X7225D02*
D03*
Y695D02*
D03*
X5235D02*
D03*
Y1025D02*
D03*
X5725D02*
D03*
Y695D02*
D03*
X3735D02*
D03*
Y1025D02*
D03*
X4225D02*
D03*
Y695D02*
D03*
X2235D02*
D03*
Y1025D02*
D03*
X2725D02*
D03*
Y695D02*
D03*
X735D02*
D03*
Y1025D02*
D03*
X1225D02*
D03*
Y695D02*
D03*
D11*
X2725Y515D02*
X2725Y515D01*
X4225D01*
X5725D01*
X7225D01*
X7235Y505D01*
X8725D01*
X8735Y515D01*
X10225D01*
X5725Y515D02*
Y695D01*
X7225Y515D02*
Y695D01*
X8725Y505D02*
Y695D01*
X10225Y515D02*
Y695D01*
X4225Y515D02*
Y695D01*
X2725Y515D02*
Y695D01*
X2715Y505D02*
X2725Y515D01*
X1225Y505D02*
X2715D01*
X1225D02*
Y695D01*
X1515Y1025D02*
X1845Y695D01*
X1225Y1025D02*
X1515D01*
X1845Y695D02*
X2235D01*
X8725Y1025D02*
X9015D01*
X9345Y695D01*
X9735D01*
X7225Y1025D02*
X7515D01*
X7845Y695D01*
X8235D01*
X5725Y1025D02*
X6015D01*
X6345Y695D01*
X6735D01*
X4225Y1025D02*
X4515D01*
X4845Y695D01*
X5235D01*
X2725Y1025D02*
X3015D01*
X3345Y695D01*
X3735D01*
X695D02*
X735D01*
X600Y600D02*
X695Y695D01*
X600Y400D02*
Y600D01*
Y400D02*
X700Y300D01*
X800D01*
D12*
X10400Y0D02*
G03*
X10500Y100I0J100D01*
G01*
Y1200D02*
G03*
X10400Y1300I-100J0D01*
G01*
X100D02*
G03*
X0Y1200I0J-100D01*
G01*
Y100D02*
G03*
X100Y0I100J0D01*
G01*
Y1300D02*
X10400D01*
X10500Y100D02*
Y1200D01*
X0Y100D02*
Y1200D01*
X100Y0D02*
X10400D01*
D13*
X907Y970D02*
X1052D01*
X907Y750D02*
X1052D01*
X907D02*
Y970D01*
X1052Y750D02*
Y970D01*
X2408D02*
X2552D01*
X2408Y750D02*
X2552D01*
X2408D02*
Y970D01*
X2552Y750D02*
Y970D01*
X3908D02*
X4053D01*
X3908Y750D02*
X4053D01*
X3908D02*
Y970D01*
X4053Y750D02*
Y970D01*
X5408D02*
X5553D01*
X5408Y750D02*
X5553D01*
X5408D02*
Y970D01*
X5553Y750D02*
Y970D01*
X6907D02*
X7053D01*
X6907Y750D02*
X7053D01*
X6907D02*
Y970D01*
X7053Y750D02*
Y970D01*
X8407D02*
X8553D01*
X8407Y750D02*
X8553D01*
X8407D02*
Y970D01*
X8553Y750D02*
Y970D01*
X9907D02*
X10053D01*
X9907Y750D02*
X10053D01*
X9907D02*
Y970D01*
X10053Y750D02*
Y970D01*
X10230Y610D02*
Y1110D01*
X9730Y610D02*
Y1110D01*
X10230D01*
X9730Y610D02*
X10230D01*
X8730D02*
Y1110D01*
X8230Y610D02*
Y1110D01*
X8730D01*
X8230Y610D02*
X8730D01*
X7230D02*
Y1110D01*
X6730Y610D02*
Y1110D01*
X7230D01*
X6730Y610D02*
X7230D01*
X5730D02*
Y1110D01*
X5230Y610D02*
Y1110D01*
X5730D01*
X5230Y610D02*
X5730D01*
X4230D02*
Y1110D01*
X3730Y610D02*
Y1110D01*
X4230D01*
X3730Y610D02*
X4230D01*
X2730D02*
Y1110D01*
X2230Y610D02*
Y1110D01*
X2730D01*
X2230Y610D02*
X2730D01*
X1230D02*
Y1110D01*
X730Y610D02*
Y1110D01*
X1230D01*
X730Y610D02*
X1230D01*
D14*
X1700Y250D02*
D03*
D15*
X9450D02*
D03*
D16*
X10225Y515D02*
D03*
X8725Y505D02*
D03*
X7225Y515D02*
D03*
X5725D02*
D03*
X4225D02*
D03*
X2725Y515D02*
D03*
X1225Y505D02*
D03*
X2000Y1100D02*
D03*
X3500D02*
D03*
X5000D02*
D03*
X6500D02*
D03*
X9500D02*
D03*
X8000D02*
D03*
X800Y300D02*
D03*
M02*
