G04 Layer_Color=128*
%FSLAX42Y42*%
%MOMM*%
G71*
G01*
G75*
%ADD12C,0.25*%
%ADD13C,0.10*%
%ADD31C,0.05*%
D12*
X10400Y0D02*
G03*
X10500Y100I0J100D01*
G01*
Y1200D02*
G03*
X10400Y1300I-100J0D01*
G01*
X100D02*
G03*
X0Y1200I0J-100D01*
G01*
Y100D02*
G03*
X100Y0I100J0D01*
G01*
Y1300D02*
X10400D01*
X10500Y100D02*
Y1200D01*
X0Y100D02*
Y1200D01*
X100Y0D02*
X10400D01*
D13*
X907Y970D02*
X1052D01*
X907Y750D02*
X1052D01*
X907D02*
Y970D01*
X1052Y750D02*
Y970D01*
X2408D02*
X2552D01*
X2408Y750D02*
X2552D01*
X2408D02*
Y970D01*
X2552Y750D02*
Y970D01*
X3908D02*
X4053D01*
X3908Y750D02*
X4053D01*
X3908D02*
Y970D01*
X4053Y750D02*
Y970D01*
X5408D02*
X5553D01*
X5408Y750D02*
X5553D01*
X5408D02*
Y970D01*
X5553Y750D02*
Y970D01*
X6907D02*
X7053D01*
X6907Y750D02*
X7053D01*
X6907D02*
Y970D01*
X7053Y750D02*
Y970D01*
X8407D02*
X8553D01*
X8407Y750D02*
X8553D01*
X8407D02*
Y970D01*
X8553Y750D02*
Y970D01*
X9907D02*
X10053D01*
X9907Y750D02*
X10053D01*
X9907D02*
Y970D01*
X10053Y750D02*
Y970D01*
X10230Y610D02*
Y1110D01*
X9730Y610D02*
Y1110D01*
X10230D01*
X9730Y610D02*
X10230D01*
X8730D02*
Y1110D01*
X8230Y610D02*
Y1110D01*
X8730D01*
X8230Y610D02*
X8730D01*
X7230D02*
Y1110D01*
X6730Y610D02*
Y1110D01*
X7230D01*
X6730Y610D02*
X7230D01*
X5730D02*
Y1110D01*
X5230Y610D02*
Y1110D01*
X5730D01*
X5230Y610D02*
X5730D01*
X4230D02*
Y1110D01*
X3730Y610D02*
Y1110D01*
X4230D01*
X3730Y610D02*
X4230D01*
X2730D02*
Y1110D01*
X2230Y610D02*
Y1110D01*
X2730D01*
X2230Y610D02*
X2730D01*
X1230D02*
Y1110D01*
X730Y610D02*
Y1110D01*
X1230D01*
X730Y610D02*
X1230D01*
D31*
X1600Y250D02*
X1800D01*
X1700Y150D02*
Y350D01*
X9350Y250D02*
X9550D01*
X9450Y150D02*
Y350D01*
X10189Y515D02*
X10261D01*
X10225Y479D02*
Y551D01*
X8689Y505D02*
X8761D01*
X8725Y469D02*
Y541D01*
X7189Y515D02*
X7261D01*
X7225Y479D02*
Y551D01*
X5689Y515D02*
X5761D01*
X5725Y479D02*
Y551D01*
X4189Y515D02*
X4261D01*
X4225Y479D02*
Y551D01*
X2689Y515D02*
X2761D01*
X2725Y479D02*
Y551D01*
X1189Y505D02*
X1261D01*
X1225Y469D02*
Y541D01*
X1964Y1100D02*
X2036D01*
X2000Y1064D02*
Y1136D01*
X3464Y1100D02*
X3536D01*
X3500Y1064D02*
Y1136D01*
X4964Y1100D02*
X5036D01*
X5000Y1064D02*
Y1136D01*
X6464Y1100D02*
X6536D01*
X6500Y1064D02*
Y1136D01*
X9464Y1100D02*
X9536D01*
X9500Y1064D02*
Y1136D01*
X7964Y1100D02*
X8036D01*
X8000Y1064D02*
Y1136D01*
X764Y300D02*
X836D01*
X800Y264D02*
Y336D01*
M02*
