G04 Layer_Physical_Order=2*
G04 Layer_Color=16711680*
%FSLAX42Y42*%
%MOMM*%
G71*
G01*
G75*
%ADD11C,1.00*%
%ADD12C,3.50*%
%ADD13O,3.50X3.54*%
%ADD14C,1.27*%
%ADD15R,3.00X1.50*%
%ADD16R,1.35X0.95*%
G36*
X10270Y747D02*
X10286Y736D01*
X10297Y720D01*
X10301Y701D01*
X10300Y700D01*
X10300D01*
X10301Y100D01*
X10297Y80D01*
X10286Y64D01*
X10270Y53D01*
X10251Y49D01*
X10250Y50D01*
Y50D01*
X887Y49D01*
X886Y62D01*
X898Y63D01*
X920Y72D01*
X938Y87D01*
X953Y105D01*
X962Y127D01*
X965Y150D01*
X962Y173D01*
X953Y195D01*
X951Y197D01*
Y247D01*
X968D01*
Y393D01*
X920D01*
X919Y394D01*
X926Y407D01*
X968D01*
Y467D01*
X875D01*
Y493D01*
X968D01*
Y553D01*
X881D01*
X879Y566D01*
X895Y572D01*
X913Y587D01*
X928Y605D01*
X937Y627D01*
X938Y637D01*
X762D01*
X763Y627D01*
X772Y605D01*
X787Y587D01*
X805Y572D01*
X821Y566D01*
X819Y553D01*
X782D01*
Y475D01*
X770Y471D01*
X562Y679D01*
X546Y691D01*
X528Y698D01*
X508Y701D01*
X450D01*
Y725D01*
X100D01*
Y525D01*
X450D01*
Y549D01*
X477D01*
X722Y303D01*
X738Y291D01*
X757Y284D01*
X776Y281D01*
X782D01*
Y247D01*
X799D01*
Y197D01*
X797Y195D01*
X788Y173D01*
X785Y150D01*
X788Y127D01*
X797Y105D01*
X812Y87D01*
X830Y72D01*
X852Y63D01*
X864Y62D01*
X863Y49D01*
X726Y49D01*
X719Y60D01*
X722Y67D01*
X725Y90D01*
X722Y113D01*
X713Y135D01*
X698Y153D01*
X680Y168D01*
X658Y177D01*
X635Y180D01*
X629Y179D01*
X579Y229D01*
X563Y241D01*
X545Y248D01*
X525Y251D01*
X450D01*
Y275D01*
X100D01*
Y75D01*
X450D01*
Y99D01*
X493D01*
X532Y61D01*
X527Y49D01*
X100Y49D01*
X80Y53D01*
X64Y64D01*
X53Y80D01*
X49Y99D01*
X50Y100D01*
X50D01*
X49Y700D01*
X53Y720D01*
X64Y736D01*
X80Y747D01*
X99Y751D01*
X100Y750D01*
Y750D01*
X831D01*
X832Y737D01*
X827Y737D01*
X805Y728D01*
X787Y713D01*
X772Y695D01*
X763Y673D01*
X762Y663D01*
X938D01*
X937Y673D01*
X928Y695D01*
X913Y713D01*
X895Y728D01*
X873Y737D01*
X868Y737D01*
X869Y750D01*
X10250D01*
Y750D01*
X10251Y751D01*
X10270Y747D01*
D02*
G37*
%LPC*%
G36*
X3523Y552D02*
X3448D01*
Y477D01*
X3458Y478D01*
X3480Y487D01*
X3498Y502D01*
X3513Y520D01*
X3522Y542D01*
X3523Y552D01*
D02*
G37*
G36*
X4927D02*
X4852D01*
X4853Y542D01*
X4862Y520D01*
X4877Y502D01*
X4895Y487D01*
X4917Y478D01*
X4927Y477D01*
Y552D01*
D02*
G37*
G36*
X5028D02*
X4953D01*
Y477D01*
X4963Y478D01*
X4985Y487D01*
X5003Y502D01*
X5018Y520D01*
X5027Y542D01*
X5028Y552D01*
D02*
G37*
G36*
X1922D02*
X1847D01*
X1848Y542D01*
X1857Y520D01*
X1872Y502D01*
X1890Y487D01*
X1912Y478D01*
X1922Y477D01*
Y552D01*
D02*
G37*
G36*
X2023D02*
X1948D01*
Y477D01*
X1958Y478D01*
X1980Y487D01*
X1998Y502D01*
X2013Y520D01*
X2022Y542D01*
X2023Y552D01*
D02*
G37*
G36*
X3422D02*
X3347D01*
X3348Y542D01*
X3357Y520D01*
X3372Y502D01*
X3390Y487D01*
X3412Y478D01*
X3422Y477D01*
Y552D01*
D02*
G37*
G36*
X8023D02*
X7948D01*
Y477D01*
X7958Y478D01*
X7980Y487D01*
X7998Y502D01*
X8013Y520D01*
X8022Y542D01*
X8023Y552D01*
D02*
G37*
G36*
X9422D02*
X9347D01*
X9348Y542D01*
X9357Y520D01*
X9372Y502D01*
X9390Y487D01*
X9412Y478D01*
X9422Y477D01*
Y552D01*
D02*
G37*
G36*
X9523D02*
X9448D01*
Y477D01*
X9458Y478D01*
X9480Y487D01*
X9498Y502D01*
X9513Y520D01*
X9522Y542D01*
X9523Y552D01*
D02*
G37*
G36*
X6422D02*
X6347D01*
X6348Y542D01*
X6357Y520D01*
X6372Y502D01*
X6390Y487D01*
X6412Y478D01*
X6422Y477D01*
Y552D01*
D02*
G37*
G36*
X6523D02*
X6448D01*
Y477D01*
X6458Y478D01*
X6480Y487D01*
X6498Y502D01*
X6513Y520D01*
X6522Y542D01*
X6523Y552D01*
D02*
G37*
G36*
X7922D02*
X7847D01*
X7848Y542D01*
X7857Y520D01*
X7872Y502D01*
X7890Y487D01*
X7912Y478D01*
X7922Y477D01*
Y552D01*
D02*
G37*
G36*
X3973Y467D02*
X3787D01*
Y407D01*
X3853D01*
X3857Y394D01*
X3855Y393D01*
X3787D01*
Y247D01*
X3804D01*
Y202D01*
X3802Y200D01*
X3793Y178D01*
X3790Y155D01*
X3793Y132D01*
X3802Y110D01*
X3817Y92D01*
X3835Y77D01*
X3857Y68D01*
X3880Y65D01*
X3903Y68D01*
X3925Y77D01*
X3943Y92D01*
X3958Y110D01*
X3967Y132D01*
X3970Y155D01*
X3967Y178D01*
X3958Y200D01*
X3956Y202D01*
Y247D01*
X3973D01*
Y393D01*
X3905D01*
X3903Y394D01*
X3907Y407D01*
X3973D01*
Y467D01*
D02*
G37*
G36*
X5473D02*
X5287D01*
Y407D01*
X5353D01*
X5357Y394D01*
X5355Y393D01*
X5287D01*
Y247D01*
X5304D01*
Y202D01*
X5302Y200D01*
X5293Y178D01*
X5290Y155D01*
X5293Y132D01*
X5302Y110D01*
X5317Y92D01*
X5335Y77D01*
X5357Y68D01*
X5380Y65D01*
X5403Y68D01*
X5425Y77D01*
X5443Y92D01*
X5458Y110D01*
X5467Y132D01*
X5470Y155D01*
X5467Y178D01*
X5458Y200D01*
X5456Y202D01*
Y247D01*
X5473D01*
Y393D01*
X5405D01*
X5403Y394D01*
X5407Y407D01*
X5473D01*
Y467D01*
D02*
G37*
G36*
X6973D02*
X6787D01*
Y407D01*
X6853D01*
X6857Y394D01*
X6855Y393D01*
X6787D01*
Y247D01*
X6804D01*
Y202D01*
X6802Y200D01*
X6793Y178D01*
X6790Y155D01*
X6793Y132D01*
X6802Y110D01*
X6817Y92D01*
X6835Y77D01*
X6857Y68D01*
X6880Y65D01*
X6903Y68D01*
X6925Y77D01*
X6943Y92D01*
X6958Y110D01*
X6967Y132D01*
X6970Y155D01*
X6967Y178D01*
X6958Y200D01*
X6956Y202D01*
Y247D01*
X6973D01*
Y393D01*
X6905D01*
X6903Y394D01*
X6907Y407D01*
X6973D01*
Y467D01*
D02*
G37*
G36*
X2473D02*
X2287D01*
Y407D01*
X2353D01*
X2357Y394D01*
X2355Y393D01*
X2287D01*
Y247D01*
X2304D01*
Y202D01*
X2302Y200D01*
X2293Y178D01*
X2290Y155D01*
X2293Y132D01*
X2302Y110D01*
X2317Y92D01*
X2335Y77D01*
X2357Y68D01*
X2380Y65D01*
X2403Y68D01*
X2425Y77D01*
X2443Y92D01*
X2458Y110D01*
X2467Y132D01*
X2470Y155D01*
X2467Y178D01*
X2458Y200D01*
X2456Y202D01*
Y247D01*
X2473D01*
Y393D01*
X2405D01*
X2403Y394D01*
X2407Y407D01*
X2473D01*
Y467D01*
D02*
G37*
G36*
X8473D02*
X8287D01*
Y407D01*
X8353D01*
X8357Y394D01*
X8355Y393D01*
X8287D01*
Y247D01*
X8304D01*
Y202D01*
X8302Y200D01*
X8293Y178D01*
X8290Y155D01*
X8293Y132D01*
X8302Y110D01*
X8317Y92D01*
X8335Y77D01*
X8357Y68D01*
X8380Y65D01*
X8403Y68D01*
X8425Y77D01*
X8443Y92D01*
X8458Y110D01*
X8467Y132D01*
X8470Y155D01*
X8467Y178D01*
X8458Y200D01*
X8456Y202D01*
Y247D01*
X8473D01*
Y393D01*
X8405D01*
X8403Y394D01*
X8407Y407D01*
X8473D01*
Y467D01*
D02*
G37*
G36*
X9973D02*
X9787D01*
Y407D01*
X9853D01*
X9857Y394D01*
X9855Y393D01*
X9787D01*
Y247D01*
X9804D01*
Y202D01*
X9802Y200D01*
X9793Y178D01*
X9790Y155D01*
X9793Y132D01*
X9802Y110D01*
X9817Y92D01*
X9835Y77D01*
X9857Y68D01*
X9880Y65D01*
X9903Y68D01*
X9925Y77D01*
X9943Y92D01*
X9958Y110D01*
X9967Y132D01*
X9970Y155D01*
X9967Y178D01*
X9958Y200D01*
X9956Y202D01*
Y247D01*
X9973D01*
Y393D01*
X9905D01*
X9903Y394D01*
X9907Y407D01*
X9973D01*
Y467D01*
D02*
G37*
G36*
X450Y387D02*
X288D01*
Y300D01*
X450D01*
Y387D01*
D02*
G37*
G36*
X262Y500D02*
X100D01*
Y413D01*
X262D01*
Y500D01*
D02*
G37*
G36*
X450D02*
X288D01*
Y413D01*
X450D01*
Y500D01*
D02*
G37*
G36*
X9125Y703D02*
X9086Y700D01*
X9048Y688D01*
X9013Y669D01*
X8983Y644D01*
X8958Y614D01*
X8939Y579D01*
X8928Y541D01*
X8924Y502D01*
Y498D01*
X8928Y459D01*
X8939Y421D01*
X8958Y386D01*
X8983Y356D01*
X9013Y331D01*
X9048Y312D01*
X9086Y301D01*
X9125Y297D01*
X9164Y301D01*
X9202Y312D01*
X9237Y331D01*
X9267Y356D01*
X9292Y386D01*
X9311Y421D01*
X9323Y459D01*
X9326Y498D01*
Y502D01*
X9323Y541D01*
X9311Y579D01*
X9292Y614D01*
X9267Y644D01*
X9237Y669D01*
X9202Y688D01*
X9164Y700D01*
X9125Y703D01*
D02*
G37*
G36*
X1625Y701D02*
X1586Y698D01*
X1548Y686D01*
X1513Y667D01*
X1483Y642D01*
X1458Y612D01*
X1439Y577D01*
X1427Y539D01*
X1424Y500D01*
X1427Y461D01*
X1439Y423D01*
X1458Y388D01*
X1483Y358D01*
X1513Y333D01*
X1548Y314D01*
X1586Y303D01*
X1625Y299D01*
X1664Y303D01*
X1702Y314D01*
X1737Y333D01*
X1767Y358D01*
X1792Y388D01*
X1811Y423D01*
X1823Y461D01*
X1826Y500D01*
X1823Y539D01*
X1811Y577D01*
X1792Y612D01*
X1767Y642D01*
X1737Y667D01*
X1702Y686D01*
X1664Y698D01*
X1625Y701D01*
D02*
G37*
G36*
X262Y387D02*
X100D01*
Y300D01*
X262D01*
Y387D01*
D02*
G37*
G36*
X3448Y653D02*
Y578D01*
X3523D01*
X3522Y588D01*
X3513Y610D01*
X3498Y628D01*
X3480Y643D01*
X3458Y652D01*
X3448Y653D01*
D02*
G37*
G36*
X4927D02*
X4917Y652D01*
X4895Y643D01*
X4877Y628D01*
X4862Y610D01*
X4853Y588D01*
X4852Y578D01*
X4927D01*
Y653D01*
D02*
G37*
G36*
X4953D02*
Y578D01*
X5028D01*
X5027Y588D01*
X5018Y610D01*
X5003Y628D01*
X4985Y643D01*
X4963Y652D01*
X4953Y653D01*
D02*
G37*
G36*
X1922D02*
X1912Y652D01*
X1890Y643D01*
X1872Y628D01*
X1857Y610D01*
X1848Y588D01*
X1847Y578D01*
X1922D01*
Y653D01*
D02*
G37*
G36*
X1948D02*
Y578D01*
X2023D01*
X2022Y588D01*
X2013Y610D01*
X1998Y628D01*
X1980Y643D01*
X1958Y652D01*
X1948Y653D01*
D02*
G37*
G36*
X3422D02*
X3412Y652D01*
X3390Y643D01*
X3372Y628D01*
X3357Y610D01*
X3348Y588D01*
X3347Y578D01*
X3422D01*
Y653D01*
D02*
G37*
G36*
X7948D02*
Y578D01*
X8023D01*
X8022Y588D01*
X8013Y610D01*
X7998Y628D01*
X7980Y643D01*
X7958Y652D01*
X7948Y653D01*
D02*
G37*
G36*
X9422D02*
X9412Y652D01*
X9390Y643D01*
X9372Y628D01*
X9357Y610D01*
X9348Y588D01*
X9347Y578D01*
X9422D01*
Y653D01*
D02*
G37*
G36*
X9448D02*
Y578D01*
X9523D01*
X9522Y588D01*
X9513Y610D01*
X9498Y628D01*
X9480Y643D01*
X9458Y652D01*
X9448Y653D01*
D02*
G37*
G36*
X6422D02*
X6412Y652D01*
X6390Y643D01*
X6372Y628D01*
X6357Y610D01*
X6348Y588D01*
X6347Y578D01*
X6422D01*
Y653D01*
D02*
G37*
G36*
X6448D02*
Y578D01*
X6523D01*
X6522Y588D01*
X6513Y610D01*
X6498Y628D01*
X6480Y643D01*
X6458Y652D01*
X6448Y653D01*
D02*
G37*
G36*
X7922D02*
X7912Y652D01*
X7890Y643D01*
X7872Y628D01*
X7857Y610D01*
X7848Y588D01*
X7847Y578D01*
X7922D01*
Y653D01*
D02*
G37*
G36*
X3973Y553D02*
X3893D01*
Y493D01*
X3973D01*
Y553D01*
D02*
G37*
G36*
X5367D02*
X5287D01*
Y493D01*
X5367D01*
Y553D01*
D02*
G37*
G36*
X5473D02*
X5393D01*
Y493D01*
X5473D01*
Y553D01*
D02*
G37*
G36*
X2367D02*
X2287D01*
Y493D01*
X2367D01*
Y553D01*
D02*
G37*
G36*
X2473D02*
X2393D01*
Y493D01*
X2473D01*
Y553D01*
D02*
G37*
G36*
X3867D02*
X3787D01*
Y493D01*
X3867D01*
Y553D01*
D02*
G37*
G36*
X8473D02*
X8393D01*
Y493D01*
X8473D01*
Y553D01*
D02*
G37*
G36*
X9867D02*
X9787D01*
Y493D01*
X9867D01*
Y553D01*
D02*
G37*
G36*
X9973D02*
X9893D01*
Y493D01*
X9973D01*
Y553D01*
D02*
G37*
G36*
X6867D02*
X6787D01*
Y493D01*
X6867D01*
Y553D01*
D02*
G37*
G36*
X6973D02*
X6893D01*
Y493D01*
X6973D01*
Y553D01*
D02*
G37*
G36*
X8367D02*
X8287D01*
Y493D01*
X8367D01*
Y553D01*
D02*
G37*
%LPD*%
D11*
X275Y175D02*
X525D01*
X610Y90D01*
X635D01*
X275Y625D02*
X508D01*
X776Y357D01*
X838D01*
X875Y320D01*
Y150D02*
Y320D01*
X2380Y155D02*
Y320D01*
X3880Y155D02*
Y320D01*
X5380Y155D02*
Y320D01*
X6880Y155D02*
Y320D01*
X8380Y155D02*
Y320D01*
X9880Y155D02*
Y320D01*
D12*
X1625Y500D02*
D03*
D13*
X9125D02*
D03*
D14*
X635Y90D02*
D03*
X1935Y565D02*
D03*
X850Y650D02*
D03*
X3435Y565D02*
D03*
X4940D02*
D03*
X6435D02*
D03*
X7935D02*
D03*
X9435D02*
D03*
X2380Y155D02*
D03*
X3880Y155D02*
D03*
X5380D02*
D03*
X6880D02*
D03*
X8380Y155D02*
D03*
X9880D02*
D03*
X875Y150D02*
D03*
D15*
X275Y175D02*
D03*
Y400D02*
D03*
Y625D02*
D03*
D16*
X9880Y480D02*
D03*
Y320D02*
D03*
X8380Y480D02*
D03*
Y320D02*
D03*
X6880Y480D02*
D03*
Y320D02*
D03*
X5380Y480D02*
D03*
Y320D02*
D03*
X3880Y480D02*
D03*
Y320D02*
D03*
X2380Y480D02*
D03*
Y320D02*
D03*
X875Y480D02*
D03*
Y320D02*
D03*
M02*
