G04 Layer_Color=8421504*
%FSLAX42Y42*%
%MOMM*%
G71*
G01*
G75*
%ADD10R,1.50X0.90*%
%ADD12C,0.25*%
%ADD13C,0.10*%
D10*
X9735Y695D02*
D03*
Y1025D02*
D03*
X10225D02*
D03*
Y695D02*
D03*
X8235D02*
D03*
Y1025D02*
D03*
X8725D02*
D03*
Y695D02*
D03*
X6735D02*
D03*
Y1025D02*
D03*
X7225D02*
D03*
Y695D02*
D03*
X5235D02*
D03*
Y1025D02*
D03*
X5725D02*
D03*
Y695D02*
D03*
X3735D02*
D03*
Y1025D02*
D03*
X4225D02*
D03*
Y695D02*
D03*
X2235D02*
D03*
Y1025D02*
D03*
X2725D02*
D03*
Y695D02*
D03*
X735D02*
D03*
Y1025D02*
D03*
X1225D02*
D03*
Y695D02*
D03*
D12*
X10400Y0D02*
G03*
X10500Y100I0J100D01*
G01*
Y1200D02*
G03*
X10400Y1300I-100J0D01*
G01*
X100D02*
G03*
X0Y1200I0J-100D01*
G01*
Y100D02*
G03*
X100Y0I100J0D01*
G01*
Y1300D02*
X10400D01*
X10500Y100D02*
Y1200D01*
X0Y100D02*
Y1200D01*
X100Y0D02*
X10400D01*
D13*
X907Y970D02*
X1052D01*
X907Y750D02*
X1052D01*
X907D02*
Y970D01*
X1052Y750D02*
Y970D01*
X2408D02*
X2552D01*
X2408Y750D02*
X2552D01*
X2408D02*
Y970D01*
X2552Y750D02*
Y970D01*
X3908D02*
X4053D01*
X3908Y750D02*
X4053D01*
X3908D02*
Y970D01*
X4053Y750D02*
Y970D01*
X5408D02*
X5553D01*
X5408Y750D02*
X5553D01*
X5408D02*
Y970D01*
X5553Y750D02*
Y970D01*
X6907D02*
X7053D01*
X6907Y750D02*
X7053D01*
X6907D02*
Y970D01*
X7053Y750D02*
Y970D01*
X8407D02*
X8553D01*
X8407Y750D02*
X8553D01*
X8407D02*
Y970D01*
X8553Y750D02*
Y970D01*
X9907D02*
X10053D01*
X9907Y750D02*
X10053D01*
X9907D02*
Y970D01*
X10053Y750D02*
Y970D01*
X10230Y610D02*
Y1110D01*
X9730Y610D02*
Y1110D01*
X10230D01*
X9730Y610D02*
X10230D01*
X8730D02*
Y1110D01*
X8230Y610D02*
Y1110D01*
X8730D01*
X8230Y610D02*
X8730D01*
X7230D02*
Y1110D01*
X6730Y610D02*
Y1110D01*
X7230D01*
X6730Y610D02*
X7230D01*
X5730D02*
Y1110D01*
X5230Y610D02*
Y1110D01*
X5730D01*
X5230Y610D02*
X5730D01*
X4230D02*
Y1110D01*
X3730Y610D02*
Y1110D01*
X4230D01*
X3730Y610D02*
X4230D01*
X2730D02*
Y1110D01*
X2230Y610D02*
Y1110D01*
X2730D01*
X2230Y610D02*
X2730D01*
X1230D02*
Y1110D01*
X730Y610D02*
Y1110D01*
X1230D01*
X730Y610D02*
X1230D01*
M02*
