G04 Layer_Color=65535*
%FSLAX42Y42*%
%MOMM*%
G71*
G01*
G75*
%ADD12C,0.25*%
%ADD13C,0.10*%
%ADD21C,0.25*%
%ADD22C,0.20*%
D12*
X9680Y512D02*
Y385D01*
X9705Y360D01*
X9756D01*
X9782Y385D01*
Y512D01*
X9832D02*
X9934D01*
Y487D01*
X9832Y385D01*
Y360D01*
X8180Y512D02*
Y385D01*
X8205Y360D01*
X8256D01*
X8282Y385D01*
Y512D01*
X8434D02*
X8383Y487D01*
X8332Y436D01*
Y385D01*
X8358Y360D01*
X8409D01*
X8434Y385D01*
Y411D01*
X8409Y436D01*
X8332D01*
X6680Y512D02*
Y385D01*
X6705Y360D01*
X6756D01*
X6782Y385D01*
Y512D01*
X6934D02*
X6832D01*
Y436D01*
X6883Y462D01*
X6909D01*
X6934Y436D01*
Y385D01*
X6909Y360D01*
X6858D01*
X6832Y385D01*
X5180Y512D02*
Y385D01*
X5205Y360D01*
X5256D01*
X5282Y385D01*
Y512D01*
X5409Y360D02*
Y512D01*
X5332Y436D01*
X5434D01*
X3680Y512D02*
Y385D01*
X3705Y360D01*
X3756D01*
X3782Y385D01*
Y512D01*
X3832Y487D02*
X3858Y512D01*
X3909D01*
X3934Y487D01*
Y462D01*
X3909Y436D01*
X3883D01*
X3909D01*
X3934Y411D01*
Y385D01*
X3909Y360D01*
X3858D01*
X3832Y385D01*
X2180Y512D02*
Y385D01*
X2205Y360D01*
X2256D01*
X2282Y385D01*
Y512D01*
X2434Y360D02*
X2332D01*
X2434Y462D01*
Y487D01*
X2409Y512D01*
X2358D01*
X2332Y487D01*
X680Y512D02*
Y385D01*
X705Y360D01*
X756D01*
X782Y385D01*
Y512D01*
X832Y360D02*
X883D01*
X858D01*
Y512D01*
X832Y487D01*
X10400Y0D02*
G03*
X10500Y100I0J100D01*
G01*
Y1200D02*
G03*
X10400Y1300I-100J0D01*
G01*
X100D02*
G03*
X0Y1200I0J-100D01*
G01*
Y100D02*
G03*
X100Y0I100J0D01*
G01*
Y1300D02*
X10400D01*
X10500Y100D02*
Y1200D01*
X0Y100D02*
Y1200D01*
X100Y0D02*
X10400D01*
D13*
X907Y970D02*
X1052D01*
X907Y750D02*
X1052D01*
X907D02*
Y970D01*
X1052Y750D02*
Y970D01*
X2408D02*
X2552D01*
X2408Y750D02*
X2552D01*
X2408D02*
Y970D01*
X2552Y750D02*
Y970D01*
X3908D02*
X4053D01*
X3908Y750D02*
X4053D01*
X3908D02*
Y970D01*
X4053Y750D02*
Y970D01*
X5408D02*
X5553D01*
X5408Y750D02*
X5553D01*
X5408D02*
Y970D01*
X5553Y750D02*
Y970D01*
X6907D02*
X7053D01*
X6907Y750D02*
X7053D01*
X6907D02*
Y970D01*
X7053Y750D02*
Y970D01*
X8407D02*
X8553D01*
X8407Y750D02*
X8553D01*
X8407D02*
Y970D01*
X8553Y750D02*
Y970D01*
X9907D02*
X10053D01*
X9907Y750D02*
X10053D01*
X9907D02*
Y970D01*
X10053Y750D02*
Y970D01*
X10230Y610D02*
Y1110D01*
X9730Y610D02*
Y1110D01*
X10230D01*
X9730Y610D02*
X10230D01*
X8730D02*
Y1110D01*
X8230Y610D02*
Y1110D01*
X8730D01*
X8230Y610D02*
X8730D01*
X7230D02*
Y1110D01*
X6730Y610D02*
Y1110D01*
X7230D01*
X6730Y610D02*
X7230D01*
X5730D02*
Y1110D01*
X5230Y610D02*
Y1110D01*
X5730D01*
X5230Y610D02*
X5730D01*
X4230D02*
Y1110D01*
X3730Y610D02*
Y1110D01*
X4230D01*
X3730Y610D02*
X4230D01*
X2730D02*
Y1110D01*
X2230Y610D02*
Y1110D01*
X2730D01*
X2230Y610D02*
X2730D01*
X1230D02*
Y1110D01*
X730Y610D02*
Y1110D01*
X1230D01*
X730Y610D02*
X1230D01*
D21*
X10368Y695D02*
G03*
X10368Y695I-12J0D01*
G01*
X8868D02*
G03*
X8868Y695I-12J0D01*
G01*
X7368D02*
G03*
X7368Y695I-12J0D01*
G01*
X5867D02*
G03*
X5867Y695I-12J0D01*
G01*
X4367D02*
G03*
X4367Y695I-12J0D01*
G01*
X2867D02*
G03*
X2867Y695I-12J0D01*
G01*
X1368D02*
G03*
X1368Y695I-12J0D01*
G01*
D22*
X10230Y780D02*
Y940D01*
X9730Y1110D02*
X10230D01*
X9730Y780D02*
Y940D01*
Y610D02*
X10230D01*
X8730Y780D02*
Y940D01*
X8230Y1110D02*
X8730D01*
X8230Y780D02*
Y940D01*
Y610D02*
X8730D01*
X7230Y780D02*
Y940D01*
X6730Y1110D02*
X7230D01*
X6730Y780D02*
Y940D01*
Y610D02*
X7230D01*
X5730Y780D02*
Y940D01*
X5230Y1110D02*
X5730D01*
X5230Y780D02*
Y940D01*
Y610D02*
X5730D01*
X4230Y780D02*
Y940D01*
X3730Y1110D02*
X4230D01*
X3730Y780D02*
Y940D01*
Y610D02*
X4230D01*
X2730Y780D02*
Y940D01*
X2230Y1110D02*
X2730D01*
X2230Y780D02*
Y940D01*
Y610D02*
X2730D01*
X1230Y780D02*
Y940D01*
X730Y1110D02*
X1230D01*
X730Y780D02*
Y940D01*
Y610D02*
X1230D01*
M02*
