G04 Layer_Color=32896*
%FSLAX42Y42*%
%MOMM*%
G71*
G01*
G75*
%ADD18C,0.20*%
%ADD19C,0.25*%
D18*
X9938Y395D02*
Y405D01*
X9822Y395D02*
Y405D01*
X8438Y395D02*
Y405D01*
X8322Y395D02*
Y405D01*
X6938Y395D02*
Y405D01*
X6822Y395D02*
Y405D01*
X5438Y395D02*
Y405D01*
X5322Y395D02*
Y405D01*
X3938Y395D02*
Y405D01*
X3822Y395D02*
Y405D01*
X2438Y395D02*
Y405D01*
X2323Y395D02*
Y405D01*
X932Y395D02*
Y405D01*
X818Y395D02*
Y405D01*
X583Y675D02*
X650D01*
Y625D01*
X617Y642D01*
X600D01*
X583Y625D01*
Y592D01*
X600Y575D01*
X633D01*
X650Y592D01*
X550Y675D02*
Y608D01*
X517Y575D01*
X483Y608D01*
Y675D01*
X683Y433D02*
X700Y450D01*
X733D01*
X750Y433D01*
Y367D01*
X733Y350D01*
X700D01*
X683Y367D01*
Y400D01*
X717D01*
X650Y350D02*
Y450D01*
X583Y350D01*
Y450D01*
X550D02*
Y350D01*
X500D01*
X483Y367D01*
Y433D01*
X500Y450D01*
X550D01*
X725Y225D02*
Y125D01*
X675D01*
X658Y142D01*
Y208D01*
X675Y225D01*
X725D01*
X625D02*
X592D01*
X608D01*
Y125D01*
X625D01*
X592D01*
X542D02*
Y225D01*
X475Y125D01*
Y225D01*
X7775D02*
X7808D01*
X7825Y208D01*
Y142D01*
X7808Y125D01*
X7775D01*
X7758Y142D01*
Y208D01*
X7775Y225D01*
X7708Y208D02*
Y192D01*
X7725D01*
X7692D01*
X7708D01*
Y142D01*
X7692Y125D01*
X7642Y225D02*
Y125D01*
Y175D01*
X7625Y192D01*
X7592D01*
X7575Y175D01*
Y125D01*
X7542D02*
Y192D01*
X7492D01*
X7475Y175D01*
Y125D01*
X7442D02*
X7408D01*
X7425D01*
Y192D01*
X7442D01*
X7308Y125D02*
X7342D01*
X7358Y142D01*
Y175D01*
X7342Y192D01*
X7308D01*
X7292Y175D01*
Y158D01*
X7358D01*
X7259Y125D02*
X7225D01*
X7242D01*
Y225D01*
X7259D01*
X7075D02*
Y125D01*
Y158D01*
X7009Y225D01*
X7059Y175D01*
X7009Y125D01*
X6959D02*
X6925D01*
X6909Y142D01*
Y175D01*
X6925Y192D01*
X6959D01*
X6975Y175D01*
Y142D01*
X6959Y125D01*
X6875D02*
Y192D01*
X6825D01*
X6809Y175D01*
Y125D01*
X6759Y192D02*
X6725D01*
X6709Y175D01*
Y125D01*
X6759D01*
X6775Y142D01*
X6759Y158D01*
X6709D01*
X6675Y125D02*
Y192D01*
X6625D01*
X6609Y175D01*
Y125D01*
X6409Y225D02*
X6475D01*
Y125D01*
X6409D01*
X6475Y175D02*
X6442D01*
X6309Y208D02*
X6325Y225D01*
X6359D01*
X6375Y208D01*
Y142D01*
X6359Y125D01*
X6325D01*
X6309Y142D01*
X6209Y225D02*
X6276D01*
Y125D01*
X6209D01*
X6276Y175D02*
X6242D01*
X6009Y125D02*
X6076D01*
X6009Y192D01*
Y208D01*
X6026Y225D01*
X6059D01*
X6076Y208D01*
X5976D02*
X5959Y225D01*
X5926D01*
X5909Y208D01*
Y142D01*
X5926Y125D01*
X5959D01*
X5976Y142D01*
Y208D01*
X5876Y125D02*
X5842D01*
X5859D01*
Y225D01*
X5876Y208D01*
X5792Y225D02*
X5726D01*
Y208D01*
X5792Y142D01*
Y125D01*
X9625D02*
Y225D01*
X9558Y125D01*
Y225D01*
X9525Y125D02*
Y225D01*
X9475D01*
X9458Y208D01*
Y175D01*
X9475Y158D01*
X9525D01*
X9358Y208D02*
X9375Y225D01*
X9408D01*
X9425Y208D01*
Y192D01*
X9408Y175D01*
X9375D01*
X9358Y158D01*
Y142D01*
X9375Y125D01*
X9408D01*
X9425Y142D01*
X9258Y208D02*
X9275Y225D01*
X9308D01*
X9325Y208D01*
Y142D01*
X9308Y125D01*
X9275D01*
X9258Y142D01*
X9225Y108D02*
X9158D01*
X9125Y192D02*
Y142D01*
X9108Y125D01*
X9092Y142D01*
X9075Y125D01*
X9059Y142D01*
Y192D01*
X8975Y125D02*
X9009D01*
X9025Y142D01*
Y175D01*
X9009Y192D01*
X8975D01*
X8959Y175D01*
Y158D01*
X9025D01*
X8875Y125D02*
X8909D01*
X8925Y142D01*
Y175D01*
X8909Y192D01*
X8875D01*
X8859Y175D01*
Y158D01*
X8925D01*
X8825Y125D02*
Y225D01*
Y158D02*
X8775Y192D01*
X8825Y158D02*
X8775Y125D01*
X8659Y225D02*
Y125D01*
X8709D01*
X8725Y142D01*
Y175D01*
X8709Y192D01*
X8659D01*
X8609D02*
X8575D01*
X8559Y175D01*
Y125D01*
X8609D01*
X8625Y142D01*
X8609Y158D01*
X8559D01*
X8525Y192D02*
Y142D01*
X8509Y125D01*
X8459D01*
Y108D01*
X8475Y92D01*
X8492D01*
X8459Y125D02*
Y192D01*
X8325D02*
X8292Y125D01*
X8259Y192D01*
X8225Y125D02*
X8192D01*
X8209D01*
Y225D01*
X8225Y208D01*
X8142Y125D02*
Y142D01*
X8125D01*
Y125D01*
X8142D01*
X8059Y208D02*
X8042Y225D01*
X8009D01*
X7992Y208D01*
Y142D01*
X8009Y125D01*
X8042D01*
X8059Y142D01*
Y208D01*
D19*
X9623Y677D02*
X9649Y702D01*
X9700D01*
X9725Y677D01*
Y575D01*
X9700Y550D01*
X9649D01*
X9623Y575D01*
X9573Y702D02*
X9471D01*
Y677D01*
X9573Y575D01*
Y550D01*
X8123Y652D02*
X8149Y677D01*
X8200D01*
X8225Y652D01*
Y550D01*
X8200Y525D01*
X8149D01*
X8123Y550D01*
X7971Y677D02*
X8022Y652D01*
X8073Y601D01*
Y550D01*
X8047Y525D01*
X7996D01*
X7971Y550D01*
Y576D01*
X7996Y601D01*
X8073D01*
X6598Y652D02*
X6624Y677D01*
X6675D01*
X6700Y652D01*
Y550D01*
X6675Y525D01*
X6624D01*
X6598Y550D01*
X6446Y677D02*
X6548D01*
Y601D01*
X6497Y627D01*
X6471D01*
X6446Y601D01*
Y550D01*
X6471Y525D01*
X6522D01*
X6548Y550D01*
X5123Y652D02*
X5149Y677D01*
X5200D01*
X5225Y652D01*
Y550D01*
X5200Y525D01*
X5149D01*
X5123Y550D01*
X4996Y525D02*
Y677D01*
X5073Y601D01*
X4971D01*
X4378Y427D02*
X4404Y452D01*
X4455D01*
X4480Y427D01*
Y325D01*
X4455Y300D01*
X4404D01*
X4378Y325D01*
X4328Y427D02*
X4302Y452D01*
X4251D01*
X4226Y427D01*
Y402D01*
X4251Y376D01*
X4277D01*
X4251D01*
X4226Y351D01*
Y325D01*
X4251Y300D01*
X4302D01*
X4328Y325D01*
X2878Y427D02*
X2904Y452D01*
X2955D01*
X2980Y427D01*
Y325D01*
X2955Y300D01*
X2904D01*
X2878Y325D01*
X2726Y300D02*
X2828D01*
X2726Y402D01*
Y427D01*
X2751Y452D01*
X2802D01*
X2828Y427D01*
X1123Y627D02*
X1149Y652D01*
X1200D01*
X1225Y627D01*
Y525D01*
X1200Y500D01*
X1149D01*
X1123Y525D01*
X1073Y500D02*
X1022D01*
X1047D01*
Y652D01*
X1073Y627D01*
M02*
