G04 Layer_Color=32896*
%FSLAX42Y42*%
%MOMM*%
G71*
G01*
G75*
%ADD18C,0.20*%
%ADD19C,0.25*%
%ADD25C,0.13*%
%ADD26C,0.05*%
D18*
X9822Y395D02*
Y405D01*
X9938Y395D02*
Y405D01*
X8322Y395D02*
Y405D01*
X8438Y395D02*
Y405D01*
X6822Y395D02*
Y405D01*
X6938Y395D02*
Y405D01*
X5322Y395D02*
Y405D01*
X5438Y395D02*
Y405D01*
X3822Y395D02*
Y405D01*
X3938Y395D02*
Y405D01*
X2323Y395D02*
Y405D01*
X2438Y395D02*
Y405D01*
X818Y395D02*
Y405D01*
X932Y395D02*
Y405D01*
D19*
X9623Y427D02*
X9649Y452D01*
X9700D01*
X9725Y427D01*
Y325D01*
X9700Y300D01*
X9649D01*
X9623Y325D01*
X9573Y452D02*
X9471D01*
Y427D01*
X9573Y325D01*
Y300D01*
X8123Y452D02*
X8149Y477D01*
X8200D01*
X8225Y452D01*
Y350D01*
X8200Y325D01*
X8149D01*
X8123Y350D01*
X7971Y477D02*
X8022Y452D01*
X8073Y401D01*
Y350D01*
X8047Y325D01*
X7996D01*
X7971Y350D01*
Y376D01*
X7996Y401D01*
X8073D01*
X6623Y452D02*
X6649Y477D01*
X6700D01*
X6725Y452D01*
Y350D01*
X6700Y325D01*
X6649D01*
X6623Y350D01*
X6471Y477D02*
X6573D01*
Y401D01*
X6522Y427D01*
X6496D01*
X6471Y401D01*
Y350D01*
X6496Y325D01*
X6547D01*
X6573Y350D01*
X5123Y452D02*
X5149Y477D01*
X5200D01*
X5225Y452D01*
Y350D01*
X5200Y325D01*
X5149D01*
X5123Y350D01*
X4996Y325D02*
Y477D01*
X5073Y401D01*
X4971D01*
X4378Y427D02*
X4404Y452D01*
X4455D01*
X4480Y427D01*
Y325D01*
X4455Y300D01*
X4404D01*
X4378Y325D01*
X4328Y427D02*
X4302Y452D01*
X4251D01*
X4226Y427D01*
Y402D01*
X4251Y376D01*
X4277D01*
X4251D01*
X4226Y351D01*
Y325D01*
X4251Y300D01*
X4302D01*
X4328Y325D01*
X2878Y427D02*
X2904Y452D01*
X2955D01*
X2980Y427D01*
Y325D01*
X2955Y300D01*
X2904D01*
X2878Y325D01*
X2726Y300D02*
X2828D01*
X2726Y402D01*
Y427D01*
X2751Y452D01*
X2802D01*
X2828Y427D01*
X1298Y252D02*
X1324Y277D01*
X1375D01*
X1400Y252D01*
Y150D01*
X1375Y125D01*
X1324D01*
X1298Y150D01*
X1248Y125D02*
X1197D01*
X1222D01*
Y277D01*
X1248Y252D01*
D25*
X9600Y175D02*
Y225D01*
X9567Y175D01*
Y225D01*
X9550Y175D02*
Y225D01*
X9525D01*
X9517Y217D01*
Y200D01*
X9525Y192D01*
X9550D01*
X9467Y217D02*
X9475Y225D01*
X9492D01*
X9500Y217D01*
Y208D01*
X9492Y200D01*
X9475D01*
X9467Y192D01*
Y183D01*
X9475Y175D01*
X9492D01*
X9500Y183D01*
X9417Y217D02*
X9425Y225D01*
X9442D01*
X9450Y217D01*
Y183D01*
X9442Y175D01*
X9425D01*
X9417Y183D01*
X9350Y208D02*
Y183D01*
X9342Y175D01*
X9333Y183D01*
X9325Y175D01*
X9317Y183D01*
Y208D01*
X9275Y175D02*
X9292D01*
X9300Y183D01*
Y200D01*
X9292Y208D01*
X9275D01*
X9267Y200D01*
Y192D01*
X9300D01*
X9225Y175D02*
X9242D01*
X9250Y183D01*
Y200D01*
X9242Y208D01*
X9225D01*
X9217Y200D01*
Y192D01*
X9250D01*
X9200Y175D02*
Y225D01*
Y192D02*
X9175Y208D01*
X9200Y192D02*
X9175Y175D01*
X9117Y225D02*
Y175D01*
X9142D01*
X9150Y183D01*
Y200D01*
X9142Y208D01*
X9117D01*
X9092D02*
X9075D01*
X9067Y200D01*
Y175D01*
X9092D01*
X9100Y183D01*
X9092Y192D01*
X9067D01*
X9050Y208D02*
Y183D01*
X9042Y175D01*
X9017D01*
Y167D01*
X9025Y158D01*
X9034D01*
X9017Y175D02*
Y208D01*
X8950Y175D02*
Y208D01*
X8942D01*
X8934Y200D01*
Y175D01*
Y200D01*
X8925Y208D01*
X8917Y200D01*
Y175D01*
X8892D02*
X8875D01*
X8867Y183D01*
Y200D01*
X8875Y208D01*
X8892D01*
X8900Y200D01*
Y183D01*
X8892Y175D01*
X8817Y225D02*
Y175D01*
X8842D01*
X8850Y183D01*
Y200D01*
X8842Y208D01*
X8817D01*
X8800D02*
Y183D01*
X8792Y175D01*
X8767D01*
Y208D01*
X8750Y175D02*
X8734D01*
X8742D01*
Y225D01*
X8750D01*
X8684Y175D02*
X8700D01*
X8709Y183D01*
Y200D01*
X8700Y208D01*
X8684D01*
X8675Y200D01*
Y192D01*
X8709D01*
X9625Y125D02*
X9642D01*
X9650Y117D01*
Y83D01*
X9642Y75D01*
X9625D01*
X9617Y83D01*
Y117D01*
X9625Y125D01*
X9592Y117D02*
Y108D01*
X9600D01*
X9583D01*
X9592D01*
Y83D01*
X9583Y75D01*
X9558Y125D02*
Y75D01*
Y100D01*
X9550Y108D01*
X9533D01*
X9525Y100D01*
Y75D01*
X9508D02*
Y108D01*
X9483D01*
X9475Y100D01*
Y75D01*
X9458D02*
X9442D01*
X9450D01*
Y108D01*
X9458D01*
X9392Y75D02*
X9408D01*
X9417Y83D01*
Y100D01*
X9408Y108D01*
X9392D01*
X9383Y100D01*
Y92D01*
X9417D01*
X9367Y75D02*
X9350D01*
X9358D01*
Y125D01*
X9367D01*
X9275D02*
Y75D01*
Y92D01*
X9242Y125D01*
X9267Y100D01*
X9242Y75D01*
X9217D02*
X9200D01*
X9192Y83D01*
Y100D01*
X9200Y108D01*
X9217D01*
X9225Y100D01*
Y83D01*
X9217Y75D01*
X9175D02*
Y108D01*
X9150D01*
X9142Y100D01*
Y75D01*
X9117Y108D02*
X9100D01*
X9092Y100D01*
Y75D01*
X9117D01*
X9125Y83D01*
X9117Y92D01*
X9092D01*
X9075Y75D02*
Y108D01*
X9050D01*
X9042Y100D01*
Y75D01*
X8942Y125D02*
X8975D01*
Y75D01*
X8942D01*
X8975Y100D02*
X8959D01*
X8892Y117D02*
X8900Y125D01*
X8917D01*
X8925Y117D01*
Y83D01*
X8917Y75D01*
X8900D01*
X8892Y83D01*
X8842Y125D02*
X8875D01*
Y75D01*
X8842D01*
X8875Y100D02*
X8859D01*
X8742Y75D02*
X8775D01*
X8742Y108D01*
Y117D01*
X8750Y125D01*
X8767D01*
X8775Y117D01*
X8725D02*
X8717Y125D01*
X8700D01*
X8692Y117D01*
Y83D01*
X8700Y75D01*
X8717D01*
X8725Y83D01*
Y117D01*
X8675Y75D02*
X8659D01*
X8667D01*
Y125D01*
X8675Y117D01*
X8634Y125D02*
X8600D01*
Y117D01*
X8634Y83D01*
Y75D01*
D26*
X525Y200D02*
X550D01*
Y188D01*
X546Y183D01*
X529D01*
X525Y188D01*
Y200D01*
Y175D02*
Y167D01*
Y171D01*
X550D01*
Y175D01*
Y167D01*
Y154D02*
X525D01*
X550Y138D01*
X525D01*
X529Y408D02*
X525Y413D01*
Y421D01*
X529Y425D01*
X546D01*
X550Y421D01*
Y413D01*
X546Y408D01*
X538D01*
Y417D01*
X550Y400D02*
X525D01*
X550Y383D01*
X525D01*
Y375D02*
X550D01*
Y363D01*
X546Y358D01*
X529D01*
X525Y363D01*
Y375D01*
Y608D02*
Y625D01*
X538D01*
X533Y617D01*
Y613D01*
X538Y608D01*
X546D01*
X550Y613D01*
Y621D01*
X546Y625D01*
X525Y600D02*
X542D01*
X550Y592D01*
X542Y583D01*
X525D01*
M02*
